<?xml version="1.0" standalone="no"?>
<!DOCTYPE svg PUBLIC "-//W3C//DTD SVG 1.1//EN" "http://www.w3.org/Graphics/SVG/1.1/DTD/svg11.dtd" >
<svg xmlns="http://www.w3.org/2000/svg" xmlns:xlink="http://www.w3.org/1999/xlink" version="1.1">
<metadata>
Created by FontForge 20170731 at Sat Aug 27 13:43:48 2022
 By Aleksey,,,
Copyright (c) 2020 by FontPeople . All rights reserved.
</metadata>
<defs>
<font id="ZabalDEMO-SemiBold" horiz-adv-x="0" >
  <font-face 
    font-family="Zabal DEMO SemiBold"
    font-weight="600"
    font-stretch="normal"
    units-per-em="2048"
    panose-1="0 0 7 0 0 0 0 0 0 0"
    ascent="1638"
    descent="-410"
    x-height="1028"
    cap-height="1446"
    bbox="-993 -489 2910 1956"
    underline-thickness="102"
    underline-position="-307"
    unicode-range="U+000D-FB02"
  />
<missing-glyph horiz-adv-x="1024" 
d="M528 442q-143 30 -221 101.5t-78 165.5q0 51 20.5 100t50.5 87.5t59.5 75.5t50 79t20.5 84q0 46 -28 78t-79 48t-90.5 22.5t-93.5 10.5q49 62 163.5 112t268.5 50q54 0 104.5 -12t100.5 -39t80.5 -81t30.5 -128q0 -83 -38 -176t-88 -168.5t-119.5 -191.5t-113.5 -218z
M580 776q13 21 63 100t68.5 111.5t39.5 88t21 98.5q0 62 -27 103.5t-72.5 58t-105 19.5t-123.5 -12q99 -26 149 -58t50 -85q0 -34 -27 -65t-84 -35q-48 -110 -33 -192t81 -132zM449 -10q-83 0 -138 53t-55 135q0 83 54.5 135t138.5 52t138 -52t54 -135q0 -82 -54.5 -135
t-137.5 -53z" />
    <glyph glyph-name="fi" unicode="fi" horiz-adv-x="1277" 
d="M215 1028v105q0 199 92.5 295t288.5 96q73 0 119 -11l-2 -188q-54 8 -99 8q-49 0 -78 -7t-54 -30t-35.5 -69t-10.5 -121v-78h269v-194h-269v-834h-221v834h-176v194h176zM1018 1206q-61 0 -101 40.5t-40 99.5q0 57 40 95t101 38q60 0 99.5 -38t39.5 -95
q0 -59 -39.5 -99.5t-99.5 -40.5zM1128 0h-223v1028h223v-1028z" />
    <glyph glyph-name="fl" unicode="fl" horiz-adv-x="1275" 
d="M215 1028v105q0 199 92.5 295t288.5 96q73 0 119 -11l-2 -188q-54 8 -99 8q-49 0 -78 -7t-54 -30t-35.5 -69t-10.5 -121v-78h269v-194h-269v-834h-221v834h-176v194h176zM903 0v1501h223v-1501h-223z" />
    <glyph glyph-name=".notdef" horiz-adv-x="1024" 
d="M528 442q-143 30 -221 101.5t-78 165.5q0 51 20.5 100t50.5 87.5t59.5 75.5t50 79t20.5 84q0 46 -28 78t-79 48t-90.5 22.5t-93.5 10.5q49 62 163.5 112t268.5 50q54 0 104.5 -12t100.5 -39t80.5 -81t30.5 -128q0 -83 -38 -176t-88 -168.5t-119.5 -191.5t-113.5 -218z
M580 776q13 21 63 100t68.5 111.5t39.5 88t21 98.5q0 62 -27 103.5t-72.5 58t-105 19.5t-123.5 -12q99 -26 149 -58t50 -85q0 -34 -27 -65t-84 -35q-48 -110 -33 -192t81 -132zM449 -10q-83 0 -138 53t-55 135q0 83 54.5 135t138.5 52t138 -52t54 -135q0 -82 -54.5 -135
t-137.5 -53z" />
    <glyph glyph-name=".null" 
 />
    <glyph glyph-name="nonmarkingreturn" horiz-adv-x="682" 
 />
    <glyph glyph-name="NULL" 
 />
    <glyph glyph-name="NULL" 
 />
    <glyph glyph-name="CR" unicode="&#xd;" horiz-adv-x="681" 
 />
    <glyph glyph-name="space" unicode=" " horiz-adv-x="468" 
 />
    <glyph glyph-name="exclam" unicode="!" horiz-adv-x="530" 
d="M352 440h-174l-41 1006h256zM264 -14q-65 0 -108 42.5t-43 108.5q0 63 43 104.5t108 41.5q66 0 110 -41.5t44 -104.5q0 -66 -44 -108.5t-110 -42.5z" />
    <glyph glyph-name="quotedbl" unicode="&#x22;" horiz-adv-x="839" 
d="M317 870h-202v631h202v-631zM725 870h-203v631h203v-631z" />
    <glyph glyph-name="numbersign" unicode="#" horiz-adv-x="1433" 
d="M1393 1071v-176h-295l-78 -360h262v-175h-301l-78 -360h-190l78 360h-306l-77 -360h-191l78 360h-254v175h293l78 360h-258v176h297l81 375h191l-82 -375h305l82 375h191l-82 -375h256zM524 535h305l78 360h-305z" />
    <glyph glyph-name="dollar" unicode="$" horiz-adv-x="1175" 
d="M1102 406q0 -196 -119 -305.5t-332 -120.5v-164h-143v166q-166 19 -282 96t-165 201l189 110q70 -165 258 -196v436q-73 17 -127.5 37t-109 53t-89.5 75.5t-56.5 105.5t-21.5 142q0 196 125.5 308t325.5 118v162h143v-172q128 -25 221.5 -94.5t139.5 -173.5l-191 -109
q-57 120 -170 162v-430q92 -20 160.5 -48.5t126 -75t87.5 -118t30 -165.5zM340 1049q0 -95 49 -138.5t166 -68.5v420q-100 -8 -157.5 -63t-57.5 -150zM651 598v-412q215 22 215 215q0 85 -48 125.5t-167 71.5z" />
    <glyph glyph-name="percent" unicode="%" horiz-adv-x="2086" 
d="M442 569q-173 0 -279 117.5t-106 333.5q0 214 106 331t279 117q174 0 277.5 -117t103.5 -331q0 -215 -104 -333t-277 -118zM727 0h-213l846 1446h215zM442 750q82 0 130.5 73.5t48.5 196.5t-48.5 195.5t-130.5 72.5q-84 0 -133 -72.5t-49 -195.5q0 -124 49 -197t133 -73z
M1649 -23q-173 0 -279 117.5t-106 333.5q0 214 106.5 331.5t278.5 117.5q174 0 277.5 -117.5t103.5 -331.5q0 -215 -104 -333t-277 -118zM1649 158q82 0 130 73.5t48 196.5t-48 195.5t-130 72.5q-85 0 -134 -72.5t-49 -195.5t49.5 -196.5t133.5 -73.5z" />
    <glyph glyph-name="ampersand" unicode="&#x26;" horiz-adv-x="1423" 
d="M1188 283l166 -174l-146 -138l-153 164q-191 -158 -447 -158q-141 0 -253.5 46.5t-180.5 140t-68 219.5q0 77 25.5 142t74 115t99.5 86t121 73q-154 177 -154 334q0 150 108.5 242.5t278.5 92.5q165 0 273 -95t108 -238q0 -69 -24 -126.5t-71 -102.5t-95.5 -77
t-118.5 -67l313 -328q79 146 82 342h220q-15 -286 -158 -493zM489 1118q0 -53 29 -105.5t92 -121.5q110 55 167 107.5t57 123.5q0 69 -48 113.5t-122 44.5q-75 0 -125 -46.5t-50 -115.5zM627 172q167 0 293 104l-371 394q-104 -58 -159.5 -120t-55.5 -149q0 -111 82.5 -170
t210.5 -59z" />
    <glyph glyph-name="quotesingle" unicode="'" horiz-adv-x="434" 
d="M317 870h-202v631h202v-631z" />
    <glyph glyph-name="parenleft" unicode="(" horiz-adv-x="743" 
d="M725 -164l-100 -172q-246 132 -386.5 369t-140.5 545q0 306 140.5 542.5t386.5 366.5l100 -172q-187 -100 -293 -294t-106 -443q0 -252 106 -447.5t293 -294.5z" />
    <glyph glyph-name="parenright" unicode=")" horiz-adv-x="743" 
d="M119 -336l-101 172q187 99 293.5 294.5t106.5 447.5q0 249 -106.5 442.5t-293.5 294.5l101 172q246 -130 386 -366t140 -543q0 -308 -140 -545t-386 -369z" />
    <glyph glyph-name="asterisk" unicode="*" horiz-adv-x="929" 
d="M774 1380l92 -159l-301 -121l301 -123l-92 -158l-258 197l41 -316h-184l41 316l-258 -197l-93 160l302 121l-302 123l93 157l260 -196l-43 317h184l-43 -317z" />
    <glyph glyph-name="plus" unicode="+" horiz-adv-x="1150" 
d="M678 743h377v-200h-377v-389h-207v389h-377v200h377v390h207v-390z" />
    <glyph glyph-name="comma" unicode="," horiz-adv-x="530" 
d="M279 -299h-173l66 631h252z" />
    <glyph glyph-name="hyphen" unicode="-" horiz-adv-x="948" 
d="M836 414h-723v200h723v-200z" />
    <glyph glyph-name="period" unicode="." horiz-adv-x="530" 
d="M264 -14q-65 0 -108 42.5t-43 108.5q0 63 43 104.5t108 41.5q66 0 110 -41.5t44 -104.5q0 -66 -44 -108.5t-110 -42.5z" />
    <glyph glyph-name="slash" unicode="/" horiz-adv-x="733" 
d="M158 -258h-215l567 1759h215z" />
    <glyph glyph-name="zero" unicode="0" horiz-adv-x="1468" 
d="M735 -23q-138 0 -254.5 51t-200.5 145t-131 235.5t-47 314.5q0 178 47 320t131.5 234.5t200 141.5t254.5 49q286 0 458.5 -195t172.5 -550q0 -173 -47 -314t-130.5 -235.5t-199.5 -145.5t-254 -51zM735 190q181 0 288 141.5t107 391.5q0 260 -106 396t-289 136
q-182 0 -289.5 -136.5t-107.5 -395.5q0 -250 108.5 -391.5t288.5 -141.5z" />
    <glyph glyph-name="one" unicode="1" horiz-adv-x="831" 
d="M668 0h-228v1174l-329 -152l-70 186l563 252h64v-1460z" />
    <glyph glyph-name="two" unicode="2" horiz-adv-x="1214" 
d="M578 344l-158 -135h688v-209h-1020v172l242 219q227 206 286 266q163 164 202 283q16 49 16 98q0 98 -70 160t-195 62q-247 0 -321 -201l-182 123q49 128 185 207t329 79q230 0 358.5 -110t128.5 -293q0 -61 -12 -117.5t-30.5 -104t-55.5 -101t-70.5 -94.5t-92 -97.5
t-105 -98t-123.5 -108.5z" />
    <glyph glyph-name="three" unicode="3" horiz-adv-x="1220" 
d="M616 887q241 0 375.5 -114t134.5 -327q0 -224 -145.5 -346.5t-392.5 -122.5q-199 0 -337.5 76t-199.5 213l189 123q43 -98 132.5 -151.5t211.5 -53.5q142 0 225.5 72t83.5 195q0 124 -91.5 193t-246.5 69q-95 0 -170 -33l-98 137l438 420h-565v209h905v-164l-455 -395h6z
" />
    <glyph glyph-name="four" unicode="4" horiz-adv-x="1280" 
d="M1018 489h203v-198h-203v-291h-217v291h-723v164l444 991h250l-432 -957h461v377h217v-377z" />
    <glyph glyph-name="five" unicode="5" horiz-adv-x="1224" 
d="M625 938q235 0 370 -122.5t135 -354.5q0 -234 -145 -359t-389 -125q-204 0 -345 76t-200 213l187 123q45 -99 134 -152t214 -53q142 0 226.5 75t84.5 206q0 135 -88 205.5t-244 70.5q-87 0 -156 -24.5t-155 -87.5l-125 30l68 787h878v-209h-676l-32 -352q109 53 258 53z
" />
    <glyph glyph-name="six" unicode="6" horiz-adv-x="1325" 
d="M731 981q223 0 361.5 -138.5t138.5 -355.5q0 -221 -154.5 -365.5t-402.5 -144.5q-253 0 -407 149t-154 382q0 129 40 252t120.5 244t179.5 231.5t239 241.5l232 -82q-104 -100 -137 -132.5t-103 -104t-114 -124t-87 -110.5q114 57 248 57zM670 186q146 0 236.5 89
t90.5 217q0 130 -90.5 214.5t-232.5 84.5q-148 0 -239 -91t-91 -221q0 -119 90.5 -206t235.5 -87z" />
    <glyph glyph-name="seven" unicode="7" horiz-adv-x="1128" 
d="M86 1237v209h983v-164l-620 -1282h-252l602 1237h-713z" />
    <glyph glyph-name="eight" unicode="8" horiz-adv-x="1273" 
d="M940 770q119 -52 184.5 -146t65.5 -218q0 -198 -147 -312t-406 -114q-258 0 -404.5 114t-146.5 312q0 124 65.5 218t182.5 146q-95 48 -147 128t-52 183q0 177 134.5 281t367.5 104q232 0 366 -103.5t134 -281.5q0 -103 -51 -183t-146 -128zM637 1264
q-126 0 -200.5 -55.5t-74.5 -147.5t73 -145.5t200 -53.5q128 0 202 53.5t74 145.5t-74 147.5t-200 55.5zM637 188q149 0 234 64t85 172q0 111 -85 175.5t-234 64.5q-151 0 -235.5 -64.5t-84.5 -175.5q0 -109 85.5 -172.5t234.5 -63.5z" />
    <glyph glyph-name="nine" unicode="9" horiz-adv-x="1325" 
d="M651 1468q254 0 407.5 -148.5t153.5 -381.5q0 -129 -40 -252t-120.5 -244t-179.5 -231.5t-239 -241.5l-232 82q104 100 137 132.5t103 104t114 124t87 110.5q-114 -57 -248 -57q-223 0 -361.5 138t-138.5 355q0 221 154.5 365.5t402.5 144.5zM326 954q0 -130 90.5 -214.5
t232.5 -84.5q149 0 240.5 91t91.5 221q0 119 -91 206t-235 87q-146 0 -237.5 -89t-91.5 -217z" />
    <glyph glyph-name="colon" unicode=":" horiz-adv-x="530" 
d="M264 748q-65 0 -108 42.5t-43 108.5q0 63 43 104t108 41q66 0 110 -41t44 -104q0 -66 -44 -108.5t-110 -42.5zM264 -14q-65 0 -108 42.5t-43 108.5q0 63 43 104.5t108 41.5q66 0 110 -41.5t44 -104.5q0 -66 -44 -108.5t-110 -42.5z" />
    <glyph glyph-name="semicolon" unicode=";" horiz-adv-x="542" 
d="M266 748q-66 0 -109.5 42.5t-43.5 108.5q0 63 43.5 104t109.5 41t109 -41t43 -104q0 -66 -43 -108.5t-109 -42.5zM283 -299h-174l65 631h252z" />
    <glyph glyph-name="less" unicode="&#x3c;" horiz-adv-x="1038" 
d="M76 741l868 387v-221l-606 -264l606 -264v-221l-868 387v196z" />
    <glyph glyph-name="equal" unicode="=" horiz-adv-x="1101" 
d="M1008 799h-914v200h914v-200zM1008 285h-914v200h914v-200z" />
    <glyph glyph-name="greater" unicode="&#x3e;" horiz-adv-x="1038" 
d="M94 907v221l869 -387v-196l-869 -387v221l606 264z" />
    <glyph glyph-name="question" unicode="?" horiz-adv-x="1032" 
d="M586 438h-193q0 70 24 134.5t59.5 110t77.5 93.5t77.5 88t59.5 91t24 104q0 89 -65 145t-169 56q-90 0 -159.5 -50t-100.5 -139l-192 88q51 146 177 225.5t290 79.5q123 0 225 -43.5t165.5 -131.5t63.5 -206q0 -64 -20 -122.5t-51.5 -104t-70 -88t-77.5 -81.5t-71 -77
t-52.5 -82.5t-21.5 -89.5zM500 -14q-66 0 -109 42.5t-43 108.5q0 63 43 104.5t109 41.5t109.5 -41.5t43.5 -104.5q0 -66 -43.5 -108.5t-109.5 -42.5z" />
    <glyph glyph-name="at" unicode="@" horiz-adv-x="1734" 
d="M881 1311q173 0 319 -57.5t246 -158.5t155.5 -240.5t55.5 -301.5q0 -204 -98.5 -325.5t-258.5 -121.5q-115 0 -188 56.5t-94 154.5q-67 -104 -195 -104q-120 0 -204 91t-84 233q0 141 81 231t195 90q115 0 178 -92v78h191v-395q0 -179 116 -179q164 0 164 279
q0 252 -158.5 412.5t-420.5 160.5q-171 0 -308.5 -74t-217 -211t-79.5 -313q0 -174 84.5 -311.5t227 -212t315.5 -74.5q190 0 314 70l67 -176q-71 -36 -173.5 -57t-205.5 -21q-237 0 -425.5 99.5t-295 278.5t-106.5 404q0 228 102.5 407.5t285.5 279.5t415 100zM864 381
q61 0 97 42.5t36 113.5q0 70 -36 112.5t-97 42.5q-65 0 -101 -42.5t-36 -112.5t35.5 -113t101.5 -43z" />
    <glyph glyph-name="A" unicode="A" horiz-adv-x="1347" 
d="M1335 0h-248l-116 330h-592l-117 -330h-248l527 1446h268zM897 543l-223 649l-221 -649h444z" />
    <glyph glyph-name="B" unicode="B" horiz-adv-x="1263" 
d="M885 741q147 -31 221 -117t74 -233q0 -85 -24.5 -152.5t-79 -123t-152 -85.5t-232.5 -30h-526v1446h510q236 0 347.5 -97.5t111.5 -265.5q0 -126 -64.5 -214t-185.5 -128zM627 1237h-228v-410h228q129 0 197.5 48t68.5 165q0 106 -59 151.5t-207 45.5zM399 209h250
q159 0 224 48t65 159q0 115 -70.5 161t-218.5 46h-250v-414z" />
    <glyph glyph-name="C" unicode="C" horiz-adv-x="1550" 
d="M860 -23q-162 0 -302 55t-240 152.5t-157 237t-57 301.5t57 301.5t156 236.5t236 152t293 55q217 0 386 -99.5t241 -270.5l-216 -109q-44 122 -155.5 192t-255.5 70q-214 0 -357 -148.5t-143 -379.5q0 -233 143.5 -380.5t366.5 -147.5q154 0 269 74t163 216l215 -100
q-76 -198 -247 -303t-396 -105z" />
    <glyph glyph-name="D" unicode="D" horiz-adv-x="1472" 
d="M649 0h-483v1446h471q176 0 315.5 -53t230 -149t138 -228t47.5 -293q0 -160 -45.5 -292t-133.5 -228.5t-226 -149.5t-314 -53zM399 1231v-1016h252q123 0 215.5 37.5t148.5 106.5t83.5 160t27.5 204q0 233 -121.5 370.5t-365.5 137.5h-240z" />
    <glyph glyph-name="E" unicode="E" horiz-adv-x="1159" 
d="M1063 0h-897v1446h881v-215h-648v-402h562v-211h-562v-403h664v-215z" />
    <glyph glyph-name="F" unicode="F" horiz-adv-x="1095" 
d="M399 0h-233v1446h856v-217h-623v-404h555v-217h-555v-608z" />
    <glyph glyph-name="G" unicode="G" horiz-adv-x="1642" 
d="M842 571v207h727v-49q0 -346 -187 -549t-516 -203q-221 0 -394.5 94t-270.5 264.5t-97 387.5q0 162 57 301.5t156 236.5t236 152t293 55q215 0 383.5 -98.5t243.5 -267.5l-218 -107q-44 120 -155 188t-254 68q-214 0 -357 -148.5t-143 -379.5q0 -234 143 -381t377 -147
q192 0 308 101t151 275h-483z" />
    <glyph glyph-name="H" unicode="H" horiz-adv-x="1468" 
d="M399 0h-233v1446h233v-615h668v615h236v-1446h-236v616h-668v-616z" />
    <glyph glyph-name="I" unicode="I" horiz-adv-x="585" 
d="M412 0h-238v1446h238v-1446z" />
    <glyph glyph-name="J" unicode="J" horiz-adv-x="1105" 
d="M532 -23q-185 0 -306 80t-177 222l189 116q39 -101 106.5 -150.5t171.5 -49.5q127 0 174 78t47 245v928h236v-920q0 -130 -21 -226t-70 -171t-136.5 -113.5t-213.5 -38.5z" />
    <glyph glyph-name="K" unicode="K" horiz-adv-x="1331" 
d="M674 760l633 -760h-303l-605 719v-719h-233v1446h233v-658l555 658h297z" />
    <glyph glyph-name="L" unicode="L" horiz-adv-x="1105" 
d="M1047 0h-881v1446h233v-1229h648v-217z" />
    <glyph glyph-name="M" unicode="M" horiz-adv-x="1798" 
d="M399 0h-233v1446h254l481 -944l477 944h256v-1446h-233v1001l-420 -813h-164l-418 813v-1001z" />
    <glyph glyph-name="N" unicode="N" horiz-adv-x="1484" 
d="M399 0h-233v1446h221l700 -1022v1022h234v-1446h-223l-699 1022v-1022z" />
    <glyph glyph-name="O" unicode="O" horiz-adv-x="1712" 
d="M856 -23q-211 0 -382 94t-270.5 265t-99.5 387t99.5 387t270.5 264.5t382 93.5t382 -93.5t270.5 -264.5t99.5 -387t-99.5 -387t-270.5 -265t-382 -94zM856 195q219 0 363.5 148.5t144.5 379.5t-144.5 379.5t-363.5 148.5t-364.5 -148.5t-145.5 -379.5t145.5 -379.5
t364.5 -148.5z" />
    <glyph glyph-name="P" unicode="P" horiz-adv-x="1234" 
d="M399 0h-233v1446h528q463 0 463 -438q0 -223 -123 -341t-350 -118h-285v-549zM399 1233v-473h246q140 0 205 53t65 191q0 128 -58.5 178.5t-209.5 50.5h-248z" />
    <glyph glyph-name="Q" unicode="Q" horiz-adv-x="1712" 
d="M1608 723q0 -265 -148 -459l144 -192l-172 -125l-123 170q-199 -140 -453 -140q-211 0 -382 94t-270.5 265t-99.5 387t99.5 387t270.5 264.5t382 93.5t382 -93.5t270.5 -264.5t99.5 -387zM346 723q0 -231 145.5 -379.5t364.5 -148.5q169 0 297 92l-268 358l170 123
l237 -328q72 128 72 283q0 231 -144.5 379.5t-363.5 148.5t-364.5 -148.5t-145.5 -379.5z" />
    <glyph glyph-name="R" unicode="R" horiz-adv-x="1314" 
d="M846 618l448 -618h-286l-414 573h-195v-573h-233v1446h510q240 0 351.5 -112.5t111.5 -313.5q0 -166 -76 -268.5t-217 -133.5zM629 1233h-230v-455h228q65 0 111 9.5t84 34.5t56.5 72.5t18.5 117.5q0 128 -61.5 174.5t-206.5 46.5z" />
    <glyph glyph-name="S" unicode="S" horiz-adv-x="1175" 
d="M604 -23q-202 0 -344.5 79t-198.5 220l193 117q86 -203 344 -203q126 0 194 53t68 158q0 50 -15.5 83.5t-55 57t-88.5 38t-136 32.5q-84 18 -143.5 36.5t-123.5 52t-103.5 77t-65 111t-25.5 153.5q0 200 132 313t339 113q173 0 300.5 -74.5t185.5 -203.5l-197 -115
q-85 180 -282 180q-109 0 -172.5 -54t-63.5 -154q0 -39 7.5 -68.5t27 -51.5t41 -36.5t62.5 -27.5t77 -21t98 -19q80 -15 142 -35t120.5 -53t96.5 -76t61 -107t23 -144q0 -208 -131.5 -319.5t-366.5 -111.5z" />
    <glyph glyph-name="T" unicode="T" horiz-adv-x="1208" 
d="M721 0h-234v1229h-428v217h1090v-217h-428v-1229z" />
    <glyph glyph-name="U" unicode="U" horiz-adv-x="1413" 
d="M707 -23q-574 0 -574 611v858h236v-848q0 -203 76.5 -303t261.5 -100t262.5 100t77.5 303v848h233v-858q0 -611 -573 -611z" />
    <glyph glyph-name="V" unicode="V" horiz-adv-x="1300" 
d="M651 276l383 1170h252l-500 -1446h-270l-502 1446h252z" />
    <glyph glyph-name="W" unicode="W" horiz-adv-x="1970" 
d="M1423 305l285 1141h248l-397 -1446h-248l-326 1079l-326 -1079h-247l-398 1446h248l285 -1141l321 1141h232z" />
    <glyph glyph-name="X" unicode="X" horiz-adv-x="1306" 
d="M301 0h-276l473 752l-435 694h277l313 -520l314 520h276l-434 -692l471 -754h-274l-355 578z" />
    <glyph glyph-name="Y" unicode="Y" horiz-adv-x="1249" 
d="M739 0h-233v547l-500 899h273l346 -658l346 658h272l-504 -901v-545z" />
    <glyph glyph-name="Z" unicode="Z" horiz-adv-x="1173" 
d="M1090 1268l-707 -1051h747v-217h-1054v180l706 1049h-682v217h990v-178z" />
    <glyph glyph-name="bracketleft" unicode="[" horiz-adv-x="696" 
d="M657 -313h-497v1769h497v-196h-278v-1377h278v-196z" />
    <glyph glyph-name="backslash" unicode="\" horiz-adv-x="733" 
d="M223 1501l568 -1759h-216l-567 1759h215z" />
    <glyph glyph-name="bracketright" unicode="]" horiz-adv-x="696" 
d="M535 -313h-498v196h278v1377h-278v196h498v-1769z" />
    <glyph glyph-name="asciicircum" unicode="^" horiz-adv-x="1126" 
d="M332 758h-234l389 688h152l391 -688h-233l-234 422z" />
    <glyph glyph-name="underscore" unicode="_" horiz-adv-x="925" 
d="M946 -297h-966v203h966v-203z" />
    <glyph glyph-name="grave" unicode="`" horiz-adv-x="724" 
d="M563 1174h-192l-211 327h246z" />
    <glyph glyph-name="a" unicode="a" horiz-adv-x="1259" 
d="M557 -23q-211 0 -345 150t-134 387q0 238 133.5 387.5t347.5 149.5q120 0 208.5 -49.5t139.5 -139.5v166h221v-1028h-221v166q-52 -88 -141 -138.5t-209 -50.5zM608 178q131 0 216 93t85 243q0 151 -85 244.5t-216 93.5q-135 0 -220 -94.5t-85 -243.5t85 -242.5
t220 -93.5z" />
    <glyph glyph-name="b" unicode="b" horiz-adv-x="1267" 
d="M709 -23q-119 0 -208.5 50.5t-140.5 138.5v-166h-221v1501h221v-639q51 90 139.5 139.5t207.5 49.5q215 0 349 -149.5t134 -387.5t-134.5 -387.5t-346.5 -149.5zM659 178q134 0 220 93.5t86 242.5t-86 243.5t-220 94.5q-132 0 -216.5 -93.5t-84.5 -244.5t84.5 -243.5
t216.5 -92.5z" />
    <glyph glyph-name="c" unicode="c" horiz-adv-x="1114" 
d="M621 -23q-153 0 -277 67.5t-195 190.5t-71 279t70.5 279t193.5 190.5t274 67.5q153 0 273 -68t180 -190l-195 -101q-38 75 -106 117.5t-152 42.5q-135 0 -224 -94.5t-89 -243.5q0 -148 89.5 -242t225.5 -94q91 0 162 43t109 131l196 -94q-61 -141 -184 -211t-280 -70z
" />
    <glyph glyph-name="d" unicode="d" horiz-adv-x="1259" 
d="M557 -23q-211 0 -345 150t-134 387q0 238 133.5 387.5t347.5 149.5q120 0 208.5 -49.5t139.5 -139.5v639h221v-1501h-221v166q-52 -88 -141 -138.5t-209 -50.5zM608 178q131 0 216 93t85 243q0 151 -85 244.5t-216 93.5q-135 0 -220 -94.5t-85 -243.5t85 -242.5
t220 -93.5z" />
    <glyph glyph-name="e" unicode="e" horiz-adv-x="1193" 
d="M1122 514q0 -1 -6 -82h-811q19 -119 106 -189.5t226 -70.5q188 0 278 137l185 -100q-64 -114 -188.5 -173t-278.5 -59q-252 0 -403.5 149t-151.5 388q0 236 150 386.5t382 150.5q229 0 370.5 -148t141.5 -389zM614 862q-120 0 -203.5 -70.5t-105.5 -187.5h600
q-20 120 -97 189t-194 69z" />
    <glyph glyph-name="f" unicode="f" horiz-adv-x="753" 
d="M614 1333q-49 0 -78 -7t-54 -30t-35.5 -69t-10.5 -121v-78h269v-194h-269v-834h-221v834h-176v194h176v105q0 199 92.5 295t288.5 96q73 0 119 -11l-2 -188q-54 8 -99 8z" />
    <glyph glyph-name="g" unicode="g" horiz-adv-x="1259" 
d="M610 -424q-341 0 -471 240l195 92q43 -72 107.5 -105.5t162.5 -33.5q149 0 226 75.5t77 223.5v116q-51 -85 -140 -133.5t-210 -48.5q-211 0 -345 147t-134 379q0 231 134 377t347 146q120 0 209 -47.5t139 -133.5v158h221v-938q0 -243 -137.5 -378.5t-380.5 -135.5z
M608 199q131 0 216 90.5t85 236.5t-85 236t-216 90q-135 0 -220 -90.5t-85 -235.5t85 -236t220 -91z" />
    <glyph glyph-name="h" unicode="h" horiz-adv-x="1206" 
d="M360 0h-221v1501h221v-633q51 91 141 137t201 46q186 0 284.5 -111t98.5 -328v-612h-219v575q0 144 -56.5 211.5t-172.5 67.5q-124 0 -200.5 -88t-76.5 -221v-545z" />
    <glyph glyph-name="i" unicode="i" horiz-adv-x="524" 
d="M264 1206q-61 0 -101 40.5t-40 99.5q0 57 40 95t101 38q60 0 99.5 -38t39.5 -95q0 -59 -39.5 -99.5t-99.5 -40.5zM375 0h-223v1028h223v-1028z" />
    <glyph glyph-name="j" unicode="j" horiz-adv-x="524" 
d="M264 1206q-61 0 -101 40.5t-40 99.5q0 57 40 95t101 38q60 0 99.5 -38t39.5 -95q0 -59 -39.5 -99.5t-99.5 -40.5zM31 -424q-75 0 -127 10l2 191q62 -8 98 -8q79 0 113.5 42t34.5 160v1057h223v-1079q0 -180 -86 -276.5t-258 -96.5z" />
    <glyph glyph-name="k" unicode="k" horiz-adv-x="1103" 
d="M598 545l494 -545h-279l-453 508v-508h-221v1501h221v-930l414 457h277z" />
    <glyph glyph-name="l" unicode="l" horiz-adv-x="522" 
d="M373 0h-223v1501h223v-1501z" />
    <glyph glyph-name="m" unicode="m" horiz-adv-x="1806" 
d="M1327 1051q176 0 267.5 -111t91.5 -328v-612h-222v575q0 143 -48.5 211t-151.5 68q-106 0 -174 -83.5t-68 -195.5v-575h-219v575q0 142 -49.5 210.5t-151.5 68.5q-108 0 -175 -88t-67 -221v-545h-221v1028h219v-162q48 92 130 138.5t184 46.5q224 0 305 -193
q129 193 350 193z" />
    <glyph glyph-name="n" unicode="n" horiz-adv-x="1196" 
d="M360 0h-221v1028h219v-162q51 92 140 138.5t200 46.5q182 0 279.5 -111.5t97.5 -327.5v-612h-219v575q0 143 -55.5 211t-169.5 68q-122 0 -196.5 -88t-74.5 -221v-545z" />
    <glyph glyph-name="o" unicode="o" horiz-adv-x="1245" 
d="M623 -23q-152 0 -276.5 67.5t-196.5 191t-72 278.5t72 278.5t196.5 191t276.5 67.5q233 0 388.5 -151t155.5 -386t-155.5 -386t-388.5 -151zM623 178q138 0 229.5 94t91.5 242t-91.5 243t-229.5 95t-229 -95t-91 -243t91 -242t229 -94z" />
    <glyph glyph-name="p" unicode="p" horiz-adv-x="1267" 
d="M360 -401h-221v1429h221v-166q51 90 139.5 139.5t207.5 49.5q215 0 349 -149.5t134 -387.5t-134.5 -387.5t-346.5 -149.5q-119 0 -208.5 50.5t-140.5 138.5v-567zM659 178q134 0 220 93.5t86 242.5t-86 243.5t-220 94.5q-132 0 -216.5 -93.5t-84.5 -244.5t84.5 -243.5
t216.5 -92.5z" />
    <glyph glyph-name="q" unicode="q" horiz-adv-x="1259" 
d="M1128 -401h-221v567q-52 -88 -141 -138.5t-209 -50.5q-211 0 -345 150t-134 387q0 238 133.5 387.5t347.5 149.5q120 0 208.5 -49.5t139.5 -139.5v166h221v-1429zM608 178q131 0 216 93t85 243q0 151 -85 244.5t-216 93.5q-135 0 -220 -94.5t-85 -243.5t85 -242.5
t220 -93.5z" />
    <glyph glyph-name="r" unicode="r" horiz-adv-x="780" 
d="M360 0h-221v1028h219v-182q50 103 137 154t199 51q31 0 45 -2l-2 -230q-49 6 -94 6q-129 0 -206 -96t-77 -244v-485z" />
    <glyph glyph-name="s" unicode="s" horiz-adv-x="974" 
d="M512 -23q-172 0 -290.5 67.5t-170.5 186.5l182 95q87 -162 283 -162q93 0 135.5 31t42.5 100q0 55 -47 84.5t-182 52.5q-178 32 -271.5 100.5t-93.5 200.5q0 157 111.5 237.5t282.5 80.5q145 0 249 -53.5t156 -149.5l-182 -100q-34 58 -84 86t-133 28q-85 0 -133 -30
t-48 -91q0 -50 51 -78t169 -49q96 -16 160.5 -36t117 -55t77 -88.5t24.5 -129.5q0 -162 -103 -245t-303 -83z" />
    <glyph glyph-name="t" unicode="t" horiz-adv-x="774" 
d="M709 201l2 -193q-24 -11 -76.5 -18.5t-99.5 -7.5q-91 0 -154.5 25t-98.5 73t-50 105.5t-15 133.5v515h-178v194h178v270h221v-270h271v-194h-271v-488q0 -92 30.5 -130t106.5 -38q71 0 134 23z" />
    <glyph glyph-name="u" unicode="u" horiz-adv-x="1177" 
d="M496 -23q-184 0 -283.5 114.5t-99.5 332.5v604h221v-567q0 -285 229 -285q124 0 193 87t69 222v543h219v-1028h-219v162q-102 -185 -329 -185z" />
    <glyph glyph-name="v" unicode="v" horiz-adv-x="1095" 
d="M553 233l274 795h244l-393 -1028h-244l-409 1028h245z" />
    <glyph glyph-name="w" unicode="w" horiz-adv-x="1554" 
d="M1112 264l184 764h234l-297 -1028h-225l-230 731l-231 -731h-225l-297 1028h233l186 -762l230 762h207z" />
    <glyph glyph-name="x" unicode="x" horiz-adv-x="1077" 
d="M281 0h-265l367 535l-354 493h266l242 -360l237 360h266l-352 -496l373 -532h-264l-262 387z" />
    <glyph glyph-name="y" unicode="y" horiz-adv-x="1095" 
d="M555 242l272 786h244l-541 -1429h-237l160 395l-426 1034h245z" />
    <glyph glyph-name="z" unicode="z" horiz-adv-x="993" 
d="M891 887l-504 -690h539v-197h-836v143l504 691h-500v194h797v-141z" />
    <glyph glyph-name="braceleft" unicode="{" horiz-adv-x="770" 
d="M428 1114v-276q0 -213 -186 -269q186 -56 186 -268v-272q0 -66 37 -106t100 -40h168v-196h-215q-148 0 -229.5 83.5t-81.5 229.5v307q0 80 -40 126t-118 46h-37v183h37q78 0 118 44.5t40 124.5v314q0 144 81.5 227.5t229.5 83.5h215v-196h-168q-63 0 -100 -40t-37 -106z
" />
    <glyph glyph-name="bar" unicode="|" horiz-adv-x="567" 
d="M389 -401h-209v2048h209v-2048z" />
    <glyph glyph-name="braceright" unicode="}" horiz-adv-x="770" 
d="M721 662h37v-183h-37q-78 0 -119 -46t-41 -126v-307q0 -146 -80.5 -229.5t-228.5 -83.5h-215v196h168q63 0 100 40t37 106v272q0 212 186 268q-186 56 -186 269v276q0 66 -37 106t-100 40h-168v196h215q147 0 228 -83.5t81 -227.5v-314q0 -79 41 -124t119 -45z" />
    <glyph glyph-name="asciitilde" unicode="~" horiz-adv-x="1212" 
d="M233 473l-120 74q27 129 109.5 198.5t199.5 69.5q53 0 109 -21t95.5 -45.5t87 -45.5t85.5 -21q39 0 68.5 10t50 31t32.5 40t27 50l123 -74q-29 -129 -111.5 -197.5t-200.5 -68.5q-53 0 -108.5 21t-94.5 45.5t-86 45.5t-85 21q-71 0 -110.5 -34t-70.5 -99z" />
    <glyph glyph-name="uni00A0" unicode="&#xa0;" horiz-adv-x="468" 
 />
    <glyph glyph-name="exclamdown" unicode="&#xa1;" horiz-adv-x="530" 
d="M264 1059q66 0 110 -43t44 -109q0 -63 -44 -104t-110 -41q-65 0 -108 41t-43 104q0 66 43 109t108 43zM178 604h174l41 -1005h-256z" />
    <glyph glyph-name="cent" unicode="&#xa2;" horiz-adv-x="1112" 
d="M891 559l192 -90q-60 -140 -184.5 -210.5t-280.5 -70.5q-46 0 -114 11l-64 -195h-141l78 236q-138 64 -218.5 191.5t-80.5 293.5q0 156 70.5 279.5t193 191.5t272.5 68q48 0 95 -9l61 191h141l-73 -227q155 -67 229 -215l-190 -95q-38 74 -103 115l-209 -637q32 -4 53 -4
q92 0 163.5 43.5t109.5 132.5zM295 725q0 -95 38.5 -170.5t106.5 -120.5l207 633q-10 2 -31 2q-138 0 -229.5 -96.5t-91.5 -247.5z" />
    <glyph glyph-name="sterling" unicode="&#xa3;" horiz-adv-x="1224" 
d="M483 588v-377h682v-211h-1091v211h178v377h-160v192h160v152q0 249 124.5 392.5t342.5 143.5q157 0 270.5 -74t165.5 -204l-174 -119q-33 89 -90.5 134.5t-155.5 45.5q-132 0 -192 -82t-60 -237v-152h449v-192h-449z" />
    <glyph glyph-name="currency" unicode="&#xa4;" horiz-adv-x="1169" 
d="M1036 721q0 -142 -71 -252l139 -141l-125 -125l-141 141q-112 -70 -256 -70q-138 0 -252 68l-140 -139l-127 125l140 139q-74 113 -74 254q0 145 76 254l-142 141l127 125l144 -141q111 65 248 65q143 0 252 -67l145 143l125 -125l-141 -141q73 -112 73 -254zM582 465
q115 0 182 72.5t67 183.5t-67 183.5t-182 72.5q-112 0 -180 -73t-68 -183t68 -183t180 -73z" />
    <glyph glyph-name="yen" unicode="&#xa5;" horiz-adv-x="1249" 
d="M971 1446h272l-387 -692h223v-154h-309l-31 -55v-111h340v-153h-340v-281h-233v281h-336v153h336v113l-29 53h-307v154h221l-385 692h273l346 -658z" />
    <glyph glyph-name="brokenbar" unicode="&#xa6;" horiz-adv-x="567" 
d="M389 827h-209v820h209v-820zM389 -401h-209v819h209v-819z" />
    <glyph glyph-name="section" unicode="&#xa7;" horiz-adv-x="1120" 
d="M840 367q170 -90 170 -283q0 -167 -115 -265t-317 -98q-180 0 -302.5 68.5t-173.5 185.5l191 105q77 -162 274 -162q101 0 160 43t59 117t-60.5 111.5t-197.5 70.5q-57 14 -99.5 27.5t-89 33.5t-79 45.5t-59.5 59t-40.5 78.5t-13.5 100q0 92 40.5 166.5t115.5 118.5
q-156 95 -156 278q0 160 108.5 258.5t295.5 98.5q156 0 270.5 -65t149.5 -165l-185 -100q-77 135 -225 135q-86 0 -138 -44t-52 -118q0 -33 12.5 -58.5t31.5 -43t55.5 -32.5t70 -24.5t90.5 -23.5q69 -16 120.5 -33t101.5 -44.5t81.5 -62t50.5 -85.5t19 -115
q0 -193 -164 -278zM350 639q0 -88 58.5 -129t220.5 -76q83 13 125.5 58.5t42.5 115.5q0 81 -57.5 126.5t-215.5 76.5q-8 1 -21 4t-18 4q-61 -19 -98 -69t-37 -111z" />
    <glyph glyph-name="dieresis" unicode="&#xa8;" horiz-adv-x="724" 
d="M164 1212q-58 0 -96.5 38.5t-38.5 95.5q0 54 38.5 91.5t96.5 37.5t96.5 -37.5t38.5 -91.5q0 -57 -38.5 -95.5t-96.5 -38.5zM561 1212q-57 0 -96 39t-39 95q0 54 39 91.5t96 37.5t96 -37.5t39 -91.5q0 -56 -39 -95t-96 -39z" />
    <glyph glyph-name="copyright" unicode="&#xa9;" horiz-adv-x="1708" 
d="M854 -23q-214 0 -385.5 96t-268 266.5t-96.5 383.5t96.5 383.5t268 266t385.5 95.5t385.5 -95.5t268 -266t96.5 -383.5t-96.5 -383.5t-268 -266.5t-385.5 -96zM854 123q171 0 307.5 77t213.5 214t77 309t-77 309t-213.5 214t-307.5 77q-261 0 -430.5 -169.5
t-169.5 -430.5t169.5 -430.5t430.5 -169.5zM870 319q-176 0 -289.5 111.5t-113.5 288.5t113.5 288t285.5 111q117 0 209 -51.5t135 -140.5l-168 -88q-26 48 -71 77t-101 29q-90 0 -149 -63t-59 -162t59.5 -162t150.5 -63q128 0 181 120l168 -86q-43 -105 -136.5 -157
t-214.5 -52z" />
    <glyph glyph-name="ordfeminine" unicode="&#xaa;" horiz-adv-x="872" 
d="M391 764q-143 0 -236.5 98.5t-93.5 249.5t94 248.5t236 97.5q138 0 219 -98v86h178v-670h-178v88q-84 -100 -219 -100zM434 922q81 0 130.5 52.5t49.5 137.5t-49.5 138t-130.5 53q-84 0 -134 -52.5t-50 -138.5q0 -84 50 -137t134 -53z" />
    <glyph glyph-name="guillemotleft" unicode="&#xab;" horiz-adv-x="1128" 
d="M547 139l-166 -114l-332 483l332 485l166 -114l-254 -371zM1057 139l-166 -114l-330 483l330 485l166 -114l-252 -371z" />
    <glyph glyph-name="logicalnot" unicode="&#xac;" horiz-adv-x="1105" 
d="M1012 383h-219v309h-699v201h918v-510z" />
    <glyph glyph-name="uni00AD" unicode="&#xad;" horiz-adv-x="948" 
d="M836 414h-723v200h723v-200z" />
    <glyph glyph-name="registered" unicode="&#xae;" horiz-adv-x="1046" 
d="M524 1468q201 0 326 -125.5t125 -320.5q0 -196 -125.5 -321.5t-325.5 -125.5q-201 0 -326.5 125.5t-125.5 321.5q0 195 125.5 320.5t326.5 125.5zM524 645q166 0 271.5 106.5t105.5 270.5q0 163 -105 270t-272 107t-273 -107t-106 -270q0 -164 105.5 -270.5t273.5 -106.5
zM713 1118q0 -97 -86 -123l123 -204h-132l-96 172h-69v-172h-109v469h213q77 0 116.5 -38.5t39.5 -103.5zM451 1174v-132h73q35 0 55.5 17.5t20.5 50.5q0 31 -20 47.5t-54 16.5h-75z" />
    <glyph glyph-name="macron" unicode="&#xaf;" horiz-adv-x="724" 
d="M649 1249h-571v174h571v-174z" />
    <glyph glyph-name="degree" unicode="&#xb0;" horiz-adv-x="897" 
d="M451 803q-165 0 -272 101t-107 257q0 157 107.5 260t271.5 103q162 0 268 -103t106 -260q0 -155 -105.5 -256.5t-268.5 -101.5zM451 979q82 0 133 52t51 130q0 80 -51 133.5t-133 53.5q-84 0 -136.5 -53t-52.5 -132t52.5 -131.5t136.5 -52.5z" />
    <glyph glyph-name="plusminus" unicode="&#xb1;" horiz-adv-x="1150" 
d="M678 1327v-383h377v-203h-377v-383h-207v383h-377v203h377v383h207zM1055 0h-961v203h961v-203z" />
    <glyph glyph-name="uni00B2" unicode="&#xb2;" horiz-adv-x="749" 
d="M428 1032l-96 -80h358v-178h-639v135l180 160q88 77 129.5 117t74 90.5t32.5 95.5q0 98 -121 98q-117 0 -168 -96l-147 111q35 72 123 119t206 47q142 0 225 -68t83 -190q0 -100 -54 -175.5t-186 -185.5z" />
    <glyph glyph-name="uni00B3" unicode="&#xb3;" horiz-adv-x="755" 
d="M657 1489l-196 -186q107 -17 171 -90.5t64 -180.5q0 -134 -91 -207t-236 -73q-124 0 -210 40.5t-130 106.5l127 125q27 -43 79.5 -69.5t116.5 -26.5q65 0 104.5 34t39.5 93q0 63 -40 99t-108 36q-63 0 -94 -16l-61 81l217 203h-328v170h575v-139z" />
    <glyph glyph-name="acute" unicode="&#xb4;" horiz-adv-x="724" 
d="M352 1174h-192l157 327h246z" />
    <glyph glyph-name="uni00B5" unicode="&#xb5;" horiz-adv-x="1163" 
d="M811 485v543h221v-1028h-215v166q-91 -186 -291 -186q-131 0 -207 73v-454h-219v1429h219v-567q0 -285 230 -285q124 0 193 87t69 222z" />
    <glyph glyph-name="paragraph" unicode="&#xb6;" horiz-adv-x="987" 
d="M813 1446v-1847h-225v1032h-37q-218 0 -345.5 113t-127.5 305q0 182 125.5 289.5t337.5 107.5h272z" />
    <glyph glyph-name="periodcentered" unicode="&#xb7;" horiz-adv-x="530" 
d="M264 367q-65 0 -108 42.5t-43 106.5t43 105t108 41q66 0 110 -41t44 -105t-44 -106.5t-110 -42.5z" />
    <glyph glyph-name="cedilla" unicode="&#xb8;" horiz-adv-x="724" 
d="M324 -489q-96 0 -191 28v156q114 -29 174 -29q90 0 90 68q0 35 -30.5 53t-108.5 18h-35v213h162v-116q95 -12 152 -61t57 -126q0 -97 -69 -150.5t-201 -53.5z" />
    <glyph glyph-name="uni00B9" unicode="&#xb9;" horiz-adv-x="606" 
d="M483 774h-198v629l-199 -76l-59 164l389 147h67v-864z" />
    <glyph glyph-name="ordmasculine" unicode="&#xba;" horiz-adv-x="858" 
d="M430 764q-167 0 -268 95.5t-101 252.5q0 158 101.5 252t267.5 94q167 0 267 -94.5t100 -251.5t-100 -252.5t-267 -95.5zM430 930q79 0 128.5 51t49.5 131q0 81 -49 130.5t-129 49.5t-129 -49.5t-49 -130.5q0 -80 50 -131t128 -51z" />
    <glyph glyph-name="guillemotright" unicode="&#xbb;" horiz-adv-x="1128" 
d="M567 508l-329 -483l-166 114l252 369l-252 371l166 114zM1079 508l-331 -483l-166 114l254 369l-254 371l166 114z" />
    <glyph glyph-name="onequarter" unicode="&#xbc;" horiz-adv-x="1753" 
d="M483 1456v-864h-198v629l-199 -76l-59 164l389 147h67zM295 0l846 1446h215l-848 -1446h-213zM1614 309h98v-157h-98v-152h-178v152h-443v151l240 551h205l-234 -545h240v242h170v-242z" />
    <glyph glyph-name="onehalf" unicode="&#xbd;" horiz-adv-x="1792" 
d="M483 1456v-864h-198v629l-199 -76l-59 164l389 147h67zM295 0l846 1446h215l-848 -1446h-213zM1473 258l-97 -80h359v-178h-639v135l180 160q129 113 182 176t53 127q0 98 -120 98q-117 0 -168 -96l-148 111q35 72 123.5 119t206.5 47q142 0 224.5 -68.5t82.5 -190.5
q0 -100 -53.5 -175t-185.5 -185z" />
    <glyph glyph-name="threequarters" unicode="&#xbe;" horiz-adv-x="1878" 
d="M696 850q0 -134 -91 -207.5t-236 -73.5q-123 0 -209 41t-131 107l127 125q27 -44 80 -70.5t116 -26.5q65 0 104.5 34t39.5 93q0 63 -40 99.5t-108 36.5q-61 0 -94 -17l-61 82l217 203h-328v170h575v-139l-196 -187q108 -17 171.5 -90t63.5 -180zM420 0l846 1446h215
l-848 -1446h-213zM1739 309h98v-157h-98v-152h-178v152h-443v151l240 551h205l-234 -545h240v242h170v-242z" />
    <glyph glyph-name="questiondown" unicode="&#xbf;" horiz-adv-x="952" 
d="M528 1057q66 0 109 -42.5t43 -107.5q0 -64 -43 -105.5t-109 -41.5t-109.5 41.5t-43.5 105.5q0 65 43.5 107.5t109.5 42.5zM446 604h193q0 -71 -24 -135.5t-59.5 -109.5t-77.5 -93t-77.5 -87.5t-59.5 -90.5t-24 -104q0 -91 64 -146t170 -55q89 0 158.5 49t99.5 137
l192 -86q-51 -147 -176.5 -227t-289.5 -80q-122 0 -223.5 43.5t-165.5 131.5t-64 206q0 64 20 123t51.5 105t70 88.5t77.5 81.5t71 77t52.5 82.5t21.5 89.5z" />
    <glyph glyph-name="Agrave" unicode="&#xc0;" horiz-adv-x="1347" 
d="M614 1874l162 -315h-196l-215 315h249zM1335 0h-248l-116 330h-592l-117 -330h-248l527 1446h268zM897 543l-223 649l-221 -649h444z" />
    <glyph glyph-name="Aacute" unicode="&#xc1;" horiz-adv-x="1347" 
d="M737 1874h250l-215 -315h-197zM1335 0h-248l-116 330h-592l-117 -330h-248l527 1446h268zM897 543l-223 649l-221 -649h444z" />
    <glyph glyph-name="Acircumflex" unicode="&#xc2;" horiz-adv-x="1347" 
d="M813 1559l-137 180l-139 -180h-205l250 315h186l250 -315h-205zM1335 0h-248l-116 330h-592l-117 -330h-248l527 1446h268zM897 543l-223 649l-221 -649h444z" />
    <glyph glyph-name="Atilde" unicode="&#xc3;" horiz-adv-x="1347" 
d="M563 1677q-59 0 -59 -104h-168q0 128 57 202t152 74q44 0 84.5 -18t65 -40t51.5 -40t47 -18q55 0 55 108h168q0 -129 -56 -203.5t-151 -74.5q-44 0 -84 18t-64 39t-51 39t-47 18zM1335 0h-248l-116 330h-592l-117 -330h-248l527 1446h268zM897 543l-223 649l-221 -649
h444z" />
    <glyph glyph-name="Adieresis" unicode="&#xc4;" horiz-adv-x="1347" 
d="M477 1581q-58 0 -96.5 39t-38.5 96q0 54 38.5 91.5t96.5 37.5t96.5 -37.5t38.5 -91.5q0 -57 -38.5 -96t-96.5 -39zM874 1581q-57 0 -96 39.5t-39 95.5q0 53 39 91t96 38t96.5 -38t39.5 -91q0 -56 -39.5 -95.5t-96.5 -39.5zM1335 0h-248l-116 330h-592l-117 -330h-248
l527 1446h268zM897 543l-223 649l-221 -649h444z" />
    <glyph glyph-name="Aring" unicode="&#xc5;" horiz-adv-x="1347" 
d="M678 1518q-104 0 -171 61t-67 158q0 96 67.5 157.5t170.5 61.5q102 0 167.5 -61.5t65.5 -157.5t-65.5 -157.5t-167.5 -61.5zM676 1843q-45 0 -77 -30t-32 -76q0 -47 31.5 -77t77.5 -30t77 30t31 77q0 46 -30.5 76t-77.5 30zM1335 0h-248l-116 330h-592l-117 -330h-248
l527 1446h268zM897 543l-223 649l-221 -649h444z" />
    <glyph glyph-name="AE" unicode="&#xc6;" horiz-adv-x="1929" 
d="M1169 618v-403h666v-215h-897v322h-489l-175 -322h-260l789 1446h1014v-215h-648v-402h564v-211h-564zM934 1235l-373 -703h377v703h-4z" />
    <glyph glyph-name="Ccedilla" unicode="&#xc7;" horiz-adv-x="1550" 
d="M1288 485l215 -100q-72 -185 -226 -289t-359 -116v-78q95 -12 151.5 -61t56.5 -126q0 -97 -68.5 -150.5t-201.5 -53.5q-95 0 -190 28v156q114 -29 174 -29q92 0 92 68q0 35 -30.5 53t-110.5 18h-35v179q-289 34 -470.5 237t-181.5 502q0 162 57 301.5t156 236.5t236 152
t293 55q217 0 386 -99.5t241 -270.5l-216 -109q-44 122 -155.5 192t-255.5 70q-214 0 -357 -148.5t-143 -379.5q0 -233 143.5 -380.5t366.5 -147.5q154 0 269 74t163 216z" />
    <glyph glyph-name="Egrave" unicode="&#xc8;" horiz-adv-x="1159" 
d="M707 1559h-197l-215 315h250zM1063 0h-897v1446h881v-215h-648v-402h562v-211h-562v-403h664v-215z" />
    <glyph glyph-name="Eacute" unicode="&#xc9;" horiz-adv-x="1159" 
d="M702 1559h-196l162 315h250zM1063 0h-897v1446h881v-215h-648v-402h562v-211h-562v-403h664v-215z" />
    <glyph glyph-name="Ecircumflex" unicode="&#xca;" horiz-adv-x="1159" 
d="M745 1559l-137 180l-139 -180h-205l250 315h186l250 -315h-205zM399 618v-403h664v-215h-897v1446h881v-215h-648v-402h562v-211h-562z" />
    <glyph glyph-name="Edieresis" unicode="&#xcb;" horiz-adv-x="1159" 
d="M408 1581q-58 0 -97 39t-39 96q0 54 39 91.5t97 37.5t96.5 -37.5t38.5 -91.5q0 -57 -38.5 -96t-96.5 -39zM805 1581q-57 0 -96 39.5t-39 95.5q0 53 39 91t96 38t96 -38t39 -91q0 -56 -39 -95.5t-96 -39.5zM1063 0h-897v1446h881v-215h-648v-402h562v-211h-562v-403h664
v-215z" />
    <glyph glyph-name="Igrave" unicode="&#xcc;" horiz-adv-x="585" 
d="M393 1559h-196l-215 315h249zM412 0h-238v1446h238v-1446z" />
    <glyph glyph-name="Iacute" unicode="&#xcd;" horiz-adv-x="585" 
d="M389 1559h-196l161 315h250zM412 0h-238v1446h238v-1446z" />
    <glyph glyph-name="Icircumflex" unicode="&#xce;" horiz-adv-x="585" 
d="M201 1874h186l250 -315h-205l-137 180l-139 -180h-205zM412 0h-238v1446h238v-1446z" />
    <glyph glyph-name="Idieresis" unicode="&#xcf;" horiz-adv-x="585" 
d="M94 1581q-58 0 -96.5 39t-38.5 96q0 54 38.5 91.5t96.5 37.5t96.5 -37.5t38.5 -91.5q0 -57 -38.5 -96t-96.5 -39zM492 1581q-57 0 -96.5 39.5t-39.5 95.5q0 53 39.5 91t96.5 38t96 -38t39 -91q0 -56 -39 -95.5t-96 -39.5zM412 0h-238v1446h238v-1446z" />
    <glyph glyph-name="Eth" unicode="&#xd0;" horiz-adv-x="1513" 
d="M207 1446h471q176 0 315.5 -53t230 -149t138 -228t47.5 -293q0 -160 -45.5 -292t-133.5 -228.5t-226 -149.5t-314 -53h-483v623h-209v196h209v627zM440 215h252q123 0 215.5 37.5t148.5 106.5t83.5 160t27.5 204q0 233 -121.5 370.5t-365.5 137.5h-240v-412h375v-196
h-375v-408z" />
    <glyph glyph-name="Ntilde" unicode="&#xd1;" horiz-adv-x="1484" 
d="M870 1563q-44 0 -84 18t-63.5 39t-50.5 39t-47 18q-60 0 -60 -104h-168q0 128 57 202t152 74q44 0 84.5 -18t65 -40t51.5 -40t47 -18q55 0 55 108h168q0 -129 -56 -203.5t-151 -74.5zM399 0h-233v1446h221l700 -1022v1022h234v-1446h-223l-699 1022v-1022z" />
    <glyph glyph-name="Ograve" unicode="&#xd2;" horiz-adv-x="1712" 
d="M956 1559h-196l-215 315h250zM856 -23q-211 0 -382 94t-270.5 265t-99.5 387t99.5 387t270.5 264.5t382 93.5t382 -93.5t270.5 -264.5t99.5 -387t-99.5 -387t-270.5 -265t-382 -94zM856 195q219 0 363.5 148.5t144.5 379.5t-144.5 379.5t-363.5 148.5t-364.5 -148.5
t-145.5 -379.5t145.5 -379.5t364.5 -148.5z" />
    <glyph glyph-name="Oacute" unicode="&#xd3;" horiz-adv-x="1712" 
d="M952 1559h-196l162 315h249zM856 -23q-211 0 -382 94t-270.5 265t-99.5 387t99.5 387t270.5 264.5t382 93.5t382 -93.5t270.5 -264.5t99.5 -387t-99.5 -387t-270.5 -265t-382 -94zM856 195q219 0 363.5 148.5t144.5 379.5t-144.5 379.5t-363.5 148.5t-364.5 -148.5
t-145.5 -379.5t145.5 -379.5t364.5 -148.5z" />
    <glyph glyph-name="Ocircumflex" unicode="&#xd4;" horiz-adv-x="1712" 
d="M993 1559l-137 180l-139 -180h-205l250 315h186l250 -315h-205zM856 1468q211 0 382 -93.5t270.5 -264.5t99.5 -387t-99.5 -387t-270.5 -265t-382 -94t-382 94t-270.5 265t-99.5 387t99.5 387t270.5 264.5t382 93.5zM856 195q219 0 363.5 148.5t144.5 379.5t-144.5 379.5
t-363.5 148.5t-364.5 -148.5t-145.5 -379.5t145.5 -379.5t364.5 -148.5z" />
    <glyph glyph-name="Otilde" unicode="&#xd5;" horiz-adv-x="1712" 
d="M989 1563q-44 0 -84 18t-64 39t-51 39t-47 18q-59 0 -59 -104h-168q0 128 57 202t152 74q44 0 84.5 -18t65 -40t51.5 -40t47 -18q55 0 55 108h168q0 -129 -56 -203.5t-151 -74.5zM856 -23q-211 0 -382 94t-270.5 265t-99.5 387t99.5 387t270.5 264.5t382 93.5t382 -93.5
t270.5 -264.5t99.5 -387t-99.5 -387t-270.5 -265t-382 -94zM856 195q219 0 363.5 148.5t144.5 379.5t-144.5 379.5t-363.5 148.5t-364.5 -148.5t-145.5 -379.5t145.5 -379.5t364.5 -148.5z" />
    <glyph glyph-name="Odieresis" unicode="&#xd6;" horiz-adv-x="1712" 
d="M657 1581q-58 0 -96.5 39t-38.5 96q0 54 38.5 91.5t96.5 37.5t97 -37.5t39 -91.5q0 -57 -39 -96t-97 -39zM1055 1581q-57 0 -96 39.5t-39 95.5q0 53 39 91t96 38t96 -38t39 -91q0 -56 -39 -95.5t-96 -39.5zM856 -23q-211 0 -382 94t-270.5 265t-99.5 387t99.5 387
t270.5 264.5t382 93.5t382 -93.5t270.5 -264.5t99.5 -387t-99.5 -387t-270.5 -265t-382 -94zM856 195q219 0 363.5 148.5t144.5 379.5t-144.5 379.5t-363.5 148.5t-364.5 -148.5t-145.5 -379.5t145.5 -379.5t364.5 -148.5z" />
    <glyph glyph-name="multiply" unicode="&#xd7;" horiz-adv-x="1161" 
d="M924 1128l141 -143l-342 -342l342 -342l-141 -143l-342 344l-344 -344l-144 143l344 342l-342 342l142 143l342 -342z" />
    <glyph glyph-name="Oslash" unicode="&#xd8;" horiz-adv-x="1712" 
d="M1495 1485l-133 -197q117 -102 181.5 -247t64.5 -318q0 -216 -99.5 -387t-270.5 -265t-382 -94q-185 0 -338 72l-74 -108h-223l141 206q-122 102 -190 250t-68 326q0 216 99.5 387t270.5 264.5t382 93.5q193 0 350 -77l64 94h225zM346 723q0 -233 148 -381l585 860
q-101 49 -223 49q-219 0 -364.5 -148.5t-145.5 -379.5zM856 195q219 0 363.5 148.5t144.5 379.5q0 223 -135 371l-584 -856q93 -43 211 -43z" />
    <glyph glyph-name="Ugrave" unicode="&#xd9;" horiz-adv-x="1413" 
d="M807 1559h-197l-215 315h250zM707 -23q-574 0 -574 611v858h236v-848q0 -203 76.5 -303t261.5 -100t262.5 100t77.5 303v848h233v-858q0 -611 -573 -611z" />
    <glyph glyph-name="Uacute" unicode="&#xda;" horiz-adv-x="1413" 
d="M803 1559h-197l162 315h250zM707 -23q-574 0 -574 611v858h236v-848q0 -203 76.5 -303t261.5 -100t262.5 100t77.5 303v848h233v-858q0 -611 -573 -611z" />
    <glyph glyph-name="Ucircumflex" unicode="&#xdb;" horiz-adv-x="1413" 
d="M846 1559l-137 180l-140 -180h-204l249 315h187l250 -315h-205zM1047 598v848h233v-858q0 -611 -573 -611q-574 0 -574 611v858h236v-848q0 -203 76.5 -303t261.5 -100t262.5 100t77.5 303z" />
    <glyph glyph-name="Udieresis" unicode="&#xdc;" horiz-adv-x="1413" 
d="M508 1581q-58 0 -96.5 39t-38.5 96q0 54 38.5 91.5t96.5 37.5t96.5 -37.5t38.5 -91.5q0 -57 -38.5 -96t-96.5 -39zM905 1581q-57 0 -96 39.5t-39 95.5q0 53 39 91t96 38t96 -38t39 -91q0 -56 -39 -95.5t-96 -39.5zM707 -23q-574 0 -574 611v858h236v-848
q0 -203 76.5 -303t261.5 -100t262.5 100t77.5 303v848h233v-858q0 -611 -573 -611z" />
    <glyph glyph-name="Yacute" unicode="&#xdd;" horiz-adv-x="1249" 
d="M721 1559h-197l162 315h250zM739 0h-233v547l-500 899h273l346 -658l346 658h272l-504 -901v-545z" />
    <glyph glyph-name="Thorn" unicode="&#xde;" horiz-adv-x="1234" 
d="M399 0h-233v1446h233v-256h295q240 0 351.5 -115.5t111.5 -322.5q0 -223 -123 -341t-350 -118h-285v-293zM399 977v-473h246q140 0 205 53t65 191q0 128 -58.5 178.5t-209.5 50.5h-248z" />
    <glyph glyph-name="germandbls" unicode="&#xdf;" horiz-adv-x="1263" 
d="M1122 864l-295 -379q186 -3 292 -118t106 -318q0 -224 -139 -344.5t-369 -120.5q-118 0 -207 29l55 197q67 -25 158 -25q128 0 202 75.5t74 205.5q0 121 -66 188.5t-185 67.5q-44 0 -119 -21l-82 102l319 431h-430v-834h-221v834h-176v194h176v105q0 199 92.5 295
t288.5 96q73 0 119 -11l-2 -188q-54 8 -99 8q-49 0 -78 -7t-54 -30t-35.5 -69t-10.5 -121v-78h686v-164z" />
    <glyph glyph-name="agrave" unicode="&#xe0;" horiz-adv-x="1259" 
d="M715 1174h-195l-211 327h246zM557 -23q-211 0 -345 150t-134 387q0 238 133.5 387.5t347.5 149.5q120 0 208.5 -49.5t139.5 -139.5v166h221v-1028h-221v166q-52 -88 -141 -138.5t-209 -50.5zM608 178q131 0 216 93t85 243q0 151 -85 244.5t-216 93.5q-135 0 -220 -94.5
t-85 -243.5t85 -242.5t220 -93.5z" />
    <glyph glyph-name="aacute" unicode="&#xe1;" horiz-adv-x="1259" 
d="M711 1174h-193l158 327h248zM557 -23q-211 0 -345 150t-134 387q0 238 133.5 387.5t347.5 149.5q120 0 208.5 -49.5t139.5 -139.5v166h221v-1028h-221v166q-52 -88 -141 -138.5t-209 -50.5zM608 178q131 0 216 93t85 243q0 151 -85 244.5t-216 93.5q-135 0 -220 -94.5
t-85 -243.5t85 -242.5t220 -93.5z" />
    <glyph glyph-name="acircumflex" unicode="&#xe2;" horiz-adv-x="1259" 
d="M760 1174l-146 188l-145 -188h-207l260 327h187l260 -327h-209zM907 862v166h221v-1028h-221v166q-52 -88 -141 -138.5t-209 -50.5q-211 0 -345 150t-134 387q0 238 133.5 387.5t347.5 149.5q120 0 208.5 -49.5t139.5 -139.5zM608 178q131 0 216 93t85 243
q0 151 -85 244.5t-216 93.5q-135 0 -220 -94.5t-85 -243.5t85 -242.5t220 -93.5z" />
    <glyph glyph-name="atilde" unicode="&#xe3;" horiz-adv-x="1259" 
d="M752 1178q-44 0 -84 18t-64 40t-51 40t-47 18q-60 0 -60 -106h-167q0 128 56.5 202t151.5 74q44 0 84.5 -18t65 -40t51.5 -40t47 -18q56 0 56 108h167q0 -128 -56 -203t-150 -75zM557 -23q-211 0 -345 150t-134 387q0 238 133.5 387.5t347.5 149.5q120 0 208.5 -49.5
t139.5 -139.5v166h221v-1028h-221v166q-52 -88 -141 -138.5t-209 -50.5zM608 178q131 0 216 93t85 243q0 151 -85 244.5t-216 93.5q-135 0 -220 -94.5t-85 -243.5t85 -242.5t220 -93.5z" />
    <glyph glyph-name="adieresis" unicode="&#xe4;" horiz-adv-x="1259" 
d="M418 1212q-58 0 -96.5 38.5t-38.5 95.5q0 54 38.5 91.5t96.5 37.5t96.5 -37.5t38.5 -91.5q0 -57 -38.5 -95.5t-96.5 -38.5zM815 1212q-57 0 -96 39t-39 95q0 54 39 91.5t96 37.5t96 -37.5t39 -91.5q0 -56 -39 -95t-96 -39zM557 -23q-211 0 -345 150t-134 387
q0 238 133.5 387.5t347.5 149.5q120 0 208.5 -49.5t139.5 -139.5v166h221v-1028h-221v166q-52 -88 -141 -138.5t-209 -50.5zM608 178q131 0 216 93t85 243q0 151 -85 244.5t-216 93.5q-135 0 -220 -94.5t-85 -243.5t85 -242.5t220 -93.5z" />
    <glyph glyph-name="aring" unicode="&#xe5;" horiz-adv-x="1259" 
d="M616 1165q-104 0 -170.5 61t-66.5 158q0 96 67 158t170 62q102 0 169 -62t67 -158t-67 -157.5t-169 -61.5zM614 1278q46 0 77.5 29.5t31.5 76.5q0 46 -31 76.5t-78 30.5q-45 0 -75.5 -30t-30.5 -77t30 -76.5t76 -29.5zM557 -23q-211 0 -345 150t-134 387
q0 238 133.5 387.5t347.5 149.5q120 0 208.5 -49.5t139.5 -139.5v166h221v-1028h-221v166q-52 -88 -141 -138.5t-209 -50.5zM608 178q131 0 216 93t85 243q0 151 -85 244.5t-216 93.5q-135 0 -220 -94.5t-85 -243.5t85 -242.5t220 -93.5z" />
    <glyph glyph-name="ae" unicode="&#xe6;" horiz-adv-x="1857" 
d="M1786 514q0 -1 -6 -82h-811q19 -119 106 -189.5t225 -70.5q189 0 279 137l184 -100q-64 -114 -188.5 -173t-278.5 -59q-271 0 -415 175q-57 -82 -156 -128.5t-236 -46.5q-194 0 -314 91.5t-120 259.5q0 155 100 245.5t273 90.5q99 0 193 -27.5t137 -65.5v70
q0 58 -20.5 101.5t-56 68.5t-78 37t-91.5 12q-160 0 -252 -102l-174 106q62 87 173.5 137t252.5 50q117 0 216.5 -42.5t156.5 -127.5q69 81 168.5 125.5t220.5 44.5q229 0 370.5 -148t141.5 -389zM1278 862q-119 0 -203 -70t-106 -186h600q-22 120 -98.5 188t-192.5 68z
M485 166q119 0 195.5 58.5t77.5 162.5q-33 45 -101 75t-168 30q-217 0 -217 -158q0 -84 57.5 -126t155.5 -42z" />
    <glyph glyph-name="ccedilla" unicode="&#xe7;" horiz-adv-x="1114" 
d="M889 352l196 -94q-55 -126 -162 -195.5t-243 -82.5v-78q95 -12 152 -61t57 -126q0 -97 -69 -150.5t-202 -53.5q-95 0 -190 28v156q114 -29 174 -29q92 0 92 68q0 35 -30.5 53t-110.5 18h-35v181q-195 33 -317.5 176.5t-122.5 351.5q0 156 70.5 279t193.5 190.5t274 67.5
q153 0 273 -68t180 -190l-195 -101q-38 75 -106 117.5t-152 42.5q-135 0 -224 -94.5t-89 -243.5q0 -148 89.5 -242t225.5 -94q91 0 162 43t109 131z" />
    <glyph glyph-name="egrave" unicode="&#xe8;" horiz-adv-x="1193" 
d="M549 1501l160 -327h-195l-211 327h246zM1122 514q0 -1 -6 -82h-811q19 -119 106 -189.5t226 -70.5q188 0 278 137l185 -100q-64 -114 -188.5 -173t-278.5 -59q-252 0 -403.5 149t-151.5 388q0 236 150 386.5t382 150.5q229 0 370.5 -148t141.5 -389zM614 862
q-120 0 -203.5 -70.5t-105.5 -187.5h600q-20 120 -97 189t-194 69z" />
    <glyph glyph-name="eacute" unicode="&#xe9;" horiz-adv-x="1193" 
d="M670 1501h248l-213 -327h-193zM1122 514q0 -1 -6 -82h-811q19 -119 106 -189.5t226 -70.5q188 0 278 137l185 -100q-64 -114 -188.5 -173t-278.5 -59q-252 0 -403.5 149t-151.5 388q0 236 150 386.5t382 150.5q229 0 370.5 -148t141.5 -389zM614 862q-120 0 -203.5 -70.5
t-105.5 -187.5h600q-20 120 -97 189t-194 69z" />
    <glyph glyph-name="ecircumflex" unicode="&#xea;" horiz-adv-x="1193" 
d="M754 1174l-146 188l-145 -188h-207l260 327h186l261 -327h-209zM1122 514q0 -1 -6 -82h-811q19 -119 106 -189.5t226 -70.5q188 0 278 137l185 -100q-64 -114 -188.5 -173t-278.5 -59q-252 0 -403.5 149t-151.5 388q0 236 150 386.5t382 150.5q229 0 370.5 -148
t141.5 -389zM614 862q-120 0 -203.5 -70.5t-105.5 -187.5h600q-20 120 -97 189t-194 69z" />
    <glyph glyph-name="edieresis" unicode="&#xeb;" horiz-adv-x="1193" 
d="M412 1212q-58 0 -97 38.5t-39 95.5q0 54 39 91.5t97 37.5t96.5 -37.5t38.5 -91.5q0 -57 -38.5 -95.5t-96.5 -38.5zM809 1212q-57 0 -96 39t-39 95q0 54 39 91.5t96 37.5t96 -37.5t39 -91.5q0 -56 -39 -95t-96 -39zM1122 514q0 -1 -6 -82h-811q19 -119 106 -189.5
t226 -70.5q188 0 278 137l185 -100q-64 -114 -188.5 -173t-278.5 -59q-252 0 -403.5 149t-151.5 388q0 236 150 386.5t382 150.5q229 0 370.5 -148t141.5 -389zM614 862q-120 0 -203.5 -70.5t-105.5 -187.5h600q-20 120 -97 189t-194 69z" />
    <glyph glyph-name="igrave" unicode="&#xec;" horiz-adv-x="524" 
d="M373 1174h-195l-196 327h239zM375 0h-223v1028h223v-1028z" />
    <glyph glyph-name="iacute" unicode="&#xed;" horiz-adv-x="524" 
d="M348 1174h-194l151 327h240zM375 0h-223v1028h223v-1028z" />
    <glyph glyph-name="icircumflex" unicode="&#xee;" horiz-adv-x="524" 
d="M358 1174l-96 184l-92 -184h-180l186 327h176l187 -327h-181zM375 0h-223v1028h223v-1028z" />
    <glyph glyph-name="idieresis" unicode="&#xef;" horiz-adv-x="524" 
d="M86 1212q-56 0 -93.5 38.5t-37.5 95.5q0 54 38 91.5t93 37.5q57 0 95 -37.5t38 -91.5q0 -57 -38 -95.5t-95 -38.5zM436 1212q-55 0 -93 39t-38 95q0 54 38 91.5t93 37.5t93 -37.5t38 -91.5q0 -56 -38 -95t-93 -39zM375 0h-223v1028h223v-1028z" />
    <glyph glyph-name="eth" unicode="&#xf0;" horiz-adv-x="1241" 
d="M1063 1382l-221 -108q321 -325 321 -699q0 -145 -41 -259.5t-113.5 -188t-169.5 -112t-212 -38.5q-235 0 -392 149.5t-157 379.5q0 148 68 267.5t181 185t246 65.5q182 0 299 -109q-57 121 -215 269l-251 -123l-74 158l182 88q-51 43 -149 116l137 133q120 -86 203 -155
l282 137zM623 178q138 0 229.5 94t91.5 242q0 146 -91 234t-230 88q-137 0 -228.5 -93t-91.5 -235q0 -144 91.5 -237t228.5 -93z" />
    <glyph glyph-name="ntilde" unicode="&#xf1;" horiz-adv-x="1196" 
d="M743 1178q-44 0 -84 18t-63.5 40t-50.5 40t-47 18q-60 0 -60 -106h-168q0 128 57 202t152 74q44 0 84.5 -18t65 -40t51.5 -40t47 -18q55 0 55 108h168q0 -128 -56.5 -203t-150.5 -75zM360 0h-221v1028h219v-162q51 92 140 138.5t200 46.5q182 0 279.5 -111.5t97.5 -327.5
v-612h-219v575q0 143 -55.5 211t-169.5 68q-122 0 -196.5 -88t-74.5 -221v-545z" />
    <glyph glyph-name="ograve" unicode="&#xf2;" horiz-adv-x="1245" 
d="M721 1174h-195l-211 327h246zM623 -23q-152 0 -276.5 67.5t-196.5 191t-72 278.5t72 278.5t196.5 191t276.5 67.5q233 0 388.5 -151t155.5 -386t-155.5 -386t-388.5 -151zM623 178q138 0 229.5 94t91.5 242t-91.5 243t-229.5 95t-229 -95t-91 -243t91 -242t229 -94z" />
    <glyph glyph-name="oacute" unicode="&#xf3;" horiz-adv-x="1245" 
d="M717 1174h-193l158 327h248zM623 -23q-152 0 -276.5 67.5t-196.5 191t-72 278.5t72 278.5t196.5 191t276.5 67.5q233 0 388.5 -151t155.5 -386t-155.5 -386t-388.5 -151zM623 178q138 0 229.5 94t91.5 242t-91.5 243t-229.5 95t-229 -95t-91 -243t91 -242t229 -94z" />
    <glyph glyph-name="ocircumflex" unicode="&#xf4;" horiz-adv-x="1245" 
d="M766 1174l-145 188l-146 -188h-207l260 327h187l260 -327h-209zM623 1051q233 0 388.5 -151t155.5 -386t-155.5 -386t-388.5 -151q-152 0 -276.5 67.5t-196.5 191t-72 278.5t72 278.5t196.5 191t276.5 67.5zM623 178q138 0 229.5 94t91.5 242t-91.5 243t-229.5 95
t-229 -95t-91 -243t91 -242t229 -94z" />
    <glyph glyph-name="otilde" unicode="&#xf5;" horiz-adv-x="1245" 
d="M758 1178q-44 0 -84 18t-64 40t-51 40t-47 18q-59 0 -59 -106h-168q0 128 57 202t152 74q44 0 84.5 -18t64.5 -40t51 -40t47 -18q56 0 56 108h168q0 -128 -56.5 -203t-150.5 -75zM623 -23q-152 0 -276.5 67.5t-196.5 191t-72 278.5t72 278.5t196.5 191t276.5 67.5
q233 0 388.5 -151t155.5 -386t-155.5 -386t-388.5 -151zM623 178q138 0 229.5 94t91.5 242t-91.5 243t-229.5 95t-229 -95t-91 -243t91 -242t229 -94z" />
    <glyph glyph-name="odieresis" unicode="&#xf6;" horiz-adv-x="1245" 
d="M424 1212q-58 0 -96.5 38.5t-38.5 95.5q0 54 38.5 91.5t96.5 37.5t96.5 -37.5t38.5 -91.5q0 -57 -38.5 -95.5t-96.5 -38.5zM821 1212q-57 0 -96 39t-39 95q0 54 39 91.5t96 37.5t96 -37.5t39 -91.5q0 -56 -39 -95t-96 -39zM623 -23q-152 0 -276.5 67.5t-196.5 191
t-72 278.5t72 278.5t196.5 191t276.5 67.5q233 0 388.5 -151t155.5 -386t-155.5 -386t-388.5 -151zM623 178q138 0 229.5 94t91.5 242t-91.5 243t-229.5 95t-229 -95t-91 -243t91 -242t229 -94z" />
    <glyph glyph-name="divide" unicode="&#xf7;" horiz-adv-x="1101" 
d="M551 901q-65 0 -107.5 42t-42.5 106q0 63 42.5 103t107.5 40t107 -40t42 -103q0 -64 -42 -106t-107 -42zM1008 543h-914v200h914v-200zM551 96q-65 0 -107.5 42t-42.5 106q0 63 42.5 103t107.5 40t107 -40t42 -103q0 -64 -42 -106t-107 -42z" />
    <glyph glyph-name="oslash" unicode="&#xf8;" horiz-adv-x="1245" 
d="M1120 1090l-121 -179q80 -72 124 -174t44 -223q0 -235 -155.5 -386t-388.5 -151q-122 0 -226 43l-59 -88h-199l119 172q-85 74 -132.5 179t-47.5 231q0 155 72 278.5t196.5 191t276.5 67.5q123 0 239 -50l62 89h196zM623 852q-138 0 -229 -95t-91 -243q0 -140 80 -229
l371 540q-66 27 -131 27zM623 178q138 0 229.5 94t91.5 242q0 124 -70 217l-366 -532q53 -21 115 -21z" />
    <glyph glyph-name="ugrave" unicode="&#xf9;" horiz-adv-x="1177" 
d="M678 1174h-195l-211 327h246zM496 -23q-184 0 -283.5 114.5t-99.5 332.5v604h221v-567q0 -285 229 -285q124 0 193 87t69 222v543h219v-1028h-219v162q-102 -185 -329 -185z" />
    <glyph glyph-name="uacute" unicode="&#xfa;" horiz-adv-x="1177" 
d="M674 1174h-193l158 327h248zM496 -23q-184 0 -283.5 114.5t-99.5 332.5v604h221v-567q0 -285 229 -285q124 0 193 87t69 222v543h219v-1028h-219v162q-102 -185 -329 -185z" />
    <glyph glyph-name="ucircumflex" unicode="&#xfb;" horiz-adv-x="1177" 
d="M723 1174l-145 188l-146 -188h-207l260 327h187l260 -327h-209zM825 485v543h219v-1028h-219v162q-102 -185 -329 -185q-184 0 -283.5 114.5t-99.5 332.5v604h221v-567q0 -285 229 -285q124 0 193 87t69 222z" />
    <glyph glyph-name="udieresis" unicode="&#xfc;" horiz-adv-x="1177" 
d="M381 1212q-58 0 -96.5 38.5t-38.5 95.5q0 54 38.5 91.5t96.5 37.5t96.5 -37.5t38.5 -91.5q0 -57 -38.5 -95.5t-96.5 -38.5zM778 1212q-57 0 -96 39t-39 95q0 54 39 91.5t96 37.5t96 -37.5t39 -91.5q0 -56 -39 -95t-96 -39zM496 -23q-184 0 -283.5 114.5t-99.5 332.5v604
h221v-567q0 -285 229 -285q124 0 193 87t69 222v543h219v-1028h-219v162q-102 -185 -329 -185z" />
    <glyph glyph-name="yacute" unicode="&#xfd;" horiz-adv-x="1095" 
d="M610 1501h248l-213 -327h-192zM555 242l272 786h244l-541 -1429h-237l160 395l-426 1034h245z" />
    <glyph glyph-name="thorn" unicode="&#xfe;" horiz-adv-x="1267" 
d="M360 -401h-221v1902h221v-639q51 90 139.5 139.5t207.5 49.5q215 0 349 -149.5t134 -387.5t-134.5 -387.5t-346.5 -149.5q-119 0 -208.5 50.5t-140.5 138.5v-567zM659 178q134 0 220 93.5t86 242.5t-86 243.5t-220 94.5q-132 0 -216.5 -93.5t-84.5 -244.5t84.5 -243.5
t216.5 -92.5z" />
    <glyph glyph-name="ydieresis" unicode="&#xff;" horiz-adv-x="1095" 
d="M352 1212q-58 0 -96.5 38.5t-38.5 95.5q0 54 38.5 91.5t96.5 37.5t96.5 -37.5t38.5 -91.5q0 -57 -38.5 -95.5t-96.5 -38.5zM750 1212q-57 0 -96.5 39t-39.5 95q0 54 39.5 91.5t96.5 37.5t96 -37.5t39 -91.5q0 -56 -39 -95t-96 -39zM555 242l272 786h244l-541 -1429h-237
l160 395l-426 1034h245z" />
    <glyph glyph-name="Amacron" unicode="&#x100;" horiz-adv-x="1347" 
d="M389 1800h572v-174h-572v174zM1335 0h-248l-116 330h-592l-117 -330h-248l527 1446h268zM897 543l-223 649l-221 -649h444z" />
    <glyph glyph-name="amacron" unicode="&#x101;" horiz-adv-x="1259" 
d="M901 1249h-571v174h571v-174zM557 -23q-211 0 -345 150t-134 387q0 238 133.5 387.5t347.5 149.5q120 0 208.5 -49.5t139.5 -139.5v166h221v-1028h-221v166q-52 -88 -141 -138.5t-209 -50.5zM608 178q131 0 216 93t85 243q0 151 -85 244.5t-216 93.5q-135 0 -220 -94.5
t-85 -243.5t85 -242.5t220 -93.5z" />
    <glyph glyph-name="Abreve" unicode="&#x102;" horiz-adv-x="1347" 
d="M672 1559q-155 0 -239.5 83.5t-84.5 231.5h172q0 -72 38 -110t114 -38q74 0 113.5 38.5t39.5 109.5h170q0 -148 -84 -231.5t-239 -83.5zM1335 0h-248l-116 330h-592l-117 -330h-248l527 1446h268zM897 543l-223 649l-221 -649h444z" />
    <glyph glyph-name="abreve" unicode="&#x103;" horiz-adv-x="1259" 
d="M616 1165q-155 0 -239 83t-84 227h172q0 -69 38 -105.5t113 -36.5t114.5 37t39.5 105h170q0 -144 -84.5 -227t-239.5 -83zM557 -23q-211 0 -345 150t-134 387q0 238 133.5 387.5t347.5 149.5q120 0 208.5 -49.5t139.5 -139.5v166h221v-1028h-221v166q-52 -88 -141 -138.5
t-209 -50.5zM608 178q131 0 216 93t85 243q0 151 -85 244.5t-216 93.5q-135 0 -220 -94.5t-85 -243.5t85 -242.5t220 -93.5z" />
    <glyph glyph-name="Aogonek" unicode="&#x104;" horiz-adv-x="1347" 
d="M1151 -233q0 -99 104 -99q41 0 80 17v-152q-55 -22 -129 -22q-117 0 -181 54t-64 148q0 164 174 287h-48l-116 330h-592l-117 -330h-248l527 1446h268l526 -1446q-87 -56 -121 -90q-63 -66 -63 -143zM897 543l-223 649l-221 -649h444z" />
    <glyph glyph-name="aogonek" unicode="&#x105;" horiz-adv-x="1259" 
d="M907 862v166h221v-1028h-2q-87 -56 -121 -90q-63 -66 -63 -143q0 -99 105 -99q40 0 79 17v-152q-55 -22 -129 -22q-117 0 -181 54t-64 148q0 164 174 287h-19v166q-52 -88 -141 -138.5t-209 -50.5q-211 0 -345 150t-134 387q0 238 133.5 387.5t347.5 149.5
q120 0 208.5 -49.5t139.5 -139.5zM608 178q131 0 216 93t85 243q0 151 -85 244.5t-216 93.5q-135 0 -220 -94.5t-85 -243.5t85 -242.5t220 -93.5z" />
    <glyph glyph-name="Cacute" unicode="&#x106;" horiz-adv-x="1550" 
d="M944 1559h-196l161 315h250zM860 -23q-162 0 -302 55t-240 152.5t-157 237t-57 301.5t57 301.5t156 236.5t236 152t293 55q217 0 386 -99.5t241 -270.5l-216 -109q-44 122 -155.5 192t-255.5 70q-214 0 -357 -148.5t-143 -379.5q0 -233 143.5 -380.5t366.5 -147.5
q154 0 269 74t163 216l215 -100q-76 -198 -247 -303t-396 -105z" />
    <glyph glyph-name="cacute" unicode="&#x107;" horiz-adv-x="1114" 
d="M711 1174h-193l158 327h248zM621 -23q-153 0 -277 67.5t-195 190.5t-71 279t70.5 279t193.5 190.5t274 67.5q153 0 273 -68t180 -190l-195 -101q-38 75 -106 117.5t-152 42.5q-135 0 -224 -94.5t-89 -243.5q0 -148 89.5 -242t225.5 -94q91 0 162 43t109 131l196 -94
q-61 -141 -184 -211t-280 -70z" />
    <glyph glyph-name="Ccaron" unicode="&#x10c;" horiz-adv-x="1550" 
d="M1190 1874l-252 -315h-184l-250 315h205l137 -180l137 180h207zM1288 485l215 -100q-76 -198 -247 -303t-396 -105q-162 0 -302 55t-240 152.5t-157 237t-57 301.5t57 301.5t156 236.5t236 152t293 55q217 0 386 -99.5t241 -270.5l-216 -109q-44 122 -155.5 192
t-255.5 70q-214 0 -357 -148.5t-143 -379.5q0 -233 143.5 -380.5t366.5 -147.5q154 0 269 74t163 216z" />
    <glyph glyph-name="ccaron" unicode="&#x10d;" horiz-adv-x="1114" 
d="M969 1501l-260 -327h-187l-260 327h207l147 -188l146 188h207zM889 352l196 -94q-61 -141 -184 -211t-280 -70q-153 0 -277 67.5t-195 190.5t-71 279t70.5 279t193.5 190.5t274 67.5q153 0 273 -68t180 -190l-195 -101q-38 75 -106 117.5t-152 42.5q-135 0 -224 -94.5
t-89 -243.5q0 -148 89.5 -242t225.5 -94q91 0 162 43t109 131z" />
    <glyph glyph-name="Dcaron" unicode="&#x10e;" horiz-adv-x="1472" 
d="M979 1874l-252 -315h-184l-250 315h205l137 -180l137 180h207zM166 1446h471q176 0 315.5 -53t230 -149t138 -228t47.5 -293q0 -160 -45.5 -292t-133.5 -228.5t-226 -149.5t-314 -53h-483v1446zM399 215h252q123 0 215.5 37.5t148.5 106.5t83.5 160t27.5 204
q0 233 -121.5 370.5t-365.5 137.5h-240v-1016z" />
    <glyph glyph-name="dcaron" unicode="&#x10f;" horiz-adv-x="1531" 
d="M557 -23q-211 0 -345 150t-134 387q0 238 133.5 387.5t347.5 149.5q120 0 208.5 -49.5t139.5 -139.5v639h221v-1501h-221v166q-52 -88 -141 -138.5t-209 -50.5zM1466 1047h-161l10 454h209zM608 178q131 0 216 93t85 243q0 151 -85 244.5t-216 93.5q-135 0 -220 -94.5
t-85 -243.5t85 -242.5t220 -93.5z" />
    <glyph glyph-name="Dcroat" unicode="&#x110;" horiz-adv-x="1533" 
d="M227 1446h471q234 0 401 -92.5t249 -254t82 -376.5q0 -160 -45.5 -292t-133.5 -228.5t-226 -149.5t-314 -53h-484v623h-209v196h209v627zM461 215h252q123 0 215.5 37.5t148.5 106.5t83.5 160t27.5 204q0 233 -122 370.5t-366 137.5h-239v-412h375v-196h-375v-408z" />
    <glyph glyph-name="dcroat" unicode="&#x111;" horiz-adv-x="1259" 
d="M1128 1339h179v-172h-179v-1167h-221v166q-52 -88 -141 -138.5t-209 -50.5q-211 0 -345 150t-134 387q0 238 133.5 387.5t347.5 149.5q120 0 208.5 -49.5t139.5 -139.5v305h-413v172h413v162h221v-162zM608 178q131 0 216 93t85 243q0 151 -85 244.5t-216 93.5
q-135 0 -220 -94.5t-85 -243.5t85 -242.5t220 -93.5z" />
    <glyph glyph-name="Emacron" unicode="&#x112;" horiz-adv-x="1159" 
d="M891 1626h-572v174h572v-174zM1063 0h-897v1446h881v-215h-648v-402h562v-211h-562v-403h664v-215z" />
    <glyph glyph-name="emacron" unicode="&#x113;" horiz-adv-x="1193" 
d="M324 1423h571v-174h-571v174zM1122 514q0 -1 -6 -82h-811q19 -119 106 -189.5t226 -70.5q188 0 278 137l185 -100q-64 -114 -188.5 -173t-278.5 -59q-252 0 -403.5 149t-151.5 388q0 236 150 386.5t382 150.5q229 0 370.5 -148t141.5 -389zM614 862q-120 0 -203.5 -70.5
t-105.5 -187.5h600q-20 120 -97 189t-194 69z" />
    <glyph glyph-name="Edotaccent" unicode="&#x116;" horiz-adv-x="1159" 
d="M606 1577q-61 0 -101 39.5t-40 99.5q0 59 40 97t101 38q62 0 102 -38.5t40 -96.5q0 -60 -40.5 -99.5t-101.5 -39.5zM1063 0h-897v1446h881v-215h-648v-402h562v-211h-562v-403h664v-215z" />
    <glyph glyph-name="edotaccent" unicode="&#x117;" horiz-adv-x="1193" 
d="M610 1206q-61 0 -101 40.5t-40 99.5q0 57 40 95t101 38q60 0 100 -38t40 -95q0 -59 -40 -99.5t-100 -40.5zM1122 514q0 -1 -6 -82h-811q19 -119 106 -189.5t226 -70.5q188 0 278 137l185 -100q-64 -114 -188.5 -173t-278.5 -59q-252 0 -403.5 149t-151.5 388
q0 236 150 386.5t382 150.5q229 0 370.5 -148t141.5 -389zM614 862q-120 0 -203.5 -70.5t-105.5 -187.5h600q-20 120 -97 189t-194 69z" />
    <glyph glyph-name="Eogonek" unicode="&#x118;" horiz-adv-x="1159" 
d="M1063 215v-215q-87 -56 -121 -90q-63 -66 -63 -143q0 -99 104 -99q41 0 80 17v-152q-55 -22 -129 -22q-117 0 -181.5 54.5t-64.5 147.5q0 164 174 287h-696v1446h881v-215h-648v-402h562v-211h-562v-403h664z" />
    <glyph glyph-name="eogonek" unicode="&#x119;" horiz-adv-x="1193" 
d="M1122 514q0 -1 -6 -82h-811q19 -119 106 -189.5t226 -70.5q188 0 278 137l185 -100q-89 -159 -291 -209q-27 -18 -33 -21.5t-32.5 -22.5t-36.5 -29t-29.5 -31t-27.5 -38.5t-15.5 -41.5t-7.5 -49q0 -99 104 -99q41 0 80 17v-152q-55 -22 -129 -22q-117 0 -181.5 54.5
t-64.5 147.5q0 146 146 267q-230 15 -367 161.5t-137 372.5q0 236 150 386.5t382 150.5q229 0 370.5 -148t141.5 -389zM614 862q-120 0 -203.5 -70.5t-105.5 -187.5h600q-20 120 -97 189t-194 69z" />
    <glyph glyph-name="Ecaron" unicode="&#x11a;" horiz-adv-x="1159" 
d="M950 1874l-252 -315h-184l-250 315h205l137 -180l137 180h207zM399 618v-403h664v-215h-897v1446h881v-215h-648v-402h562v-211h-562z" />
    <glyph glyph-name="ecaron" unicode="&#x11b;" horiz-adv-x="1193" 
d="M965 1501l-260 -327h-187l-260 327h207l147 -188l146 188h207zM1122 514q0 -1 -6 -82h-811q19 -119 106 -189.5t226 -70.5q188 0 278 137l185 -100q-64 -114 -188.5 -173t-278.5 -59q-252 0 -403.5 149t-151.5 388q0 236 150 386.5t382 150.5q229 0 370.5 -148
t141.5 -389zM614 862q-120 0 -203.5 -70.5t-105.5 -187.5h600q-20 120 -97 189t-194 69z" />
    <glyph glyph-name="Gbreve" unicode="&#x11e;" horiz-adv-x="1642" 
d="M844 1559q-155 0 -239.5 83.5t-84.5 231.5h172q0 -72 38 -110t114 -38q74 0 113.5 38.5t39.5 109.5h170q0 -148 -84 -231.5t-239 -83.5zM842 571v207h727v-49q0 -346 -187 -549t-516 -203q-221 0 -394.5 94t-270.5 264.5t-97 387.5q0 162 57 301.5t156 236.5t236 152
t293 55q215 0 383.5 -98.5t243.5 -267.5l-218 -107q-44 120 -155 188t-254 68q-214 0 -357 -148.5t-143 -379.5q0 -234 143 -381t377 -147q192 0 308 101t151 275h-483z" />
    <glyph glyph-name="gbreve" unicode="&#x11f;" horiz-adv-x="1259" 
d="M616 1165q-155 0 -239 83t-84 227h172q0 -69 38 -105.5t113 -36.5t114.5 37t39.5 105h170q0 -144 -84.5 -227t-239.5 -83zM610 -424q-341 0 -471 240l195 92q43 -72 107.5 -105.5t162.5 -33.5q149 0 226 75.5t77 223.5v116q-51 -85 -140 -133.5t-210 -48.5
q-211 0 -345 147t-134 379q0 231 134 377t347 146q120 0 209 -47.5t139 -133.5v158h221v-938q0 -243 -137.5 -378.5t-380.5 -135.5zM608 199q131 0 216 90.5t85 236.5t-85 236t-216 90q-135 0 -220 -90.5t-85 -235.5t85 -236t220 -91z" />
    <glyph glyph-name="uni0122" unicode="&#x122;" horiz-adv-x="1642" 
d="M842 571v207h727v-49q0 -346 -187 -549t-516 -203q-221 0 -394.5 94t-270.5 264.5t-97 387.5q0 162 57 301.5t156 236.5t236 152t293 55q215 0 383.5 -98.5t243.5 -267.5l-218 -107q-44 120 -155 188t-254 68q-214 0 -357 -148.5t-143 -379.5q0 -234 143 -381t377 -147
q192 0 308 101t151 275h-483zM905 -481h-174l27 362h217z" />
    <glyph glyph-name="uni0123" unicode="&#x123;" horiz-adv-x="1259" 
d="M578 1536h174l-27 -362h-217zM610 -424q-341 0 -471 240l195 92q43 -72 107.5 -105.5t162.5 -33.5q149 0 226 75.5t77 223.5v116q-51 -85 -140 -133.5t-210 -48.5q-211 0 -345 147t-134 379q0 231 134 377t347 146q120 0 209 -47.5t139 -133.5v158h221v-938
q0 -243 -137.5 -378.5t-380.5 -135.5zM608 199q131 0 216 90.5t85 236.5t-85 236t-216 90q-135 0 -220 -90.5t-85 -235.5t85 -236t220 -91z" />
    <glyph glyph-name="Imacron" unicode="&#x12a;" horiz-adv-x="585" 
d="M578 1626h-570v174h570v-174zM412 0h-238v1446h238v-1446z" />
    <glyph glyph-name="imacron" unicode="&#x12b;" horiz-adv-x="524" 
d="M524 1249h-524v174h524v-174zM375 0h-223v1028h223v-1028z" />
    <glyph glyph-name="Iogonek" unicode="&#x12e;" horiz-adv-x="585" 
d="M412 1446v-1446q-87 -56 -120 -89q-65 -66 -65 -144q0 -99 105 -99q41 0 80 17v-152q-55 -22 -129 -22q-117 0 -181.5 54.5t-64.5 147.5q0 164 174 287h-37v1446h238z" />
    <glyph glyph-name="iogonek" unicode="&#x12f;" horiz-adv-x="524" 
d="M264 1206q-61 0 -101 40.5t-40 99.5q0 57 40 95t101 38q60 0 99.5 -38t39.5 -95q0 -59 -39.5 -99.5t-99.5 -40.5zM174 0h-22v1028h223v-1028q-87 -56 -120 -89q-65 -66 -65 -144q0 -99 105 -99q41 0 80 17v-152q-55 -22 -129 -22q-117 0 -181.5 54.5t-64.5 147.5
q0 164 174 287z" />
    <glyph glyph-name="Idotaccent" unicode="&#x130;" horiz-adv-x="585" 
d="M293 1577q-61 0 -101 39.5t-40 99.5q0 59 40 97t101 38t101 -38t40 -97q0 -60 -40 -99.5t-101 -39.5zM412 0h-238v1446h238v-1446z" />
    <glyph glyph-name="dotlessi" unicode="&#x131;" horiz-adv-x="524" 
d="M375 0h-223v1028h223v-1028z" />
    <glyph glyph-name="uni0136" unicode="&#x136;" horiz-adv-x="1331" 
d="M1251 1446l-577 -686l633 -760h-303l-605 719v-719h-233v1446h233v-658l555 658h297zM743 -481h-174l27 362h217z" />
    <glyph glyph-name="uni0137" unicode="&#x137;" horiz-adv-x="1103" 
d="M1051 1028l-453 -483l494 -545h-279l-453 508v-508h-221v1501h221v-930l414 457h277zM608 -481h-174l27 362h217z" />
    <glyph glyph-name="Lacute" unicode="&#x139;" horiz-adv-x="1105" 
d="M379 1559h-197l162 315h250zM1047 0h-881v1446h233v-1229h648v-217z" />
    <glyph glyph-name="lacute" unicode="&#x13a;" horiz-adv-x="522" 
d="M358 1614h-196l162 315h249zM373 0h-223v1501h223v-1501z" />
    <glyph glyph-name="uni013B" unicode="&#x13b;" horiz-adv-x="1105" 
d="M1047 0h-881v1446h233v-1229h648v-217zM647 -481h-174l27 362h217z" />
    <glyph glyph-name="uni013C" unicode="&#x13c;" horiz-adv-x="522" 
d="M373 0h-223v1501h223v-1501zM301 -481h-174l27 362h217z" />
    <glyph glyph-name="Lcaron" unicode="&#x13d;" horiz-adv-x="1105" 
d="M903 1047h-164l11 454h211zM1047 0h-881v1446h233v-1229h648v-217z" />
    <glyph glyph-name="lcaron" unicode="&#x13e;" horiz-adv-x="776" 
d="M373 0h-223v1501h223v-1501zM711 1047h-162l10 454h211z" />
    <glyph glyph-name="Ldot" unicode="&#x13f;" horiz-adv-x="1105" 
d="M1047 0h-881v1446h233v-1229h648v-217zM836 604q-66 0 -109 42t-43 108q0 64 43 104.5t109 40.5t109.5 -40.5t43.5 -104.5q0 -66 -43.5 -108t-109.5 -42z" />
    <glyph glyph-name="ldot" unicode="&#x140;" horiz-adv-x="827" 
d="M373 0h-223v1501h223v-1501zM676 604q-66 0 -110 42t-44 108q0 64 43.5 104.5t110.5 40.5q65 0 108 -40.5t43 -104.5q0 -66 -43 -108t-108 -42z" />
    <glyph glyph-name="Lslash" unicode="&#x141;" horiz-adv-x="1150" 
d="M444 641v-424h648v-217h-883v532l-172 -94v221l172 95v692h235v-584l390 213v-223z" />
    <glyph glyph-name="lslash" unicode="&#x142;" horiz-adv-x="602" 
d="M428 909l186 125v-211l-186 -125v-698h-223v569l-182 -123v211l182 123v721h223v-592z" />
    <glyph glyph-name="Nacute" unicode="&#x143;" horiz-adv-x="1484" 
d="M834 1559h-197l162 315h250zM399 0h-233v1446h221l700 -1022v1022h234v-1446h-223l-699 1022v-1022z" />
    <glyph glyph-name="nacute" unicode="&#x144;" horiz-adv-x="1196" 
d="M702 1174h-192l158 327h247zM360 0h-221v1028h219v-162q51 92 140 138.5t200 46.5q182 0 279.5 -111.5t97.5 -327.5v-612h-219v575q0 143 -55.5 211t-169.5 68q-122 0 -196.5 -88t-74.5 -221v-545z" />
    <glyph glyph-name="uni0145" unicode="&#x145;" horiz-adv-x="1484" 
d="M399 0h-233v1446h221l700 -1022v1022h234v-1446h-223l-699 1022v-1022zM791 -481h-175l27 362h217z" />
    <glyph glyph-name="uni0146" unicode="&#x146;" horiz-adv-x="1196" 
d="M360 0h-221v1028h219v-162q51 92 140 138.5t200 46.5q182 0 279.5 -111.5t97.5 -327.5v-612h-219v575q0 143 -55.5 211t-169.5 68q-122 0 -196.5 -88t-74.5 -221v-545zM649 -481h-174l27 362h217z" />
    <glyph glyph-name="Ncaron" unicode="&#x147;" horiz-adv-x="1484" 
d="M1081 1874l-252 -315h-184l-250 315h205l137 -180l137 180h207zM1087 424v1022h234v-1446h-223l-699 1022v-1022h-233v1446h221z" />
    <glyph glyph-name="ncaron" unicode="&#x148;" horiz-adv-x="1196" 
d="M963 1501l-261 -327h-186l-260 327h207l147 -188l146 188h207zM698 1051q182 0 279.5 -111.5t97.5 -327.5v-612h-219v575q0 143 -55.5 211t-169.5 68q-122 0 -196.5 -88t-74.5 -221v-545h-221v1028h219v-162q51 92 140 138.5t200 46.5z" />
    <glyph glyph-name="Omacron" unicode="&#x14c;" horiz-adv-x="1712" 
d="M1141 1626h-572v174h572v-174zM856 -23q-211 0 -382 94t-270.5 265t-99.5 387t99.5 387t270.5 264.5t382 93.5t382 -93.5t270.5 -264.5t99.5 -387t-99.5 -387t-270.5 -265t-382 -94zM856 195q219 0 363.5 148.5t144.5 379.5t-144.5 379.5t-363.5 148.5t-364.5 -148.5
t-145.5 -379.5t145.5 -379.5t364.5 -148.5z" />
    <glyph glyph-name="omacron" unicode="&#x14d;" horiz-adv-x="1245" 
d="M907 1249h-571v174h571v-174zM623 -23q-152 0 -276.5 67.5t-196.5 191t-72 278.5t72 278.5t196.5 191t276.5 67.5q233 0 388.5 -151t155.5 -386t-155.5 -386t-388.5 -151zM623 178q138 0 229.5 94t91.5 242t-91.5 243t-229.5 95t-229 -95t-91 -243t91 -242t229 -94z" />
    <glyph glyph-name="Ohungarumlaut" unicode="&#x150;" horiz-adv-x="1712" 
d="M754 1559h-197l162 315h250zM1147 1559h-195l162 315h248zM856 -23q-211 0 -382 94t-270.5 265t-99.5 387t99.5 387t270.5 264.5t382 93.5t382 -93.5t270.5 -264.5t99.5 -387t-99.5 -387t-270.5 -265t-382 -94zM856 195q219 0 363.5 148.5t144.5 379.5t-144.5 379.5
t-363.5 148.5t-364.5 -148.5t-145.5 -379.5t145.5 -379.5t364.5 -148.5z" />
    <glyph glyph-name="ohungarumlaut" unicode="&#x151;" horiz-adv-x="1245" 
d="M510 1174h-193l158 327h248zM918 1174h-193l158 327h245zM623 -23q-152 0 -276.5 67.5t-196.5 191t-72 278.5t72 278.5t196.5 191t276.5 67.5q233 0 388.5 -151t155.5 -386t-155.5 -386t-388.5 -151zM623 178q138 0 229.5 94t91.5 242t-91.5 243t-229.5 95t-229 -95
t-91 -243t91 -242t229 -94z" />
    <glyph glyph-name="OE" unicode="&#x152;" horiz-adv-x="1884" 
d="M1122 618v-403h666v-215h-899q-364 0 -574.5 196.5t-210.5 526.5q0 160 51.5 292.5t149 228.5t247 149t337.5 53h880v-215h-647v-402h564v-211h-564zM346 723q0 -234 141 -370t402 -136v1012q-271 0 -407 -136.5t-136 -369.5z" />
    <glyph glyph-name="oe" unicode="&#x153;" horiz-adv-x="2062" 
d="M1989 514q0 -28 -4 -82h-814q19 -119 106.5 -189.5t227.5 -70.5q187 0 277 137l184 -100q-64 -115 -188 -173.5t-279 -58.5q-150 0 -263.5 55.5t-180.5 157.5q-70 -101 -182 -157t-250 -56q-152 0 -276.5 67.5t-196.5 191t-72 278.5t72 278.5t196.5 191t276.5 67.5
q138 0 250 -56.5t182 -158.5q67 102 176 158.5t246 56.5q229 0 370.5 -148t141.5 -389zM1481 862q-118 0 -201.5 -70t-105.5 -186h598q-22 120 -98.5 188t-192.5 68zM623 178q138 0 229.5 94t91.5 242t-91.5 243t-229.5 95t-229 -95t-91 -243t91 -242t229 -94z" />
    <glyph glyph-name="Racute" unicode="&#x154;" horiz-adv-x="1314" 
d="M674 1874h250l-215 -315h-197zM846 618l448 -618h-286l-414 573h-195v-573h-233v1446h510q240 0 351.5 -112.5t111.5 -313.5q0 -166 -76 -268.5t-217 -133.5zM629 1233h-230v-455h228q65 0 111 9.5t84 34.5t56.5 72.5t18.5 117.5q0 128 -61.5 174.5t-206.5 46.5z" />
    <glyph glyph-name="racute" unicode="&#x155;" horiz-adv-x="780" 
d="M545 1174h-193l158 327h248zM360 0h-221v1028h219v-182q50 103 137 154t199 51q31 0 45 -2l-2 -230q-49 6 -94 6q-129 0 -206 -96t-77 -244v-485z" />
    <glyph glyph-name="uni0156" unicode="&#x156;" horiz-adv-x="1314" 
d="M846 618l448 -618h-286l-414 573h-195v-573h-233v1446h510q240 0 351.5 -112.5t111.5 -313.5q0 -166 -76 -268.5t-217 -133.5zM629 1233h-230v-455h228q65 0 111 9.5t84 34.5t56.5 72.5t18.5 117.5q0 128 -61.5 174.5t-206.5 46.5zM745 -481h-174l27 362h217z" />
    <glyph glyph-name="uni0157" unicode="&#x157;" horiz-adv-x="780" 
d="M360 0h-221v1028h219v-182q50 103 137 154t199 51q31 0 45 -2l-2 -230q-49 6 -94 6q-129 0 -206 -96t-77 -244v-485zM291 -481h-174l26 362h217z" />
    <glyph glyph-name="Rcaron" unicode="&#x158;" horiz-adv-x="1314" 
d="M954 1874l-252 -315h-184l-250 315h205l137 -180l138 180h206zM846 618l448 -618h-286l-414 573h-195v-573h-233v1446h510q240 0 351.5 -112.5t111.5 -313.5q0 -166 -76 -268.5t-217 -133.5zM629 1233h-230v-455h228q65 0 111 9.5t84 34.5t56.5 72.5t18.5 117.5
q0 128 -61.5 174.5t-206.5 46.5z" />
    <glyph glyph-name="rcaron" unicode="&#x159;" horiz-adv-x="780" 
d="M805 1501l-260 -327h-187l-260 327h207l148 -188l145 188h207zM358 1028v-182q50 103 137 154t199 51q31 0 45 -2l-2 -230q-49 6 -94 6q-129 0 -206 -96t-77 -244v-485h-221v1028h219z" />
    <glyph glyph-name="Sacute" unicode="&#x15a;" horiz-adv-x="1175" 
d="M672 1559h-197l162 315h250zM604 -23q-202 0 -344.5 79t-198.5 220l193 117q86 -203 344 -203q126 0 194 53t68 158q0 50 -15.5 83.5t-55 57t-88.5 38t-136 32.5q-84 18 -143.5 36.5t-123.5 52t-103.5 77t-65 111t-25.5 153.5q0 200 132 313t339 113q173 0 300.5 -74.5
t185.5 -203.5l-197 -115q-85 180 -282 180q-109 0 -172.5 -54t-63.5 -154q0 -39 7.5 -68.5t27 -51.5t41 -36.5t62.5 -27.5t77 -21t98 -19q80 -15 142 -35t120.5 -53t96.5 -76t61 -107t23 -144q0 -208 -131.5 -319.5t-366.5 -111.5z" />
    <glyph glyph-name="sacute" unicode="&#x15b;" horiz-adv-x="974" 
d="M586 1174h-193l158 327h248zM512 -23q-172 0 -290.5 67.5t-170.5 186.5l182 95q87 -162 283 -162q93 0 135.5 31t42.5 100q0 55 -47 84.5t-182 52.5q-178 32 -271.5 100.5t-93.5 200.5q0 157 111.5 237.5t282.5 80.5q145 0 249 -53.5t156 -149.5l-182 -100q-34 58 -84 86
t-133 28q-85 0 -133 -30t-48 -91q0 -50 51 -78t169 -49q96 -16 160.5 -36t117 -55t77 -88.5t24.5 -129.5q0 -162 -103 -245t-303 -83z" />
    <glyph glyph-name="Scedilla" unicode="&#x15e;" horiz-adv-x="1175" 
d="M1102 408q0 -194 -116 -304t-324 -124v-78q95 -12 151.5 -61t56.5 -126q0 -97 -68.5 -150.5t-201.5 -53.5q-95 0 -190 28v156q114 -29 174 -29q92 0 92 68q0 35 -30.5 53t-110.5 18h-35v179q-164 19 -278 94.5t-161 197.5l193 117q86 -203 344 -203q126 0 194 53t68 158
q0 50 -15.5 83.5t-55 57t-88.5 38t-136 32.5q-84 18 -143.5 36.5t-123.5 52t-103.5 77t-65 111t-25.5 153.5q0 200 132 313t339 113q173 0 300.5 -74.5t185.5 -203.5l-197 -115q-85 180 -282 180q-109 0 -172.5 -54t-63.5 -154q0 -39 7.5 -68.5t27 -51.5t41 -36.5
t62.5 -27.5t77 -21t98 -19q80 -15 142 -35t120.5 -53t96.5 -76t61 -107t23 -144z" />
    <glyph glyph-name="scedilla" unicode="&#x15f;" horiz-adv-x="974" 
d="M918 305q0 -300 -345 -325v-78q95 -12 152 -61t57 -126q0 -97 -68.5 -150.5t-201.5 -53.5q-95 0 -190 28v156q114 -29 174 -29q92 0 92 68q0 35 -31 53t-111 18h-34v179q-133 19 -225.5 83t-135.5 164l182 95q87 -162 283 -162q93 0 135.5 31t42.5 100q0 55 -47 84.5
t-182 52.5q-178 32 -271.5 100.5t-93.5 200.5q0 157 111.5 237.5t282.5 80.5q145 0 249 -53.5t156 -149.5l-182 -100q-34 58 -84 86t-133 28q-85 0 -133 -30t-48 -91q0 -50 51 -78t169 -49q96 -16 160.5 -36t117 -55t77 -88.5t24.5 -129.5z" />
    <glyph glyph-name="Scaron" unicode="&#x160;" horiz-adv-x="1175" 
d="M918 1874l-252 -315h-185l-250 315h205l137 -180l138 180h207zM659 823q80 -15 142 -35t120.5 -53t96.5 -76t61 -107t23 -144q0 -208 -131.5 -319.5t-366.5 -111.5q-202 0 -344.5 79t-198.5 220l193 117q86 -203 344 -203q126 0 194 53t68 158q0 50 -15.5 83.5t-55 57
t-88.5 38t-136 32.5q-84 18 -143.5 36.5t-123.5 52t-103.5 77t-65 111t-25.5 153.5q0 200 132 313t339 113q173 0 300.5 -74.5t185.5 -203.5l-197 -115q-85 180 -282 180q-109 0 -172.5 -54t-63.5 -154q0 -39 7.5 -68.5t27 -51.5t41 -36.5t62.5 -27.5t77 -21t98 -19z" />
    <glyph glyph-name="scaron" unicode="&#x161;" horiz-adv-x="974" 
d="M846 1501l-260 -327h-187l-260 327h207l148 -188l145 188h207zM539 614q96 -16 160.5 -36t117 -55t77 -88.5t24.5 -129.5q0 -162 -103 -245t-303 -83q-172 0 -290.5 67.5t-170.5 186.5l182 95q87 -162 283 -162q93 0 135.5 31t42.5 100q0 55 -47 84.5t-182 52.5
q-178 32 -271.5 100.5t-93.5 200.5q0 157 111.5 237.5t282.5 80.5q145 0 249 -53.5t156 -149.5l-182 -100q-34 58 -84 86t-133 28q-85 0 -133 -30t-48 -91q0 -50 51 -78t169 -49z" />
    <glyph glyph-name="uni0162" unicode="&#x162;" horiz-adv-x="1208" 
d="M721 1229v-1229h-57v-98q95 -12 151.5 -61t56.5 -126q0 -97 -68.5 -150.5t-201.5 -53.5q-95 0 -190 28v156q114 -29 174 -29q92 0 92 68q0 35 -30.5 53t-110.5 18h-35v195h-15v1229h-428v217h1090v-217h-428z" />
    <glyph glyph-name="uni0163" unicode="&#x163;" horiz-adv-x="774" 
d="M526 -18v-80q95 -12 152 -61t57 -126q0 -97 -68.5 -150.5t-201.5 -53.5q-96 0 -191 28v156q114 -29 175 -29q92 0 92 68q0 35 -31 53t-111 18h-34v209q-148 69 -148 305v515h-178v194h178v270h221v-270h271v-194h-271v-488q0 -92 30.5 -130t106.5 -38q71 0 134 23l2 -193
q-24 -11 -76.5 -18.5t-99.5 -7.5h-9z" />
    <glyph glyph-name="Tcaron" unicode="&#x164;" horiz-adv-x="1208" 
d="M948 1874l-252 -315h-184l-250 315h205l137 -180l137 180h207zM59 1229v217h1090v-217h-428v-1229h-234v1229h-428z" />
    <glyph glyph-name="tcaron" unicode="&#x165;" horiz-adv-x="829" 
d="M625 1112l10 455h211l-58 -455h-163zM575 178q71 0 134 23l2 -193q-24 -11 -76.5 -18.5t-99.5 -7.5q-91 0 -154.5 25t-98.5 73t-50 105.5t-15 133.5v515h-178v194h178v270h221v-270h271v-194h-271v-488q0 -92 30.5 -130t106.5 -38z" />
    <glyph glyph-name="Umacron" unicode="&#x16a;" horiz-adv-x="1413" 
d="M993 1626h-571v174h571v-174zM707 -23q-574 0 -574 611v858h236v-848q0 -203 76.5 -303t261.5 -100t262.5 100t77.5 303v848h233v-858q0 -611 -573 -611z" />
    <glyph glyph-name="umacron" unicode="&#x16b;" horiz-adv-x="1177" 
d="M864 1249h-571v174h571v-174zM496 -23q-184 0 -283.5 114.5t-99.5 332.5v604h221v-567q0 -285 229 -285q124 0 193 87t69 222v543h219v-1028h-219v162q-102 -185 -329 -185z" />
    <glyph glyph-name="Uring" unicode="&#x16e;" horiz-adv-x="1413" 
d="M709 1518q-104 0 -171 61t-67 158q0 96 67.5 157.5t170.5 61.5q102 0 167.5 -61.5t65.5 -157.5t-65.5 -157.5t-167.5 -61.5zM707 1630q46 0 77 30t31 77q0 46 -30.5 76t-77.5 30q-45 0 -77 -30t-32 -76q0 -47 31.5 -77t77.5 -30zM707 -23q-574 0 -574 611v858h236v-848
q0 -203 76.5 -303t261.5 -100t262.5 100t77.5 303v848h233v-858q0 -611 -573 -611z" />
    <glyph glyph-name="uring" unicode="&#x16f;" horiz-adv-x="1177" 
d="M580 1165q-104 0 -171 61t-67 158q0 96 67.5 158t170.5 62q102 0 168.5 -62t66.5 -158t-66.5 -157.5t-168.5 -61.5zM578 1278q46 0 77 29.5t31 76.5q0 46 -30.5 76.5t-77.5 30.5q-45 0 -76 -30t-31 -77t30.5 -76.5t76.5 -29.5zM496 -23q-184 0 -283.5 114.5t-99.5 332.5
v604h221v-567q0 -285 229 -285q124 0 193 87t69 222v543h219v-1028h-219v162q-102 -185 -329 -185z" />
    <glyph glyph-name="Uhungarumlaut" unicode="&#x170;" horiz-adv-x="1413" 
d="M606 1559h-196l161 315h250zM999 1559h-194l162 315h247zM707 -23q-574 0 -574 611v858h236v-848q0 -203 76.5 -303t261.5 -100t262.5 100t77.5 303v848h233v-858q0 -611 -573 -611z" />
    <glyph glyph-name="uhungarumlaut" unicode="&#x171;" horiz-adv-x="1177" 
d="M467 1174h-193l158 327h248zM874 1174h-192l158 327h245zM496 -23q-184 0 -283.5 114.5t-99.5 332.5v604h221v-567q0 -285 229 -285q124 0 193 87t69 222v543h219v-1028h-219v162q-102 -185 -329 -185z" />
    <glyph glyph-name="Uogonek" unicode="&#x172;" horiz-adv-x="1413" 
d="M1047 598v848h233v-858q0 -496 -379 -588q-27 -18 -33 -21.5t-32.5 -22.5t-36.5 -29t-29.5 -31t-27.5 -38.5t-15.5 -41.5t-7.5 -49q0 -99 104 -99q41 0 80 17v-152q-55 -22 -129 -22q-117 0 -181.5 54.5t-64.5 147.5q0 146 146 264q-541 17 -541 611v858h236v-848
q0 -203 76.5 -303t261.5 -100t262.5 100t77.5 303z" />
    <glyph glyph-name="uogonek" unicode="&#x173;" horiz-adv-x="1177" 
d="M1044 1028v-1028q-87 -56 -121 -90q-63 -66 -63 -143q0 -99 105 -99q40 0 79 17v-152q-55 -22 -129 -22q-117 0 -181 54t-64 148q0 164 174 287h-19v162q-102 -185 -329 -185q-184 0 -283.5 114.5t-99.5 332.5v604h221v-567q0 -285 229 -285q124 0 193 87t69 222v543h219
z" />
    <glyph glyph-name="Ydieresis" unicode="&#x178;" horiz-adv-x="1249" 
d="M426 1581q-58 0 -96.5 39t-38.5 96q0 54 38.5 91.5t96.5 37.5t96.5 -37.5t38.5 -91.5q0 -57 -38.5 -96t-96.5 -39zM823 1581q-57 0 -96 39.5t-39 95.5q0 53 39 91t96 38t96 -38t39 -91q0 -56 -39 -95.5t-96 -39.5zM739 0h-233v547l-500 899h273l346 -658l346 658h272
l-504 -901v-545z" />
    <glyph glyph-name="Zacute" unicode="&#x179;" horiz-adv-x="1173" 
d="M657 1874h250l-215 -315h-196zM1090 1268l-707 -1051h747v-217h-1054v180l706 1049h-682v217h990v-178z" />
    <glyph glyph-name="zacute" unicode="&#x17a;" horiz-adv-x="993" 
d="M553 1501h248l-213 -327h-193zM891 887l-504 -690h539v-197h-836v143l504 691h-500v194h797v-141z" />
    <glyph glyph-name="Zdotaccent" unicode="&#x17b;" horiz-adv-x="1173" 
d="M596 1577q-61 0 -101 39.5t-40 99.5q0 59 40 97t101 38t101 -38t40 -97q0 -60 -40 -99.5t-101 -39.5zM1090 1268l-707 -1051h747v-217h-1054v180l706 1049h-682v217h990v-178z" />
    <glyph glyph-name="zdotaccent" unicode="&#x17c;" horiz-adv-x="993" 
d="M496 1206q-61 0 -101.5 40.5t-40.5 99.5q0 57 40.5 95t101.5 38q60 0 99.5 -38t39.5 -95q0 -59 -39.5 -99.5t-99.5 -40.5zM891 887l-504 -690h539v-197h-836v143l504 691h-500v194h797v-141z" />
    <glyph glyph-name="Zcaron" unicode="&#x17d;" horiz-adv-x="1173" 
d="M938 1874l-252 -315h-184l-250 315h205l137 -180l137 180h207zM1090 1268l-707 -1051h747v-217h-1054v180l706 1049h-682v217h990v-178z" />
    <glyph glyph-name="zcaron" unicode="&#x17e;" horiz-adv-x="993" 
d="M848 1501l-260 -327h-187l-260 327h207l148 -188l145 188h207zM891 887l-504 -690h539v-197h-836v143l504 691h-500v194h797v-141z" />
    <glyph glyph-name="florin" unicode="&#x192;" horiz-adv-x="776" 
d="M637 1333q-48 0 -77 -7t-54 -30t-36 -69t-11 -121v-78h268v-194h-268v-885q0 -180 -85 -276.5t-257 -96.5q-79 0 -127 10l2 191q62 -8 98 -8q79 0 114.5 42t35.5 160v863h-179v194h179v105q0 199 92 295t286 96q73 0 119 -11l-2 -188q-50 8 -98 8z" />
    <glyph glyph-name="uni0218" unicode="&#x218;" horiz-adv-x="1175" 
d="M604 -23q-202 0 -344.5 79t-198.5 220l193 117q86 -203 344 -203q126 0 194 53t68 158q0 50 -15.5 83.5t-55 57t-88.5 38t-136 32.5q-84 18 -143.5 36.5t-123.5 52t-103.5 77t-65 111t-25.5 153.5q0 200 132 313t339 113q173 0 300.5 -74.5t185.5 -203.5l-197 -115
q-85 180 -282 180q-109 0 -172.5 -54t-63.5 -154q0 -39 7.5 -68.5t27 -51.5t41 -36.5t62.5 -27.5t77 -21t98 -19q80 -15 142 -35t120.5 -53t96.5 -76t61 -107t23 -144q0 -208 -131.5 -319.5t-366.5 -111.5zM641 -481h-174l27 362h217z" />
    <glyph glyph-name="uni0219" unicode="&#x219;" horiz-adv-x="974" 
d="M512 -23q-172 0 -290.5 67.5t-170.5 186.5l182 95q87 -162 283 -162q93 0 135.5 31t42.5 100q0 55 -47 84.5t-182 52.5q-178 32 -271.5 100.5t-93.5 200.5q0 157 111.5 237.5t282.5 80.5q145 0 249 -53.5t156 -149.5l-182 -100q-34 58 -84 86t-133 28q-85 0 -133 -30
t-48 -91q0 -50 51 -78t169 -49q96 -16 160.5 -36t117 -55t77 -88.5t24.5 -129.5q0 -162 -103 -245t-303 -83zM553 -481h-174l27 362h217z" />
    <glyph glyph-name="uni021A" unicode="&#x21a;" horiz-adv-x="1208" 
d="M721 0h-234v1229h-428v217h1090v-217h-428v-1229zM645 -481h-174l27 362h217z" />
    <glyph glyph-name="uni021B" unicode="&#x21b;" horiz-adv-x="774" 
d="M709 201l2 -193q-24 -11 -76.5 -18.5t-99.5 -7.5q-91 0 -154.5 25t-98.5 73t-50 105.5t-15 133.5v515h-178v194h178v270h221v-270h271v-194h-271v-488q0 -92 30.5 -130t106.5 -38q71 0 134 23zM508 -481h-174l26 362h218z" />
    <glyph glyph-name="uni0237" unicode="&#x237;" horiz-adv-x="524" 
d="M31 -424q-75 0 -127 10l2 191q62 -8 98 -8q79 0 113.5 42t34.5 160v1057h223v-1079q0 -180 -86 -276.5t-258 -96.5z" />
    <glyph glyph-name="circumflex" unicode="&#x2c6;" horiz-adv-x="724" 
d="M457 1501l260 -327h-207l-145 188l-148 -188h-207l260 327h187z" />
    <glyph glyph-name="caron" unicode="&#x2c7;" horiz-adv-x="724" 
d="M365 1313l145 188h207l-260 -327h-187l-260 327h207z" />
    <glyph glyph-name="uni02C9" unicode="&#x2c9;" horiz-adv-x="1009" 
d="M791 1249h-572v174h572v-174z" />
    <glyph glyph-name="breve" unicode="&#x2d8;" horiz-adv-x="724" 
d="M362 1165q-155 0 -239 83t-84 227h172q0 -69 38 -105.5t113 -36.5q76 0 115 37t39 105h170q0 -144 -84.5 -227t-239.5 -83z" />
    <glyph glyph-name="dotaccent" unicode="&#x2d9;" horiz-adv-x="724" 
d="M362 1206q-60 0 -100.5 40.5t-40.5 99.5q0 57 40.5 95t100.5 38q61 0 101.5 -38t40.5 -95q0 -59 -40.5 -99.5t-101.5 -40.5z" />
    <glyph glyph-name="ring" unicode="&#x2da;" horiz-adv-x="724" 
d="M362 1165q-103 0 -169 61t-66 158q0 96 66.5 158t168.5 62q103 0 169.5 -61.5t66.5 -158.5q0 -96 -66.5 -157.5t-169.5 -61.5zM360 1278q48 0 79.5 29.5t31.5 76.5q0 46 -31 76.5t-80 30.5q-44 0 -75 -30.5t-31 -76.5q0 -47 30.5 -76.5t75.5 -29.5z" />
    <glyph glyph-name="ogonek" unicode="&#x2db;" horiz-adv-x="724" 
d="M420 -489q-116 0 -180 54.5t-64 147.5q0 186 221 318l154 -31q-87 -56 -121 -90q-63 -66 -63 -143q0 -99 104 -99q41 0 80 17v-152q-55 -22 -131 -22z" />
    <glyph glyph-name="tilde" unicode="&#x2dc;" horiz-adv-x="724" 
d="M496 1178q-44 0 -84 18t-64 40t-51 40t-47 18q-60 0 -60 -106h-167q0 128 56.5 202t151.5 74q44 0 84 -18t64.5 -40t52 -40t47.5 -18q56 0 56 108h167q0 -128 -56 -203t-150 -75z" />
    <glyph glyph-name="hungarumlaut" unicode="&#x2dd;" horiz-adv-x="724" 
d="M150 1174h-193l160 327h245zM557 1174h-192l157 327h246z" />
    <glyph glyph-name="gravecomb" unicode="&#x300;" 
d="M-205 1174h-194l-211 327h245z" />
    <glyph glyph-name="acutecomb" unicode="&#x301;" 
d="M-406 1174h-192l158 327h247z" />
    <glyph glyph-name="uni0302" unicode="&#x302;" 
d="M-465 1501l260 -327h-209l-145 188l-146 -188h-206l260 327h186z" />
    <glyph glyph-name="tildecomb" unicode="&#x303;" 
d="M-395 1178q-44 0 -84 18t-64 40t-51 40t-47 18q-59 0 -59 -106h-168q0 128 57 202t152 74q44 0 84.5 -18t64.5 -40t51 -40t47 -18q56 0 56 108h168q0 -128 -56.5 -203t-150.5 -75z" />
    <glyph glyph-name="uni0304" unicode="&#x304;" 
d="M-219 1249h-572v174h572v-174z" />
    <glyph glyph-name="uni0306" unicode="&#x306;" 
d="M-528 1165q-155 0 -239.5 83t-84.5 227h172q0 -68 38.5 -105t113.5 -37q74 0 113.5 37t39.5 105h170q0 -144 -84 -227t-239 -83z" />
    <glyph glyph-name="uni0307" unicode="&#x307;" 
d="M-211 1206q-61 0 -101 40.5t-40 99.5q0 57 40 95t101 38q60 0 99.5 -38t39.5 -95q0 -59 -39.5 -99.5t-99.5 -40.5z" />
    <glyph glyph-name="uni0308" unicode="&#x308;" 
d="M-717 1212q-58 0 -96.5 38.5t-38.5 95.5q0 54 38.5 91.5t96.5 37.5t96.5 -37.5t38.5 -91.5q0 -57 -38.5 -95.5t-96.5 -38.5zM-319 1212q-57 0 -96.5 39t-39.5 95q0 54 39.5 91.5t96.5 37.5t96 -37.5t39 -91.5q0 -56 -39 -95t-96 -39z" />
    <glyph glyph-name="uni030A" unicode="&#x30a;" 
d="M-438 1165q-104 0 -171 61t-67 158q0 96 67.5 158t170.5 62q102 0 168.5 -62t66.5 -158t-66.5 -157.5t-168.5 -61.5zM-440 1278q46 0 77 29.5t31 76.5q0 46 -30.5 76.5t-77.5 30.5q-45 0 -76 -30t-31 -77t30.5 -76.5t76.5 -29.5z" />
    <glyph glyph-name="uni030B" unicode="&#x30b;" 
d="M-762 1174h-192l157 327h248zM-354 1174h-193l158 327h246z" />
    <glyph glyph-name="uni030C" unicode="&#x30c;" 
d="M-545 1313l146 188h206l-260 -327h-186l-260 327h207z" />
    <glyph glyph-name="uni0312" unicode="&#x312;" 
d="M-367 1536h174l-26 -362h-217z" />
    <glyph glyph-name="uni0326" unicode="&#x326;" 
d="M-266 -481h-174l26 362h217z" />
    <glyph glyph-name="uni0327" unicode="&#x327;" 
d="M-500 -489q-95 0 -190 28v156q114 -29 174 -29q92 0 92 68q0 35 -30.5 53t-110.5 18h-35v213h162v-116q95 -12 152 -61t57 -126q0 -97 -69 -150.5t-202 -53.5z" />
    <glyph glyph-name="uni0328" unicode="&#x328;" 
d="M-334 -489q-117 0 -181.5 54.5t-64.5 147.5q0 185 222 318l153 -31q-87 -56 -121 -90q-63 -66 -63 -143q0 -99 104 -99q41 0 80 17v-152q-55 -22 -129 -22z" />
    <glyph glyph-name="pi" unicode="&#x3c0;" horiz-adv-x="1292" 
d="M444 0h-221v834h-160v194h1166v-194h-162v-834h-221v834h-402v-834z" />
    <glyph glyph-name="uni1E9E" unicode="&#x1e9e;" horiz-adv-x="1398" 
d="M918 885q112 0 200.5 -46.5t142.5 -144.5t54 -235q0 -221 -138 -351.5t-393 -130.5q-118 0 -221 27l53 213q70 -27 162 -27q142 0 219.5 72t77.5 201q0 126 -74.5 189t-195.5 63q-30 0 -121 -17l-82 107l338 434h-532v-1239h-234v1446h1055v-166l-318 -395h7z" />
    <glyph glyph-name="uni2007" unicode="&#x2007;" horiz-adv-x="1468" 
 />
    <glyph glyph-name="uni2008" unicode="&#x2008;" horiz-adv-x="530" 
 />
    <glyph glyph-name="uni2009" unicode="&#x2009;" horiz-adv-x="262" 
 />
    <glyph glyph-name="uni200A" unicode="&#x200a;" horiz-adv-x="114" 
 />
    <glyph glyph-name="uni200B" unicode="&#x200b;" 
 />
    <glyph glyph-name="uni2010" unicode="&#x2010;" horiz-adv-x="948" 
d="M836 414h-723v200h723v-200z" />
    <glyph glyph-name="uni2011" unicode="&#x2011;" horiz-adv-x="948" 
d="M836 414h-723v200h723v-200z" />
    <glyph glyph-name="figuredash" unicode="&#x2012;" horiz-adv-x="1468" 
d="M1337 543h-1204v200h1204v-200z" />
    <glyph glyph-name="endash" unicode="&#x2013;" horiz-adv-x="1243" 
d="M1149 414h-1055v200h1055v-200z" />
    <glyph glyph-name="emdash" unicode="&#x2014;" horiz-adv-x="2013" 
d="M1917 414h-1823v200h1823v-200z" />
    <glyph glyph-name="uni2015" unicode="&#x2015;" horiz-adv-x="2013" 
d="M1917 414h-1823v200h1823v-200z" />
    <glyph glyph-name="quoteleft" unicode="&#x2018;" horiz-adv-x="530" 
d="M358 870h-252l144 631h174z" />
    <glyph glyph-name="quoteright" unicode="&#x2019;" horiz-adv-x="530" 
d="M172 1501h252l-145 -631h-173z" />
    <glyph glyph-name="quotesinglbase" unicode="&#x201a;" horiz-adv-x="530" 
d="M279 -299h-173l66 631h252z" />
    <glyph glyph-name="quotedblleft" unicode="&#x201c;" horiz-adv-x="958" 
d="M231 1501h172l-45 -631h-252zM680 1501h172l-45 -631h-252z" />
    <glyph glyph-name="quotedblright" unicode="&#x201d;" horiz-adv-x="958" 
d="M279 870h-173l48 631h252zM727 870h-172l47 631h250z" />
    <glyph glyph-name="quotedblbase" unicode="&#x201e;" horiz-adv-x="958" 
d="M279 -299h-173l48 631h252zM727 -299h-172l47 631h250z" />
    <glyph glyph-name="dagger" unicode="&#x2020;" horiz-adv-x="1017" 
d="M623 0h-226v924h-338v209h338v313h226v-313h335v-209h-335v-924z" />
    <glyph glyph-name="daggerdbl" unicode="&#x2021;" horiz-adv-x="1017" 
d="M958 1133v-209h-335v-398h335v-209h-335v-317h-226v317h-338v209h338v398h-338v209h338v313h226v-313h335z" />
    <glyph glyph-name="bullet" unicode="&#x2022;" horiz-adv-x="802" 
d="M403 229q-128 0 -211 81.5t-83 207.5q0 124 83 203.5t211 79.5t210.5 -79.5t82.5 -203.5q0 -126 -82.5 -207.5t-210.5 -81.5z" />
    <glyph glyph-name="ellipsis" unicode="&#x2026;" horiz-adv-x="1591" 
d="M264 -14q-65 0 -108 42.5t-43 108.5q0 63 43 104.5t108 41.5q66 0 110 -41.5t44 -104.5q0 -66 -44 -108.5t-110 -42.5zM795 -14q-65 0 -108.5 42.5t-43.5 108.5q0 63 43.5 104.5t108.5 41.5q66 0 109.5 -41.5t43.5 -104.5q0 -66 -43.5 -108.5t-109.5 -42.5zM1325 -14
q-65 0 -108 42.5t-43 108.5q0 63 43 104.5t108 41.5q66 0 110 -41.5t44 -104.5q0 -66 -44 -108.5t-110 -42.5z" />
    <glyph glyph-name="perthousand" unicode="&#x2030;" horiz-adv-x="2969" 
d="M442 569q-173 0 -279 117.5t-106 333.5q0 214 106 331t279 117q174 0 277.5 -117t103.5 -331q0 -215 -104 -333t-277 -118zM727 0h-213l846 1446h215zM442 750q82 0 130.5 73.5t48.5 196.5t-48.5 195.5t-130.5 72.5q-84 0 -133 -72.5t-49 -195.5q0 -124 49 -197t133 -73z
M1649 -23q-173 0 -279 117.5t-106 333.5q0 214 106.5 331.5t278.5 117.5q174 0 277.5 -117.5t103.5 -331.5q0 -215 -104 -333t-277 -118zM2529 -23q-173 0 -279 117.5t-106 333.5q0 214 106.5 331.5t278.5 117.5q174 0 277.5 -117.5t103.5 -331.5q0 -215 -104 -333
t-277 -118zM1649 158q82 0 130 73.5t48 196.5t-48 195.5t-130 72.5q-85 0 -134 -72.5t-49 -195.5t49.5 -196.5t133.5 -73.5zM2529 158q82 0 130 73.5t48 196.5t-48 195.5t-130 72.5q-84 0 -133 -72.5t-49 -195.5q0 -124 49 -197t133 -73z" />
    <glyph glyph-name="minute" unicode="&#x2032;" horiz-adv-x="434" 
d="M317 870h-202v631h202v-631z" />
    <glyph glyph-name="second" unicode="&#x2033;" horiz-adv-x="839" 
d="M317 870h-202v631h202v-631zM725 870h-203v631h203v-631z" />
    <glyph glyph-name="guilsinglleft" unicode="&#x2039;" horiz-adv-x="618" 
d="M547 139l-166 -114l-332 483l332 485l166 -114l-254 -371z" />
    <glyph glyph-name="guilsinglright" unicode="&#x203a;" horiz-adv-x="618" 
d="M567 508l-329 -483l-166 114l252 369l-252 371l166 114z" />
    <glyph glyph-name="fraction" unicode="&#x2044;" horiz-adv-x="438" 
d="M-98 0h-213l846 1446h215z" />
    <glyph glyph-name="uni2070" unicode="&#x2070;" horiz-adv-x="882" 
d="M442 752q-173 0 -279 117t-106 333q0 214 106.5 331.5t278.5 117.5q174 0 277.5 -117.5t103.5 -331.5q0 -215 -104 -332.5t-277 -117.5zM442 932q82 0 130.5 73.5t48.5 196.5t-48.5 195.5t-130.5 72.5q-84 0 -133 -72.5t-49 -195.5q0 -124 49 -197t133 -73z" />
    <glyph glyph-name="uni2074" unicode="&#x2074;" horiz-adv-x="800" 
d="M662 1083h98v-157h-98v-152h-179v152h-442v151l240 551h204l-233 -545h240v242h170v-242z" />
    <glyph glyph-name="uni2075" unicode="&#x2075;" horiz-adv-x="761" 
d="M395 1335q136 0 223 -77.5t87 -206.5q0 -137 -96.5 -218t-258.5 -81q-113 0 -198.5 37t-131.5 104l121 131q27 -45 83.5 -70.5t121.5 -25.5q74 0 117 36t43 97q0 67 -43.5 105t-122.5 38q-104 0 -168 -51l-94 21l43 454h541v-176h-383l-15 -141q59 24 131 24z" />
    <glyph glyph-name="uni2076" unicode="&#x2076;" horiz-adv-x="815" 
d="M481 1354q133 0 214 -81t81 -206q0 -140 -96.5 -227.5t-255.5 -87.5q-161 0 -264 91t-103 261q0 297 334 557l193 -70q-202 -150 -283 -297q77 60 180 60zM422 924q71 0 111 38t40 105q0 63 -42 102t-107 39q-71 0 -118.5 -39.5t-47.5 -103.5q0 -70 46 -105.5t118 -35.5z
" />
    <glyph glyph-name="uni2077" unicode="&#x2077;" horiz-adv-x="714" 
d="M43 1448v180h629v-139l-320 -715h-211l301 674h-399z" />
    <glyph glyph-name="uni2078" unicode="&#x2078;" horiz-adv-x="825" 
d="M629 1223q66 -31 102.5 -84.5t36.5 -122.5q0 -121 -95.5 -192.5t-260.5 -71.5q-164 0 -259.5 71.5t-95.5 192.5q0 69 36.5 122t101.5 85q-109 66 -109 188q0 109 87 174.5t239 65.5t239.5 -65.5t87.5 -174.5q0 -124 -110 -188zM412 1483q-58 0 -92.5 -26.5t-34.5 -70.5
t34 -70t93 -26t94 26t35 70t-35 70.5t-94 26.5zM412 924q68 0 110.5 32t42.5 80q0 54 -42 85.5t-111 31.5t-110.5 -31.5t-41.5 -85.5q0 -52 41 -82t111 -30z" />
    <glyph glyph-name="uni2079" unicode="&#x2079;" horiz-adv-x="815" 
d="M391 1651q161 0 264 -91.5t103 -261.5q0 -297 -334 -557l-193 70q202 150 283 297q-76 -59 -180 -59q-133 0 -214 80.5t-81 205.5q0 140 96.5 228t255.5 88zM242 1335q0 -63 42 -102t107 -39q71 0 118.5 39.5t47.5 103.5q0 70 -46 106t-118 36q-71 0 -111 -38.5
t-40 -105.5z" />
    <glyph glyph-name="uni2080" unicode="&#x2080;" horiz-adv-x="882" 
d="M442 -309q-173 0 -279 117t-106 333q0 214 106.5 331.5t278.5 117.5q174 0 277.5 -117.5t103.5 -331.5q0 -215 -104 -332.5t-277 -117.5zM442 -129q82 0 130.5 73.5t48.5 196.5t-48.5 196t-130.5 73q-84 0 -133 -72.5t-49 -196.5t49 -197t133 -73z" />
    <glyph glyph-name="uni2081" unicode="&#x2081;" horiz-adv-x="606" 
d="M483 -287h-198v629l-199 -76l-59 164l389 148h67v-865z" />
    <glyph glyph-name="uni2082" unicode="&#x2082;" horiz-adv-x="749" 
d="M428 -29l-96 -80h358v-178h-639v135l180 160q88 77 129.5 117t74 90.5t32.5 95.5q0 99 -121 99q-117 0 -168 -97l-147 111q35 72 123 119t206 47q142 0 225 -68t83 -190q0 -100 -54 -175.5t-186 -185.5z" />
    <glyph glyph-name="uni2083" unicode="&#x2083;" horiz-adv-x="755" 
d="M657 428l-196 -186q107 -17 171 -90.5t64 -180.5q0 -134 -91 -207t-236 -73q-124 0 -210 40.5t-130 106.5l127 125q27 -43 79.5 -69.5t116.5 -26.5q65 0 104.5 34t39.5 93q0 63 -40 99t-108 36q-63 0 -94 -16l-61 82l217 202h-328v170h575v-139z" />
    <glyph glyph-name="uni2084" unicode="&#x2084;" horiz-adv-x="800" 
d="M662 23h98v-158h-98v-152h-179v152h-442v151l240 551h204l-233 -544h240v241h170v-241z" />
    <glyph glyph-name="uni2085" unicode="&#x2085;" horiz-adv-x="761" 
d="M395 274q136 0 223 -77.5t87 -206.5q0 -137 -96.5 -218t-258.5 -81q-113 0 -198.5 37t-131.5 104l121 131q27 -45 83.5 -70.5t121.5 -25.5q74 0 117 36t43 97q0 67 -43.5 105t-122.5 38q-104 0 -168 -51l-94 21l43 454h541v-176h-383l-15 -141q59 24 131 24z" />
    <glyph glyph-name="uni2086" unicode="&#x2086;" horiz-adv-x="815" 
d="M481 293q133 0 214 -81t81 -206q0 -140 -96.5 -227.5t-255.5 -87.5q-161 0 -264 91t-103 261q0 297 334 557l193 -70q-202 -150 -283 -297q77 60 180 60zM422 -137q71 0 111 38t40 105q0 63 -42 102t-107 39q-71 0 -118.5 -39.5t-47.5 -103.5q0 -70 46 -105.5t118 -35.5z
" />
    <glyph glyph-name="uni2087" unicode="&#x2087;" horiz-adv-x="714" 
d="M43 387v180h629v-139l-320 -715h-211l301 674h-399z" />
    <glyph glyph-name="uni2088" unicode="&#x2088;" horiz-adv-x="825" 
d="M629 162q66 -31 102.5 -84.5t36.5 -122.5q0 -121 -95.5 -192.5t-260.5 -71.5q-164 0 -259.5 71.5t-95.5 192.5q0 69 36.5 122t101.5 85q-109 66 -109 188q0 109 87 174.5t239 65.5t239.5 -65.5t87.5 -174.5q0 -124 -110 -188zM412 422q-59 0 -93 -26t-34 -70t34.5 -70.5
t92.5 -26.5q59 0 94 26.5t35 70.5t-35 70t-94 26zM412 -137q68 0 110.5 32t42.5 80q0 54 -42 85.5t-111 31.5t-110.5 -31.5t-41.5 -85.5q0 -52 41 -82t111 -30z" />
    <glyph glyph-name="uni2089" unicode="&#x2089;" horiz-adv-x="815" 
d="M393 588q159 0 262 -92t103 -260q0 -302 -334 -558l-191 70q197 146 283 297q-76 -59 -182 -59q-133 0 -214 80.5t-81 205.5q0 141 97 228.5t257 87.5zM242 270q0 -61 42 -100t107 -39q71 0 119.5 39.5t48.5 103.5q0 69 -46.5 105.5t-119.5 36.5q-71 0 -111 -38.5
t-40 -107.5z" />
    <glyph glyph-name="Euro" unicode="&#x20ac;" horiz-adv-x="1402" 
d="M872 188q107 0 186.5 48.5t119.5 134.5l180 -117q-67 -131 -201 -202.5t-293 -71.5q-225 0 -384.5 136t-215.5 373h-186v154h164q-2 27 -2 80q0 55 2 82h-164v156h188q56 236 214.5 370.5t383.5 134.5q159 0 293 -71.5t201 -202.5l-180 -115q-40 85 -119.5 132.5
t-186.5 47.5q-130 0 -224 -75t-136 -221h444v-156h-473q0 -13 -1 -40t-1 -42q0 -55 2 -80h473v-154h-446q42 -148 137 -224.5t225 -76.5z" />
    <glyph glyph-name="uni20BA" unicode="&#x20ba;" horiz-adv-x="1327" 
d="M1014 743h237q0 -349 -199.5 -546t-553.5 -197h-217v516l-162 -72l-51 148l213 94v191l-183 -82l-51 145l234 104v402h235v-297l377 168l49 -148l-426 -188v-190l397 176l50 -146l-447 -198v-408q234 6 366 145.5t132 382.5z" />
    <glyph glyph-name="uni20BD" unicode="&#x20bd;" horiz-adv-x="1318" 
d="M768 549h-285v-156h523v-153h-523v-240h-233v240h-144v153h144v166h-144v186h144v701h528q463 0 463 -438q0 -223 -123 -341t-350 -118zM731 1233h-248v-473h246q140 0 205 53t65 191q0 128 -58.5 178.5t-209.5 50.5z" />
    <glyph glyph-name="uni2113" unicode="&#x2113;" horiz-adv-x="1138" 
d="M877 332l163 -82q-101 -273 -364 -273q-188 0 -290.5 124t-102.5 360v10q-133 18 -226 57l9 189q93 -40 217 -60v291q0 273 98.5 424.5t296.5 151.5q167 0 259.5 -122t92.5 -327q0 -110 -31.5 -211t-94 -186t-166 -141.5t-236.5 -69.5v-12q0 -141 44 -213t142 -72
q75 0 116 39t73 123zM668 1327q-166 0 -166 -358v-322q161 24 238 140.5t77 291.5q0 112 -36 180t-113 68z" />
    <glyph glyph-name="uni2116" unicode="&#x2116;" horiz-adv-x="2367" 
d="M1927 569q-173 0 -279 117.5t-106 333.5q0 214 106 331t279 117q174 0 277.5 -117t103.5 -331q0 -215 -104 -333t-277 -118zM399 0h-233v1446h221l700 -1022v1022h234v-1446h-223l-699 1022v-1022zM1927 750q82 0 130 73.5t48 196.5t-48 195.5t-130 72.5
q-84 0 -133 -72.5t-49 -195.5q0 -124 49 -197t133 -73zM2263 279h-670v172h670v-172z" />
    <glyph glyph-name="trademark" unicode="&#x2122;" horiz-adv-x="1466" 
d="M231 1307h-182v139h522v-139h-182v-508h-158v508zM1034 1112l168 334h195v-647h-148v448l-174 -332h-82l-168 320v-436h-147v647h186z" />
    <glyph glyph-name="uni2126" unicode="&#x2126;" horiz-adv-x="1681" 
d="M1577 778q0 -177 -80 -328.5t-229 -238.5h301v-211h-608v211q188 65 282 204t94 322q0 228 -137 371t-360 143q-222 0 -359 -143t-137 -371q0 -182 94.5 -321.5t282.5 -204.5v-211h-608v211h299q-149 87 -228.5 238t-79.5 329q0 198 95.5 356t263.5 246t377 88t377 -88
t264 -246t96 -356z" />
    <glyph glyph-name="estimated" unicode="&#x212e;" horiz-adv-x="1669" 
d="M1565 723v-21h-1190v-509q187 -166 477 -166q224 0 379.5 96t228.5 280l43 -20q-81 -198 -249 -300.5t-402 -102.5q-170 0 -311.5 58.5t-236.5 159t-147.5 236t-52.5 289.5q0 204 93 373.5t262.5 269.5t380.5 100q161 0 298 -58.5t230 -159t145 -236.5t52 -289zM1288 750
v512q-181 157 -448 157q-277 0 -465 -172v-497h913z" />
    <glyph glyph-name="partialdiff" unicode="&#x2202;" horiz-adv-x="1241" 
d="M303 1303l19 198q200 -13 361 -88.5t265 -197.5t159.5 -280.5t55.5 -340.5q0 -156 -41 -276t-114 -193.5t-169 -110.5t-212 -37q-235 0 -392 149.5t-157 379.5q0 224 137.5 365t351.5 141q216 0 334 -129q-62 188 -215.5 297.5t-382.5 122.5zM623 178q138 0 229.5 94
t91.5 242q0 144 -94.5 228.5t-231.5 84.5q-142 0 -228.5 -88t-86.5 -231q0 -144 91.5 -237t228.5 -93z" />
    <glyph glyph-name="emptyset" unicode="&#x2205;" horiz-adv-x="1427" 
d="M1286 1391l-147 -215q100 -87 155.5 -209.5t55.5 -270.5q0 -183 -84.5 -327.5t-229 -223.5t-321.5 -79q-159 0 -291 63l-86 -127h-199l148 217q-99 85 -154 208t-55 269q0 183 84.5 328t229.5 224t323 79q156 0 284 -61l84 125h203zM283 696q0 -190 114 -313l494 725
q-81 35 -176 35q-186 0 -309 -125.5t-123 -321.5zM715 248q186 0 308 125.5t122 322.5q0 193 -117 316l-496 -725q86 -39 183 -39z" />
    <glyph glyph-name="uni2206" unicode="&#x2206;" horiz-adv-x="1355" 
d="M545 1446h268l479 -1280v-166h-1229v166zM1026 215l-348 981l-348 -981h696z" />
    <glyph glyph-name="product" unicode="&#x220f;" horiz-adv-x="1484" 
d="M399 -401h-233v1847h1153v-1847h-234v1630h-686v-1630z" />
    <glyph glyph-name="summation" unicode="&#x2211;" horiz-adv-x="1150" 
d="M1092 -401h-1059v180l516 776l-483 711v180h991v-217h-695l437 -635v-72l-473 -710h766v-213z" />
    <glyph glyph-name="minus" unicode="&#x2212;" horiz-adv-x="1101" 
d="M1008 543h-914v200h914v-200z" />
    <glyph glyph-name="uni2215" unicode="&#x2215;" horiz-adv-x="438" 
d="M-98 0h-213l846 1446h215z" />
    <glyph glyph-name="uni2219" unicode="&#x2219;" horiz-adv-x="530" 
d="M264 496q-65 0 -108 42t-43 107q0 64 43 105t108 41q66 0 110 -41t44 -105q0 -65 -43.5 -107t-110.5 -42z" />
    <glyph glyph-name="radical" unicode="&#x221a;" horiz-adv-x="1312" 
d="M612 301l471 1346h228l-586 -1647h-225l-258 727h-179v201h332z" />
    <glyph glyph-name="infinity" unicode="&#x221e;" horiz-adv-x="1726" 
d="M1231 1081q176 0 297 -123t121 -315q0 -128 -57 -228.5t-152 -154t-209 -53.5q-125 0 -220 54.5t-147 152.5q-52 -98 -146.5 -152.5t-219.5 -54.5q-177 0 -298.5 121.5t-121.5 314.5t121.5 315.5t298.5 122.5q124 0 218.5 -54.5t147.5 -154.5q51 99 146.5 154t220.5 55z
M524 401q102 0 168 67.5t66 174.5q0 108 -66 176t-168 68q-99 0 -164 -68t-65 -176q0 -106 65 -174t164 -68zM1202 401q100 0 165 67.5t65 174.5q0 108 -65 176t-165 68q-102 0 -166.5 -68t-64.5 -176t64.5 -175t166.5 -67z" />
    <glyph glyph-name="integral" unicode="&#x222b;" horiz-adv-x="782" 
d="M143 -424q-75 0 -127 10l2 191q62 -8 99 -8q80 0 114.5 41.5t34.5 160.5v1307q0 199 93.5 295t287.5 96q77 0 119 -10l-2 -189q-61 9 -98 9q-49 0 -78.5 -7.5t-54.5 -30.5t-35.5 -69t-10.5 -121v-1302q0 -181 -85 -277t-259 -96z" />
    <glyph glyph-name="approxequal" unicode="&#x2248;" horiz-adv-x="1177" 
d="M772 717q-54 0 -110 21t-95.5 46.5t-86.5 46.5t-85 21q-71 0 -109.5 -34.5t-70.5 -100.5l-121 74q27 129 110.5 198.5t198.5 69.5q54 0 110.5 -20.5t96 -45t86.5 -45t84 -20.5q39 0 69 10t51 30.5t33.5 39.5t27.5 49l120 -72q-27 -129 -109.5 -198.5t-199.5 -69.5z
M772 227q-54 0 -110 21t-95.5 45.5t-86.5 45.5t-85 21q-71 0 -109.5 -34t-70.5 -99l-121 74q27 129 110.5 198.5t198.5 69.5q54 0 110.5 -21t96 -45.5t86.5 -45.5t84 -21q74 0 112 33.5t69 97.5l120 -73q-27 -129 -109.5 -198t-199.5 -69z" />
    <glyph glyph-name="notequal" unicode="&#x2260;" horiz-adv-x="1101" 
d="M1008 999v-200h-306l-114 -314h420v-200h-494l-102 -283h-189l103 283h-232v200h305l115 314h-420v200h492l104 285h189l-105 -285h234z" />
    <glyph glyph-name="lessequal" unicode="&#x2264;" horiz-adv-x="1044" 
d="M356 842l605 -258v-222l-867 381v197l867 381v-221zM76 0v203h893v-203h-893z" />
    <glyph glyph-name="greaterequal" unicode="&#x2265;" horiz-adv-x="1062" 
d="M113 1321l868 -381v-197l-868 -381v222l604 258l-604 258v221zM94 0v203h893v-203h-893z" />
    <glyph glyph-name="lozenge" unicode="&#x25ca;" horiz-adv-x="1155" 
d="M680 0h-207l-412 723l412 723h207l414 -723zM309 723l269 -477l268 477l-268 477z" />
    <glyph glyph-name="uni004A0301" horiz-adv-x="1105" 
d="M952 1559h-196l162 315h249zM532 -23q-185 0 -306 80t-177 222l189 116q39 -101 106.5 -150.5t171.5 -49.5q127 0 174 78t47 245v928h236v-920q0 -130 -21 -226t-70 -171t-136.5 -113.5t-213.5 -38.5z" />
    <glyph glyph-name="Adieresis.alt" horiz-adv-x="1347" 
d="M356 1827h240v-228h-240v228zM752 1827h241v-228h-241v228zM1335 0h-248l-116 330h-592l-117 -330h-248l527 1446h268zM897 543l-223 649l-221 -649h444z" />
    <glyph glyph-name="Edieresis.alt" horiz-adv-x="1159" 
d="M526 1599h-239v228h239v-228zM924 1599h-242v228h242v-228zM1063 0h-897v1446h881v-215h-648v-402h562v-211h-562v-403h664v-215z" />
    <glyph glyph-name="Edotaccent.alt" horiz-adv-x="1159" 
d="M733 1595h-254v240h254v-240zM1063 0h-897v1446h881v-215h-648v-402h562v-211h-562v-403h664v-215z" />
    <glyph glyph-name="Idieresis.alt" horiz-adv-x="585" 
d="M213 1599h-240v228h240v-228zM610 1599h-241v228h241v-228zM412 0h-238v1446h238v-1446z" />
    <glyph glyph-name="Idotaccent.alt" horiz-adv-x="585" 
d="M420 1595h-254v240h254v-240zM412 0h-238v1446h238v-1446z" />
    <glyph glyph-name="Ldot.alt" horiz-adv-x="1105" 
d="M1047 0h-881v1446h233v-1229h648v-217zM973 618h-275v267h275v-267z" />
    <glyph glyph-name="Odieresis.alt" horiz-adv-x="1712" 
d="M776 1599h-239v228h239v-228zM1174 1599h-242v228h242v-228zM856 -23q-211 0 -382 94t-270.5 265t-99.5 387t99.5 387t270.5 264.5t382 93.5t382 -93.5t270.5 -264.5t99.5 -387t-99.5 -387t-270.5 -265t-382 -94zM856 195q219 0 363.5 148.5t144.5 379.5t-144.5 379.5
t-363.5 148.5t-364.5 -148.5t-145.5 -379.5t145.5 -379.5t364.5 -148.5z" />
    <glyph glyph-name="Udieresis.alt" horiz-adv-x="1413" 
d="M629 1599h-240v228h240v-228zM1026 1599h-242v228h242v-228zM707 -23q-574 0 -574 611v858h236v-848q0 -203 76.5 -303t261.5 -100t262.5 100t77.5 303v848h233v-858q0 -611 -573 -611z" />
    <glyph glyph-name="Ydieresis.alt" horiz-adv-x="1249" 
d="M545 1599h-240v228h240v-228zM942 1599h-242v228h242v-228zM739 0h-233v547l-500 899h273l346 -658l346 658h272l-504 -901v-545z" />
    <glyph glyph-name="Zdotaccent.alt" horiz-adv-x="1173" 
d="M469 1835h254v-240h-254v240zM1090 1268l-707 -1051h747v-217h-1054v180l706 1049h-682v217h990v-178z" />
    <glyph glyph-name="i.loclTRK" horiz-adv-x="524" 
d="M264 1206q-61 0 -101 40.5t-40 99.5q0 57 40 95t101 38q60 0 99.5 -38t39.5 -95q0 -59 -39.5 -99.5t-99.5 -40.5zM375 0h-223v1028h223v-1028z" />
    <glyph glyph-name="uni006A0301" horiz-adv-x="524" 
d="M348 1174h-194l151 327h240zM31 -424q-75 0 -127 10l2 191q62 -8 98 -8q79 0 113.5 42t34.5 160v1057h223v-1079q0 -180 -86 -276.5t-258 -96.5z" />
    <glyph glyph-name="adieresis.alt" horiz-adv-x="1259" 
d="M537 1235h-240v227h240v-227zM934 1235h-242v227h242v-227zM557 -23q-211 0 -345 150t-134 387q0 238 133.5 387.5t347.5 149.5q120 0 208.5 -49.5t139.5 -139.5v166h221v-1028h-221v166q-52 -88 -141 -138.5t-209 -50.5zM608 178q131 0 216 93t85 243q0 151 -85 244.5
t-216 93.5q-135 0 -220 -94.5t-85 -243.5t85 -242.5t220 -93.5z" />
    <glyph glyph-name="edieresis.alt" horiz-adv-x="1193" 
d="M291 1462h239v-227h-239v227zM686 1462h242v-227h-242v227zM1122 514q0 -1 -6 -82h-811q19 -119 106 -189.5t226 -70.5q188 0 278 137l185 -100q-64 -114 -188.5 -173t-278.5 -59q-252 0 -403.5 149t-151.5 388q0 236 150 386.5t382 150.5q229 0 370.5 -148t141.5 -389z
M614 862q-120 0 -203.5 -70.5t-105.5 -187.5h600q-20 120 -97 189t-194 69z" />
    <glyph glyph-name="edotaccent.alt" horiz-adv-x="1193" 
d="M483 1468h252v-239h-252v239zM1122 514q0 -1 -6 -82h-811q19 -119 106 -189.5t226 -70.5q188 0 278 137l185 -100q-64 -114 -188.5 -173t-278.5 -59q-252 0 -403.5 149t-151.5 388q0 236 150 386.5t382 150.5q229 0 370.5 -148t141.5 -389zM614 862q-120 0 -203.5 -70.5
t-105.5 -187.5h600q-20 120 -97 189t-194 69z" />
    <glyph glyph-name="i.alt" horiz-adv-x="524" 
d="M389 1229h-252v239h252v-239zM375 0h-223v1028h223v-1028z" />
    <glyph glyph-name="idieresis.alt" horiz-adv-x="524" 
d="M207 1235h-234v227h234v-227zM555 1235h-233v227h233v-227zM375 0h-223v1028h223v-1028z" />
    <glyph glyph-name="i.loclTRK.alt" horiz-adv-x="524" 
d="M389 1229h-252v239h252v-239zM375 0h-223v1028h223v-1028z" />
    <glyph glyph-name="iogonek.alt" horiz-adv-x="524" 
d="M137 1229v239h252v-239h-252zM174 0h-22v1028h223v-1028q-87 -56 -120 -89q-65 -66 -65 -144q0 -99 105 -99q41 0 80 17v-152q-55 -22 -129 -22q-117 0 -181.5 54.5t-64.5 147.5q0 164 174 287z" />
    <glyph glyph-name="j.alt" horiz-adv-x="524" 
d="M389 1229h-252v239h252v-239zM31 -424q-75 0 -127 10l2 191q62 -8 98 -8q79 0 113.5 42t34.5 160v1057h223v-1079q0 -180 -86 -276.5t-258 -96.5z" />
    <glyph glyph-name="ldot.alt" horiz-adv-x="796" 
d="M373 0h-223v1501h223v-1501zM797 618h-275v267h275v-267z" />
    <glyph glyph-name="odieresis.alt" horiz-adv-x="1245" 
d="M543 1235h-240v227h240v-227zM940 1235h-242v227h242v-227zM623 -23q-152 0 -276.5 67.5t-196.5 191t-72 278.5t72 278.5t196.5 191t276.5 67.5q233 0 388.5 -151t155.5 -386t-155.5 -386t-388.5 -151zM623 178q138 0 229.5 94t91.5 242t-91.5 243t-229.5 95t-229 -95
t-91 -243t91 -242t229 -94z" />
    <glyph glyph-name="udieresis.alt" horiz-adv-x="1177" 
d="M502 1235h-240v227h240v-227zM899 1235h-242v227h242v-227zM496 -23q-184 0 -283.5 114.5t-99.5 332.5v604h221v-567q0 -285 229 -285q124 0 193 87t69 222v543h219v-1028h-219v162q-102 -185 -329 -185z" />
    <glyph glyph-name="ydieresis.alt" horiz-adv-x="1095" 
d="M231 1462h240v-227h-240v227zM627 1462h241v-227h-241v227zM555 242l272 786h244l-541 -1429h-237l160 395l-426 1034h245z" />
    <glyph glyph-name="zdotaccent.alt" horiz-adv-x="993" 
d="M369 1468h252v-239h-252v239zM891 887l-504 -690h539v-197h-836v143l504 691h-500v194h797v-141z" />
    <glyph glyph-name="germandbls.calt" horiz-adv-x="1398" 
d="M918 885q112 0 200.5 -46.5t142.5 -144.5t54 -235q0 -221 -138 -351.5t-393 -130.5q-118 0 -221 27l53 213q70 -27 162 -27q142 0 219.5 72t77.5 201q0 126 -74.5 189t-195.5 63q-30 0 -121 -17l-82 107l338 434h-532v-1239h-234v1446h1055v-166l-318 -395h7z" />
    <glyph glyph-name="fi.alt" horiz-adv-x="1277" 
d="M215 1028v105q0 199 92.5 295t288.5 96q73 0 119 -11l-2 -188q-54 8 -99 8q-49 0 -78 -7t-54 -30t-35.5 -69t-10.5 -121v-78h269v-194h-269v-834h-221v834h-176v194h176zM891 1229v239h252v-239h-252zM1128 0h-223v1028h223v-1028z" />
    <glyph glyph-name="zero.dnom" horiz-adv-x="882" 
d="M442 -23q-173 0 -279 117.5t-106 333.5q0 214 106.5 331.5t278.5 117.5q174 0 277.5 -117.5t103.5 -331.5q0 -215 -104 -333t-277 -118zM442 158q82 0 130.5 73.5t48.5 196.5t-48.5 195.5t-130.5 72.5q-84 0 -133 -72.5t-49 -195.5q0 -124 49 -197t133 -73z" />
    <glyph glyph-name="one.dnom" horiz-adv-x="606" 
d="M483 0h-198v629l-199 -76l-59 164l389 147h67v-864z" />
    <glyph glyph-name="two.dnom" horiz-adv-x="749" 
d="M428 258l-96 -80h358v-178h-639v135l180 160q88 77 129.5 117t74 90.5t32.5 95.5q0 98 -121 98q-117 0 -168 -96l-147 111q35 72 123 119t206 47q142 0 225 -68.5t83 -190.5q0 -100 -53.5 -175t-186.5 -185z" />
    <glyph glyph-name="three.dnom" horiz-adv-x="755" 
d="M657 715l-196 -187q108 -17 171.5 -90t63.5 -180q0 -134 -91 -207.5t-236 -73.5q-123 0 -209 41t-131 107l127 125q27 -43 79.5 -69.5t116.5 -26.5q65 0 104.5 34t39.5 93q0 63 -40 99t-108 36q-61 0 -94 -17l-61 82l217 203h-328v170h575v-139z" />
    <glyph glyph-name="four.dnom" horiz-adv-x="800" 
d="M662 309h98v-157h-98v-152h-179v152h-442v151l240 551h204l-233 -545h240v242h170v-242z" />
    <glyph glyph-name="five.dnom" horiz-adv-x="761" 
d="M395 561q136 0 223 -78t87 -207q0 -137 -96.5 -218t-258.5 -81q-112 0 -198 37.5t-132 104.5l121 131q27 -45 83.5 -70.5t121.5 -25.5q74 0 117 36t43 97q0 67 -43.5 105t-122.5 38q-104 0 -168 -51l-94 20l43 455h541v-176h-383l-15 -141q59 24 131 24z" />
    <glyph glyph-name="six.dnom" horiz-adv-x="815" 
d="M481 580q133 0 214 -81t81 -206q0 -140 -96.5 -228t-255.5 -88q-161 0 -264 91.5t-103 261.5q0 297 334 557l193 -70q-202 -150 -283 -297q77 60 180 60zM422 150q71 0 111 38t40 105q0 63 -42 102t-107 39q-71 0 -118.5 -39.5t-47.5 -103.5q0 -70 46 -105.5t118 -35.5z
" />
    <glyph glyph-name="seven.dnom" horiz-adv-x="714" 
d="M43 674v180h629v-139l-320 -715h-211l301 674h-399z" />
    <glyph glyph-name="eight.dnom" horiz-adv-x="825" 
d="M629 449q66 -31 102.5 -84.5t36.5 -122.5q0 -121 -95.5 -193t-260.5 -72q-163 0 -259 72t-96 193q0 69 36.5 122t101.5 85q-109 66 -109 188q0 109 87 174.5t239 65.5t239.5 -65.5t87.5 -174.5q0 -124 -110 -188zM412 709q-58 0 -92.5 -26.5t-34.5 -70.5t34 -70t93 -26
t94 26t35 70t-35 70.5t-94 26.5zM412 150q68 0 110.5 32t42.5 80q0 54 -42 85.5t-111 31.5t-110.5 -31.5t-41.5 -85.5q0 -52 41 -82t111 -30z" />
    <glyph glyph-name="nine.dnom" horiz-adv-x="815" 
d="M391 877q161 0 264 -91.5t103 -261.5q0 -297 -334 -557l-193 70q202 150 283 297q-77 -60 -180 -60q-133 0 -214 81t-81 206q0 140 96.5 228t255.5 88zM242 561q0 -63 42 -102t107 -39q71 0 118.5 39.5t47.5 103.5q0 70 -46 106t-118 36q-71 0 -111 -38.5t-40 -105.5z
" />
    <glyph glyph-name="zero.numr" horiz-adv-x="882" 
d="M442 569q-173 0 -279 117.5t-106 333.5q0 214 106 331t279 117q174 0 277.5 -117t103.5 -331q0 -215 -104 -333t-277 -118zM442 750q82 0 130.5 73.5t48.5 196.5t-48.5 195.5t-130.5 72.5q-84 0 -133 -72.5t-49 -195.5q0 -124 49 -197t133 -73z" />
    <glyph glyph-name="one.numr" horiz-adv-x="606" 
d="M483 592h-198v629l-199 -76l-59 164l389 147h67v-864z" />
    <glyph glyph-name="two.numr" horiz-adv-x="749" 
d="M428 850l-96 -80h358v-178h-639v135l180 160q88 77 129.5 117t74 90.5t32.5 95.5q0 98 -121 98q-117 0 -168 -96l-147 111q35 72 122.5 118.5t206.5 46.5q142 0 225 -68t83 -190q0 -100 -53.5 -175t-186.5 -185z" />
    <glyph glyph-name="three.numr" horiz-adv-x="755" 
d="M657 1307l-196 -187q108 -17 171.5 -90t63.5 -180q0 -134 -91 -207.5t-236 -73.5q-123 0 -209 41t-131 107l127 125q27 -44 80 -70.5t116 -26.5q65 0 104.5 34t39.5 93q0 63 -40 99.5t-108 36.5q-61 0 -94 -17l-61 82l217 203h-328v170h575v-139z" />
    <glyph glyph-name="four.numr" horiz-adv-x="800" 
d="M662 901h98v-158h-98v-151h-179v151h-442v152l240 551h204l-233 -545h240v242h170v-242z" />
    <glyph glyph-name="five.numr" horiz-adv-x="761" 
d="M395 1153q136 0 223 -78t87 -207q0 -137 -96.5 -218t-258.5 -81q-112 0 -198 37.5t-132 104.5l121 131q27 -45 84 -71t121 -26q73 0 116.5 36t43.5 98q0 67 -43.5 105t-122.5 38q-104 0 -168 -51l-94 20l43 455h541v-176h-383l-15 -142q61 25 131 25z" />
    <glyph glyph-name="six.numr" horiz-adv-x="815" 
d="M481 1171q133 0 214 -80.5t81 -205.5q0 -140 -96.5 -228t-255.5 -88q-161 0 -264 91.5t-103 261.5q0 297 334 557l193 -70q-202 -150 -283 -297q76 59 180 59zM422 741q71 0 111 38.5t40 105.5q0 63 -42 102t-107 39q-71 0 -118.5 -39.5t-47.5 -103.5q0 -70 46 -106
t118 -36z" />
    <glyph glyph-name="seven.numr" horiz-adv-x="714" 
d="M43 1266v180h629v-139l-320 -715h-211l301 674h-399z" />
    <glyph glyph-name="eight.numr" horiz-adv-x="825" 
d="M629 1040q66 -31 102.5 -84t36.5 -122q0 -121 -95.5 -193t-260.5 -72q-163 0 -259 72t-96 193q0 69 36.5 121.5t101.5 84.5q-109 66 -109 189q0 109 87 174t239 65t239.5 -65.5t87.5 -173.5q0 -125 -110 -189zM412 1300q-59 0 -93 -26t-34 -70t34 -70t93 -26t94 26t35 70
t-35 70t-94 26zM412 741q68 0 110.5 32.5t42.5 80.5q0 54 -42 85.5t-111 31.5t-110.5 -31.5t-41.5 -85.5q0 -52 41.5 -82.5t110.5 -30.5z" />
    <glyph glyph-name="nine.numr" horiz-adv-x="815" 
d="M391 1468q161 0 264 -91t103 -261q0 -297 -334 -557l-193 70q202 150 283 297q-77 -60 -180 -60q-133 0 -214 81t-81 206q0 140 96.5 227.5t255.5 87.5zM242 1153q0 -63 42 -102t107 -39q71 0 118.5 39.5t47.5 103.5q0 70 -46 105.5t-118 35.5q-71 0 -111 -38t-40 -105z
" />
    <glyph glyph-name="period.alt" horiz-adv-x="507" 
d="M391 -2h-274v268h274v-268z" />
    <glyph glyph-name="colon.alt" horiz-adv-x="499" 
d="M387 760h-274v268h274v-268zM387 0h-274v268h274v-268z" />
    <glyph glyph-name="semicolon.alt" horiz-adv-x="544" 
d="M403 760h-274v268h274v-268zM279 -299h-173l66 631h252z" />
    <glyph glyph-name="ellipsis.alt" horiz-adv-x="1521" 
d="M391 -2h-274v268h274v-268zM899 -2h-274v268h274v-268zM1405 -2h-275v268h275v-268z" />
    <glyph glyph-name="exclam.alt" horiz-adv-x="499" 
d="M336 440h-172l-41 1006h254zM387 -2h-274v268h274v-268z" />
    <glyph glyph-name="exclamdown.alt" horiz-adv-x="499" 
d="M113 1028h274v-268h-274v268zM164 588h172l41 -1006h-254z" />
    <glyph glyph-name="question.alt" horiz-adv-x="1032" 
d="M586 438h-193q0 70 24 134.5t59.5 110t77.5 93.5t77.5 88t59.5 91t24 104q0 89 -65 145t-169 56q-90 0 -159.5 -50t-100.5 -139l-192 88q51 146 177 225.5t290 79.5q123 0 225 -43.5t165.5 -131.5t63.5 -206q0 -64 -20 -122.5t-51.5 -104t-70 -88t-77.5 -81.5t-71 -77
t-52.5 -82.5t-21.5 -89.5zM637 0h-275v268h275v-268z" />
    <glyph glyph-name="questiondown.alt" horiz-adv-x="1032" 
d="M391 1042h275v-268h-275v268zM446 604h193q0 -71 -24 -135.5t-59.5 -109.5t-77.5 -93t-77.5 -87.5t-59.5 -90.5t-24 -104q0 -91 64 -146t170 -55q89 0 158.5 49t99.5 137l192 -86q-51 -147 -176.5 -227t-289.5 -80q-122 0 -223.5 43.5t-165.5 131.5t-64 206q0 64 20 123
t51.5 105t70 88.5t77.5 81.5t71 77t52.5 82.5t21.5 89.5z" />
    <glyph glyph-name="periodcentered.alt" horiz-adv-x="507" 
d="M391 381h-274v268h274v-268z" />
    <glyph glyph-name="bullet.alt" horiz-adv-x="751" 
d="M643 256h-528v516h528v-516z" />
    <glyph glyph-name="exclamdown.case.alt" horiz-adv-x="499" 
d="M113 1448h274v-268h-274v268zM164 1006h172l41 -1006h-254z" />
    <glyph glyph-name="questiondown.case.alt" horiz-adv-x="1032" 
d="M395 1446h275v-268h-275v268zM446 1008h193q0 -70 -24 -134.5t-59.5 -110t-77.5 -93.5t-77.5 -88t-59.5 -91t-24 -104q0 -89 65 -145t169 -56q90 0 159.5 50t100.5 139l193 -88q-51 -146 -177 -225.5t-290 -79.5q-123 0 -225 43t-166 131t-64 206q0 64 20 122.5
t51.5 104.5t70 88.5t77.5 81.5t71 77t52.5 82.5t21.5 89.5z" />
    <glyph glyph-name="periodcentered.case.alt" horiz-adv-x="507" 
d="M391 590h-274v266h274v-266z" />
    <glyph glyph-name="bullet.case.alt" horiz-adv-x="751" 
d="M643 465h-528v516h528v-516z" />
    <glyph glyph-name="periodcentered.loclCAT.alt" horiz-adv-x="395" 
d="M336 618h-277v267h277v-267z" />
    <glyph glyph-name="exclamdown.case" horiz-adv-x="530" 
d="M266 1460q65 0 108.5 -42.5t43.5 -108.5q0 -63 -43.5 -104.5t-108.5 -41.5q-66 0 -109.5 41.5t-43.5 104.5q0 66 43.5 108.5t109.5 42.5zM178 1006h174l41 -1006h-256z" />
    <glyph glyph-name="questiondown.case" horiz-adv-x="1032" 
d="M532 1460q66 0 109 -42.5t43 -108.5q0 -63 -43 -104.5t-109 -41.5t-109.5 41.5t-43.5 104.5q0 66 43.5 108.5t109.5 42.5zM446 1008h193q0 -70 -24 -134.5t-59.5 -110t-77.5 -93.5t-77.5 -88t-59.5 -91t-24 -104q0 -89 65 -145t169 -56q90 0 159.5 50t100.5 139l193 -88
q-51 -146 -177 -225.5t-290 -79.5q-123 0 -225 43t-166 131t-64 206q0 64 20 122.5t51.5 104.5t70 88.5t77.5 81.5t71 77t52.5 82.5t21.5 89.5z" />
    <glyph glyph-name="periodcentered.case" horiz-adv-x="530" 
d="M264 575q-65 0 -108 42t-43 108q0 64 43 104.5t108 40.5q67 0 110.5 -40.5t43.5 -104.5q0 -66 -44 -108t-110 -42z" />
    <glyph glyph-name="bullet.case" horiz-adv-x="802" 
d="M403 438q-128 0 -211 81.5t-83 207.5q0 124 83 202.5t211 78.5t210.5 -78.5t82.5 -202.5q0 -126 -82.5 -207.5t-210.5 -81.5z" />
    <glyph glyph-name="periodcentered.loclCAT" horiz-adv-x="395" 
d="M199 604q-66 0 -110 42t-44 108q0 64 43.5 104.5t110.5 40.5q65 0 108 -40.5t43 -104.5q0 -66 -43 -108t-108 -42z" />
    <glyph glyph-name="parenleft.case" horiz-adv-x="743" 
d="M725 -39l-100 -172q-247 133 -387 370t-140 543t140.5 543t386.5 369l100 -172q-187 -102 -293 -296.5t-106 -443.5q0 -252 106 -447t293 -294z" />
    <glyph glyph-name="parenright.case" horiz-adv-x="743" 
d="M119 -211l-101 172q187 99 293.5 294t106.5 447q0 249 -106.5 443.5t-293.5 296.5l101 172q246 -131 386 -368t140 -544q0 -306 -140 -543t-386 -370z" />
    <glyph glyph-name="braceleft.case" horiz-adv-x="770" 
d="M428 1239v-276q0 -210 -184 -269q184 -56 184 -268v-272q0 -66 37 -106t100 -40h168v-196h-215q-148 0 -229.5 83.5t-81.5 229.5v307q0 80 -40 126t-118 46h-37v182h37q78 0 118 45t40 125v314q0 146 81.5 228.5t229.5 82.5h215v-197h-168q-63 0 -100 -39t-37 -106z" />
    <glyph glyph-name="braceright.case" horiz-adv-x="770" 
d="M721 786h37v-182h-37q-78 0 -119 -46t-41 -126v-307q0 -146 -80.5 -229.5t-228.5 -83.5h-215v196h168q63 0 100 40t37 106v272q0 212 184 268q-184 59 -184 269v276q0 67 -37 106t-100 39h-168v197h215q148 0 228.5 -82.5t80.5 -228.5v-314q0 -80 41 -125t119 -45z" />
    <glyph glyph-name="bracketleft.case" horiz-adv-x="696" 
d="M657 -188h-497v1769h497v-197h-278v-1376h278v-196z" />
    <glyph glyph-name="bracketright.case" horiz-adv-x="696" 
d="M535 -188h-498v196h278v1376h-278v197h498v-1769z" />
    <glyph glyph-name="hyphen.case" horiz-adv-x="948" 
d="M836 623h-723v200h723v-200z" />
    <glyph glyph-name="uni00AD.case" horiz-adv-x="948" 
d="M836 623h-723v200h723v-200z" />
    <glyph glyph-name="endash.case" horiz-adv-x="1243" 
d="M1149 623h-1055v200h1055v-200z" />
    <glyph glyph-name="emdash.case" horiz-adv-x="2013" 
d="M1917 623h-1823v200h1823v-200z" />
    <glyph glyph-name="uni2015.case" horiz-adv-x="2013" 
d="M1917 623h-1823v200h1823v-200z" />
    <glyph glyph-name="uni2011.case" horiz-adv-x="948" 
d="M836 623h-723v200h723v-200z" />
    <glyph glyph-name="guillemotleft.case" horiz-adv-x="1128" 
d="M547 350l-166 -114l-332 483l332 485l166 -117l-254 -368zM1057 350l-166 -114l-330 483l330 485l166 -117l-252 -368z" />
    <glyph glyph-name="guillemotright.case" horiz-adv-x="1128" 
d="M567 719l-329 -483l-166 114l252 369l-252 368l166 117zM1079 719l-331 -483l-166 114l254 369l-254 368l166 117z" />
    <glyph glyph-name="guilsinglleft.case" horiz-adv-x="618" 
d="M547 350l-166 -114l-332 483l332 485l166 -117l-254 -368z" />
    <glyph glyph-name="guilsinglright.case" horiz-adv-x="618" 
d="M567 719l-329 -483l-166 114l252 369l-252 368l166 117z" />
    <glyph glyph-name="uni2219.alt" horiz-adv-x="507" 
d="M391 508h-274v268h274v-268z" />
    <glyph glyph-name="divide.alt" horiz-adv-x="1101" 
d="M686 924h-268v264h268v-264zM1008 543h-914v200h914v-200zM686 100h-268v265h268v-265z" />
    <glyph glyph-name="at.case" horiz-adv-x="1734" 
d="M881 1522q173 0 319 -57.5t246 -158.5t155.5 -240.5t55.5 -301.5q0 -204 -98.5 -325.5t-258.5 -121.5q-115 0 -188 56.5t-94 154.5q-67 -104 -195 -104q-120 0 -204 91t-84 233q0 141 81 231t195 90q115 0 178 -92v78h191v-396q0 -178 116 -178q164 0 164 279
q0 252 -158.5 412.5t-420.5 160.5q-171 0 -308.5 -74t-217 -211t-79.5 -313q0 -174 84.5 -311.5t227 -212t315.5 -74.5q190 0 314 70l67 -176q-71 -36 -173.5 -57t-205.5 -21q-237 0 -425.5 99.5t-295 278.5t-106.5 404q0 228 102.5 407.5t285.5 279.5t415 100zM864 592
q61 0 97 42.5t36 113.5q0 70 -36 112.5t-97 42.5q-65 0 -101 -42.5t-36 -112.5t35.5 -113t101.5 -43z" />
    <glyph glyph-name="uni030C.alt" 
d="M-385 1047h-164l10 454h211z" />
    <glyph glyph-name="uni0308.alt" 
d="M-590 1235h-239v227h239v-227zM-193 1235h-241v227h241v-227z" />
    <glyph glyph-name="uni0307.alt" 
d="M-86 1229h-252v239h252v-239z" />
    <glyph glyph-name="dotaccent.alt" horiz-adv-x="430" 
d="M344 1229h-252v239h252v-239z" />
    <glyph glyph-name="dieresis.alt" horiz-adv-x="724" 
d="M285 1235h-242v227h242v-227zM680 1235h-240v227h240v-227z" />
    <glyph glyph-name="uni0308.case.alt" 
d="M-590 1599h-239v228h239v-228zM-193 1599h-241v228h241v-228z" />
    <glyph glyph-name="uni0307.case.alt" 
d="M-205 1595h-254v240h254v-240z" />
    <glyph glyph-name="uni0308.narrow.alt" 
d="M-522 1235h-234v227h234v-227zM-174 1235h-234v227h234v-227z" />
    <glyph glyph-name="uni0308.case" 
d="M-719 1581q-58 0 -96.5 39t-38.5 96q0 54 38.5 91.5t96.5 37.5t96.5 -37.5t38.5 -91.5q0 -57 -38.5 -96t-96.5 -39zM-322 1581q-57 0 -96 39.5t-39 95.5q0 53 39 91t96 38t96.5 -38t39.5 -91q0 -56 -39.5 -95.5t-96.5 -39.5z" />
    <glyph glyph-name="uni0307.case" 
d="M-346 1577q-61 0 -101 39.5t-40 99.5q0 59 40 97t101 38t101 -38t40 -97q0 -60 -40 -99.5t-101 -39.5z" />
    <glyph glyph-name="gravecomb.case" 
d="M-205 1559h-196l-215 315h249z" />
    <glyph glyph-name="acutecomb.case" 
d="M-406 1559h-196l162 315h250z" />
    <glyph glyph-name="uni030B.case" 
d="M-797 1559h-196l162 315h249zM-403 1559h-195l162 315h248z" />
    <glyph glyph-name="uni0302.case" 
d="M-455 1874l250 -315h-205l-137 180l-139 -180h-205l250 315h186z" />
    <glyph glyph-name="uni030C.case" 
d="M-549 1694l137 180h207l-252 -315h-184l-250 315h205z" />
    <glyph glyph-name="uni0306.case" 
d="M-537 1559q-155 0 -239 83.5t-84 231.5h172q0 -148 151 -148q75 0 114.5 38.5t39.5 109.5h170q0 -148 -84.5 -231.5t-239.5 -83.5z" />
    <glyph glyph-name="uni030A.case" 
d="M-416 1518q-104 0 -170.5 61t-66.5 158q0 96 67 157.5t170 61.5q102 0 168 -61.5t66 -157.5t-66 -157.5t-168 -61.5zM-418 1630q46 0 77.5 30t31.5 77q0 46 -31 76t-78 30q-45 0 -76.5 -30t-31.5 -76q0 -47 31 -77t77 -30z" />
    <glyph glyph-name="tildecomb.case" 
d="M-403 1563q-44 0 -84 18t-64 39t-51 39t-47 18q-60 0 -60 -104h-168q0 128 57 202t152 74q44 0 84.5 -18t65 -40t51.5 -40t47 -18q55 0 55 108h168q0 -130 -56 -204t-150 -74z" />
    <glyph glyph-name="uni0304.case" 
d="M-205 1626h-571v174h571v-174z" />
    <glyph glyph-name="uni0308.narrow" 
d="M-649 1212q-56 0 -93.5 38.5t-37.5 95.5q0 54 38 91.5t93 37.5q57 0 95 -37.5t38 -91.5q0 -57 -38 -95.5t-95 -38.5zM-299 1212q-55 0 -93 39t-38 95q0 54 38 91.5t93 37.5t93 -37.5t38 -91.5q0 -56 -38 -95t-93 -39z" />
    <glyph glyph-name="gravecomb.narrow" 
d="M-205 1174h-194l-197 327h240z" />
    <glyph glyph-name="acutecomb.narrow" 
d="M-403 1174h-195l152 327h239z" />
    <glyph glyph-name="uni0302.narrow" 
d="M-459 1501l187 -327h-181l-96 184l-92 -184h-180l186 327h176z" />
    <glyph glyph-name="uni030C.narrow" 
d="M-557 1317l94 184h180l-188 -327h-176l-184 327h180z" />
    <glyph glyph-name="uni0304.narrow" 
d="M-205 1249h-524v174h524v-174z" />
    </font>
</defs>
</svg>
