<?xml version="1.0" standalone="no"?>
<!DOCTYPE svg PUBLIC "-//W3C//DTD SVG 1.1//EN" "http://www.w3.org/Graphics/SVG/1.1/DTD/svg11.dtd" >
<svg xmlns="http://www.w3.org/2000/svg" xmlns:xlink="http://www.w3.org/1999/xlink" version="1.1">
<metadata>
Created by FontForge 20170731 at Sat Aug 27 13:43:47 2022
 By Aleksey,,,
Copyright (c) 2020 by FontPeople . All rights reserved.
</metadata>
<defs>
<font id="ZabalDEMO-Regular" horiz-adv-x="0" >
  <font-face 
    font-family="Zabal DEMO"
    font-weight="400"
    font-stretch="normal"
    units-per-em="2048"
    panose-1="0 0 5 0 0 0 0 0 0 0"
    ascent="1638"
    descent="-410"
    x-height="1026"
    cap-height="1446"
    bbox="-850 -465 2796 1923"
    underline-thickness="102"
    underline-position="-307"
    unicode-range="U+000D-FB02"
  />
<missing-glyph horiz-adv-x="1024" 
d="M528 442q-143 30 -221 101.5t-78 165.5q0 51 20.5 100t50.5 87.5t59.5 75.5t50 79t20.5 84q0 46 -28 78t-79 48t-90.5 22.5t-93.5 10.5q49 62 163.5 112t268.5 50q54 0 104.5 -12t100.5 -39t80.5 -81t30.5 -128q0 -83 -38 -176t-88 -168.5t-119.5 -191.5t-113.5 -218z
M580 776q13 21 63 100t68.5 111.5t39.5 88t21 98.5q0 62 -27 103.5t-72.5 58t-105 19.5t-123.5 -12q99 -26 149 -58t50 -85q0 -34 -27 -65t-84 -35q-48 -110 -33 -192t81 -132zM449 -10q-83 0 -138 53t-55 135q0 83 54.5 135t138.5 52t138 -52t54 -135q0 -82 -54.5 -135
t-137.5 -53z" />
    <glyph glyph-name="fi" unicode="fi" horiz-adv-x="1193" 
d="M229 1026v127q0 183 80 277t264 94q53 0 103 -8v-123q-41 6 -96 6q-121 0 -168 -56t-47 -206v-111h303v-125h-303v-901h-136v901h-192v125h192zM956 1460q43 0 72 -27.5t29 -68.5q0 -43 -29 -71.5t-72 -28.5t-71.5 28.5t-28.5 71.5q0 41 28.5 68.5t71.5 27.5zM1024 0
h-135v1026h135v-1026z" />
    <glyph glyph-name="fl" unicode="fl" horiz-adv-x="1193" 
d="M229 1026v127q0 183 80 277t264 94q53 0 103 -8v-123q-41 6 -96 6q-121 0 -168 -56t-47 -206v-111h303v-125h-303v-901h-136v901h-192v125h192zM889 0v1501h135v-1501h-135z" />
    <glyph glyph-name=".notdef" horiz-adv-x="1024" 
d="M528 442q-143 30 -221 101.5t-78 165.5q0 51 20.5 100t50.5 87.5t59.5 75.5t50 79t20.5 84q0 46 -28 78t-79 48t-90.5 22.5t-93.5 10.5q49 62 163.5 112t268.5 50q54 0 104.5 -12t100.5 -39t80.5 -81t30.5 -128q0 -83 -38 -176t-88 -168.5t-119.5 -191.5t-113.5 -218z
M580 776q13 21 63 100t68.5 111.5t39.5 88t21 98.5q0 62 -27 103.5t-72.5 58t-105 19.5t-123.5 -12q99 -26 149 -58t50 -85q0 -34 -27 -65t-84 -35q-48 -110 -33 -192t81 -132zM449 -10q-83 0 -138 53t-55 135q0 83 54.5 135t138.5 52t138 -52t54 -135q0 -82 -54.5 -135
t-137.5 -53z" />
    <glyph glyph-name=".null" 
 />
    <glyph glyph-name="nonmarkingreturn" horiz-adv-x="682" 
 />
    <glyph glyph-name="NULL" 
 />
    <glyph glyph-name="NULL" 
 />
    <glyph glyph-name="CR" unicode="&#xd;" horiz-adv-x="681" 
 />
    <glyph glyph-name="space" unicode=" " horiz-adv-x="466" 
 />
    <glyph glyph-name="exclam" unicode="!" horiz-adv-x="471" 
d="M289 389h-107l-30 1057h167zM236 -12q-47 0 -78 29.5t-31 78.5q0 45 31.5 75t77.5 30t77 -30t31 -75q0 -49 -30.5 -78.5t-77.5 -29.5z" />
    <glyph glyph-name="quotedbl" unicode="&#x22;" horiz-adv-x="731" 
d="M250 940h-127v561h127v-561zM608 940h-127v561h127v-561z" />
    <glyph glyph-name="numbersign" unicode="#" horiz-adv-x="1384" 
d="M1343 1049v-117h-301l-92 -426h275v-117h-301l-84 -389h-125l84 389h-361l-84 -389h-125l84 389h-272v117h299l92 426h-274v117h301l86 397h125l-86 -397h360l86 397h125l-86 -397h274zM465 506h360l93 426h-361z" />
    <glyph glyph-name="dollar" unicode="$" horiz-adv-x="1165" 
d="M1077 387q0 -186 -115.5 -293.5t-322.5 -116.5v-161h-104v164q-168 14 -288 96t-169 221l125 63q38 -107 124 -169t208 -74v553q-61 13 -106.5 27t-95.5 35t-85 50t-64.5 67.5t-44 92t-14.5 119.5q0 187 118 295.5t318 111.5v162h105v-170q126 -19 220 -88.5t144 -179.5
l-127 -64q-74 156 -237 195v-537q97 -22 166 -49.5t127.5 -73t88 -114.5t29.5 -162zM274 1065q0 -66 19 -110.5t61 -72.5t87 -43.5t120 -31.5v526q-135 -3 -211 -74t-76 -194zM639 647v-532q142 7 215.5 77.5t73.5 194.5q0 115 -66.5 169.5t-222.5 90.5z" />
    <glyph glyph-name="percent" unicode="%" horiz-adv-x="1996" 
d="M434 573q-163 0 -263.5 119t-100.5 330t99.5 328.5t264.5 117.5q166 0 265.5 -118t99.5 -328q0 -209 -100.5 -329t-264.5 -120zM641 0h-135l850 1446h135zM434 690q106 0 171 90.5t65 241.5q0 152 -64.5 241t-171.5 89q-108 0 -171.5 -88.5t-63.5 -241.5q0 -152 64 -242
t171 -90zM1565 -23q-163 0 -264 119t-101 330t100 328.5t265 117.5q166 0 265 -118t99 -328q0 -209 -100 -329t-264 -120zM1565 94q106 0 170.5 90t64.5 242t-64 241t-171 89q-108 0 -172 -88.5t-64 -241.5q0 -152 64.5 -242t171.5 -90z" />
    <glyph glyph-name="ampersand" unicode="&#x26;" horiz-adv-x="1425" 
d="M1194 782h137q-12 -313 -174 -530l172 -182l-94 -88l-164 174q-195 -179 -463 -179q-211 0 -351 108t-140 290q0 63 20 119.5t51 97.5t80 80.5t94.5 66.5t106.5 58q-88 97 -132 177t-44 171q0 145 104 234t265 89q154 0 254 -89.5t100 -225.5q0 -58 -20 -108.5t-49.5 -87
t-79 -73t-92.5 -60.5t-105 -54l395 -422q123 180 129 434zM430 1139q0 -67 38 -131t120 -152q71 35 114.5 60.5t90 61.5t68.5 78t22 91q0 87 -61 143t-158 56q-102 0 -168 -58.5t-66 -148.5zM616 102q213 0 367 148l-432 461q-53 -26 -92 -48.5t-79 -53.5t-65 -63t-41 -74
t-16 -89q0 -130 102 -205.5t256 -75.5z" />
    <glyph glyph-name="quotesingle" unicode="'" horiz-adv-x="370" 
d="M250 940h-127v561h127v-561z" />
    <glyph glyph-name="parenleft" unicode="(" horiz-adv-x="684" 
d="M657 -193l-63 -108q-227 117 -358.5 350.5t-131.5 534.5t131.5 534t358.5 348l63 -108q-192 -95 -302.5 -301.5t-110.5 -472.5q0 -268 110.5 -475.5t302.5 -301.5z" />
    <glyph glyph-name="parenright" unicode=")" horiz-adv-x="684" 
d="M90 -301l-61 108q192 94 301.5 301t109.5 476q0 267 -109.5 473t-301.5 301l61 108q227 -115 358.5 -348t131.5 -534t-131.5 -534.5t-358.5 -350.5z" />
    <glyph glyph-name="asterisk" unicode="*" horiz-adv-x="892" 
d="M758 1360l61 -107l-301 -141l301 -143l-61 -105l-277 187l27 -326h-123l27 326l-277 -187l-61 107l301 141l-301 141l61 107l277 -186l-27 327h123l-27 -327z" />
    <glyph glyph-name="plus" unicode="+" horiz-adv-x="1103" 
d="M616 702h392v-127h-392v-405h-129v405h-393v127h393v408h129v-408z" />
    <glyph glyph-name="comma" unicode="," horiz-adv-x="471" 
d="M225 -303h-110l71 559h164z" />
    <glyph glyph-name="hyphen" unicode="-" horiz-adv-x="909" 
d="M797 451h-684v127h684v-127z" />
    <glyph glyph-name="period" unicode="." horiz-adv-x="471" 
d="M236 -12q-47 0 -78 29.5t-31 78.5q0 45 31.5 75t77.5 30t77 -30t31 -75q0 -49 -30.5 -78.5t-77.5 -29.5z" />
    <glyph glyph-name="slash" unicode="/" horiz-adv-x="657" 
d="M98 -258h-135l545 1759h133z" />
    <glyph glyph-name="zero" unicode="0" horiz-adv-x="1452" 
d="M727 -23q-272 0 -441 201.5t-169 544.5q0 350 167 547.5t443 197.5q275 0 442.5 -197.5t167.5 -547.5q0 -343 -169 -544.5t-441 -201.5zM727 111q212 0 338.5 163t126.5 449q0 294 -125 453t-340 159t-341 -159t-126 -453q0 -286 127 -449t340 -163z" />
    <glyph glyph-name="one" unicode="1" horiz-adv-x="786" 
d="M604 0h-139v1274l-377 -168l-43 117l520 233h39v-1456z" />
    <glyph glyph-name="two" unicode="2" horiz-adv-x="1191" 
d="M524 330l-217 -201h785v-129h-992v111l271 254q230 217 266 253q169 169 222 288q36 80 36 161q0 120 -83 194t-239 74q-288 0 -376 -215l-115 72q52 127 182.5 201.5t313.5 74.5q221 0 340.5 -109t119.5 -278q0 -68 -14 -129t-48.5 -123t-70 -112t-103 -119.5
t-120 -119.5t-147.5 -138q-7 -7 -11 -10z" />
    <glyph glyph-name="three" unicode="3" horiz-adv-x="1202" 
d="M582 879q241 0 377.5 -115.5t136.5 -323.5q0 -215 -137.5 -339t-374.5 -124q-185 0 -319 75.5t-191 211.5l121 68q45 -108 146 -165.5t237 -57.5q172 0 272 89.5t100 243.5q0 153 -108.5 235.5t-288.5 82.5q-103 0 -174 -31l-68 88l508 500h-653v129h874v-100l-501 -467
h43z" />
    <glyph glyph-name="four" unicode="4" horiz-adv-x="1249" 
d="M965 442h225v-123h-225v-319h-134v319h-743v101l459 1026h155l-452 -1004h581v420h134v-420z" />
    <glyph glyph-name="five" unicode="5" horiz-adv-x="1196" 
d="M592 924q231 0 365.5 -122t134.5 -347q0 -226 -136 -352t-372 -126q-186 0 -320.5 75.5t-191.5 211.5l121 68q44 -108 145 -165.5t240 -57.5q171 0 269.5 91.5t98.5 256.5q0 168 -102 252t-281 84q-101 0 -179 -30.5t-169 -105.5l-74 23l70 766h836v-129h-711l-41 -471
q130 78 297 78z" />
    <glyph glyph-name="six" unicode="6" horiz-adv-x="1300" 
d="M692 971q223 0 362.5 -139t139.5 -357q0 -137 -66.5 -250t-189.5 -180.5t-279 -67.5q-242 0 -389 147t-147 372q0 105 30.5 210t78 194.5t127 192.5t156.5 185.5t187 191.5l140 -55q-216 -220 -288 -303q-114 -131 -187 -254q136 113 325 113zM657 111q175 0 284.5 107
t109.5 261q0 159 -107.5 262t-279.5 103q-177 0 -286.5 -110t-109.5 -265q0 -70 27.5 -134.5t76.5 -114t123.5 -79.5t161.5 -30z" />
    <glyph glyph-name="seven" unicode="7" horiz-adv-x="1107" 
d="M98 1317v129h949v-103l-658 -1343h-156l646 1317h-781z" />
    <glyph glyph-name="eight" unicode="8" horiz-adv-x="1263" 
d="M887 774q133 -48 205.5 -145.5t72.5 -231.5q0 -191 -141.5 -304t-392.5 -113q-249 0 -390 113t-141 304q0 134 72.5 231.5t204.5 145.5q-107 44 -165 127t-58 193q0 169 127 270.5t350 101.5q224 0 351.5 -101t127.5 -271q0 -110 -58.5 -192.5t-164.5 -127.5zM295 1083
q0 -116 89 -182.5t247 -66.5t248 66.5t90 182.5q0 115 -90.5 183.5t-247.5 68.5q-156 0 -246 -68.5t-90 -183.5zM631 111q182 0 285.5 79.5t103.5 215.5q0 137 -104 216.5t-285 79.5t-284 -79.5t-103 -216.5t103 -216t284 -79z" />
    <glyph glyph-name="nine" unicode="9" horiz-adv-x="1300" 
d="M641 1468q242 0 389.5 -146.5t147.5 -371.5q0 -105 -30.5 -210t-78.5 -195t-127.5 -192.5t-156.5 -185.5t-187 -192l-139 56q132 133 192 196t142.5 163.5t138.5 193.5q-135 -109 -324 -109q-223 0 -362.5 139t-139.5 357q0 209 150 353t385 144zM637 602q177 0 286 110
t109 265q0 70 -27.5 134.5t-76.5 114t-123.5 79.5t-161.5 30q-175 0 -284 -107t-109 -261q0 -159 107.5 -262t279.5 -103z" />
    <glyph glyph-name="colon" unicode=":" horiz-adv-x="471" 
d="M236 827q-47 0 -78 30t-31 79q0 45 31.5 74.5t77.5 29.5t77 -29.5t31 -74.5q0 -49 -30.5 -79t-77.5 -30zM236 -12q-47 0 -78 29.5t-31 78.5q0 45 31.5 75t77.5 30t77 -30t31 -75q0 -49 -30.5 -78.5t-77.5 -29.5z" />
    <glyph glyph-name="semicolon" unicode=";" horiz-adv-x="481" 
d="M233 827q-48 0 -78 30t-30 79q0 46 30.5 75t77.5 29q46 0 77.5 -29.5t31.5 -74.5q0 -49 -31 -79t-78 -30zM225 -303h-110l71 559h164z" />
    <glyph glyph-name="less" unicode="&#x3c;" horiz-adv-x="1007" 
d="M66 698l845 383v-139l-673 -303l673 -301v-139l-845 381v118z" />
    <glyph glyph-name="equal" unicode="=" horiz-adv-x="1062" 
d="M967 823h-873v127h873v-127zM967 328h-873v127h873v-127z" />
    <glyph glyph-name="greater" unicode="&#x3e;" horiz-adv-x="1007" 
d="M94 942v139l846 -383v-118l-846 -381v139l676 301z" />
    <glyph glyph-name="question" unicode="?" horiz-adv-x="1019" 
d="M535 389h-121q0 65 20 125t52 107t71 92t78 87.5t71 85t52 92.5t20 103q0 113 -81.5 183.5t-217.5 70.5q-113 0 -197.5 -58t-115.5 -155l-127 49q51 144 171.5 219.5t276.5 75.5q118 0 216 -41.5t160.5 -127.5t62.5 -203q0 -66 -21.5 -126.5t-56 -108.5t-76.5 -93.5
t-83.5 -89t-76 -86.5t-56 -95t-21.5 -106zM485 -12q-47 0 -77.5 29.5t-30.5 78.5q0 45 31 75t77 30t77.5 -30t31.5 -75q0 -49 -31 -78.5t-78 -29.5z" />
    <glyph glyph-name="at" unicode="@" horiz-adv-x="1712" 
d="M1030 719v117h127v-414q0 -189 135 -189q97 0 148 87t51 231q0 268 -173.5 439t-447.5 171q-184 0 -332 -81t-232.5 -228.5t-84.5 -333.5q0 -185 89 -332.5t243 -229t344 -81.5q221 0 375 98l47 -116q-173 -103 -422 -103q-173 0 -322.5 57.5t-255.5 158.5t-166.5 243
t-60.5 305q0 219 99.5 394.5t277.5 274.5t401 99q164 0 304 -55.5t238 -152.5t153 -233.5t55 -293.5q0 -192 -90 -310t-236 -118q-103 0 -170 55.5t-84 155.5q-72 -127 -219 -127q-125 0 -209 92t-84 231q0 138 81.5 229t203.5 91q73 0 129.5 -35t87.5 -96zM846 324
q84 0 135 58t51 148q0 89 -51 147t-135 58q-86 0 -136.5 -58t-50.5 -147q0 -90 50 -148t137 -58z" />
    <glyph glyph-name="A" unicode="A" horiz-adv-x="1318" 
d="M1290 0h-153l-142 377h-673l-140 -377h-153l549 1446h163zM944 512l-285 772l-286 -772h571z" />
    <glyph glyph-name="B" unicode="B" horiz-adv-x="1236" 
d="M821 735q162 -28 240 -115t78 -237q0 -65 -14 -120t-49 -104.5t-88.5 -84t-137 -54.5t-191.5 -20h-477v1446h461q232 0 340.5 -97.5t108.5 -263.5q0 -131 -69.5 -222.5t-201.5 -127.5zM616 1313h-288v-522h266q167 0 258.5 64t91.5 210q0 131 -77 189.5t-251 58.5z
M328 133h307q192 0 273 62.5t81 197.5q0 146 -91 205t-290 59h-280v-524z" />
    <glyph glyph-name="C" unicode="C" horiz-adv-x="1568" 
d="M862 -23q-213 0 -382.5 97t-264 267t-94.5 382q0 211 95 381.5t263 267t375 96.5q210 0 374.5 -99.5t241.5 -270.5l-135 -64q-55 139 -184 219t-297 80q-253 0 -418.5 -173t-165.5 -437q0 -174 74.5 -313t210 -218t307.5 -79q178 0 312 83.5t194 245.5l133 -59
q-78 -197 -248 -301.5t-391 -104.5z" />
    <glyph glyph-name="D" unicode="D" horiz-adv-x="1472" 
d="M635 0h-453v1446h443q174 0 313 -54.5t229 -151.5t137.5 -228.5t47.5 -288.5t-46 -288.5t-134.5 -228.5t-225.5 -151.5t-311 -54.5zM328 1313v-1180h309q142 0 251 44.5t177 124.5t102.5 186t34.5 235t-36 236t-106 186.5t-180.5 123.5t-252.5 44h-299z" />
    <glyph glyph-name="E" unicode="E" horiz-adv-x="1142" 
d="M1042 0h-860v1446h840v-133h-694v-522h604v-134h-604v-524h714v-133z" />
    <glyph glyph-name="F" unicode="F" horiz-adv-x="1069" 
d="M328 0h-146v1446h811v-133h-665v-522h596v-134h-596v-657z" />
    <glyph glyph-name="G" unicode="G" horiz-adv-x="1652" 
d="M850 608v131h715v-26q-2 -339 -186 -537.5t-505 -198.5q-219 0 -391.5 97t-267 267t-94.5 382q0 211 95 381.5t263 267t375 96.5q210 0 374.5 -99.5t241.5 -270.5l-135 -64q-55 139 -184 219t-297 80q-253 0 -418.5 -173t-165.5 -437q0 -175 74 -313.5t212.5 -217.5
t317.5 -79q233 0 373 132t170 363h-567z" />
    <glyph glyph-name="H" unicode="H" horiz-adv-x="1449" 
d="M328 0h-146v1446h146v-655h796v655h144v-1446h-144v657h-796v-657z" />
    <glyph glyph-name="I" unicode="I" horiz-adv-x="534" 
d="M338 0h-143v1446h143v-1446z" />
    <glyph glyph-name="J" unicode="J" horiz-adv-x="1099" 
d="M532 -23q-355 0 -464 312l122 63q43 -121 124.5 -180t209.5 -59q157 0 223 98t66 307v928h143v-926q0 -99 -12 -178.5t-42 -149t-77.5 -116t-121.5 -73t-171 -26.5z" />
    <glyph glyph-name="K" unicode="K" horiz-adv-x="1288" 
d="M504 752l737 -752h-194l-719 731v-731h-146v1446h146v-678l661 678h191z" />
    <glyph glyph-name="L" unicode="L" horiz-adv-x="1093" 
d="M1034 0h-852v1446h146v-1313h706v-133z" />
    <glyph glyph-name="M" unicode="M" horiz-adv-x="1779" 
d="M328 0h-146v1446h150l559 -1032l557 1032h149v-1446h-145v1161l-510 -938h-104l-510 938v-1161z" />
    <glyph glyph-name="N" unicode="N" horiz-adv-x="1466" 
d="M328 0h-146v1446h135l824 -1182v1182h143v-1446h-133l-823 1182v-1182z" />
    <glyph glyph-name="O" unicode="O" horiz-adv-x="1730" 
d="M864 -23q-210 0 -380 96.5t-266.5 267.5t-96.5 382t96.5 381.5t266.5 267t380 96.5q211 0 382 -96.5t267.5 -267t96.5 -381.5q0 -158 -57 -296.5t-155.5 -237t-237 -155.5t-296.5 -57zM864 113q259 0 427.5 173t168.5 437t-168.5 437t-427.5 173q-170 0 -305.5 -78.5
t-212 -218t-76.5 -313.5t76.5 -313.5t212 -218t305.5 -78.5z" />
    <glyph glyph-name="P" unicode="P" horiz-adv-x="1204" 
d="M328 0h-146v1446h475q239 0 348 -111t109 -309q0 -217 -122.5 -329.5t-344.5 -112.5h-319v-584zM328 1313v-596h297q172 0 257 71.5t85 237.5q0 155 -77 221t-259 66h-303z" />
    <glyph glyph-name="Q" unicode="Q" horiz-adv-x="1730" 
d="M1610 723q0 -275 -164 -479l153 -205l-112 -82l-139 188q-201 -168 -484 -168q-210 0 -380 96.5t-266.5 267.5t-96.5 382t96.5 381.5t266.5 267t380 96.5q211 0 382 -96.5t267.5 -267t96.5 -381.5zM270 723q0 -174 76.5 -313.5t212 -218t305.5 -78.5q227 0 387 135
l-305 401l111 82l289 -383q114 162 114 375q0 264 -168.5 437t-427.5 173q-170 0 -305.5 -78.5t-212 -218t-76.5 -313.5z" />
    <glyph glyph-name="R" unicode="R" horiz-adv-x="1280" 
d="M758 631l475 -631h-178l-457 608h-270v-608h-146v1446h455q239 0 348 -108.5t109 -299.5q0 -175 -87 -278.5t-249 -128.5zM610 1313h-282v-572h276q167 0 254.5 68t87.5 229q0 151 -80.5 213t-255.5 62z" />
    <glyph glyph-name="S" unicode="S" horiz-adv-x="1165" 
d="M604 -23q-194 0 -333.5 83t-192.5 237l125 63q42 -122 146.5 -184.5t252.5 -62.5q160 0 243 71t83 203q0 66 -21 111t-70 75.5t-107.5 49.5t-156.5 39q-57 12 -98 22t-91 27.5t-85 37t-70 49.5t-56 66.5t-34.5 86.5t-13.5 110q0 189 120.5 298t323.5 109
q161 0 281.5 -72.5t179.5 -203.5l-127 -64q-46 100 -131 152.5t-201 52.5q-140 0 -218.5 -71t-78.5 -197q0 -30 3.5 -55.5t13 -46t19 -37.5t28 -31.5t32.5 -24.5t41 -20t44.5 -16.5t52.5 -14t55.5 -12t61.5 -12.5q106 -21 181 -48t140 -73t98 -117.5t33 -169.5
q0 -194 -125.5 -302t-347.5 -108z" />
    <glyph glyph-name="T" unicode="T" horiz-adv-x="1189" 
d="M668 0h-144v1313h-461v133h1065v-133h-460v-1313z" />
    <glyph glyph-name="U" unicode="U" horiz-adv-x="1392" 
d="M696 -23q-553 0 -553 607v862h144v-856q0 -240 95.5 -358.5t313.5 -118.5q217 0 312.5 119t95.5 358v856h145v-862q0 -607 -553 -607z" />
    <glyph glyph-name="V" unicode="V" horiz-adv-x="1280" 
d="M641 170l457 1276h153l-530 -1446h-162l-530 1446h153z" />
    <glyph glyph-name="W" unicode="W" horiz-adv-x="1941" 
d="M1425 190l336 1256h152l-404 -1446h-155l-383 1235l-383 -1235h-156l-403 1446h149l336 -1256l381 1256h149z" />
    <glyph glyph-name="X" unicode="X" horiz-adv-x="1255" 
d="M217 0h-172l490 748l-455 698h170l377 -584l379 584h172l-455 -696l487 -750h-170l-413 639z" />
    <glyph glyph-name="Y" unicode="Y" horiz-adv-x="1208" 
d="M676 0h-144v571l-512 875h166l418 -723l418 723h168l-514 -875v-571z" />
    <glyph glyph-name="Z" unicode="Z" horiz-adv-x="1159" 
d="M1063 1335l-791 -1202h838v-133h-1022v111l791 1202h-766v133h950v-111z" />
    <glyph glyph-name="bracketleft" unicode="[" horiz-adv-x="647" 
d="M610 -289h-438v1735h438v-123h-303v-1489h303v-123z" />
    <glyph glyph-name="backslash" unicode="\" horiz-adv-x="657" 
d="M150 1501l544 -1759h-133l-545 1759h134z" />
    <glyph glyph-name="bracketright" unicode="]" horiz-adv-x="647" 
d="M475 -289h-438v123h303v1489h-303v123h438v-1735z" />
    <glyph glyph-name="asciicircum" unicode="^" horiz-adv-x="1087" 
d="M268 795h-145l373 651h94l375 -651h-148l-274 481z" />
    <glyph glyph-name="underscore" unicode="_" horiz-adv-x="907" 
d="M928 -252h-948v127h948v-127z" />
    <glyph glyph-name="grave" unicode="`" horiz-adv-x="667" 
d="M489 1198h-120l-193 303h154z" />
    <glyph glyph-name="a" unicode="a" horiz-adv-x="1269" 
d="M584 -23q-144 0 -256.5 70t-174 191.5t-61.5 273.5q0 233 136.5 384t355.5 151q141 0 244.5 -66t154.5 -178v223h135v-1026h-135v223q-52 -112 -155.5 -179t-243.5 -67zM606 102q164 0 270.5 115.5t106.5 294.5t-106.5 294.5t-270.5 115.5q-168 0 -272.5 -116.5
t-104.5 -293.5q0 -176 104.5 -293t272.5 -117z" />
    <glyph glyph-name="b" unicode="b" horiz-adv-x="1277" 
d="M696 -23q-141 0 -245 67t-156 179v-223h-135v1501h135v-698q51 112 154.5 178t244.5 66q219 0 356.5 -151.5t137.5 -383.5q0 -152 -61.5 -273.5t-174 -191.5t-256.5 -70zM674 102q166 0 270.5 117t104.5 293q0 177 -104 293.5t-271 116.5q-166 0 -272.5 -115.5
t-106.5 -294.5t106.5 -294.5t272.5 -115.5z" />
    <glyph glyph-name="c" unicode="c" horiz-adv-x="1132" 
d="M621 -23q-229 0 -379 152.5t-150 382.5t150 382.5t379 152.5q148 0 263 -67t177 -189l-123 -58q-46 89 -129 139t-188 50q-171 0 -281.5 -117t-110.5 -293q0 -175 111 -292.5t281 -117.5q114 0 199.5 52.5t131.5 150.5l125 -55q-61 -131 -182 -202t-274 -71z" />
    <glyph glyph-name="d" unicode="d" horiz-adv-x="1269" 
d="M584 -23q-144 0 -256.5 70t-174 191.5t-61.5 273.5q0 233 136.5 384t355.5 151q141 0 244.5 -66t154.5 -178v698h135v-1501h-135v223q-52 -112 -155.5 -179t-243.5 -67zM606 102q164 0 270.5 115.5t106.5 294.5t-106.5 294.5t-270.5 115.5q-168 0 -272.5 -116.5
t-104.5 -293.5q0 -176 104.5 -293t272.5 -117z" />
    <glyph glyph-name="e" unicode="e" horiz-adv-x="1202" 
d="M1116 512q0 -9 -1 -27.5t-1 -27.5h-885q18 -159 124.5 -257t279.5 -98q228 0 325 181l125 -56q-63 -121 -180 -185.5t-274 -64.5q-243 0 -390 151t-147 384q0 231 146.5 383t371.5 152q226 0 366 -151t140 -384zM616 922q-154 0 -259.5 -96.5t-125.5 -250.5h750
q-18 157 -115 252t-250 95z" />
    <glyph glyph-name="f" unicode="f" horiz-adv-x="716" 
d="M580 1399q-121 0 -168 -56t-47 -206v-111h303v-125h-303v-901h-136v901h-192v125h192v127q0 183 80 277t264 94q53 0 103 -8v-123q-41 6 -96 6z" />
    <glyph glyph-name="g" unicode="g" horiz-adv-x="1269" 
d="M623 -424q-327 0 -457 250l127 55q49 -90 127 -135t198 -45q177 0 271 96t94 279v162q-52 -107 -155.5 -172.5t-243.5 -65.5q-144 0 -256.5 68.5t-174 187.5t-61.5 268q0 227 136.5 375t355.5 148q140 0 244 -64t155 -174v217h135v-942q0 -236 -131 -372t-364 -136z
M606 125q164 0 270.5 113t106.5 286q0 172 -106.5 285t-270.5 113q-168 0 -272.5 -113.5t-104.5 -284.5q0 -173 104.5 -286t272.5 -113z" />
    <glyph glyph-name="h" unicode="h" horiz-adv-x="1193" 
d="M295 0h-135v1501h135v-684q48 108 144 169t227 61q189 0 290 -111t101 -318v-618h-135v602q0 322 -285 322q-157 0 -249.5 -109.5t-92.5 -290.5v-524z" />
    <glyph glyph-name="i" unicode="i" horiz-adv-x="477" 
d="M240 1264q-43 0 -72 28.5t-29 71.5q0 41 29 68.5t72 27.5t71.5 -27.5t28.5 -68.5q0 -43 -28.5 -71.5t-71.5 -28.5zM307 0h-135v1026h135v-1026z" />
    <glyph glyph-name="j" unicode="j" horiz-adv-x="477" 
d="M240 1264q-43 0 -72 28.5t-29 71.5q0 41 29 68.5t72 27.5t71.5 -27.5t28.5 -68.5q0 -43 -28.5 -71.5t-71.5 -28.5zM12 -424q-63 0 -108 10v123q66 -8 100 -8q89 0 128.5 50t39.5 177v1098h135v-1112q0 -163 -72.5 -250.5t-222.5 -87.5z" />
    <glyph glyph-name="k" unicode="k" horiz-adv-x="1064" 
d="M455 537l573 -537h-180l-553 520v-520h-135v1501h135v-948l510 473h178z" />
    <glyph glyph-name="l" unicode="l" horiz-adv-x="477" 
d="M307 0h-135v1501h135v-1501z" />
    <glyph glyph-name="m" unicode="m" horiz-adv-x="1818" 
d="M1323 1047q176 0 268 -111t92 -318v-618h-135v602q0 158 -63.5 240t-190.5 82q-140 0 -222.5 -105t-82.5 -268v-551h-135v602q0 158 -63.5 240t-190.5 82q-140 0 -222.5 -109.5t-82.5 -290.5v-524h-135v1026h135v-209q44 108 130.5 169t207.5 61q126 0 209.5 -60
t120.5 -174q57 112 148 173t212 61z" />
    <glyph glyph-name="n" unicode="n" horiz-adv-x="1183" 
d="M295 0h-135v1026h135v-209q48 108 142 169t225 61q185 0 285 -111t100 -318v-618h-136v602q0 158 -70 240t-208 82q-157 0 -247.5 -109t-90.5 -291v-524z" />
    <glyph glyph-name="o" unicode="o" horiz-adv-x="1255" 
d="M629 -23q-232 0 -384.5 152.5t-152.5 382.5q0 152 69 274t192 191.5t276 69.5q231 0 383.5 -152.5t152.5 -382.5q0 -229 -152.5 -382t-383.5 -153zM629 102q172 0 284.5 117t112.5 293t-112.5 293t-284.5 117q-174 0 -287 -117t-113 -293t113 -293t287 -117z" />
    <glyph glyph-name="p" unicode="p" horiz-adv-x="1277" 
d="M295 -401h-135v1427h135v-223q51 112 154.5 178t244.5 66q219 0 356.5 -151.5t137.5 -383.5q0 -152 -61.5 -273.5t-174 -191.5t-256.5 -70q-141 0 -245 67t-156 179v-624zM674 102q166 0 270.5 117t104.5 293q0 177 -104 293.5t-271 116.5q-166 0 -272.5 -115.5
t-106.5 -294.5t106.5 -294.5t272.5 -115.5z" />
    <glyph glyph-name="q" unicode="q" horiz-adv-x="1269" 
d="M1118 -401h-135v624q-52 -112 -155.5 -179t-243.5 -67q-144 0 -256.5 70t-174 191.5t-61.5 273.5q0 233 136.5 384t355.5 151q141 0 244.5 -66t154.5 -178v223h135v-1427zM606 102q164 0 270.5 115.5t106.5 294.5t-106.5 294.5t-270.5 115.5q-168 0 -272.5 -116.5
t-104.5 -293.5q0 -176 104.5 -293t272.5 -117z" />
    <glyph glyph-name="r" unicode="r" horiz-adv-x="733" 
d="M295 0h-135v1026h135v-221q48 116 141 179t226 63h36v-140q-36 4 -63 4q-157 0 -248.5 -116t-91.5 -308v-487z" />
    <glyph glyph-name="s" unicode="s" horiz-adv-x="956" 
d="M512 -23q-161 0 -278.5 69.5t-163.5 189.5l125 55q33 -86 115.5 -137.5t203.5 -51.5q236 0 236 181q0 78 -59.5 116.5t-211.5 63.5q-84 14 -143.5 33t-112 50.5t-79.5 81.5t-27 117q0 143 103 222.5t267 79.5q133 0 230.5 -53t144.5 -150l-123 -58q-68 136 -252 136
q-110 0 -171.5 -44t-61.5 -126q0 -73 64 -109t196 -57q94 -15 157 -34.5t114 -53t75.5 -85.5t24.5 -126q0 -151 -97 -230.5t-276 -79.5z" />
    <glyph glyph-name="t" unicode="t" horiz-adv-x="745" 
d="M541 109q79 0 135 18v-125q-56 -18 -154 -18q-67 0 -118.5 17t-83.5 45t-52 70t-27.5 87t-7.5 100v598h-196v125h196v289h136v-289h303v-125h-303v-590q0 -107 37.5 -154.5t134.5 -47.5z" />
    <glyph glyph-name="u" unicode="u" horiz-adv-x="1165" 
d="M520 -23q-187 0 -288 113.5t-101 321.5v614h135v-598q0 -158 71.5 -242t211.5 -84q157 0 244.5 107.5t87.5 290.5v526h135v-1026h-135v209q-104 -232 -361 -232z" />
    <glyph glyph-name="v" unicode="v" horiz-adv-x="1064" 
d="M537 150l346 876h147l-418 -1026h-149l-428 1026h149z" />
    <glyph glyph-name="w" unicode="w" horiz-adv-x="1525" 
d="M1108 178l240 848h143l-309 -1026h-142l-278 840l-279 -840h-139l-309 1026h143l240 -848l274 848h142z" />
    <glyph glyph-name="x" unicode="x" horiz-adv-x="1048" 
d="M203 0h-168l395 530l-379 496h170l299 -405l297 405h168l-373 -494l402 -532h-168l-326 438z" />
    <glyph glyph-name="y" unicode="y" horiz-adv-x="1064" 
d="M539 160l344 866h147l-575 -1427h-150l170 395l-438 1032h149z" />
    <glyph glyph-name="z" unicode="z" horiz-adv-x="978" 
d="M860 932l-579 -809h620v-123h-805v92l582 809h-572v125h754v-94z" />
    <glyph glyph-name="braceleft" unicode="{" horiz-adv-x="720" 
d="M352 1163v-360q0 -91 -41.5 -148.5t-115.5 -79.5q157 -47 157 -225v-356q0 -72 43.5 -116t116.5 -44h172v-123h-201q-124 0 -195 72t-71 197v376q0 74 -43.5 118t-120.5 44h-37v119h37q77 0 120.5 43t43.5 117v381q0 125 71 196.5t195 71.5h201v-123h-172
q-73 0 -116.5 -44t-43.5 -116z" />
    <glyph glyph-name="bar" unicode="|" horiz-adv-x="524" 
d="M328 -401h-131v2048h131v-2048z" />
    <glyph glyph-name="braceright" unicode="}" horiz-adv-x="720" 
d="M668 637h37v-119h-37q-77 0 -120.5 -44t-43.5 -118v-376q0 -125 -71 -197t-195 -72h-201v123h172q73 0 116.5 44t43.5 116v356q0 178 157 225q-74 22 -115.5 79.5t-41.5 148.5v360q0 72 -43.5 116t-116.5 44h-172v123h201q124 0 195 -71.5t71 -196.5v-381
q0 -74 43.5 -117t120.5 -43z" />
    <glyph glyph-name="asciitilde" unicode="~" horiz-adv-x="1198" 
d="M217 498l-90 47q25 112 99 173.5t182 61.5q52 0 108.5 -23.5t97.5 -51t90.5 -51t90.5 -23.5q78 0 119.5 39.5t66.5 111.5l90 -47q-26 -112 -99.5 -173.5t-180.5 -61.5q-52 0 -109 23.5t-97.5 52t-90.5 52t-91 23.5q-76 0 -119 -40t-67 -113z" />
    <glyph glyph-name="uni00A0" unicode="&#xa0;" horiz-adv-x="466" 
 />
    <glyph glyph-name="exclamdown" unicode="&#xa1;" horiz-adv-x="471" 
d="M236 1057q47 0 77.5 -30t30.5 -79q0 -45 -31 -74.5t-77 -29.5t-77.5 29.5t-31.5 74.5q0 49 31 79t78 30zM182 655h107l30 -1056h-167z" />
    <glyph glyph-name="cent" unicode="&#xa2;" horiz-adv-x="1132" 
d="M952 520l125 -55q-60 -131 -181 -200.5t-275 -69.5q-62 0 -134 14l-65 -197h-105l76 230q-138 62 -219.5 192t-81.5 295q0 230 150 382.5t379 152.5q45 0 106 -11l61 185h105l-70 -213q161 -65 238 -219l-123 -58q-53 106 -156 154l-256 -772q57 -11 95 -11
q115 0 200 51.5t131 149.5zM229 729q0 -122 54.5 -217t150.5 -147l254 768q-34 6 -67 6q-171 0 -281.5 -117t-110.5 -293z" />
    <glyph glyph-name="sterling" unicode="&#xa3;" horiz-adv-x="1206" 
d="M418 608v-475h727v-133h-1073v133h200v475h-172v123h172v209q0 248 116 388t321 140q155 0 260.5 -77.5t152.5 -214.5l-110 -70q-39 112 -107.5 169.5t-185.5 57.5q-301 0 -301 -389v-213h489v-123h-489z" />
    <glyph glyph-name="currency" unicode="&#xa4;" horiz-adv-x="1175" 
d="M946 451l146 -146l-86 -84l-144 144q-120 -86 -276 -86q-158 0 -271 83l-145 -143l-86 86l143 144q-88 117 -88 272q0 152 88 274l-143 146l86 86l145 -146q114 84 271 84t274 -84l146 146l84 -86l-144 -146q86 -119 86 -274q0 -154 -86 -270zM268 721
q0 -137 87.5 -229.5t230.5 -92.5q145 0 231 92t86 230q0 139 -86 231t-231 92q-143 0 -230.5 -92.5t-87.5 -230.5z" />
    <glyph glyph-name="yen" unicode="&#xa5;" horiz-adv-x="1208" 
d="M1022 1446h168l-424 -721h262v-111h-328l-24 -43v-170h352v-110h-352v-291h-144v291h-350v110h350v170l-24 43h-326v111h260l-422 721h166l418 -723z" />
    <glyph glyph-name="brokenbar" unicode="&#xa6;" horiz-adv-x="524" 
d="M328 827h-131v820h131v-820zM328 -401h-131v819h131v-819z" />
    <glyph glyph-name="section" unicode="&#xa7;" horiz-adv-x="1093" 
d="M774 360q93 -42 142 -108.5t49 -169.5q0 -156 -106 -249t-294 -93q-166 0 -283.5 69t-164.5 197l125 55q35 -92 115 -144t202 -52q127 0 197.5 58t70.5 155q0 51 -19.5 88t-62.5 62.5t-91 42t-126 34.5q-65 16 -110.5 30.5t-97.5 41t-84 59.5t-53 83.5t-21 113.5
q0 97 46 172.5t134 116.5q-170 87 -170 270q0 147 98 239.5t271 92.5q142 0 246 -61.5t143 -162.5l-119 -55q-79 154 -264 154q-110 0 -174 -56.5t-64 -152.5q0 -35 9 -63.5t29.5 -49.5t42.5 -36t59.5 -28t67.5 -21t79 -19q71 -17 121.5 -34t100.5 -44t80.5 -60.5t49.5 -83
t19 -112.5q0 -205 -193 -279zM295 651q0 -46 13.5 -80t35.5 -57t62.5 -41.5t81.5 -30t106 -26.5q2 0 5 -1t5 -1q115 9 172.5 64.5t57.5 146.5q0 100 -68.5 150t-235.5 85q-7 2 -22.5 5t-22.5 5q-88 -15 -139 -75.5t-51 -143.5z" />
    <glyph glyph-name="dieresis" unicode="&#xa8;" horiz-adv-x="667" 
d="M154 1266q-42 0 -69.5 28t-27.5 70q0 40 28 67t69 27q42 0 70 -27t28 -67q0 -43 -27.5 -70.5t-70.5 -27.5zM514 1266q-41 0 -69.5 28.5t-28.5 69.5q0 40 28.5 67t69.5 27q40 0 68 -27t28 -67q0 -41 -28 -69.5t-68 -28.5z" />
    <glyph glyph-name="copyright" unicode="&#xa9;" horiz-adv-x="1736" 
d="M868 -23q-213 0 -384 96t-267 266.5t-96 383.5q0 160 56.5 298.5t155 236.5t237 154t298.5 56q213 0 383.5 -95.5t266.5 -266t96 -383.5t-96 -383.5t-266.5 -266.5t-383.5 -96zM868 84q182 0 327.5 82t227.5 228t82 329t-82 329t-227.5 228t-327.5 82q-277 0 -457 -180
t-180 -459t180 -459t457 -180zM885 322q-171 0 -283.5 112t-112.5 283q0 170 112 282.5t282 112.5q110 0 198.5 -50.5t132.5 -139.5l-110 -56q-32 60 -89 95.5t-130 35.5q-118 0 -193.5 -79.5t-75.5 -200.5t75.5 -201t193.5 -80q165 0 229 144l111 -58q-43 -98 -133 -149
t-207 -51z" />
    <glyph glyph-name="ordfeminine" unicode="&#xaa;" horiz-adv-x="833" 
d="M389 801q-139 0 -229 94t-90 235q0 140 91 234t228 94q85 0 147 -35.5t93 -87.5v111h112v-633h-112v113q-33 -55 -94.5 -90t-145.5 -35zM412 903q97 0 158 64t61 163q0 98 -61 163t-158 65q-98 0 -158.5 -65t-60.5 -163t60.5 -162.5t158.5 -64.5z" />
    <glyph glyph-name="guillemotleft" unicode="&#xab;" horiz-adv-x="1024" 
d="M483 115l-104 -72l-316 465l316 465l104 -72l-268 -393zM940 115l-104 -72l-316 465l316 465l104 -72l-266 -393z" />
    <glyph glyph-name="logicalnot" unicode="&#xac;" horiz-adv-x="1034" 
d="M938 420h-135v293h-709v127h844v-420z" />
    <glyph glyph-name="uni00AD" unicode="&#xad;" horiz-adv-x="909" 
d="M797 451h-684v127h684v-127z" />
    <glyph glyph-name="registered" unicode="&#xae;" horiz-adv-x="1017" 
d="M510 1468q186 0 304 -118t118 -301q0 -185 -118 -303.5t-304 -118.5q-188 0 -306 118.5t-118 303.5q0 183 118 301t306 118zM510 680q160 0 262 104t102 265q0 158 -102 262t-262 104q-162 0 -265.5 -104t-103.5 -262q0 -160 103.5 -264.5t265.5 -104.5zM678 1141
q0 -98 -90 -121l123 -193h-97l-102 172h-82v-172h-78v447h180q72 0 109 -36t37 -97zM514 1208h-84v-145h82q40 0 63 20t23 56q0 69 -84 69z" />
    <glyph glyph-name="macron" unicode="&#xaf;" horiz-adv-x="667" 
d="M600 1296h-532v113h532v-113z" />
    <glyph glyph-name="degree" unicode="&#xb0;" horiz-adv-x="849" 
d="M426 864q-147 0 -243.5 93.5t-96.5 234.5q0 143 96.5 237.5t243.5 94.5q146 0 242 -94.5t96 -237.5q0 -141 -96 -234.5t-242 -93.5zM426 979q93 0 153 61t60 152q0 93 -60 154t-153 61q-94 0 -154.5 -60.5t-60.5 -152.5q0 -93 60 -154t155 -61z" />
    <glyph glyph-name="plusminus" unicode="&#xb1;" horiz-adv-x="1103" 
d="M616 1255v-407h392v-127h-392v-408h-129v408h-393v127h393v407h129zM1008 0h-914v127h914v-127z" />
    <glyph glyph-name="uni00B2" unicode="&#xb2;" horiz-adv-x="720" 
d="M373 1008l-129 -117h420v-117h-605v90l185 172q153 142 208.5 211.5t55.5 147.5q0 67 -43.5 101t-118.5 34q-143 0 -196 -115l-105 68q32 73 114 118.5t193 45.5q132 0 207.5 -67t75.5 -179q0 -52 -15.5 -98t-54 -96t-79 -91t-113.5 -108z" />
    <glyph glyph-name="uni00B3" unicode="&#xb3;" horiz-adv-x="729" 
d="M621 1534l-240 -234q126 -4 201 -78.5t75 -191.5q0 -130 -84.5 -204t-222.5 -74q-115 0 -196.5 42.5t-118.5 110.5l88 78q26 -52 85.5 -83.5t133.5 -31.5q85 0 136.5 46.5t51.5 125.5q0 81 -51 127.5t-139 46.5q-70 0 -107 -18l-45 61l265 254h-369v113h537v-90z" />
    <glyph glyph-name="acute" unicode="&#xb4;" horiz-adv-x="667" 
d="M297 1198h-121l160 303h153z" />
    <glyph glyph-name="uni00B5" unicode="&#xb5;" horiz-adv-x="1153" 
d="M868 500v526h136v-1026h-136v209q-46 -109 -133.5 -170.5t-212.5 -61.5q-86 0 -156 30t-112 87v-495h-135v1427h135v-598q0 -158 72 -242t213 -84q156 0 242.5 107.5t86.5 290.5z" />
    <glyph glyph-name="paragraph" unicode="&#xb6;" horiz-adv-x="927" 
d="M733 1446v-1847h-135v1067h-41q-215 0 -341 108t-126 293q0 173 124 276t333 103h186z" />
    <glyph glyph-name="periodcentered" unicode="&#xb7;" horiz-adv-x="471" 
d="M236 408q-46 0 -77.5 29.5t-31.5 76.5q0 46 31 75t78 29t77.5 -28.5t30.5 -75.5t-31 -76.5t-77 -29.5z" />
    <glyph glyph-name="cedilla" unicode="&#xb8;" horiz-adv-x="667" 
d="M309 -463q-93 0 -178 29v108q85 -30 172 -30q52 0 80.5 22t28.5 62q0 43 -35 64.5t-115 21.5h-35v196h111v-121q88 -6 143.5 -50.5t55.5 -119.5q0 -86 -59.5 -134t-168.5 -48z" />
    <glyph glyph-name="uni00B9" unicode="&#xb9;" horiz-adv-x="546" 
d="M414 774h-125v705l-219 -90l-39 106l342 139h41v-860z" />
    <glyph glyph-name="ordmasculine" unicode="&#xba;" horiz-adv-x="819" 
d="M412 799q-154 0 -248 92.5t-94 238.5q0 145 94.5 236.5t247.5 91.5q152 0 245 -92t93 -236q0 -147 -92.5 -239t-245.5 -92zM412 909q96 0 155.5 62.5t59.5 158.5q0 95 -59.5 156.5t-155.5 61.5q-97 0 -158 -61.5t-61 -156.5q0 -96 61.5 -158.5t157.5 -62.5z" />
    <glyph glyph-name="guillemotright" unicode="&#xbb;" horiz-adv-x="1024" 
d="M504 508l-316 -465l-104 72l266 393l-266 393l104 72zM961 508l-316 -465l-104 72l268 393l-268 393l104 72z" />
    <glyph glyph-name="onequarter" unicode="&#xbc;" horiz-adv-x="1603" 
d="M414 596h-125v704l-219 -90l-39 107l342 139h41v-860zM248 0l850 1446h135l-850 -1446h-135zM1446 279h117v-105h-117v-174h-115v174h-448v98l258 578h131l-252 -571h311v264h115v-264z" />
    <glyph glyph-name="onehalf" unicode="&#xbd;" horiz-adv-x="1654" 
d="M414 596h-125v704l-219 -90l-39 107l342 139h41v-860zM248 0l850 1446h135l-850 -1446h-135zM1307 233l-129 -116h419v-117h-604v90l185 172q153 142 208.5 211.5t55.5 147.5q0 67 -43.5 101t-118.5 34q-144 0 -197 -115l-104 68q32 73 114 118t193 45q132 0 207.5 -66.5
t75.5 -178.5q0 -52 -15.5 -98.5t-54 -96t-79 -91t-113.5 -108.5z" />
    <glyph glyph-name="threequarters" unicode="&#xbe;" horiz-adv-x="1744" 
d="M657 852q0 -130 -85 -204.5t-222 -74.5q-115 0 -196.5 43t-118.5 111l88 78q26 -52 85.5 -83.5t133.5 -31.5q85 0 136.5 46.5t51.5 125.5q0 81 -51 127.5t-139 46.5q-70 0 -107 -18l-45 61l265 254h-369v113h537v-90l-240 -234q126 -4 201 -78.5t75 -191.5zM389 0
l850 1446h135l-850 -1446h-135zM1587 279h117v-105h-117v-174h-114v174h-449v98l258 578h131l-252 -571h312v264h114v-264z" />
    <glyph glyph-name="questiondown" unicode="&#xbf;" horiz-adv-x="927" 
d="M530 1055q46 0 76.5 -30t30.5 -77t-30.5 -75.5t-76.5 -28.5q-48 0 -78 28.5t-30 75.5t30.5 77t77.5 30zM487 653h121q0 -65 -20 -125t-52.5 -107t-71.5 -92t-78 -87.5t-71.5 -85t-52.5 -92.5t-20 -103q0 -113 81.5 -183.5t217.5 -70.5q113 0 198 58t117 155l127 -49
q-52 -144 -173 -219.5t-275 -75.5q-118 0 -216.5 41.5t-161.5 128.5t-63 203q0 66 21.5 126.5t56.5 108.5t76.5 93.5t83.5 88.5t77 86t56.5 95t21.5 106z" />
    <glyph glyph-name="Agrave" unicode="&#xc0;" horiz-adv-x="1318" 
d="M557 1851l164 -278h-125l-199 278h160zM1290 0h-153l-142 377h-673l-140 -377h-153l549 1446h163zM944 512l-285 772l-286 -772h571z" />
    <glyph glyph-name="Aacute" unicode="&#xc1;" horiz-adv-x="1318" 
d="M762 1851h160l-199 -278h-125zM1290 0h-153l-142 377h-673l-140 -377h-153l549 1446h163zM944 512l-285 772l-286 -772h571z" />
    <glyph glyph-name="Acircumflex" unicode="&#xc2;" horiz-adv-x="1318" 
d="M823 1573l-164 188l-163 -188h-136l242 278h113l241 -278h-133zM1290 0h-153l-142 377h-673l-140 -377h-153l549 1446h163zM944 512l-285 772l-286 -772h571z" />
    <glyph glyph-name="Atilde" unicode="&#xc3;" horiz-adv-x="1318" 
d="M539 1710q-36 0 -56 -32.5t-20 -90.5h-109q0 107 47 170.5t127 63.5q43 0 82.5 -21t64 -45.5t55 -45.5t56.5 -21q70 0 70 127h113q0 -109 -47 -171.5t-129 -62.5q-42 0 -81 20t-63 44.5t-54 44.5t-56 20zM1290 0h-153l-142 377h-673l-140 -377h-153l549 1446h163z
M944 512l-285 772l-286 -772h571z" />
    <glyph glyph-name="Adieresis" unicode="&#xc4;" horiz-adv-x="1318" 
d="M479 1614q-41 0 -68.5 27.5t-27.5 68.5t27.5 67.5t68.5 26.5t68.5 -26.5t27.5 -67.5t-27.5 -68.5t-68.5 -27.5zM840 1614q-42 0 -70.5 27.5t-28.5 68.5q0 40 29 67t70 27q40 0 68 -27t28 -67q0 -41 -28 -68.5t-68 -27.5zM1290 0h-153l-142 377h-673l-140 -377h-153
l549 1446h163zM944 512l-285 772l-286 -772h571z" />
    <glyph glyph-name="Aring" unicode="&#xc5;" horiz-adv-x="1318" 
d="M662 1526q-93 0 -153 55.5t-60 142.5t61 143t152 56q92 0 151 -55.5t59 -143.5t-59 -143t-151 -55zM662 1843q-52 0 -87.5 -33t-35.5 -86t35 -85.5t88 -32.5q52 0 86 32.5t34 85.5q0 52 -33.5 85.5t-86.5 33.5zM1290 0h-153l-142 377h-673l-140 -377h-153l549 1446h163z
M944 512l-285 772l-286 -772h571z" />
    <glyph glyph-name="AE" unicode="&#xc6;" horiz-adv-x="1912" 
d="M1098 657v-524h714v-133h-858v360h-553l-204 -360h-162l825 1446h932v-133h-694v-522h604v-134h-604zM936 1313l-457 -817h475v817h-18z" />
    <glyph glyph-name="Ccedilla" unicode="&#xc7;" horiz-adv-x="1568" 
d="M1368 442l133 -59q-75 -188 -234 -292.5t-366 -113.5v-88q87 -6 142 -50.5t55 -119.5q0 -86 -59.5 -134t-168.5 -48q-89 0 -178 29v108q86 -30 174 -30q51 0 79 22t28 62q0 43 -34.5 64.5t-113.5 21.5h-34v166q-195 17 -348 117t-237.5 263.5t-84.5 362.5q0 211 95 381.5
t263 267t375 96.5q210 0 374.5 -99.5t241.5 -270.5l-135 -64q-55 139 -184 219t-297 80q-253 0 -418.5 -173t-165.5 -437q0 -174 74.5 -313t210 -218t307.5 -79q178 0 312 83.5t194 245.5z" />
    <glyph glyph-name="Egrave" unicode="&#xc8;" horiz-adv-x="1142" 
d="M666 1573h-125l-199 278h160zM1042 0h-860v1446h840v-133h-694v-522h604v-134h-604v-524h714v-133z" />
    <glyph glyph-name="Eacute" unicode="&#xc9;" horiz-adv-x="1142" 
d="M668 1573h-125l164 278h159zM1042 0h-860v1446h840v-133h-694v-522h604v-134h-604v-524h714v-133z" />
    <glyph glyph-name="Ecircumflex" unicode="&#xca;" horiz-adv-x="1142" 
d="M768 1573l-164 188l-164 -188h-135l242 278h112l242 -278h-133zM328 657v-524h714v-133h-860v1446h840v-133h-694v-522h604v-134h-604z" />
    <glyph glyph-name="Edieresis" unicode="&#xcb;" horiz-adv-x="1142" 
d="M424 1614q-41 0 -68.5 27.5t-27.5 68.5t27.5 67.5t68.5 26.5t68.5 -26.5t27.5 -67.5t-27.5 -68.5t-68.5 -27.5zM784 1614q-41 0 -69.5 27.5t-28.5 68.5q0 40 28.5 67t69.5 27q40 0 68.5 -27.5t28.5 -66.5q0 -41 -28.5 -68.5t-68.5 -27.5zM1042 0h-860v1446h840v-133h-694
v-522h604v-134h-604v-524h714v-133z" />
    <glyph glyph-name="Igrave" unicode="&#xcc;" horiz-adv-x="534" 
d="M330 1573h-125l-199 278h160zM338 0h-143v1446h143v-1446z" />
    <glyph glyph-name="Iacute" unicode="&#xcd;" horiz-adv-x="534" 
d="M332 1573h-125l164 278h159zM338 0h-143v1446h143v-1446z" />
    <glyph glyph-name="Icircumflex" unicode="&#xce;" horiz-adv-x="534" 
d="M211 1851h113l241 -278h-133l-164 188l-164 -188h-135zM338 0h-143v1446h143v-1446z" />
    <glyph glyph-name="Idieresis" unicode="&#xcf;" horiz-adv-x="534" 
d="M88 1614q-41 0 -68.5 27.5t-27.5 68.5t27.5 67.5t68.5 26.5t68.5 -26.5t27.5 -67.5t-27.5 -68.5t-68.5 -27.5zM449 1614q-42 0 -70.5 27.5t-28.5 68.5q0 40 29 67t70 27q40 0 68 -27t28 -67q0 -41 -28 -68.5t-68 -27.5zM338 0h-143v1446h143v-1446z" />
    <glyph glyph-name="Eth" unicode="&#xd0;" horiz-adv-x="1513" 
d="M223 1446h443q174 0 313 -54.5t229 -151.5t137.5 -228.5t47.5 -288.5t-46 -288.5t-134.5 -228.5t-225.5 -151.5t-311 -54.5h-453v659h-225v123h225v664zM369 133h309q142 0 251 44.5t177 124.5t102.5 186t34.5 235t-36 236t-106 186.5t-180.5 123.5t-252.5 44h-299v-531
h448v-123h-448v-526z" />
    <glyph glyph-name="Ntilde" unicode="&#xd1;" horiz-adv-x="1466" 
d="M862 1581q-42 0 -81 20t-63 44.5t-54 44.5t-56 20q-36 0 -56 -32.5t-20 -90.5h-108q0 107 47 170.5t127 63.5q43 0 82.5 -21t64 -45.5t55 -45.5t56.5 -21q70 0 70 127h112q0 -109 -47 -171.5t-129 -62.5zM328 0h-146v1446h135l824 -1182v1182h143v-1446h-133l-823 1182
v-1182z" />
    <glyph glyph-name="Ograve" unicode="&#xd2;" horiz-adv-x="1730" 
d="M928 1573h-125l-199 278h160zM864 -23q-210 0 -380 96.5t-266.5 267.5t-96.5 382t96.5 381.5t266.5 267t380 96.5q211 0 382 -96.5t267.5 -267t96.5 -381.5q0 -158 -57 -296.5t-155.5 -237t-237 -155.5t-296.5 -57zM864 113q259 0 427.5 173t168.5 437t-168.5 437
t-427.5 173q-170 0 -305.5 -78.5t-212 -218t-76.5 -313.5t76.5 -313.5t212 -218t305.5 -78.5z" />
    <glyph glyph-name="Oacute" unicode="&#xd3;" horiz-adv-x="1730" 
d="M930 1573h-125l164 278h159zM864 -23q-210 0 -380 96.5t-266.5 267.5t-96.5 382t96.5 381.5t266.5 267t380 96.5q211 0 382 -96.5t267.5 -267t96.5 -381.5q0 -158 -57 -296.5t-155.5 -237t-237 -155.5t-296.5 -57zM864 113q259 0 427.5 173t168.5 437t-168.5 437
t-427.5 173q-170 0 -305.5 -78.5t-212 -218t-76.5 -313.5t76.5 -313.5t212 -218t305.5 -78.5z" />
    <glyph glyph-name="Ocircumflex" unicode="&#xd4;" horiz-adv-x="1730" 
d="M1030 1573l-164 188l-164 -188h-135l242 278h113l241 -278h-133zM864 1468q211 0 382 -96.5t267.5 -267t96.5 -381.5q0 -158 -57 -296.5t-155.5 -237t-237 -155.5t-296.5 -57q-210 0 -380 96.5t-266.5 267.5t-96.5 382t96.5 381.5t266.5 267t380 96.5zM864 113
q259 0 427.5 173t168.5 437t-168.5 437t-427.5 173q-170 0 -305.5 -78.5t-212 -218t-76.5 -313.5t76.5 -313.5t212 -218t305.5 -78.5z" />
    <glyph glyph-name="Otilde" unicode="&#xd5;" horiz-adv-x="1730" 
d="M997 1581q-42 0 -81 20t-63 44.5t-54 44.5t-56 20q-36 0 -55.5 -32.5t-19.5 -90.5h-109q0 107 47 170.5t127 63.5q43 0 82.5 -21t64 -45.5t55 -45.5t56.5 -21q70 0 70 127h113q0 -109 -47.5 -171.5t-129.5 -62.5zM864 -23q-210 0 -380 96.5t-266.5 267.5t-96.5 382
t96.5 381.5t266.5 267t380 96.5q211 0 382 -96.5t267.5 -267t96.5 -381.5q0 -158 -57 -296.5t-155.5 -237t-237 -155.5t-296.5 -57zM864 113q259 0 427.5 173t168.5 437t-168.5 437t-427.5 173q-170 0 -305.5 -78.5t-212 -218t-76.5 -313.5t76.5 -313.5t212 -218
t305.5 -78.5z" />
    <glyph glyph-name="Odieresis" unicode="&#xd6;" horiz-adv-x="1730" 
d="M686 1614q-41 0 -68.5 27.5t-27.5 68.5t27.5 67.5t68.5 26.5t68.5 -26.5t27.5 -67.5t-27.5 -68.5t-68.5 -27.5zM1047 1614q-42 0 -70.5 27.5t-28.5 68.5q0 40 29 67t70 27q40 0 68 -27t28 -67q0 -41 -28 -68.5t-68 -27.5zM864 -23q-210 0 -380 96.5t-266.5 267.5
t-96.5 382t96.5 381.5t266.5 267t380 96.5q211 0 382 -96.5t267.5 -267t96.5 -381.5q0 -158 -57 -296.5t-155.5 -237t-237 -155.5t-296.5 -57zM864 113q259 0 427.5 173t168.5 437t-168.5 437t-427.5 173q-170 0 -305.5 -78.5t-212 -218t-76.5 -313.5t76.5 -313.5t212 -218
t305.5 -78.5z" />
    <glyph glyph-name="multiply" unicode="&#xd7;" horiz-adv-x="1079" 
d="M895 1085l90 -90l-354 -354l354 -356l-90 -90l-354 356l-357 -356l-90 90l357 356l-357 354l90 90l357 -354z" />
    <glyph glyph-name="Oslash" unicode="&#xd8;" horiz-adv-x="1730" 
d="M1458 1475l-115 -170q126 -101 196.5 -252t70.5 -330q0 -158 -57 -296.5t-155.5 -237t-237 -155.5t-296.5 -57q-197 0 -360 86l-84 -122h-148l129 190q-132 101 -206 254.5t-74 337.5q0 211 96.5 381.5t266.5 267t380 96.5q203 0 377 -94l68 101h149zM270 723
q0 -147 55 -269.5t154 -205.5l684 1012q-134 73 -299 73q-170 0 -305.5 -78.5t-212 -218t-76.5 -313.5zM864 113q259 0 427.5 173t168.5 437q0 141 -51.5 261t-144.5 204l-682 -1008q128 -67 282 -67z" />
    <glyph glyph-name="Ugrave" unicode="&#xd9;" horiz-adv-x="1392" 
d="M758 1573h-125l-199 278h160zM696 -23q-553 0 -553 607v862h144v-856q0 -240 95.5 -358.5t313.5 -118.5q217 0 312.5 119t95.5 358v856h145v-862q0 -607 -553 -607z" />
    <glyph glyph-name="Uacute" unicode="&#xda;" horiz-adv-x="1392" 
d="M760 1573h-125l164 278h159zM696 -23q-553 0 -553 607v862h144v-856q0 -240 95.5 -358.5t313.5 -118.5q217 0 312.5 119t95.5 358v856h145v-862q0 -607 -553 -607z" />
    <glyph glyph-name="Ucircumflex" unicode="&#xdb;" horiz-adv-x="1392" 
d="M860 1573l-164 188l-164 -188h-135l242 278h113l241 -278h-133zM1104 590v856h145v-862q0 -607 -553 -607t-553 607v862h144v-856q0 -240 95.5 -358.5t313.5 -118.5q217 0 312.5 119t95.5 358z" />
    <glyph glyph-name="Udieresis" unicode="&#xdc;" horiz-adv-x="1392" 
d="M516 1614q-41 0 -68.5 27.5t-27.5 68.5t27.5 67.5t68.5 26.5t68.5 -26.5t27.5 -67.5t-27.5 -68.5t-68.5 -27.5zM877 1614q-42 0 -70.5 27.5t-28.5 68.5q0 40 29 67t70 27q40 0 68 -27t28 -67q0 -41 -28 -68.5t-68 -27.5zM696 -23q-553 0 -553 607v862h144v-856
q0 -240 95.5 -358.5t313.5 -118.5q217 0 312.5 119t95.5 358v856h145v-862q0 -607 -553 -607z" />
    <glyph glyph-name="Yacute" unicode="&#xdd;" horiz-adv-x="1208" 
d="M668 1573h-125l164 278h159zM676 0h-144v571l-512 875h166l418 -723l418 723h168l-514 -875v-571z" />
    <glyph glyph-name="Thorn" unicode="&#xde;" horiz-adv-x="1204" 
d="M328 0h-146v1446h146v-268h329q457 0 457 -422q0 -215 -123 -328t-344 -113h-319v-315zM328 1042v-593h297q173 0 257.5 70.5t84.5 236.5q0 155 -77 220.5t-259 65.5h-303z" />
    <glyph glyph-name="germandbls" unicode="&#xdf;" horiz-adv-x="1200" 
d="M745 475q189 0 298.5 -116t109.5 -320q0 -217 -130 -337t-345 -120q-131 0 -213 33l37 121q68 -29 178 -29q155 0 244.5 91t89.5 251q0 151 -81.5 233.5t-225.5 82.5q-56 0 -127 -23l-56 57l369 502h-528v-901h-136v901h-192v125h192v127q0 183 80 277t264 94
q53 0 103 -8v-123q-41 6 -96 6q-121 0 -168 -56t-47 -206v-111h694v-102l-342 -449h28z" />
    <glyph glyph-name="agrave" unicode="&#xe0;" horiz-adv-x="1269" 
d="M674 1198h-123l-193 303h156zM584 -23q-144 0 -256.5 70t-174 191.5t-61.5 273.5q0 233 136.5 384t355.5 151q141 0 244.5 -66t154.5 -178v223h135v-1026h-135v223q-52 -112 -155.5 -179t-243.5 -67zM606 102q164 0 270.5 115.5t106.5 294.5t-106.5 294.5t-270.5 115.5
q-168 0 -272.5 -116.5t-104.5 -293.5q0 -176 104.5 -293t272.5 -117z" />
    <glyph glyph-name="aacute" unicode="&#xe1;" horiz-adv-x="1269" 
d="M676 1198h-123l160 303h153zM584 -23q-144 0 -256.5 70t-174 191.5t-61.5 273.5q0 233 136.5 384t355.5 151q141 0 244.5 -66t154.5 -178v223h135v-1026h-135v223q-52 -112 -155.5 -179t-243.5 -67zM606 102q164 0 270.5 115.5t106.5 294.5t-106.5 294.5t-270.5 115.5
q-168 0 -272.5 -116.5t-104.5 -293.5q0 -176 104.5 -293t272.5 -117z" />
    <glyph glyph-name="acircumflex" unicode="&#xe2;" horiz-adv-x="1269" 
d="M786 1198l-174 209l-174 -209h-133l252 303h113l250 -303h-134zM983 803v223h135v-1026h-135v223q-52 -112 -155.5 -179t-243.5 -67q-144 0 -256.5 70t-174 191.5t-61.5 273.5q0 233 136.5 384t355.5 151q141 0 244.5 -66t154.5 -178zM606 102q164 0 270.5 115.5
t106.5 294.5t-106.5 294.5t-270.5 115.5q-168 0 -272.5 -116.5t-104.5 -293.5q0 -176 104.5 -293t272.5 -117z" />
    <glyph glyph-name="atilde" unicode="&#xe3;" horiz-adv-x="1269" 
d="M748 1212q-35 0 -66.5 13.5t-55 33t-45 38.5t-44.5 32.5t-45 13.5q-35 0 -54.5 -33t-19.5 -91h-111q0 108 48 171.5t128 63.5q43 0 82.5 -21t63.5 -45.5t54.5 -45.5t57.5 -21q70 0 70 125h111q0 -107 -47 -170.5t-127 -63.5zM584 -23q-144 0 -256.5 70t-174 191.5
t-61.5 273.5q0 233 136.5 384t355.5 151q141 0 244.5 -66t154.5 -178v223h135v-1026h-135v223q-52 -112 -155.5 -179t-243.5 -67zM606 102q164 0 270.5 115.5t106.5 294.5t-106.5 294.5t-270.5 115.5q-168 0 -272.5 -116.5t-104.5 -293.5q0 -176 104.5 -293t272.5 -117z" />
    <glyph glyph-name="adieresis" unicode="&#xe4;" horiz-adv-x="1269" 
d="M434 1266q-41 0 -68.5 27.5t-27.5 70.5q0 40 27.5 67t68.5 27t68.5 -27t27.5 -67q0 -43 -27.5 -70.5t-68.5 -27.5zM795 1266q-41 0 -70 28.5t-29 69.5q0 40 29 67t70 27q40 0 68 -27t28 -67q0 -41 -28 -69.5t-68 -28.5zM584 -23q-144 0 -256.5 70t-174 191.5t-61.5 273.5
q0 233 136.5 384t355.5 151q141 0 244.5 -66t154.5 -178v223h135v-1026h-135v223q-52 -112 -155.5 -179t-243.5 -67zM606 102q164 0 270.5 115.5t106.5 294.5t-106.5 294.5t-270.5 115.5q-168 0 -272.5 -116.5t-104.5 -293.5q0 -176 104.5 -293t272.5 -117z" />
    <glyph glyph-name="aring" unicode="&#xe5;" horiz-adv-x="1269" 
d="M614 1186q-94 0 -153.5 55t-59.5 143q0 87 60 143t153 56q91 0 150 -56t59 -143t-59 -142.5t-150 -55.5zM612 1266q53 0 87 32.5t34 85.5q0 52 -34 85.5t-87 33.5q-51 0 -85.5 -33.5t-34.5 -85.5q0 -53 34 -85.5t86 -32.5zM584 -23q-144 0 -256.5 70t-174 191.5
t-61.5 273.5q0 233 136.5 384t355.5 151q141 0 244.5 -66t154.5 -178v223h135v-1026h-135v223q-52 -112 -155.5 -179t-243.5 -67zM606 102q164 0 270.5 115.5t106.5 294.5t-106.5 294.5t-270.5 115.5q-168 0 -272.5 -116.5t-104.5 -293.5q0 -176 104.5 -293t272.5 -117z" />
    <glyph glyph-name="ae" unicode="&#xe6;" horiz-adv-x="1898" 
d="M1810 512q0 -37 -2 -55h-876q15 -160 120 -257.5t279 -97.5q227 0 324 181l125 -56q-63 -121 -180.5 -185.5t-270.5 -64.5q-151 0 -264 60.5t-178 167.5q-51 -108 -153.5 -168t-250.5 -60q-184 0 -299.5 92t-115.5 255q0 154 99 246t269 92q110 0 215.5 -36.5
t153.5 -95.5v105q0 144 -84 215.5t-211 71.5q-197 0 -285 -134l-125 58q58 94 164 147.5t248 53.5q126 0 230 -55t153 -163q66 102 173.5 160t242.5 58q223 0 361 -151t138 -384zM1315 922q-156 0 -258 -96t-123 -251h743q-18 157 -114.5 252t-247.5 95zM477 102
q143 0 231 75t97 212q-35 65 -124 109.5t-210 44.5q-75 0 -129 -17.5t-83 -48.5t-41.5 -67t-12.5 -80q0 -110 73 -169t199 -59z" />
    <glyph glyph-name="ccedilla" unicode="&#xe7;" horiz-adv-x="1132" 
d="M952 305l125 -55q-56 -122 -165.5 -191.5t-249.5 -78.5v-91q87 -6 141.5 -50.5t54.5 -119.5q0 -86 -59 -134t-168 -48q-89 0 -178 29v108q85 -30 174 -30q51 0 78.5 22t27.5 62q0 43 -34 64.5t-113 21.5h-35v168q-203 25 -331 172.5t-128 357.5q0 230 150 382.5
t379 152.5q148 0 263 -67t177 -189l-123 -58q-46 89 -129 139t-188 50q-171 0 -281.5 -117t-110.5 -293q0 -175 111 -292.5t281 -117.5q114 0 199.5 52.5t131.5 150.5z" />
    <glyph glyph-name="egrave" unicode="&#xe8;" horiz-adv-x="1202" 
d="M512 1501l160 -303h-123l-193 303h156zM1116 512q0 -9 -1 -27.5t-1 -27.5h-885q18 -159 124.5 -257t279.5 -98q228 0 325 181l125 -56q-63 -121 -180 -185.5t-274 -64.5q-243 0 -390 151t-147 384q0 231 146.5 383t371.5 152q226 0 366 -151t140 -384zM616 922
q-154 0 -259.5 -96.5t-125.5 -250.5h750q-18 157 -115 252t-250 95z" />
    <glyph glyph-name="eacute" unicode="&#xe9;" horiz-adv-x="1202" 
d="M711 1501h153l-190 -303h-123zM1116 512q0 -9 -1 -27.5t-1 -27.5h-885q18 -159 124.5 -257t279.5 -98q228 0 325 181l125 -56q-63 -121 -180 -185.5t-274 -64.5q-243 0 -390 151t-147 384q0 231 146.5 383t371.5 152q226 0 366 -151t140 -384zM616 922
q-154 0 -259.5 -96.5t-125.5 -250.5h750q-18 157 -115 252t-250 95z" />
    <glyph glyph-name="ecircumflex" unicode="&#xea;" horiz-adv-x="1202" 
d="M782 1198l-174 209l-174 -209h-133l252 303h113l249 -303h-133zM1116 512q0 -9 -1 -27.5t-1 -27.5h-885q18 -159 124.5 -257t279.5 -98q228 0 325 181l125 -56q-63 -121 -180 -185.5t-274 -64.5q-243 0 -390 151t-147 384q0 231 146.5 383t371.5 152q226 0 366 -151
t140 -384zM616 922q-154 0 -259.5 -96.5t-125.5 -250.5h750q-18 157 -115 252t-250 95z" />
    <glyph glyph-name="edieresis" unicode="&#xeb;" horiz-adv-x="1202" 
d="M430 1266q-41 0 -68.5 27.5t-27.5 70.5q0 40 27.5 67t68.5 27t68.5 -27t27.5 -67q0 -43 -27.5 -70.5t-68.5 -27.5zM791 1266q-41 0 -70 28.5t-29 69.5q0 40 29 67t70 27q40 0 68 -27t28 -67q0 -41 -28 -69.5t-68 -28.5zM1116 512q0 -9 -1 -27.5t-1 -27.5h-885
q18 -159 124.5 -257t279.5 -98q228 0 325 181l125 -56q-63 -121 -180 -185.5t-274 -64.5q-243 0 -390 151t-147 384q0 231 146.5 383t371.5 152q226 0 366 -151t140 -384zM616 922q-154 0 -259.5 -96.5t-125.5 -250.5h750q-18 157 -115 252t-250 95z" />
    <glyph glyph-name="igrave" unicode="&#xec;" horiz-adv-x="477" 
d="M307 1198h-123l-182 303h150zM307 0h-135v1026h135v-1026z" />
    <glyph glyph-name="iacute" unicode="&#xed;" horiz-adv-x="477" 
d="M293 1198h-123l156 303h149zM307 0h-135v1026h135v-1026z" />
    <glyph glyph-name="icircumflex" unicode="&#xee;" horiz-adv-x="477" 
d="M186 1501h109l184 -303h-117l-122 207l-123 -207h-117zM307 0h-135v1026h135v-1026z" />
    <glyph glyph-name="idieresis" unicode="&#xef;" horiz-adv-x="477" 
d="M76 1266q-43 0 -71 27.5t-28 70.5q0 40 28 67t71 27q41 0 68.5 -27t27.5 -67q0 -43 -27.5 -70.5t-68.5 -27.5zM401 1266q-41 0 -69.5 28.5t-28.5 69.5q0 40 28.5 67t69.5 27q40 0 68.5 -27.5t28.5 -66.5q0 -41 -28.5 -69.5t-68.5 -28.5zM307 0h-135v1026h135v-1026z" />
    <glyph glyph-name="eth" unicode="&#xf0;" horiz-adv-x="1253" 
d="M1051 1421l-242 -118q352 -345 352 -738q0 -275 -147 -431.5t-383 -156.5q-233 0 -386 152t-153 379q0 147 67.5 267.5t185 188.5t261.5 68q238 0 377 -180q-69 186 -293 393l-270 -133l-49 107l225 108q-71 59 -178 137l86 88q101 -71 213 -166l282 138zM629 102
q172 0 284.5 117t112.5 293q0 175 -112 287t-285 112t-286.5 -115.5t-113.5 -287.5q0 -173 113.5 -289.5t286.5 -116.5z" />
    <glyph glyph-name="ntilde" unicode="&#xf1;" horiz-adv-x="1183" 
d="M737 1212q-35 0 -66.5 13.5t-55 33t-45 38.5t-44.5 32.5t-45 13.5q-35 0 -54 -33t-19 -91h-111q0 108 48 171.5t128 63.5q43 0 82.5 -21t63.5 -45.5t54.5 -45.5t57.5 -21q70 0 70 125h110q0 -107 -47 -170.5t-127 -63.5zM295 0h-135v1026h135v-209q48 108 142 169t225 61
q185 0 285 -111t100 -318v-618h-136v602q0 158 -70 240t-208 82q-157 0 -247.5 -109t-90.5 -291v-524z" />
    <glyph glyph-name="ograve" unicode="&#xf2;" horiz-adv-x="1255" 
d="M688 1198h-123l-192 303h155zM629 -23q-232 0 -384.5 152.5t-152.5 382.5q0 152 69 274t192 191.5t276 69.5q231 0 383.5 -152.5t152.5 -382.5q0 -229 -152.5 -382t-383.5 -153zM629 102q172 0 284.5 117t112.5 293t-112.5 293t-284.5 117q-174 0 -287 -117t-113 -293
t113 -293t287 -117z" />
    <glyph glyph-name="oacute" unicode="&#xf3;" horiz-adv-x="1255" 
d="M690 1198h-123l160 303h154zM629 -23q-232 0 -384.5 152.5t-152.5 382.5q0 152 69 274t192 191.5t276 69.5q231 0 383.5 -152.5t152.5 -382.5q0 -229 -152.5 -382t-383.5 -153zM629 102q172 0 284.5 117t112.5 293t-112.5 293t-284.5 117q-174 0 -287 -117t-113 -293
t113 -293t287 -117z" />
    <glyph glyph-name="ocircumflex" unicode="&#xf4;" horiz-adv-x="1255" 
d="M801 1198l-174 209l-174 -209h-134l252 303h113l250 -303h-133zM629 1047q231 0 383.5 -152.5t152.5 -382.5q0 -229 -152.5 -382t-383.5 -153q-232 0 -384.5 152.5t-152.5 382.5q0 152 69 274t192 191.5t276 69.5zM629 102q172 0 284.5 117t112.5 293t-112.5 293
t-284.5 117q-174 0 -287 -117t-113 -293t113 -293t287 -117z" />
    <glyph glyph-name="otilde" unicode="&#xf5;" horiz-adv-x="1255" 
d="M762 1212q-35 0 -66.5 13.5t-55 33t-45 38.5t-44.5 32.5t-45 13.5q-35 0 -54.5 -33t-19.5 -91h-110q0 108 48 171.5t128 63.5q43 0 82.5 -21t63.5 -45.5t54.5 -45.5t57.5 -21q69 0 69 125h111q0 -107 -47 -170.5t-127 -63.5zM629 -23q-232 0 -384.5 152.5t-152.5 382.5
q0 152 69 274t192 191.5t276 69.5q231 0 383.5 -152.5t152.5 -382.5q0 -229 -152.5 -382t-383.5 -153zM629 102q172 0 284.5 117t112.5 293t-112.5 293t-284.5 117q-174 0 -287 -117t-113 -293t113 -293t287 -117z" />
    <glyph glyph-name="odieresis" unicode="&#xf6;" horiz-adv-x="1255" 
d="M449 1266q-41 0 -69 28t-28 70q0 40 28 67t69 27t68.5 -27t27.5 -67q0 -43 -27.5 -70.5t-68.5 -27.5zM809 1266q-41 0 -69.5 28.5t-28.5 69.5q0 40 28.5 67t69.5 27q40 0 68 -27t28 -67q0 -41 -28 -69.5t-68 -28.5zM629 -23q-232 0 -384.5 152.5t-152.5 382.5
q0 152 69 274t192 191.5t276 69.5q231 0 383.5 -152.5t152.5 -382.5q0 -229 -152.5 -382t-383.5 -153zM629 102q172 0 284.5 117t112.5 293t-112.5 293t-284.5 117q-174 0 -287 -117t-113 -293t113 -293t287 -117z" />
    <glyph glyph-name="divide" unicode="&#xf7;" horiz-adv-x="1062" 
d="M530 918q-46 0 -77 29.5t-31 76.5t30.5 75.5t77.5 28.5q48 0 78.5 -28.5t30.5 -75.5t-30.5 -76.5t-78.5 -29.5zM967 575h-873v127h873v-127zM530 152q-46 0 -77 29.5t-31 76.5t30.5 75.5t77.5 28.5q48 0 78.5 -28.5t30.5 -75.5t-30.5 -76.5t-78.5 -29.5z" />
    <glyph glyph-name="oslash" unicode="&#xf8;" horiz-adv-x="1255" 
d="M1108 1094l-121 -174q85 -73 131.5 -178.5t46.5 -229.5q0 -229 -152.5 -382t-383.5 -153q-136 0 -252 58l-78 -111h-139l121 174q-89 73 -139 180.5t-50 233.5q0 152 69 274t192 191.5t276 69.5q142 0 264 -64l76 111h139zM229 512q0 -188 127 -305l463 670
q-85 45 -190 45q-174 0 -287 -117t-113 -293zM629 102q172 0 284.5 117t112.5 293q0 177 -115 295l-462 -666q83 -39 180 -39z" />
    <glyph glyph-name="ugrave" unicode="&#xf9;" horiz-adv-x="1165" 
d="M635 1198h-123l-193 303h156zM520 -23q-187 0 -288 113.5t-101 321.5v614h135v-598q0 -158 71.5 -242t211.5 -84q157 0 244.5 107.5t87.5 290.5v526h135v-1026h-135v209q-104 -232 -361 -232z" />
    <glyph glyph-name="uacute" unicode="&#xfa;" horiz-adv-x="1165" 
d="M637 1198h-123l160 303h153zM520 -23q-187 0 -288 113.5t-101 321.5v614h135v-598q0 -158 71.5 -242t211.5 -84q157 0 244.5 107.5t87.5 290.5v526h135v-1026h-135v209q-104 -232 -361 -232z" />
    <glyph glyph-name="ucircumflex" unicode="&#xfb;" horiz-adv-x="1165" 
d="M748 1198l-175 209l-174 -209h-133l252 303h113l250 -303h-133zM881 500v526h135v-1026h-135v209q-104 -232 -361 -232q-187 0 -288 113.5t-101 321.5v614h135v-598q0 -158 71.5 -242t211.5 -84q157 0 244.5 107.5t87.5 290.5z" />
    <glyph glyph-name="udieresis" unicode="&#xfc;" horiz-adv-x="1165" 
d="M395 1266q-41 0 -68.5 27.5t-27.5 70.5q0 40 27.5 67t68.5 27t69 -27t28 -67q0 -42 -28 -70t-69 -28zM756 1266q-41 0 -70 28.5t-29 69.5q0 40 29 67t70 27q40 0 68 -27t28 -67q0 -41 -28 -69.5t-68 -28.5zM520 -23q-187 0 -288 113.5t-101 321.5v614h135v-598
q0 -158 71.5 -242t211.5 -84q157 0 244.5 107.5t87.5 290.5v526h135v-1026h-135v209q-104 -232 -361 -232z" />
    <glyph glyph-name="yacute" unicode="&#xfd;" horiz-adv-x="1064" 
d="M635 1501h153l-190 -303h-123zM539 160l344 866h147l-575 -1427h-150l170 395l-438 1032h149z" />
    <glyph glyph-name="thorn" unicode="&#xfe;" horiz-adv-x="1277" 
d="M295 -401h-135v1902h135v-698q51 112 154.5 178t244.5 66q219 0 356.5 -151.5t137.5 -383.5q0 -152 -61.5 -273.5t-174 -191.5t-256.5 -70q-141 0 -245 67t-156 179v-624zM674 102q166 0 270.5 117t104.5 293q0 177 -104 293.5t-271 116.5q-166 0 -272.5 -115.5
t-106.5 -294.5t106.5 -294.5t272.5 -115.5z" />
    <glyph glyph-name="ydieresis" unicode="&#xff;" horiz-adv-x="1064" 
d="M354 1266q-41 0 -68.5 27.5t-27.5 70.5q0 40 27.5 67t68.5 27t69 -27t28 -67q0 -42 -27.5 -70t-69.5 -28zM715 1266q-41 0 -70 28.5t-29 69.5q0 40 29 67t70 27q40 0 68 -27t28 -67q0 -41 -28 -69.5t-68 -28.5zM539 160l344 866h147l-575 -1427h-150l170 395l-438 1032
h149z" />
    <glyph glyph-name="Amacron" unicode="&#x100;" horiz-adv-x="1318" 
d="M393 1763h531v-110h-531v110zM1290 0h-153l-142 377h-673l-140 -377h-153l549 1446h163zM944 512l-285 772l-286 -772h571z" />
    <glyph glyph-name="amacron" unicode="&#x101;" horiz-adv-x="1269" 
d="M879 1296h-531v113h531v-113zM584 -23q-144 0 -256.5 70t-174 191.5t-61.5 273.5q0 233 136.5 384t355.5 151q141 0 244.5 -66t154.5 -178v223h135v-1026h-135v223q-52 -112 -155.5 -179t-243.5 -67zM606 102q164 0 270.5 115.5t106.5 294.5t-106.5 294.5t-270.5 115.5
q-168 0 -272.5 -116.5t-104.5 -293.5q0 -176 104.5 -293t272.5 -117z" />
    <glyph glyph-name="Abreve" unicode="&#x102;" horiz-adv-x="1318" 
d="M655 1573q-135 0 -209.5 73t-74.5 205h110q0 -170 174 -170q176 0 176 170h111q0 -132 -76 -205t-211 -73zM1290 0h-153l-142 377h-673l-140 -377h-153l549 1446h163zM944 512l-285 772l-286 -772h571z" />
    <glyph glyph-name="abreve" unicode="&#x103;" horiz-adv-x="1269" 
d="M612 1192q-134 0 -209 72t-75 196h110q0 -76 45 -118t129 -42q85 0 130.5 42t45.5 118h111q0 -124 -76.5 -196t-210.5 -72zM584 -23q-144 0 -256.5 70t-174 191.5t-61.5 273.5q0 233 136.5 384t355.5 151q141 0 244.5 -66t154.5 -178v223h135v-1026h-135v223
q-52 -112 -155.5 -179t-243.5 -67zM606 102q164 0 270.5 115.5t106.5 294.5t-106.5 294.5t-270.5 115.5q-168 0 -272.5 -116.5t-104.5 -293.5q0 -176 104.5 -293t272.5 -117z" />
    <glyph glyph-name="Aogonek" unicode="&#x104;" horiz-adv-x="1318" 
d="M1081 -242q0 -55 32.5 -84.5t86.5 -29.5q40 0 90 20v-102q-54 -23 -114 -23q-99 0 -157 51t-58 138q0 161 178 272h-2l-142 377h-673l-140 -377h-153l549 1446h163l549 -1446q-209 -99 -209 -242zM944 512l-285 772l-286 -772h571z" />
    <glyph glyph-name="aogonek" unicode="&#x105;" horiz-adv-x="1269" 
d="M1118 1026v-1026q-209 -99 -209 -242q0 -55 32.5 -84.5t86.5 -29.5q40 0 90 20v-102q-54 -23 -114 -23q-99 0 -157.5 51.5t-58.5 137.5q0 89 54 160.5t141 121.5v213q-52 -112 -155.5 -179t-243.5 -67q-144 0 -256.5 70t-174 191.5t-61.5 273.5q0 233 136.5 384
t355.5 151q141 0 244.5 -66t154.5 -178v223h135zM606 102q164 0 270.5 115.5t106.5 294.5t-106.5 294.5t-270.5 115.5q-168 0 -272.5 -116.5t-104.5 -293.5q0 -176 104.5 -293t272.5 -117z" />
    <glyph glyph-name="Cacute" unicode="&#x106;" horiz-adv-x="1568" 
d="M918 1573h-125l163 278h160zM862 -23q-213 0 -382.5 97t-264 267t-94.5 382q0 211 95 381.5t263 267t375 96.5q210 0 374.5 -99.5t241.5 -270.5l-135 -64q-55 139 -184 219t-297 80q-253 0 -418.5 -173t-165.5 -437q0 -174 74.5 -313t210 -218t307.5 -79q178 0 312 83.5
t194 245.5l133 -59q-78 -197 -248 -301.5t-391 -104.5z" />
    <glyph glyph-name="cacute" unicode="&#x107;" horiz-adv-x="1132" 
d="M684 1198h-123l160 303h153zM621 -23q-229 0 -379 152.5t-150 382.5t150 382.5t379 152.5q148 0 263 -67t177 -189l-123 -58q-46 89 -129 139t-188 50q-171 0 -281.5 -117t-110.5 -293q0 -175 111 -292.5t281 -117.5q114 0 199.5 52.5t131.5 150.5l125 -55
q-61 -131 -182 -202t-274 -71z" />
    <glyph glyph-name="Ccaron" unicode="&#x10c;" horiz-adv-x="1568" 
d="M1151 1851l-242 -278h-112l-242 278h133l166 -190l164 190h133zM1368 442l133 -59q-78 -197 -248 -301.5t-391 -104.5q-213 0 -382.5 97t-264 267t-94.5 382q0 211 95 381.5t263 267t375 96.5q210 0 374.5 -99.5t241.5 -270.5l-135 -64q-55 139 -184 219t-297 80
q-253 0 -418.5 -173t-165.5 -437q0 -174 74.5 -313t210 -218t307.5 -79q178 0 312 83.5t194 245.5z" />
    <glyph glyph-name="ccaron" unicode="&#x10d;" horiz-adv-x="1132" 
d="M928 1501l-250 -303h-113l-252 303h136l174 -209l172 209h133zM952 305l125 -55q-61 -131 -182 -202t-274 -71q-229 0 -379 152.5t-150 382.5t150 382.5t379 152.5q148 0 263 -67t177 -189l-123 -58q-46 89 -129 139t-188 50q-171 0 -281.5 -117t-110.5 -293
q0 -175 111 -292.5t281 -117.5q114 0 199.5 52.5t131.5 150.5z" />
    <glyph glyph-name="Dcaron" unicode="&#x10e;" horiz-adv-x="1472" 
d="M922 1851l-242 -278h-113l-241 278h133l166 -190l163 190h134zM182 1446h443q174 0 313 -54.5t229 -151.5t137.5 -228.5t47.5 -288.5t-46 -288.5t-134.5 -228.5t-225.5 -151.5t-311 -54.5h-453v1446zM328 133h309q142 0 251 44.5t177 124.5t102.5 186t34.5 235t-36 236
t-106 186.5t-180.5 123.5t-252.5 44h-299v-1180z" />
    <glyph glyph-name="dcaron" unicode="&#x10f;" horiz-adv-x="1472" 
d="M584 -23q-144 0 -256.5 70t-174 191.5t-61.5 273.5q0 233 136.5 384t355.5 151q141 0 244.5 -66t154.5 -178v698h135v-1501h-135v223q-52 -112 -155.5 -179t-243.5 -67zM1417 1087h-102l10 414h135zM606 102q164 0 270.5 115.5t106.5 294.5t-106.5 294.5t-270.5 115.5
q-168 0 -272.5 -116.5t-104.5 -293.5q0 -176 104.5 -293t272.5 -117z" />
    <glyph glyph-name="Dcroat" unicode="&#x110;" horiz-adv-x="1533" 
d="M244 1446h442q174 0 313 -54.5t229 -151.5t137.5 -228.5t47.5 -288.5t-46 -288.5t-134.5 -228.5t-225.5 -151.5t-311 -54.5h-452v659h-226v123h226v664zM389 133h309q142 0 251.5 44.5t177.5 124.5t102.5 186t34.5 235t-36 236t-106 186.5t-181 123.5t-253 44h-299v-531
h449v-123h-449v-526z" />
    <glyph glyph-name="dcroat" unicode="&#x111;" horiz-adv-x="1269" 
d="M1118 1311h193v-115h-193v-1196h-135v223q-52 -112 -155.5 -179t-243.5 -67q-144 0 -256.5 70t-174 191.5t-61.5 273.5q0 233 136.5 384t355.5 151q141 0 244.5 -66t154.5 -178v393h-455v115h455v190h135v-190zM606 102q164 0 270.5 115.5t106.5 294.5t-106.5 294.5
t-270.5 115.5q-168 0 -272.5 -116.5t-104.5 -293.5q0 -176 104.5 -293t272.5 -117z" />
    <glyph glyph-name="Emacron" unicode="&#x112;" horiz-adv-x="1142" 
d="M868 1653h-530v110h530v-110zM1042 0h-860v1446h840v-133h-694v-522h604v-134h-604v-524h714v-133z" />
    <glyph glyph-name="emacron" unicode="&#x113;" horiz-adv-x="1202" 
d="M346 1409h531v-113h-531v113zM1116 512q0 -9 -1 -27.5t-1 -27.5h-885q18 -159 124.5 -257t279.5 -98q228 0 325 181l125 -56q-63 -121 -180 -185.5t-274 -64.5q-243 0 -390 151t-147 384q0 231 146.5 383t371.5 152q226 0 366 -151t140 -384zM616 922
q-154 0 -259.5 -96.5t-125.5 -250.5h750q-18 157 -115 252t-250 95z" />
    <glyph glyph-name="Edotaccent" unicode="&#x116;" horiz-adv-x="1142" 
d="M604 1610q-43 0 -71.5 28.5t-28.5 71.5t28.5 70.5t71.5 27.5t72 -28t29 -70q0 -43 -29 -71.5t-72 -28.5zM1042 0h-860v1446h840v-133h-694v-522h604v-134h-604v-524h714v-133z" />
    <glyph glyph-name="edotaccent" unicode="&#x117;" horiz-adv-x="1202" 
d="M610 1264q-43 0 -71.5 28.5t-28.5 71.5q0 41 28.5 68.5t71.5 27.5t72 -27.5t29 -68.5q0 -43 -29 -71.5t-72 -28.5zM1116 512q0 -9 -1 -27.5t-1 -27.5h-885q18 -159 124.5 -257t279.5 -98q228 0 325 181l125 -56q-63 -121 -180 -185.5t-274 -64.5q-243 0 -390 151
t-147 384q0 231 146.5 383t371.5 152q226 0 366 -151t140 -384zM616 922q-154 0 -259.5 -96.5t-125.5 -250.5h750q-18 157 -115 252t-250 95z" />
    <glyph glyph-name="Eogonek" unicode="&#x118;" horiz-adv-x="1142" 
d="M1042 133v-133q-208 -98 -208 -242q0 -56 32 -85t86 -29q40 0 90 20v-102q-54 -23 -114 -23q-99 0 -157 51t-58 138q0 161 178 272h-709v1446h840v-133h-694v-522h604v-134h-604v-524h714z" />
    <glyph glyph-name="eogonek" unicode="&#x119;" horiz-adv-x="1202" 
d="M1116 512q0 -9 -1 -27.5t-1 -27.5h-885q18 -159 124.5 -257t279.5 -98q228 0 325 181l125 -56q-89 -173 -286 -227q-28 -14 -49 -26t-53 -36t-53 -48t-36.5 -59t-15.5 -73q0 -55 32.5 -84.5t86.5 -29.5q40 0 90 20v-102q-54 -23 -115 -23q-99 0 -157 51t-58 138
q0 144 145 249q-158 3 -277.5 74t-182 190.5t-62.5 270.5q0 231 146.5 383t371.5 152q226 0 366 -151t140 -384zM616 922q-154 0 -259.5 -96.5t-125.5 -250.5h750q-18 157 -115 252t-250 95z" />
    <glyph glyph-name="Ecaron" unicode="&#x11a;" horiz-adv-x="1142" 
d="M901 1851l-242 -278h-112l-242 278h133l166 -190l164 190h133zM328 657v-524h714v-133h-860v1446h840v-133h-694v-522h604v-134h-604z" />
    <glyph glyph-name="ecaron" unicode="&#x11b;" horiz-adv-x="1202" 
d="M918 1501l-250 -303h-113l-252 303h135l174 -209l172 209h134zM1116 512q0 -9 -1 -27.5t-1 -27.5h-885q18 -159 124.5 -257t279.5 -98q228 0 325 181l125 -56q-63 -121 -180 -185.5t-274 -64.5q-243 0 -390 151t-147 384q0 231 146.5 383t371.5 152q226 0 366 -151
t140 -384zM616 922q-154 0 -259.5 -96.5t-125.5 -250.5h750q-18 157 -115 252t-250 95z" />
    <glyph glyph-name="Gbreve" unicode="&#x11e;" horiz-adv-x="1652" 
d="M850 1573q-135 0 -210 73t-75 205h111q0 -170 174 -170q176 0 176 170h111q0 -132 -76 -205t-211 -73zM850 608v131h715v-26q-2 -339 -186 -537.5t-505 -198.5q-219 0 -391.5 97t-267 267t-94.5 382q0 211 95 381.5t263 267t375 96.5q210 0 374.5 -99.5t241.5 -270.5
l-135 -64q-55 139 -184 219t-297 80q-253 0 -418.5 -173t-165.5 -437q0 -175 74 -313.5t212.5 -217.5t317.5 -79q233 0 373 132t170 363h-567z" />
    <glyph glyph-name="gbreve" unicode="&#x11f;" horiz-adv-x="1269" 
d="M612 1192q-134 0 -209 72t-75 196h110q0 -76 45 -118t129 -42q85 0 130.5 42t45.5 118h111q0 -124 -76.5 -196t-210.5 -72zM623 -424q-327 0 -457 250l127 55q49 -90 127 -135t198 -45q177 0 271 96t94 279v162q-52 -107 -155.5 -172.5t-243.5 -65.5q-144 0 -256.5 68.5
t-174 187.5t-61.5 268q0 227 136.5 375t355.5 148q140 0 244 -64t155 -174v217h135v-942q0 -236 -131 -372t-364 -136zM606 125q164 0 270.5 113t106.5 286q0 172 -106.5 285t-270.5 113q-168 0 -272.5 -113.5t-104.5 -284.5q0 -173 104.5 -286t272.5 -113z" />
    <glyph glyph-name="uni0122" unicode="&#x122;" horiz-adv-x="1652" 
d="M850 608v131h715v-26q-2 -339 -186 -537.5t-505 -198.5q-219 0 -391.5 97t-267 267t-94.5 382q0 211 95 381.5t263 267t375 96.5q210 0 374.5 -99.5t241.5 -270.5l-135 -64q-55 139 -184 219t-297 80q-253 0 -418.5 -173t-165.5 -437q0 -175 74 -313.5t212.5 -217.5
t317.5 -79q233 0 373 132t170 363h-567zM891 -465h-109l27 336h133z" />
    <glyph glyph-name="uni0123" unicode="&#x123;" horiz-adv-x="1269" 
d="M596 1534h109l-25 -336h-133zM623 -424q-327 0 -457 250l127 55q49 -90 127 -135t198 -45q177 0 271 96t94 279v162q-52 -107 -155.5 -172.5t-243.5 -65.5q-144 0 -256.5 68.5t-174 187.5t-61.5 268q0 227 136.5 375t355.5 148q140 0 244 -64t155 -174v217h135v-942
q0 -236 -131 -372t-364 -136zM606 125q164 0 270.5 113t106.5 286q0 172 -106.5 285t-270.5 113q-168 0 -272.5 -113.5t-104.5 -284.5q0 -173 104.5 -286t272.5 -113z" />
    <glyph glyph-name="Imacron" unicode="&#x12a;" horiz-adv-x="534" 
d="M524 1653h-514v110h514v-110zM338 0h-143v1446h143v-1446z" />
    <glyph glyph-name="imacron" unicode="&#x12b;" horiz-adv-x="477" 
d="M477 1296h-477v113h477v-113zM307 0h-135v1026h135v-1026z" />
    <glyph glyph-name="Iogonek" unicode="&#x12e;" horiz-adv-x="534" 
d="M131 -242q0 -55 32.5 -84.5t86.5 -29.5q40 0 90 20v-102q-54 -23 -115 -23q-99 0 -157 51t-58 138q0 163 185 276v1442h143v-1446h2q-209 -99 -209 -242z" />
    <glyph glyph-name="iogonek" unicode="&#x12f;" horiz-adv-x="477" 
d="M240 1460q43 0 71.5 -27.5t28.5 -68.5q0 -43 -28.5 -71.5t-71.5 -28.5t-72 28.5t-29 71.5q0 41 29 68.5t72 27.5zM172 10v1016h135v-1026q-209 -99 -209 -242q0 -55 32.5 -84.5t86.5 -29.5q40 0 90 20v-102q-54 -23 -114 -23q-99 0 -157.5 51.5t-58.5 137.5
q0 89 54 160.5t141 121.5z" />
    <glyph glyph-name="Idotaccent" unicode="&#x130;" horiz-adv-x="534" 
d="M266 1610q-43 0 -71.5 28.5t-28.5 71.5t28.5 70.5t71.5 27.5t72 -28t29 -70q0 -43 -29 -71.5t-72 -28.5zM338 0h-143v1446h143v-1446z" />
    <glyph glyph-name="dotlessi" unicode="&#x131;" horiz-adv-x="477" 
d="M307 0h-135v1026h135v-1026z" />
    <glyph glyph-name="uni0136" unicode="&#x136;" horiz-adv-x="1288" 
d="M1180 1446l-676 -694l737 -752h-194l-719 731v-731h-146v1446h146v-678l661 678h191zM702 -465h-108l27 336h133z" />
    <glyph glyph-name="uni0137" unicode="&#x137;" horiz-adv-x="1064" 
d="M983 1026l-528 -489l573 -537h-180l-553 520v-520h-135v1501h135v-948l510 473h178zM567 -465h-108l26 336h133z" />
    <glyph glyph-name="Lacute" unicode="&#x139;" horiz-adv-x="1093" 
d="M319 1573h-124l163 278h160zM1034 0h-852v1446h146v-1313h706v-133z" />
    <glyph glyph-name="lacute" unicode="&#x13a;" horiz-adv-x="477" 
d="M303 1628h-125l164 279h160zM307 0h-135v1501h135v-1501z" />
    <glyph glyph-name="uni013B" unicode="&#x13b;" horiz-adv-x="1093" 
d="M1034 0h-852v1446h146v-1313h706v-133zM625 -465h-109l27 336h133z" />
    <glyph glyph-name="uni013C" unicode="&#x13c;" horiz-adv-x="477" 
d="M307 0h-135v1501h135v-1501zM254 -465h-109l27 336h133z" />
    <glyph glyph-name="Lcaron" unicode="&#x13d;" horiz-adv-x="1093" 
d="M846 1087h-103l9 414h135zM1034 0h-852v1446h146v-1313h706v-133z" />
    <glyph glyph-name="lcaron" unicode="&#x13e;" horiz-adv-x="659" 
d="M307 0h-135v1501h135v-1501zM604 1087h-102l10 414h135z" />
    <glyph glyph-name="Ldot" unicode="&#x13f;" horiz-adv-x="1093" 
d="M1034 0h-852v1446h146v-1313h706v-133zM803 645q-47 0 -78 30t-31 79q0 45 31.5 74.5t77.5 29.5t77 -29.5t31 -74.5q0 -49 -30.5 -79t-77.5 -30z" />
    <glyph glyph-name="ldot" unicode="&#x140;" horiz-adv-x="694" 
d="M307 0h-135v1501h135v-1501zM586 645q-47 0 -78 30t-31 79q0 45 31.5 74.5t77.5 29.5t77 -29.5t31 -74.5q0 -49 -30.5 -79t-77.5 -30z" />
    <glyph glyph-name="Lslash" unicode="&#x141;" horiz-adv-x="1136" 
d="M369 641v-508h706v-133h-850v575l-178 -98v141l178 99v729h144v-664l428 240v-141z" />
    <glyph glyph-name="lslash" unicode="&#x142;" horiz-adv-x="532" 
d="M348 858l189 137v-139l-189 -137v-719h-135v635l-190 -137v139l190 137v727h135v-643z" />
    <glyph glyph-name="Nacute" unicode="&#x143;" horiz-adv-x="1466" 
d="M793 1573h-125l163 278h160zM328 0h-146v1446h135l824 -1182v1182h143v-1446h-133l-823 1182v-1182z" />
    <glyph glyph-name="nacute" unicode="&#x144;" horiz-adv-x="1183" 
d="M666 1198h-123l159 303h154zM295 0h-135v1026h135v-209q48 108 142 169t225 61q185 0 285 -111t100 -318v-618h-136v602q0 158 -70 240t-208 82q-157 0 -247.5 -109t-90.5 -291v-524z" />
    <glyph glyph-name="uni0145" unicode="&#x145;" horiz-adv-x="1466" 
d="M328 0h-146v1446h135l824 -1182v1182h143v-1446h-133l-823 1182v-1182zM756 -465h-109l27 336h133z" />
    <glyph glyph-name="uni0146" unicode="&#x146;" horiz-adv-x="1183" 
d="M295 0h-135v1026h135v-209q48 108 142 169t225 61q185 0 285 -111t100 -318v-618h-136v602q0 158 -70 240t-208 82q-157 0 -247.5 -109t-90.5 -291v-524zM618 -465h-108l27 336h133z" />
    <glyph glyph-name="Ncaron" unicode="&#x147;" horiz-adv-x="1466" 
d="M1026 1851l-242 -278h-112l-242 278h133l166 -190l164 190h133zM1141 264v1182h143v-1446h-133l-823 1182v-1182h-146v1446h135z" />
    <glyph glyph-name="ncaron" unicode="&#x148;" horiz-adv-x="1183" 
d="M911 1501l-249 -303h-113l-252 303h135l174 -209l172 209h133zM662 1047q185 0 285 -111t100 -318v-618h-136v602q0 158 -70 240t-208 82q-157 0 -247.5 -109t-90.5 -291v-524h-135v1026h135v-209q48 108 142 169t225 61z" />
    <glyph glyph-name="Omacron" unicode="&#x14c;" horiz-adv-x="1730" 
d="M1130 1653h-530v110h530v-110zM864 -23q-210 0 -380 96.5t-266.5 267.5t-96.5 382t96.5 381.5t266.5 267t380 96.5q211 0 382 -96.5t267.5 -267t96.5 -381.5q0 -158 -57 -296.5t-155.5 -237t-237 -155.5t-296.5 -57zM864 113q259 0 427.5 173t168.5 437t-168.5 437
t-427.5 173q-170 0 -305.5 -78.5t-212 -218t-76.5 -313.5t76.5 -313.5t212 -218t305.5 -78.5z" />
    <glyph glyph-name="omacron" unicode="&#x14d;" horiz-adv-x="1255" 
d="M893 1296h-531v113h531v-113zM629 -23q-232 0 -384.5 152.5t-152.5 382.5q0 152 69 274t192 191.5t276 69.5q231 0 383.5 -152.5t152.5 -382.5q0 -229 -152.5 -382t-383.5 -153zM629 102q172 0 284.5 117t112.5 293t-112.5 293t-284.5 117q-174 0 -287 -117t-113 -293
t113 -293t287 -117z" />
    <glyph glyph-name="Ohungarumlaut" unicode="&#x150;" horiz-adv-x="1730" 
d="M758 1573h-125l164 278h159zM1096 1573h-123l164 278h159zM864 -23q-210 0 -380 96.5t-266.5 267.5t-96.5 382t96.5 381.5t266.5 267t380 96.5q211 0 382 -96.5t267.5 -267t96.5 -381.5q0 -158 -57 -296.5t-155.5 -237t-237 -155.5t-296.5 -57zM864 113q259 0 427.5 173
t168.5 437t-168.5 437t-427.5 173q-170 0 -305.5 -78.5t-212 -218t-76.5 -313.5t76.5 -313.5t212 -218t305.5 -78.5z" />
    <glyph glyph-name="ohungarumlaut" unicode="&#x151;" horiz-adv-x="1255" 
d="M512 1198h-123l160 303h153zM864 1198h-123l162 303h154zM629 -23q-232 0 -384.5 152.5t-152.5 382.5q0 152 69 274t192 191.5t276 69.5q231 0 383.5 -152.5t152.5 -382.5q0 -229 -152.5 -382t-383.5 -153zM629 102q172 0 284.5 117t112.5 293t-112.5 293t-284.5 117
q-174 0 -287 -117t-113 -293t113 -293t287 -117z" />
    <glyph glyph-name="OE" unicode="&#x152;" horiz-adv-x="1869" 
d="M1055 657v-524h714v-133h-858q-182 0 -330.5 53t-249.5 148t-155.5 228.5t-54.5 293.5q0 124 32.5 234t98.5 199.5t159.5 154t221 100t278.5 35.5h838v-133h-694v-522h606v-134h-606zM270 723q0 -268 169 -428t472 -160v1176q-158 0 -281 -44t-201 -123.5t-118.5 -186
t-40.5 -234.5z" />
    <glyph glyph-name="oe" unicode="&#x153;" horiz-adv-x="2129" 
d="M2044 512q0 -9 -1 -27.5t-1 -27.5h-877q15 -160 120.5 -257.5t279.5 -97.5q224 0 321 181l125 -56q-63 -121 -179.5 -185.5t-270.5 -64.5q-167 0 -287 73.5t-180 201.5q-64 -127 -186 -201t-279 -74q-232 0 -384.5 152.5t-152.5 382.5q0 152 69 274t192 191.5t276 69.5
q157 0 279 -74.5t186 -202.5q62 129 177.5 203t270.5 74q223 0 362.5 -151t139.5 -384zM629 102q172 0 284.5 117t112.5 293t-112.5 293t-284.5 117q-174 0 -287 -117t-113 -293t113 -293t287 -117zM1548 922q-156 0 -259 -96t-122 -251h742q-18 157 -114 252t-247 95z" />
    <glyph glyph-name="Racute" unicode="&#x154;" horiz-adv-x="1280" 
d="M686 1851h160l-199 -278h-125zM758 631l475 -631h-178l-457 608h-270v-608h-146v1446h455q239 0 348 -108.5t109 -299.5q0 -175 -87 -278.5t-249 -128.5zM610 1313h-282v-572h276q167 0 254.5 68t87.5 229q0 151 -80.5 213t-255.5 62z" />
    <glyph glyph-name="racute" unicode="&#x155;" horiz-adv-x="733" 
d="M502 1198h-123l160 303h153zM295 0h-135v1026h135v-221q48 116 141 179t226 63h36v-140q-36 4 -63 4q-157 0 -248.5 -116t-91.5 -308v-487z" />
    <glyph glyph-name="uni0156" unicode="&#x156;" horiz-adv-x="1280" 
d="M758 631l475 -631h-178l-457 608h-270v-608h-146v1446h455q239 0 348 -108.5t109 -299.5q0 -175 -87 -278.5t-249 -128.5zM610 1313h-282v-572h276q167 0 254.5 68t87.5 229q0 151 -80.5 213t-255.5 62zM707 -465h-109l27 336h133z" />
    <glyph glyph-name="uni0157" unicode="&#x157;" horiz-adv-x="733" 
d="M295 0h-135v1026h135v-221q48 116 141 179t226 63h36v-140q-36 4 -63 4q-157 0 -248.5 -116t-91.5 -308v-487zM244 -465h-109l27 336h133z" />
    <glyph glyph-name="Rcaron" unicode="&#x158;" horiz-adv-x="1280" 
d="M881 1851l-242 -278h-113l-241 278h133l166 -190l164 190h133zM758 631l475 -631h-178l-457 608h-270v-608h-146v1446h455q239 0 348 -108.5t109 -299.5q0 -175 -87 -278.5t-249 -128.5zM610 1313h-282v-572h276q167 0 254.5 68t87.5 229q0 151 -80.5 213t-255.5 62z" />
    <glyph glyph-name="rcaron" unicode="&#x159;" horiz-adv-x="733" 
d="M745 1501l-249 -303h-113l-252 303h135l174 -209l172 209h133zM295 1026v-221q48 116 141 179t226 63h36v-140q-36 4 -63 4q-157 0 -248.5 -116t-91.5 -308v-487h-135v1026h135z" />
    <glyph glyph-name="Sacute" unicode="&#x15a;" horiz-adv-x="1165" 
d="M631 1573h-125l164 278h159zM604 -23q-194 0 -333.5 83t-192.5 237l125 63q42 -122 146.5 -184.5t252.5 -62.5q160 0 243 71t83 203q0 66 -21 111t-70 75.5t-107.5 49.5t-156.5 39q-57 12 -98 22t-91 27.5t-85 37t-70 49.5t-56 66.5t-34.5 86.5t-13.5 110
q0 189 120.5 298t323.5 109q161 0 281.5 -72.5t179.5 -203.5l-127 -64q-46 100 -131 152.5t-201 52.5q-140 0 -218.5 -71t-78.5 -197q0 -30 3.5 -55.5t13 -46t19 -37.5t28 -31.5t32.5 -24.5t41 -20t44.5 -16.5t52.5 -14t55.5 -12t61.5 -12.5q106 -21 181 -48t140 -73
t98 -117.5t33 -169.5q0 -194 -125.5 -302t-347.5 -108z" />
    <glyph glyph-name="sacute" unicode="&#x15b;" horiz-adv-x="956" 
d="M549 1198h-123l160 303h153zM512 -23q-161 0 -278.5 69.5t-163.5 189.5l125 55q33 -86 115.5 -137.5t203.5 -51.5q236 0 236 181q0 78 -59.5 116.5t-211.5 63.5q-84 14 -143.5 33t-112 50.5t-79.5 81.5t-27 117q0 143 103 222.5t267 79.5q133 0 230.5 -53t144.5 -150
l-123 -58q-68 136 -252 136q-110 0 -171.5 -44t-61.5 -126q0 -73 64 -109t196 -57q94 -15 157 -34.5t114 -53t75.5 -85.5t24.5 -126q0 -151 -97 -230.5t-276 -79.5z" />
    <glyph glyph-name="Scedilla" unicode="&#x15e;" horiz-adv-x="1165" 
d="M1077 387q0 -185 -114.5 -292t-319.5 -118v-88q87 -6 142 -50.5t55 -119.5q0 -86 -59.5 -134t-168.5 -48q-89 0 -178 29v108q86 -30 174 -30q51 0 79 22t28 62q0 43 -34.5 64.5t-113.5 21.5h-35v166q-167 15 -286 96.5t-168 220.5l125 63q42 -122 146.5 -184.5
t252.5 -62.5q160 0 243 71t83 203q0 66 -21 111t-70 75.5t-107.5 49.5t-156.5 39q-57 12 -98 22t-91 27.5t-85 37t-70 49.5t-56 66.5t-34.5 86.5t-13.5 110q0 189 120.5 298t323.5 109q161 0 281.5 -72.5t179.5 -203.5l-127 -64q-46 100 -131 152.5t-201 52.5
q-140 0 -218.5 -71t-78.5 -197q0 -30 3.5 -55.5t13 -46t19 -37.5t28 -31.5t32.5 -24.5t41 -20t44.5 -16.5t52.5 -14t55.5 -12t61.5 -12.5q106 -21 181 -48t140 -73t98 -117.5t33 -169.5z" />
    <glyph glyph-name="scedilla" unicode="&#x15f;" horiz-adv-x="956" 
d="M885 287q0 -142 -86.5 -220.5t-245.5 -86.5v-91q87 -6 142 -50.5t55 -119.5q0 -86 -59.5 -134t-168.5 -48q-89 0 -178 29v108q86 -30 174 -30q51 0 79 22t28 62q0 43 -34.5 64.5t-113.5 21.5h-35v168q-136 13 -233 80.5t-139 173.5l125 55q33 -86 115.5 -137.5
t203.5 -51.5q236 0 236 181q0 78 -59.5 116.5t-211.5 63.5q-84 14 -143.5 33t-112 50.5t-79.5 81.5t-27 117q0 143 103 222.5t267 79.5q133 0 230.5 -53t144.5 -150l-123 -58q-68 136 -252 136q-110 0 -171.5 -44t-61.5 -126q0 -73 64 -109t196 -57q94 -15 157 -34.5
t114 -53t75.5 -85.5t24.5 -126z" />
    <glyph glyph-name="Scaron" unicode="&#x160;" horiz-adv-x="1165" 
d="M864 1851l-241 -278h-113l-242 278h133l166 -190l164 190h133zM625 795q106 -21 181 -48t140 -73t98 -117.5t33 -169.5q0 -194 -125.5 -302t-347.5 -108q-194 0 -333.5 83t-192.5 237l125 63q42 -122 146.5 -184.5t252.5 -62.5q160 0 243 71t83 203q0 66 -21 111
t-70 75.5t-107.5 49.5t-156.5 39q-57 12 -98 22t-91 27.5t-85 37t-70 49.5t-56 66.5t-34.5 86.5t-13.5 110q0 189 120.5 298t323.5 109q161 0 281.5 -72.5t179.5 -203.5l-127 -64q-46 100 -131 152.5t-201 52.5q-140 0 -218.5 -71t-78.5 -197q0 -30 3.5 -55.5t13 -46
t19 -37.5t28 -31.5t32.5 -24.5t41 -20t44.5 -16.5t52.5 -14t55.5 -12t61.5 -12.5z" />
    <glyph glyph-name="scaron" unicode="&#x161;" horiz-adv-x="956" 
d="M793 1501l-250 -303h-113l-252 303h135l174 -209l172 209h134zM514 586q94 -15 157 -34.5t114 -53t75.5 -85.5t24.5 -126q0 -151 -97 -230.5t-276 -79.5q-161 0 -278.5 69.5t-163.5 189.5l125 55q33 -86 115.5 -137.5t203.5 -51.5q236 0 236 181q0 78 -59.5 116.5
t-211.5 63.5q-84 14 -143.5 33t-112 50.5t-79.5 81.5t-27 117q0 143 103 222.5t267 79.5q133 0 230.5 -53t144.5 -150l-123 -58q-68 136 -252 136q-110 0 -171.5 -44t-61.5 -126q0 -73 64 -109t196 -57z" />
    <glyph glyph-name="uni0162" unicode="&#x162;" horiz-adv-x="1189" 
d="M668 1313v-1313h-31v-111q87 -6 142 -50.5t55 -119.5q0 -86 -59.5 -134t-168.5 -48q-89 0 -178 29v108q86 -30 174 -30q51 0 79 22t28 62q0 43 -34.5 64.5t-113.5 21.5h-35v186h-2v1313h-461v133h1065v-133h-460z" />
    <glyph glyph-name="uni0163" unicode="&#x163;" horiz-adv-x="745" 
d="M494 -16v-95q87 -6 141.5 -50.5t54.5 -119.5q0 -86 -59 -134t-168 -48q-89 0 -178 29v108q85 -30 174 -30q51 0 78.5 22t27.5 62q0 43 -34 64.5t-113 21.5h-35v194q-150 60 -150 295v598h-196v125h196v289h136v-289h303v-125h-303v-590q0 -107 37.5 -154.5t134.5 -47.5
q79 0 135 18v-125q-56 -18 -154 -18h-28z" />
    <glyph glyph-name="Tcaron" unicode="&#x164;" horiz-adv-x="1189" 
d="M893 1851l-242 -278h-112l-242 278h133l166 -190l164 190h133zM63 1313v133h1065v-133h-460v-1313h-144v1313h-461z" />
    <glyph glyph-name="tcaron" unicode="&#x165;" horiz-adv-x="780" 
d="M621 1130l10 414h135l-43 -414h-102zM369 901v-590q0 -107 37.5 -154.5t134.5 -47.5q79 0 135 18v-125q-56 -18 -154 -18q-67 0 -118.5 17t-83.5 45t-52 70t-27.5 87t-7.5 100v598h-196v125h196v289h136v-289h303v-125h-303z" />
    <glyph glyph-name="Umacron" unicode="&#x16a;" horiz-adv-x="1392" 
d="M961 1653h-531v110h531v-110zM696 -23q-553 0 -553 607v862h144v-856q0 -240 95.5 -358.5t313.5 -118.5q217 0 312.5 119t95.5 358v856h145v-862q0 -607 -553 -607z" />
    <glyph glyph-name="umacron" unicode="&#x16b;" horiz-adv-x="1165" 
d="M840 1296h-531v113h531v-113zM520 -23q-187 0 -288 113.5t-101 321.5v614h135v-598q0 -158 71.5 -242t211.5 -84q157 0 244.5 107.5t87.5 290.5v526h135v-1026h-135v209q-104 -232 -361 -232z" />
    <glyph glyph-name="Uring" unicode="&#x16e;" horiz-adv-x="1392" 
d="M698 1526q-93 0 -153 55.5t-60 142.5t61 143t152 56q92 0 151.5 -55.5t59.5 -143.5q0 -87 -59 -142.5t-152 -55.5zM698 1606q52 0 86.5 32.5t34.5 85.5q0 52 -34 85.5t-87 33.5q-52 0 -87.5 -33t-35.5 -86t35 -85.5t88 -32.5zM696 -23q-553 0 -553 607v862h144v-856
q0 -240 95.5 -358.5t313.5 -118.5q217 0 312.5 119t95.5 358v856h145v-862q0 -607 -553 -607z" />
    <glyph glyph-name="uring" unicode="&#x16f;" horiz-adv-x="1165" 
d="M575 1186q-94 0 -153.5 55t-59.5 143q0 87 60 143t153 56q91 0 150 -56t59 -143t-59 -142.5t-150 -55.5zM573 1266q53 0 87 32.5t34 85.5q0 52 -34 85.5t-87 33.5q-51 0 -85.5 -33.5t-34.5 -85.5q0 -53 34 -85.5t86 -32.5zM520 -23q-187 0 -288 113.5t-101 321.5v614h135
v-598q0 -158 71.5 -242t211.5 -84q157 0 244.5 107.5t87.5 290.5v526h135v-1026h-135v209q-104 -232 -361 -232z" />
    <glyph glyph-name="Uhungarumlaut" unicode="&#x170;" horiz-adv-x="1392" 
d="M590 1573h-125l164 278h159zM928 1573h-123l164 278h159zM696 -23q-553 0 -553 607v862h144v-856q0 -240 95.5 -358.5t313.5 -118.5q217 0 312.5 119t95.5 358v856h145v-862q0 -607 -553 -607z" />
    <glyph glyph-name="uhungarumlaut" unicode="&#x171;" horiz-adv-x="1165" 
d="M459 1198h-123l160 303h153zM811 1198h-123l162 303h154zM520 -23q-187 0 -288 113.5t-101 321.5v614h135v-598q0 -158 71.5 -242t211.5 -84q157 0 244.5 107.5t87.5 290.5v526h135v-1026h-135v209q-104 -232 -361 -232z" />
    <glyph glyph-name="Uogonek" unicode="&#x172;" horiz-adv-x="1392" 
d="M1104 590v856h145v-862q0 -495 -368 -586q-205 -97 -205 -240q0 -55 32.5 -84.5t86.5 -29.5q40 0 90 20v-102q-54 -23 -115 -23q-99 0 -157 51t-58 138q0 144 145 249h-4q-553 0 -553 607v862h144v-856q0 -240 95.5 -358.5t313.5 -118.5q217 0 312.5 119t95.5 358z" />
    <glyph glyph-name="uogonek" unicode="&#x173;" horiz-adv-x="1165" 
d="M1016 1026v-1026q-209 -99 -209 -242q0 -55 32.5 -84.5t86.5 -29.5q40 0 90 20v-102q-54 -23 -115 -23q-99 0 -157 51t-58 138q0 89 54 160.5t141 121.5v199q-104 -232 -361 -232q-187 0 -288 113.5t-101 321.5v614h135v-598q0 -158 71.5 -242t211.5 -84
q157 0 244.5 107.5t87.5 290.5v526h135z" />
    <glyph glyph-name="Ydieresis" unicode="&#x178;" horiz-adv-x="1208" 
d="M424 1614q-41 0 -68.5 27.5t-27.5 68.5t27.5 67.5t68.5 26.5t68.5 -26.5t27.5 -67.5t-27.5 -68.5t-68.5 -27.5zM784 1614q-41 0 -69.5 27.5t-28.5 68.5q0 40 28.5 67t69.5 27q40 0 68.5 -27.5t28.5 -66.5q0 -41 -28.5 -68.5t-68.5 -27.5zM676 0h-144v571l-512 875h166
l418 -723l418 723h168l-514 -875v-571z" />
    <glyph glyph-name="Zacute" unicode="&#x179;" horiz-adv-x="1159" 
d="M692 1851h160l-199 -278h-125zM1063 1335l-791 -1202h838v-133h-1022v111l791 1202h-766v133h950v-111z" />
    <glyph glyph-name="zacute" unicode="&#x17a;" horiz-adv-x="978" 
d="M584 1501h153l-190 -303h-123zM860 932l-579 -809h620v-123h-805v92l582 809h-572v125h754v-94z" />
    <glyph glyph-name="Zdotaccent" unicode="&#x17b;" horiz-adv-x="1159" 
d="M588 1610q-43 0 -72 28.5t-29 71.5q0 42 29 70t72 28t71.5 -27.5t28.5 -70.5t-28.5 -71.5t-71.5 -28.5zM1063 1335l-791 -1202h838v-133h-1022v111l791 1202h-766v133h950v-111z" />
    <glyph glyph-name="zdotaccent" unicode="&#x17c;" horiz-adv-x="978" 
d="M485 1264q-43 0 -71.5 28.5t-28.5 71.5q0 41 28.5 68.5t71.5 27.5t72 -27.5t29 -68.5q0 -43 -29 -71.5t-72 -28.5zM860 932l-579 -809h620v-123h-805v92l582 809h-572v125h754v-94z" />
    <glyph glyph-name="Zcaron" unicode="&#x17d;" horiz-adv-x="1159" 
d="M887 1851l-242 -278h-113l-241 278h133l166 -190l164 190h133zM1063 1335l-791 -1202h838v-133h-1022v111l791 1202h-766v133h950v-111z" />
    <glyph glyph-name="zcaron" unicode="&#x17e;" horiz-adv-x="978" 
d="M791 1501l-250 -303h-113l-252 303h135l174 -209l172 209h134zM860 932l-579 -809h620v-123h-805v92l582 809h-572v125h754v-94z" />
    <glyph glyph-name="florin" unicode="&#x192;" horiz-adv-x="741" 
d="M604 1399q-120 0 -167.5 -56.5t-47.5 -205.5v-111h305v-125h-305v-987q0 -163 -72 -250.5t-221 -87.5q-63 0 -108 10v123q62 -8 100 -8q89 0 127.5 50t38.5 177v973h-191v125h191v127q0 183 80.5 277t265.5 94q50 0 100 -8v-123q-40 6 -96 6z" />
    <glyph glyph-name="uni0218" unicode="&#x218;" horiz-adv-x="1165" 
d="M604 -23q-194 0 -333.5 83t-192.5 237l125 63q42 -122 146.5 -184.5t252.5 -62.5q160 0 243 71t83 203q0 66 -21 111t-70 75.5t-107.5 49.5t-156.5 39q-57 12 -98 22t-91 27.5t-85 37t-70 49.5t-56 66.5t-34.5 86.5t-13.5 110q0 189 120.5 298t323.5 109
q161 0 281.5 -72.5t179.5 -203.5l-127 -64q-46 100 -131 152.5t-201 52.5q-140 0 -218.5 -71t-78.5 -197q0 -30 3.5 -55.5t13 -46t19 -37.5t28 -31.5t32.5 -24.5t41 -20t44.5 -16.5t52.5 -14t55.5 -12t61.5 -12.5q106 -21 181 -48t140 -73t98 -117.5t33 -169.5
q0 -194 -125.5 -302t-347.5 -108zM618 -465h-108l27 336h133z" />
    <glyph glyph-name="uni0219" unicode="&#x219;" horiz-adv-x="956" 
d="M512 -23q-161 0 -278.5 69.5t-163.5 189.5l125 55q33 -86 115.5 -137.5t203.5 -51.5q236 0 236 181q0 78 -59.5 116.5t-211.5 63.5q-84 14 -143.5 33t-112 50.5t-79.5 81.5t-27 117q0 143 103 222.5t267 79.5q133 0 230.5 -53t144.5 -150l-123 -58q-68 136 -252 136
q-110 0 -171.5 -44t-61.5 -126q0 -73 64 -109t196 -57q94 -15 157 -34.5t114 -53t75.5 -85.5t24.5 -126q0 -151 -97 -230.5t-276 -79.5zM528 -465h-108l26 336h134z" />
    <glyph glyph-name="uni021A" unicode="&#x21a;" horiz-adv-x="1189" 
d="M668 0h-144v1313h-461v133h1065v-133h-460v-1313zM610 -465h-108l26 336h134z" />
    <glyph glyph-name="uni021B" unicode="&#x21b;" horiz-adv-x="745" 
d="M541 109q79 0 135 18v-125q-56 -18 -154 -18q-67 0 -118.5 17t-83.5 45t-52 70t-27.5 87t-7.5 100v598h-196v125h196v289h136v-289h303v-125h-303v-590q0 -107 37.5 -154.5t134.5 -47.5zM467 -465h-109l27 336h133z" />
    <glyph glyph-name="uni0237" unicode="&#x237;" horiz-adv-x="477" 
d="M12 -424q-63 0 -108 10v123q66 -8 100 -8q89 0 128.5 50t39.5 177v1098h135v-1112q0 -163 -72.5 -250.5t-222.5 -87.5z" />
    <glyph glyph-name="circumflex" unicode="&#x2c6;" horiz-adv-x="667" 
d="M391 1501l250 -303h-133l-174 209l-174 -209h-133l252 303h112z" />
    <glyph glyph-name="caron" unicode="&#x2c7;" horiz-adv-x="667" 
d="M334 1292l174 209h133l-250 -303h-112l-252 303h133z" />
    <glyph glyph-name="uni02C9" unicode="&#x2c9;" horiz-adv-x="940" 
d="M735 1296h-530v113h530v-113z" />
    <glyph glyph-name="breve" unicode="&#x2d8;" horiz-adv-x="667" 
d="M334 1192q-135 0 -210 72t-75 196h109q0 -76 45.5 -118t130.5 -42q84 0 130 42t46 118h108q0 -124 -75 -196t-209 -72z" />
    <glyph glyph-name="dotaccent" unicode="&#x2d9;" horiz-adv-x="667" 
d="M334 1264q-43 0 -72 28.5t-29 71.5q0 41 29 68.5t72 27.5t71.5 -27.5t28.5 -68.5q0 -43 -28.5 -71.5t-71.5 -28.5z" />
    <glyph glyph-name="ring" unicode="&#x2da;" horiz-adv-x="667" 
d="M334 1186q-93 0 -153 55.5t-60 142.5t61 143t152 56q92 0 151.5 -55.5t59.5 -143.5q0 -87 -59 -142.5t-152 -55.5zM334 1266q52 0 86.5 32.5t34.5 85.5q0 52 -34 85.5t-87 33.5q-52 0 -87.5 -33.5t-35.5 -85.5q0 -53 35 -85.5t88 -32.5z" />
    <glyph glyph-name="ogonek" unicode="&#x2db;" horiz-adv-x="667" 
d="M383 -461q-99 0 -156 51t-57 138q0 99 64 175.5t165 127.5l99 -31q-209 -99 -209 -242q0 -55 32.5 -84.5t86.5 -29.5q40 0 90 20v-102q-54 -23 -115 -23z" />
    <glyph glyph-name="tilde" unicode="&#x2dc;" horiz-adv-x="667" 
d="M465 1212q-42 0 -81 20.5t-63 45t-54 45t-56 20.5q-36 0 -56 -33t-20 -91h-108q0 108 47.5 171.5t126.5 63.5q43 0 82.5 -21t64 -45.5t55 -45.5t56.5 -21q69 0 69 125h113q0 -108 -47.5 -171t-128.5 -63z" />
    <glyph glyph-name="hungarumlaut" unicode="&#x2dd;" horiz-adv-x="667" 
d="M121 1198h-121l160 303h153zM475 1198h-123l162 303h154z" />
    <glyph glyph-name="gravecomb" unicode="&#x300;" 
d="M-205 1198h-123l-192 303h155z" />
    <glyph glyph-name="acutecomb" unicode="&#x301;" 
d="M-387 1198h-123l160 303h153z" />
    <glyph glyph-name="uni0302" unicode="&#x302;" 
d="M-455 1501l250 -303h-133l-174 209l-174 -209h-133l252 303h112z" />
    <glyph glyph-name="tildecomb" unicode="&#x303;" 
d="M-367 1212q-35 0 -66.5 13.5t-55 33t-45 38.5t-44.5 32.5t-45 13.5q-35 0 -54 -33t-19 -91h-111q0 108 48 171.5t128 63.5q43 0 82.5 -21t63.5 -45.5t54.5 -45.5t57.5 -21q70 0 70 125h110q0 -107 -47 -170.5t-127 -63.5z" />
    <glyph glyph-name="uni0304" unicode="&#x304;" 
d="M-205 1296h-530v113h530v-113z" />
    <glyph glyph-name="uni0306" unicode="&#x306;" 
d="M-492 1192q-134 0 -209 72t-75 196h110q0 -76 45 -118t129 -42q85 0 131 42t46 118h110q0 -124 -76.5 -196t-210.5 -72z" />
    <glyph glyph-name="uni0307" unicode="&#x307;" 
d="M-197 1264q-43 0 -71.5 28.5t-28.5 71.5q0 41 28.5 68.5t71.5 27.5t72 -27.5t29 -68.5q0 -43 -29 -71.5t-72 -28.5z" />
    <glyph glyph-name="uni0308" unicode="&#x308;" 
d="M-649 1266q-41 0 -68.5 27.5t-27.5 70.5q0 40 27.5 67t68.5 27t68.5 -27t27.5 -67q0 -43 -27.5 -70.5t-68.5 -27.5zM-289 1266q-41 0 -69.5 28.5t-28.5 69.5q0 40 28.5 67t69.5 27q40 0 68 -27t28 -67q0 -41 -28 -69.5t-68 -28.5z" />
    <glyph glyph-name="uni030A" unicode="&#x30a;" 
d="M-408 1186q-94 0 -153.5 55t-59.5 143q0 87 60 143t153 56q91 0 150 -56t59 -143t-59 -142.5t-150 -55.5zM-410 1266q53 0 87 32.5t34 85.5q0 52 -34 85.5t-87 33.5q-51 0 -85.5 -33.5t-34.5 -85.5q0 -53 34 -85.5t86 -32.5z" />
    <glyph glyph-name="uni030B" unicode="&#x30b;" 
d="M-692 1198h-123l160 303h153zM-340 1198h-123l162 303h154z" />
    <glyph glyph-name="uni030C" unicode="&#x30c;" 
d="M-500 1292l172 209h133l-249 -303h-113l-252 303h135z" />
    <glyph glyph-name="uni0312" unicode="&#x312;" 
d="M-309 1534h108l-24 -336h-133z" />
    <glyph glyph-name="uni0326" unicode="&#x326;" 
d="M-256 -465h-109l27 336h133z" />
    <glyph glyph-name="uni0327" unicode="&#x327;" 
d="M-446 -463q-90 0 -179 29v108q85 -30 174 -30q51 0 79 22t28 62q0 43 -34.5 64.5t-113.5 21.5h-34v196h110v-121q87 -6 142 -50.5t55 -119.5q0 -86 -59 -134t-168 -48z" />
    <glyph glyph-name="uni0328" unicode="&#x328;" 
d="M-319 -461q-99 0 -157.5 51.5t-58.5 137.5q0 98 65 175t167 128l98 -31q-209 -99 -209 -242q0 -55 32.5 -84.5t86.5 -29.5q40 0 90 20v-102q-54 -23 -114 -23z" />
    <glyph glyph-name="pi" unicode="&#x3c0;" horiz-adv-x="1288" 
d="M395 0h-135v901h-190v125h1149v-125h-191v-901h-135v901h-498v-901z" />
    <glyph glyph-name="uni1E9E" unicode="&#x1e9e;" horiz-adv-x="1353" 
d="M852 877q180 0 291.5 -115t111.5 -316q0 -214 -133 -341.5t-383 -127.5q-113 0 -221 31l35 135q77 -30 188 -30q174 0 270.5 86.5t96.5 246.5q0 154 -85.5 235t-229.5 81q-51 0 -148 -19l-55 70l399 502h-651v-1315h-143v1446h981v-105l-379 -467q30 3 55 3z" />
    <glyph glyph-name="uni2007" unicode="&#x2007;" horiz-adv-x="1452" 
 />
    <glyph glyph-name="uni2008" unicode="&#x2008;" horiz-adv-x="471" 
 />
    <glyph glyph-name="uni2009" unicode="&#x2009;" horiz-adv-x="262" 
 />
    <glyph glyph-name="uni200A" unicode="&#x200a;" horiz-adv-x="114" 
 />
    <glyph glyph-name="uni200B" unicode="&#x200b;" 
 />
    <glyph glyph-name="uni2010" unicode="&#x2010;" horiz-adv-x="909" 
d="M797 451h-684v127h684v-127z" />
    <glyph glyph-name="uni2011" unicode="&#x2011;" horiz-adv-x="909" 
d="M797 451h-684v127h684v-127z" />
    <glyph glyph-name="figuredash" unicode="&#x2012;" horiz-adv-x="1452" 
d="M1313 575h-1172v127h1172v-127z" />
    <glyph glyph-name="endash" unicode="&#x2013;" horiz-adv-x="1198" 
d="M1102 451h-1008v127h1008v-127z" />
    <glyph glyph-name="emdash" unicode="&#x2014;" horiz-adv-x="1984" 
d="M1888 451h-1794v127h1794v-127z" />
    <glyph glyph-name="uni2015" unicode="&#x2015;" horiz-adv-x="1984" 
d="M1888 451h-1794v127h1794v-127z" />
    <glyph glyph-name="quoteleft" unicode="&#x2018;" horiz-adv-x="471" 
d="M285 940h-164l125 561h110z" />
    <glyph glyph-name="quoteright" unicode="&#x2019;" horiz-adv-x="471" 
d="M186 1501h164l-125 -561h-110z" />
    <glyph glyph-name="quotesinglbase" unicode="&#x201a;" horiz-adv-x="471" 
d="M225 -303h-110l71 559h164z" />
    <glyph glyph-name="quotedblleft" unicode="&#x201c;" horiz-adv-x="839" 
d="M225 1501h111l-51 -561h-164zM614 1501h111l-51 -561h-164z" />
    <glyph glyph-name="quotedblright" unicode="&#x201d;" horiz-adv-x="839" 
d="M225 940h-110l51 561h164zM614 940h-110l53 561h162z" />
    <glyph glyph-name="quotedblbase" unicode="&#x201e;" horiz-adv-x="839" 
d="M225 -303h-110l51 559h164zM614 -303h-110l53 559h162z" />
    <glyph glyph-name="dagger" unicode="&#x2020;" horiz-adv-x="980" 
d="M559 0h-137v963h-359v129h359v354h137v-354h359v-129h-359v-963z" />
    <glyph glyph-name="daggerdbl" unicode="&#x2021;" horiz-adv-x="980" 
d="M918 1092v-129h-359v-478h359v-129h-359v-356h-137v356h-359v129h359v478h-359v129h359v354h137v-354h359z" />
    <glyph glyph-name="bullet" unicode="&#x2022;" horiz-adv-x="704" 
d="M358 287q-101 0 -166 63.5t-65 165.5q0 99 65 161t166 62t166.5 -62t65.5 -161q0 -102 -65.5 -165.5t-166.5 -63.5z" />
    <glyph glyph-name="ellipsis" unicode="&#x2026;" horiz-adv-x="1413" 
d="M236 -12q-47 0 -78 29.5t-31 78.5q0 45 31.5 75t77.5 30t77 -30t31 -75q0 -49 -30.5 -78.5t-77.5 -29.5zM707 -12q-47 0 -78 29.5t-31 78.5q0 45 31.5 75t77.5 30t77 -30t31 -75q0 -49 -30.5 -78.5t-77.5 -29.5zM1178 -12q-47 0 -78 29.5t-31 78.5q0 45 31.5 75t77.5 30
t77 -30t31 -75q0 -49 -30.5 -78.5t-77.5 -29.5z" />
    <glyph glyph-name="perthousand" unicode="&#x2030;" horiz-adv-x="2863" 
d="M434 573q-163 0 -263.5 119t-100.5 330t99.5 328.5t264.5 117.5q166 0 265.5 -118t99.5 -328q0 -209 -100.5 -329t-264.5 -120zM641 0h-135l850 1446h135zM434 690q106 0 171 90.5t65 241.5q0 152 -64.5 241t-171.5 89q-108 0 -171.5 -88.5t-63.5 -241.5q0 -152 64 -242
t171 -90zM1565 -23q-163 0 -264 119t-101 330t100 328.5t265 117.5q166 0 265 -118t99 -328q0 -209 -100 -329t-264 -120zM2431 -23q-163 0 -264 119t-101 330t100 328.5t265 117.5q166 0 265.5 -118t99.5 -328q0 -209 -100.5 -329t-264.5 -120zM1565 94q106 0 170.5 90
t64.5 242t-64 241t-171 89q-108 0 -172 -88.5t-64 -241.5q0 -152 64.5 -242t171.5 -90zM2431 94q106 0 170.5 90t64.5 242t-64 241t-171 89q-108 0 -172 -88.5t-64 -241.5q0 -152 64.5 -242t171.5 -90z" />
    <glyph glyph-name="minute" unicode="&#x2032;" horiz-adv-x="370" 
d="M250 940h-127v561h127v-561z" />
    <glyph glyph-name="second" unicode="&#x2033;" horiz-adv-x="731" 
d="M250 940h-127v561h127v-561zM608 940h-127v561h127v-561z" />
    <glyph glyph-name="guilsinglleft" unicode="&#x2039;" horiz-adv-x="567" 
d="M483 115l-104 -72l-316 465l316 465l104 -72l-268 -393z" />
    <glyph glyph-name="guilsinglright" unicode="&#x203a;" horiz-adv-x="567" 
d="M504 508l-316 -465l-104 72l266 393l-266 393l104 72z" />
    <glyph glyph-name="fraction" unicode="&#x2044;" horiz-adv-x="387" 
d="M-164 0h-135l850 1446h135z" />
    <glyph glyph-name="uni2070" unicode="&#x2070;" horiz-adv-x="866" 
d="M434 752q-163 0 -263.5 118.5t-100.5 329.5t99.5 329t264.5 118q166 0 265.5 -118.5t99.5 -328.5q0 -209 -100.5 -328.5t-264.5 -119.5zM434 868q106 0 171 90.5t65 241.5q0 152 -64.5 241t-171.5 89q-108 0 -171.5 -88.5t-63.5 -241.5q0 -152 64 -242t171 -90z" />
    <glyph glyph-name="uni2074" unicode="&#x2074;" horiz-adv-x="765" 
d="M606 1053h117v-105h-117v-174h-114v174h-449v99l258 577h131l-252 -571h312v264h114v-264z" />
    <glyph glyph-name="uni2075" unicode="&#x2075;" horiz-adv-x="735" 
d="M369 1331q134 0 216.5 -76t82.5 -206q0 -135 -87.5 -216t-238.5 -81q-107 0 -189.5 40.5t-123.5 114.5l90 78q29 -56 89 -86.5t134 -30.5q91 0 145 49.5t54 133.5q0 89 -54.5 137.5t-148.5 48.5q-118 0 -199 -70l-59 15l43 442h502v-115h-402l-22 -219q74 41 168 41z" />
    <glyph glyph-name="uni2076" unicode="&#x2076;" horiz-adv-x="788" 
d="M442 1348q130 0 212.5 -82t82.5 -207q0 -134 -90.5 -220.5t-240.5 -86.5q-147 0 -241.5 88t-94.5 245q0 288 340 570l118 -49q-113 -97 -183 -176.5t-112 -165.5q81 84 209 84zM406 868q94 0 147 51t53 140q0 83 -54.5 133.5t-139.5 50.5q-94 0 -154.5 -53t-60.5 -135
q0 -87 59 -137t150 -50z" />
    <glyph glyph-name="uni2077" unicode="&#x2077;" horiz-adv-x="708" 
d="M55 1509v115h598v-92l-356 -758h-135l348 735h-455z" />
    <glyph glyph-name="uni2078" unicode="&#x2078;" horiz-adv-x="802" 
d="M582 1225q73 -30 113 -85.5t40 -129.5q0 -118 -90 -188t-244 -70t-242.5 70t-88.5 188q0 75 39.5 130.5t111.5 84.5q-121 61 -121 192q0 104 81.5 167t219.5 63q137 0 219 -63.5t82 -166.5q0 -130 -120 -192zM401 1530q-78 0 -125 -34.5t-47 -94.5q0 -59 46.5 -93
t125.5 -34q77 0 124.5 34.5t47.5 92.5q0 60 -47 94.5t-125 34.5zM401 868q90 0 147.5 43t57.5 109q0 70 -56 112t-149 42q-92 0 -147 -42t-55 -112q0 -69 55 -110.5t147 -41.5z" />
    <glyph glyph-name="uni2079" unicode="&#x2079;" horiz-adv-x="788" 
d="M383 1647q147 0 241.5 -88.5t94.5 -245.5q0 -288 -340 -570l-119 50q113 97 183 176.5t112 165.5q-81 -84 -209 -84q-131 0 -213 82t-82 206q0 134 91 221t241 87zM377 1155q94 0 154.5 53t60.5 135q0 87 -59 137t-150 50q-95 0 -148 -51.5t-53 -139.5q0 -82 54.5 -133
t140.5 -51z" />
    <glyph glyph-name="uni2080" unicode="&#x2080;" horiz-adv-x="866" 
d="M434 -309q-163 0 -263.5 118.5t-100.5 329.5t99.5 329t264.5 118q166 0 265.5 -118.5t99.5 -328.5q0 -209 -100.5 -328.5t-264.5 -119.5zM434 -193q106 0 171 90.5t65 241.5q0 152 -64.5 241t-171.5 89q-108 0 -171.5 -88.5t-63.5 -241.5q0 -152 64 -242t171 -90z" />
    <glyph glyph-name="uni2081" unicode="&#x2081;" horiz-adv-x="546" 
d="M414 -287h-125v705l-219 -90l-39 106l342 139h41v-860z" />
    <glyph glyph-name="uni2082" unicode="&#x2082;" horiz-adv-x="720" 
d="M373 -53l-129 -117h420v-117h-605v90l185 172q153 142 208.5 211.5t55.5 147.5q0 67 -43.5 101t-118.5 34q-143 0 -196 -115l-105 68q32 73 114 118.5t193 45.5q132 0 207.5 -67t75.5 -179q0 -52 -15.5 -98t-54 -96t-79 -91t-113.5 -108z" />
    <glyph glyph-name="uni2083" unicode="&#x2083;" horiz-adv-x="729" 
d="M621 473l-240 -233q125 -4 200.5 -78.5t75.5 -192.5q0 -130 -84.5 -204t-222.5 -74q-115 0 -196.5 42.5t-118.5 110.5l88 78q26 -52 85.5 -83.5t133.5 -31.5q85 0 136.5 47t51.5 126q0 81 -51 127.5t-139 46.5q-67 0 -107 -19l-45 62l265 254h-369v112h537v-90z" />
    <glyph glyph-name="uni2084" unicode="&#x2084;" horiz-adv-x="765" 
d="M606 -8h117v-105h-117v-174h-114v174h-449v99l258 577h131l-252 -571h312v264h114v-264z" />
    <glyph glyph-name="uni2085" unicode="&#x2085;" horiz-adv-x="735" 
d="M369 270q134 0 216.5 -76t82.5 -206q0 -135 -87.5 -216t-238.5 -81q-107 0 -189.5 40.5t-123.5 114.5l90 78q29 -56 89 -86.5t134 -30.5q91 0 145 49.5t54 133.5q0 89 -54.5 137.5t-148.5 48.5q-118 0 -199 -70l-59 15l43 442h502v-114h-402l-22 -220q74 41 168 41z" />
    <glyph glyph-name="uni2086" unicode="&#x2086;" horiz-adv-x="788" 
d="M442 287q130 0 212.5 -82.5t82.5 -206.5q0 -134 -90.5 -220.5t-240.5 -86.5q-147 0 -241.5 88.5t-94.5 245.5q0 287 340 569l118 -49q-113 -97 -183 -176.5t-112 -165.5q81 84 209 84zM406 -193q94 0 147 51t53 140q0 83 -54.5 133.5t-139.5 50.5q-94 0 -154.5 -53
t-60.5 -135q0 -87 59 -137t150 -50z" />
    <glyph glyph-name="uni2087" unicode="&#x2087;" horiz-adv-x="708" 
d="M55 449v114h598v-92l-356 -758h-135l348 736h-455z" />
    <glyph glyph-name="uni2088" unicode="&#x2088;" horiz-adv-x="802" 
d="M582 164q73 -30 113 -85.5t40 -129.5q0 -118 -90 -188t-244 -70t-242.5 70t-88.5 188q0 75 39.5 130.5t111.5 84.5q-121 60 -121 192q0 104 81.5 167t219.5 63q137 0 219 -63.5t82 -166.5q0 -130 -120 -192zM401 469q-78 0 -125 -34.5t-47 -94.5q0 -59 46.5 -93
t125.5 -34q77 0 124.5 34.5t47.5 92.5q0 60 -47 94.5t-125 34.5zM401 -193q90 0 147.5 43t57.5 109q0 70 -56 112t-149 42q-92 0 -147 -42t-55 -112q0 -69 55 -110.5t147 -41.5z" />
    <glyph glyph-name="uni2089" unicode="&#x2089;" horiz-adv-x="788" 
d="M383 584q147 0 241.5 -88.5t94.5 -243.5q0 -284 -340 -571l-119 51q114 98 183.5 176.5t111.5 165.5q-84 -84 -209 -84q-131 0 -213 81t-82 205q0 134 91 221t241 87zM375 92q95 0 156 54.5t61 136.5q0 86 -59 135t-150 49q-95 0 -148 -51.5t-53 -139.5
q0 -81 54.5 -132.5t138.5 -51.5z" />
    <glyph glyph-name="Euro" unicode="&#x20ac;" horiz-adv-x="1413" 
d="M868 109q125 0 222 56t145 152l111 -71q-62 -124 -192.5 -195t-289.5 -71q-225 0 -381.5 142t-206.5 390h-196v111h180q-4 66 -4 100q0 59 6 111h-182v112h199q51 242 207 381t378 139q159 0 289.5 -71t192.5 -195l-111 -70q-48 95 -145.5 151t-221.5 56
q-162 0 -278 -102t-160 -289h508v-112h-526q-6 -52 -6 -111q0 -34 4 -100h528v-111h-512q42 -193 159.5 -298t282.5 -105z" />
    <glyph glyph-name="uni20BA" unicode="&#x20ba;" horiz-adv-x="1245" 
d="M1010 743h147q0 -346 -199 -544.5t-546 -198.5h-144v547l-170 -76l-37 107l207 92v217l-180 -80l-37 106l217 97v436h144v-373l428 191l34 -107l-462 -207v-217l438 195l35 -105l-473 -211v-477q278 0 438 162.5t160 445.5z" />
    <glyph glyph-name="uni20BD" unicode="&#x20bd;" horiz-adv-x="1271" 
d="M715 584h-320v-205h549v-113h-549v-266h-145v266h-152v113h152v211h-152v123h152v733h475q239 0 348 -111t109 -309q0 -217 -122.5 -329.5t-344.5 -112.5zM698 1313h-303v-596h297q172 0 257 71.5t85 237.5q0 155 -77 221t-259 66z" />
    <glyph glyph-name="uni2113" unicode="&#x2113;" horiz-adv-x="1103" 
d="M883 295l108 -49q-90 -269 -329 -269q-168 0 -257.5 120t-89.5 341v41q-146 12 -254 66l5 125q109 -53 249 -70v346q0 275 87.5 426.5t267.5 151.5q150 0 228.5 -116t78.5 -304q0 -168 -58.5 -303t-179.5 -223t-288 -101v-45q0 -330 219 -330q45 0 78.5 12.5t58 39.5
t41.5 59.5t35 81.5zM659 1399q-208 0 -208 -445v-358q190 20 288.5 154.5t98.5 353.5q0 61 -9 111t-28.5 93t-55.5 67t-86 24z" />
    <glyph glyph-name="uni2116" unicode="&#x2116;" horiz-adv-x="2332" 
d="M1901 573q-163 0 -264 119t-101 330t100 328.5t265 117.5q166 0 265 -118t99 -328q0 -209 -100 -329t-264 -120zM328 0h-146v1446h135l824 -1182v1182h143v-1446h-133l-823 1182v-1182zM1901 690q106 0 170.5 90t64.5 242t-64 241t-171 89q-108 0 -172 -88.5t-64 -241.5
q0 -152 64.5 -242t171.5 -90zM2218 309h-631v113h631v-113z" />
    <glyph glyph-name="trademark" unicode="&#x2122;" horiz-adv-x="1370" 
d="M236 1350h-193v96h492v-96h-193v-531h-106v531zM969 1090l192 356h135v-627h-102v488l-197 -353h-57l-188 340v-475h-103v627h127z" />
    <glyph glyph-name="uni2126" unicode="&#x2126;" horiz-adv-x="1693" 
d="M1573 760q0 -201 -96.5 -369.5t-272.5 -257.5h365v-133h-584v133q212 70 326 233t114 375q0 260 -159 426t-418 166q-172 0 -304 -76t-203 -210.5t-71 -305.5q0 -212 113.5 -375t325.5 -233v-133h-582v133h362q-176 89 -272 257.5t-96 369.5q0 149 54.5 280t149.5 225
t231 148.5t292 54.5t291.5 -54.5t230.5 -148.5t149 -225t54 -280z" />
    <glyph glyph-name="estimated" unicode="&#x212e;" horiz-adv-x="1701" 
d="M1581 723v-21h-1208v-491q190 -184 495 -184q225 0 380.5 96t228.5 280l43 -20q-81 -198 -249.5 -300.5t-402.5 -102.5q-170 0 -311.5 58.5t-236 159.5t-147 236t-52.5 289q0 152 54.5 288.5t150.5 237t233.5 159t296.5 58.5q161 0 298 -58.5t230 -159t145 -236.5
t52 -289zM1329 750v489q-183 180 -473 180q-145 0 -268.5 -49t-214.5 -139v-481h956z" />
    <glyph glyph-name="partialdiff" unicode="&#x2202;" horiz-adv-x="1253" 
d="M313 1376l9 125q201 -13 361.5 -88.5t264 -198t158.5 -282t55 -344.5q0 -295 -145.5 -453t-384.5 -158q-233 0 -386 152t-153 379q0 226 142 372t368 146q115 0 218 -44t175 -140q-65 240 -240.5 378.5t-441.5 155.5zM629 102q174 0 285.5 119.5t111.5 306.5
q0 161 -116 268t-285 107q-181 0 -288.5 -110.5t-107.5 -284.5q0 -173 113.5 -289.5t286.5 -116.5z" />
    <glyph glyph-name="emptyset" unicode="&#x2205;" horiz-adv-x="1447" 
d="M1257 1382l-129 -190q108 -86 168 -214.5t60 -281.5q0 -180 -82.5 -325t-227 -226.5t-323.5 -81.5q-165 0 -307 74l-94 -137h-134l134 199q-108 87 -169 215t-61 282q0 135 48.5 252.5t132 201t200.5 131.5t250 48q170 0 313 -76l86 129h135zM219 696q0 -121 44.5 -224
t125.5 -173l580 856q-109 59 -246 59q-218 0 -361 -147t-143 -371zM723 178q220 0 363 147t143 371q0 121 -44.5 223.5t-123.5 172.5l-580 -856q110 -58 242 -58z" />
    <glyph glyph-name="uni2206" unicode="&#x2206;" horiz-adv-x="1325" 
d="M582 1446h163l519 -1337v-109h-1203v109zM1102 133l-440 1151l-439 -1151h879z" />
    <glyph glyph-name="product" unicode="&#x220f;" horiz-adv-x="1472" 
d="M328 -401h-146v1847h1106v-1847h-143v1714h-817v-1714z" />
    <glyph glyph-name="summation" unicode="&#x2211;" horiz-adv-x="1136" 
d="M1075 -401h-1030v108l555 858l-524 772v109h964v-133h-778l496 -725v-41l-531 -815h848v-133z" />
    <glyph glyph-name="minus" unicode="&#x2212;" horiz-adv-x="1062" 
d="M967 575h-873v127h873v-127z" />
    <glyph glyph-name="uni2215" unicode="&#x2215;" horiz-adv-x="387" 
d="M-164 0h-135l850 1446h135z" />
    <glyph glyph-name="uni2219" unicode="&#x2219;" horiz-adv-x="471" 
d="M236 535q-46 0 -77.5 29.5t-31.5 76.5q0 46 31 75t78 29t77.5 -28.5t30.5 -75.5t-31 -76.5t-77 -29.5z" />
    <glyph glyph-name="radical" unicode="&#x221a;" horiz-adv-x="1257" 
d="M578 188l520 1459h141l-588 -1647h-143l-277 748h-168v126h263z" />
    <glyph glyph-name="infinity" unicode="&#x221e;" horiz-adv-x="1730" 
d="M1233 1057q172 0 288.5 -119.5t116.5 -298.5t-116 -297.5t-289 -118.5q-131 0 -227.5 63t-141.5 171q-45 -108 -141 -171t-227 -63q-171 0 -287.5 118.5t-116.5 297.5q0 180 116.5 299t287.5 119q131 0 227 -63t141 -173q45 109 141.5 172.5t227.5 63.5zM512 348
q125 0 205 83t80 208q0 127 -80 210t-205 83q-124 0 -203.5 -83t-79.5 -210q0 -125 79.5 -208t203.5 -83zM1219 348q123 0 201.5 82.5t78.5 208.5q0 127 -79 210t-201 83q-125 0 -205 -83t-80 -210q0 -125 80 -208t205 -83z" />
    <glyph glyph-name="integral" unicode="&#x222b;" horiz-adv-x="739" 
d="M123 -424q-66 0 -111 10v123q66 -8 101 -8q89 0 128.5 50t39.5 177v1370q0 183 80 277t264 94q54 0 100 -8v-123q-41 6 -94 6q-121 0 -168 -56t-47 -206v-1368q0 -163 -72 -250.5t-221 -87.5z" />
    <glyph glyph-name="approxequal" unicode="&#x2248;" horiz-adv-x="1134" 
d="M758 731q-52 0 -108.5 23.5t-97.5 51.5t-90.5 51.5t-90.5 23.5q-74 0 -117.5 -40t-69.5 -112l-90 45q25 112 99.5 175t181.5 63q52 0 108.5 -23.5t97.5 -51.5t90.5 -51.5t90.5 -23.5q78 0 119.5 39t66.5 111l90 -47q-25 -111 -98.5 -172.5t-181.5 -61.5zM758 268
q-52 0 -108.5 23.5t-97.5 51.5t-90.5 51.5t-90.5 23.5q-74 0 -117.5 -40.5t-69.5 -113.5l-90 47q25 112 99 174t182 62q52 0 108.5 -23t97.5 -51t90.5 -51t90.5 -23q78 0 119.5 39t66.5 111l90 -47q-25 -111 -98.5 -172.5t-181.5 -61.5z" />
    <glyph glyph-name="notequal" unicode="&#x2260;" horiz-adv-x="1062" 
d="M967 950v-127h-308l-139 -368h447v-127h-496l-117 -312h-118l116 312h-258v127h307l140 368h-447v127h494l119 314h118l-118 -314h260z" />
    <glyph glyph-name="lessequal" unicode="&#x2264;" horiz-adv-x="995" 
d="M250 788l676 -303v-139l-846 383v119l846 381v-139zM66 0v127h864v-127h-864z" />
    <glyph glyph-name="greaterequal" unicode="&#x2265;" horiz-adv-x="1026" 
d="M109 1229l845 -381v-119l-845 -383v139l673 303l-673 302v139zM94 0v127h864v-127h-864z" />
    <glyph glyph-name="lozenge" unicode="&#x25ca;" horiz-adv-x="1107" 
d="M618 0h-129l-407 723l407 723h129l410 -723zM236 723l319 -571l317 571l-317 571z" />
    <glyph glyph-name="uni004A0301" horiz-adv-x="1099" 
d="M950 1573h-125l164 278h160zM532 -23q-355 0 -464 312l122 63q43 -121 124.5 -180t209.5 -59q157 0 223 98t66 307v928h143v-926q0 -99 -12 -178.5t-42 -149t-77.5 -116t-121.5 -73t-171 -26.5z" />
    <glyph glyph-name="Adieresis.alt" horiz-adv-x="1318" 
d="M397 1796h164v-174h-164v174zM756 1796h162v-174h-162v174zM1290 0h-153l-142 377h-673l-140 -377h-153l549 1446h163zM944 512l-285 772l-286 -772h571z" />
    <glyph glyph-name="Edieresis.alt" horiz-adv-x="1142" 
d="M506 1622h-164v174h164v-174zM862 1622h-162v174h162v-174zM1042 0h-860v1446h840v-133h-694v-522h604v-134h-604v-524h714v-133z" />
    <glyph glyph-name="Edotaccent.alt" horiz-adv-x="1142" 
d="M688 1616h-170v184h170v-184zM1042 0h-860v1446h840v-133h-694v-522h604v-134h-604v-524h714v-133z" />
    <glyph glyph-name="Idieresis.alt" horiz-adv-x="534" 
d="M170 1622h-164v174h164v-174zM526 1622h-161v174h161v-174zM338 0h-143v1446h143v-1446z" />
    <glyph glyph-name="Idotaccent.alt" horiz-adv-x="534" 
d="M352 1616h-170v184h170v-184zM338 0h-143v1446h143v-1446z" />
    <glyph glyph-name="Ldot.alt" horiz-adv-x="1093" 
d="M1034 0h-852v1446h146v-1313h706v-133zM897 651h-188v199h188v-199z" />
    <glyph glyph-name="Odieresis.alt" horiz-adv-x="1730" 
d="M768 1622h-164v174h164v-174zM1124 1622h-161v174h161v-174zM864 -23q-210 0 -380 96.5t-266.5 267.5t-96.5 382t96.5 381.5t266.5 267t380 96.5q211 0 382 -96.5t267.5 -267t96.5 -381.5q0 -158 -57 -296.5t-155.5 -237t-237 -155.5t-296.5 -57zM864 113
q259 0 427.5 173t168.5 437t-168.5 437t-427.5 173q-170 0 -305.5 -78.5t-212 -218t-76.5 -313.5t76.5 -313.5t212 -218t305.5 -78.5z" />
    <glyph glyph-name="Udieresis.alt" horiz-adv-x="1392" 
d="M598 1622h-164v174h164v-174zM954 1622h-161v174h161v-174zM696 -23q-553 0 -553 607v862h144v-856q0 -240 95.5 -358.5t313.5 -118.5q217 0 312.5 119t95.5 358v856h145v-862q0 -607 -553 -607z" />
    <glyph glyph-name="Ydieresis.alt" horiz-adv-x="1208" 
d="M506 1622h-164v174h164v-174zM862 1622h-162v174h162v-174zM676 0h-144v571l-512 875h166l418 -723l418 723h168l-514 -875v-571z" />
    <glyph glyph-name="Zdotaccent.alt" horiz-adv-x="1159" 
d="M504 1800h170v-184h-170v184zM1063 1335l-791 -1202h838v-133h-1022v111l791 1202h-766v133h950v-111z" />
    <glyph glyph-name="i.loclTRK" horiz-adv-x="477" 
d="M240 1264q-43 0 -72 28.5t-29 71.5q0 41 29 68.5t72 27.5t71.5 -27.5t28.5 -68.5q0 -43 -28.5 -71.5t-71.5 -28.5zM307 0h-135v1026h135v-1026z" />
    <glyph glyph-name="uni006A0301" horiz-adv-x="477" 
d="M293 1198h-123l156 303h149zM12 -424q-63 0 -108 10v123q66 -8 100 -8q89 0 128.5 50t39.5 177v1098h135v-1112q0 -163 -72.5 -250.5t-222.5 -87.5z" />
    <glyph glyph-name="adieresis.alt" horiz-adv-x="1269" 
d="M516 1278h-164v176h164v-176zM872 1278h-161v176h161v-176zM584 -23q-144 0 -256.5 70t-174 191.5t-61.5 273.5q0 233 136.5 384t355.5 151q141 0 244.5 -66t154.5 -178v223h135v-1026h-135v223q-52 -112 -155.5 -179t-243.5 -67zM606 102q164 0 270.5 115.5t106.5 294.5
t-106.5 294.5t-270.5 115.5q-168 0 -272.5 -116.5t-104.5 -293.5q0 -176 104.5 -293t272.5 -117z" />
    <glyph glyph-name="edieresis.alt" horiz-adv-x="1202" 
d="M350 1454h164v-176h-164v176zM709 1454h161v-176h-161v176zM1116 512q0 -9 -1 -27.5t-1 -27.5h-885q18 -159 124.5 -257t279.5 -98q228 0 325 181l125 -56q-63 -121 -180 -185.5t-274 -64.5q-243 0 -390 151t-147 384q0 231 146.5 383t371.5 152q226 0 366 -151t140 -384
zM616 922q-154 0 -259.5 -96.5t-125.5 -250.5h750q-18 157 -115 252t-250 95z" />
    <glyph glyph-name="edotaccent.alt" horiz-adv-x="1202" 
d="M524 1458h170v-184h-170v184zM1116 512q0 -9 -1 -27.5t-1 -27.5h-885q18 -159 124.5 -257t279.5 -98q228 0 325 181l125 -56q-63 -121 -180 -185.5t-274 -64.5q-243 0 -390 151t-147 384q0 231 146.5 383t371.5 152q226 0 366 -151t140 -384zM616 922
q-154 0 -259.5 -96.5t-125.5 -250.5h750q-18 157 -115 252t-250 95z" />
    <glyph glyph-name="i.alt" horiz-adv-x="477" 
d="M324 1274h-170v184h170v-184zM307 0h-135v1026h135v-1026z" />
    <glyph glyph-name="idieresis.alt" horiz-adv-x="477" 
d="M158 1278h-162v176h162v-176zM481 1278h-162v176h162v-176zM307 0h-135v1026h135v-1026z" />
    <glyph glyph-name="i.loclTRK.alt" horiz-adv-x="477" 
d="M324 1274h-170v184h170v-184zM307 0h-135v1026h135v-1026z" />
    <glyph glyph-name="iogonek.alt" horiz-adv-x="477" 
d="M154 1274v184h170v-184h-170zM172 10v1016h135v-1026q-209 -99 -209 -242q0 -55 32.5 -84.5t86.5 -29.5q40 0 90 20v-102q-54 -23 -114 -23q-99 0 -157.5 51.5t-58.5 137.5q0 89 54 160.5t141 121.5z" />
    <glyph glyph-name="j.alt" horiz-adv-x="477" 
d="M324 1274h-170v184h170v-184zM12 -424q-63 0 -108 10v123q66 -8 100 -8q89 0 128.5 50t39.5 177v1098h135v-1112q0 -163 -72.5 -250.5t-222.5 -87.5z" />
    <glyph glyph-name="ldot.alt" horiz-adv-x="667" 
d="M307 0h-135v1501h135v-1501zM668 651h-191v199h191v-199z" />
    <glyph glyph-name="odieresis.alt" horiz-adv-x="1255" 
d="M530 1278h-163v176h163v-176zM887 1278h-162v176h162v-176zM629 -23q-232 0 -384.5 152.5t-152.5 382.5q0 152 69 274t192 191.5t276 69.5q231 0 383.5 -152.5t152.5 -382.5q0 -229 -152.5 -382t-383.5 -153zM629 102q172 0 284.5 117t112.5 293t-112.5 293t-284.5 117
q-174 0 -287 -117t-113 -293t113 -293t287 -117z" />
    <glyph glyph-name="udieresis.alt" horiz-adv-x="1165" 
d="M477 1278h-164v176h164v-176zM834 1278h-162v176h162v-176zM520 -23q-187 0 -288 113.5t-101 321.5v614h135v-598q0 -158 71.5 -242t211.5 -84q157 0 244.5 107.5t87.5 290.5v526h135v-1026h-135v209q-104 -232 -361 -232z" />
    <glyph glyph-name="ydieresis.alt" horiz-adv-x="1064" 
d="M272 1454h164v-176h-164v176zM631 1454h162v-176h-162v176zM539 160l344 866h147l-575 -1427h-150l170 395l-438 1032h149z" />
    <glyph glyph-name="zdotaccent.alt" horiz-adv-x="978" 
d="M399 1458h170v-184h-170v184zM860 932l-579 -809h620v-123h-805v92l582 809h-572v125h754v-94z" />
    <glyph glyph-name="germandbls.calt" horiz-adv-x="1353" 
d="M852 877q180 0 291.5 -115t111.5 -316q0 -214 -133 -341.5t-383 -127.5q-113 0 -221 31l35 135q77 -30 188 -30q174 0 270.5 86.5t96.5 246.5q0 154 -85.5 235t-229.5 81q-51 0 -148 -19l-55 70l399 502h-651v-1315h-143v1446h981v-105l-379 -467q30 3 55 3z" />
    <glyph glyph-name="fi.alt" horiz-adv-x="1193" 
d="M229 1026v127q0 183 80 277t264 94q53 0 103 -8v-123q-41 6 -96 6q-121 0 -168 -56t-47 -206v-111h303v-125h-303v-901h-136v901h-192v125h192zM870 1274v184h170v-184h-170zM1024 0h-135v1026h135v-1026z" />
    <glyph glyph-name="zero.dnom" horiz-adv-x="866" 
d="M434 -23q-163 0 -263.5 119t-100.5 330t99.5 328.5t264.5 117.5q166 0 265.5 -118t99.5 -328q0 -209 -100.5 -329t-264.5 -120zM434 94q106 0 171 90.5t65 241.5q0 152 -64.5 241t-171.5 89q-108 0 -171.5 -88.5t-63.5 -241.5q0 -152 64 -242t171 -90z" />
    <glyph glyph-name="one.dnom" horiz-adv-x="546" 
d="M414 0h-125v705l-219 -91l-39 107l342 139h41v-860z" />
    <glyph glyph-name="two.dnom" horiz-adv-x="720" 
d="M373 233l-129 -116h420v-117h-605v90l185 172q153 142 208.5 211.5t55.5 147.5q0 67 -43.5 101t-118.5 34q-143 0 -196 -115l-105 68q32 73 114 118t193 45q132 0 207.5 -66.5t75.5 -178.5q0 -52 -15.5 -98.5t-54 -96t-79 -91t-113.5 -108.5z" />
    <glyph glyph-name="three.dnom" horiz-adv-x="729" 
d="M621 760l-240 -234q126 -4 201 -78.5t75 -191.5q0 -130 -85 -204.5t-222 -74.5q-115 0 -196.5 43t-118.5 111l88 78q26 -52 85.5 -83.5t133.5 -31.5q85 0 136.5 46.5t51.5 125.5q0 81 -51 127.5t-139 46.5q-70 0 -107 -18l-45 61l265 254h-369v113h537v-90z" />
    <glyph glyph-name="four.dnom" horiz-adv-x="765" 
d="M606 279h117v-105h-117v-174h-114v174h-449v98l258 578h131l-252 -571h312v264h114v-264z" />
    <glyph glyph-name="five.dnom" horiz-adv-x="735" 
d="M369 557q134 0 216.5 -76.5t82.5 -206.5q0 -135 -87.5 -216t-238.5 -81q-107 0 -189.5 41t-123.5 115l90 78q29 -56 89 -86.5t134 -30.5q91 0 145 49t54 133q0 89 -54.5 138t-148.5 49q-118 0 -199 -70l-59 15l43 442h502v-115h-402l-22 -219q74 41 168 41z" />
    <glyph glyph-name="six.dnom" horiz-adv-x="788" 
d="M442 573q131 0 213 -82t82 -206q0 -134 -90.5 -221t-240.5 -87q-147 0 -241.5 88.5t-94.5 245.5q0 288 340 570l118 -50q-113 -97 -183 -176.5t-112 -165.5q81 84 209 84zM406 94q94 0 147 51t53 140q0 83 -54.5 133.5t-139.5 50.5q-94 0 -154.5 -53t-60.5 -135
q0 -87 59 -137t150 -50z" />
    <glyph glyph-name="seven.dnom" horiz-adv-x="708" 
d="M55 735v115h598v-92l-356 -758h-135l348 735h-455z" />
    <glyph glyph-name="eight.dnom" horiz-adv-x="802" 
d="M582 451q73 -30 113 -85.5t40 -129.5q0 -118 -90 -188.5t-244 -70.5t-242.5 70.5t-88.5 188.5q0 75 39.5 130.5t111.5 84.5q-121 61 -121 192q0 104 81.5 166.5t219.5 62.5q137 0 219 -63t82 -166q0 -130 -120 -192zM401 756q-78 0 -125 -34.5t-47 -94.5q0 -59 46.5 -93
t125.5 -34q77 0 124.5 34.5t47.5 92.5q0 60 -47 94.5t-125 34.5zM401 94q90 0 147.5 43t57.5 109q0 70 -56 111.5t-149 41.5q-92 0 -147 -41.5t-55 -111.5q0 -69 55 -110.5t147 -41.5z" />
    <glyph glyph-name="nine.dnom" horiz-adv-x="788" 
d="M383 872q147 0 241.5 -88t94.5 -245q0 -288 -340 -570l-119 49q113 97 183 176.5t112 165.5q-81 -84 -209 -84q-130 0 -212.5 82t-82.5 207q0 134 91 220.5t241 86.5zM377 381q94 0 154.5 53t60.5 135q0 87 -59 137t-150 50q-95 0 -148 -51.5t-53 -139.5q0 -82 54.5 -133
t140.5 -51z" />
    <glyph glyph-name="zero.numr" horiz-adv-x="866" 
d="M434 573q-163 0 -263.5 119t-100.5 330t99.5 328.5t264.5 117.5q166 0 265.5 -118t99.5 -328q0 -209 -100.5 -329t-264.5 -120zM434 690q106 0 171 90.5t65 241.5q0 152 -64.5 241t-171.5 89q-108 0 -171.5 -88.5t-63.5 -241.5q0 -152 64 -242t171 -90z" />
    <glyph glyph-name="one.numr" horiz-adv-x="546" 
d="M414 596h-125v704l-219 -90l-39 107l342 139h41v-860z" />
    <glyph glyph-name="two.numr" horiz-adv-x="720" 
d="M373 829l-129 -116h420v-117h-605v90l185 172q153 142 208.5 211.5t55.5 147.5q0 67 -43.5 101t-118.5 34q-143 0 -196 -115l-105 68q32 73 114 118t193 45q132 0 207.5 -66.5t75.5 -178.5q0 -52 -15.5 -98.5t-54 -96t-79 -91t-113.5 -108.5z" />
    <glyph glyph-name="three.numr" horiz-adv-x="729" 
d="M621 1356l-240 -234q126 -4 201 -78.5t75 -191.5q0 -130 -85 -204.5t-222 -74.5q-115 0 -196.5 43t-118.5 111l88 78q26 -52 85.5 -83.5t133.5 -31.5q85 0 136.5 46.5t51.5 125.5q0 81 -51 127.5t-139 46.5q-70 0 -107 -18l-45 61l265 254h-369v113h537v-90z" />
    <glyph glyph-name="four.numr" horiz-adv-x="765" 
d="M606 874h117v-104h-117v-174h-114v174h-449v98l258 578h131l-252 -572h312v265h114v-265z" />
    <glyph glyph-name="five.numr" horiz-adv-x="735" 
d="M369 1153q134 0 216.5 -76.5t82.5 -206.5q0 -135 -87.5 -216t-238.5 -81q-107 0 -189.5 41t-123.5 115l90 78q29 -56 89 -86.5t134 -30.5q91 0 145 49t54 133q0 89 -54.5 138t-148.5 49q-118 0 -199 -70l-59 15l43 442h502v-115h-402l-22 -219q74 41 168 41z" />
    <glyph glyph-name="six.numr" horiz-adv-x="788" 
d="M442 1169q131 0 213 -82t82 -206q0 -134 -90.5 -221t-240.5 -87q-147 0 -241.5 88.5t-94.5 245.5q0 288 340 570l118 -50q-113 -97 -183 -176.5t-112 -165.5q81 84 209 84zM406 690q94 0 147 51t53 140q0 83 -54.5 133.5t-139.5 50.5q-94 0 -154.5 -53t-60.5 -135
q0 -87 59 -137t150 -50z" />
    <glyph glyph-name="seven.numr" horiz-adv-x="708" 
d="M55 1331v115h598v-92l-356 -758h-135l348 735h-455z" />
    <glyph glyph-name="eight.numr" horiz-adv-x="802" 
d="M582 1047q73 -30 113 -86t40 -130q0 -118 -90 -188t-244 -70t-242.5 70t-88.5 188q0 75 39.5 131t111.5 85q-121 61 -121 192q0 104 81.5 166.5t219.5 62.5q137 0 219 -63t82 -166q0 -130 -120 -192zM401 1352q-78 0 -125 -34.5t-47 -94.5q0 -59 46.5 -93t125.5 -34
q77 0 124.5 34.5t47.5 92.5q0 60 -47 94.5t-125 34.5zM401 690q90 0 147.5 43t57.5 109q0 70 -56 111.5t-149 41.5q-92 0 -147 -41.5t-55 -111.5q0 -69 55 -110.5t147 -41.5z" />
    <glyph glyph-name="nine.numr" horiz-adv-x="788" 
d="M383 1468q147 0 241.5 -88t94.5 -245q0 -288 -340 -570l-119 49q113 97 183 176.5t112 165.5q-81 -84 -209 -84q-130 0 -212.5 82t-82.5 207q0 134 91 220.5t241 86.5zM377 977q94 0 154.5 53t60.5 135q0 87 -59 137t-150 50q-95 0 -148 -51.5t-53 -139.5
q0 -82 54.5 -133t140.5 -51z" />
    <glyph glyph-name="period.alt" horiz-adv-x="446" 
d="M317 -2h-190v199h190v-199z" />
    <glyph glyph-name="colon.alt" horiz-adv-x="444" 
d="M317 827h-190v199h190v-199zM317 0h-190v197h190v-197z" />
    <glyph glyph-name="semicolon.alt" horiz-adv-x="481" 
d="M328 827h-191v199h191v-199zM225 -303h-110l71 559h164z" />
    <glyph glyph-name="ellipsis.alt" horiz-adv-x="1337" 
d="M317 -2h-190v199h190v-199zM764 -2h-191v199h191v-199zM1208 -2h-190v199h190v-199z" />
    <glyph glyph-name="exclam.alt" horiz-adv-x="444" 
d="M276 389h-108l-31 1057h168zM317 -2h-190v199h190v-199z" />
    <glyph glyph-name="exclamdown.alt" horiz-adv-x="444" 
d="M127 1026h190v-199h-190v199zM168 635h108l29 -1057h-168z" />
    <glyph glyph-name="question.alt" horiz-adv-x="1019" 
d="M535 389h-121q0 65 20 125t52 107t71 92t78 87.5t71 85t52 92.5t20 103q0 113 -81.5 183.5t-217.5 70.5q-113 0 -197.5 -58t-115.5 -155l-127 49q51 144 171.5 219.5t276.5 75.5q118 0 216 -41.5t160.5 -127.5t62.5 -203q0 -66 -21.5 -126.5t-56 -108.5t-76.5 -93.5
t-83.5 -89t-76 -86.5t-56 -95t-21.5 -106zM580 0h-189v197h189v-197z" />
    <glyph glyph-name="questiondown.alt" horiz-adv-x="1019" 
d="M436 1034h189v-196h-189v196zM487 653h121q0 -65 -20 -125t-52.5 -107t-71.5 -92t-78 -87.5t-71.5 -85t-52.5 -92.5t-20 -103q0 -113 81.5 -183.5t217.5 -70.5q113 0 198 58t117 155l127 -47q-52 -144 -173 -220.5t-275 -76.5q-87 0 -166.5 25t-140.5 71t-97.5 118
t-36.5 159q0 66 21.5 127t56.5 109t76.5 93.5t83.5 89t77 86.5t56.5 94t21.5 105z" />
    <glyph glyph-name="periodcentered.alt" horiz-adv-x="446" 
d="M317 414h-190v196h190v-196z" />
    <glyph glyph-name="bullet.alt" horiz-adv-x="647" 
d="M532 299h-405v424h405v-424z" />
    <glyph glyph-name="exclamdown.case.alt" horiz-adv-x="444" 
d="M127 1448h190v-199h-190v199zM168 1057h108l31 -1057h-168z" />
    <glyph glyph-name="questiondown.case.alt" horiz-adv-x="1021" 
d="M440 1446h191v-197h-191v197zM487 1057h121q0 -65 -20 -125t-52.5 -107t-71.5 -92t-78 -87.5t-71.5 -85t-52.5 -92.5t-20 -103q0 -113 81.5 -183.5t217.5 -70.5q113 0 198 58t117 155l127 -50q-52 -144 -173 -219t-275 -75q-88 0 -166.5 24.5t-140 70t-98 117.5
t-36.5 160q0 66 21.5 126.5t56.5 108.5t76.5 93.5t83.5 89t77 86.5t56.5 95t21.5 106z" />
    <glyph glyph-name="periodcentered.case.alt" horiz-adv-x="446" 
d="M317 623h-190v198h190v-198z" />
    <glyph glyph-name="bullet.case.alt" horiz-adv-x="647" 
d="M532 510h-405v422h405v-422z" />
    <glyph glyph-name="periodcentered.loclCAT.alt" horiz-adv-x="348" 
d="M268 651h-188v199h188v-199z" />
    <glyph glyph-name="exclamdown.case" horiz-adv-x="471" 
d="M236 1458q47 0 77.5 -29.5t30.5 -78.5q0 -45 -31 -75t-77 -30t-77.5 30t-31.5 75q0 49 31 78.5t78 29.5zM182 1057h107l30 -1057h-167z" />
    <glyph glyph-name="questiondown.case" horiz-adv-x="1021" 
d="M535 1458q48 0 78 -29.5t30 -78.5q0 -46 -30.5 -75.5t-77.5 -29.5q-46 0 -77.5 30t-31.5 75q0 49 31 78.5t78 29.5zM487 1057h121q0 -65 -20 -125t-52.5 -107t-71.5 -92t-78 -87.5t-71.5 -85t-52.5 -92.5t-20 -103q0 -113 81.5 -183.5t217.5 -70.5q113 0 198 58t117 155
l127 -50q-52 -144 -173 -219t-275 -75q-88 0 -166.5 24.5t-140 70t-98 117.5t-36.5 160q0 66 21.5 126.5t56.5 108.5t76.5 93.5t83.5 89t77 86.5t56.5 95t21.5 106z" />
    <glyph glyph-name="periodcentered.case" horiz-adv-x="471" 
d="M236 616q-47 0 -78 30t-31 79q0 45 31.5 74.5t77.5 29.5t77 -29.5t31 -74.5q0 -49 -30.5 -79t-77.5 -30z" />
    <glyph glyph-name="bullet.case" horiz-adv-x="704" 
d="M358 498q-101 0 -166 62.5t-65 164.5q0 100 65 162.5t166 62.5t166.5 -62.5t65.5 -162.5q0 -102 -65.5 -164.5t-166.5 -62.5z" />
    <glyph glyph-name="periodcentered.loclCAT" horiz-adv-x="348" 
d="M174 645q-47 0 -77.5 30t-30.5 79q0 45 31 74.5t77 29.5t77.5 -29.5t31.5 -74.5q0 -49 -31 -79t-78 -30z" />
    <glyph glyph-name="parenleft.case" horiz-adv-x="684" 
d="M657 -66l-63 -110q-228 119 -359 352t-131 535q0 301 131.5 533t358.5 349l63 -108q-192 -95 -302.5 -301.5t-110.5 -472.5q0 -268 110.5 -475.5t302.5 -301.5z" />
    <glyph glyph-name="parenright.case" horiz-adv-x="684" 
d="M90 -176l-61 110q192 94 301.5 301t109.5 476q0 267 -109.5 473t-301.5 301l61 108q227 -117 358.5 -349t131.5 -533q0 -302 -131 -535t-359 -352z" />
    <glyph glyph-name="braceleft.case" horiz-adv-x="720" 
d="M352 1290v-360q0 -181 -159 -228q159 -47 159 -225v-356q0 -73 43 -116.5t117 -43.5h172v-123h-201q-124 0 -195 71.5t-71 194.5v379q0 74 -43.5 118t-120.5 44h-37v119h37q77 0 120.5 43t43.5 117v381q0 124 71 196t195 72h201v-123h-172q-73 0 -116.5 -44t-43.5 -116z
" />
    <glyph glyph-name="braceright.case" horiz-adv-x="720" 
d="M668 764h37v-119h-37q-77 0 -120.5 -44t-43.5 -118v-379q0 -123 -71 -194.5t-195 -71.5h-201v123h172q73 0 116.5 43.5t43.5 116.5v356q0 178 159 225q-159 47 -159 228v360q0 72 -43.5 116t-116.5 44h-172v123h201q124 0 195 -72t71 -196v-381q0 -74 43.5 -117
t120.5 -43z" />
    <glyph glyph-name="bracketleft.case" horiz-adv-x="647" 
d="M610 -162h-438v1735h438v-123h-303v-1489h303v-123z" />
    <glyph glyph-name="bracketright.case" horiz-adv-x="647" 
d="M475 -162h-438v123h303v1489h-303v123h438v-1735z" />
    <glyph glyph-name="hyphen.case" horiz-adv-x="909" 
d="M797 659h-684v127h684v-127z" />
    <glyph glyph-name="uni00AD.case" horiz-adv-x="909" 
d="M797 659h-684v127h684v-127z" />
    <glyph glyph-name="endash.case" horiz-adv-x="1198" 
d="M1102 659h-1008v127h1008v-127z" />
    <glyph glyph-name="emdash.case" horiz-adv-x="1984" 
d="M1888 659h-1794v127h1794v-127z" />
    <glyph glyph-name="uni2015.case" horiz-adv-x="1984" 
d="M1888 659h-1794v127h1794v-127z" />
    <glyph glyph-name="uni2011.case" horiz-adv-x="909" 
d="M797 659h-684v127h684v-127z" />
    <glyph glyph-name="guillemotleft.case" horiz-adv-x="1024" 
d="M483 328l-104 -72l-316 463l316 465l104 -72l-268 -393zM940 328l-104 -72l-316 463l316 465l104 -72l-266 -393z" />
    <glyph glyph-name="guillemotright.case" horiz-adv-x="1024" 
d="M504 719l-316 -463l-104 72l266 391l-266 393l104 72zM961 719l-316 -463l-104 72l268 391l-268 393l104 72z" />
    <glyph glyph-name="guilsinglleft.case" horiz-adv-x="567" 
d="M483 328l-104 -72l-316 463l316 465l104 -72l-268 -393z" />
    <glyph glyph-name="guilsinglright.case" horiz-adv-x="567" 
d="M504 719l-316 -463l-104 72l266 391l-266 393l104 72z" />
    <glyph glyph-name="uni2219.alt" horiz-adv-x="446" 
d="M317 541h-190v196h190v-196z" />
    <glyph glyph-name="divide.alt" horiz-adv-x="1062" 
d="M627 930h-191v198h191v-198zM967 575h-873v127h873v-127zM627 152h-191v196h191v-196z" />
    <glyph glyph-name="at.case" horiz-adv-x="1712" 
d="M1030 930v117h127v-414q0 -189 135 -189q97 0 148 87t51 231q0 268 -173.5 439t-447.5 171q-184 0 -332 -81t-232.5 -228.5t-84.5 -333.5q0 -185 89 -332.5t243 -229t344 -81.5q221 0 375 98l47 -116q-173 -103 -422 -103q-173 0 -322.5 57.5t-255.5 158.5t-166.5 243
t-60.5 305q0 219 99.5 394.5t277.5 274.5t401 99q164 0 304 -55.5t238 -152.5t153 -233.5t55 -293.5q0 -192 -90 -310t-236 -118q-103 0 -170 55.5t-84 155.5q-72 -127 -219 -127q-125 0 -209 92t-84 231q0 138 81.5 229t203.5 91q73 0 129.5 -35t87.5 -96zM846 535
q84 0 135 58t51 148q0 89 -51 147t-135 58q-86 0 -136.5 -58t-50.5 -147q0 -90 50 -148t137 -58z" />
    <glyph glyph-name="uni030C.alt" 
d="M-444 1087h-103l8 414h136z" />
    <glyph glyph-name="uni0308.alt" 
d="M-555 1278h-164v176h164v-176zM-199 1278h-161v176h161v-176z" />
    <glyph glyph-name="uni0307.alt" 
d="M-113 1274h-170v184h170v-184z" />
    <glyph glyph-name="dotaccent.alt" horiz-adv-x="399" 
d="M287 1274h-170v184h170v-184z" />
    <glyph glyph-name="dieresis.alt" horiz-adv-x="667" 
d="M236 1278h-162v176h162v-176zM594 1278h-164v176h164v-176z" />
    <glyph glyph-name="uni0308.case.alt" 
d="M-555 1622h-164v174h164v-174zM-199 1622h-161v174h161v-174z" />
    <glyph glyph-name="uni0307.case.alt" 
d="M-205 1616h-170v184h170v-184z" />
    <glyph glyph-name="uni0308.narrow.alt" 
d="M-506 1278h-162v176h162v-176zM-182 1278h-162v176h162v-176z" />
    <glyph glyph-name="uni0308.case" 
d="M-649 1614q-41 0 -68.5 27.5t-27.5 68.5t27.5 67.5t68.5 26.5t68.5 -26.5t27.5 -67.5t-27.5 -68.5t-68.5 -27.5zM-289 1614q-41 0 -69.5 27.5t-28.5 68.5q0 40 28.5 67t69.5 27q40 0 68 -27t28 -67q0 -41 -28 -68.5t-68 -27.5z" />
    <glyph glyph-name="uni0307.case" 
d="M-305 1610q-43 0 -72 28.5t-29 71.5q0 42 29 70t72 28t71.5 -27.5t28.5 -70.5t-28.5 -71.5t-71.5 -28.5z" />
    <glyph glyph-name="gravecomb.case" 
d="M-205 1573h-125l-198 278h159z" />
    <glyph glyph-name="acutecomb.case" 
d="M-387 1573h-125l164 278h160z" />
    <glyph glyph-name="uni030B.case" 
d="M-725 1573h-125l164 278h160zM-387 1573h-123l164 278h160z" />
    <glyph glyph-name="uni0302.case" 
d="M-446 1851l241 -278h-133l-164 188l-164 -188h-135l242 278h113z" />
    <glyph glyph-name="uni030C.case" 
d="M-502 1661l164 190h133l-241 -278h-113l-242 278h133z" />
    <glyph glyph-name="uni0306.case" 
d="M-498 1573q-135 0 -209.5 73t-74.5 205h110q0 -170 174 -170q176 0 176 170h111q0 -132 -76 -205t-211 -73z" />
    <glyph glyph-name="uni030A.case" 
d="M-393 1526q-93 0 -153 55.5t-60 142.5t61 143t152 56q92 0 151.5 -55.5t59.5 -143.5q0 -87 -59 -142.5t-152 -55.5zM-393 1606q52 0 86.5 32.5t34.5 85.5q0 52 -34 85.5t-87 33.5q-52 0 -87.5 -33t-35.5 -86t35 -85.5t88 -32.5z" />
    <glyph glyph-name="tildecomb.case" 
d="M-375 1581q-42 0 -81 20t-63 44.5t-54 44.5t-56 20q-36 0 -56 -32.5t-20 -90.5h-108q0 107 47 170.5t127 63.5q43 0 82.5 -21t64 -45.5t55 -45.5t56.5 -21q70 0 70 127h112q0 -109 -47 -171.5t-129 -62.5z" />
    <glyph glyph-name="uni0304.case" 
d="M-205 1653h-530v110h530v-110z" />
    <glyph glyph-name="uni0308.narrow" 
d="M-602 1266q-43 0 -70.5 27.5t-27.5 70.5q0 40 28 67t70 27q41 0 68.5 -27t27.5 -67q0 -43 -27.5 -70.5t-68.5 -27.5zM-276 1266q-41 0 -70 28.5t-29 69.5q0 40 29 67t70 27q40 0 68 -27t28 -67q0 -41 -28 -69.5t-68 -28.5z" />
    <glyph glyph-name="gravecomb.narrow" 
d="M-205 1198h-123l-182 303h150z" />
    <glyph glyph-name="acutecomb.narrow" 
d="M-387 1198h-123l156 303h149z" />
    <glyph glyph-name="uni0302.narrow" 
d="M-446 1501l184 -303h-117l-123 207l-123 -207h-116l186 303h109z" />
    <glyph glyph-name="uni030C.narrow" 
d="M-510 1294l123 207h117l-187 -303h-108l-185 303h117z" />
    <glyph glyph-name="uni0304.narrow" 
d="M-205 1296h-477v113h477v-113z" />
    </font>
</defs>
</svg>
