<?xml version="1.0" standalone="no"?>
<!DOCTYPE svg PUBLIC "-//W3C//DTD SVG 1.1//EN" "http://www.w3.org/Graphics/SVG/1.1/DTD/svg11.dtd" >
<svg xmlns="http://www.w3.org/2000/svg" xmlns:xlink="http://www.w3.org/1999/xlink" version="1.1">
<metadata>
Created by FontForge 20170731 at Thu Aug 25 14:14:50 2022
 By Aleksey,,,
Copyright (c) 2020 by FontPeople . All rights reserved.
</metadata>
<defs>
<font id="ZabalDEMO-ExtraBold" horiz-adv-x="0" >
  <font-face 
    font-family="Zabal DEMO ExtraBold"
    font-weight="800"
    font-stretch="normal"
    units-per-em="2048"
    panose-1="0 0 9 0 0 0 0 0 0 0"
    ascent="1638"
    descent="-410"
    x-height="1030"
    cap-height="1446"
    bbox="-1139 -502 3033 1976"
    underline-thickness="102"
    underline-position="-307"
    unicode-range="U+000D-FB02"
  />
<missing-glyph horiz-adv-x="1024" 
d="M528 442q-143 30 -221 101.5t-78 165.5q0 51 20.5 100t50.5 87.5t59.5 75.5t50 79t20.5 84q0 46 -28 78t-79 48t-90.5 22.5t-93.5 10.5q49 62 163.5 112t268.5 50q54 0 104.5 -12t100.5 -39t80.5 -81t30.5 -128q0 -83 -38 -176t-88 -168.5t-119.5 -191.5t-113.5 -218z
M580 776q13 21 63 100t68.5 111.5t39.5 88t21 98.5q0 62 -27 103.5t-72.5 58t-105 19.5t-123.5 -12q99 -26 149 -58t50 -85q0 -34 -27 -65t-84 -35q-48 -110 -33 -192t81 -132zM449 -10q-83 0 -138 53t-55 135q0 83 54.5 135t138.5 52t138 -52t54 -135q0 -82 -54.5 -135
t-137.5 -53z" />
    <glyph glyph-name="fi" unicode="fi" horiz-adv-x="1329" 
d="M193 1030v100q0 203 99.5 298.5t309.5 95.5q81 0 135 -13l-6 -241q-33 10 -88 10q-83 0 -114 -34t-31 -146v-70h225v-266h-225v-764h-305v764h-158v266h158zM1051 1161q-76 0 -127.5 50.5t-51.5 123.5q0 72 51 120t128 48t128.5 -48t51.5 -120t-52 -123t-128 -51zM1206 0
h-311v1030h311v-1030z" />
    <glyph glyph-name="fl" unicode="fl" horiz-adv-x="1316" 
d="M193 1030v100q0 203 99.5 298.5t309.5 95.5q81 0 135 -13l-6 -241q-33 10 -88 10q-83 0 -114 -34t-31 -146v-70h225v-266h-225v-764h-305v764h-158v266h158zM889 0v1501h313v-1501h-313z" />
    <glyph glyph-name=".notdef" horiz-adv-x="1024" 
d="M528 442q-143 30 -221 101.5t-78 165.5q0 51 20.5 100t50.5 87.5t59.5 75.5t50 79t20.5 84q0 46 -28 78t-79 48t-90.5 22.5t-93.5 10.5q49 62 163.5 112t268.5 50q54 0 104.5 -12t100.5 -39t80.5 -81t30.5 -128q0 -83 -38 -176t-88 -168.5t-119.5 -191.5t-113.5 -218z
M580 776q13 21 63 100t68.5 111.5t39.5 88t21 98.5q0 62 -27 103.5t-72.5 58t-105 19.5t-123.5 -12q99 -26 149 -58t50 -85q0 -34 -27 -65t-84 -35q-48 -110 -33 -192t81 -132zM449 -10q-83 0 -138 53t-55 135q0 83 54.5 135t138.5 52t138 -52t54 -135q0 -82 -54.5 -135
t-137.5 -53z" />
    <glyph glyph-name=".null" 
 />
    <glyph glyph-name="nonmarkingreturn" horiz-adv-x="682" 
 />
    <glyph glyph-name="NULL" 
 />
    <glyph glyph-name="NULL" 
 />
    <glyph glyph-name="CR" unicode="&#xd;" horiz-adv-x="681" 
 />
    <glyph glyph-name="space" unicode=" " horiz-adv-x="428" 
 />
    <glyph glyph-name="exclam" unicode="!" horiz-adv-x="563" 
d="M403 492h-243l-45 954h334zM281 -16q-83 0 -138 53t-55 135q0 81 54.5 133.5t138.5 52.5q85 0 139.5 -52t54.5 -134t-54.5 -135t-139.5 -53z" />
    <glyph glyph-name="quotedbl" unicode="&#x22;" horiz-adv-x="915" 
d="M371 825h-273v676h273v-676zM817 825h-274v676h274v-676z" />
    <glyph glyph-name="numbersign" unicode="#" horiz-adv-x="1484" 
d="M1444 1090v-224h-297l-66 -307h254v-221h-303l-74 -338h-243l73 338h-262l-73 -338h-242l74 338h-244v221h293l65 307h-252v224h302l77 356h242l-78 -356h262l78 356h244l-78 -356h248zM575 559h263l65 307h-262z" />
    <glyph glyph-name="dollar" unicode="$" horiz-adv-x="1181" 
d="M1124 420q0 -202 -124.5 -314.5t-348.5 -123.5v-166h-155v170q-165 17 -282.5 86.5t-170.5 179.5l231 166q69 -135 222 -168v350q-74 19 -131 41t-111 57.5t-89 80t-56 108.5t-21 143q0 199 130.5 314.5t338.5 121.5v164h154v-174q138 -24 235.5 -94.5t136.5 -169.5
l-235 -152q-51 99 -137 140v-342q74 -16 133 -37.5t112.5 -55.5t89.5 -78t57 -107t21 -140zM393 1038q0 -71 37 -107.5t127 -60.5v332q-76 -8 -120 -50.5t-44 -113.5zM651 563v-319q166 23 166 164q0 62 -37.5 96t-128.5 59z" />
    <glyph glyph-name="percent" unicode="%" horiz-adv-x="2183" 
d="M453 561q-182 0 -293 115.5t-111 339.5q0 218 111.5 335t292.5 117q183 0 290 -117t107 -335q0 -221 -107.5 -338t-289.5 -117zM811 0h-281l844 1446h279zM453 795q61 0 97 60.5t36 160.5t-36 159.5t-97 59.5q-64 0 -102 -59.5t-38 -159.5t38 -160.5t102 -60.5zM1737 -23
q-182 0 -293 115.5t-111 339.5q0 218 111.5 335.5t292.5 117.5q183 0 290 -117.5t107 -335.5q0 -221 -107.5 -338t-289.5 -117zM1737 211q61 0 97 60.5t36 160.5t-36 159.5t-97 59.5q-64 0 -102 -59.5t-38 -159.5t38 -160.5t102 -60.5z" />
    <glyph glyph-name="ampersand" unicode="&#x26;" horiz-adv-x="1423" 
d="M1208 305l162 -170l-186 -180l-154 162q-188 -140 -432 -140q-225 0 -369.5 111.5t-144.5 300.5q0 76 23.5 139.5t69 112t94.5 84t116 70.5q-145 172 -145 329q0 153 111 248.5t292 95.5q183 0 295.5 -96.5t112.5 -247.5q0 -68 -22 -124.5t-64.5 -101t-86.5 -76.5
t-106 -66l242 -252q50 115 53 264h291q-21 -268 -152 -463zM524 1102q0 -73 101 -189q79 42 121 87t42 104q0 55 -37.5 89t-93.5 34q-59 0 -96 -35t-37 -90zM633 233q126 0 223 66l-315 330q-144 -91 -144 -211q0 -88 65.5 -136.5t170.5 -48.5z" />
    <glyph glyph-name="quotesingle" unicode="'" horiz-adv-x="468" 
d="M371 825h-273v676h273v-676z" />
    <glyph glyph-name="parenleft" unicode="(" horiz-adv-x="792" 
d="M778 -141l-137 -228q-263 139 -412 381.5t-149 556.5q0 315 149 557.5t412 380.5l137 -227q-180 -107 -280.5 -292.5t-100.5 -418.5q0 -235 100.5 -421t280.5 -289z" />
    <glyph glyph-name="parenright" unicode=")" horiz-adv-x="792" 
d="M152 -369l-138 228q180 103 280.5 289t100.5 421q0 233 -100.5 418.5t-280.5 292.5l138 227q264 -138 413.5 -380.5t149.5 -557.5q0 -313 -149.5 -555.5t-413.5 -382.5z" />
    <glyph glyph-name="asterisk" unicode="*" horiz-adv-x="923" 
d="M760 1399l117 -201l-299 -100l299 -105l-117 -198l-242 204l60 -305h-232l57 305l-241 -204l-117 200l301 103l-301 102l119 199l239 -203l-57 305h232l-60 -307z" />
    <glyph glyph-name="plus" unicode="+" horiz-adv-x="1159" 
d="M719 784h362v-274h-362v-369h-279v369h-362v274h362v369h279v-369z" />
    <glyph glyph-name="comma" unicode="," horiz-adv-x="563" 
d="M319 -301h-231l59 678h328z" />
    <glyph glyph-name="hyphen" unicode="-" horiz-adv-x="903" 
d="M817 377h-731v274h731v-274z" />
    <glyph glyph-name="period" unicode="." horiz-adv-x="563" 
d="M281 -16q-83 0 -138 53t-55 135q0 81 54.5 133.5t138.5 52.5q85 0 139.5 -52t54.5 -134t-54.5 -135t-139.5 -53z" />
    <glyph glyph-name="slash" unicode="/" horiz-adv-x="808" 
d="M229 -258h-297l584 1759h297z" />
    <glyph glyph-name="zero" unicode="0" horiz-adv-x="1458" 
d="M729 -23q-142 0 -260.5 49t-204.5 141.5t-134 235t-48 320.5q0 179 48 321t134.5 234.5t204.5 141t260 48.5q294 0 470.5 -194.5t176.5 -550.5q0 -352 -177.5 -549t-469.5 -197zM729 272q151 0 236.5 119t85.5 332q0 215 -85 333t-237 118q-147 0 -234 -118t-87 -333
q0 -212 87 -331.5t234 -119.5z" />
    <glyph glyph-name="one" unicode="1" horiz-adv-x="860" 
d="M727 0h-311v1079l-293 -127l-92 254l610 254h86v-1460z" />
    <glyph glyph-name="two" unicode="2" horiz-adv-x="1224" 
d="M639 371l-102 -80h598v-291h-1055v225l231 207l1 1l1 1l1 1l1 1h1l1 1l1 1l1 1l1 1l1 1l1 1l1 1l1 1l1 1h1l1 1l1 1l1 1l1 1l1 1l1 1l1 1l1 1l2 1q214 190 290 273q146 163 148 283q0 77 -56.5 125.5t-150.5 48.5q-204 0 -270 -189l-246 174q48 132 188.5 214.5
t346.5 82.5q236 0 374 -111t138 -308q0 -62 -12.5 -119t-31 -104.5t-54 -98.5t-68 -89.5t-87 -88.5t-96.5 -85.5t-110 -90.5z" />
    <glyph glyph-name="three" unicode="3" horiz-adv-x="1216" 
d="M1075 1214l-420 -333q229 -2 358.5 -112t129.5 -318q0 -116 -43 -207.5t-120 -149t-179.5 -87.5t-225.5 -30q-205 0 -342.5 70.5t-201.5 194.5l243 188q47 -84 126.5 -129t181.5 -45q111 0 176 54t65 149q0 98 -71.5 153.5t-200.5 55.5q-87 0 -164 -33l-121 180l377 342
h-491v289h923v-232z" />
    <glyph glyph-name="four" unicode="4" horiz-adv-x="1296" 
d="M1063 537h184v-273h-184v-264h-295v264h-700v225l428 957h342l-410 -909h340v333h295v-333z" />
    <glyph glyph-name="five" unicode="5" horiz-adv-x="1226" 
d="M659 936q231 0 363.5 -119t132.5 -348q0 -124 -42.5 -219t-119 -154t-177 -89t-222.5 -30q-212 0 -352.5 70.5t-206.5 194.5l241 188q49 -85 128.5 -129.5t179.5 -44.5q113 0 181.5 59t68.5 160q0 102 -71.5 157.5t-195.5 55.5q-68 0 -126 -19.5t-138 -72.5l-180 43
l65 807h902v-289h-625l-21 -258q90 37 215 37z" />
    <glyph glyph-name="six" unicode="6" horiz-adv-x="1314" 
d="M748 975q224 0 358.5 -134.5t134.5 -348.5q0 -227 -158.5 -371t-414.5 -144q-258 0 -420 151t-162 392q0 240 141 472.5t424 488.5l342 -97q-162 -147 -258.5 -242.5t-179.5 -197.5q102 31 193 31zM662 258q116 0 189 68.5t73 171.5t-73.5 171t-186.5 68
q-117 0 -190 -70.5t-73 -174.5q0 -99 73 -166.5t188 -67.5z" />
    <glyph glyph-name="seven" unicode="7" horiz-adv-x="1138" 
d="M74 1153v293h1009v-225l-583 -1221h-348l559 1153h-637z" />
    <glyph glyph-name="eight" unicode="8" horiz-adv-x="1280" 
d="M977 766q111 -57 173 -148t62 -206q0 -205 -154 -320t-419 -115q-263 0 -416 115t-153 320q0 115 61.5 206t171.5 148q-89 50 -137.5 129t-48.5 176q0 184 141 290.5t381 106.5q242 0 383 -106.5t141 -290.5q0 -97 -48.5 -176t-137.5 -129zM639 1204q-97 0 -156 -45.5
t-59 -118.5q0 -75 57 -117t156 -42t159 42.5t60 116.5q0 73 -59.5 118.5t-157.5 45.5zM639 258q118 0 186 50t68 136q0 88 -68.5 139.5t-185.5 51.5q-119 0 -185.5 -51t-66.5 -140q0 -86 67.5 -136t184.5 -50z" />
    <glyph glyph-name="nine" unicode="9" horiz-adv-x="1314" 
d="M647 1468q258 0 420 -150.5t162 -391.5q0 -240 -141 -472.5t-426 -488.5l-340 96q161 147 257.5 243t178.5 198q-102 -31 -191 -31q-224 0 -358.5 134.5t-134.5 348.5q0 227 158 370.5t415 143.5zM391 948q0 -103 73.5 -171t186.5 -68q117 0 189.5 70.5t72.5 174.5
q0 99 -72.5 166.5t-187.5 67.5t-188.5 -68.5t-73.5 -171.5z" />
    <glyph glyph-name="colon" unicode=":" horiz-adv-x="563" 
d="M281 674q-83 0 -138 53t-55 135q0 83 54.5 135t138.5 52q85 0 139.5 -52t54.5 -135q0 -82 -54.5 -135t-139.5 -53zM281 -16q-83 0 -138 53t-55 135q0 81 54.5 133.5t138.5 52.5q85 0 139.5 -52t54.5 -134t-54.5 -135t-139.5 -53z" />
    <glyph glyph-name="semicolon" unicode=";" horiz-adv-x="569" 
d="M285 674q-83 0 -138 53t-55 135q0 83 54.5 135t138.5 52t138 -52t54 -135q0 -82 -54.5 -135t-137.5 -53zM328 -301h-230l58 678h327z" />
    <glyph glyph-name="less" unicode="&#x3c;" horiz-adv-x="1024" 
d="M61 786l885 394v-299l-551 -232l551 -233v-299l-885 395v274z" />
    <glyph glyph-name="equal" unicode="=" horiz-adv-x="1093" 
d="M1016 772h-938v272h938v-272zM1016 248h-938v274h938v-274z" />
    <glyph glyph-name="greater" unicode="&#x3e;" horiz-adv-x="1024" 
d="M78 881v299l885 -394v-274l-885 -395v299l551 233z" />
    <glyph glyph-name="question" unicode="?" horiz-adv-x="1034" 
d="M639 483h-264q0 76 29 143t70 115.5t82 93.5t70 97t29 106q0 69 -48 109.5t-124 40.5q-65 0 -120.5 -39t-90.5 -125l-245 139q47 134 176 216.5t305 82.5q201 0 333 -104t132 -277q0 -60 -18 -116t-46.5 -100t-63 -84.5t-70 -77t-65 -71t-49.5 -73t-22 -76.5zM510 -16
q-83 0 -138 53t-55 135q0 81 54.5 133.5t138.5 52.5t138 -52.5t54 -133.5q0 -82 -54.5 -135t-137.5 -53z" />
    <glyph glyph-name="at" unicode="@" horiz-adv-x="1732" 
d="M874 1327q183 0 334 -59t252 -161.5t156 -242t55 -299.5q0 -223 -100.5 -349t-276.5 -126q-125 0 -199.5 60t-95.5 167q-59 -102 -186 -102q-119 0 -200 90.5t-81 237.5q0 143 80 233t189 90q95 0 153 -69v53h234v-391q0 -84 25.5 -123t78.5 -39q131 0 131 252
q0 115 -36 213.5t-104 171.5t-173 114.5t-236 41.5q-248 0 -406.5 -153t-158.5 -409q0 -166 80.5 -295.5t214 -197.5t293.5 -68q181 0 270 47l84 -221q-126 -57 -344 -57q-242 0 -435 99.5t-303 280.5t-110 412q0 177 60.5 326.5t167.5 253t258 161.5t329 58zM866 414
q50 0 76.5 33t26.5 96q0 60 -26.5 93.5t-76.5 33.5q-104 0 -104 -127q0 -129 104 -129z" />
    <glyph glyph-name="A" unicode="A" horiz-adv-x="1384" 
d="M1376 0h-338l-90 285h-512l-90 -285h-340l500 1446h373zM524 567h334l-166 549z" />
    <glyph glyph-name="B" unicode="B" horiz-adv-x="1275" 
d="M928 743q139 -33 209.5 -118t70.5 -232q0 -393 -493 -393h-582v1446h569q236 0 350.5 -96.5t114.5 -266.5q0 -126 -60.5 -213.5t-178.5 -126.5zM637 1169h-178v-315h174q205 0 205 160q0 79 -46 117t-155 38zM459 279h203q115 0 163.5 39t48.5 118q0 84 -53.5 120
t-158.5 36h-203v-313z" />
    <glyph glyph-name="C" unicode="C" horiz-adv-x="1527" 
d="M848 -23q-224 0 -399 93.5t-272 263.5t-97 389t97 389t269 263t390 93q229 0 398 -100.5t236 -271.5l-288 -160q-37 107 -129.5 169t-221.5 62q-186 0 -301.5 -123.5t-115.5 -320.5q0 -198 116 -321t308 -123q138 0 234 67.5t132 192.5l291 -146q-76 -205 -242 -310.5
t-405 -105.5z" />
    <glyph glyph-name="D" unicode="D" horiz-adv-x="1456" 
d="M651 0h-518v1446h512q347 0 539 -195.5t192 -527.5t-190 -527.5t-535 -195.5zM459 1151v-856h188q202 0 298.5 114t96.5 314t-99 314t-302 114h-182z" />
    <glyph glyph-name="E" unicode="E" horiz-adv-x="1163" 
d="M1083 0h-950v1446h934v-295h-614v-289h528v-282h-528v-285h630v-295z" />
    <glyph glyph-name="F" unicode="F" horiz-adv-x="1089" 
d="M459 0h-326v1446h899v-301h-573v-297h506v-299h-506v-549z" />
    <glyph glyph-name="G" unicode="G" horiz-adv-x="1622" 
d="M815 549v264h754v-68q0 -356 -189.5 -562t-529.5 -206q-226 0 -401.5 93.5t-272 263.5t-96.5 389t97 389t269 263t390 93q225 0 392.5 -98t237.5 -264l-292 -150q-40 99 -130.5 155t-212.5 56q-186 0 -301.5 -123.5t-115.5 -320.5q0 -204 115 -325.5t323 -121.5
q312 0 383 273h-420z" />
    <glyph glyph-name="H" unicode="H" horiz-adv-x="1456" 
d="M459 0h-326v1446h326v-574h538v574h326v-1446h-326v571h-538v-571z" />
    <glyph glyph-name="I" unicode="I" horiz-adv-x="614" 
d="M473 0h-332v1446h332v-1446z" />
    <glyph glyph-name="J" unicode="J" horiz-adv-x="1116" 
d="M535 -23q-193 0 -321.5 76t-186.5 199l231 188q77 -168 244 -168q95 0 138.5 64.5t43.5 202.5v907h324v-889q0 -301 -117 -440.5t-356 -139.5z" />
    <glyph glyph-name="K" unicode="K" horiz-adv-x="1359" 
d="M813 770l535 -770h-394l-495 711v-711h-326v1446h326v-637l450 637h396z" />
    <glyph glyph-name="L" unicode="L" horiz-adv-x="1087" 
d="M1040 0h-907v1446h326v-1141h581v-305z" />
    <glyph glyph-name="M" unicode="M" horiz-adv-x="1796" 
d="M453 0h-320v1446h383l383 -838l379 838h385v-1446h-320v883l-335 -705h-220l-335 705v-883z" />
    <glyph glyph-name="N" unicode="N" horiz-adv-x="1474" 
d="M453 0h-320v1446h320l569 -879v879h319v-1446h-319l-569 879v-879z" />
    <glyph glyph-name="O" unicode="O" horiz-adv-x="1679" 
d="M840 -23q-213 0 -386 93t-273.5 264t-100.5 389q0 163 59 303t160.5 236.5t241.5 151t299 54.5q216 0 389 -92.5t273 -263.5t100 -389q0 -164 -58.5 -303.5t-159.5 -236.5t-242 -151.5t-302 -54.5zM840 279q191 0 309.5 123.5t118.5 320.5t-118.5 320.5t-309.5 123.5
q-187 0 -306.5 -124t-119.5 -320t119.5 -320t306.5 -124z" />
    <glyph glyph-name="P" unicode="P" horiz-adv-x="1241" 
d="M459 0h-326v1446h578q240 0 354.5 -119.5t114.5 -339.5q0 -231 -122.5 -355t-361.5 -124h-237v-508zM459 1157v-364h184q107 0 157 42.5t50 139.5q0 95 -45.5 138.5t-157.5 43.5h-188z" />
    <glyph glyph-name="Q" unicode="Q" horiz-adv-x="1679" 
d="M1602 723q0 -262 -142 -453l135 -182l-217 -156l-114 160q-185 -115 -424 -115q-213 0 -386 93t-273.5 264t-100.5 389q0 163 59 303t160.5 236.5t241.5 151t299 54.5q216 0 389 -92.5t273 -263.5t100 -389zM414 723q0 -196 119.5 -320t306.5 -124q118 0 207 47l-230 315
l213 150l195 -277q43 90 43 209q0 197 -118.5 320.5t-309.5 123.5q-187 0 -306.5 -124t-119.5 -320z" />
    <glyph glyph-name="R" unicode="R" horiz-adv-x="1325" 
d="M913 618l412 -618h-387l-348 541h-131v-541h-326v1446h559q239 0 356 -117.5t117 -324.5q0 -150 -65.5 -248t-186.5 -138zM629 1157h-170v-356h166q104 0 155 41t51 137q0 95 -47.5 136.5t-154.5 41.5z" />
    <glyph glyph-name="S" unicode="S" horiz-adv-x="1179" 
d="M602 -20q-204 0 -350.5 70t-208.5 194l244 186q94 -170 301 -170q95 0 150 37t55 111q0 68 -53 102t-191 65q-83 19 -147 41t-125 58t-101 83t-64 115t-24 154q0 205 136.5 322.5t353.5 117.5q190 0 326 -76t183 -196l-253 -168q-79 160 -242 160q-80 0 -127 -40
t-47 -112q0 -82 56 -116.5t214 -65.5q78 -16 139.5 -37t118 -55.5t94.5 -79.5t60 -109.5t22 -144.5q0 -215 -137.5 -330.5t-382.5 -115.5z" />
    <glyph glyph-name="T" unicode="T" horiz-adv-x="1216" 
d="M770 0h-324v1145h-399v301h1122v-301h-399v-1145z" />
    <glyph glyph-name="U" unicode="U" horiz-adv-x="1394" 
d="M698 -23q-589 0 -589 603v866h325v-854q0 -153 59.5 -233t204.5 -80t205 80t60 233v854h323v-866q0 -292 -143.5 -447.5t-444.5 -155.5z" />
    <glyph glyph-name="V" unicode="V" horiz-adv-x="1337" 
d="M670 373l309 1073h352l-469 -1446h-387l-469 1446h352z" />
    <glyph glyph-name="W" unicode="W" horiz-adv-x="2007" 
d="M1417 424l232 1022h352l-393 -1446h-336l-268 903l-269 -903h-338l-391 1446h352l234 -1022l264 1022h295z" />
    <glyph glyph-name="X" unicode="X" horiz-adv-x="1355" 
d="M387 0h-375l449 758l-410 688h375l254 -461l252 461h375l-410 -686l446 -760h-374l-291 512z" />
    <glyph glyph-name="Y" unicode="Y" horiz-adv-x="1306" 
d="M815 0h-326v518l-485 928h371l278 -598l277 598h373l-488 -930v-516z" />
    <glyph glyph-name="Z" unicode="Z" horiz-adv-x="1191" 
d="M1118 1202l-618 -901h651v-301h-1083v246l618 899h-600v301h1032v-244z" />
    <glyph glyph-name="bracketleft" unicode="[" horiz-adv-x="716" 
d="M688 -340h-555v1819h555v-267h-254v-1286h254v-266z" />
    <glyph glyph-name="backslash" unicode="\" horiz-adv-x="808" 
d="M293 1501l581 -1759h-296l-582 1759h297z" />
    <glyph glyph-name="bracketright" unicode="]" horiz-adv-x="716" 
d="M584 -340h-555v266h254v1286h-254v267h555v-1819z" />
    <glyph glyph-name="asciicircum" unicode="^" horiz-adv-x="1159" 
d="M385 723h-315l405 723h209l406 -723h-314l-196 377z" />
    <glyph glyph-name="underscore" unicode="_" horiz-adv-x="933" 
d="M954 -350h-974v272h974v-272z" />
    <glyph glyph-name="grave" unicode="`" horiz-adv-x="794" 
d="M639 1149h-262l-223 352h327z" />
    <glyph glyph-name="a" unicode="a" horiz-adv-x="1236" 
d="M516 -23q-202 0 -329.5 149.5t-127.5 389.5t128 388.5t331 148.5q204 0 307 -160v137h305v-1030h-305v137q-105 -160 -309 -160zM602 254q103 0 166 72t63 190q0 117 -63 188.5t-166 71.5t-169 -72t-66 -188t66 -189t169 -73z" />
    <glyph glyph-name="b" unicode="b" horiz-adv-x="1243" 
d="M725 -23q-205 0 -307 160v-137h-305v1501h305v-608q100 160 305 160t332 -148t127 -389q0 -240 -127.5 -389.5t-329.5 -149.5zM641 254q103 0 169.5 73t66.5 189t-66 188t-170 72t-166.5 -71.5t-62.5 -188.5q0 -119 62.5 -190.5t166.5 -71.5z" />
    <glyph glyph-name="c" unicode="c" horiz-adv-x="1103" 
d="M618 -23q-248 0 -403.5 149t-155.5 390q0 239 154 388t393 149q163 0 287.5 -70.5t179.5 -187.5l-258 -148q-32 64 -85.5 97.5t-119.5 33.5q-108 0 -175.5 -72t-67.5 -190t69 -191t180 -73q149 0 213 154l261 -142q-60 -145 -182 -216t-290 -71z" />
    <glyph glyph-name="d" unicode="d" horiz-adv-x="1236" 
d="M516 -23q-202 0 -329.5 149.5t-127.5 389.5t128 388.5t331 148.5q204 0 307 -160v608h305v-1501h-305v137q-105 -160 -309 -160zM602 254q103 0 166 72t63 190q0 117 -63 188.5t-166 71.5t-169 -72t-66 -188t66 -189t169 -73z" />
    <glyph glyph-name="e" unicode="e" horiz-adv-x="1175" 
d="M1120 516q0 -1 -6 -94h-745q14 -85 83.5 -135.5t186.5 -50.5q157 0 254 110l217 -166q-66 -98 -194.5 -150.5t-284.5 -52.5q-262 0 -417 149.5t-155 389.5q0 239 154 388t391 149q231 0 373.5 -145.5t142.5 -391.5zM600 817q-90 0 -153 -52.5t-78 -139.5h452
q-19 90 -77 141t-144 51z" />
    <glyph glyph-name="f" unicode="f" horiz-adv-x="772" 
d="M643 1280q-83 0 -114 -34t-31 -146v-70h225v-266h-225v-764h-305v764h-158v266h158v100q0 203 99.5 298.5t309.5 95.5q81 0 135 -13l-6 -241q-33 10 -88 10z" />
    <glyph glyph-name="g" unicode="g" horiz-adv-x="1236" 
d="M600 -424q-350 0 -487 229l245 136q74 -113 232 -113q235 0 235 223v109q-105 -152 -309 -152q-202 0 -329.5 145.5t-127.5 378.5q0 232 128 376.5t331 144.5q205 0 307 -150v127h305v-934q0 -254 -141 -387t-389 -133zM602 274q103 0 166 69.5t63 184.5q0 112 -63 180
t-166 68q-104 0 -169.5 -68t-65.5 -180q0 -113 66 -183.5t169 -70.5z" />
    <glyph glyph-name="h" unicode="h" horiz-adv-x="1202" 
d="M418 0h-305v1501h305v-604q50 74 133.5 115t187.5 41q176 0 271.5 -113t95.5 -334v-606h-305v547q0 125 -43.5 179t-132.5 54q-92 0 -149.5 -68.5t-57.5 -174.5v-537z" />
    <glyph glyph-name="i" unicode="i" horiz-adv-x="557" 
d="M279 1161q-76 0 -127.5 50.5t-51.5 123.5q0 72 51 120t128 48t128.5 -48t51.5 -120t-52 -123t-128 -51zM434 0h-311v1030h311v-1030z" />
    <glyph glyph-name="j" unicode="j" horiz-adv-x="557" 
d="M279 1161q-76 0 -127.5 50.5t-51.5 123.5q0 72 51 120t128 48t128.5 -48t51.5 -120t-52 -123t-128 -51zM49 -424q-77 0 -147 12l10 250q40 -8 78 -8q69 0 101 40.5t32 143.5v1016h311v-1048q0 -192 -98 -299t-287 -107z" />
    <glyph glyph-name="k" unicode="k" horiz-adv-x="1138" 
d="M721 553l422 -553h-367l-358 489v-489h-305v1501h305v-911l323 440h367z" />
    <glyph glyph-name="l" unicode="l" horiz-adv-x="546" 
d="M430 0h-313v1501h313v-1501z" />
    <glyph glyph-name="m" unicode="m" horiz-adv-x="1787" 
d="M1335 1053q175 0 266 -112.5t91 -334.5v-606h-306v547q0 122 -38 177.5t-117 55.5q-80 0 -128 -65t-48 -162v-553h-305v547q0 121 -38.5 177t-117.5 56q-81 0 -128.5 -68t-47.5 -175v-537h-305v1030h299v-139q47 78 124.5 120t174.5 42q208 0 282 -179q133 179 342 179z
" />
    <glyph glyph-name="n" unicode="n" horiz-adv-x="1193" 
d="M418 0h-305v1030h299v-139q51 78 133 120t186 42q175 0 270 -113t95 -334v-606h-303v547q0 125 -43.5 179t-131.5 54q-92 0 -146 -67.5t-54 -175.5v-537z" />
    <glyph glyph-name="o" unicode="o" horiz-adv-x="1226" 
d="M612 -23q-155 0 -280.5 67t-199 190.5t-73.5 281.5t73.5 281t199 189.5t280.5 66.5q157 0 282.5 -66.5t198 -189.5t72.5 -281t-72.5 -281.5t-198 -190.5t-282.5 -67zM612 254q110 0 179 72.5t69 189.5t-68.5 188.5t-179.5 71.5q-108 0 -176.5 -72t-68.5 -188t68.5 -189
t176.5 -73z" />
    <glyph glyph-name="p" unicode="p" horiz-adv-x="1243" 
d="M418 -401h-305v1431h305v-137q100 160 305 160t332 -148t127 -389q0 -240 -127.5 -389.5t-329.5 -149.5q-205 0 -307 160v-538zM641 254q103 0 169.5 73t66.5 189t-66 188t-170 72t-166.5 -71.5t-62.5 -188.5q0 -119 62.5 -190.5t166.5 -71.5z" />
    <glyph glyph-name="q" unicode="q" horiz-adv-x="1236" 
d="M1130 -401h-305v538q-105 -160 -309 -160q-202 0 -329.5 149.5t-127.5 389.5t128 388.5t331 148.5q204 0 307 -160v137h305v-1431zM602 254q103 0 166 72t63 190q0 117 -63 188.5t-166 71.5t-169 -72t-66 -188t66 -189t169 -73z" />
    <glyph glyph-name="r" unicode="r" horiz-adv-x="802" 
d="M418 0h-305v1030h299v-166q42 87 122 138t183 51q35 0 47 -2l-8 -322q-60 8 -109 8q-111 0 -170 -73t-59 -191v-473z" />
    <glyph glyph-name="s" unicode="s" horiz-adv-x="980" 
d="M502 -23q-170 0 -288.5 57t-172.5 165l209 145q96 -135 254 -135q121 0 121 88q0 42 -38 64t-153 45q-60 11 -108 26t-96 40t-80 58t-52 82.5t-20 110.5q0 162 113 246t296 84q157 0 267.5 -52t163.5 -137l-218 -153q-40 55 -86.5 77.5t-109.5 22.5q-59 0 -95 -20.5
t-36 -63.5q0 -36 45.5 -58t148.5 -42q73 -15 124 -30t100 -39t77.5 -55t46 -77.5t17.5 -106.5q0 -342 -430 -342z" />
    <glyph glyph-name="t" unicode="t" horiz-adv-x="806" 
d="M743 266l11 -252q-81 -34 -207 -34q-192 0 -272 94.5t-80 275.5v414h-160v266h160v250h305v-250h245v-266h-245v-358q0 -88 28.5 -126t92.5 -38q67 0 122 24z" />
    <glyph glyph-name="u" unicode="u" horiz-adv-x="1175" 
d="M457 -23q-175 0 -271 114.5t-96 334.5v604h305v-543q0 -125 44.5 -181t129.5 -56q94 0 145.5 67.5t51.5 176.5v536h303v-1030h-299v139q-106 -162 -313 -162z" />
    <glyph glyph-name="v" unicode="v" horiz-adv-x="1128" 
d="M567 317l211 713h338l-383 -1030h-332l-389 1030h338z" />
    <glyph glyph-name="w" unicode="w" horiz-adv-x="1587" 
d="M1114 350l141 680h320l-289 -1030h-301l-190 633l-189 -633h-301l-293 1030h320l145 -682l189 682h256z" />
    <glyph glyph-name="x" unicode="x" horiz-adv-x="1114" 
d="M360 0h-352l330 537l-320 493h351l186 -323l182 323h353l-318 -502l334 -528h-350l-205 338z" />
    <glyph glyph-name="y" unicode="y" horiz-adv-x="1126" 
d="M569 319l207 711h338l-524 -1431h-318l154 407l-414 1024h340z" />
    <glyph glyph-name="z" unicode="z" horiz-adv-x="999" 
d="M909 846l-432 -580h465v-266h-872v184l430 580h-422v266h831v-184z" />
    <glyph glyph-name="braceleft" unicode="{" horiz-adv-x="792" 
d="M498 1081v-219q0 -227 -211 -295q211 -68 211 -295v-215q0 -60 31 -95.5t85 -35.5h150v-266h-215q-170 0 -261 94t-91 262v252q0 84 -42 133.5t-116 49.5h-33v235h33q75 0 116.5 48t41.5 132v256q0 168 91 262.5t261 94.5h215v-267h-150q-54 0 -85 -35.5t-31 -95.5z" />
    <glyph glyph-name="bar" unicode="|" horiz-adv-x="583" 
d="M434 -401h-282v2048h282v-2048z" />
    <glyph glyph-name="braceright" unicode="}" horiz-adv-x="792" 
d="M754 686h32v-235h-32q-74 0 -115 -49.5t-41 -133.5v-252q0 -167 -92 -261.5t-262 -94.5h-215v266h149q55 0 87 35.5t32 95.5v215q0 226 209 295q-209 69 -209 295v219q0 60 -32 95.5t-87 35.5h-149v267h215q170 0 262 -94.5t92 -262.5v-256q0 -84 41 -132t115 -48z" />
    <glyph glyph-name="asciitilde" unicode="~" horiz-adv-x="1191" 
d="M221 453l-133 96q30 149 117.5 227t210.5 78q56 0 112.5 -20t95 -43.5t83.5 -43.5t81 -20q37 0 66 9t51 29t33.5 34.5t30.5 42.5l133 -97q-29 -148 -116 -226.5t-210 -78.5q-56 0 -113 20t-95 44.5t-83.5 44.5t-81.5 20q-37 0 -65.5 -8.5t-50.5 -28t-34.5 -35
t-31.5 -44.5z" />
    <glyph glyph-name="uni00A0" unicode="&#xa0;" horiz-adv-x="428" 
 />
    <glyph glyph-name="exclamdown" unicode="&#xa1;" horiz-adv-x="563" 
d="M281 1061q85 0 139.5 -53.5t54.5 -135.5t-54.5 -134t-139.5 -52q-84 0 -138.5 52.5t-54.5 133.5q0 82 55 135.5t138 53.5zM160 553h243l46 -954h-334z" />
    <glyph glyph-name="cent" unicode="&#xa2;" horiz-adv-x="1097" 
d="M842 604l241 -129q-59 -144 -182 -214.5t-289 -70.5q-54 0 -106 9l-64 -197h-149l78 236q-145 61 -228.5 189.5t-83.5 299.5q0 239 154 389t391 150q52 0 98 -9l62 189h149l-73 -227q76 -32 134.5 -87t92.5 -126l-240 -134q-26 53 -71 89l-168 -517h24q162 0 230 160z
M344 727q0 -154 109 -233l170 518h-17q-115 0 -188.5 -79t-73.5 -206z" />
    <glyph glyph-name="sterling" unicode="&#xa3;" horiz-adv-x="1234" 
d="M541 575v-294h647v-281h-1122v281h163v294h-153v250h153v105q0 255 132 396.5t362 141.5q162 0 279 -69.5t180 -194.5l-236 -168q-30 68 -77 103t-124 35q-107 0 -155.5 -64t-48.5 -190v-95h411v-250h-411z" />
    <glyph glyph-name="currency" unicode="&#xa4;" horiz-adv-x="1161" 
d="M1038 719q0 -138 -63 -242l135 -135l-152 -149l-137 139q-108 -60 -241 -60q-131 0 -238 58l-139 -137l-150 149l133 133q-67 106 -67 244q0 137 67 246l-133 133l148 151l141 -141q105 57 238 57q134 0 239 -57l139 139l152 -149l-137 -137q65 -103 65 -242zM580 520
q87 0 137.5 55.5t50.5 143.5t-50.5 143.5t-137.5 55.5t-140 -56t-53 -143t53 -143t140 -56z" />
    <glyph glyph-name="yen" unicode="&#xa5;" horiz-adv-x="1306" 
d="M930 1446h373l-371 -707h207v-168h-295l-29 -55v-76h324v-170h-324v-270h-326v270h-321v170h321v78l-28 53h-293v168h205l-369 707h371l278 -598z" />
    <glyph glyph-name="brokenbar" unicode="&#xa6;" horiz-adv-x="583" 
d="M434 827h-282v820h282v-820zM434 -401h-282v819h282v-819z" />
    <glyph glyph-name="section" unicode="&#xa7;" horiz-adv-x="1114" 
d="M872 377q162 -93 162 -291q0 -178 -123.5 -280.5t-339.5 -102.5q-181 0 -311 62t-186 165l235 174q84 -137 252 -137q74 0 118 29t44 82t-48 82t-163 59q-72 18 -125 36.5t-107 47.5t-87.5 65t-54.5 88t-21 117q0 92 39 163.5t108 115.5q-149 96 -149 287
q0 174 117.5 279.5t316.5 105.5q170 0 293 -68.5t155 -165.5l-237 -157q-70 129 -197 129q-61 0 -100 -31.5t-39 -85.5q0 -59 52.5 -90.5t176.5 -59.5q69 -16 120.5 -33.5t102 -45t82 -62t51 -84.5t19.5 -113q0 -185 -156 -280zM375 633q0 -49 21.5 -79t78.5 -53.5
t170 -47.5q56 12 88.5 47t32.5 88q0 31 -9.5 53.5t-36 45t-79 41t-133.5 34.5q-26 4 -35 8q-43 -19 -70.5 -57t-27.5 -80z" />
    <glyph glyph-name="dieresis" unicode="&#xa8;" horiz-adv-x="794" 
d="M178 1171q-72 0 -120 47.5t-48 116.5q0 68 48 114t120 46t121 -46t49 -114q0 -69 -49 -116.5t-121 -47.5zM614 1171q-71 0 -119.5 48t-48.5 116q0 67 48.5 113.5t119.5 46.5q72 0 121 -47t49 -113q0 -68 -49 -116t-121 -48z" />
    <glyph glyph-name="copyright" unicode="&#xa9;" horiz-adv-x="1656" 
d="M829 -23q-214 0 -385.5 96t-267.5 266.5t-96 383.5q0 160 56.5 298.5t155 236.5t238 154t299.5 56q214 0 385.5 -95.5t268 -266t96.5 -383.5t-96.5 -383.5t-268 -266.5t-385.5 -96zM829 135q254 0 420 166t166 422t-166 422t-420 166q-255 0 -420 -166t-165 -422
t165 -422t420 -166zM844 313q-185 0 -298.5 111.5t-113.5 292.5t115.5 293t292.5 112q123 0 218.5 -53.5t135.5 -140.5l-211 -113q-21 38 -57 61t-80 23q-72 0 -118 -50t-46 -132q0 -80 46.5 -130t121.5 -50q98 0 145 102l209 -109q-43 -111 -137 -164t-223 -53z" />
    <glyph glyph-name="ordfeminine" unicode="&#xaa;" horiz-adv-x="890" 
d="M375 733q-141 0 -232.5 101t-91.5 262q0 162 92 263t232 101q133 0 203 -94v80h247v-698h-247v79q-73 -94 -203 -94zM442 940q65 0 104.5 43t39.5 113q0 72 -39.5 114.5t-104.5 42.5q-67 0 -107 -42.5t-40 -114.5q0 -70 40 -113t107 -43z" />
    <glyph glyph-name="guillemotleft" unicode="&#xab;" horiz-adv-x="1200" 
d="M600 166l-221 -156l-346 504l346 504l221 -156l-240 -348zM1141 166l-221 -156l-347 504l347 504l221 -156l-240 -348z" />
    <glyph glyph-name="logicalnot" unicode="&#xac;" horiz-adv-x="1159" 
d="M1081 342h-295v334h-708v272h1003v-606z" />
    <glyph glyph-name="uni00AD" unicode="&#xad;" horiz-adv-x="903" 
d="M817 377h-731v274h731v-274z" />
    <glyph glyph-name="registered" unicode="&#xae;" horiz-adv-x="1019" 
d="M510 1468q201 0 328 -125.5t127 -320.5q0 -196 -126.5 -321.5t-328.5 -125.5t-328.5 126t-126.5 321t126.5 320.5t328.5 125.5zM510 662q160 0 261 102t101 258t-100.5 258t-261.5 102t-262 -102t-101 -258q0 -157 101 -258.5t262 -101.5zM707 1120q0 -90 -80 -119
l114 -206h-151l-88 166h-51v-166h-134v467h232q77 0 117.5 -38.5t40.5 -103.5zM446 1155v-106h60q65 0 65 55q0 51 -63 51h-62z" />
    <glyph glyph-name="macron" unicode="&#xaf;" horiz-adv-x="794" 
d="M705 1204h-615v234h615v-234z" />
    <glyph glyph-name="degree" unicode="&#xb0;" horiz-adv-x="907" 
d="M455 768q-174 0 -287 107t-113 270t113 271t287 108q173 0 284 -107t111 -272q0 -163 -111 -270t-284 -107zM455 989q70 0 113.5 44.5t43.5 111.5q0 68 -43.5 113t-113.5 45q-71 0 -115.5 -44t-44.5 -112t44.5 -113t115.5 -45z" />
    <glyph glyph-name="plusminus" unicode="&#xb1;" horiz-adv-x="1159" 
d="M719 1378v-358h362v-272h-362v-357h-279v357h-362v272h362v358h279zM1081 0h-1003v272h1003v-272z" />
    <glyph glyph-name="uni00B2" unicode="&#xb2;" horiz-adv-x="776" 
d="M461 1042l-53 -38h315v-230h-674v172l158 131q65 54 94 79.5t68 65t54 69t15 59.5q0 75 -100 75q-44 0 -84.5 -23t-67.5 -65l-166 156q47 72 137.5 119t217.5 47q154 0 239.5 -70t85.5 -194q0 -75 -28.5 -135t-75 -105.5t-135.5 -112.5z" />
    <glyph glyph-name="uni00B3" unicode="&#xb3;" horiz-adv-x="778" 
d="M684 1452l-188 -162q108 -18 169.5 -84.5t61.5 -171.5q0 -93 -47.5 -158t-125 -94.5t-177.5 -29.5q-242 0 -359 145l156 160q28 -40 74 -62t100 -22q52 0 83.5 27t31.5 71q0 47 -31.5 75t-85.5 28q-52 0 -86 -21l-74 100l185 168h-293v217h606v-186z" />
    <glyph glyph-name="acute" unicode="&#xb4;" horiz-adv-x="794" 
d="M416 1149h-262l157 352h328z" />
    <glyph glyph-name="uni00B5" unicode="&#xb5;" horiz-adv-x="1169" 
d="M758 494v536h305v-1030h-287v152q-81 -168 -235 -168q-91 0 -152 55v-440h-305v1431h305v-543q0 -125 44.5 -181t129.5 -56q94 0 144.5 67t50.5 177z" />
    <glyph glyph-name="paragraph" unicode="&#xb6;" horiz-adv-x="1040" 
d="M897 1446v-1847h-319v991h-33q-221 0 -352.5 118.5t-131.5 319.5q0 192 127 305t342 113h367z" />
    <glyph glyph-name="periodcentered" unicode="&#xb7;" horiz-adv-x="563" 
d="M281 328q-84 0 -138.5 53.5t-54.5 136.5q0 81 54.5 132.5t138.5 51.5q85 0 139.5 -51.5t54.5 -132.5q0 -83 -54.5 -136.5t-139.5 -53.5z" />
    <glyph glyph-name="cedilla" unicode="&#xb8;" horiz-adv-x="794" 
d="M344 -502q-101 0 -199 29v188q108 -24 166 -24q84 0 84 59q0 64 -125 64h-26v213h196v-119q96 -15 151.5 -65t55.5 -126q0 -106 -76.5 -162.5t-226.5 -56.5z" />
    <glyph glyph-name="uni00B9" unicode="&#xb9;" horiz-adv-x="645" 
d="M549 774h-270v572l-183 -66l-73 211l438 160h88v-877z" />
    <glyph glyph-name="ordmasculine" unicode="&#xba;" horiz-adv-x="888" 
d="M444 731q-178 0 -285.5 101t-107.5 266q0 167 107 264.5t286 97.5t286.5 -98.5t107.5 -263.5t-107.5 -266t-286.5 -101zM444 944q66 0 107 43t41 111q0 69 -41 110t-107 41t-106.5 -41t-40.5 -110q0 -68 40.5 -111t106.5 -43z" />
    <glyph glyph-name="guillemotright" unicode="&#xbb;" horiz-adv-x="1200" 
d="M627 514l-346 -504l-224 156l240 348l-240 348l224 156zM1167 514l-346 -504l-223 156l240 348l-240 348l223 156z" />
    <glyph glyph-name="onequarter" unicode="&#xbc;" horiz-adv-x="1855" 
d="M549 1460v-876h-270v571l-183 -65l-73 210l438 160h88zM326 0l843 1446h279l-842 -1446h-280zM1737 340h86v-203h-86v-137h-236v137h-432v191l223 536h264l-208 -524h176v219h213v-219z" />
    <glyph glyph-name="onehalf" unicode="&#xbd;" horiz-adv-x="1904" 
d="M549 1460v-876h-270v571l-183 -65l-73 210l438 160h88zM326 0l843 1446h279l-842 -1446h-280zM1589 268l-53 -39h315v-229h-673v172l157 131q134 112 173 155q58 65 59 117q0 76 -101 76q-43 0 -83.5 -23t-67.5 -65l-166 156q47 73 137 119.5t217 46.5q154 0 240 -70
t86 -194q0 -108 -53.5 -180.5t-186.5 -172.5z" />
    <glyph glyph-name="threequarters" unicode="&#xbe;" horiz-adv-x="1976" 
d="M727 844q0 -93 -47.5 -158.5t-125 -95t-177.5 -29.5q-241 0 -359 146l156 159q28 -40 74 -62t100 -22q52 0 83.5 27.5t31.5 71.5q0 47 -31.5 74.5t-85.5 27.5q-53 0 -86 -20l-74 100l185 168h-293v217h606v-186l-188 -162q108 -18 169.5 -84.5t61.5 -171.5zM446 0
l844 1446h279l-842 -1446h-281zM1858 340h86v-203h-86v-137h-236v137h-432v191l223 536h264l-209 -524h177v219h213v-219z" />
    <glyph glyph-name="questiondown" unicode="&#xbf;" horiz-adv-x="913" 
d="M514 1061q83 0 138 -54t55 -137q0 -81 -54.5 -132.5t-138.5 -51.5t-138 51.5t-54 132.5q0 83 54.5 137t137.5 54zM395 555h264q0 -76 -29 -143t-70 -115.5t-82 -93.5t-70 -97t-29 -106q0 -69 47.5 -108t122.5 -39q145 0 213 161l246 -139q-47 -134 -176.5 -216.5
t-305.5 -82.5q-202 0 -333.5 104.5t-131.5 276.5q0 60 18 116t46.5 100t63 84.5t70 77t65 71t49.5 73t22 76.5z" />
    <glyph glyph-name="Agrave" unicode="&#xc0;" horiz-adv-x="1384" 
d="M672 1890l157 -346h-266l-215 346h324zM1376 0h-338l-90 285h-512l-90 -285h-340l500 1446h373zM524 567h334l-166 549z" />
    <glyph glyph-name="Aacute" unicode="&#xc1;" horiz-adv-x="1384" 
d="M713 1890h323l-215 -346h-266zM1376 0h-338l-90 285h-512l-90 -285h-340l500 1446h373zM524 567h334l-166 549z" />
    <glyph glyph-name="Acircumflex" unicode="&#xc2;" horiz-adv-x="1384" 
d="M807 1544l-113 176l-114 -176h-275l252 346h270l252 -346h-272zM1376 0h-338l-90 285h-512l-90 -285h-340l500 1446h373zM524 567h334l-166 549z" />
    <glyph glyph-name="Atilde" unicode="&#xc3;" horiz-adv-x="1384" 
d="M588 1651q-47 0 -47 -90h-217q0 148 63 232.5t170 84.5q45 0 86 -15.5t66 -34.5t50 -34.5t40 -15.5q43 0 43 90h219q0 -149 -63 -234.5t-171 -85.5q-44 0 -84.5 16t-65 35.5t-49 35.5t-40.5 16zM1376 0h-338l-90 285h-512l-90 -285h-340l500 1446h373zM524 567h334
l-166 549z" />
    <glyph glyph-name="Adieresis" unicode="&#xc4;" horiz-adv-x="1384" 
d="M473 1554q-72 0 -120 47.5t-48 116.5q0 68 48 114t120 46t120 -46t48 -114q0 -69 -48 -116.5t-120 -47.5zM909 1554q-71 0 -119.5 48t-48.5 116q0 67 48.5 113.5t119.5 46.5t119.5 -46.5t48.5 -113.5q0 -68 -48.5 -116t-119.5 -48zM1376 0h-338l-90 285h-512l-90 -285
h-340l500 1446h373zM524 567h334l-166 549z" />
    <glyph glyph-name="Aring" unicode="&#xc5;" horiz-adv-x="1384" 
d="M694 1520q-109 0 -179.5 63.5t-70.5 163.5t70.5 164.5t179.5 64.5q107 0 177.5 -64.5t70.5 -164.5q0 -99 -70 -163t-178 -64zM692 1839q-40 0 -67 -25.5t-27 -66.5q0 -39 27 -64.5t67 -25.5q42 0 69 25.5t27 64.5q0 40 -27.5 66t-68.5 26zM1376 0h-338l-90 285h-512
l-90 -285h-340l500 1446h373zM524 567h334l-166 549z" />
    <glyph glyph-name="AE" unicode="&#xc6;" horiz-adv-x="1945" 
d="M1237 580v-285h629v-295h-942v281h-426l-136 -281h-356l725 1446h1118v-295h-612v-289h526v-282h-526zM922 1159l-289 -598h291v598h-2z" />
    <glyph glyph-name="Ccedilla" unicode="&#xc7;" horiz-adv-x="1527" 
d="M1204 539l291 -146q-70 -189 -217 -293.5t-356 -119.5v-72q96 -15 151 -65t55 -126q0 -106 -76.5 -162.5t-226.5 -56.5q-100 0 -198 29v188q108 -24 166 -24q84 0 84 59q0 29 -31.5 46.5t-93.5 17.5h-27v172q-291 37 -468 237t-177 500q0 219 97 389t269 263t390 93
q229 0 398 -100.5t236 -271.5l-288 -160q-37 107 -129.5 169t-221.5 62q-186 0 -301.5 -123.5t-115.5 -320.5q0 -198 116 -321t308 -123q138 0 234 67.5t132 192.5z" />
    <glyph glyph-name="Egrave" unicode="&#xc8;" horiz-adv-x="1163" 
d="M739 1544h-266l-215 346h324zM1083 0h-950v1446h934v-295h-614v-289h528v-282h-528v-285h630v-295z" />
    <glyph glyph-name="Eacute" unicode="&#xc9;" horiz-adv-x="1163" 
d="M729 1544h-266l158 346h323zM1083 0h-950v1446h934v-295h-614v-289h528v-282h-528v-285h630v-295z" />
    <glyph glyph-name="Ecircumflex" unicode="&#xca;" horiz-adv-x="1163" 
d="M715 1544l-113 176l-115 -176h-274l252 346h270l252 -346h-272zM453 580v-285h630v-295h-950v1446h934v-295h-614v-289h528v-282h-528z" />
    <glyph glyph-name="Edieresis" unicode="&#xcb;" horiz-adv-x="1163" 
d="M383 1554q-72 0 -120 47.5t-48 116.5q0 68 48 114t120 46t120 -46t48 -114q0 -69 -48 -116.5t-120 -47.5zM819 1554q-71 0 -119.5 48t-48.5 116q0 67 48.5 113.5t119.5 46.5t119.5 -46.5t48.5 -113.5q0 -68 -48.5 -116t-119.5 -48zM1083 0h-950v1446h934v-295h-614v-289
h528v-282h-528v-285h630v-295z" />
    <glyph glyph-name="Igrave" unicode="&#xcc;" horiz-adv-x="614" 
d="M446 1544h-266l-215 346h324zM473 0h-332v1446h332v-1446z" />
    <glyph glyph-name="Iacute" unicode="&#xcd;" horiz-adv-x="614" 
d="M436 1544h-266l158 346h323zM473 0h-332v1446h332v-1446z" />
    <glyph glyph-name="Icircumflex" unicode="&#xce;" horiz-adv-x="614" 
d="M422 1544l-113 176l-114 -176h-275l252 346h270l252 -346h-272zM473 0h-332v1446h332v-1446z" />
    <glyph glyph-name="Idieresis" unicode="&#xcf;" horiz-adv-x="614" 
d="M90 1554q-72 0 -120 47.5t-48 116.5q0 68 48 114t120 46t120 -46t48 -114q0 -69 -48 -116.5t-120 -47.5zM526 1554q-71 0 -119.5 48t-48.5 116q0 67 48.5 113.5t119.5 46.5t119.5 -46.5t48.5 -113.5q0 -68 -48.5 -116t-119.5 -48zM473 0h-332v1446h332v-1446z" />
    <glyph glyph-name="Eth" unicode="&#xd0;" horiz-adv-x="1497" 
d="M174 1446h512q347 0 539 -195.5t192 -527.5t-190 -527.5t-535 -195.5h-518v586h-178v270h178v590zM500 295h188q202 0 298.5 114t96.5 314t-99 314t-302 114h-182v-295h315v-270h-315v-291z" />
    <glyph glyph-name="Ntilde" unicode="&#xd1;" horiz-adv-x="1474" 
d="M874 1548q-44 0 -84.5 16t-65 35.5t-49.5 35.5t-40 16q-47 0 -47 -90h-217q0 148 63 232.5t170 84.5q45 0 86 -15.5t66 -34.5t50 -34.5t40 -15.5q43 0 43 90h219q0 -149 -63 -234.5t-171 -85.5zM453 0h-320v1446h320l569 -879v879h319v-1446h-319l-569 879v-879z" />
    <glyph glyph-name="Ograve" unicode="&#xd2;" horiz-adv-x="1679" 
d="M979 1544h-266l-215 346h323zM840 -23q-213 0 -386 93t-273.5 264t-100.5 389q0 163 59 303t160.5 236.5t241.5 151t299 54.5q216 0 389 -92.5t273 -263.5t100 -389q0 -164 -58.5 -303.5t-159.5 -236.5t-242 -151.5t-302 -54.5zM840 279q191 0 309.5 123.5t118.5 320.5
t-118.5 320.5t-309.5 123.5q-187 0 -306.5 -124t-119.5 -320t119.5 -320t306.5 -124z" />
    <glyph glyph-name="Oacute" unicode="&#xd3;" horiz-adv-x="1679" 
d="M969 1544h-267l158 346h324zM840 -23q-213 0 -386 93t-273.5 264t-100.5 389q0 163 59 303t160.5 236.5t241.5 151t299 54.5q216 0 389 -92.5t273 -263.5t100 -389q0 -164 -58.5 -303.5t-159.5 -236.5t-242 -151.5t-302 -54.5zM840 279q191 0 309.5 123.5t118.5 320.5
t-118.5 320.5t-309.5 123.5q-187 0 -306.5 -124t-119.5 -320t119.5 -320t306.5 -124z" />
    <glyph glyph-name="Ocircumflex" unicode="&#xd4;" horiz-adv-x="1679" 
d="M954 1544l-112 176l-115 -176h-274l252 346h270l252 -346h-273zM840 1468q216 0 389 -92.5t273 -263.5t100 -389q0 -164 -58.5 -303.5t-159.5 -236.5t-242 -151.5t-302 -54.5q-213 0 -386 93t-273.5 264t-100.5 389q0 163 59 303t160.5 236.5t241.5 151t299 54.5z
M840 279q191 0 309.5 123.5t118.5 320.5t-118.5 320.5t-309.5 123.5q-187 0 -306.5 -124t-119.5 -320t119.5 -320t306.5 -124z" />
    <glyph glyph-name="Otilde" unicode="&#xd5;" horiz-adv-x="1679" 
d="M975 1548q-56 0 -105 26t-83 51.5t-52 25.5q-47 0 -47 -90h-217q0 148 63.5 232.5t170.5 84.5q45 0 86 -15.5t65.5 -34.5t49.5 -34.5t40 -15.5q43 0 43 90h219q0 -149 -62.5 -234.5t-170.5 -85.5zM840 -23q-213 0 -386 93t-273.5 264t-100.5 389q0 163 59 303
t160.5 236.5t241.5 151t299 54.5q216 0 389 -92.5t273 -263.5t100 -389q0 -164 -58.5 -303.5t-159.5 -236.5t-242 -151.5t-302 -54.5zM840 279q191 0 309.5 123.5t118.5 320.5t-118.5 320.5t-309.5 123.5q-187 0 -306.5 -124t-119.5 -320t119.5 -320t306.5 -124z" />
    <glyph glyph-name="Odieresis" unicode="&#xd6;" horiz-adv-x="1679" 
d="M623 1554q-72 0 -120 47.5t-48 116.5q0 68 48 114t120 46t120 -46t48 -114q0 -69 -48 -116.5t-120 -47.5zM1059 1554q-71 0 -119.5 48t-48.5 116q0 67 48.5 113.5t119.5 46.5t119.5 -46.5t48.5 -113.5q0 -68 -48.5 -116t-119.5 -48zM840 -23q-213 0 -386 93t-273.5 264
t-100.5 389q0 163 59 303t160.5 236.5t241.5 151t299 54.5q216 0 389 -92.5t273 -263.5t100 -389q0 -164 -58.5 -303.5t-159.5 -236.5t-242 -151.5t-302 -54.5zM840 279q191 0 309.5 123.5t118.5 320.5t-118.5 320.5t-309.5 123.5q-187 0 -306.5 -124t-119.5 -320
t119.5 -320t306.5 -124z" />
    <glyph glyph-name="multiply" unicode="&#xd7;" horiz-adv-x="1183" 
d="M911 1161l195 -194l-322 -320l320 -319l-193 -193l-319 320l-322 -322l-192 195l321 321l-319 318l190 192l320 -319z" />
    <glyph glyph-name="Oslash" unicode="&#xd8;" horiz-adv-x="1679" 
d="M1501 1485l-137 -205q113 -101 175.5 -243.5t62.5 -313.5q0 -164 -58.5 -303.5t-159.5 -236.5t-242 -151.5t-302 -54.5q-173 0 -318 62l-67 -100h-275l148 219q-118 100 -183 245t-65 320q0 163 59 303t160.5 236.5t241.5 151t299 54.5q174 0 325 -63l54 80h282zM414 723
q0 -173 96 -293l479 715q-71 22 -149 22q-187 0 -306.5 -124t-119.5 -320zM840 279q191 0 309.5 123.5t118.5 320.5q0 165 -88 287l-482 -711q75 -20 142 -20z" />
    <glyph glyph-name="Ugrave" unicode="&#xd9;" horiz-adv-x="1394" 
d="M836 1544h-267l-215 346h324zM698 -23q-589 0 -589 603v866h325v-854q0 -153 59.5 -233t204.5 -80t205 80t60 233v854h323v-866q0 -292 -143.5 -447.5t-444.5 -155.5z" />
    <glyph glyph-name="Uacute" unicode="&#xda;" horiz-adv-x="1394" 
d="M827 1544h-266l158 346h323zM698 -23q-589 0 -589 603v866h325v-854q0 -153 59.5 -233t204.5 -80t205 80t60 233v854h323v-866q0 -292 -143.5 -447.5t-444.5 -155.5z" />
    <glyph glyph-name="Ucircumflex" unicode="&#xdb;" horiz-adv-x="1394" 
d="M813 1544l-113 176l-114 -176h-275l252 346h271l251 -346h-272zM963 592v854h323v-866q0 -292 -143.5 -447.5t-444.5 -155.5q-589 0 -589 603v866h325v-854q0 -153 59.5 -233t204.5 -80t205 80t60 233z" />
    <glyph glyph-name="Udieresis" unicode="&#xdc;" horiz-adv-x="1394" 
d="M479 1554q-72 0 -120 47.5t-48 116.5q0 68 48 114t120 46t120 -46t48 -114q0 -69 -48 -116.5t-120 -47.5zM915 1554q-71 0 -119 48t-48 116q0 67 48 113.5t119 46.5t119.5 -46.5t48.5 -113.5q0 -68 -48.5 -116t-119.5 -48zM698 -23q-589 0 -589 603v866h325v-854
q0 -153 59.5 -233t204.5 -80t205 80t60 233v854h323v-866q0 -292 -143.5 -447.5t-444.5 -155.5z" />
    <glyph glyph-name="Yacute" unicode="&#xdd;" horiz-adv-x="1306" 
d="M780 1544h-266l158 346h323zM815 0h-326v518l-485 928h371l278 -598l277 598h373l-488 -930v-516z" />
    <glyph glyph-name="Thorn" unicode="&#xde;" horiz-adv-x="1241" 
d="M459 0h-326v1446h326v-238h252q240 0 354.5 -119.5t114.5 -338.5q0 -231 -122.5 -355.5t-361.5 -124.5h-237v-270zM459 918v-365h184q107 0 157 43t50 141q0 95 -45.5 138t-157.5 43h-188z" />
    <glyph glyph-name="germandbls" unicode="&#xdf;" horiz-adv-x="1323" 
d="M1190 805l-266 -330q171 -6 270.5 -115t99.5 -303q0 -234 -144.5 -353.5t-391.5 -119.5q-120 0 -203 27l70 270q53 -20 135 -20q108 0 168.5 59.5t60.5 161.5q0 89 -51.5 139.5t-144.5 50.5q-39 0 -113 -18l-98 160l268 350h-352v-764h-305v764h-158v266h158v100
q0 203 99.5 298.5t309.5 95.5q81 0 135 -13l-6 -241q-33 10 -88 10q-83 0 -114 -34t-31 -146v-70h692v-225z" />
    <glyph glyph-name="agrave" unicode="&#xe0;" horiz-adv-x="1236" 
d="M750 1149h-263l-221 352h328zM516 -23q-202 0 -329.5 149.5t-127.5 389.5t128 388.5t331 148.5q204 0 307 -160v137h305v-1030h-305v137q-105 -160 -309 -160zM602 254q103 0 166 72t63 190q0 117 -63 188.5t-166 71.5t-169 -72t-66 -188t66 -189t169 -73z" />
    <glyph glyph-name="aacute" unicode="&#xe1;" horiz-adv-x="1236" 
d="M737 1149h-262l156 352h327zM516 -23q-202 0 -329.5 149.5t-127.5 389.5t128 388.5t331 148.5q204 0 307 -160v137h305v-1030h-305v137q-105 -160 -309 -160zM602 254q103 0 166 72t63 190q0 117 -63 188.5t-166 71.5t-169 -72t-66 -188t66 -189t169 -73z" />
    <glyph glyph-name="acircumflex" unicode="&#xe2;" horiz-adv-x="1236" 
d="M727 1149l-115 176l-114 -176h-275l254 352h271l253 -352h-274zM825 893v137h305v-1030h-305v137q-105 -160 -309 -160q-202 0 -329.5 149.5t-127.5 389.5t128 388.5t331 148.5q204 0 307 -160zM602 254q103 0 166 72t63 190q0 117 -63 188.5t-166 71.5t-169 -72
t-66 -188t66 -189t169 -73z" />
    <glyph glyph-name="atilde" unicode="&#xe3;" horiz-adv-x="1236" 
d="M750 1155q-44 0 -85 16t-65.5 35t-49 35t-40.5 16q-47 0 -47 -90h-217q0 148 63 233t170 85q57 0 106 -25.5t82.5 -50.5t51.5 -25q43 0 43 91h221q0 -148 -63.5 -234t-169.5 -86zM516 -23q-202 0 -329.5 149.5t-127.5 389.5t128 388.5t331 148.5q204 0 307 -160v137h305
v-1030h-305v137q-105 -160 -309 -160zM602 254q103 0 166 72t63 190q0 117 -63 188.5t-166 71.5t-169 -72t-66 -188t66 -189t169 -73z" />
    <glyph glyph-name="adieresis" unicode="&#xe4;" horiz-adv-x="1236" 
d="M393 1171q-72 0 -120 47.5t-48 116.5q0 68 48 114t120 46t120 -46t48 -114q0 -69 -48 -116.5t-120 -47.5zM829 1171q-71 0 -119 48t-48 116q0 67 48 113.5t119 46.5t119.5 -46.5t48.5 -113.5q0 -68 -48.5 -116t-119.5 -48zM516 -23q-202 0 -329.5 149.5t-127.5 389.5
t128 388.5t331 148.5q204 0 307 -160v137h305v-1030h-305v137q-105 -160 -309 -160zM602 254q103 0 166 72t63 190q0 117 -63 188.5t-166 71.5t-169 -72t-66 -188t66 -189t169 -73z" />
    <glyph glyph-name="aring" unicode="&#xe5;" horiz-adv-x="1236" 
d="M612 1145q-109 0 -179.5 64.5t-70.5 164.5q0 99 71 163.5t179 64.5t179 -64.5t71 -163.5t-71 -164t-179 -65zM612 1284q41 0 68 25t27 65t-27 66t-68 26q-40 0 -67 -26t-27 -66q0 -41 26 -65.5t68 -24.5zM516 -23q-202 0 -329.5 149.5t-127.5 389.5t128 388.5t331 148.5
q204 0 307 -160v137h305v-1030h-305v137q-105 -160 -309 -160zM602 254q103 0 166 72t63 190q0 117 -63 188.5t-166 71.5t-169 -72t-66 -188t66 -189t169 -73z" />
    <glyph glyph-name="ae" unicode="&#xe6;" horiz-adv-x="1816" 
d="M1759 516q0 -1 -6 -94h-745q14 -85 83.5 -135.5t186.5 -50.5q157 0 254 110l217 -166q-66 -98 -194.5 -150.5t-284.5 -52.5q-253 0 -400 144q-126 -144 -376 -144q-202 0 -324.5 91.5t-122.5 265.5q0 156 100.5 239.5t272.5 83.5q92 0 174 -21.5t123 -53.5v45
q0 86 -59.5 134t-151.5 48q-128 0 -232 -88l-186 170q66 77 177.5 119.5t238.5 42.5q245 0 366 -146q143 146 375 146q230 0 372 -145.5t142 -391.5zM1241 813q-89 0 -151.5 -50.5t-79.5 -135.5h450q-20 87 -77.5 136.5t-141.5 49.5zM506 217q85 0 144 41.5t65 124.5
q-74 74 -211 74q-162 0 -162 -115q0 -63 46 -94t118 -31z" />
    <glyph glyph-name="ccedilla" unicode="&#xe7;" horiz-adv-x="1103" 
d="M829 406l261 -142q-53 -128 -155 -198t-243 -84v-74q96 -15 151.5 -65t55.5 -126q0 -106 -76.5 -162.5t-226.5 -56.5q-101 0 -199 29v188q108 -24 166 -24q84 0 84 59q0 29 -31.5 46.5t-93.5 17.5h-26v174q-199 36 -318 177.5t-119 350.5q0 239 154 388t393 149
q163 0 287.5 -70.5t179.5 -187.5l-258 -148q-32 64 -85.5 97.5t-119.5 33.5q-108 0 -175.5 -72t-67.5 -190t69 -191t180 -73q149 0 213 154z" />
    <glyph glyph-name="egrave" unicode="&#xe8;" horiz-adv-x="1175" 
d="M586 1501l155 -352h-262l-221 352h328zM1120 516q0 -1 -6 -94h-745q14 -85 83.5 -135.5t186.5 -50.5q157 0 254 110l217 -166q-66 -98 -194.5 -150.5t-284.5 -52.5q-262 0 -417 149.5t-155 389.5q0 239 154 388t391 149q231 0 373.5 -145.5t142.5 -391.5zM600 817
q-90 0 -153 -52.5t-78 -139.5h452q-19 90 -77 141t-144 51z" />
    <glyph glyph-name="eacute" unicode="&#xe9;" horiz-adv-x="1175" 
d="M623 1501h327l-221 -352h-262zM1120 516q0 -1 -6 -94h-745q14 -85 83.5 -135.5t186.5 -50.5q157 0 254 110l217 -166q-66 -98 -194.5 -150.5t-284.5 -52.5q-262 0 -417 149.5t-155 389.5q0 239 154 388t391 149q231 0 373.5 -145.5t142.5 -391.5zM600 817
q-90 0 -153 -52.5t-78 -139.5h452q-19 90 -77 141t-144 51z" />
    <glyph glyph-name="ecircumflex" unicode="&#xea;" horiz-adv-x="1175" 
d="M719 1149l-115 176l-115 -176h-274l254 352h270l254 -352h-274zM1120 516q0 -1 -6 -94h-745q14 -85 83.5 -135.5t186.5 -50.5q157 0 254 110l217 -166q-66 -98 -194.5 -150.5t-284.5 -52.5q-262 0 -417 149.5t-155 389.5q0 239 154 388t391 149q231 0 373.5 -145.5
t142.5 -391.5zM600 817q-90 0 -153 -52.5t-78 -139.5h452q-19 90 -77 141t-144 51z" />
    <glyph glyph-name="edieresis" unicode="&#xeb;" horiz-adv-x="1175" 
d="M387 1171q-72 0 -120 47.5t-48 116.5q0 68 48 114t120 46t120 -46t48 -114q0 -69 -48 -116.5t-120 -47.5zM823 1171q-71 0 -119.5 48t-48.5 116q0 67 48.5 113.5t119.5 46.5t119.5 -46.5t48.5 -113.5q0 -68 -48.5 -116t-119.5 -48zM1120 516q0 -1 -6 -94h-745
q14 -85 83.5 -135.5t186.5 -50.5q157 0 254 110l217 -166q-66 -98 -194.5 -150.5t-284.5 -52.5q-262 0 -417 149.5t-155 389.5q0 239 154 388t391 149q231 0 373.5 -145.5t142.5 -391.5zM600 817q-90 0 -153 -52.5t-78 -139.5h452q-19 90 -77 141t-144 51z" />
    <glyph glyph-name="igrave" unicode="&#xec;" horiz-adv-x="557" 
d="M430 1149h-262l-211 352h322zM434 0h-311v1030h311v-1030z" />
    <glyph glyph-name="iacute" unicode="&#xed;" horiz-adv-x="557" 
d="M389 1149h-264l154 352h319zM434 0h-311v1030h311v-1030z" />
    <glyph glyph-name="icircumflex" unicode="&#xee;" horiz-adv-x="557" 
d="M352 1149l-71 180l-74 -180h-244l191 352h252l188 -352h-242zM434 0h-311v1030h311v-1030z" />
    <glyph glyph-name="idieresis" unicode="&#xef;" horiz-adv-x="557" 
d="M92 1171q-67 0 -111 47t-44 117q0 68 44 114t111 46t111.5 -46t44.5 -114q0 -69 -44.5 -116.5t-111.5 -47.5zM463 1171q-66 0 -111 48t-45 116q0 66 45 113t111 47t110.5 -47t44.5 -113q0 -68 -45 -116t-110 -48zM434 0h-311v1030h311v-1030z" />
    <glyph glyph-name="eth" unicode="&#xf0;" horiz-adv-x="1224" 
d="M1055 1343l-193 -94q301 -319 301 -680q0 -143 -41.5 -256.5t-115.5 -186.5t-174 -111t-218 -38q-116 0 -218.5 39t-176.5 108t-117 167.5t-43 212.5q0 144 65.5 260t175 179t239.5 63q120 0 221 -56q-52 91 -166 205l-223 -111l-80 166l151 74l-123 98l183 177
q98 -70 194 -150l265 129zM612 254q110 0 179 72t69 186q0 112 -68.5 180t-179.5 68q-107 0 -176 -71.5t-69 -180.5q0 -110 69 -182t176 -72z" />
    <glyph glyph-name="ntilde" unicode="&#xf1;" horiz-adv-x="1193" 
d="M743 1155q-44 0 -84.5 16t-65 35t-49 35t-40.5 16q-47 0 -47 -90h-217q0 148 63 233t170 85q57 0 106 -25.5t82.5 -50.5t51.5 -25q43 0 43 91h221q0 -148 -63.5 -234t-170.5 -86zM418 0h-305v1030h299v-139q51 78 133 120t186 42q175 0 270 -113t95 -334v-606h-303v547
q0 125 -43.5 179t-131.5 54q-92 0 -146 -67.5t-54 -175.5v-537z" />
    <glyph glyph-name="ograve" unicode="&#xf2;" horiz-adv-x="1226" 
d="M750 1149h-263l-221 352h328zM612 -23q-155 0 -280.5 67t-199 190.5t-73.5 281.5t73.5 281t199 189.5t280.5 66.5q157 0 282.5 -66.5t198 -189.5t72.5 -281t-72.5 -281.5t-198 -190.5t-282.5 -67zM612 254q110 0 179 72.5t69 189.5t-68.5 188.5t-179.5 71.5
q-108 0 -176.5 -72t-68.5 -188t68.5 -189t176.5 -73z" />
    <glyph glyph-name="oacute" unicode="&#xf3;" horiz-adv-x="1226" 
d="M737 1149h-262l156 352h327zM612 -23q-155 0 -280.5 67t-199 190.5t-73.5 281.5t73.5 281t199 189.5t280.5 66.5q157 0 282.5 -66.5t198 -189.5t72.5 -281t-72.5 -281.5t-198 -190.5t-282.5 -67zM612 254q110 0 179 72.5t69 189.5t-68.5 188.5t-179.5 71.5
q-108 0 -176.5 -72t-68.5 -188t68.5 -189t176.5 -73z" />
    <glyph glyph-name="ocircumflex" unicode="&#xf4;" horiz-adv-x="1226" 
d="M727 1149l-115 176l-114 -176h-275l254 352h271l253 -352h-274zM612 1053q157 0 282.5 -66.5t198 -189.5t72.5 -281t-72.5 -281.5t-198 -190.5t-282.5 -67q-155 0 -280.5 67t-199 190.5t-73.5 281.5t73.5 281t199 189.5t280.5 66.5zM612 254q110 0 179 72.5t69 189.5
t-68.5 188.5t-179.5 71.5q-108 0 -176.5 -72t-68.5 -188t68.5 -189t176.5 -73z" />
    <glyph glyph-name="otilde" unicode="&#xf5;" horiz-adv-x="1226" 
d="M750 1155q-44 0 -85 16t-65.5 35t-49 35t-40.5 16q-47 0 -47 -90h-217q0 148 63 233t170 85q57 0 106 -25.5t82.5 -50.5t51.5 -25q43 0 43 91h221q0 -148 -63.5 -234t-169.5 -86zM612 -23q-155 0 -280.5 67t-199 190.5t-73.5 281.5t73.5 281t199 189.5t280.5 66.5
q157 0 282.5 -66.5t198 -189.5t72.5 -281t-72.5 -281.5t-198 -190.5t-282.5 -67zM612 254q110 0 179 72.5t69 189.5t-68.5 188.5t-179.5 71.5q-108 0 -176.5 -72t-68.5 -188t68.5 -189t176.5 -73z" />
    <glyph glyph-name="odieresis" unicode="&#xf6;" horiz-adv-x="1226" 
d="M395 1171q-72 0 -120 47.5t-48 116.5q0 68 48 114t120 46t120 -46t48 -114q0 -69 -48 -116.5t-120 -47.5zM831 1171q-71 0 -119 48t-48 116q0 67 48 113.5t119 46.5t119.5 -46.5t48.5 -113.5q0 -68 -48.5 -116t-119.5 -48zM612 -23q-155 0 -280.5 67t-199 190.5
t-73.5 281.5t73.5 281t199 189.5t280.5 66.5q157 0 282.5 -66.5t198 -189.5t72.5 -281t-72.5 -281.5t-198 -190.5t-282.5 -67zM612 254q110 0 179 72.5t69 189.5t-68.5 188.5t-179.5 71.5q-108 0 -176.5 -72t-68.5 -188t68.5 -189t176.5 -73z" />
    <glyph glyph-name="divide" unicode="&#xf7;" horiz-adv-x="1093" 
d="M547 899q-78 0 -129 50.5t-51 127.5q0 76 51 125t129 49t130 -49t52 -125t-52 -127t-130 -51zM1016 510h-938v274h938v-274zM547 47q-78 0 -129 50t-51 128q0 76 51 125t129 49t130 -49t52 -125q0 -78 -52 -128t-130 -50z" />
    <glyph glyph-name="oslash" unicode="&#xf8;" horiz-adv-x="1226" 
d="M1110 1090l-117 -172q81 -72 126.5 -175.5t45.5 -226.5q0 -158 -72.5 -281.5t-198 -190.5t-282.5 -67q-113 0 -209 35l-55 -80h-223l119 172q-88 72 -136.5 178t-48.5 234q0 158 73.5 281t199 189.5t280.5 66.5q118 0 224 -39l51 76h223zM612 776q-108 0 -176.5 -72
t-68.5 -188q0 -100 51 -166l280 414q-41 12 -86 12zM612 254q110 0 179 72.5t69 189.5q0 90 -41 152l-276 -404q33 -10 69 -10z" />
    <glyph glyph-name="ugrave" unicode="&#xf9;" horiz-adv-x="1175" 
d="M717 1149h-262l-222 352h328zM457 -23q-175 0 -271 114.5t-96 334.5v604h305v-543q0 -125 44.5 -181t129.5 -56q94 0 145.5 67.5t51.5 176.5v536h303v-1030h-299v139q-106 -162 -313 -162z" />
    <glyph glyph-name="uacute" unicode="&#xfa;" horiz-adv-x="1175" 
d="M707 1149h-263l156 352h328zM457 -23q-175 0 -271 114.5t-96 334.5v604h305v-543q0 -125 44.5 -181t129.5 -56q94 0 145.5 67.5t51.5 176.5v536h303v-1030h-299v139q-106 -162 -313 -162z" />
    <glyph glyph-name="ucircumflex" unicode="&#xfb;" horiz-adv-x="1175" 
d="M694 1149l-114 176l-115 -176h-275l254 352h271l254 -352h-275zM766 494v536h303v-1030h-299v139q-106 -162 -313 -162q-175 0 -271 114.5t-96 334.5v604h305v-543q0 -125 44.5 -181t129.5 -56q94 0 145.5 67.5t51.5 176.5z" />
    <glyph glyph-name="udieresis" unicode="&#xfc;" horiz-adv-x="1175" 
d="M362 1171q-72 0 -119.5 47.5t-47.5 116.5q0 68 47.5 114t119.5 46t120 -46t48 -114q0 -69 -48 -116.5t-120 -47.5zM799 1171q-71 0 -119.5 48t-48.5 116q0 67 48.5 113.5t119.5 46.5t119.5 -46.5t48.5 -113.5q0 -68 -48.5 -116t-119.5 -48zM457 -23q-175 0 -271 114.5
t-96 334.5v604h305v-543q0 -125 44.5 -181t129.5 -56q94 0 145.5 67.5t51.5 176.5v536h303v-1030h-299v139q-106 -162 -313 -162z" />
    <glyph glyph-name="yacute" unicode="&#xfd;" horiz-adv-x="1126" 
d="M584 1501h327l-221 -352h-262zM569 319l207 711h338l-524 -1431h-318l154 407l-414 1024h340z" />
    <glyph glyph-name="thorn" unicode="&#xfe;" horiz-adv-x="1243" 
d="M418 -401h-305v1902h305v-608q100 160 305 160t332 -148t127 -389q0 -240 -127.5 -389.5t-329.5 -149.5q-205 0 -307 160v-538zM641 254q103 0 169.5 73t66.5 189t-66 188t-170 72t-166.5 -71.5t-62.5 -188.5q0 -119 62.5 -190.5t166.5 -71.5z" />
    <glyph glyph-name="ydieresis" unicode="&#xff;" horiz-adv-x="1126" 
d="M346 1171q-72 0 -120 47.5t-48 116.5q0 68 48 114t120 46t120 -46t48 -114q0 -69 -48 -116.5t-120 -47.5zM782 1171q-71 0 -119.5 48t-48.5 116q0 67 48.5 113.5t119.5 46.5t119.5 -46.5t48.5 -113.5q0 -68 -48.5 -116t-119.5 -48zM569 319l207 711h338l-524 -1431h-318
l154 407l-414 1024h340z" />
    <glyph glyph-name="Amacron" unicode="&#x100;" horiz-adv-x="1384" 
d="M385 1835h614v-231h-614v231zM1376 0h-338l-90 285h-512l-90 -285h-340l500 1446h373zM524 567h334l-166 549z" />
    <glyph glyph-name="amacron" unicode="&#x101;" horiz-adv-x="1236" 
d="M920 1204h-615v234h615v-234zM516 -23q-202 0 -329.5 149.5t-127.5 389.5t128 388.5t331 148.5q204 0 307 -160v137h305v-1030h-305v137q-105 -160 -309 -160zM602 254q103 0 166 72t63 190q0 117 -63 188.5t-166 71.5t-169 -72t-66 -188t66 -189t169 -73z" />
    <glyph glyph-name="Abreve" unicode="&#x102;" horiz-adv-x="1384" 
d="M690 1544q-175 0 -268.5 93t-93.5 253h225q0 -58 36 -90.5t101 -32.5t101 32.5t36 90.5h226q0 -160 -94.5 -253t-268.5 -93zM1376 0h-338l-90 285h-512l-90 -285h-340l500 1446h373zM524 567h334l-166 549z" />
    <glyph glyph-name="abreve" unicode="&#x103;" horiz-adv-x="1236" 
d="M612 1141q-176 0 -269 92.5t-93 255.5h225q0 -60 35.5 -93.5t101.5 -33.5t102 33.5t36 93.5h225q0 -162 -94 -255t-269 -93zM516 -23q-202 0 -329.5 149.5t-127.5 389.5t128 388.5t331 148.5q204 0 307 -160v137h305v-1030h-305v137q-105 -160 -309 -160zM602 254
q103 0 166 72t63 190q0 117 -63 188.5t-166 71.5t-169 -72t-66 -188t66 -189t169 -73z" />
    <glyph glyph-name="Aogonek" unicode="&#x104;" horiz-adv-x="1384" 
d="M1210 -219q0 -90 95 -90q33 0 73 14v-182q-59 -23 -151 -23q-133 0 -205 57t-72 154q0 167 189 289h-101l-90 285h-512l-90 -285h-340l500 1446h373l497 -1446h2q-168 -103 -168 -219zM524 567h334l-166 549z" />
    <glyph glyph-name="aogonek" unicode="&#x105;" horiz-adv-x="1236" 
d="M1130 1030v-1030q-167 -102 -167 -219q0 -90 94 -90q33 0 73 14v-182q-59 -23 -151 -23q-133 0 -205 57t-72 154q0 167 189 289h-66v137q-105 -160 -309 -160q-202 0 -329.5 149.5t-127.5 389.5t128 388.5t331 148.5q204 0 307 -160v137h305zM602 254q103 0 166 72
t63 190q0 117 -63 188.5t-166 71.5t-169 -72t-66 -188t66 -189t169 -73z" />
    <glyph glyph-name="Cacute" unicode="&#x106;" horiz-adv-x="1527" 
d="M963 1544h-267l158 346h324zM848 -23q-224 0 -399 93.5t-272 263.5t-97 389t97 389t269 263t390 93q229 0 398 -100.5t236 -271.5l-288 -160q-37 107 -129.5 169t-221.5 62q-186 0 -301.5 -123.5t-115.5 -320.5q0 -198 116 -321t308 -123q138 0 234 67.5t132 192.5
l291 -146q-76 -205 -242 -310.5t-405 -105.5z" />
    <glyph glyph-name="cacute" unicode="&#x107;" horiz-adv-x="1103" 
d="M729 1149h-262l156 352h327zM618 -23q-248 0 -403.5 149t-155.5 390q0 239 154 388t393 149q163 0 287.5 -70.5t179.5 -187.5l-258 -148q-32 64 -85.5 97.5t-119.5 33.5q-108 0 -175.5 -72t-67.5 -190t69 -191t180 -73q149 0 213 154l261 -142q-60 -145 -182 -216
t-290 -71z" />
    <glyph glyph-name="Ccaron" unicode="&#x10c;" horiz-adv-x="1527" 
d="M1221 1890l-252 -346h-271l-252 346h275l113 -176l112 176h275zM1204 539l291 -146q-76 -205 -242 -310.5t-405 -105.5q-224 0 -399 93.5t-272 263.5t-97 389t97 389t269 263t390 93q229 0 398 -100.5t236 -271.5l-288 -160q-37 107 -129.5 169t-221.5 62
q-186 0 -301.5 -123.5t-115.5 -320.5q0 -198 116 -321t308 -123q138 0 234 67.5t132 192.5z" />
    <glyph glyph-name="ccaron" unicode="&#x10d;" horiz-adv-x="1103" 
d="M995 1501l-256 -352h-268l-256 352h277l114 -176l113 176h276zM829 406l261 -142q-60 -145 -182 -216t-290 -71q-248 0 -403.5 149t-155.5 390q0 239 154 388t393 149q163 0 287.5 -70.5t179.5 -187.5l-258 -148q-32 64 -85.5 97.5t-119.5 33.5q-108 0 -175.5 -72
t-67.5 -190t69 -191t180 -73q149 0 213 154z" />
    <glyph glyph-name="Dcaron" unicode="&#x10e;" horiz-adv-x="1456" 
d="M1032 1890l-252 -346h-270l-252 346h274l113 -176l113 176h274zM133 1446h512q347 0 539 -195.5t192 -527.5t-190 -527.5t-535 -195.5h-518v1446zM459 295h188q202 0 298.5 114t96.5 314t-99 314t-302 114h-182v-856z" />
    <glyph glyph-name="dcaron" unicode="&#x10f;" horiz-adv-x="1552" 
d="M516 -23q-202 0 -329.5 149.5t-127.5 389.5t128 388.5t331 148.5q204 0 307 -160v608h305v-1501h-305v137q-105 -160 -309 -160zM1487 1038h-215l6 463h270zM602 254q103 0 166 72t63 190q0 117 -63 188.5t-166 71.5t-169 -72t-66 -188t66 -189t169 -73z" />
    <glyph glyph-name="Dcroat" unicode="&#x110;" horiz-adv-x="1517" 
d="M195 1446h512q347 0 539 -195.5t192 -527.5t-190 -527.5t-535 -195.5h-518v586h-179v270h179v590zM520 295h189q202 0 298.5 114t96.5 314t-99 314t-303 114h-182v-295h316v-270h-316v-291z" />
    <glyph glyph-name="dcroat" unicode="&#x111;" horiz-adv-x="1236" 
d="M1130 1356h148v-215h-148v-1141h-305v137q-105 -160 -309 -160q-202 0 -329.5 149.5t-127.5 389.5t128 388.5t331 148.5q204 0 307 -160v248h-354v215h354v145h305v-145zM602 254q103 0 166 72t63 190q0 117 -63 188.5t-166 71.5t-169 -72t-66 -188t66 -189t169 -73z" />
    <glyph glyph-name="Emacron" unicode="&#x112;" horiz-adv-x="1163" 
d="M907 1604h-614v231h614v-231zM1083 0h-950v1446h934v-295h-614v-289h528v-282h-528v-285h630v-295z" />
    <glyph glyph-name="emacron" unicode="&#x113;" horiz-adv-x="1175" 
d="M297 1438h614v-234h-614v234zM1120 516q0 -1 -6 -94h-745q14 -85 83.5 -135.5t186.5 -50.5q157 0 254 110l217 -166q-66 -98 -194.5 -150.5t-284.5 -52.5q-262 0 -417 149.5t-155 389.5q0 239 154 388t391 149q231 0 373.5 -145.5t142.5 -391.5zM600 817
q-90 0 -153 -52.5t-78 -139.5h452q-19 90 -77 141t-144 51z" />
    <glyph glyph-name="Edotaccent" unicode="&#x116;" horiz-adv-x="1163" 
d="M602 1548q-77 0 -127.5 49t-50.5 125q0 72 51 121t127 49q78 0 129 -49t51 -121q0 -76 -51 -125t-129 -49zM1083 0h-950v1446h934v-295h-614v-289h528v-282h-528v-285h630v-295z" />
    <glyph glyph-name="edotaccent" unicode="&#x117;" horiz-adv-x="1175" 
d="M604 1161q-76 0 -127 50.5t-51 123.5q0 72 51 120t127 48q77 0 128.5 -48t51.5 -120t-52 -123t-128 -51zM1120 516q0 -1 -6 -94h-745q14 -85 83.5 -135.5t186.5 -50.5q157 0 254 110l217 -166q-66 -98 -194.5 -150.5t-284.5 -52.5q-262 0 -417 149.5t-155 389.5
q0 239 154 388t391 149q231 0 373.5 -145.5t142.5 -391.5zM600 817q-90 0 -153 -52.5t-78 -139.5h452q-19 90 -77 141t-144 51z" />
    <glyph glyph-name="Eogonek" unicode="&#x118;" horiz-adv-x="1163" 
d="M1083 295v-295q-168 -103 -168 -219q0 -90 95 -90q33 0 73 14v-182q-59 -23 -151 -23q-133 0 -205 57t-72 154q0 167 189 289h-711v1446h934v-295h-614v-289h528v-282h-528v-285h630z" />
    <glyph glyph-name="eogonek" unicode="&#x119;" horiz-adv-x="1175" 
d="M1120 516q0 -1 -6 -94h-745q14 -85 83.5 -135.5t186.5 -50.5q157 0 254 110l217 -166q-87 -131 -291 -182q-166 -98 -166 -217q0 -90 95 -90q33 0 73 14v-182q-59 -23 -151 -23q-133 0 -205 57t-72 154q0 155 162 271q-230 22 -363 167t-133 367q0 239 154 388t391 149
q231 0 373.5 -145.5t142.5 -391.5zM600 817q-90 0 -153 -52.5t-78 -139.5h452q-19 90 -77 141t-144 51z" />
    <glyph glyph-name="Ecaron" unicode="&#x11a;" horiz-adv-x="1163" 
d="M987 1890l-252 -346h-270l-252 346h274l113 -176l113 176h274zM453 580v-285h630v-295h-950v1446h934v-295h-614v-289h528v-282h-528z" />
    <glyph glyph-name="ecaron" unicode="&#x11b;" horiz-adv-x="1175" 
d="M995 1501l-256 -352h-268l-256 352h277l114 -176l113 176h276zM1120 516q0 -1 -6 -94h-745q14 -85 83.5 -135.5t186.5 -50.5q157 0 254 110l217 -166q-66 -98 -194.5 -150.5t-284.5 -52.5q-262 0 -417 149.5t-155 389.5q0 239 154 388t391 149q231 0 373.5 -145.5
t142.5 -391.5zM600 817q-90 0 -153 -52.5t-78 -139.5h452q-19 90 -77 141t-144 51z" />
    <glyph glyph-name="Gbreve" unicode="&#x11e;" horiz-adv-x="1622" 
d="M834 1544q-175 0 -269 93t-94 253h225q0 -57 36 -90t102 -33q65 0 101 32.5t36 90.5h225q0 -160 -94 -253t-268 -93zM815 549v264h754v-68q0 -356 -189.5 -562t-529.5 -206q-226 0 -401.5 93.5t-272 263.5t-96.5 389t97 389t269 263t390 93q225 0 392.5 -98t237.5 -264
l-292 -150q-40 99 -130.5 155t-212.5 56q-186 0 -301.5 -123.5t-115.5 -320.5q0 -204 115 -325.5t323 -121.5q312 0 383 273h-420z" />
    <glyph glyph-name="gbreve" unicode="&#x11f;" horiz-adv-x="1236" 
d="M612 1141q-176 0 -269 92.5t-93 255.5h225q0 -60 35.5 -93.5t101.5 -33.5t102 33.5t36 93.5h225q0 -162 -94 -255t-269 -93zM600 -424q-350 0 -487 229l245 136q74 -113 232 -113q235 0 235 223v109q-105 -152 -309 -152q-202 0 -329.5 145.5t-127.5 378.5
q0 232 128 376.5t331 144.5q205 0 307 -150v127h305v-934q0 -254 -141 -387t-389 -133zM602 274q103 0 166 69.5t63 184.5q0 112 -63 180t-166 68q-104 0 -169.5 -68t-65.5 -180q0 -113 66 -183.5t169 -70.5z" />
    <glyph glyph-name="uni0122" unicode="&#x122;" horiz-adv-x="1622" 
d="M815 549v264h754v-68q0 -356 -189.5 -562t-529.5 -206q-226 0 -401.5 93.5t-272 263.5t-96.5 389t97 389t269 263t390 93q225 0 392.5 -98t237.5 -264l-292 -150q-40 99 -130.5 155t-212.5 56q-186 0 -301.5 -123.5t-115.5 -320.5q0 -204 115 -325.5t323 -121.5
q312 0 383 273h-420zM915 -498h-235l20 387h306z" />
    <glyph glyph-name="uni0123" unicode="&#x123;" horiz-adv-x="1236" 
d="M545 1536h235l-20 -387h-305zM600 -424q-350 0 -487 229l245 136q74 -113 232 -113q235 0 235 223v109q-105 -152 -309 -152q-202 0 -329.5 145.5t-127.5 378.5q0 232 128 376.5t331 144.5q205 0 307 -150v127h305v-934q0 -254 -141 -387t-389 -133zM602 274
q103 0 166 69.5t63 184.5q0 112 -63 180t-166 68q-104 0 -169.5 -68t-65.5 -180q0 -113 66 -183.5t169 -70.5z" />
    <glyph glyph-name="Imacron" unicode="&#x12a;" horiz-adv-x="614" 
d="M610 1604h-606v231h606v-231zM473 0h-332v1446h332v-1446z" />
    <glyph glyph-name="imacron" unicode="&#x12b;" horiz-adv-x="557" 
d="M557 1204h-557v234h557v-234zM434 0h-311v1030h311v-1030z" />
    <glyph glyph-name="Iogonek" unicode="&#x12e;" horiz-adv-x="614" 
d="M473 1446v-1446q-168 -103 -168 -219q0 -90 94 -90q34 0 74 14v-182q-59 -23 -151 -23q-133 0 -205 57t-72 154q0 168 188 289h-92v1446h332z" />
    <glyph glyph-name="iogonek" unicode="&#x12f;" horiz-adv-x="557" 
d="M279 1161q-76 0 -127.5 50.5t-51.5 123.5q0 72 51 120t128 48t128.5 -48t51.5 -120t-52 -123t-128 -51zM195 0h-72v1030h311v-1030q-168 -103 -168 -219q0 -90 94 -90q34 0 74 14v-182q-59 -23 -151 -23q-133 0 -205 57t-72 154q0 167 189 289z" />
    <glyph glyph-name="Idotaccent" unicode="&#x130;" horiz-adv-x="614" 
d="M309 1548q-77 0 -127.5 49t-50.5 125q0 72 51 121t127 49q78 0 129 -49t51 -121q0 -76 -51 -125t-129 -49zM473 0h-332v1446h332v-1446z" />
    <glyph glyph-name="dotlessi" unicode="&#x131;" horiz-adv-x="557" 
d="M434 0h-311v1030h311v-1030z" />
    <glyph glyph-name="uni0136" unicode="&#x136;" horiz-adv-x="1359" 
d="M1305 1446l-492 -676l535 -770h-394l-495 711v-711h-326v1446h326v-637l450 637h396zM772 -498h-235l20 387h305z" />
    <glyph glyph-name="uni0137" unicode="&#x137;" horiz-adv-x="1138" 
d="M1108 1030l-387 -477l422 -553h-367l-358 489v-489h-305v1501h305v-911l323 440h367zM643 -498h-235l20 387h305z" />
    <glyph glyph-name="Lacute" unicode="&#x139;" horiz-adv-x="1087" 
d="M424 1544h-266l157 346h324zM1040 0h-907v1446h326v-1141h581v-305z" />
    <glyph glyph-name="lacute" unicode="&#x13a;" horiz-adv-x="546" 
d="M401 1599h-266l158 347h323zM430 0h-313v1501h313v-1501z" />
    <glyph glyph-name="uni013B" unicode="&#x13b;" horiz-adv-x="1087" 
d="M1040 0h-907v1446h326v-1141h581v-305zM655 -498h-235l20 387h305z" />
    <glyph glyph-name="uni013C" unicode="&#x13c;" horiz-adv-x="546" 
d="M430 0h-313v1501h313v-1501zM340 -498h-236l21 387h305z" />
    <glyph glyph-name="Lcaron" unicode="&#x13d;" horiz-adv-x="1087" 
d="M934 1038h-215l8 463h270zM1040 0h-907v1446h326v-1141h581v-305z" />
    <glyph glyph-name="lcaron" unicode="&#x13e;" horiz-adv-x="851" 
d="M430 0h-313v1501h313v-1501zM786 1038h-217l9 463h270z" />
    <glyph glyph-name="Ldot" unicode="&#x13f;" horiz-adv-x="1087" 
d="M1040 0h-907v1446h326v-1141h581v-305zM842 563q-85 0 -140 54t-55 137q0 82 55 134t140 52q84 0 138 -52.5t54 -133.5q0 -83 -54.5 -137t-137.5 -54z" />
    <glyph glyph-name="ldot" unicode="&#x140;" horiz-adv-x="931" 
d="M430 0h-313v1501h313v-1501zM739 563q-83 0 -137.5 54t-54.5 137q0 81 54 133.5t138 52.5t138.5 -52.5t54.5 -133.5q0 -83 -55 -137t-138 -54z" />
    <glyph glyph-name="Lslash" unicode="&#x141;" horiz-adv-x="1136" 
d="M508 639v-334h582v-305h-908v483l-149 -80v302l149 79v662h326v-506l354 188v-301z" />
    <glyph glyph-name="lslash" unicode="&#x142;" horiz-adv-x="647" 
d="M498 961l166 110v-270l-166 -109v-692h-314v508l-164 -109v271l164 108v723h314v-540z" />
    <glyph glyph-name="Nacute" unicode="&#x143;" horiz-adv-x="1474" 
d="M866 1544h-266l158 346h323zM453 0h-320v1446h320l569 -879v879h319v-1446h-319l-569 879v-879z" />
    <glyph glyph-name="nacute" unicode="&#x144;" horiz-adv-x="1193" 
d="M731 1149h-262l156 352h327zM418 0h-305v1030h299v-139q51 78 133 120t186 42q175 0 270 -113t95 -334v-606h-303v547q0 125 -43.5 179t-131.5 54q-92 0 -146 -67.5t-54 -175.5v-537z" />
    <glyph glyph-name="uni0145" unicode="&#x145;" horiz-adv-x="1474" 
d="M453 0h-320v1446h320l569 -879v879h319v-1446h-319l-569 879v-879zM805 -498h-236l21 387h305z" />
    <glyph glyph-name="uni0146" unicode="&#x146;" horiz-adv-x="1193" 
d="M418 0h-305v1030h299v-139q51 78 133 120t186 42q175 0 270 -113t95 -334v-606h-303v547q0 125 -43.5 179t-131.5 54q-92 0 -146 -67.5t-54 -175.5v-537zM672 -498h-236l21 387h305z" />
    <glyph glyph-name="Ncaron" unicode="&#x147;" horiz-adv-x="1474" 
d="M1124 1890l-252 -346h-270l-252 346h275l112 -176l113 176h274zM1022 567v879h319v-1446h-319l-569 879v-879h-320v1446h320z" />
    <glyph glyph-name="ncaron" unicode="&#x148;" horiz-adv-x="1193" 
d="M995 1501l-256 -352h-268l-256 352h277l114 -176l113 176h276zM731 1053q175 0 270 -113t95 -334v-606h-303v547q0 125 -43.5 179t-131.5 54q-92 0 -146 -67.5t-54 -175.5v-537h-305v1030h299v-139q51 78 133 120t186 42z" />
    <glyph glyph-name="Omacron" unicode="&#x14c;" horiz-adv-x="1679" 
d="M1147 1604h-615v231h615v-231zM840 -23q-213 0 -386 93t-273.5 264t-100.5 389q0 163 59 303t160.5 236.5t241.5 151t299 54.5q216 0 389 -92.5t273 -263.5t100 -389q0 -164 -58.5 -303.5t-159.5 -236.5t-242 -151.5t-302 -54.5zM840 279q191 0 309.5 123.5t118.5 320.5
t-118.5 320.5t-309.5 123.5q-187 0 -306.5 -124t-119.5 -320t119.5 -320t306.5 -124z" />
    <glyph glyph-name="omacron" unicode="&#x14d;" horiz-adv-x="1226" 
d="M920 1204h-615v234h615v-234zM612 -23q-155 0 -280.5 67t-199 190.5t-73.5 281.5t73.5 281t199 189.5t280.5 66.5q157 0 282.5 -66.5t198 -189.5t72.5 -281t-72.5 -281.5t-198 -190.5t-282.5 -67zM612 254q110 0 179 72.5t69 189.5t-68.5 188.5t-179.5 71.5
q-108 0 -176.5 -72t-68.5 -188t68.5 -189t176.5 -73z" />
    <glyph glyph-name="Ohungarumlaut" unicode="&#x150;" horiz-adv-x="1679" 
d="M739 1544h-266l158 346h323zM1194 1544h-266l157 346h324zM840 -23q-213 0 -386 93t-273.5 264t-100.5 389q0 163 59 303t160.5 236.5t241.5 151t299 54.5q216 0 389 -92.5t273 -263.5t100 -389q0 -164 -58.5 -303.5t-159.5 -236.5t-242 -151.5t-302 -54.5zM840 279
q191 0 309.5 123.5t118.5 320.5t-118.5 320.5t-309.5 123.5q-187 0 -306.5 -124t-119.5 -320t119.5 -320t306.5 -124z" />
    <glyph glyph-name="ohungarumlaut" unicode="&#x151;" horiz-adv-x="1226" 
d="M510 1149h-262l155 352h328zM963 1149h-263l158 352h328zM612 -23q-155 0 -280.5 67t-199 190.5t-73.5 281.5t73.5 281t199 189.5t280.5 66.5q157 0 282.5 -66.5t198 -189.5t72.5 -281t-72.5 -281.5t-198 -190.5t-282.5 -67zM612 254q110 0 179 72.5t69 189.5
t-68.5 188.5t-179.5 71.5q-108 0 -176.5 -72t-68.5 -188t68.5 -189t176.5 -73z" />
    <glyph glyph-name="OE" unicode="&#x152;" horiz-adv-x="1886" 
d="M1178 580v-285h628v-295h-948h-2q-353 0 -564.5 197t-211.5 526q0 161 53 294.5t151.5 228.5t245 147.5t326.5 52.5h2h932v-295h-612v-289h526v-282h-526zM856 301h2v844h-2q-222 0 -332 -113.5t-110 -308.5q0 -197 113.5 -309.5t328.5 -112.5z" />
    <glyph glyph-name="oe" unicode="&#x153;" horiz-adv-x="1978" 
d="M1921 516q0 -48 -6 -94h-746q14 -85 84 -135.5t187 -50.5q157 0 254 110l217 -166q-66 -98 -194.5 -150.5t-284.5 -52.5q-271 0 -418 166q-71 -79 -175 -122.5t-227 -43.5q-155 0 -280.5 67t-199 190.5t-73.5 281.5t73.5 281t199 189.5t280.5 66.5q124 0 227.5 -42.5
t174.5 -121.5q142 164 393 164q230 0 372 -145.5t142 -391.5zM1403 813q-89 0 -152 -50.5t-80 -135.5h451q-20 87 -77.5 136.5t-141.5 49.5zM612 254q110 0 179 72.5t69 189.5t-68.5 188.5t-179.5 71.5q-108 0 -176.5 -72t-68.5 -188t68.5 -189t176.5 -73z" />
    <glyph glyph-name="Racute" unicode="&#x154;" horiz-adv-x="1325" 
d="M637 1890h324l-216 -346h-266zM913 618l412 -618h-387l-348 541h-131v-541h-326v1446h559q239 0 356 -117.5t117 -324.5q0 -150 -65.5 -248t-186.5 -138zM629 1157h-170v-356h166q104 0 155 41t51 137q0 95 -47.5 136.5t-154.5 41.5z" />
    <glyph glyph-name="racute" unicode="&#x155;" horiz-adv-x="802" 
d="M573 1149h-262l156 352h328zM418 0h-305v1030h299v-166q42 87 122 138t183 51q35 0 47 -2l-8 -322q-60 8 -109 8q-111 0 -170 -73t-59 -191v-473z" />
    <glyph glyph-name="uni0156" unicode="&#x156;" horiz-adv-x="1325" 
d="M913 618l412 -618h-387l-348 541h-131v-541h-326v1446h559q239 0 356 -117.5t117 -324.5q0 -150 -65.5 -248t-186.5 -138zM629 1157h-170v-356h166q104 0 155 41t51 137q0 95 -47.5 136.5t-154.5 41.5zM766 -498h-236l21 387h305z" />
    <glyph glyph-name="uni0157" unicode="&#x157;" horiz-adv-x="802" 
d="M418 0h-305v1030h299v-166q42 87 122 138t183 51q35 0 47 -2l-8 -322q-60 8 -109 8q-111 0 -170 -73t-59 -191v-473zM332 -498h-236l21 387h305z" />
    <glyph glyph-name="Rcaron" unicode="&#x158;" horiz-adv-x="1325" 
d="M1006 1890l-252 -346h-271l-252 346h275l112 -176l113 176h275zM913 618l412 -618h-387l-348 541h-131v-541h-326v1446h559q239 0 356 -117.5t117 -324.5q0 -150 -65.5 -248t-186.5 -138zM629 1157h-170v-356h166q104 0 155 41t51 137q0 95 -47.5 136.5t-154.5 41.5z" />
    <glyph glyph-name="rcaron" unicode="&#x159;" horiz-adv-x="802" 
d="M838 1501l-256 -352h-269l-256 352h277l115 -176l112 176h277zM412 1030v-166q42 87 122 138t183 51q35 0 47 -2l-8 -322q-60 8 -109 8q-111 0 -170 -73t-59 -191v-473h-305v1030h299z" />
    <glyph glyph-name="Sacute" unicode="&#x15a;" horiz-adv-x="1179" 
d="M705 1544h-267l158 346h324zM602 -20q-204 0 -350.5 70t-208.5 194l244 186q94 -170 301 -170q95 0 150 37t55 111q0 68 -53 102t-191 65q-83 19 -147 41t-125 58t-101 83t-64 115t-24 154q0 205 136.5 322.5t353.5 117.5q190 0 326 -76t183 -196l-253 -168
q-79 160 -242 160q-80 0 -127 -40t-47 -112q0 -82 56 -116.5t214 -65.5q78 -16 139.5 -37t118 -55.5t94.5 -79.5t60 -109.5t22 -144.5q0 -215 -137.5 -330.5t-382.5 -115.5z" />
    <glyph glyph-name="sacute" unicode="&#x15b;" horiz-adv-x="980" 
d="M610 1149h-262l156 352h327zM502 -23q-170 0 -288.5 57t-172.5 165l209 145q96 -135 254 -135q121 0 121 88q0 42 -38 64t-153 45q-60 11 -108 26t-96 40t-80 58t-52 82.5t-20 110.5q0 162 113 246t296 84q157 0 267.5 -52t163.5 -137l-218 -153q-40 55 -86.5 77.5
t-109.5 22.5q-59 0 -95 -20.5t-36 -63.5q0 -36 45.5 -58t148.5 -42q73 -15 124 -30t100 -39t77.5 -55t46 -77.5t17.5 -106.5q0 -342 -430 -342z" />
    <glyph glyph-name="Scedilla" unicode="&#x15e;" horiz-adv-x="1179" 
d="M1122 426q0 -198 -117.5 -312.5t-330.5 -131.5v-74q96 -15 151.5 -65t55.5 -126q0 -106 -76.5 -162.5t-226.5 -56.5q-101 0 -199 29v188q108 -24 166 -24q84 0 84 59q0 29 -31.5 46.5t-93.5 17.5h-27v174q-157 19 -269 85.5t-165 170.5l244 186q94 -170 301 -170
q95 0 150 37t55 111q0 68 -53 102t-191 65q-83 19 -147 41t-125 58t-101 83t-64 115t-24 154q0 205 136.5 322.5t353.5 117.5q190 0 326 -76t183 -196l-253 -168q-79 160 -242 160q-80 0 -127 -40t-47 -112q0 -82 56 -116.5t214 -65.5q78 -16 139.5 -37t118 -55.5
t94.5 -79.5t60 -109.5t22 -144.5z" />
    <glyph glyph-name="scedilla" unicode="&#x15f;" horiz-adv-x="980" 
d="M932 319q0 -309 -357 -339v-72q96 -15 151.5 -65t55.5 -126q0 -106 -76.5 -162.5t-226.5 -56.5q-100 0 -198 29v188q108 -24 165 -24q84 0 84 59q0 29 -31 46.5t-93 17.5h-27v172q-252 36 -338 213l209 145q96 -135 254 -135q121 0 121 88q0 42 -38 64t-153 45
q-60 11 -108 26t-96 40t-80 58t-52 82.5t-20 110.5q0 162 113 246t296 84q157 0 267.5 -52t163.5 -137l-218 -153q-40 55 -86.5 77.5t-109.5 22.5q-59 0 -95 -20.5t-36 -63.5q0 -36 45.5 -58t148.5 -42q73 -15 124 -30t100 -39t77.5 -55t46 -77.5t17.5 -106.5z" />
    <glyph glyph-name="Scaron" unicode="&#x160;" horiz-adv-x="1179" 
d="M965 1890l-252 -346h-271l-252 346h275l113 -176l112 176h275zM688 852q78 -16 139.5 -37t118 -55.5t94.5 -79.5t60 -109.5t22 -144.5q0 -215 -137.5 -330.5t-382.5 -115.5q-204 0 -350.5 70t-208.5 194l244 186q94 -170 301 -170q95 0 150 37t55 111q0 68 -53 102
t-191 65q-83 19 -147 41t-125 58t-101 83t-64 115t-24 154q0 205 136.5 322.5t353.5 117.5q190 0 326 -76t183 -196l-253 -168q-79 160 -242 160q-80 0 -127 -40t-47 -112q0 -82 56 -116.5t214 -65.5z" />
    <glyph glyph-name="scaron" unicode="&#x161;" horiz-adv-x="980" 
d="M877 1501l-256 -352h-269l-256 352h277l114 -176l113 176h277zM567 627q73 -15 124 -30t100 -39t77.5 -55t46 -77.5t17.5 -106.5q0 -342 -430 -342q-170 0 -288.5 57t-172.5 165l209 145q96 -135 254 -135q121 0 121 88q0 42 -38 64t-153 45q-60 11 -108 26t-96 40
t-80 58t-52 82.5t-20 110.5q0 162 113 246t296 84q157 0 267.5 -52t163.5 -137l-218 -153q-40 55 -86.5 77.5t-109.5 22.5q-59 0 -95 -20.5t-36 -63.5q0 -36 45.5 -58t148.5 -42z" />
    <glyph glyph-name="uni0162" unicode="&#x162;" horiz-adv-x="1216" 
d="M770 1145v-1145h-88v-92q96 -15 151.5 -65t55.5 -126q0 -106 -76.5 -162.5t-226.5 -56.5q-101 0 -199 29v188q108 -24 166 -24q84 0 84 59q0 29 -31.5 46.5t-93.5 17.5h-27v186h-39v1145h-399v301h1122v-301h-399z" />
    <glyph glyph-name="uni0163" unicode="&#x163;" horiz-adv-x="806" 
d="M553 -20v-72q96 -15 151.5 -65t55.5 -126q0 -106 -76.5 -162.5t-226.5 -56.5q-101 0 -199 29v188q108 -24 166 -24q84 0 84 59q0 29 -31.5 46.5t-93.5 17.5h-27v200q-161 74 -161 336v414h-160v266h160v250h305v-250h245v-266h-245v-358q0 -88 28.5 -126t92.5 -38
q67 0 122 24l11 -252q-78 -34 -201 -34z" />
    <glyph glyph-name="Tcaron" unicode="&#x164;" horiz-adv-x="1216" 
d="M995 1890l-252 -346h-270l-252 346h275l112 -176l113 176h274zM47 1145v301h1122v-301h-399v-1145h-324v1145h-399z" />
    <glyph glyph-name="tcaron" unicode="&#x165;" horiz-adv-x="866" 
d="M637 1102l8 463h270l-63 -463h-215zM621 242q67 0 122 24l11 -252q-81 -34 -207 -34q-192 0 -272 94.5t-80 275.5v414h-160v266h160v250h305v-250h245v-266h-245v-358q0 -88 28.5 -126t92.5 -38z" />
    <glyph glyph-name="Umacron" unicode="&#x16a;" horiz-adv-x="1394" 
d="M1006 1604h-615v231h615v-231zM698 -23q-589 0 -589 603v866h325v-854q0 -153 59.5 -233t204.5 -80t205 80t60 233v854h323v-866q0 -292 -143.5 -447.5t-444.5 -155.5z" />
    <glyph glyph-name="umacron" unicode="&#x16b;" horiz-adv-x="1175" 
d="M889 1204h-615v234h615v-234zM457 -23q-175 0 -271 114.5t-96 334.5v604h305v-543q0 -125 44.5 -181t129.5 -56q94 0 145.5 67.5t51.5 176.5v536h303v-1030h-299v139q-106 -162 -313 -162z" />
    <glyph glyph-name="Uring" unicode="&#x16e;" horiz-adv-x="1394" 
d="M700 1520q-109 0 -179 63.5t-70 163.5t70 164.5t179 64.5q107 0 177.5 -64.5t70.5 -164.5q0 -99 -70 -163t-178 -64zM698 1657q42 0 69.5 25.5t27.5 64.5q0 40 -28 66t-69 26q-40 0 -67 -25.5t-27 -66.5q0 -39 27 -64.5t67 -25.5zM698 -23q-589 0 -589 603v866h325v-854
q0 -153 59.5 -233t204.5 -80t205 80t60 233v854h323v-866q0 -292 -143.5 -447.5t-444.5 -155.5z" />
    <glyph glyph-name="uring" unicode="&#x16f;" horiz-adv-x="1175" 
d="M582 1145q-109 0 -179.5 64.5t-70.5 164.5q0 99 71 163.5t179 64.5t178.5 -64.5t70.5 -163.5t-70.5 -164t-178.5 -65zM582 1284q41 0 67.5 24.5t26.5 65.5q0 40 -26.5 66t-67.5 26q-40 0 -67.5 -26.5t-27.5 -65.5q0 -41 26.5 -65.5t68.5 -24.5zM457 -23
q-175 0 -271 114.5t-96 334.5v604h305v-543q0 -125 44.5 -181t129.5 -56q94 0 145.5 67.5t51.5 176.5v536h303v-1030h-299v139q-106 -162 -313 -162z" />
    <glyph glyph-name="Uhungarumlaut" unicode="&#x170;" horiz-adv-x="1394" 
d="M598 1544h-266l157 346h324zM1053 1544h-267l158 346h324zM698 -23q-589 0 -589 603v866h325v-854q0 -153 59.5 -233t204.5 -80t205 80t60 233v854h323v-866q0 -292 -143.5 -447.5t-444.5 -155.5z" />
    <glyph glyph-name="uhungarumlaut" unicode="&#x171;" horiz-adv-x="1175" 
d="M477 1149h-262l156 352h327zM930 1149h-262l157 352h328zM457 -23q-175 0 -271 114.5t-96 334.5v604h305v-543q0 -125 44.5 -181t129.5 -56q94 0 145.5 67.5t51.5 176.5v536h303v-1030h-299v139q-106 -162 -313 -162z" />
    <glyph glyph-name="Uogonek" unicode="&#x172;" horiz-adv-x="1394" 
d="M963 592v854h323v-866q0 -484 -385 -580q-168 -103 -168 -219q0 -90 94 -90q34 0 74 14v-182q-59 -23 -151 -23q-133 0 -205 57t-72 154q0 152 160 269q-524 33 -524 600v866h325v-854q0 -153 59.5 -233t204.5 -80t205 80t60 233z" />
    <glyph glyph-name="uogonek" unicode="&#x173;" horiz-adv-x="1175" 
d="M903 -219q0 -90 94 -90q34 0 74 14v-182q-59 -23 -151 -23q-133 0 -205 57t-72 154q0 168 188 289h-61v139q-106 -162 -313 -162q-175 0 -271 114.5t-96 334.5v604h305v-543q0 -125 44.5 -181t129.5 -56q94 0 145.5 67.5t51.5 176.5v536h303v-1030h2q-168 -103 -168 -219
z" />
    <glyph glyph-name="Ydieresis" unicode="&#x178;" horiz-adv-x="1306" 
d="M434 1554q-72 0 -120 47.5t-48 116.5q0 68 48 114t120 46t120 -46t48 -114q0 -69 -48 -116.5t-120 -47.5zM870 1554q-71 0 -119.5 48t-48.5 116q0 67 48.5 113.5t119.5 46.5t119.5 -46.5t48.5 -113.5q0 -68 -48.5 -116t-119.5 -48zM815 0h-326v518l-485 928h371l278 -598
l277 598h373l-488 -930v-516z" />
    <glyph glyph-name="Zacute" unicode="&#x179;" horiz-adv-x="1191" 
d="M623 1890h323l-215 -346h-266zM1118 1202l-618 -901h651v-301h-1083v246l618 899h-600v301h1032v-244z" />
    <glyph glyph-name="zacute" unicode="&#x17a;" horiz-adv-x="999" 
d="M514 1501h328l-221 -352h-263zM909 846l-432 -580h465v-266h-872v184l430 580h-422v266h831v-184z" />
    <glyph glyph-name="Zdotaccent" unicode="&#x17b;" horiz-adv-x="1191" 
d="M604 1548q-77 0 -127.5 49t-50.5 125q0 72 51 121t127 49q78 0 129 -49t51 -121q0 -76 -51 -125t-129 -49zM1118 1202l-618 -901h651v-301h-1083v246l618 899h-600v301h1032v-244z" />
    <glyph glyph-name="zdotaccent" unicode="&#x17c;" horiz-adv-x="999" 
d="M494 1161q-76 0 -127.5 50.5t-51.5 123.5q0 72 51 120t128 48t128.5 -48t51.5 -120t-52 -123t-128 -51zM909 846l-432 -580h465v-266h-872v184l430 580h-422v266h831v-184z" />
    <glyph glyph-name="Zcaron" unicode="&#x17d;" horiz-adv-x="1191" 
d="M989 1890l-252 -346h-270l-252 346h274l113 -176l113 176h274zM1118 1202l-618 -901h651v-301h-1083v246l618 899h-600v301h1032v-244z" />
    <glyph glyph-name="zcaron" unicode="&#x17e;" horiz-adv-x="999" 
d="M885 1501l-256 -352h-269l-256 352h277l115 -176l112 176h277zM909 846l-432 -580h465v-266h-872v184l430 580h-422v266h831v-184z" />
    <glyph glyph-name="florin" unicode="&#x192;" horiz-adv-x="796" 
d="M668 1280q-83 0 -114.5 -34t-31.5 -146v-70h226v-266h-226v-782q0 -192 -98 -299t-287 -107q-75 0 -145 12l8 250q40 -8 78 -8q73 0 107 40.5t34 143.5v750h-160v266h160v100q0 204 99 299t309 95q81 0 135 -13l-6 -241q-30 10 -88 10z" />
    <glyph glyph-name="uni0218" unicode="&#x218;" horiz-adv-x="1179" 
d="M602 -20q-204 0 -350.5 70t-208.5 194l244 186q94 -170 301 -170q95 0 150 37t55 111q0 68 -53 102t-191 65q-83 19 -147 41t-125 58t-101 83t-64 115t-24 154q0 205 136.5 322.5t353.5 117.5q190 0 326 -76t183 -196l-253 -168q-79 160 -242 160q-80 0 -127 -40
t-47 -112q0 -82 56 -116.5t214 -65.5q78 -16 139.5 -37t118 -55.5t94.5 -79.5t60 -109.5t22 -144.5q0 -215 -137.5 -330.5t-382.5 -115.5zM666 -498h-236l21 387h305z" />
    <glyph glyph-name="uni0219" unicode="&#x219;" horiz-adv-x="980" 
d="M502 -23q-170 0 -288.5 57t-172.5 165l209 145q96 -135 254 -135q121 0 121 88q0 42 -38 64t-153 45q-60 11 -108 26t-96 40t-80 58t-52 82.5t-20 110.5q0 162 113 246t296 84q157 0 267.5 -52t163.5 -137l-218 -153q-40 55 -86.5 77.5t-109.5 22.5q-59 0 -95 -20.5
t-36 -63.5q0 -36 45.5 -58t148.5 -42q73 -15 124 -30t100 -39t77.5 -55t46 -77.5t17.5 -106.5q0 -342 -430 -342zM567 -498h-235l20 387h305z" />
    <glyph glyph-name="uni021A" unicode="&#x21a;" horiz-adv-x="1216" 
d="M770 0h-324v1145h-399v301h1122v-301h-399v-1145zM674 -498h-236l21 387h305z" />
    <glyph glyph-name="uni021B" unicode="&#x21b;" horiz-adv-x="806" 
d="M743 266l11 -252q-81 -34 -207 -34q-192 0 -272 94.5t-80 275.5v414h-160v266h160v250h305v-250h245v-266h-245v-358q0 -88 28.5 -126t92.5 -38q67 0 122 24zM545 -498h-236l21 387h305z" />
    <glyph glyph-name="uni0237" unicode="&#x237;" horiz-adv-x="557" 
d="M49 -424q-77 0 -147 12l10 250q40 -8 78 -8q69 0 101 40.5t32 143.5v1016h311v-1048q0 -192 -98 -299t-287 -107z" />
    <glyph glyph-name="circumflex" unicode="&#x2c6;" horiz-adv-x="794" 
d="M532 1501l254 -352h-274l-115 176l-114 -176h-275l254 352h270z" />
    <glyph glyph-name="caron" unicode="&#x2c7;" horiz-adv-x="794" 
d="M397 1325l115 176h274l-254 -352h-270l-254 352h275z" />
    <glyph glyph-name="uni02C9" unicode="&#x2c9;" horiz-adv-x="1122" 
d="M868 1204h-614v234h614v-234z" />
    <glyph glyph-name="breve" unicode="&#x2d8;" horiz-adv-x="794" 
d="M397 1141q-176 0 -269 92.5t-93 255.5h225q0 -60 35.5 -93.5t101.5 -33.5t102 33.5t36 93.5h225q0 -162 -94 -255t-269 -93z" />
    <glyph glyph-name="dotaccent" unicode="&#x2d9;" horiz-adv-x="794" 
d="M397 1161q-76 0 -127 50.5t-51 123.5q0 72 51 120t127 48t127 -48t51 -120q0 -73 -51 -123.5t-127 -50.5z" />
    <glyph glyph-name="ring" unicode="&#x2da;" horiz-adv-x="794" 
d="M397 1145q-109 0 -179.5 64.5t-70.5 164.5q0 99 71 163.5t179 64.5t179 -64.5t71 -163.5t-71 -164t-179 -65zM397 1284q41 0 68 25t27 65t-27 66t-68 26q-40 0 -67 -26t-27 -66q0 -41 26 -65.5t68 -24.5z" />
    <glyph glyph-name="ogonek" unicode="&#x2db;" horiz-adv-x="794" 
d="M461 -500q-133 0 -205 57t-72 154q0 73 38.5 138.5t90.5 108t117 75.5l182 -33q-168 -103 -168 -219q0 -90 95 -90q33 0 73 14v-182q-62 -23 -151 -23z" />
    <glyph glyph-name="tilde" unicode="&#x2dc;" horiz-adv-x="794" 
d="M532 1155q-44 0 -84.5 16t-65 35t-49.5 35t-40 16q-47 0 -47 -90h-217q0 148 63 233t170 85q57 0 106 -25.5t82.5 -50.5t51.5 -25q43 0 43 91h221q0 -148 -63.5 -234t-170.5 -86z" />
    <glyph glyph-name="hungarumlaut" unicode="&#x2dd;" horiz-adv-x="794" 
d="M190 1149h-262l156 352h328zM645 1149h-262l156 352h327z" />
    <glyph glyph-name="gravecomb" unicode="&#x300;" 
d="M-205 1149h-262l-221 352h328z" />
    <glyph glyph-name="acutecomb" unicode="&#x301;" 
d="M-420 1149h-262l156 352h327z" />
    <glyph glyph-name="uni0302" unicode="&#x302;" 
d="M-463 1501l254 -352h-274l-115 176l-115 -176h-274l254 352h270z" />
    <glyph glyph-name="tildecomb" unicode="&#x303;" 
d="M-424 1155q-44 0 -85 16t-65.5 35t-49 35t-40.5 16q-47 0 -47 -90h-217q0 148 63.5 233t170.5 85q45 0 85.5 -16t65 -34.5t49 -34.5t39.5 -16q43 0 43 91h222q0 -148 -63.5 -234t-170.5 -86z" />
    <glyph glyph-name="uni0304" unicode="&#x304;" 
d="M-254 1204h-614v234h614v-234z" />
    <glyph glyph-name="uni0306" unicode="&#x306;" 
d="M-567 1141q-176 0 -269.5 92.5t-93.5 255.5h225q0 -60 36 -93.5t102 -33.5t101.5 33.5t35.5 93.5h225q0 -162 -94 -255t-268 -93z" />
    <glyph glyph-name="uni0307" unicode="&#x307;" 
d="M-252 1161q-76 0 -127 50.5t-51 123.5q0 72 51 120t127 48q77 0 128.5 -48t51.5 -120t-52 -123t-128 -51z" />
    <glyph glyph-name="uni0308" unicode="&#x308;" 
d="M-780 1171q-72 0 -120 47.5t-48 116.5q0 68 48 114t120 46t120 -46t48 -114q0 -69 -48 -116.5t-120 -47.5zM-344 1171q-71 0 -119.5 48t-48.5 116q0 67 48.5 113.5t119.5 46.5t119.5 -46.5t48.5 -113.5q0 -68 -48.5 -116t-119.5 -48z" />
    <glyph glyph-name="uni030A" unicode="&#x30a;" 
d="M-453 1145q-109 0 -179 64.5t-70 164.5q0 99 70.5 163.5t178.5 64.5t179 -64.5t71 -163.5t-71 -164t-179 -65zM-453 1284q41 0 68 25t27 65t-27 66t-68 26q-40 0 -67 -26t-27 -66q0 -41 26 -65.5t68 -24.5z" />
    <glyph glyph-name="uni030B" unicode="&#x30b;" 
d="M-823 1149h-262l155 352h328zM-371 1149h-262l158 352h328z" />
    <glyph glyph-name="uni030C" unicode="&#x30c;" 
d="M-590 1325l113 176h276l-256 -352h-268l-256 352h276z" />
    <glyph glyph-name="uni0312" unicode="&#x312;" 
d="M-418 1536h236l-21 -387h-305z" />
    <glyph glyph-name="uni0326" unicode="&#x326;" 
d="M-266 -498h-236l21 387h305z" />
    <glyph glyph-name="uni0327" unicode="&#x327;" 
d="M-545 -502q-100 0 -198 29v188q108 -24 165 -24q84 0 84 59q0 29 -31 46.5t-93 17.5h-27v213h196v-119q96 -15 151.5 -65t55.5 -126q0 -106 -76.5 -162.5t-226.5 -56.5z" />
    <glyph glyph-name="uni0328" unicode="&#x328;" 
d="M-356 -500q-133 0 -205 57t-72 154q0 73 38.5 138.5t90.5 108t117 75.5l182 -33q-168 -103 -168 -219q0 -90 94 -90q34 0 74 14v-182q-59 -23 -151 -23z" />
    <glyph glyph-name="pi" unicode="&#x3c0;" horiz-adv-x="1275" 
d="M483 0h-305v764h-131v266h1182v-266h-133v-764h-303v764h-310v-764z" />
    <glyph glyph-name="uni1E9E" unicode="&#x1e9e;" horiz-adv-x="1413" 
d="M1255 1223l-272 -344q159 -8 262 -117.5t103 -304.5q0 -226 -145 -353t-378 -127q-148 0 -237 25l65 283q67 -25 144 -25q100 0 159.5 56.5t59.5 158.5q0 96 -61.5 143.5t-157.5 47.5q-46 0 -103 -13l-94 129l283 385h-420v-1167h-322v1446h1114v-223z" />
    <glyph glyph-name="uni2007" unicode="&#x2007;" horiz-adv-x="1458" 
 />
    <glyph glyph-name="uni2008" unicode="&#x2008;" horiz-adv-x="563" 
 />
    <glyph glyph-name="uni2009" unicode="&#x2009;" horiz-adv-x="262" 
 />
    <glyph glyph-name="uni200A" unicode="&#x200a;" horiz-adv-x="114" 
 />
    <glyph glyph-name="uni200B" unicode="&#x200b;" 
 />
    <glyph glyph-name="uni2010" unicode="&#x2010;" horiz-adv-x="903" 
d="M817 377h-731v274h731v-274z" />
    <glyph glyph-name="uni2011" unicode="&#x2011;" horiz-adv-x="903" 
d="M817 377h-731v274h731v-274z" />
    <glyph glyph-name="figuredash" unicode="&#x2012;" horiz-adv-x="1458" 
d="M1348 510h-1239v274h1239v-274z" />
    <glyph glyph-name="endash" unicode="&#x2013;" horiz-adv-x="1228" 
d="M1151 377h-1073v274h1073v-274z" />
    <glyph glyph-name="emdash" unicode="&#x2014;" horiz-adv-x="2027" 
d="M1950 377h-1872v274h1872v-274z" />
    <glyph glyph-name="uni2015" unicode="&#x2015;" horiz-adv-x="2027" 
d="M1950 377h-1872v274h1872v-274z" />
    <glyph glyph-name="quoteleft" unicode="&#x2018;" horiz-adv-x="563" 
d="M416 825h-328l156 676h229z" />
    <glyph glyph-name="quoteright" unicode="&#x2019;" horiz-adv-x="563" 
d="M147 1501h328l-156 -676h-231z" />
    <glyph glyph-name="quotesinglbase" unicode="&#x201a;" horiz-adv-x="563" 
d="M319 -301h-231l59 678h328z" />
    <glyph glyph-name="quotedblleft" unicode="&#x201c;" horiz-adv-x="1028" 
d="M227 1501h232l-43 -676h-328zM709 1501h231l-45 -676h-326z" />
    <glyph glyph-name="quotedblright" unicode="&#x201d;" horiz-adv-x="1028" 
d="M319 825h-231l45 676h326zM801 825h-232l43 676h328z" />
    <glyph glyph-name="quotedblbase" unicode="&#x201e;" horiz-adv-x="1028" 
d="M319 -301h-231l45 678h326zM801 -301h-232l43 678h328z" />
    <glyph glyph-name="dagger" unicode="&#x2020;" horiz-adv-x="1050" 
d="M682 0h-311v874h-324v289h324v283h311v-283h322v-289h-322v-874z" />
    <glyph glyph-name="daggerdbl" unicode="&#x2021;" horiz-adv-x="1050" 
d="M1004 1163v-289h-322v-294h322v-289h-322v-291h-311v291h-324v289h324v294h-324v289h324v283h311v-283h322z" />
    <glyph glyph-name="bullet" unicode="&#x2022;" horiz-adv-x="837" 
d="M422 186q-147 0 -242.5 94t-95.5 240q0 142 95.5 234t242.5 92q148 0 244 -92t96 -234q0 -146 -96 -240t-244 -94z" />
    <glyph glyph-name="ellipsis" unicode="&#x2026;" horiz-adv-x="1687" 
d="M281 -16q-83 0 -138 53t-55 135q0 81 54.5 133.5t138.5 52.5q85 0 139.5 -52t54.5 -134t-54.5 -135t-139.5 -53zM844 -16q-83 0 -138 53t-55 135q0 81 54.5 133.5t138.5 52.5q85 0 139.5 -52t54.5 -134t-54.5 -135t-139.5 -53zM1407 -16q-83 0 -138 53t-55 135
q0 81 54.5 133.5t138.5 52.5q85 0 140 -52t55 -134t-55 -135t-140 -53z" />
    <glyph glyph-name="perthousand" unicode="&#x2030;" horiz-adv-x="3082" 
d="M453 561q-182 0 -293 115.5t-111 339.5q0 218 111.5 335t292.5 117q183 0 290 -117t107 -335q0 -221 -107.5 -338t-289.5 -117zM811 0h-281l844 1446h279zM453 795q61 0 97 60.5t36 160.5t-36 159.5t-97 59.5q-64 0 -102 -59.5t-38 -159.5t38 -160.5t102 -60.5zM1737 -23
q-182 0 -293 115.5t-111 339.5q0 218 111.5 335.5t292.5 117.5q183 0 290 -117.5t107 -335.5q0 -221 -107.5 -338t-289.5 -117zM2636 -23q-182 0 -293 115.5t-111 339.5q0 218 111.5 335.5t292.5 117.5q183 0 290 -117.5t107 -335.5q0 -221 -107.5 -338t-289.5 -117z
M1737 211q61 0 97 60.5t36 160.5t-36 159.5t-97 59.5q-64 0 -102 -59.5t-38 -159.5t38 -160.5t102 -60.5zM2636 211q61 0 97 60.5t36 160.5t-36 159.5t-97 59.5q-64 0 -101.5 -59.5t-37.5 -159.5t37.5 -160.5t101.5 -60.5z" />
    <glyph glyph-name="minute" unicode="&#x2032;" horiz-adv-x="468" 
d="M371 825h-273v676h273v-676z" />
    <glyph glyph-name="second" unicode="&#x2033;" horiz-adv-x="915" 
d="M371 825h-273v676h273v-676zM817 825h-274v676h274v-676z" />
    <glyph glyph-name="guilsinglleft" unicode="&#x2039;" horiz-adv-x="659" 
d="M600 166l-221 -156l-346 504l346 504l221 -156l-240 -348z" />
    <glyph glyph-name="guilsinglright" unicode="&#x203a;" horiz-adv-x="659" 
d="M627 514l-346 -504l-224 156l240 348l-240 348l224 156z" />
    <glyph glyph-name="fraction" unicode="&#x2044;" horiz-adv-x="483" 
d="M-39 0h-280l843 1446h279z" />
    <glyph glyph-name="uni2070" unicode="&#x2070;" horiz-adv-x="899" 
d="M453 752q-182 0 -293 115t-111 339q0 218 111.5 335.5t292.5 117.5q183 0 290 -117.5t107 -335.5q0 -221 -107.5 -337.5t-289.5 -116.5zM453 985q61 0 97 60.5t36 160.5t-36 159.5t-97 59.5q-64 0 -102 -59.5t-38 -159.5t38 -160.5t102 -60.5z" />
    <glyph glyph-name="uni2074" unicode="&#x2074;" horiz-adv-x="825" 
d="M707 1114h86v-203h-86v-137h-236v137h-432v191l223 536h264l-209 -524h177v219h213v-219z" />
    <glyph glyph-name="uni2075" unicode="&#x2075;" horiz-adv-x="786" 
d="M412 1325q140 0 232.5 -74.5t92.5 -206.5q0 -140 -104 -216t-271 -76q-119 0 -208 31t-136 85l125 183q28 -34 84 -56t119 -22q60 0 94.5 26.5t34.5 71.5q0 48 -36.5 77.5t-100.5 29.5q-77 0 -133 -39l-133 28l41 471h581v-223h-364l-11 -100q48 10 93 10z" />
    <glyph glyph-name="uni2076" unicode="&#x2076;" horiz-adv-x="845" 
d="M516 1356q138 0 218.5 -79.5t80.5 -207.5q0 -145 -102.5 -231t-272.5 -86q-111 0 -197 37.5t-140 120t-54 200.5q0 298 322 557l258 -84q-189 -134 -271 -266q64 39 158 39zM436 958q55 0 87 31.5t32 85.5q0 51 -34 83t-85 32q-55 0 -92 -32.5t-37 -84.5q0 -54 36 -84.5
t93 -30.5z" />
    <glyph glyph-name="uni2077" unicode="&#x2077;" horiz-adv-x="733" 
d="M39 1403v235h655v-174l-293 -690h-280l266 629h-348z" />
    <glyph glyph-name="uni2078" unicode="&#x2078;" horiz-adv-x="858" 
d="M668 1225q65 -32 103 -85.5t38 -121.5q0 -119 -101.5 -192.5t-279.5 -73.5q-176 0 -277.5 73.5t-101.5 192.5q0 135 141 207q-116 65 -116 188q0 109 91.5 177.5t262.5 68.5q172 0 264 -68.5t92 -177.5q0 -120 -116 -188zM428 1466q-46 0 -74 -22t-28 -60t28 -61t74 -23
q47 0 75.5 23t28.5 61t-28 60t-76 22zM428 961q53 0 86 26t33 66q0 43 -32.5 68.5t-86.5 25.5t-86.5 -25.5t-32.5 -68.5t32.5 -67.5t86.5 -24.5z" />
    <glyph glyph-name="uni2079" unicode="&#x2079;" horiz-adv-x="845" 
d="M406 1661q111 0 197 -37.5t140 -120t54 -200.5q0 -299 -322 -558l-258 84q186 132 270 267q-64 -39 -157 -39q-138 0 -218.5 79t-80.5 207q0 145 102.5 231.5t272.5 86.5zM291 1337q0 -51 33.5 -82.5t85.5 -31.5q55 0 92 32t37 84q0 54 -36 84.5t-93 30.5
q-55 0 -87 -31.5t-32 -85.5z" />
    <glyph glyph-name="uni2080" unicode="&#x2080;" horiz-adv-x="899" 
d="M453 -309q-182 0 -293 115t-111 339q0 218 111.5 335.5t292.5 117.5q183 0 290 -117.5t107 -335.5q0 -221 -107.5 -337.5t-289.5 -116.5zM453 -76q61 0 97 60.5t36 160.5t-36 160t-97 60q-64 0 -102 -60t-38 -160t38 -160.5t102 -60.5z" />
    <glyph glyph-name="uni2081" unicode="&#x2081;" horiz-adv-x="645" 
d="M549 -287h-270v572l-183 -66l-73 211l438 160h88v-877z" />
    <glyph glyph-name="uni2082" unicode="&#x2082;" horiz-adv-x="776" 
d="M461 -18l-53 -39h315v-230h-674v172l158 131q65 54 94 79.5t68 65t54 69t15 59.5q0 76 -100 76q-43 0 -84 -23.5t-68 -65.5l-166 156q47 72 137.5 119t217.5 47q154 0 239.5 -70t85.5 -194q0 -57 -13.5 -102t-47 -87.5t-72.5 -77t-106 -85.5z" />
    <glyph glyph-name="uni2083" unicode="&#x2083;" horiz-adv-x="778" 
d="M684 391l-188 -162q108 -18 169.5 -84.5t61.5 -171.5q0 -93 -47.5 -158t-125 -94.5t-177.5 -29.5q-242 0 -359 145l156 160q28 -40 74 -62t100 -22q52 0 83.5 27t31.5 71q0 47 -31.5 75t-85.5 28q-52 0 -86 -21l-74 101l185 167h-293v218h606v-187z" />
    <glyph glyph-name="uni2084" unicode="&#x2084;" horiz-adv-x="825" 
d="M707 53h86v-203h-86v-137h-236v137h-432v191l223 537h264l-209 -525h177v219h213v-219z" />
    <glyph glyph-name="uni2085" unicode="&#x2085;" horiz-adv-x="786" 
d="M412 264q140 0 232.5 -74t92.5 -206q0 -140 -104 -216.5t-271 -76.5q-119 0 -208 31t-136 85l125 183q28 -34 84 -56t119 -22q60 0 94.5 26.5t34.5 71.5q0 48 -36.5 77.5t-100.5 29.5q-77 0 -133 -39l-133 28l41 472h581v-224h-364l-11 -100q48 10 93 10z" />
    <glyph glyph-name="uni2086" unicode="&#x2086;" horiz-adv-x="845" 
d="M516 295q138 0 218.5 -79.5t80.5 -207.5q0 -145 -102.5 -231t-272.5 -86q-111 0 -197 37.5t-140 120t-54 200.5q0 298 322 557l258 -84q-189 -134 -271 -266q64 39 158 39zM436 -102q55 0 87 31t32 85q0 51 -34 83t-85 32q-55 0 -92 -32.5t-37 -84.5q0 -54 36 -84t93 -30
z" />
    <glyph glyph-name="uni2087" unicode="&#x2087;" horiz-adv-x="733" 
d="M39 342v236h655v-175l-293 -690h-280l266 629h-348z" />
    <glyph glyph-name="uni2088" unicode="&#x2088;" horiz-adv-x="858" 
d="M668 164q65 -32 103 -85.5t38 -121.5q0 -119 -101.5 -192.5t-279.5 -73.5q-176 0 -277.5 73.5t-101.5 192.5q0 135 141 207q-116 65 -116 188q0 109 91.5 177.5t262.5 68.5q172 0 264 -68.5t92 -177.5q0 -120 -116 -188zM428 406q-46 0 -74 -22t-28 -60t28 -61t74 -23
q47 0 75.5 23t28.5 61t-28 60t-76 22zM428 -100q53 0 86 26t33 66q0 43 -32.5 68.5t-86.5 25.5t-86.5 -25.5t-32.5 -68.5t32.5 -67.5t86.5 -24.5z" />
    <glyph glyph-name="uni2089" unicode="&#x2089;" horiz-adv-x="845" 
d="M406 598q111 0 197 -37.5t140 -120t54 -200.5q0 -298 -322 -557l-258 84q187 133 270 266q-64 -39 -157 -39q-138 0 -218.5 79.5t-80.5 207.5q0 145 102.5 231t272.5 86zM291 274q0 -50 33.5 -82t85.5 -32q55 0 92 32t37 84q0 54 -36 84.5t-93 30.5q-55 0 -87 -31.5
t-32 -85.5z" />
    <glyph glyph-name="Euro" unicode="&#x20ac;" horiz-adv-x="1400" 
d="M874 266q179 0 250 158l244 -164q-71 -137 -208 -210t-298 -73q-232 0 -395 139t-217 380h-174v168h151q-2 20 -2 59t2 59h-151v170h174q56 239 219 377.5t393 138.5q161 0 298 -72.5t208 -209.5l-244 -164q-71 158 -250 158q-215 0 -286 -228h389v-170h-418
q-2 -18 -2 -59t2 -59h418v-168h-391q36 -117 110.5 -173.5t177.5 -56.5z" />
    <glyph glyph-name="uni20BA" unicode="&#x20ba;" horiz-adv-x="1388" 
d="M1004 745h327q0 -355 -200 -550t-564 -195h-288v502l-152 -68l-61 160l213 94v172l-183 -82l-63 156l246 108v404h323v-258l332 147l61 -157l-393 -174v-173l363 162l63 -157l-426 -191v-354q192 11 297 128.5t105 325.5z" />
    <glyph glyph-name="uni20BD" unicode="&#x20bd;" horiz-adv-x="1327" 
d="M782 508h-237v-121h477v-168h-477v-219h-326v219h-131v168h131v131h-131v238h131v690h578q240 0 354.5 -119.5t114.5 -339.5q0 -231 -122.5 -355t-361.5 -124zM733 1157h-188v-364h184q107 0 157 42.5t50 139.5q0 95 -45.5 138.5t-157.5 43.5z" />
    <glyph glyph-name="uni2113" unicode="&#x2113;" horiz-adv-x="1150" 
d="M864 371l211 -121q-56 -146 -151 -209.5t-232 -63.5q-210 0 -329.5 126t-120.5 372q-114 18 -193 49l10 238q88 -32 183 -47v237q0 266 110 419t320 153q187 0 290 -128t103 -343q0 -80 -16.5 -155.5t-56 -149t-97.5 -130.5t-147.5 -97.5t-200.5 -53.5q6 -238 158 -238
q114 0 159 142zM678 1260q-131 0 -131 -269v-291q89 20 146.5 77t79.5 127t22 155q0 201 -117 201z" />
    <glyph glyph-name="uni2116" unicode="&#x2116;" horiz-adv-x="2373" 
d="M1927 561q-182 0 -292.5 115.5t-110.5 339.5q0 218 111 335t292 117q183 0 290 -117t107 -335q0 -221 -107.5 -338t-289.5 -117zM453 0h-320v1446h320l569 -879v879h319v-1446h-319l-569 879v-879zM1927 795q61 0 97 60.5t36 160.5t-36 159.5t-97 59.5
q-64 0 -101.5 -59.5t-37.5 -159.5t37.5 -160.5t101.5 -60.5zM2271 252h-692v215h692v-215z" />
    <glyph glyph-name="trademark" unicode="&#x2122;" horiz-adv-x="1464" 
d="M221 1280h-176v166h535v-166h-172v-471h-187v471zM1032 1137l142 309h225v-637h-176v389l-142 -289h-98l-137 275v-375h-176v637h219z" />
    <glyph glyph-name="uni2126" unicode="&#x2126;" horiz-adv-x="1654" 
d="M1575 799q0 -163 -72 -298.5t-207 -219.5h275v-281h-635v281q158 61 235.5 178.5t77.5 267.5q0 194 -118 317t-304 123t-303.5 -123t-117.5 -317q0 -150 77.5 -267.5t235.5 -178.5v-281h-633v281h272q-135 84 -206.5 219.5t-71.5 298.5q0 195 99 348.5t269 237t379 83.5
q156 0 294 -49t238 -136t158 -212.5t58 -271.5z" />
    <glyph glyph-name="estimated" unicode="&#x212e;" horiz-adv-x="1617" 
d="M1540 723v-21h-1169v-526q182 -149 456 -149q225 0 380.5 96t228.5 280l43 -20q-81 -198 -249.5 -300.5t-402.5 -102.5q-170 0 -311.5 58.5t-236 159.5t-147 236t-52.5 289q0 152 54.5 288.5t150.5 237t233.5 159t296.5 58.5q161 0 298 -58.5t230 -159t145 -236.5
t52 -289zM1241 750v530q-175 139 -426 139q-261 0 -444 -153v-516h870z" />
    <glyph glyph-name="partialdiff" unicode="&#x2202;" horiz-adv-x="1222" 
d="M293 1233l29 268q161 -10 297 -61.5t235.5 -135t169.5 -194t104.5 -239.5t34.5 -271q0 -159 -41.5 -280.5t-116 -195.5t-173 -110.5t-218.5 -36.5q-116 0 -218.5 39t-176.5 108t-117 167.5t-43 212.5q0 216 125 354.5t330 138.5q190 0 299 -104q-50 150 -184 240
t-336 100zM612 254q110 0 179 72.5t69 189.5q0 115 -70 182.5t-178 67.5q-112 0 -178.5 -69.5t-66.5 -184.5q0 -114 69 -186t176 -72z" />
    <glyph glyph-name="emptyset" unicode="&#x2205;" horiz-adv-x="1394" 
d="M1290 1391l-155 -230q198 -176 198 -467q0 -182 -83 -324.5t-227.5 -220t-324.5 -77.5q-142 0 -266 51l-84 -123h-246l156 231q-94 84 -146.5 202.5t-52.5 260.5q0 183 84.5 326.5t230 221t324.5 77.5q139 0 260 -47l80 119h252zM340 694q0 -134 72 -235l399 594
q-56 16 -113 16q-157 0 -257.5 -105t-100.5 -270zM698 322q160 0 258.5 103t98.5 269q0 144 -74 240l-403 -594q56 -18 120 -18z" />
    <glyph glyph-name="uni2206" unicode="&#x2206;" horiz-adv-x="1386" 
d="M508 1446h373l452 -1237v-209h-1280v211zM961 299l-269 827l-264 -827h533z" />
    <glyph glyph-name="product" unicode="&#x220f;" horiz-adv-x="1460" 
d="M459 -401h-326v1847h1194v-1847h-326v1546h-542v-1546z" />
    <glyph glyph-name="summation" unicode="&#x2211;" horiz-adv-x="1171" 
d="M1124 -401h-1093v249l467 705l-435 641v252h1027v-301h-629l370 -539v-102l-405 -613h698v-292z" />
    <glyph glyph-name="minus" unicode="&#x2212;" horiz-adv-x="1093" 
d="M1016 510h-938v274h938v-274z" />
    <glyph glyph-name="uni2215" unicode="&#x2215;" horiz-adv-x="483" 
d="M-39 0h-280l843 1446h279z" />
    <glyph glyph-name="uni2219" unicode="&#x2219;" horiz-adv-x="563" 
d="M281 459q-84 0 -138.5 53.5t-54.5 136.5q0 81 54.5 134t138.5 53q85 0 139.5 -52.5t54.5 -134.5q0 -83 -54.5 -136.5t-139.5 -53.5z" />
    <glyph glyph-name="radical" unicode="&#x221a;" horiz-adv-x="1345" 
d="M629 403l413 1244h314l-574 -1647h-303l-241 713h-187v268h395z" />
    <glyph glyph-name="infinity" unicode="&#x221e;" horiz-adv-x="1720" 
d="M1225 1102q186 0 310 -126t124 -329t-124.5 -328.5t-309.5 -125.5q-117 0 -211.5 49.5t-153.5 140.5q-57 -91 -151.5 -140.5t-212.5 -49.5q-186 0 -311.5 125.5t-125.5 328.5q0 205 125.5 330t311.5 125q118 0 212.5 -50t151.5 -141q57 91 152 141t213 50zM530 446
q87 0 139 55t52 146t-52 146t-139 55q-84 0 -135 -54.5t-51 -146.5q0 -91 51.5 -146t134.5 -55zM1190 446q83 0 134.5 55t51.5 146t-51.5 146t-134.5 55q-87 0 -138 -55t-51 -146q0 -92 51.5 -146.5t137.5 -54.5z" />
    <glyph glyph-name="integral" unicode="&#x222b;" horiz-adv-x="786" 
d="M154 -424q-76 0 -146 12l8 250q46 -8 78 -8q74 0 108 40.5t34 143.5v1262q0 204 98.5 298.5t308.5 94.5q85 0 135 -12l-4 -242q-33 10 -90 10q-55 0 -83.5 -12.5t-44 -51.5t-15.5 -116v-1263q0 -192 -99 -299t-288 -107z" />
    <glyph glyph-name="approxequal" unicode="&#x2248;" horiz-adv-x="1169" 
d="M766 696q-56 0 -113 20t-96 44.5t-84 44.5t-80 20q-37 0 -65.5 -9t-51 -29t-34 -34.5t-31.5 -43.5l-133 96q30 149 117.5 227t210.5 78q55 0 111.5 -20t95 -44.5t84 -44.5t81.5 -20q37 0 65.5 9t50.5 29.5t33.5 35t30.5 43.5l134 -97q-30 -148 -116.5 -226.5
t-209.5 -78.5zM766 186q-56 0 -113 20t-96 44.5t-84 44.5t-80 20q-37 0 -65.5 -8.5t-50.5 -28t-34.5 -35t-31.5 -44.5l-133 96q30 149 117.5 227t210.5 78q55 0 111.5 -20t95 -43.5t84 -43.5t81.5 -20q37 0 65.5 9t51 29.5t33.5 34t30 42.5l134 -96q-30 -148 -117 -227
t-209 -79z" />
    <glyph glyph-name="notequal" unicode="&#x2260;" horiz-adv-x="1093" 
d="M1016 1044v-272h-295l-90 -250h385v-274h-481l-89 -248h-256l89 248h-201v274h297l90 250h-387v272h483l88 250h256l-88 -250h199z" />
    <glyph glyph-name="lessequal" unicode="&#x2264;" horiz-adv-x="1024" 
d="M416 879l542 -211v-295l-884 368v275l884 368v-297zM61 0v272h902v-272h-902z" />
    <glyph glyph-name="greaterequal" unicode="&#x2265;" horiz-adv-x="1040" 
d="M90 1384l885 -368v-275l-885 -368v295l543 211l-543 208v297zM78 0v272h899v-272h-899z" />
    <glyph glyph-name="lozenge" unicode="&#x25ca;" horiz-adv-x="1191" 
d="M735 0h-278l-416 723l416 723h278l418 -723zM373 723l223 -385l223 385l-223 385z" />
    <glyph glyph-name="uni004A0301" horiz-adv-x="1116" 
d="M973 1544h-266l157 346h324zM535 -23q-193 0 -321.5 76t-186.5 199l231 188q77 -168 244 -168q95 0 138.5 64.5t43.5 202.5v907h324v-889q0 -301 -117 -440.5t-356 -139.5z" />
    <glyph glyph-name="Adieresis.alt" horiz-adv-x="1384" 
d="M322 1855h305v-278h-305v278zM760 1855h303v-278h-303v278zM1376 0h-338l-90 285h-512l-90 -285h-340l500 1446h373zM524 567h334l-166 549z" />
    <glyph glyph-name="Edieresis.alt" horiz-adv-x="1163" 
d="M535 1577h-306v278h306v-278zM971 1577h-303v278h303v-278zM1083 0h-950v1446h934v-295h-614v-289h528v-282h-528v-285h630v-295z" />
    <glyph glyph-name="Edotaccent.alt" horiz-adv-x="1163" 
d="M766 1569h-330v301h330v-301zM1083 0h-950v1446h934v-295h-614v-289h528v-282h-528v-285h630v-295z" />
    <glyph glyph-name="Idieresis.alt" horiz-adv-x="614" 
d="M242 1577h-305v278h305v-278zM678 1577h-303v278h303v-278zM473 0h-332v1446h332v-1446z" />
    <glyph glyph-name="Idotaccent.alt" horiz-adv-x="614" 
d="M473 1569h-330v301h330v-301zM473 0h-332v1446h332v-1446z" />
    <glyph glyph-name="Ldot.alt" horiz-adv-x="1087" 
d="M1040 0h-907v1446h326v-1141h581v-305zM1016 578h-352v348h352v-348z" />
    <glyph glyph-name="Odieresis.alt" horiz-adv-x="1679" 
d="M774 1577h-305v278h305v-278zM1210 1577h-303v278h303v-278zM840 -23q-213 0 -386 93t-273.5 264t-100.5 389q0 163 59 303t160.5 236.5t241.5 151t299 54.5q216 0 389 -92.5t273 -263.5t100 -389q0 -164 -58.5 -303.5t-159.5 -236.5t-242 -151.5t-302 -54.5zM840 279
q191 0 309.5 123.5t118.5 320.5t-118.5 320.5t-309.5 123.5q-187 0 -306.5 -124t-119.5 -320t119.5 -320t306.5 -124z" />
    <glyph glyph-name="Udieresis.alt" horiz-adv-x="1394" 
d="M633 1577h-305v278h305v-278zM1069 1577h-303v278h303v-278zM698 -23q-589 0 -589 603v866h325v-854q0 -153 59.5 -233t204.5 -80t205 80t60 233v854h323v-866q0 -292 -143.5 -447.5t-444.5 -155.5z" />
    <glyph glyph-name="Ydieresis.alt" horiz-adv-x="1306" 
d="M586 1577h-305v278h305v-278zM1022 1577h-303v278h303v-278zM815 0h-326v518l-485 928h371l278 -598l277 598h373l-488 -930v-516z" />
    <glyph glyph-name="Zdotaccent.alt" horiz-adv-x="1191" 
d="M438 1870h330v-301h-330v301zM1118 1202l-618 -901h651v-301h-1083v246l618 899h-600v301h1032v-244z" />
    <glyph glyph-name="i.loclTRK" horiz-adv-x="557" 
d="M279 1161q-76 0 -127.5 50.5t-51.5 123.5q0 72 51 120t128 48t128.5 -48t51.5 -120t-52 -123t-128 -51zM434 0h-311v1030h311v-1030z" />
    <glyph glyph-name="uni006A0301" horiz-adv-x="557" 
d="M389 1149h-264l154 352h319zM49 -424q-77 0 -147 12l10 250q40 -8 78 -8q69 0 101 40.5t32 143.5v1016h311v-1048q0 -192 -98 -299t-287 -107z" />
    <glyph glyph-name="adieresis.alt" horiz-adv-x="1236" 
d="M547 1194h-305v279h305v-279zM983 1194h-303v279h303v-279zM516 -23q-202 0 -329.5 149.5t-127.5 389.5t128 388.5t331 148.5q204 0 307 -160v137h305v-1030h-305v137q-105 -160 -309 -160zM602 254q103 0 166 72t63 190q0 117 -63 188.5t-166 71.5t-169 -72t-66 -188
t66 -189t169 -73z" />
    <glyph glyph-name="edieresis.alt" horiz-adv-x="1175" 
d="M233 1473h306v-279h-306v279zM672 1473h303v-279h-303v279zM1120 516q0 -1 -6 -94h-745q14 -85 83.5 -135.5t186.5 -50.5q157 0 254 110l217 -166q-66 -98 -194.5 -150.5t-284.5 -52.5q-262 0 -417 149.5t-155 389.5q0 239 154 388t391 149q231 0 373.5 -145.5
t142.5 -391.5zM600 817q-90 0 -153 -52.5t-78 -139.5h452q-19 90 -77 141t-144 51z" />
    <glyph glyph-name="edotaccent.alt" horiz-adv-x="1175" 
d="M440 1485h330v-301h-330v301zM1120 516q0 -1 -6 -94h-745q14 -85 83.5 -135.5t186.5 -50.5q157 0 254 110l217 -166q-66 -98 -194.5 -150.5t-284.5 -52.5q-262 0 -417 149.5t-155 389.5q0 239 154 388t391 149q231 0 373.5 -145.5t142.5 -391.5zM600 817
q-90 0 -153 -52.5t-78 -139.5h452q-19 90 -77 141t-144 51z" />
    <glyph glyph-name="i.alt" horiz-adv-x="557" 
d="M444 1184h-329v301h329v-301zM434 0h-311v1030h311v-1030z" />
    <glyph glyph-name="idieresis.alt" horiz-adv-x="557" 
d="M233 1194h-280v279h280v-279zM604 1194h-280v279h280v-279zM434 0h-311v1030h311v-1030z" />
    <glyph glyph-name="i.loclTRK.alt" horiz-adv-x="557" 
d="M444 1184h-329v301h329v-301zM434 0h-311v1030h311v-1030z" />
    <glyph glyph-name="iogonek.alt" horiz-adv-x="557" 
d="M115 1184v301h329v-301h-329zM195 0h-72v1030h311v-1030q-168 -103 -168 -219q0 -90 94 -90q34 0 74 14v-182q-59 -23 -151 -23q-133 0 -205 57t-72 154q0 167 189 289z" />
    <glyph glyph-name="j.alt" horiz-adv-x="557" 
d="M444 1184h-329v301h329v-301zM49 -424q-77 0 -147 12l10 250q40 -8 78 -8q69 0 101 40.5t32 143.5v1016h311v-1048q0 -192 -98 -299t-287 -107z" />
    <glyph glyph-name="ldot.alt" horiz-adv-x="899" 
d="M430 0h-313v1501h313v-1501zM899 578h-352v348h352v-348z" />
    <glyph glyph-name="odieresis.alt" horiz-adv-x="1226" 
d="M547 1194h-305v279h305v-279zM983 1194h-303v279h303v-279zM612 -23q-155 0 -280.5 67t-199 190.5t-73.5 281.5t73.5 281t199 189.5t280.5 66.5q157 0 282.5 -66.5t198 -189.5t72.5 -281t-72.5 -281.5t-198 -190.5t-282.5 -67zM612 254q110 0 179 72.5t69 189.5
t-68.5 188.5t-179.5 71.5q-108 0 -176.5 -72t-68.5 -188t68.5 -189t176.5 -73z" />
    <glyph glyph-name="udieresis.alt" horiz-adv-x="1175" 
d="M514 1194h-305v279h305v-279zM950 1194h-303v279h303v-279zM457 -23q-175 0 -271 114.5t-96 334.5v604h305v-543q0 -125 44.5 -181t129.5 -56q94 0 145.5 67.5t51.5 176.5v536h303v-1030h-299v139q-106 -162 -313 -162z" />
    <glyph glyph-name="ydieresis.alt" horiz-adv-x="1126" 
d="M193 1473h305v-279h-305v279zM631 1473h303v-279h-303v279zM569 319l207 711h338l-524 -1431h-318l154 407l-414 1024h340z" />
    <glyph glyph-name="zdotaccent.alt" horiz-adv-x="999" 
d="M330 1485h329v-301h-329v301zM909 846l-432 -580h465v-266h-872v184l430 580h-422v266h831v-184z" />
    <glyph glyph-name="germandbls.calt" horiz-adv-x="1413" 
d="M1255 1223l-272 -344q159 -8 262 -117.5t103 -304.5q0 -226 -145 -353t-378 -127q-148 0 -237 25l65 283q67 -25 144 -25q100 0 159.5 56.5t59.5 158.5q0 96 -61.5 143.5t-157.5 47.5q-46 0 -103 -13l-94 129l283 385h-420v-1167h-322v1446h1114v-223z" />
    <glyph glyph-name="fi.alt" horiz-adv-x="1329" 
d="M193 1030v100q0 203 99.5 298.5t309.5 95.5q81 0 135 -13l-6 -241q-33 10 -88 10q-83 0 -114 -34t-31 -146v-70h225v-266h-225v-764h-305v764h-158v266h158zM887 1184v301h330v-301h-330zM1206 0h-311v1030h311v-1030z" />
    <glyph glyph-name="zero.dnom" horiz-adv-x="899" 
d="M453 -23q-182 0 -293 115.5t-111 339.5q0 218 111.5 335.5t292.5 117.5q183 0 290 -117.5t107 -335.5q0 -221 -107.5 -338t-289.5 -117zM453 211q61 0 97 60.5t36 160.5t-36 159.5t-97 59.5q-64 0 -102 -59.5t-38 -159.5t38 -160.5t102 -60.5z" />
    <glyph glyph-name="one.dnom" horiz-adv-x="645" 
d="M549 0h-270v571l-183 -65l-73 211l438 160h88v-877z" />
    <glyph glyph-name="two.dnom" horiz-adv-x="776" 
d="M461 268l-53 -39h315v-229h-674v172l158 131q47 39 64 53.5t52.5 46t49.5 48t33 40.5t25.5 44t6.5 40q0 76 -100 76q-44 0 -84.5 -23t-67.5 -65l-166 156q47 72 137.5 119t217.5 47q154 0 239.5 -70t85.5 -194q0 -75 -28.5 -135t-75 -105.5t-135.5 -112.5z" />
    <glyph glyph-name="three.dnom" horiz-adv-x="778" 
d="M684 678l-188 -162q108 -18 169.5 -84.5t61.5 -171.5q0 -93 -47.5 -158.5t-125 -95t-177.5 -29.5q-241 0 -359 146l156 160q28 -40 74 -62t100 -22q52 0 83.5 27t31.5 71q0 47 -31.5 74.5t-85.5 27.5q-53 0 -86 -20l-74 100l185 168h-293v217h606v-186z" />
    <glyph glyph-name="four.dnom" horiz-adv-x="825" 
d="M707 340h86v-203h-86v-137h-236v137h-432v191l223 536h264l-209 -524h177v219h213v-219z" />
    <glyph glyph-name="five.dnom" horiz-adv-x="786" 
d="M412 551q140 0 232.5 -74.5t92.5 -206.5q0 -140 -104 -216.5t-271 -76.5q-118 0 -207.5 31.5t-136.5 85.5l125 182q28 -34 83.5 -55.5t119.5 -21.5q60 0 94.5 26.5t34.5 71.5q0 48 -36.5 77t-100.5 29q-78 0 -133 -38l-133 28l41 471h581v-223h-364l-11 -100q48 10 93 10
z" />
    <glyph glyph-name="six.dnom" horiz-adv-x="845" 
d="M516 582q138 0 218.5 -79.5t80.5 -207.5q0 -145 -102.5 -231.5t-272.5 -86.5q-111 0 -197.5 38t-140 120.5t-53.5 200.5q0 298 322 557l258 -84q-189 -134 -271 -266q64 39 158 39zM436 184q55 0 87 31.5t32 85.5q0 51 -34 83t-85 32q-55 0 -92 -32.5t-37 -84.5
q0 -54 36 -84.5t93 -30.5z" />
    <glyph glyph-name="seven.dnom" horiz-adv-x="733" 
d="M39 629v235h655v-174l-293 -690h-280l266 629h-348z" />
    <glyph glyph-name="eight.dnom" horiz-adv-x="858" 
d="M668 451q65 -32 103 -85.5t38 -121.5q0 -119 -101.5 -193t-279.5 -74q-176 0 -277.5 74t-101.5 193q0 135 141 207q-116 65 -116 188q0 109 91.5 177.5t262.5 68.5q172 0 264 -68.5t92 -177.5q0 -120 -116 -188zM428 692q-46 0 -74 -22t-28 -60t28 -61t74 -23
q47 0 75.5 23t28.5 61t-28 60t-76 22zM428 186q53 0 86 26.5t33 66.5q0 43 -32.5 68.5t-86.5 25.5t-86.5 -25.5t-32.5 -68.5t32.5 -68t86.5 -25z" />
    <glyph glyph-name="nine.dnom" horiz-adv-x="845" 
d="M406 885q111 0 197.5 -38t140 -120.5t53.5 -200.5q0 -298 -322 -557l-258 84q187 133 270 266q-62 -38 -157 -38q-138 0 -218.5 79t-80.5 207q0 145 102.5 231.5t272.5 86.5zM291 561q0 -51 34 -83t85 -32q55 0 92 32.5t37 84.5q0 54 -36 84.5t-93 30.5q-55 0 -87 -31.5
t-32 -85.5z" />
    <glyph glyph-name="zero.numr" horiz-adv-x="899" 
d="M453 561q-182 0 -293 115.5t-111 339.5q0 218 111.5 335t292.5 117q183 0 290 -117t107 -335q0 -221 -107.5 -338t-289.5 -117zM453 795q61 0 97 60.5t36 160.5t-36 159.5t-97 59.5q-64 0 -102 -59.5t-38 -159.5t38 -160.5t102 -60.5z" />
    <glyph glyph-name="one.numr" horiz-adv-x="645" 
d="M549 584h-270v571l-183 -65l-73 210l438 160h88v-876z" />
    <glyph glyph-name="two.numr" horiz-adv-x="776" 
d="M461 852l-53 -39h315v-229h-674v172l158 131q47 39 64 53.5t52.5 46t49.5 48t33 40.5t25.5 44t6.5 40q0 76 -100 76q-44 0 -84.5 -23t-67.5 -65l-166 156q47 72 137.5 118.5t217.5 46.5q154 0 239.5 -70t85.5 -194q0 -57 -13.5 -102t-47 -87.5t-72.5 -77t-106 -85.5z" />
    <glyph glyph-name="three.numr" horiz-adv-x="778" 
d="M684 1262l-188 -162q108 -18 169.5 -84.5t61.5 -171.5q0 -93 -47.5 -158.5t-125 -95t-177.5 -29.5q-241 0 -359 146l156 159q28 -40 74 -62t100 -22q52 0 83.5 27.5t31.5 71.5q0 47 -31.5 74.5t-85.5 27.5q-53 0 -86 -20l-74 100l185 168h-293v217h606v-186z" />
    <glyph glyph-name="four.numr" horiz-adv-x="825" 
d="M707 924h86v-203h-86v-137h-236v137h-432v190l223 537h264l-209 -524h177v219h213v-219z" />
    <glyph glyph-name="five.numr" horiz-adv-x="786" 
d="M412 1135q140 0 232.5 -74.5t92.5 -206.5q0 -140 -104 -216.5t-271 -76.5q-118 0 -207.5 31.5t-136.5 85.5l125 182q28 -34 84 -56t119 -22q59 0 94 27t35 72q0 48 -36.5 77t-100.5 29q-77 0 -133 -39l-133 29l41 471h581v-223h-364l-11 -101q53 11 93 11z" />
    <glyph glyph-name="six.numr" horiz-adv-x="845" 
d="M516 1165q138 0 218.5 -79t80.5 -207q0 -145 -102.5 -231.5t-272.5 -86.5q-111 0 -197.5 38t-140 120.5t-53.5 200.5q0 298 322 557l258 -84q-188 -133 -271 -267q64 39 158 39zM436 768q55 0 87 31.5t32 85.5q0 51 -33.5 82.5t-85.5 31.5q-55 0 -92 -32t-37 -84
q0 -54 36 -84.5t93 -30.5z" />
    <glyph glyph-name="seven.numr" horiz-adv-x="733" 
d="M39 1212v236h655v-174l-293 -690h-280l266 628h-348z" />
    <glyph glyph-name="eight.numr" horiz-adv-x="858" 
d="M668 1034q65 -32 103 -85.5t38 -121.5q0 -119 -101.5 -192.5t-279.5 -73.5q-176 0 -277.5 73.5t-101.5 192.5q0 135 141 207q-116 65 -116 189q0 109 91.5 177t262.5 68q172 0 264 -68t92 -177q0 -121 -116 -189zM428 1276q-46 0 -74 -22t-28 -60t28 -61t74 -23
q47 0 75.5 23t28.5 61t-28 60t-76 22zM428 770q53 0 86 26t33 66q0 43 -32.5 68.5t-86.5 25.5t-86.5 -25.5t-32.5 -68.5t32.5 -67.5t86.5 -24.5z" />
    <glyph glyph-name="nine.numr" horiz-adv-x="845" 
d="M406 1468q111 0 197 -37.5t140 -120t54 -200.5q0 -298 -322 -557l-258 84q187 133 270 266q-64 -39 -157 -39q-138 0 -218.5 79.5t-80.5 207.5q0 145 102.5 231t272.5 86zM291 1145q0 -51 34 -83t85 -32q55 0 92 32.5t37 84.5q0 54 -36 84.5t-93 30.5q-55 0 -87 -31.5
t-32 -85.5z" />
    <glyph glyph-name="period.alt" horiz-adv-x="552" 
d="M453 0h-353v348h353v-348z" />
    <glyph glyph-name="colon.alt" horiz-adv-x="528" 
d="M440 682h-352v348h352v-348zM440 0h-352v348h352v-348z" />
    <glyph glyph-name="semicolon.alt" horiz-adv-x="575" 
d="M461 682h-352v348h352v-348zM319 -301h-231l59 678h328z" />
    <glyph glyph-name="ellipsis.alt" horiz-adv-x="1660" 
d="M453 0h-353v348h353v-348zM1006 0h-353v348h353v-348zM1561 0h-353v348h353v-348z" />
    <glyph glyph-name="exclam.alt" horiz-adv-x="528" 
d="M387 492h-244l-45 954h334zM440 0h-352v348h352v-348z" />
    <glyph glyph-name="exclamdown.alt" horiz-adv-x="528" 
d="M88 1030h352v-348h-352v348zM143 539h244l45 -955h-334z" />
    <glyph glyph-name="question.alt" horiz-adv-x="1034" 
d="M639 483h-264q0 76 29 143t70 115.5t82 93.5t70 97t29 106q0 69 -48 109.5t-124 40.5q-65 0 -120.5 -39t-90.5 -125l-245 139q47 134 176 216.5t305 82.5q201 0 333 -104t132 -277q0 -60 -18 -116t-46.5 -100t-63 -84.5t-70 -77t-65 -71t-49.5 -73t-22 -76.5zM688 0h-352
v348h352v-348z" />
    <glyph glyph-name="questiondown.alt" horiz-adv-x="1034" 
d="M336 1044h352v-350h-352v350zM395 555h264q0 -76 -29 -143t-70 -115.5t-82 -93.5t-70 -97t-29 -106q0 -69 47.5 -108t122.5 -39q145 0 213 161l246 -139q-47 -134 -176.5 -216.5t-305.5 -82.5q-202 0 -333.5 104.5t-131.5 276.5q0 60 18 116t46.5 100t63 84.5t70 77
t65 71t49.5 73t22 76.5z" />
    <glyph glyph-name="periodcentered.alt" horiz-adv-x="552" 
d="M453 340h-353v350h353v-350z" />
    <glyph glyph-name="bullet.alt" horiz-adv-x="804" 
d="M717 209h-619v614h619v-614z" />
    <glyph glyph-name="exclamdown.case.alt" horiz-adv-x="530" 
d="M88 1446h352v-348h-352v348zM143 954h244l45 -954h-334z" />
    <glyph glyph-name="questiondown.case.alt" horiz-adv-x="1034" 
d="M346 1446h352v-348h-352v348zM395 963h264q0 -76 -29 -143t-70 -115.5t-82 -93.5t-70 -97t-29 -106q0 -69 48 -109.5t124 -40.5q65 0 120.5 39t90.5 125l246 -139q-47 -134 -176.5 -216.5t-305.5 -82.5q-201 0 -333 104t-132 277q0 60 18 116t46.5 100t63 84.5t70 77
t65 71t49.5 73t22 76.5z" />
    <glyph glyph-name="periodcentered.case.alt" horiz-adv-x="552" 
d="M453 549h-353v348h353v-348z" />
    <glyph glyph-name="bullet.case.alt" horiz-adv-x="804" 
d="M717 416h-619v614h619v-614z" />
    <glyph glyph-name="periodcentered.loclCAT.alt" horiz-adv-x="430" 
d="M391 578h-352v348h352v-348z" />
    <glyph glyph-name="exclamdown.case" horiz-adv-x="563" 
d="M283 1462q83 0 137.5 -53t54.5 -135t-54.5 -134.5t-137.5 -52.5q-85 0 -140 52.5t-55 134.5t55 135t140 53zM160 954h243l46 -954h-334z" />
    <glyph glyph-name="questiondown.case" horiz-adv-x="1034" 
d="M524 1462q83 0 138 -53t55 -135q0 -81 -54.5 -134t-138.5 -53q-83 0 -137.5 52.5t-54.5 134.5t54.5 135t137.5 53zM395 963h264q0 -76 -29 -143t-70 -115.5t-82 -93.5t-70 -97t-29 -106q0 -69 48 -109.5t124 -40.5q65 0 120.5 39t90.5 125l246 -139
q-47 -134 -176.5 -216.5t-305.5 -82.5q-201 0 -333 104t-132 277q0 60 18 116t46.5 100t63 84.5t70 77t65 71t49.5 73t22 76.5z" />
    <glyph glyph-name="periodcentered.case" horiz-adv-x="563" 
d="M281 535q-84 0 -138.5 53.5t-54.5 136.5q0 81 54.5 133.5t138.5 52.5q85 0 139.5 -52t54.5 -134q0 -83 -54.5 -136.5t-139.5 -53.5z" />
    <glyph glyph-name="bullet.case" horiz-adv-x="837" 
d="M422 393q-146 0 -242 94.5t-96 239.5q0 144 95.5 235t242.5 91q149 0 244.5 -91t95.5 -235q0 -145 -96 -239.5t-244 -94.5z" />
    <glyph glyph-name="periodcentered.loclCAT" horiz-adv-x="430" 
d="M215 563q-83 0 -137.5 54t-54.5 137q0 81 54 133.5t138 52.5t138.5 -52.5t54.5 -133.5q0 -83 -55 -137t-138 -54z" />
    <glyph glyph-name="parenleft.case" horiz-adv-x="792" 
d="M778 -10l-137 -228q-264 141 -412.5 383t-148.5 555q0 315 149 558t412 382l137 -229q-180 -107 -280.5 -292.5t-100.5 -418.5q0 -234 100.5 -419.5t280.5 -290.5z" />
    <glyph glyph-name="parenright.case" horiz-adv-x="792" 
d="M152 -238l-138 228q180 105 280.5 290.5t100.5 419.5q0 233 -100.5 418.5t-280.5 292.5l138 229q264 -140 413.5 -382.5t149.5 -557.5q0 -313 -149.5 -555t-413.5 -383z" />
    <glyph glyph-name="braceleft.case" horiz-adv-x="792" 
d="M498 1212v-219q0 -227 -211 -295q211 -68 211 -295v-213q0 -62 31 -97.5t85 -35.5h150v-266h-215q-170 0 -261 94t-91 262v252q0 84 -42 133.5t-116 49.5h-33v235h33q75 0 116.5 48t41.5 132v256q0 168 91 262.5t261 94.5h215v-267h-150q-54 0 -85 -35.5t-31 -95.5z" />
    <glyph glyph-name="braceright.case" horiz-adv-x="792" 
d="M754 817h32v-235h-32q-74 0 -115 -49.5t-41 -133.5v-252q0 -167 -92 -261.5t-262 -94.5h-215v266h149q55 0 87 35.5t32 97.5v213q0 226 209 295q-209 69 -209 295v219q0 60 -32 95.5t-87 35.5h-149v267h215q170 0 262 -94.5t92 -262.5v-256q0 -84 41 -132t115 -48z" />
    <glyph glyph-name="bracketleft.case" horiz-adv-x="716" 
d="M688 -209h-555v1819h555v-267h-254v-1286h254v-266z" />
    <glyph glyph-name="bracketright.case" horiz-adv-x="716" 
d="M584 -209h-555v266h254v1286h-254v267h555v-1819z" />
    <glyph glyph-name="hyphen.case" horiz-adv-x="903" 
d="M817 586h-731v274h731v-274z" />
    <glyph glyph-name="uni00AD.case" horiz-adv-x="903" 
d="M817 586h-731v274h731v-274z" />
    <glyph glyph-name="endash.case" horiz-adv-x="1228" 
d="M1151 586h-1073v274h1073v-274z" />
    <glyph glyph-name="emdash.case" horiz-adv-x="2027" 
d="M1950 586h-1872v274h1872v-274z" />
    <glyph glyph-name="uni2015.case" horiz-adv-x="2027" 
d="M1950 586h-1872v274h1872v-274z" />
    <glyph glyph-name="uni2011.case" horiz-adv-x="903" 
d="M817 586h-731v274h731v-274z" />
    <glyph glyph-name="guillemotleft.case" horiz-adv-x="1200" 
d="M600 375l-221 -156l-346 502l346 506l221 -158l-240 -348zM1141 375l-221 -156l-347 502l347 506l221 -158l-240 -348z" />
    <glyph glyph-name="guillemotright.case" horiz-adv-x="1200" 
d="M627 721l-346 -502l-224 156l240 346l-240 348l224 158zM1167 721l-346 -502l-223 156l240 346l-240 348l223 158z" />
    <glyph glyph-name="guilsinglleft.case" horiz-adv-x="659" 
d="M600 375l-221 -156l-346 502l346 506l221 -158l-240 -348z" />
    <glyph glyph-name="guilsinglright.case" horiz-adv-x="659" 
d="M627 721l-346 -502l-224 156l240 346l-240 348l224 158z" />
    <glyph glyph-name="uni2219.alt" horiz-adv-x="552" 
d="M453 473h-353v348h353v-348z" />
    <glyph glyph-name="divide.alt" horiz-adv-x="1093" 
d="M715 918h-332v327h332v-327zM1016 510h-938v274h938v-274zM715 55h-332v328h332v-328z" />
    <glyph glyph-name="at.case" horiz-adv-x="1732" 
d="M874 1538q183 0 334 -59t252 -161.5t156 -242t55 -299.5q0 -223 -100.5 -349t-276.5 -126q-125 0 -199.5 60t-95.5 167q-59 -102 -186 -102q-119 0 -200 90.5t-81 237.5q0 143 80 233t189 90q95 0 153 -69v53h234v-391q0 -84 25.5 -123t78.5 -39q131 0 131 252
q0 155 -61.5 275.5t-187.5 192.5t-300 72q-248 0 -406.5 -152.5t-158.5 -408.5q0 -166 80.5 -295.5t214 -197.5t293.5 -68q181 0 270 47l84 -221q-126 -57 -344 -57q-242 0 -435 99.5t-303 280.5t-110 412q0 177 60.5 326.5t167.5 253t258 161.5t329 58zM866 625
q50 0 76.5 33t26.5 96q0 60 -26.5 93.5t-76.5 33.5q-104 0 -104 -127q0 -129 104 -129z" />
    <glyph glyph-name="uni030C.alt" 
d="M-326 1038h-215l9 463h270z" />
    <glyph glyph-name="uni0308.alt" 
d="M-629 1194h-305v279h305v-279zM-193 1194h-303v279h303v-279z" />
    <glyph glyph-name="uni0307.alt" 
d="M-86 1184h-330v301h330v-301z" />
    <glyph glyph-name="dotaccent.alt" horiz-adv-x="505" 
d="M420 1184h-330v301h330v-301z" />
    <glyph glyph-name="dieresis.alt" horiz-adv-x="794" 
d="M330 1194h-303v279h303v-279zM768 1194h-305v279h305v-279z" />
    <glyph glyph-name="uni0308.case.alt" 
d="M-629 1577h-305v278h305v-278zM-193 1577h-303v278h303v-278z" />
    <glyph glyph-name="uni0307.case.alt" 
d="M-205 1569h-330v301h330v-301z" />
    <glyph glyph-name="uni0308.narrow.alt" 
d="M-553 1194h-281v279h281v-279zM-182 1194h-281v279h281v-279z" />
    <glyph glyph-name="uni0308.case" 
d="M-788 1554q-72 0 -120 47.5t-48 116.5q0 68 48 114t120 46t119.5 -46t47.5 -114q0 -69 -47.5 -116.5t-119.5 -47.5zM-352 1554q-71 0 -119.5 48t-48.5 116q0 67 48.5 113.5t119.5 46.5t119.5 -46.5t48.5 -113.5q0 -68 -48.5 -116t-119.5 -48z" />
    <glyph glyph-name="uni0307.case" 
d="M-385 1548q-77 0 -127.5 49t-50.5 125q0 72 51 121t127 49q78 0 129 -49t51 -121q0 -76 -51 -125t-129 -49z" />
    <glyph glyph-name="gravecomb.case" 
d="M-205 1544h-266l-215 346h324z" />
    <glyph glyph-name="acutecomb.case" 
d="M-426 1544h-266l157 346h324z" />
    <glyph glyph-name="uni030B.case" 
d="M-872 1544h-267l158 346h324zM-418 1544h-266l158 346h323z" />
    <glyph glyph-name="uni0302.case" 
d="M-457 1890l252 -346h-272l-113 176l-115 -176h-274l252 346h270z" />
    <glyph glyph-name="uni030C.case" 
d="M-592 1714l113 176h274l-252 -346h-270l-252 346h274z" />
    <glyph glyph-name="uni0306.case" 
d="M-571 1544q-175 0 -269 93t-94 253h225q0 -57 36 -90t102 -33q65 0 101 32.5t36 90.5h225q0 -160 -94 -253t-268 -93z" />
    <glyph glyph-name="uni030A.case" 
d="M-440 1520q-109 0 -179.5 63.5t-70.5 163.5t70.5 164.5t179.5 64.5q107 0 177 -64.5t70 -164.5q0 -99 -69.5 -163t-177.5 -64zM-442 1657q42 0 69 25.5t27 64.5q0 40 -27.5 66t-68.5 26q-40 0 -67.5 -25.5t-27.5 -66.5q0 -39 27.5 -64.5t67.5 -25.5z" />
    <glyph glyph-name="tildecomb.case" 
d="M-424 1548q-56 0 -105 26t-83 51.5t-52 25.5q-47 0 -47 -90h-217q0 148 63.5 232.5t170.5 84.5q45 0 86 -15.5t65.5 -34.5t49.5 -34.5t40 -15.5q43 0 43 90h220q0 -149 -63 -234.5t-171 -85.5z" />
    <glyph glyph-name="uni0304.case" 
d="M-205 1604h-614v231h614v-231z" />
    <glyph glyph-name="uni0308.narrow" 
d="M-698 1171q-67 0 -111.5 47.5t-44.5 116.5q0 68 44.5 114t111.5 46t111 -46t44 -114q0 -70 -44 -117t-111 -47zM-328 1171q-65 0 -110 48t-45 116q0 66 44.5 113t110.5 47t111 -47t45 -113q0 -68 -45 -116t-111 -48z" />
    <glyph glyph-name="gravecomb.narrow" 
d="M-205 1149h-262l-211 352h322z" />
    <glyph glyph-name="acutecomb.narrow" 
d="M-418 1149h-264l154 352h319z" />
    <glyph glyph-name="uni0302.narrow" 
d="M-465 1501l189 -352h-242l-72 180l-74 -180h-243l190 352h252z" />
    <glyph glyph-name="uni030C.narrow" 
d="M-596 1321l72 180h241l-188 -352h-252l-188 352h241z" />
    <glyph glyph-name="uni0304.narrow" 
d="M-205 1204h-557v234h557v-234z" />
    </font>
</defs>
</svg>
