<svg xmlns="http://www.w3.org/2000/svg" width="777.13" height="340.894" viewBox="0 0 777.13 340.894">
   <style>
    @keyframes pulse-small {
        0% {
          -webkit-transform: scale(1);
          transform: scale(1);
        }
        70% {
          -webkit-transform: scale(1.1);
          transform: scale(1.1);
        }
        100% {
          -webkit-transform: scale(1);
          transform: scale(1);
        }
    }

    @keyframes pulse-small-sm {
        0% {
          -webkit-transform: scale(1);
          transform: scale(1);
        }
        70% {
          -webkit-transform: scale(0.9);
          transform: scale(0.9);
        }
        100% {
          -webkit-transform: scale(1);
          transform: scale(1);
        }
    }

    @-webkit-keyframes rotating {
      0% {
        -webkit-transform: rotate(0deg);
        -o-transform: rotate(0deg);
        transform: rotate(0deg);
      }
      50% {
        -webkit-transform: rotate(180deg);
        -o-transform: rotate(180deg);
        transform: rotate(180deg);
      }
      100% {
        -webkit-transform: rotate(360deg);
        -o-transform: rotate(360deg);
        transform: rotate(360deg);
      }
    }
    @keyframes rotating {
      0% {
        -ms-transform: rotate(0deg);
        -moz-transform: rotate(0deg);
        -webkit-transform: rotate(0deg);
        -o-transform: rotate(0deg);
        transform: rotate(0deg);
      }
      50% {
        -ms-transform: rotate(180deg);
        -moz-transform: rotate(180deg);
        -webkit-transform: rotate(180deg);
        -o-transform: rotate(180deg);
        transform: rotate(180deg);
      }
      100% {
        -ms-transform: rotate(360deg);
        -moz-transform: rotate(360deg);
        -webkit-transform: rotate(360deg);
        -o-transform: rotate(360deg);
        transform: rotate(360deg);
      }
    }

    @keyframes pulse {
        0% {
          -webkit-transform: scale(1);
          transform: scale(1);
        }
        70% {
          -webkit-transform: scale(1.8);
          transform: scale(1.8);
        }
        100% {
          -webkit-transform: scale(1);
          transform: scale(1);
        }
    } 

    @-webkit-keyframes floating-up-down-10 {
        from { -webkit-transform: translate(0,  0px); transform: translate(0,  0px); }
        65%  { -webkit-transform: translate(0, -10px); transform: translate(0, -10px); }
        to   { -webkit-transform: translate(0, 0px); transform: translate(0, 0px); }    
    }

    #dot-1, #dot-2, #dot-3, #dot-4, #dot-5, #dot-6, #dot-7, #dot-6, #dot-8 {
      animation: pulse 2s ease-in-out infinite;
      -webkit-animation: pulse 2s ease-in-out infinite;
      -webkit-transform-origin: center; -ms-transform-origin: center; transform-origin: center; transform-box: fill-box;
    }

    #dot-1 { animation-delay: 1s; }
    #dot-2 { animation-delay: 1.3s; }
    #dot-3 { animation-delay: 2s; }
    #dot-4 { animation-delay: 2.3s; }
    #dot-5 { animation-delay: 2.8s; }
    #dot-6 { animation-delay: 3s; }
    #dot-7 { animation-delay: 3.3s; }
    #dot-8 { animation-delay: 3.8s; }
 
    #bar-1, #bar-2, #bar-3, #bar-4, #bar-5 {
      animation-duration: 3s; 
      animation-name: floating-up-down-10; 
      animation-iteration-count: infinite; 
      animation-timing-function: ease-in-out;
    }

    #bar-1 { animation-delay: 1s; }
    #bar-2 { animation-delay: 1.3s; }
    #bar-3 { animation-delay: 2s; }
    #bar-4 { animation-delay: 2.3s; }
    #bar-5 { animation-delay: 2.8s; }

    #message-1, #message-2, #message-3, #message-4, #message-5  {
      animation: pulse-small 2s ease-in-out infinite;
      -webkit-animation: pulse-small 2s ease-in-out infinite;
      -webkit-transform-origin: center; -ms-transform-origin: center; transform-origin: center; transform-box: fill-box;
    }

    #message-4, #message-5 {
        animation-name: pulse-small-sm;
      -webkit-animation-name: pulse-small-sm;
    }

    #message-1 { animation-delay: 1s; }
    #message-2 { animation-delay: 1.3s; }
    #message-3 { animation-delay: 2s; }
    #message-4 { animation-delay: 2.3s; }
    #message-5 { animation-delay: 2.8s; }

    #circle {
      animation: rotating 2s ease-in-out infinite;
      -webkit-animation: rotating 2s ease-in-out infinite;
      -webkit-transform-origin: center; -ms-transform-origin: center; transform-origin: center; transform-box: fill-box;
    }

  </style> 
  <g id="any-question" transform="translate(-0.08)">
    <path id="Path_1" data-name="Path 1" d="M688.71,108.639H540.23a4.7,4.7,0,0,1-4.7-4.7V22.089a4.7,4.7,0,0,1,4.7-4.7H688.71a4.7,4.7,0,0,1,4.7,4.7v81.85A4.7,4.7,0,0,1,688.71,108.639Z" transform="translate(0.83 0.764)" fill="#3e3789"/>
    <g id="bar-1">
      <path id="Path_2" data-name="Path 2" d="M575.971,67.609h-9.29v25.06h9.29Z" fill="#9364ed"/>
    </g>
    <g id="bar-5">
      <path id="Path_3" data-name="Path 3" d="M660.911,67.609h-9.29v25.06h9.29Z" fill="#9364ed"/>
    </g>
    <g id="bar-2">
      <path id="Path_4" data-name="Path 4" d="M597.2,54.709h-9.29V92.59h9.29Z" fill="#9364ed"/>
    </g>
    <g id="bar-3">
      <path id="Path_5" data-name="Path 5" d="M618.44,43.809h-9.29v48.78h9.29Z" fill="#9364ed"/>
    </g>
    <g id="bar-4">
      <path id="Path_6" data-name="Path 6" d="M639.671,33.239h-9.29v59.55h9.29Z" fill="#9364ed"/>
    </g>
    <path id="Path_7" data-name="Path 7" d="M248.8,25.869v75.62a12.3,12.3,0,0,1-12.3,12.3H94.17a12.291,12.291,0,0,1-12.3-12.3V25.869a12.3,12.3,0,0,1,12.3-12.3H236.51A12.3,12.3,0,0,1,248.8,25.869Z" fill="#2e2865"/>
    <path id="Path_8" data-name="Path 8" d="M248.8,29.849H81.87v.83H248.8Z" fill="#3e3789"/>
    <path id="Path_9" data-name="Path 9" d="M248.8,47.109v.83H82.15a.411.411,0,0,1-.28-.11v-.62a.411.411,0,0,1,.28-.11H248.8Z" fill="#3e3789"/>
    <path id="Path_10" data-name="Path 10" d="M248.8,63.359v.78a.319.319,0,0,1-.14.03H81.87v-.83H248.66A.22.22,0,0,1,248.8,63.359Z" fill="#3e3789"/>
    <path id="Path_11" data-name="Path 11" d="M248.8,80.589v.83H82a.277.277,0,0,1-.13-.03v-.78a.277.277,0,0,1,.13-.03H248.8Z" fill="#3e3789"/>
    <path id="Path_12" data-name="Path 12" d="M248.8,97.859v.78a.319.319,0,0,1-.14.03H81.87v-.83H248.66A.318.318,0,0,1,248.8,97.859Z" fill="#3e3789"/>
    <path id="Path_13" data-name="Path 13" d="M99.311,13.569h-.83v100.22h.83Z" fill="#3e3789"/>
    <path id="Path_14" data-name="Path 14" d="M116.56,13.569h-.83v100.22h.83Z" fill="#3e3789"/>
    <path id="Path_15" data-name="Path 15" d="M132.8,13.569h-.83v100.22h.83Z" fill="#3e3789"/>
    <path id="Path_16" data-name="Path 16" d="M150.041,13.569h-.83v100.22h.83Z" fill="#3e3789"/>
    <path id="Path_17" data-name="Path 17" d="M167.3,13.569h-.83v100.22h.83Z" fill="#3e3789"/>
    <path id="Path_18" data-name="Path 18" d="M184.09,13.569h-.83v100.22h.83Z" fill="#3e3789"/>
    <path id="Path_19" data-name="Path 19" d="M201.34,13.569h-.83v100.22h.83Z" fill="#3e3789"/>
    <path id="Path_20" data-name="Path 20" d="M217.57,13.569h-.83v100.22h.83Z" fill="#3e3789"/>
    <path id="Path_21" data-name="Path 21" d="M234.82,13.569h-.83v100.22h.83Z" fill="#3e3789"/>
    <g id="dot-1">
      <path id="Path_22" data-name="Path 22" d="M119.77,47.52a4.04,4.04,0,1,1-4.04-4.04A4.042,4.042,0,0,1,119.77,47.52Z" fill="#ffb700"/>
    </g>
    <g id="dot-2">
      <path id="Path_23" data-name="Path 23" d="M136.42,81.419a4.04,4.04,0,1,1-4.04-4.04A4.042,4.042,0,0,1,136.42,81.419Z" fill="#ffb700"/>
    </g>
    <g id="dot-3">
      <path id="Path_24" data-name="Path 24" d="M204.97,47.939a4.04,4.04,0,1,1-4.04-4.04A4.042,4.042,0,0,1,204.97,47.939Z" fill="#ffb700"/>
    </g>
    <path id="Path_25" data-name="Path 25" d="M429.99,35.539v67.84a3.852,3.852,0,0,1-3.85,3.85H305.31a3.618,3.618,0,0,1-1.36-.26,2.974,2.974,0,0,1-.57-.27,3.849,3.849,0,0,1-1.92-3.33V35.539a3.86,3.86,0,0,1,3.85-3.86H426.14A3.86,3.86,0,0,1,429.99,35.539Z" fill="#2e2865"/>
    <path id="Path_26" data-name="Path 26" d="M429.99,101.209v2.17a3.852,3.852,0,0,1-3.85,3.85H305.59a5.17,5.17,0,0,1-1.64-.26,3.656,3.656,0,0,1-.58-.22l.01-.05.96-5.07L330.05,65.1l6.05,9.92,18.16-26.07,18.19,24.52,3.43-5.78,15.5,16.73,3.03-3.07,15.71,13.28,3.31-6.59,11.4,12.27,1.27-4.1Z" fill="#352f75"/>
    <path id="Path_27" data-name="Path 27" d="M421.49,107.229H305.31a3.736,3.736,0,0,1-1.94-.53,3.812,3.812,0,0,1-1.91-3.32v-4.63L322.7,60.1l5.28,11.1,15.86-29.17,15.89,27.43,3-6.47,13.54,18.72,2.65-3.44,13.73,14.86,2.88-7.38,9.97,13.73,1.1-4.59Z" fill="#3e3789"/>
    <g id="dot-4">
      <path id="Path_28" data-name="Path 28" d="M322.7,64.069a3.24,3.24,0,1,0-3.24-3.24A3.24,3.24,0,0,0,322.7,64.069Z" fill="#9364ed"/>
    </g>
    <g id="dot-7">
      <path id="Path_29" data-name="Path 29" d="M379.5,81.519a3.24,3.24,0,1,0-3.24-3.24A3.24,3.24,0,0,0,379.5,81.519Z" fill="#9364ed"/>
    </g>
    <g id="dot-6">
      <path id="Path_30" data-name="Path 30" d="M365.96,61.5a3.24,3.24,0,1,1-3.24-3.24A3.239,3.239,0,0,1,365.96,61.5Z" fill="#9364ed"/>
    </g>
    <g id="dot-5">
      <path id="Path_31" data-name="Path 31" d="M347.08,42.029a3.24,3.24,0,1,1-3.24-3.24A3.239,3.239,0,0,1,347.08,42.029Z" fill="#9364ed"/>
    </g>
    <g id="dot-8">
      <path id="Path_32" data-name="Path 32" d="M399.11,85.749a3.24,3.24,0,1,1-3.24-3.24A3.239,3.239,0,0,1,399.11,85.749Z" fill="#9364ed"/>
    </g>
    <g id="circle">
      <path id="Path_33" data-name="Path 33" d="M273.28,42.569a25.013,25.013,0,0,1-1.44-33.53,23.724,23.724,0,0,1,1.67-1.84A24.894,24.894,0,0,1,290.34.009a22.073,22.073,0,0,1,2.3.05c.1,0,.22,0,.32.01.3.02.6.05.91.09.51.06,1.02.13,1.52.22s.98.19,1.46.29c.06.02.11.03.18.05.39.1.78.2,1.17.32a.085.085,0,0,1,.06.02c.23.06.45.14.68.22a.63.63,0,0,1,.27.1c.54.18,1.07.39,1.61.62.33.14.66.28.99.43.21.09.42.19.62.3s.41.2.6.31c.39.21.78.44,1.16.67.45.28.9.58,1.34.89a24.743,24.743,0,0,1,3.35,2.83,25.015,25.015,0,0,1,4.78,28.31,24.432,24.432,0,0,1-5.01,7.06A25.015,25.015,0,0,1,273.28,42.569Z" fill="#ffb700"/>
      <path id="Path_34" data-name="Path 34" d="M313.67,35.739,291.08,25l4.6-19.33,5.15-3.69a24.091,24.091,0,0,1,4.7,2.61,24.989,24.989,0,0,1,8.14,31.15Z" fill="#e2209e"/>
      <path id="Path_35" data-name="Path 35" d="M291.08,24.989,271.84,9.039a23.724,23.724,0,0,1,1.67-1.84A24.894,24.894,0,0,1,290.34.009a22.073,22.073,0,0,1,2.3.05Z" fill="#352f75"/>
      <path id="Path_36" data-name="Path 36" d="M291.081,24.989l-.73-24.98a22.072,22.072,0,0,1,2.3.05c.1,0,.21,0,.32.01.3.02.6.05.91.09.51.06,1.02.13,1.52.22s.98.19,1.46.29c.06.02.11.03.18.05.39.1.78.2,1.17.32a.085.085,0,0,1,.06.02c.23.06.45.14.68.22a.63.63,0,0,1,.27.1,22.429,22.429,0,0,1,2.6,1.05c.21.09.42.19.62.3s.41.2.6.31c.39.21.78.44,1.16.67.45.28.9.58,1.34.89Z" fill="#5e1dbb"/>
    </g>
    <path id="Path_37" data-name="Path 37" d="M490.389,281.559s-43.33-10.75-48.38-45.37c-6.21-42.6,4.8-63.47,4.8-63.47l28.31,35.72,8.5,43.16,11.19,8.56,6.23,13.96Z" fill="#f47745"/>
    <path id="Path_38" data-name="Path 38" d="M394.55,93.8s-2.5-11.16-5.57-11.38-.66,8.98-.66,8.98l-8.31-3.18s-9.45-2.64-11.33-1.81,1.22,3.89,1.22,3.89-6.73-2.02-5.79,1.26,5.55,5.17,5.55,5.17-6.58-2.33-5.09,1.51c.8,2.08,15.27,10.84,25.02,10.53s5.86-7.83,5.86-7.83Z" fill="#fd8753"/>
    <path id="Path_39" data-name="Path 39" d="M373.28,98.879a.442.442,0,0,1-.33-.15.431.431,0,0,1,.05-.61l8.37-7.15a.439.439,0,0,1,.61.05.431.431,0,0,1-.05.61l-8.37,7.15A.419.419,0,0,1,373.28,98.879Z"/>
    <path id="Path_40" data-name="Path 40" d="M517.81,265.789a3.2,3.2,0,0,0-2.58-3.59c-6.8-1.52-21.87-5.75-22.15-4.51-.35,1.58.45,18.45.45,18.45s-9.53-1.65-9.3,5.29c.18,5.32,4.88,12.49,7.05,15.54a5.843,5.843,0,0,1,1.1,3.24c.13,4.95,1.11,18.71,7.99,20.43,8.41,2.11,8.2-1.5,8.55-3.08C509.23,316.2,515.92,276.889,517.81,265.789Z" fill="#9364ed"/>
    <path id="Path_41" data-name="Path 41" d="M495.5,283.789a.44.44,0,0,1-.43-.38l-1.08-8.4a.429.429,0,0,1,.85-.11l1.08,8.4a.429.429,0,0,1-.37.48A.075.075,0,0,1,495.5,283.789Z" fill="#fff"/>
    <path id="Path_42" data-name="Path 42" d="M390.879,102.96a5.763,5.763,0,0,1-4.33-2.6c-1.1-1.94-.79-4.66.91-8.11a.434.434,0,0,1,.78.38c-1.57,3.17-1.88,5.62-.94,7.29a4.961,4.961,0,0,0,3.61,2.17.444.444,0,0,1,.4.47A.434.434,0,0,1,390.879,102.96Z"/>
    <path id="Path_43" data-name="Path 43" d="M460.57,208.439s2.48,82.98,5.81,91.75,21.51,0,21.51,0l4.3-89.91Z" fill="#fd8753"/>
    <path id="Path_44" data-name="Path 44" d="M440.38,148.1s-3.25,18.38-3.25,32.09-1.61,28.75,0,30.09,17.54,5.83,36.81,4.82,25.04-5.5,24.72-7.1-2.57-2.94-2.57-2.94,1.28-39.62-3.85-50.23-27.04-12.92-27.04-12.92H441.65Z" fill="#e2209e"/>
    <path id="Path_45" data-name="Path 45" d="M473.429,146.349s-22.88,1.4-32.07-3.07l.54-27.5s4.99-35.22,12.14-35.97a73.1,73.1,0,0,1,15.85.6l22.85,32.49Z" fill="#ffb700"/>
    <path id="Path_46" data-name="Path 46" d="M486.21,321.15a3.215,3.215,0,0,0,3.08-3.17c.29-6.97,1.78-22.55.51-22.6-1.62-.07-18.08,3.71-18.08,3.71s-.07-9.67-6.86-8.21c-5.21,1.12-11.43,7.01-14.04,9.69a5.8,5.8,0,0,1-2.99,1.66c-4.85,1-20.53,4.38-21.01,11.46-.59,8.65,2.93,7.8,4.55,7.87C432.77,321.62,474.95,321.26,486.21,321.15Z" fill="#9364ed"/>
    <path id="Path_47" data-name="Path 47" d="M469.839,141.979s-17.35,2.87-20.78,6.03,4.89,15.271,7.02,17.231,17.36-8.011,17.36-8.011l2.2-8.7Z" fill="#fd8753"/>
    <path id="Path_48" data-name="Path 48" d="M449.06,148.009s-7.25,10.36-6.05,14.64,9.93-8.95,9.93-8.95Z" fill="#fd8753"/>
    <path id="Path_49" data-name="Path 49" d="M461.829,162.36s8.98-1.27,7.21,1.99-11.37,2.69-12.96.89,3.42-6.72,3.42-6.72Z" fill="#fd8753"/>
    <path id="Path_50" data-name="Path 50" d="M463,163.419a.431.431,0,0,1-.4-.28.445.445,0,0,1,.25-.56l1.84-.7-1.42-1.05a.429.429,0,1,1,.51-.69l2.06,1.52a.428.428,0,0,1,.17.41.417.417,0,0,1-.27.34l-2.58.98A.5.5,0,0,1,463,163.419Z"/>
    <path id="Path_51" data-name="Path 51" d="M450.1,157.11a.5.5,0,0,1-.16-.03.445.445,0,0,1-.25-.56c.17-.43,1.64-4.21,2.54-4.98a.433.433,0,0,1,.56.66c-.55.47-1.7,3.09-2.3,4.63A.4.4,0,0,1,450.1,157.11Z"/>
    <path id="Path_52" data-name="Path 52" d="M452.849,161.479a.492.492,0,0,1-.2-.05.433.433,0,0,1-.19-.58l3.12-6.16a.442.442,0,0,1,.58-.19.433.433,0,0,1,.19.58l-3.12,6.16A.411.411,0,0,1,452.849,161.479Z"/>
    <path id="Path_53" data-name="Path 53" d="M469.9,80.409s42.58,4.88,41.97,49.33c-.37,27.25-37.1,35.41-37.1,35.41l-11.34-28.07,18.95-10.84Z" fill="#ffb700"/>
    <path id="Path_54" data-name="Path 54" d="M464.05,302.36a.438.438,0,0,1-.41-.3.427.427,0,0,1,.28-.54l8.08-2.55a.43.43,0,1,1,.26.82l-8.08,2.55A.584.584,0,0,1,464.05,302.36Z" fill="#fff"/>
    <path id="Path_55" data-name="Path 55" d="M468.719,134.479a.422.422,0,0,1-.34-.17.442.442,0,0,1,.08-.61c.49-.37,11.95-9.08,16.54-10.7a.43.43,0,1,1,.29.81c-4.47,1.58-16.19,10.48-16.31,10.57A.388.388,0,0,1,468.719,134.479Z" fill="#fff"/>
    <path id="Path_56" data-name="Path 56" d="M479.3,126.839a.432.432,0,0,1-.26-.09.444.444,0,0,1-.16-.47c.08-.26,1.93-6.49,4.58-7.67a2.129,2.129,0,0,1,1.86.02,1.477,1.477,0,0,1,.94,1.25c.15,2.38-6.03,6.44-6.73,6.89A.389.389,0,0,1,479.3,126.839Zm5.09-7.57a1.314,1.314,0,0,0-.57.13c-1.55.69-2.97,3.88-3.72,5.94,2.42-1.69,5.38-4.18,5.3-5.41-.01-.14-.06-.34-.45-.53A1.389,1.389,0,0,0,484.389,119.269Z" fill="#fff"/>
    <path id="Path_57" data-name="Path 57" d="M386.869,111.019a43.19,43.19,0,0,0,28.31,15.69c18.41,2.06,29.79-8.01,29.79-8.01l8.43-38.719s-18.68,9.16-34,15.01c-9.02,3.44-23.83-3.84-23.83-3.84Z" fill="#ffb700"/>
    <path id="Path_58" data-name="Path 58" d="M420.429,105.639a1.707,1.707,0,0,1-1.28-.54c-1.93-2.02-.35-9.38-.16-10.21a.414.414,0,0,1,.36-.33.431.431,0,0,1,.44.22c.39.72,3.77,7.12,2.52,9.74a1.945,1.945,0,0,1-1.47,1.09C420.7,105.619,420.559,105.639,420.429,105.639Zm-.84-9.36c-.47,2.61-.98,7.01.18,8.22a.931.931,0,0,0,.91.25,1.072,1.072,0,0,0,.85-.62C422.289,102.539,420.7,98.589,419.589,96.279Z" fill="#fff"/>
    <path id="Path_59" data-name="Path 59" d="M442.039,120.409a.438.438,0,0,1-.42-.32,37.867,37.867,0,0,1,2.34-24.69.429.429,0,1,1,.76.4,37,37,0,0,0-2.27,24.08.437.437,0,0,1-.31.53Z" fill="#fff"/>
    <path id="Path_60" data-name="Path 60" d="M452.6,47.33a42.187,42.187,0,0,0-5.39,14.64c-1.09,6.74-1.62,13.78-1.62,13.78l12.8.36-1.57-22.17Z" fill="#5e1dbb"/>
    <path id="Path_61" data-name="Path 61" d="M471.38,49.34s4.63-1.18,5.82,11.24,1.21,13.77,1.21,13.77l-11.53,1.01.26-22.23Z" fill="#5e1dbb"/>
    <path id="Path_62" data-name="Path 62" d="M468.219,69.74l.64,9.82s-1.59,2.94-7.3,3.78c-4.26.63-5.83-.24-5.83-.24l.27-5.01.27-4.89,10.23-2.96Z" fill="#fd8753"/>
    <path id="Path_63" data-name="Path 63" d="M466.51,70.24a3.539,3.539,0,0,1-.22.97c-1.88,5.05-7.82,6.5-10.28,6.88l.27-4.89Z"/>
    <path id="Path_64" data-name="Path 64" d="M452.629,50.959s-4.35,12.65-1.87,19.36,8.65,5.12,12.28,3.49a12.4,12.4,0,0,0,5.19-4.07,5.3,5.3,0,0,0,5.67-2.54c2.08-3.44.33-7.06-1.73-7.75s-4.32.94-4.32.94l1.57-3.7C469.409,56.689,460.119,39.279,452.629,50.959Z" fill="#fd8753"/>
    <path id="Path_65" data-name="Path 65" d="M455.349,66.159a.431.431,0,0,1-.4-.27c-1.04-2.56.57-5.39.64-5.51a.432.432,0,0,1,.75.43c-.01.03-1.47,2.59-.59,4.75a.431.431,0,0,1-.24.56A.317.317,0,0,1,455.349,66.159Z"/>
    <path id="Path_66" data-name="Path 66" d="M468.83,66.139a.419.419,0,0,1-.28-.1.449.449,0,0,1-.07-.64l3.01-3.81a.455.455,0,0,1,.71.57l-3.01,3.81A.491.491,0,0,1,468.83,66.139Z"/>
    <path id="Path_67" data-name="Path 67" d="M472.26,64.889c-.03,0-2.35-.15-2.35-.15a.449.449,0,0,1-.42-.48.432.432,0,0,1,.48-.42l2.33.15a.449.449,0,0,1,.42.48A.473.473,0,0,1,472.26,64.889Z"/>
    <path id="Path_68" data-name="Path 68" d="M461.65,56.889a.452.452,0,0,1-.37-.2c-.63-1-2.06-.58-2.12-.56a.435.435,0,0,1-.26-.83c.09-.03,2.12-.64,3.1.93a.436.436,0,0,1-.13.6A.4.4,0,0,1,461.65,56.889Z"/>
    <path id="Path_69" data-name="Path 69" d="M451.909,56.9a.465.465,0,0,1-.23-.06.436.436,0,0,1-.14-.59,2.441,2.441,0,0,1,3.38-.72.429.429,0,0,1-.4.76,1.584,1.584,0,0,0-2.24.41A.452.452,0,0,1,451.909,56.9Z"/>
    <path id="Path_70" data-name="Path 70" d="M459.94,61.389a.437.437,0,0,1-.43-.45l.08-2.15-.7-.91a.435.435,0,1,1,.69-.53l.79,1.04a.468.468,0,0,1,.09.28l-.09,2.3A.431.431,0,0,1,459.94,61.389Z"/>
    <path id="Path_71" data-name="Path 71" d="M452.82,61.489a.433.433,0,0,1-.43-.46l.12-2.12-.84-.93a.432.432,0,1,1,.64-.58l.96,1.06a.42.42,0,0,1,.11.32l-.13,2.3A.429.429,0,0,1,452.82,61.489Z"/>
    <path id="Path_72" data-name="Path 72" d="M450.41,53.979a62.675,62.675,0,0,1,6.29-.55l2.36-.01.95-3.07.3,3.44a12.317,12.317,0,0,1,3.27,1.45,16.98,16.98,0,0,1,1.93,2.53L466.64,56l-.14,7.17s.91-3.38,3.23-3.54a6.952,6.952,0,0,1,3.09.22s1.37-6.99.86-8.87a2.1,2.1,0,0,0-2.3-1.63s-2.47-6.33-11.84-5.51S450.41,53.979,450.41,53.979Z" fill="#5e1dbb"/>
    <path id="Path_73" data-name="Path 73" d="M457.67,69.929a3.284,3.284,0,0,1-1.95-.89.425.425,0,0,1-.13-.4.429.429,0,0,1,.26-.32l3.25-1.29a.419.419,0,0,1,.43.07.432.432,0,0,1,.15.41c-.23,1.3-.74,2.09-1.49,2.34A1.567,1.567,0,0,1,457.67,69.929Zm-.76-1.1a1.043,1.043,0,0,0,1.71-.69Z"/>
    <path id="Path_74" data-name="Path 74" d="M455.94,78.23a3.078,3.078,0,0,0-1.48,2.84c0,.68-.34,4.32,5.42,5.21,6.62,1.02,10.73-4.36,11.03-5.72s-1.9-4.3-2.09-4.49-.36,1.44-.36,1.44S459.36,84.03,455.94,78.23Z" fill="#07cbf5"/>
    <path id="Path_75" data-name="Path 75" d="M459.109,83.979a11.447,11.447,0,0,0-4.98,6.57,95.791,95.791,0,0,0-2.22,12.4s4.81-2.73,7.31-6.7,1.65-12.43,1.65-12.43Z" fill="#07cbf5"/>
    <path id="Path_76" data-name="Path 76" d="M462.25,83.979a11.447,11.447,0,0,1,4.98,6.57,95.791,95.791,0,0,1,2.22,12.4s-4.81-2.73-7.31-6.7-1.65-12.43-1.65-12.43Z" fill="#07cbf5"/>
    <path id="Path_77" data-name="Path 77" d="M460.74,86.609a5.551,5.551,0,0,1-2.98-.67.422.422,0,0,1-.11-.6.433.433,0,0,1,.6-.12c.04.03,1.92,1.19,5.9-.05a.43.43,0,1,1,.26.82A12.378,12.378,0,0,1,460.74,86.609Z" fill="#fff"/>
    <path id="Path_78" data-name="Path 78" d="M464.1,92.889a1.639,1.639,0,0,1-1.1-.43c-1.54-1.38-1.5-5.79-1.48-6.29a.43.43,0,0,1,.29-.4.443.443,0,0,1,.48.14c.62.76,3.67,4.66,3.04,6.26a1.132,1.132,0,0,1-.99.71C464.26,92.879,464.18,92.889,464.1,92.889Zm-1.69-5.4c.09,1.53.38,3.62,1.17,4.32a.745.745,0,0,0,.64.2c.25-.03.28-.13.3-.17C464.79,91.159,463.61,89.149,462.41,87.489Z" fill="#fff"/>
    <path id="Path_79" data-name="Path 79" d="M286.869,227.62h-11.29v77.02h11.29Z" fill="#6c29d6"/>
    <path id="Path_80" data-name="Path 80" d="M305.02,309.249H257.64a3.55,3.55,0,1,1,0-7.1h47.38a3.55,3.55,0,1,1,0,7.1Z" fill="#6c29d6"/>
    <path id="Path_81" data-name="Path 81" d="M261.566,320.272a7.63,7.63,0,1,0-10.785-.354A7.631,7.631,0,0,0,261.566,320.272Z" fill="#6c29d6"/>
    <path id="Path_82" data-name="Path 82" d="M288.736,315.93a7.63,7.63,0,1,0-8.751,6.313A7.629,7.629,0,0,0,288.736,315.93Z" fill="#6c29d6"/>
    <path id="Path_83" data-name="Path 83" d="M311.389,320.087a7.63,7.63,0,1,0-10.791,0A7.632,7.632,0,0,0,311.389,320.087Z" fill="#6c29d6"/>
    <path id="Path_84" data-name="Path 84" d="M254.55,150.27s-30.19,10.77-24.52,50.23c5.2,36.25,42.11,47.81,73.34,39.28s26.02-33.13,26.02-33.13Z" fill="#352f75"/>
    <path id="Path_85" data-name="Path 85" d="M256.559,211.229c-.5,3.98,9.44,8.51,22.2,10.1s23.51-.34,24.01-4.32-9.44-8.51-22.2-10.1S257.059,207.249,256.559,211.229Z" fill="#2e2865"/>
    <path id="Path_86" data-name="Path 86" d="M243.88,220.43a.436.436,0,0,1-.29-.11c-7.97-7.37-9.45-21.29-9.51-21.88a.429.429,0,0,1,.39-.47.422.422,0,0,1,.47.39c.01.14,1.51,14.18,9.23,21.33a.42.42,0,0,1,.02.61A.387.387,0,0,1,243.88,220.43Z" fill="#3e3789"/>
    <path id="Path_87" data-name="Path 87" d="M325.769,109.79s1.33-5.92,4.49-8.61,6.9-4.43,6.25-2.03a38.129,38.129,0,0,1-2.84,6.32l5.73-1.53a49.063,49.063,0,0,1,6.46-2.46c2.72-.72,3.57,1.27,3.57,1.27s2.72-.72,3.9.07.34,2.5.34,2.5,3.9.07,2.43,3.06-9.18,8.01-12.92,9.74-12.16,2.87-12.16,2.87S323.449,122.65,325.769,109.79Z" fill="#fd8753"/>
    <path id="Path_88" data-name="Path 88" d="M346.74,111.189a.455.455,0,0,1-.2-.05l-9.95-5.33a.429.429,0,0,1,.4-.76l9.95,5.33a.43.43,0,0,1-.2.81Z"/>
    <path id="Path_89" data-name="Path 89" d="M327.379,114.409a.432.432,0,0,1-.11-.85c2.98-.77,4.89-2.01,5.68-3.67a4.366,4.366,0,0,0,.09-3.39.432.432,0,0,1,.21-.57.424.424,0,0,1,.57.21,5.136,5.136,0,0,1-.08,4.11c-.9,1.91-3,3.31-6.25,4.15C327.459,114.4,327.419,114.409,327.379,114.409Z"/>
    <path id="Path_90" data-name="Path 90" d="M325.52,116.51l14.45-.27s-.26,42.55-16.67,50.25c-12.97,6.09-21.33-12.68-21.33-12.68Z" fill="#fd8753"/>
    <path id="Path_91" data-name="Path 91" d="M390.589,235.769a.444.444,0,0,1-.39-.24c-.26-.51-6.32-12.64-4.79-16.4a1.85,1.85,0,0,1,1.14-1.13,1.872,1.872,0,0,1,1.65.2c1.63.99,2.9,4.53,3.77,7.89.03-2.69.42-5.35,1.72-6.39a2.375,2.375,0,0,1,2.49-.25,3.347,3.347,0,0,1,2.2,2.3c.92,3.52-3.59,9.07-3.79,9.3a.433.433,0,1,1-.67-.55c.04-.05,4.43-5.44,3.62-8.54a2.483,2.483,0,0,0-1.67-1.71,1.546,1.546,0,0,0-1.63.12c-2,1.61-1.38,9.15-.92,12.28.02.16.04.26.04.3a.437.437,0,0,1-.36.49.43.43,0,0,1-.49-.36c-.01-.08-.03-.2-.05-.36-.56-3.67-2.34-12.34-4.7-13.77a1,1,0,0,0-.91-.12,1.036,1.036,0,0,0-.62.64c-1.14,2.83,3.05,12.28,4.76,15.69a.433.433,0,0,1-.19.58A2.113,2.113,0,0,1,390.589,235.769Z" fill="#5e1dbb"/>
    <path id="Path_92" data-name="Path 92" d="M377.46,278.739a1.077,1.077,0,0,0,1.48.17l48.56-40.59a1.045,1.045,0,0,0,.05-1.49L423.41,232l-.06-.06a1.093,1.093,0,0,0-1.39-.19,1.007,1.007,0,0,1-.98.09,1.145,1.145,0,0,1-.47-.36,15.938,15.938,0,0,0-7.76-5.4c-5.15-1.34-18.79,5.13-25.44,7.36-4.33,1.46-9.56-.86-12.7-2.66a4.364,4.364,0,0,0-5.12.35c-5.29,4.83-17.76,16.22-18.36,17.15-.77,1.17,7.99,12.12,12.21,15.64s9.45,7.33,9.45,7.33l-1.4.92Z" fill="#e2209e"/>
    <path id="Path_93" data-name="Path 93" d="M377.459,278.739a1.077,1.077,0,0,0,1.48.17l48.56-40.59a1.045,1.045,0,0,0,.05-1.49l-4.14-4.83-.06-.06a1.093,1.093,0,0,0-1.39-.19,1.007,1.007,0,0,1-.98.09c-13.46,11.61-48.18,39.41-48.18,39.41l-1.4.92Z" fill="#e2209e"/>
    <path id="Path_94" data-name="Path 94" d="M372.78,271.669a.394.394,0,0,1-.33-.16.44.44,0,0,1,.06-.61l48.18-39.41a.433.433,0,0,1,.55.67l-48.18,39.41A.419.419,0,0,1,372.78,271.669Z" fill="#5e1dbb"/>
    <path id="Path_95" data-name="Path 95" d="M340.39,297.539a.375.375,0,0,1-.1-.01.437.437,0,0,1-.33-.52c.13-.56,3.17-13.77,6.75-15.7a1.879,1.879,0,0,1,2.75,1.05c.63,1.81-.64,5.34-2.11,8.49,1.72-2.04,3.71-3.84,5.37-3.84a2.376,2.376,0,0,1,2.1,1.39,3.341,3.341,0,0,1,.23,3.17c-1.53,3.3-8.55,4.71-8.84,4.77a.434.434,0,0,1-.51-.34.439.439,0,0,1,.34-.51c.07-.01,6.89-1.38,8.23-4.28a2.47,2.47,0,0,0-.2-2.38,1.564,1.564,0,0,0-1.33-.95c-2.59,0-6.89,6.19-8.53,8.89-.08.13-.13.22-.15.25a.43.43,0,0,1-.74-.44c.04-.07.1-.17.19-.31,1.9-3.19,6.05-11.01,5.15-13.61a.987.987,0,0,0-.63-.67,1.025,1.025,0,0,0-.89.1c-2.68,1.45-5.47,11.42-6.31,15.13A.462.462,0,0,1,340.39,297.539Z" fill="#5e1dbb"/>
    <path id="Path_96" data-name="Path 96" d="M305.59,323.149a1.084,1.084,0,0,0,1.03,1.07l63.29-.39a1.051,1.051,0,0,0,.99-1.12l-.12-6.36-.01-.08a1.093,1.093,0,0,0-.95-1.03,1.008,1.008,0,0,1-.81-.55,1.185,1.185,0,0,1-.14-.58,15.8,15.8,0,0,0-2.55-9.1c-3.13-4.31-17.76-8.01-24.3-10.52-4.26-1.63-6.83-6.75-8.1-10.13a4.361,4.361,0,0,0-4.17-2.99c-7.15.36-24.02,1.2-25.08,1.54-1.34.41-1.55,14.43-.54,19.83s2.62,11.67,2.62,11.67l-1.66-.18Z" fill="#e2209e"/>
    <path id="Path_97" data-name="Path 97" d="M305.589,323.149a1.084,1.084,0,0,0,1.03,1.07l63.29-.39a1.051,1.051,0,0,0,.99-1.12l-.12-6.36-.01-.08a1.093,1.093,0,0,0-.95-1.03,1.008,1.008,0,0,1-.81-.55c-17.77.38-62.24-.28-62.24-.28l-1.66-.18Z" fill="#e2209e"/>
    <path id="Path_98" data-name="Path 98" d="M369,315.109l-62.25-.28a.433.433,0,0,1-.43-.43.427.427,0,0,1,.43-.43l62.25.28a.43.43,0,0,1,0,.86Z" fill="#5e1dbb"/>
    <path id="Path_99" data-name="Path 99" d="M338.4,239.639v49.42H298.45l-7.44-68.2,31.81-3.56Z" fill="#ffb700"/>
    <path id="Path_100" data-name="Path 100" d="M386.459,230.16s-32.5-38.59-52.13-44.68-80.56-4.06-80.56-4.06-3.67,28.43,12.58,35.88,45.18,6.09,50.49,8.8,37.8,34.53,37.8,34.53Z" fill="#ffb700"/>
    <path id="Path_101" data-name="Path 101" d="M337.2,244.31a.448.448,0,0,1-.32-.14c-.15-.17-15.32-16.57-20.13-17.64-4.91-1.1-25.32-2.9-25.53-2.92a.432.432,0,1,1,.08-.86c.84.07,20.67,1.82,25.64,2.94,5.07,1.14,19.95,17.22,20.58,17.9a.438.438,0,0,1-.02.61A.5.5,0,0,1,337.2,244.31Z" fill="#fff"/>
    <path id="Path_102" data-name="Path 102" d="M316.84,226.529a.586.586,0,0,1-.13-.02.421.421,0,0,1-.3-.43c.05-1.47.38-8.83,2.21-9.78a1.1,1.1,0,0,1,1.18.1c2.59,1.71-1.7,8.57-2.59,9.93A.452.452,0,0,1,316.84,226.529Zm2.27-9.48a.2.2,0,0,0-.09.02c-.86.45-1.43,4.15-1.66,7.36,1.7-2.95,3.14-6.52,1.96-7.3A.425.425,0,0,0,319.11,217.049Z" fill="#fff"/>
    <path id="Path_103" data-name="Path 103" d="M230.329,154.459s7.15-27.02,22.38-37.59,41.67-6.02,48.57-.09c6.54,5.63,11.39,19.38,11.39,19.38l.96,29.29-4.91,15.14-55.18,3.58.1-29.1Z" fill="#5e1dbb"/>
    <path id="Path_104" data-name="Path 104" d="M276.06,145.64a5.465,5.465,0,0,1,4.54-1.99c2.85.18,7.15.51,8.14.97a23.481,23.481,0,0,1,3.36,2.24,4.62,4.62,0,0,1,1.81,3.19l.11,1s11.36,5.89,10.3,8.58c-.72,1.84-6.53-.79-6.53-.79s5.81,3.22,4.8,5.23-8.5-1.16-8.5-1.16,5.77,3.7,2.71,4.61-23.93-4.82-25.02-10.97C271.06,152.53,273.97,148.16,276.06,145.64Z" fill="#fd8753"/>
    <path id="Path_105" data-name="Path 105" d="M292.78,150.349a.465.465,0,0,1-.23-.06l-3.33-2.07a.436.436,0,1,1,.46-.74l3.33,2.07a.436.436,0,0,1,.14.6A.452.452,0,0,1,292.78,150.349Z"/>
    <path id="Path_106" data-name="Path 106" d="M298.81,159.629a.455.455,0,0,1-.2-.05l-8.74-4.69a.429.429,0,0,1,.4-.76l8.74,4.69a.43.43,0,0,1-.2.81Z"/>
    <path id="Path_107" data-name="Path 107" d="M295.12,164.029a.537.537,0,0,1-.21-.05l-7.84-4.26a.434.434,0,1,1,.42-.76l7.84,4.26a.429.429,0,0,1,.17.59A.463.463,0,0,1,295.12,164.029Z"/>
    <path id="Path_108" data-name="Path 108" d="M232.04,154.5s-4.82,18.32,11.97,20.81,31.9-14.28,31.9-14.28l2.09-16.89-33.21,10.69Z" fill="#fd8753"/>
    <path id="Path_109" data-name="Path 109" d="M260.039,149.269a.427.427,0,0,1-.43-.43v-5.2a.43.43,0,1,1,.86,0v5.2A.427.427,0,0,1,260.039,149.269Z" fill="#e2209e"/>
    <path id="Path_110" data-name="Path 110" d="M286.39,80.679s4.3,4.87,1.94,10.24-4.9-9.75-4.9-9.75Z" fill="#fff"/>
    <path id="Path_111" data-name="Path 111" d="M271.92,102.559l-.16,9.66s1.69,2.81,7.34,3.36c4.2.41,5.7-.51,5.7-.51l-.5-4.9-.5-4.78-10.16-2.42Z" fill="#fd8753"/>
    <path id="Path_112" data-name="Path 112" d="M273.619,102.969c.02.26-1.55,1.09-1.4,1.45,2.08,4.86,9.82,7.3,12.25,7.56l-.68-6.6Z"/>
    <path id="Path_113" data-name="Path 113" d="M284.559,81.17a9.073,9.073,0,0,1,2.8,4.18c1.26,3.73,3.81,12.43,2.14,17.76-2.17,6.93-8.42,5.64-12.14,4.17a12.374,12.374,0,0,1-5.38-3.86,5.244,5.244,0,0,1-5.79-2.29c-2.24-3.39-.66-7.14,1.37-7.951s4.37.73,4.37.73l-1.75-3.68C270.179,90.24,277.219,75.189,284.559,81.17Z" fill="#fd8753"/>
    <path id="Path_114" data-name="Path 114" d="M271.41,98.629a.432.432,0,0,1-.26-.09l-3.53-2.63a.429.429,0,0,1,.51-.69l3.53,2.63a.43.43,0,0,1,.09.6A.381.381,0,0,1,271.41,98.629Z"/>
    <path id="Path_115" data-name="Path 115" d="M267.45,98.509a.431.431,0,0,1-.1-.85l2.88-.69a.432.432,0,0,1,.2.84l-2.88.69A.34.34,0,0,1,267.45,98.509Z"/>
    <path id="Path_116" data-name="Path 116" d="M287.7,92.45a.436.436,0,0,1-.42-.33l-.57-2.23a.434.434,0,1,1,.84-.22l.57,2.23a.437.437,0,0,1-.31.53A.425.425,0,0,1,287.7,92.45Z"/>
    <path id="Path_117" data-name="Path 117" d="M280.5,93.179a.436.436,0,0,1-.42-.33l-.57-2.22a.437.437,0,0,1,.31-.53.445.445,0,0,1,.53.31l.57,2.22a.437.437,0,0,1-.31.53A.425.425,0,0,1,280.5,93.179Z"/>
    <path id="Path_118" data-name="Path 118" d="M287.75,87.59c-.05,0-1.88-.2-1.88-.2a.429.429,0,0,1-.38-.48.442.442,0,0,1,.48-.38l1.83.2a.431.431,0,0,1-.05.86Z"/>
    <path id="Path_119" data-name="Path 119" d="M278.72,89.1a.429.429,0,0,1-.41-.29.436.436,0,0,1,.27-.55l2.58-.86a.433.433,0,1,1,.28.82l-2.58.86A.783.783,0,0,1,278.72,89.1Z"/>
    <path id="Path_120" data-name="Path 120" d="M271.929,93.909s1,4.02,1.77,3.53,1.49-6.28.92-8.88-.99-3.9-.99-3.9,10.55-.94,13.33-3.44-3.09-4.12-9.1-2.99-8.38,3.39-8.38,3.39-3.76-.56-5.17,1.74,1.8,11.02,1.8,11.02S267.049,92.189,271.929,93.909Z" fill="#fff"/>
    <path id="Path_121" data-name="Path 121" d="M292.05,98.059s-2.95-3.26-4.45-2.77a5.746,5.746,0,0,0-2.55,2.11,2.932,2.932,0,0,0-3.24-1.19c-1.96.69-6.17.95-6.22,1.63s1.17.92,1.17.92S286.68,99.9,292.05,98.059Z" fill="#fff"/>
    <path id="Path_122" data-name="Path 122" d="M271.93,93.909s.18,6.52.05,9.5,8.18,7.65,13.92,5.07,4.16-10.09,4.16-10.09l-5.11.47a9.665,9.665,0,0,0-2.52-.94,6.515,6.515,0,0,0-3.12.45Z" fill="#fff"/>
    <path id="Path_123" data-name="Path 123" d="M283.45,101.55a1.087,1.087,0,0,1-.18-.01c-.83-.11-1.46-.92-1.93-2.49a.435.435,0,0,1,.11-.43.424.424,0,0,1,.43-.11l3.35.95a.407.407,0,0,1,.28.26.4.4,0,0,1-.04.38C285.37,100.26,284.54,101.55,283.45,101.55Zm-1.01-1.98c.38.89.74,1.08.94,1.11.32.04.7-.25.99-.56Z"/>
    <path id="Path_124" data-name="Path 124" d="M284.9,96.509a.32.32,0,0,1-.19-.05.433.433,0,0,1-.19-.58c1.21-2.41-.63-5.09-.65-5.12a.431.431,0,0,1,.71-.49c.09.13,2.15,3.14.71,6A.444.444,0,0,1,284.9,96.509Z"/>
    <path id="Path_125" data-name="Path 125" d="M281.73,116.039c-3.41,0-7.75-.8-10.65-4.24a.433.433,0,0,1,.66-.56c4.95,5.87,14.88,3.38,14.98,3.36a.434.434,0,0,1,.22.84A22.5,22.5,0,0,1,281.73,116.039Z" fill="#e2209e"/>
    <path id="Path_126" data-name="Path 126" d="M365.4,149.469H354.04a2.078,2.078,0,0,1-2.08-2.08v-6.7a2.078,2.078,0,0,1,2.08-2.08H365.4a2.078,2.078,0,0,1,2.08,2.08v6.7A2.072,2.072,0,0,1,365.4,149.469Z" fill="#9364ed"/>
    <path id="Path_127" data-name="Path 127" d="M365.41,160.349H354.05a2.078,2.078,0,0,1-2.08-2.08v-6.7a2.078,2.078,0,0,1,2.08-2.08h11.36a2.078,2.078,0,0,1,2.08,2.08v6.7A2.085,2.085,0,0,1,365.41,160.349Z" fill="#9364ed"/>
    <path id="Path_128" data-name="Path 128" d="M365.41,171.219H354.05a2.078,2.078,0,0,1-2.08-2.08v-6.7a2.078,2.078,0,0,1,2.08-2.08h11.36a2.078,2.078,0,0,1,2.08,2.08v6.7A2.078,2.078,0,0,1,365.41,171.219Z" fill="#9364ed"/>
    <path id="Path_129" data-name="Path 129" d="M365.4,182.089H354.04a2.078,2.078,0,0,1-2.08-2.08v-6.7a2.078,2.078,0,0,1,2.08-2.08H365.4a2.078,2.078,0,0,1,2.08,2.08v6.7A2.072,2.072,0,0,1,365.4,182.089Z" fill="#9364ed"/>
    <path id="Path_130" data-name="Path 130" d="M363.37,134.8h-7.28v4.62h7.28Z" fill="#9364ed"/>
    <path id="Path_131" data-name="Path 131" d="M355.41,155.739a.427.427,0,0,1-.43-.43v-14.6a.43.43,0,1,1,.86,0v14.6A.427.427,0,0,1,355.41,155.739Z" fill="#fff"/>
    <path id="Path_132" data-name="Path 132" d="M363.26,136.159h-7.07a.849.849,0,0,1-.85-.85v-3.47a.849.849,0,0,1,.85-.85h7.07a.849.849,0,0,1,.85.85v3.47A.849.849,0,0,1,363.26,136.159Z" fill="#fff"/>
    <path id="Path_133" data-name="Path 133" d="M515.13,141.249l-.68-1.91s-8.62-4.36-13.63-5.39c-2.1-.44-4.72.74-1.93,2.9a11.2,11.2,0,0,1,2.44,2.71,30.555,30.555,0,0,1-6.83-1.71c-1.84-.78-5.05-4.71-6.28-3.5-1.96,1.92,1.4,5.71,1.4,5.71s-2.16-5.19-3.98-2.67,6.16,12.01,9.5,14.02,18.98,2.16,18.98,2.16Z" fill="#fd8753"/>
    <path id="Path_134" data-name="Path 134" d="M498.2,142.529a14.6,14.6,0,0,1-6.89-2.23.434.434,0,1,1,.47-.73c.04.02,3.7,2.34,7,2.06a.432.432,0,1,1,.08.86A4.872,4.872,0,0,1,498.2,142.529Z"/>
    <path id="Path_135" data-name="Path 135" d="M495.36,145.679a.406.406,0,0,1-.19-.04l-3.6-1.78a.433.433,0,0,1-.19-.58.443.443,0,0,1,.58-.2l3.33,1.65,5.66-5.05a.432.432,0,0,1,.58.64l-5.88,5.24A.393.393,0,0,1,495.36,145.679Z"/>
    <path id="Path_136" data-name="Path 136" d="M596.38,95.889s10.2,1.67,13.909,14.47,1.521,29.35,1.521,29.35l-18.831-5.65.82-22.73Z" fill="#fff"/>
    <path id="Path_137" data-name="Path 137" d="M586.364,305.383h11.29v-77.02h-11.29Z" fill="#6c29d6"/>
    <path id="Path_138" data-name="Path 138" d="M568.22,310H615.6a3.55,3.55,0,1,0,0-7.1H568.22a3.55,3.55,0,0,0,0,7.1Z" fill="#6c29d6"/>
    <path id="Path_139" data-name="Path 139" d="M616.891,323.07a7.63,7.63,0,1,0-7.63-7.63A7.63,7.63,0,0,0,616.891,323.07Z" fill="#6c29d6"/>
    <path id="Path_140" data-name="Path 140" d="M592.01,323.07a7.63,7.63,0,1,0-7.63-7.63A7.63,7.63,0,0,0,592.01,323.07Z" fill="#6c29d6"/>
    <path id="Path_141" data-name="Path 141" d="M567.231,323.07a7.63,7.63,0,1,0-7.63-7.63A7.63,7.63,0,0,0,567.231,323.07Z" fill="#6c29d6"/>
    <path id="Path_142" data-name="Path 142" d="M618.68,151.02s30.19,10.77,24.52,50.23c-5.2,36.25-42.11,47.81-73.34,39.28s-26.02-33.13-26.02-33.13Z" fill="#352f75"/>
    <path id="Path_143" data-name="Path 143" d="M616.67,211.979c.5,3.98-9.44,8.51-22.2,10.1s-23.51-.34-24.01-4.32,9.44-8.51,22.2-10.1S616.18,208,616.67,211.979Z" fill="#2e2865"/>
    <path id="Path_144" data-name="Path 144" d="M629.35,221.179a.448.448,0,0,1-.32-.14.438.438,0,0,1,.02-.61c7.73-7.15,9.22-21.19,9.23-21.33a.428.428,0,0,1,.47-.39.435.435,0,0,1,.39.47c-.06.59-1.54,14.51-9.51,21.88A.363.363,0,0,1,629.35,221.179Z" fill="#3e3789"/>
    <path id="Path_145" data-name="Path 145" d="M528.69,243.209l5.42,60.2,9.26.49,11.75-2.31,2.92-62.03Z" fill="#f26f41"/>
    <path id="Path_146" data-name="Path 146" d="M575.43,303.009s-32.26-55.01-22.95-70.32,33.12,11.82,33.12,11.82l10.03,52.39-11.3,7.45Z" fill="#fd8753"/>
    <path id="Path_147" data-name="Path 147" d="M561.18,183.219s-30.84,20.55-35.66,27.37-.28,38.71-.28,38.71l31.39,1.79,3.43-9.43,28.11-56.37Z" fill="#9364ed"/>
    <path id="Path_148" data-name="Path 148" d="M607.98,183.619s3.12,20.91,2.63,25.86-11.89,14.38-11.89,14.38l-4.11,26.32-41.38.88s-1.89-30.63-1.3-35.82,30.83-29.47,30.83-29.47Z" fill="#9364ed"/>
    <path id="Path_149" data-name="Path 149" d="M598.72,224.279a.538.538,0,0,1-.21-.05l-2.56-1.41a.44.44,0,0,1-.17-.59.431.431,0,0,1,.59-.17l2.56,1.41a.431.431,0,0,1-.21.81Z" fill="#fff"/>
    <path id="Path_150" data-name="Path 150" d="M554.64,316.939a3.394,3.394,0,0,0,3.03-3.55c-.17-7.37.35-23.9-.99-23.87-1.71.04-18.82,5.14-18.82,5.14s-.73-10.2-7.79-8.2c-5.42,1.53-11.58,8.17-14.16,11.18a6.179,6.179,0,0,1-3.04,1.95c-5.05,1.39-18.92,5.88-18.94,13.38-.03,9.17,3.62,8.03,5.33,7.99C500.74,320.919,542.76,317.819,554.64,316.939Z" fill="#e5e1f4"/>
    <path id="Path_151" data-name="Path 151" d="M529.68,297.769a.435.435,0,0,1-.15-.84l8.15-3.16a.436.436,0,0,1,.56.25.428.428,0,0,1-.25.56l-8.15,3.16A.5.5,0,0,1,529.68,297.769Z" fill="#5e1dbb"/>
    <path id="Path_152" data-name="Path 152" d="M601.84,308.389a3.394,3.394,0,0,0,1.39-4.46c-3.05-6.71-9.06-22.12-10.29-21.56-1.56.71-15.29,12.12-15.29,12.12s-4.67-9.09-10.38-4.48c-4.38,3.54-7.44,12.06-8.63,15.84a6.192,6.192,0,0,1-2.03,2.99c-4.1,3.26-15.09,12.84-12.17,19.74,3.57,8.44,6.48,5.97,8.04,5.26C553.84,333.219,591.27,313.859,601.84,308.389Z" fill="#fff"/>
    <path id="Path_153" data-name="Path 153" d="M571.19,300.589a.43.43,0,0,1-.3-.74l6.25-6.11a.431.431,0,1,1,.6.62l-6.25,6.11A.423.423,0,0,1,571.19,300.589Z" fill="#5e1dbb"/>
    <path id="Path_154" data-name="Path 154" d="M564.19,124.3a23.757,23.757,0,0,1,11.4-3.47c6.53-.2,3.13,17.8,3.13,17.8H559.6Z" fill="#e2209e"/>
    <path id="Path_155" data-name="Path 155" d="M514.3,137.339l-3.65,20.57s7.39,10.53,25.98,12.91c15.12,1.93,30.59-8.74,30.59-8.74l-3.05-37.77s-15.22,11.69-25.29,14.86C528.69,142.359,514.3,137.339,514.3,137.339Z" fill="#e2209e"/>
    <path id="Path_156" data-name="Path 156" d="M584.87,120.829a29.68,29.68,0,0,1,14.07,3.27c8.51,4.56,10.1,61.77,9.5,62.5s-12.28,2.62-30.53,1.69-17.64-2.89-18.64-3.44c-.56-.31-2.55-21.31,1.88-38.78a103.01,103.01,0,0,1,9.83-24.24S571.71,128.4,584.87,120.829Z" fill="#e2209e"/>
    <path id="Path_157" data-name="Path 157" d="M558.34,162.519a.421.421,0,0,1-.42-.36c-.02-.13-2.12-12.64,3.68-23.51a.429.429,0,1,1,.76.4c-5.67,10.61-3.62,22.83-3.59,22.95a.438.438,0,0,1-.35.5A.134.134,0,0,1,558.34,162.519Z" fill="#5e1dbb"/>
    <path id="Path_158" data-name="Path 158" d="M568.68,166.529s-13.79-5.46-15.18-5.46-12.62,5.14-13.73,6.29,3.15,2.01,4.75,1.88,3.51-.46,3.51-.46-6.37,6.02-5.94,7.65,3.07,1.02,3.07,1.02-2.1,2.35.1,3.04,9.99-3.58,9.99-3.58,7.06,5.08,12.66,2.58,7.17-4.77,7.17-4.77Z" fill="#fd8753"/>
    <path id="Path_159" data-name="Path 159" d="M560.21,164.809s-4.91-9.12-1.63-7.87,10.09,9.6,10.09,9.6l-4.07,1.93Z" fill="#fd8753"/>
    <path id="Path_160" data-name="Path 160" d="M548.03,169.219a.436.436,0,0,1-.34-.17.44.44,0,0,1,.07-.61l3.39-2.65a.434.434,0,1,1,.54.68l-3.39,2.65A.394.394,0,0,1,548.03,169.219Z"/>
    <path id="Path_161" data-name="Path 161" d="M545.82,177.559a.43.43,0,0,1-.28-.76l7.84-6.66a.431.431,0,0,1,.61.05.44.44,0,0,1-.05.61l-7.84,6.66A.419.419,0,0,1,545.82,177.559Z"/>
    <path id="Path_162" data-name="Path 162" d="M565.78,166.559a.433.433,0,0,1-.19-.04l-6.51-3.19a.44.44,0,0,1-.2-.58.446.446,0,0,1,.58-.2l6.51,3.19a.431.431,0,0,1-.19.82Z"/>
    <path id="Path_163" data-name="Path 163" d="M592.39,121.77s24.16,4.11,31.52,28.05-12.51,31.53-33.35,32.16-23.2-1.42-23.2-1.42l1.7-18.71,15.11-4.98Z" fill="#e2209e"/>
    <path id="Path_164" data-name="Path 164" d="M582.6,157.859a.431.431,0,0,1-.4-.28.436.436,0,0,1,.25-.56,91.263,91.263,0,0,1,22.92-4.83.428.428,0,0,1,.46.4.422.422,0,0,1-.4.46,89.846,89.846,0,0,0-22.67,4.77A.343.343,0,0,1,582.6,157.859Z" fill="#5e1dbb"/>
    <path id="Path_165" data-name="Path 165" d="M599.63,153.709a.427.427,0,0,1-.33-.15.421.421,0,0,1-.03-.52c.37-.55,3.7-5.42,6.05-5.82a1.543,1.543,0,0,1,1.23.27,1.094,1.094,0,0,1,.47,1c-.21,1.9-6.04,4.65-7.21,5.18A.584.584,0,0,1,599.63,153.709Zm6.01-5.66a1.116,1.116,0,0,0-.17.02c-1.27.21-3.2,2.4-4.48,4.07,2.45-1.25,5.08-2.89,5.18-3.74,0-.05.01-.12-.13-.22A.639.639,0,0,0,605.64,148.049Z" fill="#5e1dbb"/>
    <path id="Path_166" data-name="Path 166" d="M587.68,114.389s5.81.26,9.16-7.86a16.268,16.268,0,0,0-.84-14.47l-7.3,3.82-3.971,14.5Z" fill="#fff"/>
    <path id="Path_167" data-name="Path 167" d="M587.47,110.879l.81,9.56s-1.49,2.89-7.04,3.82c-4.14.69-5.68-.13-5.68-.13l.17-4.89.17-4.77,9.91-3.08Z" fill="#fd8753"/>
    <path id="Path_168" data-name="Path 168" d="M585.81,111.4a3.3,3.3,0,0,1-.2.95c-1.73,4.95-7.49,6.48-9.88,6.9l.171-4.77Z"/>
    <path id="Path_169" data-name="Path 169" d="M571.93,92.869s-4,12.41-1.46,18.9,8.52,4.83,12.03,3.17a12.173,12.173,0,0,0,4.98-4.06,5.154,5.154,0,0,0,5.47-2.58c1.96-3.39.19-6.88-1.83-7.52s-4.19,1-4.19,1l1.46-3.64C588.38,98.139,579.01,81.349,571.93,92.869Z" fill="#fd8753"/>
    <path id="Path_170" data-name="Path 170" d="M587.68,106.989a.445.445,0,0,1-.35-.16.47.47,0,0,1,.05-.65l4.04-3.46a.461.461,0,0,1,.65.05.47.47,0,0,1-.05.65l-4.04,3.46A.5.5,0,0,1,587.68,106.989Z"/>
    <path id="Path_171" data-name="Path 171" d="M591.6,106.6a.22.22,0,0,1-.08-.01l-2.9-.49a.463.463,0,0,1-.38-.53.474.474,0,0,1,.53-.38l2.9.49a.463.463,0,0,1-.07.92Z"/>
    <path id="Path_172" data-name="Path 172" d="M580.32,97.309a.464.464,0,0,1-.34-.15,2.11,2.11,0,0,0-2.76-.52.462.462,0,0,1-.51-.77,3.039,3.039,0,0,1,3.94.67.459.459,0,0,1-.03.65A.392.392,0,0,1,580.32,97.309Z"/>
    <path id="Path_173" data-name="Path 173" d="M571.02,97.619a.431.431,0,0,1-.3-.74c1.31-1.28,2.311-.96,2.421-.92a.429.429,0,0,1,.25.56.436.436,0,0,1-.54.26c-.04-.01-.63-.16-1.52.72A.465.465,0,0,1,571.02,97.619Z"/>
    <path id="Path_174" data-name="Path 174" d="M573.57,107.209a.427.427,0,0,1-.42-.33c-.97-4.11,1.43-6.1,1.53-6.18a.432.432,0,0,1,.61.07.439.439,0,0,1-.06.61c-.09.07-2.08,1.75-1.24,5.31a.441.441,0,0,1-.32.52A.335.335,0,0,0,573.57,107.209Z"/>
    <path id="Path_175" data-name="Path 175" d="M571.82,102.149a.22.22,0,0,1-.08-.01.438.438,0,0,1-.35-.5l.38-2.05-.61-.76a.434.434,0,0,1,.68-.54l.73.92a.446.446,0,0,1,.09.35l-.41,2.24A.446.446,0,0,1,571.82,102.149Z"/>
    <path id="Path_176" data-name="Path 176" d="M578.71,102.259a.22.22,0,0,1-.08-.01.438.438,0,0,1-.35-.5l.37-2.03-.8-.86a.432.432,0,0,1,.63-.59l.94,1.02a.457.457,0,0,1,.11.37l-.41,2.24A.4.4,0,0,1,578.71,102.259Z"/>
    <path id="Path_177" data-name="Path 177" d="M586.92,101.779l-1.11,1.29.56-1.86a12.677,12.677,0,0,1-6.04-2.18c-3.42-2.16-4.24-7.42-4.24-7.42a18.13,18.13,0,0,0-3.11,1.96,5.447,5.447,0,0,0-1.97,2.61s-4.29-11.89,4.71-13.44,15.39,6.09,15.39,6.09,5.15.72,5.67,5.76-3.01,8.97-3.01,8.97A4.892,4.892,0,0,0,586.92,101.779Z" fill="#fff"/>
    <path id="Path_178" data-name="Path 178" d="M575.56,124.129l-.54,4.3s11.87-4.97,12.66-7.2-11.59,1.25-11.59,1.25Z" fill="#fd8753"/>
    <path id="Path_179" data-name="Path 179" d="M575.02,128.859a.407.407,0,0,1-.24-.08.424.424,0,0,1-.19-.38l.46-7.73a.419.419,0,0,1,.46-.41.436.436,0,0,1,.41.46l-.42,7c2.43-1.15,10.9-5.27,12.43-7.54a.433.433,0,1,1,.72.48c-1.92,2.84-12.97,7.93-13.44,8.14A.3.3,0,0,1,575.02,128.859Z" fill="#5e1dbb"/>
    <path id="Path_180" data-name="Path 180" d="M575.7,111.329c-1.12,0-2-1.38-2.1-1.55a.446.446,0,0,1-.03-.39.459.459,0,0,1,.3-.26l3.19-.75a.468.468,0,0,1,.39.1.428.428,0,0,1,.14.38c-.03.22-.33,2.13-1.58,2.43A1.148,1.148,0,0,1,575.7,111.329Zm-.99-1.5c.32.36.76.71,1.1.63s.61-.59.76-1.07Z"/>
    <path id="Path_181" data-name="Path 181" d="M510.02,145.669c-5.78,0-7.61-5.37-7.63-5.43a.43.43,0,1,1,.82-.26,7.244,7.244,0,0,0,8.35,4.7.445.445,0,0,1,.5.36.432.432,0,0,1-.36.5A11.128,11.128,0,0,1,510.02,145.669Z"/>
    <path id="Path_182" data-name="Path 182" d="M537.43,147.569a1.178,1.178,0,0,1-.59-.17c-1.61-.96-1.9-6.37-1.95-7.44a.424.424,0,0,1,.28-.42.433.433,0,0,1,.49.14c.37.48,3.58,4.72,3.1,6.77a1.42,1.42,0,0,1-.77.98A1.322,1.322,0,0,1,537.43,147.569Zm-1.58-6.14c.21,2.26.7,4.8,1.43,5.23a.3.3,0,0,0,.34-.01.506.506,0,0,0,.3-.4C538.15,145.269,536.99,143.109,535.85,141.429Z" fill="#5e1dbb"/>
    <path id="Path_183" data-name="Path 183" d="M538.891,178.059h-49.36l-14.1-31.89h47.42a2.992,2.992,0,0,1,2.73,1.78Z" fill="#fff"/>
    <path id="Path_184" data-name="Path 184" d="M534.611,178.059h-49.36l-12.58-28.46a2.445,2.445,0,0,1,2.23-3.43h45.61Z" fill="#5e1dbb"/>
    <path id="Path_185" data-name="Path 185" d="M555.44,182.089H485.75a2.01,2.01,0,1,1,0-4.02h69.69a2.01,2.01,0,1,1,0,4.02Z" fill="#262060"/>
    <path id="Path_186" data-name="Path 186" d="M507.721,162.119a4.19,4.19,0,1,1-4.19-4.19A4.189,4.189,0,0,1,507.721,162.119Z" fill="#fff"/>
    <path id="Path_187" data-name="Path 187" d="M710.157,303.928h11.29v-77.02h-11.29Z" fill="#6c29d6"/>
    <path id="Path_188" data-name="Path 188" d="M692.01,308.539h47.38a3.55,3.55,0,0,0,0-7.1H692.01a3.55,3.55,0,0,0,0,7.1Z" fill="#6c29d6"/>
    <path id="Path_189" data-name="Path 189" d="M740.68,321.61a7.63,7.63,0,1,0-7.63-7.63A7.63,7.63,0,0,0,740.68,321.61Z" fill="#6c29d6"/>
    <path id="Path_190" data-name="Path 190" d="M715.8,321.61a7.63,7.63,0,1,0-7.63-7.63A7.63,7.63,0,0,0,715.8,321.61Z" fill="#6c29d6"/>
    <path id="Path_191" data-name="Path 191" d="M691.03,321.61a7.63,7.63,0,1,0-7.63-7.63A7.63,7.63,0,0,0,691.03,321.61Z" fill="#6c29d6"/>
    <path id="Path_192" data-name="Path 192" d="M742.48,149.56s30.19,10.77,24.52,50.23c-5.2,36.25-42.11,47.81-73.34,39.28s-26.02-33.13-26.02-33.13Z" fill="#352f75"/>
    <path id="Path_193" data-name="Path 193" d="M740.47,210.53c.5,3.98-9.44,8.51-22.2,10.1s-23.51-.34-24.01-4.32,9.44-8.51,22.2-10.1S739.97,206.54,740.47,210.53Z" fill="#2e2865"/>
    <path id="Path_194" data-name="Path 194" d="M753.15,219.719a.448.448,0,0,1-.32-.14.438.438,0,0,1,.02-.61c7.73-7.15,9.22-21.19,9.23-21.33a.428.428,0,0,1,.47-.39.435.435,0,0,1,.39.47c-.06.59-1.54,14.51-9.51,21.88A.358.358,0,0,1,753.15,219.719Z" fill="#3e3789"/>
    <path id="Path_195" data-name="Path 195" d="M657.23,133.2s16.52,17.38,19.05,17.08,12.69,30.34,12.69,30.34l-22.67-.54-12.5-26.26-5.46-8.47Z" fill="#fd8753"/>
    <path id="Path_196" data-name="Path 196" d="M615.98,232.549l-13.1,12.05,20.36,18.78,12.03-13.05Z" fill="#f48462"/>
    <path id="Path_197" data-name="Path 197" d="M557.9,235.1a1.122,1.122,0,0,1,.22-1.59c2.42-1.87,9.46-6.84,15.39-6.23,7.29.74,17.5,7.77,22.77,8.64s13.73-.94,14.78,1.85.58,10.72,6.5,14.99,9.58,5.25,9.83,7.86-15.61,21.46-17.22,21.97-8.2-7.41-9.02-7.84,1.31-6.44-.52-6.93-5.19.15-7.86-.6C590.29,266.539,562.61,240.779,557.9,235.1Z" fill="#ffb700"/>
    <path id="Path_198" data-name="Path 198" d="M661.64,284.789l-1.47,17.75h27.7v-17.75Z" fill="#f48462"/>
    <path id="Path_199" data-name="Path 199" d="M654.44,240.749v50.08h40.48l7.54-69.11-32.24-3.61Z" fill="#e2209e"/>
    <path id="Path_200" data-name="Path 200" d="M605.73,231.139s32.93-39.11,52.83-45.28,81.641-4.12,81.641-4.12,2.989,28.81-13.471,36.36-45.06,6.17-50.44,8.92-38.31,34.99-38.31,34.99Z" fill="#e2209e"/>
    <path id="Path_201" data-name="Path 201" d="M620.66,326.039a1.111,1.111,0,0,1-.91-1.32c.51-3.01,2.32-11.44,7.09-15.01,5.86-4.39,18.14-6.15,22.6-9.08s9.46-10,12.12-8.66,7.69,7.49,14.94,6.61,10.6-2.64,12.56-.88,3.07,26.36,2.23,27.83-11.06.11-11.95.35-3.4-5.62-5.08-4.74-3.72,3.63-6.18,4.89C665.79,327.189,627.98,327.019,620.66,326.039Z" fill="#ffb700"/>
    <path id="Path_202" data-name="Path 202" d="M749.08,162s-1.11-33.32-16.79-37.11-25.56-2.79-37.51,3.6c-8.69,4.65-20.2,20.14-20.2,20.14l11.06,28.01,4.05.34v8.83l47.07-.39.82-21.37Z" fill="#9364ed"/>
    <path id="Path_203" data-name="Path 203" d="M655.65,245.469a.456.456,0,0,1-.29-.11.42.42,0,0,1-.02-.61c.64-.69,15.71-16.99,20.85-18.14,5.03-1.13,25.13-2.9,25.98-2.97a.424.424,0,0,1,.47.39.436.436,0,0,1-.39.47c-.21.02-20.89,1.84-25.87,2.96-4.88,1.09-20.25,17.71-20.4,17.88A.507.507,0,0,1,655.65,245.469Z" fill="#ffb700"/>
    <path id="Path_204" data-name="Path 204" d="M676.28,227.459a.423.423,0,0,1-.36-.2c-.55-.84-5.31-8.29-2.63-10.05a1.1,1.1,0,0,1,1.18-.1c1.86.96,2.19,8.42,2.24,9.91a.441.441,0,0,1-.3.43C676.37,227.449,676.32,227.459,676.28,227.459Zm-2.3-9.61a.451.451,0,0,0-.22.08c-1.2.79.27,4.43,2,7.43-.23-3.26-.81-7.03-1.68-7.48A.133.133,0,0,0,673.98,217.849Z" fill="#ffb700"/>
    <path id="Path_205" data-name="Path 205" d="M647.48,253.249a.432.432,0,0,1-.31-.13l-23.78-23.86a.431.431,0,1,1,.61-.61l23.78,23.86a.429.429,0,0,1,0,.61A.4.4,0,0,1,647.48,253.249Z" fill="#ffb700"/>
    <path id="Path_206" data-name="Path 206" d="M694.93,280.129H666.22a.43.43,0,0,1,0-.86h28.71a.43.43,0,0,1,0,.86Z" fill="#ffb700"/>
    <path id="Path_207" data-name="Path 207" d="M719.24,165.839a.429.429,0,0,1-.42-.32c-.36-1.35-2.09-8.17-.82-9.52a.947.947,0,0,1,.92-.27c2.41.5,1.18,7.6.74,9.77a.436.436,0,0,1-.41.35A.01.01,0,0,0,719.24,165.839Zm-.55-9.28c-.04,0-.05.01-.06.03-.51.54-.15,3.59.54,6.7.49-3.38.48-6.53-.42-6.72A.176.176,0,0,0,718.69,156.559Z" fill="#fff"/>
    <path id="Path_208" data-name="Path 208" d="M689.97,175a.427.427,0,0,1-.43-.43V158.9a.43.43,0,0,1,.86,0v15.67A.44.44,0,0,1,689.97,175Z" fill="#fff"/>
    <path id="Path_209" data-name="Path 209" d="M708.78,105.2s-6.79-2.63-7.14,2.57c-.4,6.03,6.78,5.84,6.78,5.84Z" fill="#fd8753"/>
    <path id="Path_210" data-name="Path 210" d="M706.32,110.879a.44.44,0,0,1-.36-.18l-2.47-3.42a.444.444,0,0,1,.72-.52l2.47,3.42a.447.447,0,0,1-.1.62A.5.5,0,0,1,706.32,110.879Z"/>
    <path id="Path_211" data-name="Path 211" d="M703.49,109.939a.442.442,0,0,1-.44-.38.454.454,0,0,1,.38-.5l1.96-.26a.462.462,0,0,1,.5.38.454.454,0,0,1-.38.5l-1.96.26Z"/>
    <path id="Path_212" data-name="Path 212" d="M704.9,104.629s-4.03-9.34-1.28-13.4c2.45-3.63,14.51-1.7,18.79,1.08s4.43,6.43,4.43,6.43a3.859,3.859,0,0,1,2.59,2.36c.49,1.81-1.07,4.78-1.07,4.78a4.049,4.049,0,0,0-5.17-.98C720.141,106.619,704.9,104.629,704.9,104.629Z" fill="#5e1dbb"/>
    <path id="Path_213" data-name="Path 213" d="M720.54,117.759l.48,8.06a12.749,12.749,0,0,1-6.41,2.66,6.6,6.6,0,0,1-6.28-3.23l.03-8.23Z" fill="#fd8753"/>
    <path id="Path_214" data-name="Path 214" d="M720.25,118.919s-1.4,5.53-6.63,4.93c-4.21-.49-5.55-6.09-5.55-6.09Z"/>
    <path id="Path_215" data-name="Path 215" d="M705.37,99.369s-2,12.66,2.29,18.55,9.55,3.94,11.87,2.03a10.747,10.747,0,0,0,3.67-6.03s4.45.73,5.8-2.92c1.42-3.84-1.43-6.8-3.65-6.9s-2.46.31-2.46.31l.51-4.06C723.41,100.329,709.47,85.849,705.37,99.369Z" fill="#fd8753"/>
    <path id="Path_216" data-name="Path 216" d="M723.99,104.759s-2.3,1.05-7.35-2.39-3.76-7.74-3.76-7.74-6.63,4.68-7.97,10.01c0,0-2.56-12.56,5.11-12.48C717.67,92.239,729.29,96.839,723.99,104.759Z" fill="#5e1dbb"/>
    <path id="Path_217" data-name="Path 217" d="M723.83,110.859a.423.423,0,0,1-.29-.11.434.434,0,0,1-.05-.62l2.89-3.39a.443.443,0,0,1,.62-.05.434.434,0,0,1,.05.62l-2.89,3.39A.394.394,0,0,1,723.83,110.859Z"/>
    <path id="Path_218" data-name="Path 218" d="M727.02,109.829c-.04,0-2.17-.22-2.17-.22a.446.446,0,0,1-.4-.48.458.458,0,0,1,.48-.4l2.13.21a.446.446,0,0,1-.04.89Z"/>
    <path id="Path_219" data-name="Path 219" d="M716.021,107.1a.427.427,0,0,1-.43-.43l-.03-2.51a.435.435,0,0,1,.87-.01l.03,2.51a.437.437,0,0,1-.44.44Z"/>
    <path id="Path_220" data-name="Path 220" d="M708.15,107.1a.435.435,0,0,1-.43-.44l.03-2.51a.48.48,0,0,1,.44-.43.435.435,0,0,1,.43.44l-.03,2.51A.442.442,0,0,1,708.15,107.1Z"/>
    <path id="Path_221" data-name="Path 221" d="M712.17,113.139a.423.423,0,0,1-.35-.18c-1.78-2.51-.38-5.78-.32-5.92a.432.432,0,1,1,.79.35c-.01.03-1.26,2.97.23,5.07a.432.432,0,0,1-.1.6A.438.438,0,0,1,712.17,113.139Z"/>
    <path id="Path_222" data-name="Path 222" d="M707.14,102.729a.426.426,0,0,1-.41-.31.432.432,0,0,1,.29-.54l2.16-.66a.433.433,0,0,1,.25.83l-2.16.66A.689.689,0,0,1,707.14,102.729Z"/>
    <path id="Path_223" data-name="Path 223" d="M714.161,116.539a2.955,2.955,0,0,1-1.91-.88.409.409,0,0,1-.11-.38.4.4,0,0,1,.24-.31l2.81-1.33a.427.427,0,0,1,.41.02.443.443,0,0,1,.21.36c.01.23.02,2.27-1.32,2.49A1.928,1.928,0,0,1,714.161,116.539Zm-.77-1.09a1.446,1.446,0,0,0,.95.21c.29-.05.46-.48.54-.92Z"/>
    <path id="Path_224" data-name="Path 224" d="M716.64,102.8a.5.5,0,0,1-.12-.02l-2.48-.74a.433.433,0,0,1,.25-.83l2.48.74a.432.432,0,0,1,.29.54A.457.457,0,0,1,716.64,102.8Z"/>
    <path id="Path_225" data-name="Path 225" d="M722.16,134.879a2.124,2.124,0,0,1-.42-.04c-3.37-.6-7.51-4.69-8.62-5.83-1.73,1.32-7.29,5.39-9.17,4.6a.974.974,0,0,1-.59-.7c-.44-1.84,3.79-6.94,4.65-7.94a.435.435,0,0,1,.69.04,7.121,7.121,0,0,0,4.45,2.78c2.42.38,5.09-.58,7.93-2.87a.471.471,0,0,1,.38-.08.428.428,0,0,1,.29.25c.32.75,3.09,7.37,1.6,9.25A1.448,1.448,0,0,1,722.16,134.879Zm-8.08-6.14c1.4,1.39,5,4.75,7.82,5.25.5.09.68-.07.78-.19.83-1.04-.41-5.16-1.5-7.85a11.779,11.779,0,0,1-6.98,2.79Zm-5.76-2.8c-1.96,2.36-4.36,5.78-4.12,6.77.02.07.04.09.08.11,1.08.45,5.18-2.13,8.07-4.3A7.938,7.938,0,0,1,708.32,125.939Z" fill="#fff"/>
    <path id="Path_226" data-name="Path 226" d="M658.18,145.839s-12.78.32-20.42-2.16-9.67-5.05-9.46-6.23,5.34-.7,5.34-.7-7.11-2.53-6.61-5.11,7-1.06,7-1.06-4.71-2.85-3.06-4.49,13.33,2.17,13.33,2.17-5.11-3.77-3.85-5.05,10.03.88,12.68,3.18a22.658,22.658,0,0,1,2.99,3.32,10.884,10.884,0,0,1,2.22,6.73Z" fill="#fd8753"/>
    <path id="Path_227" data-name="Path 227" d="M652.2,137.659a.392.392,0,0,1-.18-.04c-7.91-3.56-8.84-8.59-8.87-8.81a.438.438,0,0,1,.35-.5.433.433,0,0,1,.5.35c.01.05.92,4.81,8.38,8.16a.441.441,0,0,1-.18.84Z"/>
    <path id="Path_228" data-name="Path 228" d="M642.03,142.529a.432.432,0,0,1-.43-.46l.88-13.2a.431.431,0,0,1,.86.06l-.88,13.2A.421.421,0,0,1,642.03,142.529Z"/>
    <path id="Path_229" data-name="Path 229" d="M173.46,227.919H162.17v77.02h11.29Z" fill="#6c29d6"/>
    <path id="Path_230" data-name="Path 230" d="M191.61,309.559H144.23a3.55,3.55,0,1,1,0-7.1h47.38a3.55,3.55,0,1,1,0,7.1Z" fill="#6c29d6"/>
    <path id="Path_231" data-name="Path 231" d="M142.941,322.629a7.63,7.63,0,1,0-7.63-7.63A7.631,7.631,0,0,0,142.941,322.629Z" fill="#6c29d6"/>
    <path id="Path_232" data-name="Path 232" d="M167.82,322.629a7.63,7.63,0,1,0-7.63-7.63A7.63,7.63,0,0,0,167.82,322.629Z" fill="#6c29d6"/>
    <path id="Path_233" data-name="Path 233" d="M192.6,322.629a7.63,7.63,0,1,0-7.63-7.63A7.63,7.63,0,0,0,192.6,322.629Z" fill="#6c29d6"/>
    <path id="Path_234" data-name="Path 234" d="M141.15,150.569s-30.19,10.77-24.52,50.23c5.2,36.25,42.11,47.81,73.34,39.28s26.02-33.13,26.02-33.13Z" fill="#352f75"/>
    <path id="Path_235" data-name="Path 235" d="M143.16,211.539c-.5,3.98,9.44,8.51,22.2,10.1s23.51-.34,24.01-4.32-9.44-8.51-22.2-10.1S143.65,207.549,143.16,211.539Z" fill="#2e2865"/>
    <path id="Path_236" data-name="Path 236" d="M130.48,220.739a.456.456,0,0,1-.29-.11c-7.97-7.37-9.45-21.29-9.51-21.88a.432.432,0,0,1,.86-.08c.01.14,1.51,14.18,9.23,21.33a.42.42,0,0,1,.02.61A.457.457,0,0,1,130.48,220.739Z" fill="#3e3789"/>
    <path id="Path_237" data-name="Path 237" d="M236.731,157.049l-12.52,2.24-2.41-14.82,10.75-3.85-1.38,8.75Z" fill="#fd8753"/>
    <path id="Path_238" data-name="Path 238" d="M226.911,128.959s2.84-11.1,5.92-11.24.39,9.02.39,9.02l8.42-2.93s9.55-2.35,11.41-1.47-1.34,3.86-1.34,3.86,6.81-1.82,5.76,1.44-5.72,5.01-5.72,5.01,6.66-2.14,5.06,1.67c-.87,2.06-15.63,10.4-25.39,9.79s-5.63-8.02-5.63-8.02Z" fill="#fd8753"/>
    <path id="Path_239" data-name="Path 239" d="M247.171,134.959a.456.456,0,0,1-.29-.11l-7.73-7.02a.432.432,0,0,1,.58-.64l7.73,7.02a.429.429,0,0,1,.03.61A.466.466,0,0,1,247.171,134.959Z"/>
    <path id="Path_240" data-name="Path 240" d="M231.571,137.649a.427.427,0,0,1-.42-.33.433.433,0,0,1,.32-.52,4.726,4.726,0,0,0,3.06-2.54c.64-1.69-.01-3.94-1.92-6.67a.431.431,0,0,1,.71-.49c2.09,2.99,2.77,5.5,2.02,7.48a5.462,5.462,0,0,1-3.66,3.06C231.641,137.639,231.6,137.649,231.571,137.649Z"/>
    <path id="Path_241" data-name="Path 241" d="M225.92,129.159s-16.83,15.65-37.55-1.95l4,43.47a39.348,39.348,0,0,0,23.7-3.45c12.38-6.01,20.81-21.51,20.81-21.51Z" fill="#9364ed"/>
    <path id="Path_242" data-name="Path 242" d="M202.89,284.659v18.66l-14.22,5.38-8.95-10.04-1.48-17.27Z" fill="#f48462"/>
    <path id="Path_243" data-name="Path 243" d="M229.49,280.789v18.66l-15.15,5.38-9.54-10.04-1.57-17.26Z" fill="#f48462"/>
    <path id="Path_244" data-name="Path 244" d="M199.631,181.5s37.62,24.24,42.42,32.33-.38,73.96-.38,73.96l-34.57.42-4.84-36.82-28.17-66.3Z" fill="#e2209e"/>
    <path id="Path_245" data-name="Path 245" d="M149.69,181.5s-.38,26.08.19,31.88,18.57,15.79,18.57,15.79l1.04,60.29,39.97,1.87s.78-64.66.1-70.75-29.14-37.52-29.14-37.52Z" fill="#e2209e"/>
    <path id="Path_246" data-name="Path 246" d="M200.69,320.569s.67-30.01,5.33-29.38,9.33,5,9.33,5,10.66-5.63,15.32-2.5,7.34,10,7.34,10l25.96,16.88s3.14,5,2.24,7.5c-.71,1.95-40.19.86-57.51.28A8.03,8.03,0,0,1,200.69,320.569Z" fill="#7e59d8"/>
    <path id="Path_247" data-name="Path 247" d="M214.081,313.269s-6.511-15.93-10.711-18.68-14.72,5.98-14.72,5.98-8.81-9.27-10.97-4.41-3.219,22.28-1.569,26.12,13.72,10.25,29.59,10.2c7.48-.02,18.26-2.33,18.27-4.9C223.971,323.549,216.631,315.929,214.081,313.269Z" fill="#9364ed"/>
    <path id="Path_248" data-name="Path 248" d="M210.281,287.359a.433.433,0,0,1-.43-.46c.03-.59,3.31-59.53,1.77-66.82-1.05-4.96-16.82-20.45-16.98-20.6a.42.42,0,0,1-.11-.44.434.434,0,0,1,.34-.3l11.37-1.85a.436.436,0,1,1,.14.86l-10.53,1.72c2.98,2.96,15.62,15.75,16.61,20.44,1.56,7.4-1.61,64.61-1.75,67.05A.428.428,0,0,1,210.281,287.359Z" fill="#ffb700"/>
    <path id="Path_249" data-name="Path 249" d="M168.451,229.6a.2.2,0,0,1-.07-.01.425.425,0,0,1-.36-.38c-.26-2.21-.95-9.5.92-10.34.57-.26,1.23.02,1.96.84,1.5,1.67-1.45,8.32-2.05,9.63A.448.448,0,0,1,168.451,229.6Zm.92-9.95a.148.148,0,0,0-.07.01c-.77.35-.89,4.05-.58,7.8,1.19-2.91,2.23-6.4,1.53-7.18C169.831,219.809,169.531,219.649,169.371,219.649Z" fill="#ffb700"/>
    <path id="Path_250" data-name="Path 250" d="M198.671,313.7a.436.436,0,0,1-.42-.33.428.428,0,0,1,.32-.52l6.1-1.49-10.14-1.43a.436.436,0,0,1-.37-.4.431.431,0,0,1,.32-.44l12.37-3.27a.434.434,0,0,1,.22.84l-10.3,2.73,10.25,1.45a.434.434,0,0,1,.04.85l-8.29,2.02A.308.308,0,0,0,198.671,313.7Z" fill="#fff"/>
    <path id="Path_251" data-name="Path 251" d="M239.531,312.969a.451.451,0,0,1-.37-.2.423.423,0,0,1,.01-.47l2.37-3.47-10.95,1.11a.413.413,0,0,1-.44-.27.423.423,0,0,1,.14-.5l7.45-5.81a.435.435,0,1,1,.53.69l-6.27,4.89,10.38-1.05a.4.4,0,0,1,.41.21.425.425,0,0,1-.01.46l-2.33,3.41,8.11-1.27a.423.423,0,0,1,.49.36.418.418,0,0,1-.36.49l-9.1,1.43A.127.127,0,0,0,239.531,312.969Z" fill="#fff"/>
    <path id="Path_252" data-name="Path 252" d="M199.841,174.569v6.52s-16.52,3.78-30.07,2.81-18.62-3.35-18.62-3.35l-5.76-33.09,17.32-24.37,14.16-1.15,17.55,13.21,2.93,35.26Z" fill="#9364ed"/>
    <path id="Path_253" data-name="Path 253" d="M169.55,162.269a43.822,43.822,0,0,1,6.27-2.79c.02-.01.04-.01.06-.02a3.275,3.275,0,0,1,3.98,2.51l.03.12a58.925,58.925,0,0,1,11.51,3.85c4.76,2.38,3.89,4.54,3.89,4.54s3.03,1.95,1.73,3.24-6.27,0-6.27,0,6.27,2.38,3.68,3.78-8.31.97-8.31.97-12.45,2.16-16.56-2.16C165.44,172.009,169.55,162.269,169.55,162.269Z" fill="#fd8753"/>
    <path id="Path_254" data-name="Path 254" d="M166.961,122.589s-23.47.87-35.25,19.79-2.49,36.01,16,39.47,28.12-1.62,28.12-1.62l-4.41-21.52-9.48-1.41-9.27-11.3Z" fill="#9364ed"/>
    <path id="Path_255" data-name="Path 255" d="M179.891,162.529a.5.5,0,0,1-.12-.02l-3.79-1.12a.433.433,0,1,1,.25-.83l3.79,1.12a.432.432,0,0,1,.29.54A.447.447,0,0,1,179.891,162.529Z"/>
    <path id="Path_256" data-name="Path 256" d="M195,170.579a.5.5,0,0,1-.12-.02l-8.86-2.56a.433.433,0,0,1,.25-.83l8.86,2.56a.432.432,0,0,1,.29.54A.438.438,0,0,1,195,170.579Z"/>
    <path id="Path_257" data-name="Path 257" d="M191.4,174.319a.5.5,0,0,1-.12-.02l-6.06-1.77a.433.433,0,1,1,.25-.83l6.06,1.77a.432.432,0,0,1,.29.54A.447.447,0,0,1,191.4,174.319Z"/>
    <path id="Path_258" data-name="Path 258" d="M161.931,157.729a.2.2,0,0,1-.08-.01c-.13-.03-12.86-2.53-20.2-2.53a.43.43,0,1,1,0-.86c7.42,0,20.24,2.52,20.37,2.55a.429.429,0,0,1-.09.85Z" fill="#5e1dbb"/>
    <path id="Path_259" data-name="Path 259" d="M151.14,155.969a.508.508,0,0,1-.17-.03c-1.94-.8-8.26-3.54-8.35-5.33a1,1,0,0,1,.6-.94c2.68-1.43,7.69,4.87,8.25,5.6a.435.435,0,0,1,0,.53A.378.378,0,0,1,151.14,155.969Zm-7-5.65a1,1,0,0,0-.5.12c-.07.04-.15.09-.15.13.03.7,2.97,2.41,6.16,3.85C147.87,152.419,145.54,150.319,144.14,150.319Z" fill="#5e1dbb"/>
    <path id="Path_260" data-name="Path 260" d="M200.571,153.959a.347.347,0,0,1-.25-.1.365.365,0,0,1-.01-.52c.18-.19,4.47-4.61,8.58-5.59a.364.364,0,0,1,.44.27.359.359,0,0,1-.27.44c-3.9.94-8.18,5.34-8.23,5.39A.341.341,0,0,1,200.571,153.959Z" fill="#fff"/>
    <path id="Path_261" data-name="Path 261" d="M169.471,102.739s3.39-.84,4.98-2.79,1.85-6.78,1.85-6.78,6.14,3.19,7.75,2.84,4.78-7.58,2.65-10.71-6.44.74-6.44.74a4.431,4.431,0,0,0-5.6-3.42c-5.53,1.22-6.96,6.84-6.96,6.84s-.37-6.1-4.22-3.42-2.46,9.67-2.46,9.67-3.08,1.34-2.46,4.24,4.77,5.69,4.77,5.69Z" fill="#fff"/>
    <path id="Path_262" data-name="Path 262" d="M168.92,111.489l-.81,9.19s1.48,2.78,7.01,3.68c4.12.67,5.66-.12,5.66-.12l-.17-4.7-.17-4.59-9.87-2.96Z" fill="#fd8753"/>
    <path id="Path_263" data-name="Path 263" d="M170.57,111.989a2.735,2.735,0,0,0,.2.91c1.73,4.77,7.46,6.23,9.84,6.64l-.17-4.59Z"/>
    <path id="Path_264" data-name="Path 264" d="M184.4,94.169s3.98,11.93,1.45,18.18-8.49,4.64-11.98,3.05a11.919,11.919,0,0,1-4.96-3.9,5.224,5.224,0,0,1-5.45-2.48c-1.95-3.26-.19-6.62,1.83-7.23s4.18.96,4.18.96l-1.46-3.5C168.01,99.239,177.35,83.089,184.4,94.169Z" fill="#fd8753"/>
    <path id="Path_265" data-name="Path 265" d="M168.711,107.749a.419.419,0,0,1-.28-.1l-4.03-3.33a.447.447,0,0,1,.57-.69l4.03,3.33a.445.445,0,0,1-.29.79Z"/>
    <path id="Path_266" data-name="Path 266" d="M175.271,99.359a.435.435,0,0,1-.32-.73,3.4,3.4,0,0,1,3.8-1.02.432.432,0,0,1-.35.79,2.571,2.571,0,0,0-2.83.83A.38.38,0,0,1,175.271,99.359Z"/>
    <path id="Path_267" data-name="Path 267" d="M185.311,98.749a.441.441,0,0,1-.3-.12,1.9,1.9,0,0,0-2.03-.37.432.432,0,0,1-.57-.21.424.424,0,0,1,.21-.57,2.782,2.782,0,0,1,2.99.52.435.435,0,0,1-.3.75Z"/>
    <path id="Path_268" data-name="Path 268" d="M184.791,103.169a.427.427,0,0,1-.42-.35l-.41-2.16a.447.447,0,0,1,.34-.51.439.439,0,0,1,.51.34l.41,2.16a.447.447,0,0,1-.34.51A.277.277,0,0,1,184.791,103.169Z"/>
    <path id="Path_269" data-name="Path 269" d="M177.9,103.169a.427.427,0,0,1-.42-.35l-.41-2.16a.447.447,0,0,1,.34-.51.434.434,0,0,1,.51.34l.41,2.16a.447.447,0,0,1-.34.51A.308.308,0,0,1,177.9,103.169Z"/>
    <path id="Path_270" data-name="Path 270" d="M179.5,111.489a1.876,1.876,0,0,1-.46-.06c-.87-.25-1.52-1.19-1.93-2.81a.435.435,0,0,1,.66-.47l3.13,2.06a.418.418,0,0,1,.19.32.452.452,0,0,1-.13.35A2.332,2.332,0,0,1,179.5,111.489Zm-1.15-1.92a1.775,1.775,0,0,0,.93,1.03.879.879,0,0,0,.58-.04Z"/>
    <path id="Path_271" data-name="Path 271" d="M169.471,102.739s3.64-.63,4.98-3.61a12.939,12.939,0,0,0,1.15-5.65,6.182,6.182,0,0,0,5.02,1.67c3.18-.34,4.06-3.61,4.06-3.61l-2.92-3.42s-11.99,2.53-12.29,2.16-4.66,7.4-4.66,7.4Z" fill="#fff"/>
    <path id="Path_272" data-name="Path 272" d="M194.95,151.239a44.727,44.727,0,0,1-19.17,4.29,43.822,43.822,0,0,1-7.29-.6,41.594,41.594,0,0,1-5-1.11,44.574,44.574,0,0,1-14.3-7.02c1.79-10.81,3.68-19.67,5.14-20.67a12.481,12.481,0,0,1,1.09-.63,21.126,21.126,0,0,1,6.56-1.7c.14-.02.27-.04.41-.05.21-.03.42-.05.64-.07.19-.01.39-.02.59-.04.28-.02.55-.04.79-.05,1.07-.06,1.74-.05,1.74-.05a.418.418,0,0,1,.01-.07c.05-.62.47-5.43,1.78-5.32,1.39.12,4.75,2.43,8.31,2.72a37.065,37.065,0,0,0,6.19-.03c.72,0,.87,3.81.87,3.81a24.28,24.28,0,0,1,8.17,5,.384.384,0,0,1,.11.11c.16.17.55.6,1.12,1.25a11.418,11.418,0,0,1,1.13,1.73C194.8,134.679,195.05,142.239,194.95,151.239Z" fill="#9364ed"/>
    <path id="Path_273" data-name="Path 273" d="M172.05,126.169a.2.2,0,0,1-.07-.01,20.033,20.033,0,0,1-6.05-2.23.432.432,0,0,1,.43-.75,19.417,19.417,0,0,0,5.75,2.12.438.438,0,0,1-.06.87Z" fill="#5e1dbb"/>
    <path id="Path_274" data-name="Path 274" d="M164.811,107.669a.448.448,0,0,1-.21-.84l2.31-1.23a.443.443,0,1,1,.42.78l-2.31,1.23A.42.42,0,0,1,164.811,107.669Z"/>
    <path id="Path_275" data-name="Path 275" d="M177.4,105.689h-2.05a2.548,2.548,0,0,1-2.55-2.55v-2.13a1.225,1.225,0,0,1,1.22-1.22h4.71a1.225,1.225,0,0,1,1.22,1.22v2.13A2.561,2.561,0,0,1,177.4,105.689Zm-3.38-5.02a.333.333,0,0,0-.33.33v2.13a1.662,1.662,0,0,0,1.66,1.66h2.05a1.662,1.662,0,0,0,1.66-1.66V101a.333.333,0,0,0-.33-.33Z" fill="#e2209e"/>
    <path id="Path_276" data-name="Path 276" d="M173.071,102.669a.689.689,0,0,1-.13-.02,18.853,18.853,0,0,0-6.93-.56.446.446,0,0,1-.14-.88,19.593,19.593,0,0,1,7.31.58.441.441,0,0,1,.3.55A.407.407,0,0,1,173.071,102.669Z" fill="#e2209e"/>
    <path id="Path_277" data-name="Path 277" d="M181.05,107.369a.453.453,0,0,1-.16-.03.431.431,0,0,1-.24-.56c1.27-3.13.05-4.49-.01-4.55a.429.429,0,0,1,.02-.61.438.438,0,0,1,.61.01c.07.07,1.69,1.78.19,5.48A.441.441,0,0,1,181.05,107.369Z"/>
    <path id="Path_278" data-name="Path 278" d="M185.441,105.779H184.3a2.279,2.279,0,0,1-2.28-2.28v-2.48a1.114,1.114,0,0,1,1.11-1.11h3.48a1.114,1.114,0,0,1,1.11,1.11v2.48A2.3,2.3,0,0,1,185.441,105.779Zm-2.31-5.02a.266.266,0,0,0-.261.26v2.48a1.419,1.419,0,0,0,1.42,1.42h1.14a1.42,1.42,0,0,0,1.421-1.42v-2.48a.266.266,0,0,0-.261-.26Z" fill="#e2209e"/>
    <path id="Path_279" data-name="Path 279" d="M179.221,103.209a.444.444,0,0,1-.39-.24.45.45,0,0,1,.18-.6c.1-.05,2.44-1.27,3.72-.11a.446.446,0,1,1-.6.66c-.69-.62-2.19-.04-2.71.23A.3.3,0,0,1,179.221,103.209Z" fill="#e2209e"/>
    <path id="Path_280" data-name="Path 280" d="M193.641,150.379a.427.427,0,0,1-.43-.43v-13.1a.43.43,0,0,1,.86,0v13.1A.427.427,0,0,1,193.641,150.379Z" fill="#5e1dbb"/>
    <path id="Path_281" data-name="Path 281" d="M182.68,178.17h48.99l13.99-31.65H198.6a2.955,2.955,0,0,0-2.71,1.77Z" fill="#fff"/>
    <path id="Path_282" data-name="Path 282" d="M186.93,178.17h48.99l12.49-28.25a2.419,2.419,0,0,0-2.22-3.4H200.92Z" fill="#ffb700"/>
    <path id="Path_283" data-name="Path 283" d="M166.25,182.169h69.17a2,2,0,0,0,0-4H166.25a2,2,0,0,0,0,4Z" fill="#262060"/>
    <path id="Path_284" data-name="Path 284" d="M217.78,166.5a4.16,4.16,0,1,0-4.16-4.16A4.159,4.159,0,0,0,217.78,166.5Z" fill="#fff"/>
    <path id="Path_285" data-name="Path 285" d="M58.64,227.95H47.35v77.02H58.64Z" fill="#6c29d6"/>
    <path id="Path_286" data-name="Path 286" d="M76.79,309.579H29.4a3.55,3.55,0,0,1,0-7.1H76.78a3.55,3.55,0,0,1,.01,7.1Z" fill="#6c29d6"/>
    <path id="Path_287" data-name="Path 287" d="M31.035,322.076a7.63,7.63,0,1,0-9.969-4.129A7.63,7.63,0,0,0,31.035,322.076Z" fill="#6c29d6"/>
    <path id="Path_288" data-name="Path 288" d="M55.916,322.076a7.63,7.63,0,1,0-9.969-4.129A7.63,7.63,0,0,0,55.916,322.076Z" fill="#6c29d6"/>
    <path id="Path_289" data-name="Path 289" d="M80.54,322.124a7.63,7.63,0,1,0-9.887-4.321A7.63,7.63,0,0,0,80.54,322.124Z" fill="#6c29d6"/>
    <path id="Path_290" data-name="Path 290" d="M26.32,150.6S-3.87,161.37,1.8,200.83c5.2,36.25,42.11,47.81,73.34,39.28s26.02-33.13,26.02-33.13Z" fill="#352f75"/>
    <path id="Path_291" data-name="Path 291" d="M28.33,211.569c-.5,3.98,9.44,8.51,22.2,10.1s23.51-.34,24.01-4.32-9.44-8.51-22.2-10.1S28.83,207.579,28.33,211.569Z" fill="#2e2865"/>
    <path id="Path_292" data-name="Path 292" d="M15.65,220.76a.456.456,0,0,1-.29-.11c-7.97-7.37-9.45-21.29-9.51-21.88a.429.429,0,0,1,.39-.47.421.421,0,0,1,.47.39c.01.14,1.51,14.18,9.23,21.33a.42.42,0,0,1,.02.61A.4.4,0,0,1,15.65,220.76Z" fill="#3e3789"/>
    <path id="Path_293" data-name="Path 293" d="M118.521,144.769l.34-2.14s8.189-6.24,13.229-8.29c2.12-.87,5.09-.14,2.59,2.66a12.066,12.066,0,0,0-2.03,3.32,32.445,32.445,0,0,0,6.83-3.12c1.78-1.18,4.381-5.92,5.9-4.89,2.43,1.63-.36,6.26-.36,6.26s1.26-5.86,3.65-3.57-4.13,13.79-7.23,16.53-19.47,5.95-19.47,5.95Z" fill="#fd8753"/>
    <path id="Path_294" data-name="Path 294" d="M135.77,142.9a.434.434,0,0,1-.43-.39.429.429,0,0,1,.39-.47c3.54-.35,6.92-3.5,6.95-3.53a.432.432,0,0,1,.59.63c-.15.14-3.63,3.38-7.46,3.76Z"/>
    <path id="Path_295" data-name="Path 295" d="M140.01,145.559a.4.4,0,0,1-.22-.06l-7.18-4.36a.43.43,0,0,1,.44-.74l6.93,4.2,3.19-2.39a.444.444,0,0,1,.61.09.43.43,0,0,1-.09.6l-3.42,2.57A.411.411,0,0,1,140.01,145.559Z"/>
    <path id="Path_296" data-name="Path 296" d="M126.21,145.419a.439.439,0,0,1-.41-.3.427.427,0,0,1,.28-.54,15.76,15.76,0,0,0,6.43-4.09.432.432,0,0,1,.65.57,16.547,16.547,0,0,1-6.82,4.35A.57.57,0,0,1,126.21,145.419Z"/>
    <path id="Path_297" data-name="Path 297" d="M74.27,125.909s16.67,14.74,30.13,15.6c6.49.42,15.2-2.68,15.2-2.68l7.74,20.24s-27.2,25.77-54.9,5.46C64.47,158.689,74.27,125.909,74.27,125.909Z" fill="#e2209e"/>
    <path id="Path_298" data-name="Path 298" d="M123.06,162.619l3.93-1.31a.981.981,0,0,0,.62-1.24l-7.16-21.45a.981.981,0,0,0-1.24-.62l-3.93,1.31a.981.981,0,0,0-.62,1.24L121.82,162A.977.977,0,0,0,123.06,162.619Z" fill="#fff"/>
    <path id="Path_299" data-name="Path 299" d="M54.75,98.669a21.693,21.693,0,0,0-21.53,7.93c-9.18,11.25-3.48,25.09,11.07,24.7s17.93-15.27,17.93-15.27Z" fill="#5e1dbb"/>
    <path id="Path_300" data-name="Path 300" d="M114.121,290.149s22.17,10.81,28.71,17.06,6.84,10.49,6.07,12.56-46.77-.3-46.77-.3-.41-12.64-5.32-11.86-2.31,12.12-2.31,12.12l-13.91-.22s-.56-12.57.49-17.5a124.8,124.8,0,0,1,4.22-13.58Z" fill="#e5e1f4"/>
    <path id="Path_301" data-name="Path 301" d="M109.39,286.439s19.07,10.93,15.57,12.03-23.23,1.15-29-.99-10.67-9.04-10.67-9.04l13.27-5.26Z" fill="#fd8753"/>
    <path id="Path_302" data-name="Path 302" d="M113.19,242.279l-.85,48.35L97.95,292.1l-12.66-3.67.68-49.54Z" fill="#fd8753"/>
    <path id="Path_303" data-name="Path 303" d="M76.06,296.269s11.19,21.98,12.64,30.91-.86,12.49-2.72,13.68-37.15-28.42-37.15-28.42,7.29-10.34,2.9-12.67-9.14,8.29-9.14,8.29L31.62,299.5s7.13-10.37,10.93-13.67a123.546,123.546,0,0,1,11.55-8.29Z" fill="#fff"/>
    <path id="Path_304" data-name="Path 304" d="M74.52,290.459s8.64,20.21,5.18,18.98-19.24-13.07-22.55-18.26-3.07-13.64-3.07-13.64l13.76,3.8Z" fill="#fd8753"/>
    <path id="Path_305" data-name="Path 305" d="M72,293.519s27.75-46.8,19.11-61.01-30.73,10.97-30.73,10.97l-6.48,33.88,9.96,13.31Z" fill="#fd8753"/>
    <path id="Path_306" data-name="Path 306" d="M69.04,122.929s5.36.86,11.19,8.36,1.36,52.95.18,54.49c-.47.62-7.71,6.01-26.56,5.59s-19.57-4.83-20.19-5.84-2.48-53.14,2.1-57.63S54.25,120.6,69.04,122.929Z" fill="#e2209e"/>
    <path id="Path_307" data-name="Path 307" d="M79.241,182.869s35.89,19.81,40.34,27.77.55,45.99.55,45.99l-33.521,1.49L83.33,247.2l-24.56-60.99Z" fill="#ffb700"/>
    <path id="Path_308" data-name="Path 308" d="M33.66,185.519s-1.35,18.62-.79,24.31,18.51,19.1,18.51,19.1l.51,27.23,39.78,1.78s1.24-35.15.58-41.13-29.11-31.29-29.11-31.29Z" fill="#ffb700"/>
    <path id="Path_309" data-name="Path 309" d="M65.111,126.829l5.93,39.27h-4.73l-4.21-38.63Z" fill="#c91492"/>
    <path id="Path_310" data-name="Path 310" d="M59.6,181.909s8.71,1.76,10.5,1.52,6.97-.54,7.23-1.9l-.85-2.68s3.6,1.51,6.04.24,5.36-3.8,5.96-5.74-2.21-1.55-2.21-1.55,3.18-1.98-.86-3.67-21.48-4.2-28.74.35C49.39,173.029,59.6,181.909,59.6,181.909Z" fill="#fd8753"/>
    <path id="Path_311" data-name="Path 311" d="M86.111,169.5a.676.676,0,0,1-.14-.02,22.012,22.012,0,0,0-8.98-.83.425.425,0,0,1-.49-.37.432.432,0,0,1,.37-.49,22.5,22.5,0,0,1,9.38.87.428.428,0,0,1,.27.55A.443.443,0,0,1,86.111,169.5Z"/>
    <path id="Path_312" data-name="Path 312" d="M51.68,229.47a.442.442,0,0,1-.24-.07.426.426,0,0,1-.19-.4c.02-.23.58-5.72,3.3-7.54a3.5,3.5,0,0,1,3.1-.4c.99.3,1.53.8,1.6,1.5.27,2.45-6.08,6.15-7.35,6.86A.631.631,0,0,1,51.68,229.47Zm4.77-7.74a2.53,2.53,0,0,0-1.42.44c-1.79,1.2-2.54,4.48-2.8,6.05,2.72-1.63,6.3-4.24,6.16-5.57-.04-.32-.37-.58-.99-.77A3.343,3.343,0,0,0,56.45,221.73Z" fill="#5e1dbb"/>
    <path id="Path_313" data-name="Path 313" d="M35.76,127.889S5.92,155.439,10.3,174.5s54.43,8.2,54.43,8.2l-.58-22.27-27.59-4.32Z" fill="#e2209e"/>
    <path id="Path_314" data-name="Path 314" d="M27.43,157.459c-1.79,0-3.23-.23-3.6-.91-.25-.46-.09-.99.45-1.57,3.32-3.56,11.28.61,11.62.79a.436.436,0,0,1-.13.81A56.6,56.6,0,0,1,27.43,157.459Zm.71-3.05a4.27,4.27,0,0,0-3.23,1.16c-.3.32-.36.52-.33.57.4.75,5.08.5,9.66-.2A16.943,16.943,0,0,0,28.14,154.409Z" fill="#fff"/>
    <path id="Path_315" data-name="Path 315" d="M59.91,184.159h4.38a1.029,1.029,0,0,0,1.03-1.03v-23.88a1.029,1.029,0,0,0-1.03-1.03H59.91a1.029,1.029,0,0,0-1.03,1.03v23.88A1.029,1.029,0,0,0,59.91,184.159Z" fill="#fff"/>
    <path id="Path_316" data-name="Path 316" d="M83.251,156.2a.22.22,0,0,1-.08-.01.438.438,0,0,1-.35-.5,26.73,26.73,0,0,0-3.81-19.02.43.43,0,1,1,.7-.5,27.632,27.632,0,0,1,3.96,19.68A.437.437,0,0,1,83.251,156.2Z" fill="#fff"/>
    <path id="Path_317" data-name="Path 317" d="M53.39,157.659h-.06c-.13-.02-12.66-1.61-17.59-1.08a.433.433,0,0,1-.1-.86c5.03-.55,17.27,1.01,17.79,1.08a.427.427,0,0,1,.37.48A.406.406,0,0,1,53.39,157.659Z" fill="#fff"/>
    <path id="Path_318" data-name="Path 318" d="M88.49,201.679a.366.366,0,0,1-.24-.08l-14.55-9.86a.418.418,0,0,1-.17-.48.429.429,0,0,1,.41-.3H84.2a.43.43,0,0,1,0,.86H75.34l13.38,9.07a.431.431,0,0,1-.23.79Z" fill="#5e1dbb"/>
    <path id="Path_319" data-name="Path 319" d="M70.631,115.249c.52,2.36,1.93,4.05,3.16,3.78s1.81-2.4,1.29-4.76-1.93-4.05-3.16-3.78S70.12,112.889,70.631,115.249Z" fill="#07cbf5"/>
    <path id="Path_320" data-name="Path 320" d="M73.28,107.929a12.134,12.134,0,0,0,2.63-9.64c-.59-4-2.35-5.33-2.35-5.33s2.81-5.4-5.25-5.22-14.66-.51-18.25,6.42c-2.12,4.08-1.27,12.95-1.27,12.95Z" fill="#5e1dbb"/>
    <path id="Path_321" data-name="Path 321" d="M55.48,114.219l.06,9.83s1.79,2.82,7.55,3.25c4.29.32,5.63-1.89,5.63-1.89l-1.09-8.6-10.4-2.22Z" fill="#fd8753"/>
    <path id="Path_322" data-name="Path 322" d="M55.49,113.619a3.44,3.44,0,0,0,.29.95c2.23,4.9,9.99,6.9,12.46,7.11l-.62-4.85Z"/>
    <path id="Path_323" data-name="Path 323" d="M69.69,94.389s5.23,12.3,3.24,19.16-8.25,5.72-11.99,4.35a12.47,12.47,0,0,1-5.46-3.68,5.3,5.3,0,0,1-5.83-2.13c-2.31-3.28-.83-7.01,1.18-7.85s4.37.63,4.37.63l-1.83-3.58C53.37,101.3,61.39,83.289,69.69,94.389Z" fill="#fd8753"/>
    <path id="Path_324" data-name="Path 324" d="M55.2,104.879s5.25,1.16,9.02-4.63,3.48-8.2,3.48-8.2l3.53,6.12s.9-4.18-.73-6.89-3.38-2.19-3.38-2.19l-11.67,2.68-3.24,9.25Z" fill="#5e1dbb"/>
    <path id="Path_325" data-name="Path 325" d="M68.41,109.989a.586.586,0,0,1-.13-.02.431.431,0,0,1-.28-.54,7.926,7.926,0,0,0-.25-4.77.431.431,0,0,1,.8-.32,8.586,8.586,0,0,1,.27,5.37A.434.434,0,0,1,68.41,109.989Z"/>
    <path id="Path_326" data-name="Path 326" d="M54.591,110.659a.448.448,0,0,1-.32-.14L51,106.939a.432.432,0,0,1,.64-.58l3.27,3.58a.429.429,0,0,1-.03.61A.456.456,0,0,1,54.591,110.659Z"/>
    <path id="Path_327" data-name="Path 327" d="M51.08,109.659a.437.437,0,0,1-.06-.87l2.31-.31a.432.432,0,0,1,.49.37.437.437,0,0,1-.37.49l-2.31.31A.127.127,0,0,1,51.08,109.659Z"/>
    <path id="Path_328" data-name="Path 328" d="M71.53,100.009a.2.2,0,0,1-.08-.01l-2.11-.41a.433.433,0,1,1,.17-.85l2.11.41a.434.434,0,0,1,.34.51A.446.446,0,0,1,71.53,100.009Z"/>
    <path id="Path_329" data-name="Path 329" d="M63.451,100.5a.421.421,0,0,1-.4-.28.445.445,0,0,1,.25-.56l2.19-.82a.434.434,0,0,1,.31.81l-2.19.82A.415.415,0,0,1,63.451,100.5Z"/>
    <path id="Path_330" data-name="Path 330" d="M70.351,105.039a.438.438,0,0,1-.42-.31l-.64-2.22a.418.418,0,0,1,.09-.4l.69-.82a.433.433,0,1,1,.66.56l-.55.64.57,2a.423.423,0,0,1-.3.53A.251.251,0,0,1,70.351,105.039Z"/>
    <path id="Path_331" data-name="Path 331" d="M64.15,105.509a.438.438,0,0,1-.42-.31l-.64-2.22a.437.437,0,0,1,.09-.41l.96-1.08a.432.432,0,1,1,.65.57l-.8.9.57,1.99a.423.423,0,0,1-.3.53A.143.143,0,0,1,64.15,105.509Z"/>
    <path id="Path_332" data-name="Path 332" d="M66.93,113.539a1.628,1.628,0,0,1-.31-.03c-1.37-.23-2.13-1.89-2.16-1.96a.434.434,0,0,1,.49-.6l3.75.82a.446.446,0,0,1,.32.29.408.408,0,0,1-.1.42A2.791,2.791,0,0,1,66.93,113.539Zm-1.15-1.52a1.763,1.763,0,0,0,.98.64,1.314,1.314,0,0,0,.9-.23Z"/>
    <path id="Path_333" data-name="Path 333" d="M50.68,115.8c-.15,2.41.75,4.43,2.01,4.51s2.4-1.81,2.55-4.22-.75-4.43-2.01-4.51S50.83,113.389,50.68,115.8Z" fill="#07cbf5"/>
    <path id="Path_334" data-name="Path 334" d="M68.38,122.829s3.99,9.85,2.91,9.63-7.65-4.95-7.65-4.95-6.15,6.29-7.68,6.33-.45-11.69-.45-11.69,1.41,3.43,7.1,4.24C68.32,127.2,68.38,122.829,68.38,122.829Z" fill="#fff"/>
    <path id="Path_335" data-name="Path 335" d="M78.63,178.159h48.09l13.73-31.07H94.26a2.907,2.907,0,0,0-2.66,1.73Z" fill="#fff"/>
    <path id="Path_336" data-name="Path 336" d="M82.8,178.159h48.09l12.26-27.73a2.379,2.379,0,0,0-2.18-3.34H96.53Z" fill="#07cbf5"/>
    <path id="Path_337" data-name="Path 337" d="M62.51,182.079h67.9a1.96,1.96,0,0,0,0-3.92H62.51a1.96,1.96,0,1,0,0,3.92Z" fill="#9364ed"/>
    <path id="Path_338" data-name="Path 338" d="M108.99,162.62a4.08,4.08,0,1,0,4.08-4.08A4.078,4.078,0,0,0,108.99,162.62Z" fill="#fff"/>
    <path id="Path_339" data-name="Path 339" d="M187.47,338.31h-.86a3.9,3.9,0,0,1-3.9-3.89V187.85h8.65V334.41A3.89,3.89,0,0,1,187.47,338.31Z" fill="#6c29d6"/>
    <path id="Path_340" data-name="Path 340" d="M707.56,190.509H39.62a4.21,4.21,0,1,1,0-8.42H707.55a4.21,4.21,0,0,1,.01,8.42Z" fill="#6c29d6"/>
    <g id="message-2">
      <path id="Path_341" data-name="Path 341" d="M500.25,44.709c13.293,0,24.07-7.432,24.07-16.6s-10.777-16.6-24.07-16.6-24.07,7.432-24.07,16.6S486.956,44.709,500.25,44.709Z" fill="#e7e3ff"/>
      <path id="Path_342" data-name="Path 342" d="M500.249,41.239l-19.68,13.23,8.13-15.46Z" fill="#e7e3ff"/>
    </g>
    <g id="message-1">
      <path id="Path_343" data-name="Path 343" d="M208.969,86.71c12.808,0,23.19-7.164,23.19-16s-10.382-16-23.19-16-23.19,7.163-23.19,16S196.162,86.71,208.969,86.71Z" fill="#e7e3ff"/>
      <path id="Path_344" data-name="Path 344" d="M208.969,83.359,190,96.109l7.83-14.9Z" fill="#e7e3ff"/>
    </g>
    <g id="message-5">
      <path id="Path_345" data-name="Path 345" d="M753.14,92.41c13.294,0,24.07-7.432,24.07-16.6s-10.776-16.6-24.07-16.6-24.07,7.432-24.07,16.6S739.847,92.41,753.14,92.41Z" fill="#fff"/>
      <path id="Path_346" data-name="Path 346" d="M753.141,88.93l-19.67,13.24,8.12-15.47Z" fill="#fff"/>
    </g>
    <g id="message-3">
      <path id="Path_347" data-name="Path 347" d="M536.36,91.709c13.061,0,23.65-7.3,23.65-16.31s-10.589-16.31-23.65-16.31-23.65,7.3-23.65,16.31S523.3,91.709,536.36,91.709Z" fill="#fff"/>
      <path id="Path_348" data-name="Path 348" d="M536.36,88.3l19.34,13-7.99-15.19Z" fill="#fff"/>
    </g>
    <path id="Path_349" data-name="Path 349" d="M673.1,178.31H625.95l-13.471-30.46H657.77a2.862,2.862,0,0,1,2.61,1.7Z" fill="#6c29d6"/>
    <path id="Path_350" data-name="Path 350" d="M669.01,178.31H621.86l-12.02-27.18a2.338,2.338,0,0,1,2.13-3.28h43.57Z" fill="#07cbf5"/>
    <path id="Path_351" data-name="Path 351" d="M643.33,163.08a4,4,0,1,1-4-4A4,4,0,0,1,643.33,163.08Z" fill="#fff"/>
    <path id="Path_352" data-name="Path 352" d="M688.91,182.15H622.34a1.92,1.92,0,1,1,0-3.84h66.57a1.92,1.92,0,1,1,0,3.84Z" fill="#fff"/>
    <path id="Path_353" data-name="Path 353" d="M747.25,162.33s1.6,11.12-3.6,20.54-43.95,2.97-43.95,2.97L697,174.56l22.51-6.97.18-1.81C719.68,165.79,734.39,163.93,747.25,162.33Z" fill="#fd8753"/>
    <path id="Path_354" data-name="Path 354" d="M697,174.57a103.781,103.781,0,0,0-10.39,2.18c-3.91,1.16-9.99,2.51-12.55,1.83s-2.83.4-2.16,1.9,3.64,2.29,3.64,2.29-3.1,12.43-1.89,13.45,4.72-2.91,4.72-2.91a2.925,2.925,0,0,0,1.62,1.02,5.192,5.192,0,0,0,2.29-.44,2.419,2.419,0,0,0,2,1.45,3.572,3.572,0,0,0,2.72-.58s.94,2.08,2.02,1.62,5.94-1.91,5.67-3.37-4.32-1.16-4.32-1.16l-.54-2.47s4.18,3.2,8.1,1.02,3.5-7.63,3.5-7.63Z" fill="#fd8753"/>
    <path id="Path_355" data-name="Path 355" d="M678.37,193.739a.407.407,0,0,1-.33-.16c-3.22-3.87.63-10.83.79-11.13a.428.428,0,0,1,.59-.16.44.44,0,0,1,.17.59c-.04.07-3.72,6.74-.88,10.15a.431.431,0,0,1-.06.61A.419.419,0,0,1,678.37,193.739Z"/>
    <path id="Path_356" data-name="Path 356" d="M682.289,194.329a.458.458,0,0,1-.34-.16c-2.01-2.53-.6-6.18-.54-6.33a.431.431,0,1,1,.8.32c-.01.03-1.29,3.34.41,5.47a.431.431,0,0,1-.07.61A.479.479,0,0,1,682.289,194.329Z"/>
    <path id="Path_357" data-name="Path 357" d="M687.01,195.2a.412.412,0,0,1-.27-.1c-2.18-1.75-1.9-5.3-1.89-5.45a.441.441,0,0,1,.47-.39.429.429,0,0,1,.39.47c0,.03-.25,3.25,1.57,4.71a.431.431,0,0,1,.07.61A.486.486,0,0,1,687.01,195.2Z"/>
    <path id="Path_358" data-name="Path 358" d="M560.31,338.81h-.86a3.9,3.9,0,0,1-3.9-3.9V188.35h8.65V334.91A3.9,3.9,0,0,1,560.31,338.81Z" fill="#6c29d6"/>
    <path id="Path_359" data-name="Path 359" d="M280.439,178.109h48.79l13.93-31.52h-46.87a2.948,2.948,0,0,0-2.7,1.76Z" fill="#fff"/>
    <path id="Path_360" data-name="Path 360" d="M284.67,178.109h48.79l12.44-28.13a2.41,2.41,0,0,0-2.21-3.39H298.61Z" fill="#07cbf5"/>
    <path id="Path_361" data-name="Path 361" d="M264.08,182.089h68.88a1.99,1.99,0,1,0,0-3.98H264.08a1.99,1.99,0,0,0,0,3.98Z" fill="#9364ed"/>
    <path id="Path_362" data-name="Path 362" d="M311.25,162.349a4.14,4.14,0,1,0,4.14-4.14A4.142,4.142,0,0,0,311.25,162.349Z" fill="#fff"/>
    <path id="Path_363" data-name="Path 363" d="M383.819,182h41.2a3.867,3.867,0,0,0,3.87-3.87v-.56a3.867,3.867,0,0,0-3.87-3.87h-41.2a1.383,1.383,0,0,0-1.38,1.38v5.55A1.374,1.374,0,0,0,383.819,182Z" fill="#ffb700"/>
    <path id="Path_364" data-name="Path 364" d="M377.55,182.09h41.2a3.867,3.867,0,0,0,3.87-3.87v-.56a3.867,3.867,0,0,0-3.87-3.87h-41.2a1.383,1.383,0,0,0-1.38,1.38v5.55A1.381,1.381,0,0,0,377.55,182.09Z" fill="#ffe150"/>
    <path id="Path_365" data-name="Path 365" d="M376.17,180.489H418.1a2.64,2.64,0,0,0,0-5.28H376.17Z" fill="#fff"/>
    <path id="Path_366" data-name="Path 366" d="M428.29,173.85H381.94a4.15,4.15,0,0,1,0-8.3h46.35a.111.111,0,0,1,.11.11v8.09A.11.11,0,0,1,428.29,173.85Z" fill="#5e1dbb"/>
    <path id="Path_367" data-name="Path 367" d="M429.38,173.85H393.55a4.15,4.15,0,0,1,0-8.3h35.83a1.3,1.3,0,0,1,1.3,1.3v5.71A1.3,1.3,0,0,1,429.38,173.85Z" fill="#713adb"/>
    <path id="Path_368" data-name="Path 368" d="M430.68,172.25H393.71a2.64,2.64,0,0,1,0-5.28h36.97Z" fill="#fff"/>
    <path id="Path_369" data-name="Path 369" d="M424.5,165.61H387.25a4.15,4.15,0,0,1,0-8.3H424.5a.469.469,0,0,1,.47.47v7.36A.469.469,0,0,1,424.5,165.61Z" fill="#07cbf5"/>
    <path id="Path_370" data-name="Path 370" d="M425.68,165.61H396.86a4.15,4.15,0,0,1,0-8.3h28.82a1.182,1.182,0,0,1,1.18,1.18v5.94A1.182,1.182,0,0,1,425.68,165.61Z" fill="#a6f5ff"/>
    <path id="Path_371" data-name="Path 371" d="M426.86,164.009H396.73a2.64,2.64,0,1,1,0-5.28h30.13Z" fill="#fff"/>
    <g id="message-4">
      <path id="Path_372" data-name="Path 372" d="M24.15,81.959c13.293,0,24.07-7.432,24.07-16.6s-10.777-16.6-24.07-16.6S.08,56.191.08,65.359,10.857,81.959,24.15,81.959Z" fill="#fff"/>
      <path id="Path_373" data-name="Path 373" d="M24.15,78.489l19.68,13.23L35.7,76.259Z" fill="#fff"/>
    </g>
  </g>
</svg>
