<svg xmlns="http://www.w3.org/2000/svg" xmlns:xlink="http://www.w3.org/1999/xlink" width="738" height="687.174" viewBox="0 0 738 687.174">
  <style>
    @keyframes pulse {
        0% {
          -webkit-transform: scale(1);
          transform: scale(1);
        }
        70% {
          -webkit-transform: scale(1.4);
          transform: scale(1.4);
        }
        100% {
          -webkit-transform: scale(1);
          transform: scale(1);
        }
      } 

    @-webkit-keyframes floating-up {
        from { -webkit-transform: translate(0,  0px); transform: translate(0,  0px); }
        65%  { -webkit-transform: translate(0, 10px); transform: translate(0, 10px); }
        to   { -webkit-transform: translate(0, 0px); transform: translate(0, 0px); }    
    }

    #dot-1, #dot-2, #dot-3, #dot-4, #dot-5, #dot-6, #dot-7, #dot-8, #dot-9 {
      animation: pulse 2s ease-in-out infinite;
      -webkit-animation: pulse 2s ease-in-out infinite;
      -webkit-transform-origin: center; -ms-transform-origin: center; transform-origin: center; transform-box: fill-box;
    }

    #dot-1 { animation-delay: 1s; }
    #dot-2 { animation-delay: 1.3s; }
    #dot-3 { animation-delay: 1.8s; }
    #dot-4 { animation-delay: 2s; } 
    #dot-5 { animation-delay: 2.3s; } 
    #dot-6 { animation-delay: 2.8s; } 
    #dot-7 { animation-delay: 3s; } 
    #dot-8 { animation-delay: 3.3s; } 
    #dot-9 { animation-delay: 3.8s; } 

    #bar-1, #bar-2, #bar-3, #bar-4, #bar-5, #bar-6, #bar-7 {
      animation: floating-up 2s ease-in-out infinite;
      -webkit-animation: floating-up 2s ease-in-out infinite;
      -webkit-transform-origin: center; -ms-transform-origin: center; transform-origin: center; transform-box: fill-box;
    }

    #bar-1 { animation-delay: 1s; }
    #bar-2 { animation-delay: 1.3s; }
    #bar-3 { animation-delay: 1.8s; }
    #bar-4 { animation-delay: 2s; } 
    #bar-5 { animation-delay: 2.3s; } 
    #bar-6 { animation-delay: 2.8s; } 
    #bar-7 { animation-delay: 3s; } 

  </style> 
  <defs>
    <clipPath id="clip-path">
      <rect id="Rectangle_1" data-name="Rectangle 1" width="738" height="687.174" transform="translate(0 0.997)" fill="#fff"/>
    </clipPath>
  </defs>
  <g id="banner" transform="translate(0 -0.997)" clip-path="url(#clip-path)">
    <path id="Path_1" data-name="Path 1" d="M627.287,14.6v108.19a17.618,17.618,0,0,1-17.62,17.6H405.826a17.6,17.6,0,0,1-17.62-17.6V14.6A17.6,17.6,0,0,1,405.826-3H609.667A17.617,17.617,0,0,1,627.287,14.6Z" fill="#e4e4ed"/>
    <path id="Path_2" data-name="Path 2" d="M627.286,20.278H388.226v1.2h239.06Z" fill="#f5f5f7"/>
    <path id="Path_3" data-name="Path 3" d="M627.286,44.966v1.2H388.626a.663.663,0,0,1-.4-.147v-.883a.523.523,0,0,1,.4-.147h238.66Z" fill="#f5f5f7"/>
    <path id="Path_4" data-name="Path 4" d="M627.286,68.223v1.114a.625.625,0,0,1-.211.042H388.226v-1.2H627.1A.619.619,0,0,1,627.286,68.223Z" fill="#f5f5f7"/>
    <path id="Path_5" data-name="Path 5" d="M627.286,92.868v1.2H388.415a.613.613,0,0,1-.189-.042V92.91a.61.61,0,0,1,.189-.042Z" fill="#f5f5f7"/>
    <path id="Path_6" data-name="Path 6" d="M627.286,117.576v1.114a.6.6,0,0,1-.211.043H388.226v-1.2H627.1A.619.619,0,0,1,627.286,117.576Z" fill="#f5f5f7"/>
    <path id="Path_7" data-name="Path 7" d="M413.217-3h-1.2V140.371h1.2Z" fill="#f5f5f7"/>
    <path id="Path_8" data-name="Path 8" d="M437.913-3h-1.2V140.371h1.2Z" fill="#f5f5f7"/>
    <path id="Path_9" data-name="Path 9" d="M461.171-3h-1.2V140.371h1.2Z" fill="#f5f5f7"/>
    <path id="Path_10" data-name="Path 10" d="M485.866-3h-1.2V140.371h1.2Z" fill="#f5f5f7"/>
    <path id="Path_11" data-name="Path 11" d="M510.578-3h-1.2V140.371h1.2Z" fill="#f5f5f7"/>
    <path id="Path_12" data-name="Path 12" d="M534.621-3h-1.2V140.371h1.2Z" fill="#f5f5f7"/>
    <path id="Path_13" data-name="Path 13" d="M559.338-3h-1.2V140.371h1.2Z" fill="#f5f5f7"/>
    <path id="Path_14" data-name="Path 14" d="M582.574-3h-1.2V140.371h1.2Z" fill="#f5f5f7"/>
    <path id="Path_15" data-name="Path 15" d="M607.288-3h-1.2V140.371h1.2Z" fill="#f5f5f7"/>
    <g id="dot-8">
      <path id="Path_16" data-name="Path 16" d="M436.709,51.358a5.783,5.783,0,1,0-5.789-5.783A5.786,5.786,0,0,0,436.709,51.358Z" fill="#80baff"/>
    </g>
    <path id="Path_17" data-name="Path 17" d="M460.562,99.849a5.783,5.783,0,1,0-5.79-5.783A5.786,5.786,0,0,0,460.562,99.849Z" fill="#5c69a5"/>
    <g id="dot-9">
      <path id="Path_18" data-name="Path 18" d="M558.725,51.947a5.783,5.783,0,1,0-5.789-5.783A5.786,5.786,0,0,0,558.725,51.947Z" fill="#80baff"/>
    </g>
    <path id="Path_19" data-name="Path 19" d="M488.624,239.792H169.168a9.657,9.657,0,0,1-9.662-9.652V69.506a9.657,9.657,0,0,1,9.662-9.652H488.624a9.657,9.657,0,0,1,9.662,9.652V230.14A9.643,9.643,0,0,1,488.624,239.792Z" fill="#511e84"/>
    <path id="Path_20" data-name="Path 20" d="M367.011,199.607a.774.774,0,0,1-.737-.568l-17.725-68.278L319.6,150.422a.777.777,0,0,1-.568.1.79.79,0,0,1-.484-.336l-28.988-45.632-71.154,51.6a.743.743,0,0,1-.99-.084l-35.829-38.1a.744.744,0,0,1,1.1-1.009l35.387,37.641,71.259-51.667a.749.749,0,0,1,1.074.211L319.414,148.8l29.177-19.83a.758.758,0,0,1,1.158.421l17.472,67.248,20.862-45.736a.832.832,0,0,1,.506-.421.805.805,0,0,1,.652.147l54.818,44.517a.748.748,0,1,1-.947,1.157L389.052,152.4l-21.346,46.788A.783.783,0,0,1,367.011,199.607Z" fill="#ffaf45"/>
    <path id="Path_21" data-name="Path 21" d="M379.179,208.145a.774.774,0,0,1-.737-.568l-22.9-95.784-58.312,44.391a.744.744,0,0,1-.59.147.757.757,0,0,1-.5-.336L257.944,97.578,211.42,127.27a.767.767,0,0,1-1.031-.21L182.516,86.938a.756.756,0,0,1,1.242-.862l27.473,39.533,46.544-29.692a.754.754,0,0,1,1.032.231L296.952,154.5l58.586-44.6a.788.788,0,0,1,.716-.105.8.8,0,0,1,.484.525l22.63,94.586,27.409-69.394a.767.767,0,0,1,.548-.462.71.71,0,0,1,.673.189L467.49,192.9a.744.744,0,1,1-1.032,1.073L407.767,137.09l-27.872,70.55A.786.786,0,0,1,379.179,208.145Z" fill="#fff"/>
    <g id="dot-1">
      <path id="Path_22" data-name="Path 22" d="M217.986,126.639a6.968,6.968,0,1,1-6.968-6.96A6.96,6.96,0,0,1,217.986,126.639Z" fill="#8758e7"/>
    </g>
    <g id="dot-2">
      <path id="Path_23" data-name="Path 23" d="M265.143,96.548a6.968,6.968,0,1,1-6.968-6.96A6.959,6.959,0,0,1,265.143,96.548Z" fill="#8758e7"/>
    </g>
    <g id="dot-4">
      <path id="Path_24" data-name="Path 24" d="M362.969,110.49A6.968,6.968,0,1,1,356,103.529,6.958,6.958,0,0,1,362.969,110.49Z" fill="#8758e7"/>
    </g>
    <g id="dot-6">
      <path id="Path_25" data-name="Path 25" d="M414.439,135.787a6.968,6.968,0,1,1-6.968-6.961A6.959,6.959,0,0,1,414.439,135.787Z" fill="#8758e7"/>
    </g>
    <g id="dot-7">
      <path id="Path_26" data-name="Path 26" d="M473.932,193.446a6.968,6.968,0,1,1-6.968-6.96A6.958,6.958,0,0,1,473.932,193.446Z" fill="#8758e7"/>
    </g>
    <g id="dot-3">
      <path id="Path_27" data-name="Path 27" d="M303.729,155.6a6.968,6.968,0,1,1-6.968-6.96A6.96,6.96,0,0,1,303.729,155.6Z" fill="#8758e7"/>
    </g>
    <g id="dot-5">
      <path id="Path_28" data-name="Path 28" d="M386.145,207.388a6.968,6.968,0,1,1-6.968-6.961A6.959,6.959,0,0,1,386.145,207.388Z" fill="#8758e7"/>
    </g>
    <path id="Path_29" data-name="Path 29" d="M215.987,71H108.941a5.074,5.074,0,0,1-5.074-5.068V13.675a5.074,5.074,0,0,1,5.074-5.068H215.987a5.073,5.073,0,0,1,5.073,5.068V65.931A5.073,5.073,0,0,1,215.987,71ZM108.941,10.1a3.574,3.574,0,0,0-3.579,3.575V65.931a3.574,3.574,0,0,0,3.579,3.575H215.987a3.574,3.574,0,0,0,3.579-3.575V13.675a3.574,3.574,0,0,0-3.579-3.575Z" fill="#8758e7"/>
    <path id="Path_30" data-name="Path 30" d="M220.324,20.447h-115.7a.757.757,0,1,1,0-1.514h115.7a.754.754,0,0,1,.758.757A.783.783,0,0,1,220.324,20.447Z" fill="#8758e7"/>
    <path id="Path_31" data-name="Path 31" d="M208.6,17.082a.756.756,0,0,1-.378-1.409l6.147-3.638a.754.754,0,1,1,.757,1.3l-6.147,3.638A.648.648,0,0,1,208.6,17.082Z" fill="#8758e7"/>
    <path id="Path_32" data-name="Path 32" d="M214.745,17.082a.789.789,0,0,1-.379-.105L208.2,13.339a.754.754,0,1,1,.758-1.3l6.147,3.638a.756.756,0,0,1,.274,1.03A.7.7,0,0,1,214.745,17.082Z" fill="#8758e7"/>
    <path id="Path_33" data-name="Path 33" d="M358.737,504.223H257.5a7.772,7.772,0,0,1-7.768-7.76V348.277a7.771,7.771,0,0,1,7.768-7.759H358.737a7.758,7.758,0,0,1,7.768,7.759V496.463A7.759,7.759,0,0,1,358.737,504.223ZM257.5,342.032a6.271,6.271,0,0,0-6.273,6.266V496.484a6.272,6.272,0,0,0,6.273,6.267H358.737a6.272,6.272,0,0,0,6.273-6.267V348.3a6.285,6.285,0,0,0-6.273-6.266Z" fill="#fff"/>
    <path id="setting-2" d="M244.134,515.515H345.371a7,7,0,0,0,7.01-7V360.326a7,7,0,0,0-7.01-7H244.134a7,7,0,0,0-7.01,7V508.512A7,7,0,0,0,244.134,515.515Z" fill="#aa216c"/>
    <g id="setting-1">
      <path id="Path_35" data-name="Path 35" d="M319.268,426.86a28.093,28.093,0,0,0,.694-6.288,28.627,28.627,0,0,0-.779-6.624l-4.042-.042-2.4-5.762,2.884-2.733a28.529,28.529,0,0,0-8.989-9.021l-3.158,2.986-5.726-2.44.168-4.205a28.585,28.585,0,0,0-12.694-.126v4.563l-5.726,2.46-3.3-3.407a28.792,28.792,0,0,0-9.031,8.853l3.221,3.07-2.4,5.762-4.589.042a28.725,28.725,0,0,0-.779,6.645,28.418,28.418,0,0,0,.695,6.309l4.673.042,2.4,5.761-3.347,3.2a28.634,28.634,0,0,0,8.968,8.937l3.515-3.617,5.726,2.46v4.9a28.678,28.678,0,0,0,12.715-.126l-.189-4.564,5.726-2.439,3.368,3.2a28.959,28.959,0,0,0,8.9-9.1l-3.01-2.86,2.4-5.761Zm-27.978,7.612a13.9,13.9,0,1,1,13.915-13.9A13.909,13.909,0,0,1,291.29,434.472Z" fill="#fff"/>
    </g>
    <path id="Path_36" data-name="Path 36" d="M324.594,468.2a17.033,17.033,0,0,0,1.432-3.427,17.813,17.813,0,0,0,.674-3.87l-2.274-.694-.4-3.659,2.084-1.072a17,17,0,0,0-3.579-6.6l-2.273,1.157-2.842-2.334.8-2.356a16.8,16.8,0,0,0-7.158-2.166l-.758,2.587-3.641.442-1.306-2.461a17.24,17.24,0,0,0-6.589,3.512l1.3,2.271-2.315,2.86-2.611-.736a17,17,0,0,0-2.189,7.3l2.632.8.4,3.659-2.421,1.24a17,17,0,0,0,3.578,6.54l2.59-1.472,2.821,2.355-.821,2.776a16.019,16.019,0,0,0,3.326,1.367,17.8,17.8,0,0,0,3.894.673l.653-2.608,3.642-.42,1.368,2.355a16.861,16.861,0,0,0,6.547-3.68l-1.221-2.124,2.316-2.86Zm-17.093-.336a8.2,8.2,0,1,1,10.189-5.552A8.183,8.183,0,0,1,307.5,467.865Z" fill="#8758e7"/>
    <path id="Path_37" data-name="Path 37" d="M646.68,590.775V625.6h44.313V579.882Z" fill="#fc8165"/>
    <path id="Path_38" data-name="Path 38" d="M531.338,577.759l-9.3,33.561,42.755,11.818,12.189-44.076Z" fill="#fc8165"/>
    <path id="Path_39" data-name="Path 39" d="M626.365,245.512s-10.778-15.729,11.052-28.136c21.831-12.385,37.724,4.6,37.914,13.732s-5.031,13.374-5.031,13.374,2.042,19.787-17.01,18.42C634.26,261.557,626.365,245.512,626.365,245.512Z"/>
    <path id="Path_40" data-name="Path 40" d="M655.122,259.748l.4,15.982s-2.779,4.668-12.126,5.656c-6.968.736-9.452-.778-9.452-.778l.779-8.117.758-7.927,16.82-4.143Z" fill="#fc8165"/>
    <path id="Path_41" data-name="Path 41" d="M655.056,258.991a5.251,5.251,0,0,1-.421,1.556c-3.389,8.075-15.894,11.5-19.915,11.965l.758-7.927Z"/>
    <path id="Path_42" data-name="Path 42" d="M631,228.227s-7.894,20.25-4.315,31.311c3.6,11.061,13.725,8.874,19.725,6.477a20.224,20.224,0,0,0,8.694-6.267,8.6,8.6,0,0,0,9.368-3.743c3.6-5.446,1.011-11.439-2.315-12.7-3.306-1.262-7.1,1.241-7.1,1.241l2.8-5.909C657.9,238.636,643.943,209.764,631,228.227Z" fill="#fc8165"/>
    <path id="Path_43" data-name="Path 43" d="M629.734,254.365a.744.744,0,0,1-.737-.631c-1.116-6.792,1.537-10.409,1.663-10.556a.751.751,0,0,1,1.2.9c-.021.042-2.379,3.28-1.368,9.4a.758.758,0,0,1-.611.862A.41.41,0,0,1,629.734,254.365Z"/>
    <path id="Path_44" data-name="Path 44" d="M655.54,252.746a.777.777,0,0,1-.673-.4.739.739,0,0,1,.316-1.009l7.789-4.143a.748.748,0,1,1,.694,1.325l-7.789,4.143A.666.666,0,0,1,655.54,252.746Z"/>
    <path id="Path_45" data-name="Path 45" d="M662.8,254.155a.7.7,0,0,1-.484-.19l-3.747-3.28a.758.758,0,0,1-.084-1.051.738.738,0,0,1,1.052-.063l3.748,3.28a.738.738,0,0,1-.485,1.3Z"/>
    <path id="Path_46" data-name="Path 46" d="M627.859,238.257a17.157,17.157,0,0,1,4.147-9.168c4.021-4.5,7.41-3.743,7.41-3.743s-5.915,12.953,4.042,17.538c7.094,3.238,11.641,1.661,11.641,1.661l10.147-10.073-20.209-16.381C645.058,218.091,626.638,215.505,627.859,238.257Z"/>
    <path id="Path_47" data-name="Path 47" d="M634.72,258.465a.745.745,0,0,1-.715-.5.735.735,0,0,1,.463-.947,6.8,6.8,0,0,0,3.263-2.859.776.776,0,0,1,1.031-.274.757.757,0,0,1,.274,1.031,8.466,8.466,0,0,1-4.084,3.532C634.889,258.444,634.8,258.465,634.72,258.465Z"/>
    <path id="Path_48" data-name="Path 48" d="M636.784,245.912a.471.471,0,0,1-.169-.021.757.757,0,0,1-.568-.905l.737-3.259-.969-1.535a.727.727,0,0,1,.232-1.031.746.746,0,0,1,1.032.232l1.136,1.808a.773.773,0,0,1,.106.568l-.8,3.554A.767.767,0,0,1,636.784,245.912Z"/>
    <path id="Path_49" data-name="Path 49" d="M626.829,245.828a.468.468,0,0,1-.169-.021.757.757,0,0,1-.568-.905l.737-3.259-.969-1.535a.747.747,0,0,1,1.263-.8l1.137,1.808a.768.768,0,0,1,.1.568l-.8,3.554A.785.785,0,0,1,626.829,245.828Z"/>
    <path id="Path_50" data-name="Path 50" d="M628.512,236.575a.765.765,0,0,1-.737-.589.743.743,0,0,1,.59-.883l2.21-.463a.74.74,0,1,1,.295,1.451l-2.21.463A.364.364,0,0,1,628.512,236.575Z"/>
    <path id="Path_51" data-name="Path 51" d="M550.285,268.959l-36.019,22.079-39.892-53.769,36.587-22.647Z" fill="#8758e7"/>
    <path id="Path_52" data-name="Path 52" d="M554.936,266.393l-36.019,22.08-40.376-53.98,36.018-22.079Z" fill="#80baff"/>
    <path id="Path_53" data-name="Path 53" d="M488.667,238.888a.715.715,0,0,1-.631-.357.749.749,0,0,1,.253-1.031l26.44-16.191a.75.75,0,1,1,.779,1.282l-26.441,16.192A.942.942,0,0,1,488.667,238.888Z" fill="#fff"/>
    <path id="Path_54" data-name="Path 54" d="M492.943,244.461a.716.716,0,0,1-.632-.358.749.749,0,0,1,.253-1.03l26.441-16.192a.75.75,0,1,1,.778,1.283l-26.44,16.192A.872.872,0,0,1,492.943,244.461Z" fill="#fff"/>
    <path id="Path_55" data-name="Path 55" d="M497.128,250.1a.715.715,0,0,1-.631-.357.75.75,0,0,1,.252-1.031l26.441-16.191a.75.75,0,1,1,.779,1.282l-26.441,16.192A.942.942,0,0,1,497.128,250.1Z" fill="#fff"/>
    <path id="Path_56" data-name="Path 56" d="M501.318,255.711a.716.716,0,0,1-.632-.358.749.749,0,0,1,.253-1.03l26.441-16.192a.75.75,0,1,1,.778,1.283l-26.44,16.192A.675.675,0,0,1,501.318,255.711Z" fill="#fff"/>
    <path id="Path_57" data-name="Path 57" d="M593.4,240.928l39.051,51.982L594.956,314.8l-24.293-64.22Z" fill="#fc8165"/>
    <path id="Path_58" data-name="Path 58" d="M639.9,237.479a1.054,1.054,0,0,1-.253-.042L635,235.818a.755.755,0,0,1,.484-1.43l4.652,1.619a.741.741,0,0,1,.463.968A.719.719,0,0,1,639.9,237.479Z"/>
    <path id="Path_59" data-name="Path 59" d="M536.833,292.468s-.842-14.825-5.326-20.692-12.315-10.43-14-7.023,3.642,8.306,2.8,10.325-6.441,1.009-14.841-1.977-14-12.7-14-12.7a15.209,15.209,0,0,0-1.116,7.339,16.475,16.475,0,0,0,1.684,5.362s-1.789-4.037-1.789,3.344c0,3.7,3.2,6.287,3.2,6.287s-2.527,3.028,2.8,9.757c5.326,6.708,20.147,12.87,20.147,12.87s16.5,40.269,43.66,50.888a55.245,55.245,0,0,0,48.419-3.638l-8.4-44.18C600.092,308.408,571,318.754,536.833,292.468Z" fill="#fc8165"/>
    <path id="Path_60" data-name="Path 60" d="M505.319,281.513a.358.358,0,0,1-.147-.022c-6.653-1.387-13.978-8.937-14.273-9.252a.744.744,0,0,1,1.073-1.03c.064.084,7.305,7.528,13.494,8.832a.759.759,0,0,1,.59.883A.728.728,0,0,1,505.319,281.513Z"/>
    <path id="Path_61" data-name="Path 61" d="M504.054,288.809h-.126c-7.663-1.282-10.926-5.446-11.073-5.635a.75.75,0,0,1,1.179-.926c.021.042,3.1,3.87,10.126,5.068a.741.741,0,0,1,.61.862A.708.708,0,0,1,504.054,288.809Z"/>
    <path id="Path_62" data-name="Path 62" d="M709.6,483.846c-.084,2.776-.211,5.531-.316,8.307-2.252,52.844-9.2,106.255-9.2,106.255l-73.407,2.566L642.93,469.442l-55.2,133.3-75.911-4.689s16.483-67.48,46.144-121.417c29.641-53.938,65.723-102.513,65.723-102.513l65.428-25.108s9.936,12.112,18.4,69.709a261.72,261.72,0,0,1,2.294,29.608c.022.5.022,1.051.043,1.577C710.1,460.673,709.979,472.155,709.6,483.846Z" fill="#ffaf45"/>
    <path id="Path_63" data-name="Path 63" d="M667.33,247.068a.634.634,0,0,1-.463-.168.742.742,0,0,1-.126-1.052c11.873-14.93-3.705-27.967-4.379-28.514a.747.747,0,1,1,.947-1.156c.169.147,17.41,14.53,4.611,30.617A.72.72,0,0,1,667.33,247.068Z" fill="#ea366e"/>
    <path id="Path_64" data-name="Path 64" d="M582.05,308.976s28.9-32.3,63.786-34.382c34.882-2.1,46.629,14.678,48.313,22.648s4.61,65,2.526,68.783c-2.1,3.764-16.42,10.493-39.7,12.155-23.283,1.682-35.451-1.262-37.135-2.524s-3.768-18.862-3.768-18.862l-19.725,5.026Z" fill="#ea366e"/>
    <g id="female-heair">
      <path id="Path_65" data-name="Path 65" d="M651.818,224.35s11.367-19.093,29.514-9.8c18.167,9.294,16.167,28.535,29.956,32.951s25.072,16.3,17.052,31.606c-6.7,12.806-24.841,8.748-24.841,8.748s-11.284,19.2-31.24,12.638-29.051-16.907-26.967-33.435S651.818,224.35,651.818,224.35Z"/>
    </g>
    <path id="Path_66" data-name="Path 66" d="M655.119,261.683s-9.81,22.08.4,30.827,25.43,3.091,25.43,3.091,5.136,3.281,14.946-.042,14.61-12.406,14.61-12.406Z"/>
    <path id="Path_67" data-name="Path 67" d="M593.4,240.928s-9.81-15.372-14.736-18.757S546.243,208,543.527,210.626s13.347,13.648,13.347,13.648-2.758.588-3.432,2.817a5.1,5.1,0,0,0,.548,4.038s-3.432-.1-4.4,2.208.631,4.878.631,4.878,6.316,11.524,9.9,11.755c3.578.252,3.115-6.119,3.115-6.119s1.3,5.8,4.442,9,9.557,3.533,16.189.042C590.514,249.4,593.4,240.928,593.4,240.928Z" fill="#fc8165"/>
    <path id="Path_68" data-name="Path 68" d="M585.734,251c-7.537-.8-10.042-8.621-10.673-11.124-2.5.5-7.916,1.325-9.368-.525a2.13,2.13,0,0,1-.042-2.4c2.21-4.415,11.536-8.516,11.936-8.684a.748.748,0,1,1,.61,1.367c-.084.042-9.22,4.058-11.2,7.99-.126.274-.253.631-.126.8.715.9,5.01.631,8.589-.168a.832.832,0,0,1,.589.1.69.69,0,0,1,.316.484c.021.105,1.852,9.841,9.431,10.64a.752.752,0,0,1,.674.82A.737.737,0,0,1,585.734,251Z"/>
    <path id="Path_69" data-name="Path 69" d="M567.187,236.764a.893.893,0,0,1-.231-.042c-4.884-1.6-10.484-11.649-10.736-12.07a.761.761,0,0,1,.294-1.03.785.785,0,0,1,1.032.294c.063.1,5.557,9.968,9.873,11.376a.747.747,0,0,1,.484.947A.738.738,0,0,1,567.187,236.764Z"/>
    <path id="Path_70" data-name="Path 70" d="M565.379,245.176c-4.673,0-11.326-12.26-12.062-13.69a.748.748,0,0,1,1.326-.694c2.673,5.068,8.062,13,10.8,12.891a2.738,2.738,0,0,0,2.168-.947,3.981,3.981,0,0,0,.464-2.86.755.755,0,0,1,1.473-.336,5.432,5.432,0,0,1-.737,4.08,4.136,4.136,0,0,1-3.284,1.535A.41.41,0,0,1,565.379,245.176Z"/>
    <path id="Path_71" data-name="Path 71" d="M616.05,357.53a.271.271,0,0,1-.127-.021.76.76,0,0,1-.631-.694c-.211-3.428-.737-14.762,1.705-16.171a1.549,1.549,0,0,1,1.684.126c3.684,2.461-.989,14.005-1.958,16.3A.731.731,0,0,1,616.05,357.53Zm1.831-15.519c-.9.357-1.368,5.236-1.221,11.124C618.3,348.382,619.439,343.062,617.881,342.011Z" fill="#ffaf45"/>
    <path id="Path_72" data-name="Path 72" d="M647.353,387.768a136.979,136.979,0,0,1-20.251-1.451.747.747,0,1,1,.252-1.472c.463.085,47.071,7.4,68.017-12.995a.744.744,0,1,1,1.032,1.072C683.835,385.14,662.931,387.768,647.353,387.768Z" fill="#fff"/>
    <path id="Path_73" data-name="Path 73" d="M642.554,470.2a.856.856,0,0,1-.379-.105.755.755,0,0,1-.274-1.031c.1-.189,10.905-18.336,38.84-28.955a.752.752,0,1,1,.526,1.408c-27.409,10.409-37.977,28.115-38.082,28.305A.687.687,0,0,1,642.554,470.2Z" fill="#fff"/>
    <path id="Path_74" data-name="Path 74" d="M706.592,429.4c-5.957,0-10.841-1.766-14.525-5.278-7.452-7.086-7.347-18.631-7.347-19.114a.768.768,0,0,1,.484-.694l18.525-7.36a.746.746,0,1,1,.548,1.388l-18.041,7.149c.063,2.25.736,11.692,6.862,17.517,3.789,3.6,8.989,5.215,15.515,4.794a.783.783,0,0,1,.8.694.753.753,0,0,1-.7.8A18.692,18.692,0,0,1,706.592,429.4Z" fill="#fff"/>
    <path id="Path_75" data-name="Path 75" d="M629.627,436.28a15,15,0,0,1-2.526-.21,10.556,10.556,0,0,1-7.915-5.257c-5.431-9.61,2-28.409,2.316-29.208a.775.775,0,0,1,.926-.442l28.019,8.685a.72.72,0,0,1,.506.862C650.91,410.983,645.5,436.28,629.627,436.28ZM622.659,402.8c-1.263,3.386-6.715,19.22-2.168,27.253a9.084,9.084,0,0,0,6.842,4.521c14.988,2.4,21.009-19.409,22-23.531Z" fill="#fff"/>
    <path id="Path_76" data-name="Path 76" d="M565.947,655.185s10.757-50.384,2.631-50.531-21.262,5.089-21.262,5.089-16.735-12.407-25.514-8.286c-8.778,4.1-15.178,15.141-15.178,15.141l-48.8,21.995s-6.673,7.718-5.789,12.218c.694,3.511,68.438,12.007,98.2,15.582C557.905,667.3,564.852,662.355,565.947,655.185Z" fill="#8758e7"/>
    <path id="Path_77" data-name="Path 77" d="M501.7,632.032a.908.908,0,0,1-.232-.042l-15.178-4.815a.752.752,0,1,1,.463-1.43l13.515,4.29-3.094-6.435a.76.76,0,0,1,.884-1.051l17.452,4.5-9.41-9.989a.744.744,0,1,1,1.073-1.03l11.2,11.881a.763.763,0,0,1,.1.9.74.74,0,0,1-.842.337l-18.4-4.753,3.137,6.54a.775.775,0,0,1-.106.82A.7.7,0,0,1,501.7,632.032Z" fill="#50447e"/>
    <path id="Path_78" data-name="Path 78" d="M641.984,610.458s-28.945,47.229-23.956,53.075c4.989,5.825,40.271,6.645,56.376,4.058,16.1-2.565,22.272-4.5,23.493-8.432s-6.421-52.465-6.421-52.465-7.094-7.97-16.82-5.93c-9.726,2.06-24.946,9.568-24.946,9.568S645.921,603.876,641.984,610.458Z" fill="#8758e7"/>
    <path id="Path_79" data-name="Path 79" d="M643.1,615a.756.756,0,0,1-.379-1.409l6.589-3.89a.754.754,0,1,1,.758,1.3l-6.589,3.891A.651.651,0,0,1,643.1,615Z" fill="#50447e"/>
    <path id="Path_80" data-name="Path 80" d="M472.668,357.572H397.661a5.873,5.873,0,0,1-5.873-5.867V317.6a5.873,5.873,0,0,1,5.873-5.867h75.007a5.872,5.872,0,0,1,5.873,5.867V351.7A5.872,5.872,0,0,1,472.668,357.572Z" fill="#fff"/>
    <path id="Path_81" data-name="Path 81" d="M439.912,315.074l27.43-19.578-6.716,19.578Z" fill="#fff"/>
    <g id="bar-4">
      <path id="Path_82" data-name="Path 82" d="M417.031,320.667h-9.515v27.968h9.515Z" fill="#ada4f7"/>
    </g>
    <g id="bar-5">
      <path id="Path_83" data-name="Path 83" d="M432.289,325.693h-9.516v22.921h9.516Z" fill="#ffaf45"/>
    </g>
    <g id="bar-7">
      <path id="Path_84" data-name="Path 84" d="M462.794,325.693h-9.516v22.921h9.516Z" fill="#80baff"/>
    </g>
    <g id="bar-6">
      <path id="ss" d="M447.554,334.63h-9.515v13.984h9.515Z" fill="#8758e7"/>
    </g>
    <path id="Path_86" data-name="Path 86" d="M661.142,260.4a3.2,3.2,0,1,1-3.2-3.2A3.2,3.2,0,0,1,661.142,260.4Z" fill="#fff"/>
    <path id="Path_87" data-name="Path 87" d="M596.324,362.555a.746.746,0,0,1-.589-.273.738.738,0,0,1,.105-1.051c.042-.021,3.431-2.86,3.094-6.477a2.451,2.451,0,0,0-.926-1.787c-1.537-1.262-4.463-.989-4.484-.968a.768.768,0,0,1-.758-.42.737.737,0,0,1,.127-.841c.042-.043,3.894-4.227,3.894-9.085,0-4.563-7.894-6.245-7.978-6.245a.724.724,0,0,1-.548-.463.735.735,0,0,1,.106-.715,28.376,28.376,0,0,0,4.294-8.663c.863-3.7-6.589-6.561-6.652-6.582a.769.769,0,0,1-.484-.589.736.736,0,0,1,.294-.715c1.179-.883,4.442-3.848,3.958-5.72-.421-1.535-4.8-2.144-7.7-2.186a.725.725,0,0,1-.758-.736c0-.442.295-.758.864-.758,1.62,0,8.231.19,9.052,3.3.652,2.439-1.979,5.152-3.516,6.5,2.358,1.093,7.347,3.89,6.421,7.843a27.6,27.6,0,0,1-3.916,8.306c2.442.694,8.084,2.818,8.084,7.444a15.628,15.628,0,0,1-3.263,8.853,7.071,7.071,0,0,1,3.937,1.325,4.089,4.089,0,0,1,1.473,2.818c.4,4.437-3.494,7.633-3.642,7.78A1.8,1.8,0,0,1,596.324,362.555Z" fill="#ffaf45"/>
    <path id="Path_88" data-name="Path 88" d="M619.018,527.038c-2.063,0-11.494-.462-13.241-8.916-1.642-7.864,2.674-14.762,4.105-16.78-2.631-2.334-13.683-13.038-9.01-24.75,4.421-11.082,16.21-9.211,20.188-8.223-.884-3.574-2.463-13.521,4.948-19.724a7.11,7.11,0,0,1,6-1.661c8.1,1.3,16.336,14.488,16.694,15.056a.751.751,0,0,1-1.284.778c-.084-.126-8.231-13.164-15.662-14.362a5.683,5.683,0,0,0-4.8,1.346c-8.336,6.96-4.168,19.282-4.126,19.409a.8.8,0,0,1-.169.778.719.719,0,0,1-.779.168c-.61-.21-14.841-5.005-19.619,7-4.842,12.155,8.946,23.384,9.094,23.489a.76.76,0,0,1,.126,1.051c-.063.084-6,7.655-4.231,16.108,1.705,8.18,11.683,7.738,12.083,7.717a.772.772,0,0,1,.8.715.755.755,0,0,1-.716.8A2.149,2.149,0,0,0,619.018,527.038Z" fill="#fff"/>
    <path id="Path_89" data-name="Path 89" d="M580.492,570.273c-6.989,0-15.431-8.748-17.725-11.272-1.874,2.145-8,8.622-13.957,9.021a7.6,7.6,0,0,1-5.874-2.123,6.977,6.977,0,0,1-2.336-5.615c.294-5.53,6.505-11.271,8.926-13.29-3.306-1.7-12.716-7.465-10.989-16.843a8.847,8.847,0,0,1,4.021-6.183c4.378-2.712,10.715-1.6,12.82-1.114,1.116-2.986,5.978-15.162,12.315-17.769a6.014,6.014,0,0,1,5.136.126c8.253,3.995,6.7,15.014,6.105,18,3.39.926,17.263,5.215,15.7,13.522-1.39,7.528-11.284,9.462-15.094,9.925,2.4,2.923,8.441,10.914,7.978,17.075a6.955,6.955,0,0,1-7.031,6.54Zm-17.725-13.164a.774.774,0,0,1,.568.273c.127.168,13.789,15.919,20.757,10.157a5.254,5.254,0,0,0,1.958-3.911c.505-6.877-8.463-16.97-8.547-17.075a.763.763,0,0,1,.526-1.262c.126,0,13.684-.862,15.157-8.832,1.453-7.864-15.136-11.944-15.3-11.986a.747.747,0,0,1-.463-.336.764.764,0,0,1-.085-.568c.043-.126,3.137-13-5.136-17.012a4.556,4.556,0,0,0-3.916-.084c-6.483,2.67-11.662,17.369-11.7,17.516a.756.756,0,0,1-.905.484c-.085-.021-7.684-2.082-12.295.778a7.34,7.34,0,0,0-3.326,5.173c-1.852,9.925,11.073,15.666,11.2,15.708a.713.713,0,0,1,.442.589.743.743,0,0,1-.295.694c-.084.063-8.968,6.9-9.284,12.932a5.512,5.512,0,0,0,1.853,4.437,5.986,5.986,0,0,0,4.736,1.724c6.337-.42,13.389-9.042,13.473-9.126a.723.723,0,0,1,.59-.273Z" fill="#fff"/>
    <path id="Path_90" data-name="Path 90" d="M685.015,454.659c6.947-1.871,12.8,8.664,12.862,8.769a.747.747,0,0,0,.7.378.819.819,0,0,0,.652-.441c.064-.126,4.737-11.208,10.463-13.416a.389.389,0,0,1,.147-.042c-.021-.526-.021-1.073-.042-1.577a4.253,4.253,0,0,0-.673.231c-5.1,1.977-9.179,9.757-10.673,12.89-1.916-2.965-7.263-9.988-13.831-8.243-7.3,1.956-5.516,14.636-4.947,17.853-2.716.715-12.105,3.722-12.147,11.9a5.431,5.431,0,0,0,1.9,4.248c4.526,4.1,16.1,3.364,19.051,3.133.442,1.914,2.021,7.381,5.852,9.862a7.628,7.628,0,0,0,4.148,1.2,9.465,9.465,0,0,0,2.463-.337c4.841-1.324,7.2-5.215,8.336-8.895.1-2.775.232-5.53.316-8.306a.787.787,0,0,0-.379.1.749.749,0,0,0-.358.652c0,.127.337,12.68-8.315,14.994a6.529,6.529,0,0,1-5.39-.694c-4.062-2.587-5.326-9.463-5.347-9.547a.728.728,0,0,0-.736-.61c-.232,0-14.021,1.493-18.652-2.671a3.913,3.913,0,0,1-1.41-3.112c.042-8.138,11.578-10.577,11.683-10.6a.635.635,0,0,0,.463-.337.752.752,0,0,0,.106-.567C681.268,471.334,678.173,456.489,685.015,454.659Z" fill="#fff"/>
    <path id="Path_91" data-name="Path 91" d="M574.956,465.384a18.974,18.974,0,0,1-9.3-2.587.727.727,0,0,1-.211-1.03.749.749,0,0,1,1.032-.211c.4.274,10.1,6.393,18.714-2.081,7.179-7.045-.084-22.122-.147-22.269a.737.737,0,0,1,.021-.694.763.763,0,0,1,.589-.379c.464-.042,11.516-1.324,10.8-22.963a.751.751,0,0,1,.716-.778.711.711,0,0,1,.778.715c.632,19.536-8.1,23.51-11.157,24.309,1.537,3.512,6.421,16.276-.547,23.11A15.61,15.61,0,0,1,574.956,465.384Z" fill="#fff"/>
    <path id="Path_92" data-name="Path 92" d="M642.046,562.366c-4.757,0-9.747-3.428-10.041-3.617a.756.756,0,1,1,.863-1.241c.084.063,8.168,5.594,12.673,2.313,2.715-1.976,2.189-9.336,1.768-12.007a.725.725,0,0,1,.169-.61.675.675,0,0,1,.589-.252c.758.042,18.041.189,18.567-12.659.527-12.974-17.115-17.054-17.283-17.1a.747.747,0,0,1-.547-.484.793.793,0,0,1,.1-.714c1.242-1.6,4.337-6.309,3.747-8.79a1.661,1.661,0,0,0-.989-1.22c-3.958-1.934-11.115,4.458-13.536,7.087a.745.745,0,0,1-1.095-1.01c.379-.42,9.536-10.24,15.3-7.423a3.266,3.266,0,0,1,1.811,2.229c.673,2.923-2.021,7.255-3.368,9.148,4.041,1.177,17.872,6.119,17.367,18.315-.526,12.554-15.41,13.942-19.22,14.089.316,2.566.905,10.136-2.484,12.6A7.158,7.158,0,0,1,642.046,562.366Z" fill="#fff"/>
    <path id="Path_93" data-name="Path 93" d="M688.675,598.682a.8.8,0,0,1-.547-.232,22.193,22.193,0,0,1-5.432-12.091c-.8-6.561,8.168-12.68,10.947-14.4-2.61-3.049-12.357-15.309-8.147-24.309,4.758-10.157,20.125-9.147,20.778-9.1a.751.751,0,0,1,.7.8.739.739,0,0,1-.8.694c-.148,0-14.989-.967-19.3,8.243-4.336,9.231,8.358,23.215,8.484,23.341a.762.762,0,0,1,.19.631.707.707,0,0,1-.379.526c-.127.063-11.768,6.771-10.968,13.395a21.1,21.1,0,0,0,5.031,11.229.735.735,0,0,1-.021,1.051A.673.673,0,0,1,688.675,598.682Z" fill="#fff"/>
    <path id="Path_94" data-name="Path 94" d="M148.033,598.009v22l42.25-1.556V598.009Z" fill="#fc8165"/>
    <path id="Path_95" data-name="Path 95" d="M44.165,595.548v21.975l39.092-1.556V595.548Z" fill="#fc8165"/>
    <path id="Path_96" data-name="Path 96" d="M92.963,653.859c0,3.87-1.326,8.328-4.063,9.442-2.716,1.115-24.777,3.449-44.061,1.809-18.462-1.578-22.294-2.923-23.662-4.564-.674-.841.632-4.71,2.126-8.474.105-.189.168-.4.253-.589.758-1.892,1.558-3.722,2.126-5.025a21.905,21.905,0,0,1,2.084-3.575c2-2.692,5.958-8.285,6.968-11.166,1.326-3.848,3.368-12.176,4.715-16.066A7.24,7.24,0,0,1,44.144,611s37.977-2.545,40.713-.316c2.695,2.208,4.063,20.524,4.063,23.279v2.754c0,2.566,1.81,7.676,2.968,11.881.316,1.052.568,2.04.758,2.944A11.584,11.584,0,0,1,92.963,653.859Z" fill="#ea366e"/>
    <path id="Path_97" data-name="Path 97" d="M261.415,661.767c-2.526,1.03-110.351,3.911-112.836,0-.757-1.178-1.3-5.173-1.642-10.22-.884-11.86-.884-29.482-.884-29.482a66.762,66.762,0,0,1-.631-8.811c.126-2.754,52-1.7,52-1.7l33.366,21.575a179.2,179.2,0,0,0,19.7,4.458c5.347.841,8.8,7.255,10.526,13.311C262.489,656.278,262.615,661.283,261.415,661.767Z" fill="#ea366e"/>
    <path id="Path_98" data-name="Path 98" d="M120.834,352.714s46.4,48.723,69.28,122.868c17.494,56.629,17.747,129.3,17.747,129.3H136.012s-1.894-45.526-9.789-82.746A398.175,398.175,0,0,0,106.814,457.5L99.067,604.906H27.345S40.5,390.964,53.28,359.023C63.658,333.011,120.834,352.714,120.834,352.714Z" fill="#8758e7"/>
    <path id="Path_99" data-name="Path 99" d="M74.079,627.553h-.105a108.373,108.373,0,0,0-25.809,0,.717.717,0,0,1-.842-.652.73.73,0,0,1,.653-.841,109.4,109.4,0,0,1,26.23,0,.736.736,0,0,1,.632.841A.768.768,0,0,1,74.079,627.553Z" fill="#ffaf45"/>
    <path id="Path_100" data-name="Path 100" d="M48.06,636.827a.749.749,0,0,1-.084-1.493,109.343,109.343,0,0,1,26.23,0,.736.736,0,0,1,.632.841.723.723,0,0,1-.842.631,108.305,108.305,0,0,0-25.809,0A.268.268,0,0,1,48.06,636.827Z" fill="#ffaf45"/>
    <path id="Path_101" data-name="Path 101" d="M106.815,458.234a.768.768,0,0,1-.757-.757l.631-50.973a.728.728,0,0,1,.484-.694L125.93,398.6a.752.752,0,1,1,.526,1.408l-18.272,7.024-.611,50.468A.779.779,0,0,1,106.815,458.234Z" fill="#50447e"/>
    <path id="Path_102" data-name="Path 102" d="M203.124,624.21a.765.765,0,0,1-.758-.736.75.75,0,0,1,.737-.757l11.263-.168a.747.747,0,1,1,.021,1.493Z" fill="#ffaf45"/>
    <path id="Path_103" data-name="Path 103" d="M210.955,630.266a.764.764,0,0,1-.758-.736.75.75,0,0,1,.737-.757L222.2,628.6a.747.747,0,0,1,.021,1.493Z" fill="#ffaf45"/>
    <path id="Path_104" data-name="Path 104" d="M203.166,287.211a38.889,38.889,0,0,1,6.379-15.393c4.526-6.455,11.452-14.719,17.7-15.539,10.4-1.388,26.251,3.217,27.177,10.451s-2.968,8.874-2.968,8.874.863,4.584-1.01,6.6l-1.874,2.019s1.158,5.825-5.6,6.519-10.483-.652-11.641-1.619a9.749,9.749,0,0,1-1.79-1.893s3.663,6.939-4.273,9.989C217.376,300.27,203.166,287.211,203.166,287.211Z" fill="#fc8165"/>
    <path id="Path_105" data-name="Path 105" d="M248.512,276.487a31.574,31.574,0,0,1-13.03-2.629c-4.463-2.1-6.716-4.248-6.484-6.182.1-.925.821-2.166,3.621-2.755a16.089,16.089,0,0,1,4.694-.231c2.231.126,3.979.231,6.673-1.661a.752.752,0,0,1,1.053.189.77.77,0,0,1-.19,1.051,10.325,10.325,0,0,1-7.62,1.935,15.238,15.238,0,0,0-4.295.189c-1.452.316-2.379.862-2.442,1.472-.105.883,1.306,2.608,5.621,4.647,6.926,3.26,15.2,2.356,15.283,2.356a.784.784,0,0,1,.842.651.771.771,0,0,1-.652.842C251.438,276.361,250.281,276.487,248.512,276.487Z"/>
    <path id="Path_106" data-name="Path 106" d="M220.64,263.638s14.441,4.248,13.052,7.529c-1.39,3.259-10.021,3.133-10.021,3.133s7.915,12.238-.926,18.505Z" fill="#fc8165"/>
    <path id="Path_107" data-name="Path 107" d="M222.745,293.562a.741.741,0,0,1-.61-.316.764.764,0,0,1,.168-1.051c8.168-5.8.821-17.37.737-17.5a.75.75,0,0,1,.631-1.156c3.137,0,8.463-.652,9.326-2.671a.488.488,0,0,0-.042-.442c-.947-2-8.189-4.773-12.526-6.056a.735.735,0,0,1-.505-.925.747.747,0,0,1,.926-.505c1.221.358,11.937,3.6,13.473,6.856a1.968,1.968,0,0,1,.064,1.682c-1.243,2.9-6.8,3.47-9.432,3.575,1.748,3.3,5.916,12.932-1.789,18.4A.948.948,0,0,1,222.745,293.562Z"/>
    <path id="Path_108" data-name="Path 108" d="M201,591.511a.733.733,0,0,1-.737-.673c-.084-.715-8.147-72.064-17.936-111.534-9.768-39.365-63.891-106.865-64.438-107.538a.748.748,0,0,1,1.158-.947c.547.673,54.86,68.426,64.712,108.107,9.831,39.575,17.893,111.008,17.978,111.723a.739.739,0,0,1-.653.82C201.062,591.511,201.041,591.511,201,591.511Z" fill="#50447e"/>
    <path id="Path_109" data-name="Path 109" d="M116.5,403.771a.761.761,0,0,1-.737-.589l-7.621-32.72a.76.76,0,0,1,.569-.9.744.744,0,0,1,.9.568l7.6,32.72a.759.759,0,0,1-.568.9A.357.357,0,0,1,116.5,403.771Z" fill="#50447e"/>
    <path id="Path_110" data-name="Path 110" d="M88.815,591.511a.771.771,0,0,1-.758-.778l9.431-219.472a.721.721,0,0,1,.779-.715.737.737,0,0,1,.716.778L89.552,590.8A.742.742,0,0,1,88.815,591.511Z" fill="#50447e"/>
    <path id="Path_111" data-name="Path 111" d="M71.975,591.511a.763.763,0,0,1-.758-.8L84.332,371.24a.76.76,0,0,1,1.516.105L72.732,590.817A.758.758,0,0,1,71.975,591.511Z" fill="#50447e"/>
    <path id="Path_112" data-name="Path 112" d="M248.6,284.961c-.442,0-10.8-.084-16.8-2.334-6.484-2.44-5.326-8.391-5.326-8.454a.776.776,0,0,1,.884-.588.757.757,0,0,1,.589.883c-.042.189-.884,4.773,4.379,6.75,5.747,2.166,16.168,2.25,16.273,2.25a.747.747,0,1,1,0,1.493Z"/>
    <path id="Path_113" data-name="Path 113" d="M233.782,265.469h5.957V242.3h-5.957Z" fill="#8758e7"/>
    <path id="Path_114" data-name="Path 114" d="M152.284,591.511a.761.761,0,0,1-.758-.715c-.042-1.052-4.715-105.183-45.008-151.3a.757.757,0,0,1,.064-1.052.739.739,0,0,1,1.052.084C148.263,485.066,152.958,589.7,153,590.754a.737.737,0,0,1-.716.778C152.3,591.511,152.3,591.511,152.284,591.511Z" fill="#50447e"/>
    <path id="Path_115" data-name="Path 115" d="M56.986,591.511a.763.763,0,0,1-.758-.8L70.227,384c-2.589,2.9-8.273,7.928-16.02,7.192a.75.75,0,1,1,.147-1.493c9.642.946,16.083-8.37,16.146-8.454a.77.77,0,0,1,.863-.294.752.752,0,0,1,.505.757L57.722,590.8A.742.742,0,0,1,56.986,591.511Z" fill="#50447e"/>
    <path id="Path_116" data-name="Path 116" d="M41.113,591.511a.779.779,0,0,1-.758-.82L56.228,390.46a.749.749,0,0,1,1.495.105L41.85,590.8A.74.74,0,0,1,41.113,591.511Z" fill="#50447e"/>
    <path id="Path_117" data-name="Path 117" d="M203.925,266.793l29.051,35.369S212.325,327.606,189.084,336c-23.241,8.369-49.071,0-49.071,0v37.556H48.334S52.418,270.3,55.428,269.3c21.662-7.276,51.387-10.031,65.2-6.834,5.662,1.325,40.018,19.241,45.2,19.85S203.925,266.793,203.925,266.793Z" fill="#ada4f7"/>
    <g id="male-heair">
      <path id="Path_118" data-name="Path 118" d="M81.616,236.954s5.621-1.767,8.084-5.215,2.4-11.587,2.4-11.587,10.673,4.71,13.347,3.953c2.673-.778,7.221-13.248,3.305-18.273s-10.757,1.934-10.757,1.934-1.958-7.4-9.789-5.152c-9.178,2.65-10.989,12.239-10.989,12.239s-1.284-10.2-7.473-5.3-3.116,16.507-3.116,16.507-5.031,2.565-3.684,7.381,8.631,9.063,8.631,9.063Z"/>
    </g>
    <path id="Path_119" data-name="Path 119" d="M81.637,251.715l-.379,15.54s2.8,4.521,12.189,5.426c7.01.672,9.515-.8,9.515-.8L102.183,264l-.779-7.7-16.925-3.911Z" fill="#fc8165"/>
    <path id="Path_120" data-name="Path 120" d="M84.479,252.367a5.193,5.193,0,0,0,.421,1.514c3.41,7.823,13.22,9.673,17.263,10.115l-.779-7.7Z"/>
    <path id="Path_121" data-name="Path 121" d="M105.846,220.951s7.979,19.64,4.379,30.407-13.789,8.706-19.83,6.414a20.132,20.132,0,0,1-8.757-6.036,8.8,8.8,0,0,1-9.431-3.595c-3.621-5.278-1.032-11.1,2.295-12.344s7.136,1.157,7.136,1.157l-2.821-5.72C78.8,231.234,92.773,203.077,105.846,220.951Z" fill="#fc8165"/>
    <path id="Path_122" data-name="Path 122" d="M80.838,245.449a.7.7,0,0,1-.442-.147l-7.136-5.173a.753.753,0,1,1,.884-1.22l7.136,5.173a.756.756,0,0,1-.442,1.367Z"/>
    <path id="Path_123" data-name="Path 123" d="M90.963,230.687a.844.844,0,0,1-.484-.168.739.739,0,0,1-.084-1.052,5.756,5.756,0,0,1,6.315-2.124.739.739,0,0,1,.442.968.756.756,0,0,1-.968.441,4.338,4.338,0,0,0-4.652,1.683A.76.76,0,0,1,90.963,230.687Z"/>
    <path id="Path_124" data-name="Path 124" d="M107.8,228.584a.842.842,0,0,1-.484-.168,3.159,3.159,0,0,0-3.432-.4.74.74,0,0,1-1.01-.315.751.751,0,0,1,.294-1.009,4.7,4.7,0,0,1,5.116.567.76.76,0,0,1,.1,1.052A.777.777,0,0,1,107.8,228.584Z"/>
    <path id="Path_125" data-name="Path 125" d="M107.4,236.049a.783.783,0,0,1-.737-.568l-.926-3.574a.748.748,0,0,1,1.452-.358l.927,3.575a.738.738,0,0,1-.548.9A.409.409,0,0,1,107.4,236.049Z"/>
    <path id="Path_126" data-name="Path 126" d="M95.805,236.785a.783.783,0,0,1-.737-.567l-.926-3.575a.748.748,0,0,1,1.452-.358l.926,3.575a.736.736,0,0,1-.547.9A.411.411,0,0,1,95.805,236.785Z"/>
    <path id="Path_127" data-name="Path 127" d="M99.257,250.622a2.813,2.813,0,0,1-.589-.063c-1.495-.337-2.695-1.851-3.579-4.542a.762.762,0,0,1,.232-.82.733.733,0,0,1,.842-.064l5.495,3.134a.8.8,0,0,1,.379.546.76.76,0,0,1-.19.631A4.063,4.063,0,0,1,99.257,250.622Zm-1.895-3.091a2.9,2.9,0,0,0,1.621,1.556,1.719,1.719,0,0,0,.926-.105Z"/>
    <path id="Path_128" data-name="Path 128" d="M81.616,236.953s6.042-1.451,8-6.6a21.708,21.708,0,0,0,1.326-9.61,10.455,10.455,0,0,0,8.631,2.271c5.326-.9,6.441-6.5,6.441-6.5l-5.284-5.446s-19.893,5.53-20.441,4.941-7.052,12.933-7.052,12.933Z"/>
    <path id="Path_129" data-name="Path 129" d="M74.269,245.743a.716.716,0,0,1-.632-.357.749.749,0,0,1,.253-1.03l3.747-2.314a.75.75,0,0,1,.779,1.283l-3.747,2.313A1.031,1.031,0,0,1,74.269,245.743Z"/>
    <path id="Path_130" data-name="Path 130" d="M91.552,241.285a4.3,4.3,0,0,1-4.295-4.016l-.232-3.575a2.054,2.054,0,0,1,.505-1.493,2.023,2.023,0,0,1,1.41-.694L96.857,231a2.061,2.061,0,0,1,1.495.505,2.022,2.022,0,0,1,.695,1.409l.231,3.575a4.319,4.319,0,0,1-4.021,4.563l-3.452.21A.946.946,0,0,1,91.552,241.285ZM97,232.495c-.042,0-7.957.505-7.957.505a.561.561,0,0,0-.526.589l.232,3.575a2.711,2.711,0,0,0,.947,1.913,2.86,2.86,0,0,0,2.021.694l3.452-.21a2.721,2.721,0,0,0,1.916-.946,2.855,2.855,0,0,0,.695-2.019l-.232-3.575a.51.51,0,0,0-.189-.378A.432.432,0,0,0,97,232.495Z" fill="#ea366e"/>
    <path id="Path_131" data-name="Path 131" d="M130.939,335.408H95.846a5.262,5.262,0,0,1-5.263-5.257V295.1a5.262,5.262,0,0,1,5.263-5.257h35.093A5.261,5.261,0,0,1,136.2,295.1v35.054A5.261,5.261,0,0,1,130.939,335.408Z" fill="#fff"/>
    <g id="bar-1">
      <path id="Path_132" data-name="Path 132" d="M106.035,296.7H97v32.026h9.031Z" fill="#ffaf45"/>
    </g>
    <g id="bar-2">
      <path id="Path_133" data-name="Path 133" d="M117.909,303.382h-9.031v25.36h9.031Z" fill="#ffaf45"/>
    </g>
    <g id="bar-3">
      <path id="Path_134" data-name="Path 134" d="M129.866,312.718h-9.031v16.024h9.031Z" fill="#ffaf45"/>
    </g>
    <path id="Path_135" data-name="Path 135" d="M87.637,236.449a.465.465,0,0,1-.168-.021,31.879,31.879,0,0,0-11.7-.211.742.742,0,1,1-.316-1.45,32.633,32.633,0,0,1,12.357.21.755.755,0,0,1,.568.9A.765.765,0,0,1,87.637,236.449Z" fill="#ea366e"/>
    <path id="Path_136" data-name="Path 136" d="M101.572,243.514a.768.768,0,0,1-.715-.988c1.81-5.383-.4-7.528-.484-7.633a.752.752,0,0,1,1.01-1.115c.126.1,3.031,2.818.9,9.211A.738.738,0,0,1,101.572,243.514Z"/>
    <path id="Path_137" data-name="Path 137" d="M106.647,240.507a3.9,3.9,0,0,1-3.874-3.617l-.273-4.163a1.906,1.906,0,0,1,1.789-2.019l5.852-.378a1.9,1.9,0,0,1,1.39.462,1.952,1.952,0,0,1,.652,1.3l.274,4.164a3.884,3.884,0,0,1-3.642,4.1l-1.916.126A1.022,1.022,0,0,1,106.647,240.507Zm3.621-8.684c-.021,0-5.874.378-5.874.378a.417.417,0,0,0-.273.126.5.5,0,0,0-.106.295l.274,4.163a2.376,2.376,0,0,0,2.526,2.208l1.916-.126a2.317,2.317,0,0,0,1.621-.8,2.369,2.369,0,0,0,.589-1.724l-.273-4.164a.418.418,0,0,0-.127-.273A.6.6,0,0,0,110.268,231.823Z" fill="#ea366e"/>
    <path id="Path_138" data-name="Path 138" d="M98.037,236.7a.776.776,0,0,1-.653-.357.75.75,0,0,1,.253-1.031c.168-.105,3.957-2.376,6.252-.567a.76.76,0,0,1,.126,1.051.743.743,0,0,1-1.052.126c-1.221-.967-3.684.168-4.547.673A.576.576,0,0,1,98.037,236.7Z" fill="#ea366e"/>
    <path id="Path_139" data-name="Path 139" d="M82.521,329.331s10.589-5.447,17.515-6.225c6.947-.778,10.231,6.225,10.231,6.225a78.654,78.654,0,0,0,13.157,2.733c6.947.778,12.42,1.556,12.42,3.891s-5.473,3.89-5.473,3.89,8.757,1.177,5.473,4.668c-3.284,3.512-9.136,4.668-9.136,4.668s7.305,1.956-2.547,5.447c-9.874,3.511-31.514,4.289-42.419-3.891C70.816,342.578,82.521,329.331,82.521,329.331Z" fill="#fc8165"/>
    <path id="Path_140" data-name="Path 140" d="M55.449,269.274S-6.527,297.83.568,332.569c7.094,34.76,89.09,29.8,89.09,29.8V318l-29.535-2.039Z" fill="#ada4f7"/>
    <path id="Path_141" data-name="Path 141" d="M89.657,318.753a.465.465,0,0,1-.168-.021c-.168-.042-17.936-4.016-35.177-3.553a.8.8,0,0,1-.779-.736.755.755,0,0,1,.737-.779c17.452-.462,35.366,3.533,35.556,3.575a.756.756,0,0,1,.568.9A.78.78,0,0,1,89.657,318.753Z" fill="#8758e7"/>
    <path id="Path_142" data-name="Path 142" d="M47.324,316.041c-3.179,0-6.294-.4-7.873-1.725a3.068,3.068,0,0,1-1.137-2.376,2.374,2.374,0,0,1,1.116-2.124c3.663-2.376,16.42,3.239,17.873,3.87a.746.746,0,0,1,.442.778.76.76,0,0,1-.611.651A62.134,62.134,0,0,1,47.324,316.041ZM42,310.721a3.208,3.208,0,0,0-1.768.378.918.918,0,0,0-.421.862,1.484,1.484,0,0,0,.61,1.22c2.21,1.85,9.284,1.43,13.81.862C50.123,312.382,44.924,310.721,42,310.721Z" fill="#8758e7"/>
    <path id="Path_143" data-name="Path 143" d="M89.951,281.512h-.358c-6.1-.294-9.747-13.647-9.894-14.215a.749.749,0,0,1,.358-.841.735.735,0,0,1,.905.126,18.61,18.61,0,0,0,12.526,5.552,26.388,26.388,0,0,0,8.989-.989.77.77,0,0,1,.884.316c.358.589,2.084,3.575,1.453,5.152a1.588,1.588,0,0,1-1.1.967c-1.705.463-4.737-1.177-6.294-2.124C96.477,277.98,94.077,281.512,89.951,281.512Zm-8-12.028c1.474,4.227,4.337,10.367,7.7,10.535,4.947.274,6.547-5.656,6.61-5.909a.78.78,0,0,1,.358-.462,23.978,23.978,0,0,1-3.242-.021A20.424,20.424,0,0,1,81.952,269.484Zm15.325,4.122.126.063c1.81,1.2,4.841,2.755,5.915,2.439.274-.568-.253-2.082-.968-3.385A25.283,25.283,0,0,1,97.277,273.606Z" fill="#8758e7"/>
    <path id="Path_144" data-name="Path 144" d="M163.317,295.181a1.531,1.531,0,0,1-1.2-.568c-1.516-2,1.937-10.157,3.031-12.6a.793.793,0,0,1,.821-.442.783.783,0,0,1,.632.673c.231,2.9.673,12.386-3.011,12.912C163.506,295.16,163.4,295.181,163.317,295.181Zm1.894-9.421c-1.536,3.974-2.378,7.36-1.894,7.928C164.58,293.5,165.211,289.882,165.211,285.76Z" fill="#8758e7"/>
    <path id="Path_145" data-name="Path 145" d="M110.268,330.088a.465.465,0,0,1-.169-.021l-8.357-1.872a.755.755,0,1,1,.337-1.472l8.357,1.872a.754.754,0,0,1,.568.9A.784.784,0,0,1,110.268,330.088Z"/>
    <path id="Path_146" data-name="Path 146" d="M124.329,341.043a56.1,56.1,0,0,1-13.368-1.682.746.746,0,0,1-.547-.9.757.757,0,0,1,.9-.547c10.947,2.713,18.82,1.22,18.883,1.2a.751.751,0,1,1,.295,1.472A33.617,33.617,0,0,1,124.329,341.043Z"/>
    <path id="Path_147" data-name="Path 147" d="M119.529,350.674a20.388,20.388,0,0,1-9.662-2.06.758.758,0,1,1,.737-1.325c5.936,3.322,15.83,1.2,15.936,1.177a.768.768,0,0,1,.9.568.777.777,0,0,1-.569.9A38.908,38.908,0,0,1,119.529,350.674Z"/>
    <g id="search">
      <path id="Path_148" data-name="Path 148" d="M226.3,219.584c0,12.68,3.6,22.963,8.041,22.963s8.042-10.283,8.042-22.963-3.6-22.963-8.042-22.963S226.3,206.9,226.3,219.584Z" fill="#fff"/>
      <path id="Path_149" data-name="Path 149" d="M237.881,243.3c-4.926,0-8.8-10.409-8.8-23.72,0-13.29,3.852-23.72,8.8-23.72,4.926,0,8.8,10.409,8.8,23.72S242.828,243.3,237.881,243.3Zm0-45.926c-3.516,0-7.284,8.937-7.284,22.206,0,13.29,3.768,22.206,7.284,22.206s7.283-8.937,7.283-22.206C245.185,206.294,241.417,197.378,237.881,197.378Z" fill="#80baff"/>
      <path id="Path_150" data-name="Path 150" d="M235.312,236.386a.728.728,0,0,1-.526-.211c-.211-.21-2.063-2.25-2.863-9.441a.74.74,0,0,1,.674-.82.726.726,0,0,1,.821.672c.715,6.666,2.421,8.538,2.442,8.559a.756.756,0,0,1-.021,1.051A.807.807,0,0,1,235.312,236.386Z" fill="#8758e7"/>
    </g>
    <path id="Path_151" data-name="Path 151" d="M80.816,363.333A299.222,299.222,0,0,1,48.8,361.4a.752.752,0,1,1,.189-1.493c.21.021,21.936,2.67,40.65,1.7a.758.758,0,1,1,.084,1.514C86.773,363.27,83.784,363.333,80.816,363.333Z" fill="#8758e7"/>
    <path id="Path_152" data-name="Path 152" d="M99.8,591.511H28.25a.757.757,0,1,1,0-1.514H99.8a.757.757,0,1,1,0,1.514Z" fill="#50447e"/>
    <path id="Path_153" data-name="Path 153" d="M207.63,591.511H135.149a.757.757,0,1,1,0-1.514h72.459a.757.757,0,0,1,.022,1.514Z" fill="#50447e"/>
    <path id="Path_154" data-name="Path 154" d="M169.148,591.511a.77.77,0,0,1-.758-.673c-.063-.589-6.021-59.258-14.294-93.891-9.515-39.87-46.944-82.578-47.323-83a.745.745,0,0,1,1.115-.988c.379.421,38.04,43.4,47.661,83.65,8.294,34.739,14.273,93.513,14.336,94.1a.74.74,0,0,1-.674.82C169.211,591.511,169.169,591.511,169.148,591.511Z" fill="#50447e"/>
    <path id="Path_155" data-name="Path 155" d="M186.114,591.511a.746.746,0,0,1-.736-.631c-.127-.8-11.916-78.561-16.968-102.891-6.021-29.082-46.566-86.09-46.966-86.679a.753.753,0,0,1,1.221-.883c.4.568,41.135,57.849,47.219,87.246,5.052,24.372,16.841,102.177,16.967,102.955a.76.76,0,0,1-.631.862A.191.191,0,0,1,186.114,591.511Z" fill="#50447e"/>
    <path id="Path_156" data-name="Path 156" d="M65.954,656.888a235.424,235.424,0,0,1-42.8-4.1.751.751,0,1,1,.295-1.472c.379.084,37.808,7.781,69.364,1.809a.751.751,0,1,1,.295,1.472A148.179,148.179,0,0,1,65.954,656.888Z" fill="#ffaf45"/>
    <path id="Path_157" data-name="Path 157" d="M199.9,655.184c-31.893,0-52.776-2.838-53.092-2.9a.737.737,0,0,1-.631-.842.726.726,0,0,1,.842-.63c.505.063,50.292,6.855,113.846-.652a.756.756,0,0,1,.842.652.771.771,0,0,1-.652.841A525.385,525.385,0,0,1,199.9,655.184Z" fill="#ffaf45"/>
  </g>
</svg>
