<svg id="sevices-image" xmlns="http://www.w3.org/2000/svg" xmlns:xlink="http://www.w3.org/1999/xlink" width="583" height="490" viewBox="0 0 583 490">
  <style>
    @keyframes pulse-small {
        0% {
          -webkit-transform: scale(1);
          transform: scale(1);
        }
        70% {
          -webkit-transform: scale(1.1);
          transform: scale(1.1);
        }
        100% {
          -webkit-transform: scale(1);
          transform: scale(1);
        }
    }

    @-webkit-keyframes rotating {
      0% {
        -webkit-transform: rotate(0deg);
        -o-transform: rotate(0deg);
        transform: rotate(0deg);
      }
      50% {
        -webkit-transform: rotate(180deg);
        -o-transform: rotate(180deg);
        transform: rotate(180deg);
      }
      100% {
        -webkit-transform: rotate(360deg);
        -o-transform: rotate(360deg);
        transform: rotate(360deg);
      }
    }
    @keyframes rotating {
      0% {
        -ms-transform: rotate(0deg);
        -moz-transform: rotate(0deg);
        -webkit-transform: rotate(0deg);
        -o-transform: rotate(0deg);
        transform: rotate(0deg);
      }
      50% {
        -ms-transform: rotate(180deg);
        -moz-transform: rotate(180deg);
        -webkit-transform: rotate(180deg);
        -o-transform: rotate(180deg);
        transform: rotate(180deg);
      }
      100% {
        -ms-transform: rotate(360deg);
        -moz-transform: rotate(360deg);
        -webkit-transform: rotate(360deg);
        -o-transform: rotate(360deg);
        transform: rotate(360deg);
      }
    }

    @keyframes pulse {
        0% {
          -webkit-transform: scale(1);
          transform: scale(1);
        }
        70% {
          -webkit-transform: scale(1.8);
          transform: scale(1.8);
        }
        100% {
          -webkit-transform: scale(1);
          transform: scale(1);
        }
    } 

    @-webkit-keyframes floating-up-down-20 {
        from { -webkit-transform: translate(0,  0px); transform: translate(0,  0px); }
        65%  { -webkit-transform: translate(0, -20px); transform: translate(0, -20px); }
        to   { -webkit-transform: translate(0, 0px); transform: translate(0, 0px); }    
    }

    #dot-1, #dot-2, #dot-3, #dot-4, #dot-5 {
      animation: pulse 2s ease-in-out infinite;
      -webkit-animation: pulse 2s ease-in-out infinite;
      -webkit-transform-origin: center; -ms-transform-origin: center; transform-origin: center; transform-box: fill-box;
    }

    #dot-1 { animation-delay: 1s; }
    #dot-2 { animation-delay: 1.3s; }
    #dot-3 { animation-delay: 1.8s; }
 
    #man {
      animation-duration: 3s; 
      animation-name: floating-up-down-20; 
      animation-iteration-count: infinite; 
      animation-timing-function: ease-in-out;
    } 

    #message-1, #message-2, #background {
      animation: pulse-small 2s ease-in-out infinite;
      -webkit-animation: pulse-small 2s ease-in-out infinite;
      -webkit-transform-origin: center; -ms-transform-origin: center; transform-origin: center; transform-box: fill-box;
    }

    #message-2 { animation-delay: 1s; }
    #background { animation-delay: .5s; }

    #circle {
      animation: rotating 2s ease-in-out infinite;
      -webkit-animation: rotating 2s ease-in-out infinite;
      -webkit-transform-origin: center; -ms-transform-origin: center; transform-origin: center; transform-box: fill-box;
    }

  </style> 
  <defs>
    <linearGradient id="linear-gradient" x1="0.5" x2="0.5" y2="1" gradientUnits="objectBoundingBox">
      <stop offset="0" stop-color="#e2209e"/>
      <stop offset="1" stop-color="#02201e"/>
    </linearGradient>
  </defs>
  <g id="background" opacity="0.2">
    <path id="Path_1" data-name="Path 1" d="M26.577,490h402.9c227.858-38.588,152.607-217.428,86.5-302.024C491.5-48,372.9,35.232,316.662,106.347,146.426,20.86,130.617,167.2,158.793,240.663-67.487,255.207,9.08,490,26.577,490Z" fill="url(#linear-gradient)"/>
  </g>
  <path id="Path_2" data-name="Path 2" d="M290.585,52.829V153.645a5.724,5.724,0,0,1-5.721,5.722H105.3a5.385,5.385,0,0,1-2.021-.386,4.39,4.39,0,0,1-.848-.4,5.718,5.718,0,0,1-2.853-4.948V52.829a5.737,5.737,0,0,1,5.722-5.736H284.864A5.737,5.737,0,0,1,290.585,52.829Z" fill="#2e2865"/>
  <path id="Path_3" data-name="Path 3" d="M290.585,150.421v3.225a5.724,5.724,0,0,1-5.721,5.721H105.716a7.7,7.7,0,0,1-2.437-.386,5.581,5.581,0,0,1-.862-.327l.015-.075,1.426-7.534,38.208-54.287,8.991,14.742,26.987-38.742L205.076,109.2l5.1-8.59,23.035,24.862,4.5-4.562,23.347,19.735,4.919-9.793,16.941,18.234,1.888-6.093Z" fill="#352f75"/>
  <path id="Path_4" data-name="Path 4" d="M277.953,159.368H105.3a5.552,5.552,0,0,1-2.883-.788,5.666,5.666,0,0,1-2.839-4.934v-6.88l31.565-57.438,7.846,16.5,23.57-43.349,23.613,40.763,4.459-9.615,20.121,27.82,3.938-5.112,20.4,22.083,4.28-10.968,14.817,20.4,1.634-6.821Z" fill="#b10073"/>
  <g id="dot-1">
    <path id="Path_5" data-name="Path 5" d="M131.143,95.227a4.815,4.815,0,1,0-4.815-4.815A4.815,4.815,0,0,0,131.143,95.227Z" fill="#5e1dbb"/>
  </g>
  <g id="dot-4">
    <path id="Path_6" data-name="Path 6" d="M215.551,121.16a4.815,4.815,0,1,0-4.815-4.815A4.815,4.815,0,0,0,215.551,121.16Z" fill="#5e1dbb"/>
  </g>
  <g id="dot-3">
    <path id="Path_7" data-name="Path 7" d="M195.431,91.409a4.815,4.815,0,1,1-4.815-4.815A4.814,4.814,0,0,1,195.431,91.409Z" fill="#5e1dbb"/>
  </g>
  <g id="dot-2">
    <path id="Path_8" data-name="Path 8" d="M167.374,62.474a4.815,4.815,0,1,1-4.815-4.815A4.814,4.814,0,0,1,167.374,62.474Z" fill="#5e1dbb"/>
  </g>
  <g id="dot-5">
    <path id="Path_9" data-name="Path 9" d="M244.694,127.446a4.815,4.815,0,1,1-4.815-4.815A4.814,4.814,0,0,1,244.694,127.446Z" fill="#5e1dbb"/>
  </g>
  <g id="circle">
    <path id="Path_10" data-name="Path 10" d="M57.7,63.277a37.171,37.171,0,0,1-2.14-49.828,35.26,35.26,0,0,1,2.482-2.734A36.994,36.994,0,0,1,83.054.029,32.8,32.8,0,0,1,86.472.1c.149,0,.327,0,.476.015.446.03.892.074,1.352.134.758.089,1.516.193,2.259.327s1.456.282,2.17.431c.089.03.163.045.267.074.58.149,1.159.3,1.739.476a.125.125,0,0,1,.089.03c.342.089.669.208,1.011.327a.936.936,0,0,1,.4.149c.8.267,1.59.58,2.393.921.49.208.981.416,1.472.639.312.134.624.282.921.446s.609.3.892.461c.579.312,1.159.654,1.723,1,.669.416,1.338.862,1.992,1.323a36.779,36.779,0,0,1,4.978,4.206,37.175,37.175,0,0,1,7.1,42.071,36.311,36.311,0,0,1-7.446,10.492A37.174,37.174,0,0,1,57.7,63.277Z" fill="#ffb700"/>
    <path id="Path_11" data-name="Path 11" d="M117.722,53.126,84.166,37.166,91,8.44l7.653-5.484a35.777,35.777,0,0,1,6.985,3.879,37.119,37.119,0,0,1,12.082,46.292Z" fill="#e2209e"/>
    <path id="Path_12" data-name="Path 12" d="M84.153,37.151,55.575,13.433A35.241,35.241,0,0,1,58.057,10.7,36.995,36.995,0,0,1,83.068.014a32.8,32.8,0,0,1,3.418.074Z" fill="#352f75"/>
    <path id="Path_13" data-name="Path 13" d="M84.152,37.151,83.067.029A32.8,32.8,0,0,1,86.485.1c.149,0,.312,0,.476.015.446.03.892.074,1.352.134.758.089,1.516.193,2.259.327s1.456.282,2.17.431c.089.03.163.045.268.074.58.149,1.159.3,1.739.476a.126.126,0,0,1,.089.03c.342.089.669.208,1.011.327a.936.936,0,0,1,.4.149,33.346,33.346,0,0,1,3.864,1.56c.312.134.624.282.921.446s.609.3.892.461c.579.312,1.159.654,1.724,1,.668.416,1.337.862,1.991,1.323Z" fill="#5e1dbb"/>
  </g>
  <g id="man">
    <path id="Path_15" data-name="Path 15" d="M275.668,141.409s-3.715-16.584-8.277-16.911c-4.563-.342-.981,13.345-.981,13.345l-12.35-4.726s-14.043-3.923-16.837-2.69,1.813,5.781,1.813,5.781-10-3-8.6,1.872,8.247,7.684,8.247,7.684-9.778-3.463-7.564,2.243c1.189,3.092,22.693,16.11,37.182,15.649s8.709-11.636,8.709-11.636Z" fill="#fd8753"/>
    <path id="Path_16" data-name="Path 16" d="M244.06,148.958a.659.659,0,0,1-.49-.222.641.641,0,0,1,.074-.907L256.083,137.2a.651.651,0,0,1,.906.074.639.639,0,0,1-.074.906L244.476,148.81A.62.62,0,0,1,244.06,148.958Z"/>
    <path id="Path_19" data-name="Path 19" d="M270.214,155.022c-.237-.015-4.458-.387-6.434-3.864-1.635-2.883-1.174-6.925,1.352-12.052a.644.644,0,1,1,1.159.564c-2.333,4.711-2.794,8.352-1.4,10.834,1.62,2.883,5.335,3.225,5.365,3.225a.658.658,0,0,1,.594.7A.645.645,0,0,1,270.214,155.022Z"/>
    <g id="Group_1" data-name="Group 1">
      <path id="Path_14" data-name="Path 14" d="M418.093,420.437s-64.392-15.976-71.9-67.424c-9.229-63.307,7.133-94.322,7.133-94.322L395.4,311.774l12.632,64.14,16.629,12.721,9.259,20.745Z" fill="#f47745"/>
      <path id="Path_17" data-name="Path 17" d="M458.842,397a4.755,4.755,0,0,0-3.834-5.335c-10.1-2.259-32.5-8.545-32.916-6.7-.521,2.348.668,27.418.668,27.418s-14.162-2.452-13.82,7.862c.267,7.906,7.252,18.561,10.477,23.094a8.676,8.676,0,0,1,1.634,4.814c.193,7.357,1.65,27.8,11.874,30.361,12.5,3.136,12.186-2.229,12.706-4.577C446.092,471.915,456.034,413.5,458.842,397Z" fill="#9364ed"/>
      <path id="Path_18" data-name="Path 18" d="M425.689,423.751a.652.652,0,0,1-.639-.565l-1.6-12.483a.637.637,0,1,1,1.263-.164l1.6,12.483a.639.639,0,0,1-.55.714A.111.111,0,0,1,425.689,423.751Z" fill="#fff"/>
      <path id="Path_20" data-name="Path 20" d="M373.778,311.774s3.686,123.316,8.634,136.349,31.966,0,31.966,0l6.39-133.614Z" fill="#fd8753"/>
      <path id="Path_21" data-name="Path 21" d="M343.776,222.1s-4.83,27.315-4.83,47.689-2.392,42.725,0,44.716,26.066,8.664,54.7,7.163c28.637-1.486,37.212-8.173,36.736-10.551s-3.819-4.369-3.819-4.369,1.9-58.879-5.722-74.646-40.183-19.2-40.183-19.2h-35Z" fill="#e2209e"/>
      <path id="Path_22" data-name="Path 22" d="M392.89,219.5s-34,2.08-47.659-4.562l.8-40.868s7.416-52.34,18.041-53.454,23.555.891,23.555.891l33.957,48.283Z" fill="#ffb700"/>
      <path id="Path_23" data-name="Path 23" d="M411.883,479.271a4.777,4.777,0,0,0,4.577-4.711c.431-10.358,2.645-33.511.758-33.585-2.407-.1-26.868,5.513-26.868,5.513s-.1-14.371-10.2-12.2c-7.742,1.665-16.986,10.418-20.865,14.4a8.61,8.61,0,0,1-4.443,2.467c-7.207,1.486-30.509,6.509-31.223,17.031-.876,12.854,4.355,11.591,6.762,11.7C332.467,479.97,395.15,479.435,411.883,479.271Z" fill="#9364ed"/>
      <path id="Path_24" data-name="Path 24" d="M387.557,213.009s-25.784,4.265-30.881,8.961,7.267,22.693,10.432,25.6,25.8-11.9,25.8-11.9l3.269-12.929Z" fill="#fd8753"/>
      <path id="Path_25" data-name="Path 25" d="M356.676,221.955s-10.774,15.4-8.99,21.757,14.756-13.3,14.756-13.3Z" fill="#fd8753"/>
      <path id="Path_26" data-name="Path 26" d="M375.652,243.295s13.345-1.887,10.715,2.958-16.9,4-19.26,1.322,5.082-9.986,5.082-9.986Z" fill="#fd8753"/>
      <path id="Path_27" data-name="Path 27" d="M377.389,244.871a.639.639,0,0,1-.594-.417.661.661,0,0,1,.371-.832l2.735-1.04-2.111-1.56a.638.638,0,0,1,.758-1.026l3.062,2.259a.636.636,0,0,1,.252.609.622.622,0,0,1-.4.506l-3.834,1.456A.735.735,0,0,1,377.389,244.871Z"/>
      <path id="Path_28" data-name="Path 28" d="M358.22,235.478a.754.754,0,0,1-.237-.044.661.661,0,0,1-.372-.832c.253-.639,2.437-6.257,3.775-7.4a.643.643,0,0,1,.832.981c-.817.7-2.526,4.592-3.418,6.88A.575.575,0,0,1,358.22,235.478Z"/>
      <path id="Path_29" data-name="Path 29" d="M362.307,241.987a.723.723,0,0,1-.3-.074.645.645,0,0,1-.283-.862l4.637-9.154a.641.641,0,1,1,1.144.58l-4.636,9.154A.611.611,0,0,1,362.307,241.987Z"/>
      <path id="Path_30" data-name="Path 30" d="M387.645,121.511s63.278,7.252,62.371,73.308c-.55,40.5-55.134,52.623-55.134,52.623L378.03,205.727l28.162-16.109Z" fill="#ffb700"/>
      <path id="Path_31" data-name="Path 31" d="M378.952,451.333a.653.653,0,0,1-.609-.446.634.634,0,0,1,.416-.8l12.008-3.789a.639.639,0,0,1,.386,1.218l-12.008,3.79A.447.447,0,0,1,378.952,451.333Z" fill="#fff"/>
      <path id="Path_32" data-name="Path 32" d="M385.892,201.863a.628.628,0,0,1-.506-.252.658.658,0,0,1,.119-.907c.728-.55,17.759-13.493,24.58-15.9a.639.639,0,0,1,.431,1.2c-6.643,2.348-24.06,15.574-24.238,15.708A.576.576,0,0,1,385.892,201.863Z" fill="#fff"/>
      <path id="Path_33" data-name="Path 33" d="M401.613,190.509a.638.638,0,0,1-.386-.133.659.659,0,0,1-.238-.7c.119-.386,2.868-9.645,6.806-11.4a3.164,3.164,0,0,1,2.764.03,2.192,2.192,0,0,1,1.4,1.857c.223,3.537-8.961,9.571-10,10.239A.7.7,0,0,1,401.613,190.509Zm7.564-11.249a1.949,1.949,0,0,0-.847.193c-2.3,1.025-4.414,5.766-5.528,8.827,3.6-2.511,7.995-6.212,7.876-8.04-.015-.208-.089-.505-.669-.787A2.06,2.06,0,0,0,409.177,179.26Z" fill="#fff"/>
      <path id="Path_34" data-name="Path 34" d="M264.255,166.985s14.712,20.24,42.071,23.317c27.359,3.061,44.271-11.9,44.271-11.9l12.527-57.541s-27.76,13.612-50.527,22.306c-13.4,5.112-35.413-5.707-35.413-5.707Z" fill="#ffb700"/>
      <path id="Path_35" data-name="Path 35" d="M314.127,158.989a2.536,2.536,0,0,1-1.9-.8c-2.868-3-.52-13.94-.238-15.173a.613.613,0,0,1,.535-.49.64.64,0,0,1,.654.327c.579,1.07,5.6,10.58,3.745,14.474a2.889,2.889,0,0,1-2.185,1.62A4.312,4.312,0,0,1,314.127,158.989ZM312.879,145.1c-.7,3.878-1.457,10.417.267,12.215a1.383,1.383,0,0,0,1.352.372,1.6,1.6,0,0,0,1.264-.922C316.891,154.4,314.528,148.527,312.879,145.1Z" fill="#fff"/>
      <path id="Path_36" data-name="Path 36" d="M346.242,180.954a.651.651,0,0,1-.624-.475c-5.142-19.795,3.388-36.528,3.477-36.692a.639.639,0,0,1,1.13.6c-.089.163-8.382,16.48-3.374,35.785a.647.647,0,0,1-.46.787Z" fill="#fff"/>
      <path id="Path_37" data-name="Path 37" d="M361.935,72.351a62.7,62.7,0,0,0-8.01,21.756c-1.62,10.016-2.407,20.478-2.407,20.478l19.022.535-2.334-32.946Z" fill="#5e1dbb"/>
      <path id="Path_38" data-name="Path 38" d="M389.845,75.338s6.88-1.754,8.649,16.7,1.8,20.464,1.8,20.464l-17.135,1.5.387-33.036Z" fill="#5e1dbb"/>
      <path id="Path_39" data-name="Path 39" d="M385.144,105.654l.951,14.593s-2.363,4.369-10.848,5.618c-6.331.936-8.664-.357-8.664-.357l.4-7.445.4-7.267,15.2-4.4Z" fill="#fd8753"/>
      <path id="Path_40" data-name="Path 40" d="M382.607,106.4a5.265,5.265,0,0,1-.327,1.441c-2.794,7.505-11.621,9.66-15.277,10.225l.4-7.267Z"/>
      <path id="Path_41" data-name="Path 41" d="M361.976,77.73s-6.464,18.8-2.779,28.77,12.855,7.609,18.249,5.187a18.428,18.428,0,0,0,7.713-6.049,7.879,7.879,0,0,0,8.426-3.774c3.091-5.112.491-10.492-2.571-11.518s-6.42,1.4-6.42,1.4l2.334-5.5C386.913,86.26,373.107,60.387,361.976,77.73Z" fill="#fd8753"/>
      <path id="Path_42" data-name="Path 42" d="M366.021,100.334a.64.64,0,0,1-.594-.4c-1.546-3.8.847-8.01.951-8.188a.642.642,0,0,1,1.114.639c-.015.044-2.184,3.849-.877,7.059a.64.64,0,0,1-.356.832A.468.468,0,0,1,366.021,100.334Z"/>
      <path id="Path_43" data-name="Path 43" d="M386.053,100.3a.625.625,0,0,1-.416-.149.669.669,0,0,1-.1-.951l4.473-5.662a.677.677,0,0,1,1.056.847l-4.474,5.662A.726.726,0,0,1,386.053,100.3Z"/>
      <path id="Path_44" data-name="Path 44" d="M391.151,98.446c-.045,0-3.492-.223-3.492-.223a.668.668,0,0,1-.625-.713.643.643,0,0,1,.714-.624l3.462.223a.666.666,0,0,1,.624.713A.7.7,0,0,1,391.151,98.446Z"/>
      <path id="Path_45" data-name="Path 45" d="M375.384,86.557a.673.673,0,0,1-.55-.3c-.936-1.486-3.062-.862-3.151-.832a.646.646,0,0,1-.386-1.233c.134-.045,3.15-.951,4.607,1.382a.648.648,0,0,1-.193.892A.6.6,0,0,1,375.384,86.557Z"/>
      <path id="Path_46" data-name="Path 46" d="M360.908,86.572a.578.578,0,0,1-.342-.1.648.648,0,0,1-.208-.877,3.627,3.627,0,0,1,5.023-1.07.638.638,0,1,1-.594,1.13,2.354,2.354,0,0,0-3.329.609A.653.653,0,0,1,360.908,86.572Z"/>
      <path id="Path_47" data-name="Path 47" d="M372.843,93.245a.65.65,0,0,1-.639-.669l.119-3.2-1.04-1.352a.646.646,0,0,1,1.025-.788l1.174,1.546a.7.7,0,0,1,.134.416l-.134,3.418A.651.651,0,0,1,372.843,93.245Z"/>
      <path id="Path_48" data-name="Path 48" d="M362.264,93.393a.643.643,0,0,1-.639-.684l.178-3.15-1.248-1.382a.642.642,0,1,1,.951-.862l1.426,1.575a.624.624,0,0,1,.164.475l-.193,3.418A.639.639,0,0,1,362.264,93.393Z"/>
      <path id="Path_49" data-name="Path 49" d="M358.682,82.233a93.181,93.181,0,0,1,9.348-.817l3.507-.015,1.412-4.562.446,5.112s3.7,1.1,4.859,2.155a25.252,25.252,0,0,1,2.868,3.76l1.68-2.63-.208,10.655s1.352-5.023,4.8-5.261,4.592.327,4.592.327,2.036-10.388,1.278-13.182a3.122,3.122,0,0,0-3.418-2.422s-3.671-9.407-17.6-8.188C358.341,68.368,358.682,82.233,358.682,82.233Z" fill="#5e1dbb"/>
      <path id="Path_50" data-name="Path 50" d="M369.468,105.936a4.882,4.882,0,0,1-2.9-1.323.63.63,0,0,1-.193-.594.64.64,0,0,1,.386-.476l4.83-1.917a.625.625,0,0,1,.639.1.639.639,0,0,1,.223.609c-.342,1.932-1.1,3.106-2.214,3.478A2.334,2.334,0,0,1,369.468,105.936Zm-1.129-1.635a1.55,1.55,0,0,0,2.541-1.025Z"/>
      <path id="Path_51" data-name="Path 51" d="M366.9,118.271a4.575,4.575,0,0,0-2.2,4.22c0,1.011-.505,6.42,8.055,7.743,9.837,1.516,15.945-6.48,16.391-8.5s-2.823-6.39-3.106-6.672-.535,2.14-.535,2.14S371.982,126.89,366.9,118.271Z" fill="#07cbf5"/>
      <path id="Path_52" data-name="Path 52" d="M371.609,126.815a17.014,17.014,0,0,0-7.4,9.764c-1.991,6.836-3.3,18.427-3.3,18.427s7.148-4.057,10.863-9.956c3.731-5.885,2.453-18.472,2.453-18.472Z" fill="#07cbf5"/>
      <path id="Path_53" data-name="Path 53" d="M376.276,126.815a17.014,17.014,0,0,1,7.4,9.764c1.991,6.836,3.3,18.427,3.3,18.427s-7.148-4.057-10.863-9.956c-3.73-5.885-2.452-18.472-2.452-18.472Z" fill="#07cbf5"/>
      <path id="Path_54" data-name="Path 54" d="M374.032,130.724a8.241,8.241,0,0,1-4.428-1,.627.627,0,0,1-.164-.891.644.644,0,0,1,.892-.179c.059.045,2.853,1.769,8.768-.074a.639.639,0,1,1,.386,1.218A18.381,18.381,0,0,1,374.032,130.724Z" fill="#fff"/>
      <path id="Path_55" data-name="Path 55" d="M379.026,140.057a2.434,2.434,0,0,1-1.635-.639c-2.289-2.051-2.229-8.6-2.2-9.348a.64.64,0,0,1,.431-.594.66.66,0,0,1,.714.208c.921,1.129,5.454,6.925,4.517,9.3a1.68,1.68,0,0,1-1.471,1.055C379.263,140.042,379.145,140.057,379.026,140.057Zm-2.512-8.025c.134,2.274.565,5.38,1.739,6.42a1.1,1.1,0,0,0,.951.3c.371-.045.416-.193.446-.253C380.051,137.486,378.3,134.5,376.514,132.032Z" fill="#fff"/>
    </g>
  </g>
  <g id="message-2">
    <path id="Path_56" data-name="Path 56" d="M432.749,68.457c19.755,0,35.77-11.045,35.77-24.669S452.5,19.119,432.749,19.119s-35.77,11.045-35.77,24.669S412.993,68.457,432.749,68.457Z" fill="#e7e3ff"/>
    <path id="Path_57" data-name="Path 57" d="M432.747,63.3,403.5,82.961l12.082-22.975Z" fill="#e7e3ff"/>
  </g>
  <path id="Path_58" data-name="Path 58" d="M136.97,124.187A6.189,6.189,0,1,0,130.663,118,6.027,6.027,0,0,0,136.97,124.187Zm0-2.5A3.692,3.692,0,1,1,140.523,118,3.47,3.47,0,0,1,136.97,121.688Zm12.313-8.313a2.779,2.779,0,0,1,.731.085l.051-2.006a5.723,5.723,0,0,0-1.122-.1c-2.312,0-3.4,1-3.4,3.264v.833h-1.309v2.21h1.309V124h2.533v-6.341h1.87v-2.21h-1.87v-.578C148.076,113.579,148.416,113.375,149.283,113.375Zm6.409,0a2.779,2.779,0,0,1,.731.085l.051-2.006a5.723,5.723,0,0,0-1.122-.1c-2.312,0-3.4,1-3.4,3.264v.833h-1.309v2.21h1.309V124h2.533v-6.341h1.87v-2.21h-1.87v-.578C154.485,113.579,154.825,113.375,155.692,113.375Zm10.153,6.341a4.107,4.107,0,0,0-4.284-4.454,4.3,4.3,0,0,0-4.522,4.454c0,2.618,1.8,4.471,4.743,4.471a4.712,4.712,0,0,0,3.978-1.683l-1.8-1.377a2.634,2.634,0,0,1-2.108.918c-1.326,0-2.091-.646-2.244-1.547h6.188C165.811,120.243,165.845,119.937,165.845,119.716Zm-4.318-2.5a1.83,1.83,0,0,1,1.836,1.6h-3.757A1.88,1.88,0,0,1,161.527,117.217ZM169.776,124v-3.927c0-1.241.629-2.193,1.9-2.193a5.786,5.786,0,0,1,.9.068l.068-2.669a3.01,3.01,0,0,0-.391-.017,2.741,2.741,0,0,0-2.533,1.564v-1.377h-2.482V124Zm18.166,0-4.131-12h-3.094l-4.148,12h2.822l.748-2.363h4.25l.748,2.363Zm-7.072-4.709,1.394-4.556,1.377,4.556Zm11.221,4.9a2.86,2.86,0,0,0,2.567-1.326V124h2.533V111.539h-2.533v5.049a2.815,2.815,0,0,0-2.55-1.326c-2.244,0-3.808,1.785-3.808,4.454S189.864,124.187,192.091,124.187Zm.714-2.295a2.179,2.179,0,0,1,0-4.335,2.186,2.186,0,0,1,0,4.335Zm9.426,2.295c2.431,0,3.57-.986,3.57-2.839,0-1.7-1.173-2.176-3.026-2.55-1.071-.2-1.615-.408-1.615-.833,0-.51.493-.7,1.088-.7a1.834,1.834,0,0,1,1.632.833l1.8-1.275a4,4,0,0,0-3.57-1.564c-1.938,0-3.4.867-3.4,2.737,0,1.751,1.428,2.346,2.958,2.635,1.292.255,1.581.442,1.581.9,0,.493-.34.731-1,.731a2.531,2.531,0,0,1-2.108-1.122l-1.734,1.207C199,123.558,200.361,124.187,202.231,124.187Z" fill="#fff"/>
  <path id="Path_59" data-name="Path 59" d="M130,118.883h76.209v.85H130Z" fill="#fff"/>
  <path id="Path_60" data-name="Path 60" d="M141.764,96.481,139.554,88h-2.448l-2.193,8.483L132.975,88h-2.924l3.247,12h2.8l2.227-7.5,2.227,7.5h2.788l3.264-12h-2.924Zm13.356-.765a4.107,4.107,0,0,0-4.284-4.454,4.3,4.3,0,0,0-4.522,4.454c0,2.618,1.8,4.471,4.743,4.471a4.712,4.712,0,0,0,3.978-1.683l-1.8-1.377a2.634,2.634,0,0,1-2.108.918c-1.326,0-2.091-.646-2.244-1.547h6.188C155.086,96.243,155.12,95.937,155.12,95.716Zm-4.318-2.5a1.83,1.83,0,0,1,1.836,1.6h-3.757A1.88,1.88,0,0,1,150.8,93.217Zm15.3,6.97A6.189,6.189,0,1,0,159.8,94,6.027,6.027,0,0,0,166.106,100.187Zm0-2.5A3.692,3.692,0,1,1,169.659,94,3.47,3.47,0,0,1,166.106,97.688ZM176.549,100V95.546c0-1.173.629-2.023,1.666-2.023.935,0,1.445.51,1.445,1.938V100h2.516V94.968c0-2.482-1.122-3.706-3.026-3.706a3.018,3.018,0,0,0-2.652,1.343V91.449h-2.482V100Zm10.013,0V87.539h-2.6V100Zm5.688-2.652-1.8-5.9h-2.822l3.434,8.5-1.275,3.383h2.635l4.352-11.883h-2.805Z" fill="#fff"/>
  <path id="Path_61" data-name="Path 61" d="M130,94.883h66.874v.85H130Z" fill="#fff"/>
  <path id="Path_62" data-name="Path 62" d="M262.641,80.895c-.253,5.79-2.331,10.517-7.162,13.748a14.5,14.5,0,0,1-9.44,2.257,14.915,14.915,0,0,1-13.785-12.53,14.222,14.222,0,0,1,2.255-10.826,15.905,15.905,0,0,1,5.834-5.162,17.484,17.484,0,0,1,4.379-1.8,15.81,15.81,0,0,1,6.252.009,14.327,14.327,0,0,1,7.281,3.356,12.471,12.471,0,0,1,3.962,7.3C262.44,78.483,262.513,79.747,262.641,80.895Zm-.809-.415c-.14-1.126-.21-2.265-.434-3.374a11.415,11.415,0,0,0-6.27-8.377,16.9,16.9,0,0,0-5.817-1.579,12.087,12.087,0,0,0-10.272,3.479c-3.422,3.359-5.071,7.392-4.257,12.245a13.589,13.589,0,0,0,16.385,11.009A13.752,13.752,0,0,0,261.832,80.48Z" fill="#fff"/>
  <path id="Path_63" data-name="Path 63" d="M259.9,65.341c-.06.175-.1.278-.131.386-.277,1.032-.561,2.061-.82,3.1-.067.271-.136.5-.46.463s-.361-.276-.324-.559a13.765,13.765,0,0,1,.922-3.416c.09-.221.249-.376.486-.286C259.708,65.076,259.8,65.241,259.9,65.341Z" fill="#fff"/>
  <path id="Path_64" data-name="Path 64" d="M261.084,70.553c-.115-.1-.3-.186-.321-.3a.556.556,0,0,1,.142-.451c.465-.4.959-.758,1.441-1.133.355-.275.712-.548,1.063-.827.222-.176.457-.252.652,0,.18.235.066.443-.147.608q-1.244.96-2.489,1.919A2.817,2.817,0,0,1,261.084,70.553Z" fill="#fff"/>
  <path id="Path_65" data-name="Path 65" d="M263.313,73.352h-.486c-.249,0-.422-.125-.424-.375,0-.266.178-.384.441-.4.545-.04,1.092-.078,1.634-.148a5.907,5.907,0,0,0,.9-.218c.276-.082.549-.115.65.213.11.356-.15.489-.444.55-.752.155-1.506.3-2.259.454C263.323,73.4,263.318,73.376,263.313,73.352Z" fill="#fff"/>
  <path id="Path_66" data-name="Path 66" d="M246.044,82.759c1.35-1.258,2.647-2.5,3.987-3.7,1.322-1.183,2.68-2.326,4.037-3.467a1.471,1.471,0,0,1,2.3,1.673,1.817,1.817,0,0,1-.437.6q-4.811,4.346-9.636,8.675c-.424.382-.513.391-.936-.014-1.2-1.149-2.4-2.3-3.574-3.47a1.526,1.526,0,0,1-.375-1.663,1.659,1.659,0,0,1,2.842-.556C244.852,81.469,245.445,82.111,246.044,82.759Z" fill="#fff"/>
  <path id="Path_67" data-name="Path 67" d="M235,188.581v83.181a13.541,13.541,0,0,1-13.558,13.53H64.558A13.534,13.534,0,0,1,51,271.762V188.581a13.541,13.541,0,0,1,13.558-13.53h156.9A13.546,13.546,0,0,1,235,188.581Z" fill="#2e2865"/>
  <path id="Path_68" data-name="Path 68" d="M234.207,190.12H51.793v.793H234.207Z" fill="#3e3789"/>
  <path id="Path_69" data-name="Path 69" d="M234.207,210.74v.793H52.1a.485.485,0,0,1-.306-.105v-.583a.491.491,0,0,1,.306-.1Z" fill="#3e3789"/>
  <path id="Path_70" data-name="Path 70" d="M234.207,229.8v.741a.4.4,0,0,1-.153.029H51.793v-.789H234.054A.269.269,0,0,1,234.207,229.8Z" fill="#3e3789"/>
  <path id="Path_71" data-name="Path 71" d="M234.207,250.4v.794H51.935a.34.34,0,0,1-.142-.029v-.745a.325.325,0,0,1,.142-.02Z" fill="#3e3789"/>
  <path id="Path_72" data-name="Path 72" d="M234.207,270.242v.746a.4.4,0,0,1-.153.028H51.793v-.793H234.054A.4.4,0,0,1,234.207,270.242Z" fill="#3e3789"/>
  <path id="Path_73" data-name="Path 73" d="M65.212,175h-.978V285.292h.978Z" fill="#3e3789"/>
  <path id="Path_74" data-name="Path 74" d="M85.542,175h-.978V285.292h.978Z" fill="#3e3789"/>
  <path id="Path_75" data-name="Path 75" d="M104.682,175H103.7V285.292h.978Z" fill="#3e3789"/>
  <path id="Path_76" data-name="Path 76" d="M125,175h-.979V285.292H125Z" fill="#3e3789"/>
  <path id="Path_77" data-name="Path 77" d="M145.347,175h-.978V285.292h.978Z" fill="#3e3789"/>
  <path id="Path_78" data-name="Path 78" d="M165.134,175h-.979V285.292h.979Z" fill="#3e3789"/>
  <path id="Path_79" data-name="Path 79" d="M185.464,175h-.979V285.292h.979Z" fill="#3e3789"/>
  <path id="Path_80" data-name="Path 80" d="M204.593,175h-.978V285.292h.978Z" fill="#3e3789"/>
  <path id="Path_81" data-name="Path 81" d="M224.925,175h-.979V285.292h.979Z" fill="#3e3789"/>
  <path id="Path_82" data-name="Path 82" d="M115.247,228.985A17.451,17.451,0,1,1,97.8,211.533,17.458,17.458,0,0,1,115.247,228.985Z" fill="#38317b"/>
  <path id="Path_83" data-name="Path 83" d="M213.586,193.292a3.173,3.173,0,1,1-3.172-3.172A3.173,3.173,0,0,1,213.586,193.292Z" fill="#ffb700"/>
  <path id="Path_84" data-name="Path 84" d="M136.462,222.775v-5.784l3.748,5.784h2.1v-9.519h-2.1v5.784l-3.748-5.784h-2.1v9.519Zm10.756.148a3.54,3.54,0,1,0-3.641-3.546A3.459,3.459,0,0,0,147.218,222.923Zm0-1.82a1.721,1.721,0,1,1,1.631-1.726A1.6,1.6,0,0,1,147.218,221.1Zm12.385,1.82a4.908,4.908,0,1,0-5-4.908A4.78,4.78,0,0,0,159.6,222.923Zm0-1.982a2.928,2.928,0,1,1,2.818-2.926A2.752,2.752,0,0,1,159.6,220.941Zm10.427.081a2.016,2.016,0,0,1-.809.162c-.553,0-.8-.3-.8-1.079v-2.359h1.618v-1.753h-1.618v-1.645h-2.009v1.645h-1.051v1.753h1.051v2.723c0,1.5.553,2.441,2.319,2.441a3.847,3.847,0,0,0,1.362-.229Zm3.162,1.753v-3.533a1.436,1.436,0,0,1,1.362-1.6c.755,0,1.159.4,1.159,1.537v3.6h2.009v-3.991c0-1.968-.89-2.939-2.413-2.939a2.465,2.465,0,0,0-2.117,1.024v-3.977h-2.009v9.883Zm12.538-3.4a3.257,3.257,0,0,0-3.4-3.532,3.543,3.543,0,1,0,.175,7.078,3.735,3.735,0,0,0,3.155-1.335l-1.429-1.092a2.086,2.086,0,0,1-1.672.728c-1.051,0-1.658-.512-1.779-1.227h4.907C185.7,219.795,185.73,219.553,185.73,219.377ZM182.3,217.4a1.451,1.451,0,0,1,1.456,1.268h-2.979A1.49,1.49,0,0,1,182.3,217.4Zm6.542,5.38V219.66c0-.984.5-1.739,1.51-1.739a4.644,4.644,0,0,1,.715.054l.054-2.117a2.473,2.473,0,0,0-.31-.013,2.174,2.174,0,0,0-2.009,1.24v-1.092h-1.969v6.782Zm-51.4,21.135c2.131,0,3.425-1.038,3.425-2.94,0-1.806-1.254-2.48-2.858-2.8-1.295-.256-1.78-.445-1.78-1.2,0-.647.458-1,1.146-1a1.711,1.711,0,0,1,1.591,1.052l1.672-1.106a3.425,3.425,0,0,0-3.357-1.793c-1.861,0-3.223,1.065-3.223,2.9,0,1.928,1.348,2.589,3.034,2.966,1.159.256,1.6.486,1.6,1.106,0,.674-.553.971-1.348.971a2.121,2.121,0,0,1-1.982-1.119l-1.6,1.226C134.3,243.249,135.64,243.91,137.446,243.91Zm11.18-3.533a3.257,3.257,0,0,0-3.4-3.532,3.543,3.543,0,1,0,.175,7.078,3.735,3.735,0,0,0,3.155-1.335l-1.429-1.092a2.086,2.086,0,0,1-1.672.728c-1.051,0-1.658-.512-1.779-1.227h4.907C148.6,240.795,148.626,240.553,148.626,240.377ZM145.2,238.4a1.451,1.451,0,0,1,1.456,1.268h-2.979A1.491,1.491,0,0,1,145.2,238.4Zm6.542,5.38V240.66c0-.984.5-1.739,1.51-1.739a4.644,4.644,0,0,1,.715.054l.054-2.117a2.473,2.473,0,0,0-.31-.013,2.175,2.175,0,0,0-2.009,1.24v-1.092h-1.969v6.782Zm6.264-2.09-1.429-4.692h-2.224l2.561,6.782H159.1l2.521-6.782H159.4Zm5.525-5.555a1.154,1.154,0,0,0,1.187-1.146,1.122,1.122,0,0,0-1.187-1.1,1.11,1.11,0,0,0-1.173,1.1A1.143,1.143,0,0,0,163.532,236.13Zm1.025,7.645v-6.782h-2.049v6.782Zm4.887.148a3.077,3.077,0,0,0,3.1-1.887l-1.712-.931a1.425,1.425,0,0,1-1.4,1.012,1.613,1.613,0,0,1-1.645-1.74,1.585,1.585,0,0,1,1.6-1.726,1.474,1.474,0,0,1,1.348.863l1.7-.97a3.259,3.259,0,0,0-3.074-1.7,3.541,3.541,0,1,0,.081,7.078Zm10.571-3.546a3.257,3.257,0,0,0-3.4-3.532,3.543,3.543,0,1,0,.175,7.078,3.737,3.737,0,0,0,3.155-1.335l-1.429-1.092a2.087,2.087,0,0,1-1.672.728c-1.052,0-1.658-.512-1.78-1.227h4.908C179.988,240.795,180.015,240.553,180.015,240.377Zm-3.424-1.982a1.452,1.452,0,0,1,1.456,1.268h-2.98A1.492,1.492,0,0,1,176.591,238.4Zm7.1,5.528c1.928,0,2.831-.782,2.831-2.251,0-1.349-.93-1.726-2.4-2.023-.849-.162-1.281-.323-1.281-.66,0-.4.391-.553.863-.553a1.457,1.457,0,0,1,1.295.66l1.429-1.011a3.172,3.172,0,0,0-2.832-1.24c-1.537,0-2.7.687-2.7,2.17,0,1.389,1.132,1.861,2.346,2.09,1.024.2,1.254.351,1.254.715,0,.391-.27.58-.8.58a2.01,2.01,0,0,1-1.672-.89l-1.375.957A3.117,3.117,0,0,0,183.686,243.923Z" fill="#fff"/>
  <path id="Path_85" data-name="Path 85" d="M133.482,218.717h57.9v.674h-57.9Zm0,21h53.359v.674H133.482Z" fill="#fff"/>
  <path id="Path_86" data-name="Path 86" d="M114.531,229.038a16.7,16.7,0,1,1-16.672-16.711A16.7,16.7,0,0,1,114.531,229.038Zm-3.2-.01a13.488,13.488,0,1,0-13.477,13.491A13.495,13.495,0,0,0,111.329,229.028Z" fill="#e5e4ec"/>
  <path id="Path_87" data-name="Path 87" d="M97.858,233.785c-1.118,1.119-2.172,2.19-3.248,3.24a.99.99,0,0,1-.6.251c-.818.03-1.637.024-2.456.01a.65.65,0,0,1-.409-.173c-.924-.908-1.836-1.828-2.751-2.745-.3-.307-.306-.383,0-.689q2.163-2.168,4.332-4.328a2.6,2.6,0,0,1,.393-.266l-3.076-3.061c-.562-.56-1.12-1.127-1.688-1.682a.37.37,0,0,1-.01-.619c.945-.939,1.882-1.886,2.829-2.823a.5.5,0,0,1,.316-.131c.88-.011,1.761-.018,2.64.005a.766.766,0,0,1,.464.228c.994.976,1.976,1.964,2.961,2.951.086.086.158.186.328.388a2.727,2.727,0,0,1,.276-.421c.963-.973,1.926-1.946,2.909-2.9a.983.983,0,0,1,.6-.247c.78-.028,1.564-.026,2.345,0a.927.927,0,0,1,.57.231c.9.875,1.789,1.772,2.678,2.663.315.314.315.406,0,.719q-2.163,2.166-4.331,4.33a4.229,4.229,0,0,1-.328.269c.123.13.2.219.288.3q2.177,2.18,4.355,4.357c.328.329.331.428.009.75-.889.891-1.775,1.785-2.677,2.663a.836.836,0,0,1-.506.221q-1.264.036-2.53.005a.77.77,0,0,1-.465-.23c-.986-.967-1.96-1.948-2.934-2.926C98.052,234.032,97.974,233.922,97.858,233.785Zm-6.351-12.251-2.6,2.582a2.588,2.588,0,0,1,.262.205q2.168,2.163,4.331,4.329c.339.339.339.411.006.744q-2.163,2.166-4.33,4.331c-.093.093-.181.19-.246.258l2.6,2.611a1.768,1.768,0,0,1,.207-.318q2.146-2.157,4.3-4.306c.37-.37.435-.372.8-.009q2.147,2.155,4.291,4.317a1.242,1.242,0,0,1,.178.269c.91-.911,1.752-1.75,2.6-2.6-1.494-1.491-3.024-3.02-4.555-4.549-.335-.335-.334-.409,0-.745q2.125-2.127,4.255-4.25a3.125,3.125,0,0,1,.393-.295c-.911-.91-1.747-1.747-2.648-2.648a2.313,2.313,0,0,1-.223.311q-2.158,2.172-4.322,4.339c-.323.324-.42.323-.748,0q-1.674-1.671-3.345-3.345C92.291,222.337,91.875,221.909,91.507,221.534Z"/>
  <path id="Path_88" data-name="Path 88" d="M91.508,221.534c.368.375.784.8,1.205,1.226q1.67,1.674,3.345,3.345c.327.327.424.328.748,0q2.163-2.169,4.323-4.339a2.313,2.313,0,0,0,.223-.311L104,224.107a3.329,3.329,0,0,0-.393.295q-2.13,2.121-4.254,4.25c-.336.336-.336.411,0,.745l4.554,4.549c-.851.851-1.692,1.69-2.6,2.6a1.281,1.281,0,0,0-.178-.269q-2.142-2.163-4.291-4.317c-.363-.364-.427-.362-.8.009q-2.153,2.151-4.3,4.306a1.671,1.671,0,0,0-.207.318l-2.6-2.611c.065-.068.154-.165.246-.258q2.165-2.168,4.33-4.331c.333-.334.333-.4-.006-.744q-2.163-2.166-4.331-4.329a2.453,2.453,0,0,0-.262-.205C89.792,223.237,90.636,222.4,91.508,221.534Z" fill="#e2209e"/>
  <g id="message-1">
    <path id="Path_89" data-name="Path 89" d="M238.462,260.555c19.033,0,34.463-10.646,34.463-23.778S257.495,213,238.462,213,204,223.646,204,236.777,219.429,260.555,238.462,260.555Z" fill="#e7e3ff"/>
    <path id="Path_90" data-name="Path 90" d="M238.463,255.576l-28.192,18.948,11.637-22.143Z" fill="#e7e3ff"/>
  </g>
</svg>
