<svg id="why-adverlo" xmlns="http://www.w3.org/2000/svg" width="576.277" height="519" viewBox="0 0 576.277 519">
   <style>
    @keyframes pulse {
        0% {
          -webkit-transform: scale(1);
          transform: scale(1);
        }
        70% {
          -webkit-transform: scale(1.4);
          transform: scale(1.4);
        }
        100% {
          -webkit-transform: scale(1);
          transform: scale(1);
        }
    } 

    @-webkit-keyframes box-1 {
        from { -webkit-transform: translate(0,  0px); transform: translate(0,  0px); }
        65%  { -webkit-transform: translate(10.5px, 12px); transform: translate(10.5px, 12px); }
        to   { -webkit-transform: translate(0, 0px); transform: translate(0, 0px); }    
    }

    @-webkit-keyframes box-2 {
        from { -webkit-transform: translate(0,  0px); transform: translate(0,  0px); }
        65%  { -webkit-transform: translate(-6px, -12px); transform: translate(-6px, -12px); }
        to   { -webkit-transform: translate(0, 0px); transform: translate(0, 0px); }    
    }

    @-webkit-keyframes loading {
        from { opacity: 1;  }
        65%  {  opacity: 0.3; }
        to   {  opacity: 1; }    
    }

    @-webkit-keyframes floating-up-down-10 {
        from { -webkit-transform: translate(0,  0px); transform: translate(0,  0px); }
        65%  { -webkit-transform: translate(0, -10px); transform: translate(0, -10px); }
        to   { -webkit-transform: translate(0, 0px); transform: translate(0, 0px); }    
    }

    #dot-1, #dot-2, #dot-3 {
      animation: pulse 2s ease-in-out infinite;
      -webkit-animation: pulse 2s ease-in-out infinite;
      -webkit-transform-origin: center; -ms-transform-origin: center; transform-origin: center; transform-box: fill-box;
    }

    #dot-1 { animation-delay: 1s; }
    #dot-2 { animation-delay: 1.3s; }
    #dot-3 { animation-delay: 1.8s; }

    #bar-1, #bar-2, #bar-3 {
      animation: loading 2s ease-in-out infinite;
      -webkit-animation: loading 2s ease-in-out infinite;
      -webkit-transform-origin: center; -ms-transform-origin: center; transform-origin: center; transform-box: fill-box;
    }

    #bar-1 { animation-delay: 1s; }
    #bar-2 { animation-delay: 1.3s; }
    #bar-3 { animation-delay: 1.8s; }

    #female-man {
      animation-duration: 3s; 
      animation-name: floating-up-down-10; 
      animation-iteration-count: infinite; 
      animation-timing-function: ease-in-out;
    }

    #female-man { animation-delay: 1s; }

    #box-1 {
      animation: box-1 2s ease-in-out infinite;
      -webkit-animation: box-1 2s ease-in-out infinite;
      -webkit-transform-origin: center; -ms-transform-origin: center; transform-origin: center; transform-box: fill-box;
    }

    #box-2 {
      animation: box-2 2s ease-in-out infinite;
      -webkit-animation: box-2 2s ease-in-out infinite;
      -webkit-transform-origin: center; -ms-transform-origin: center; transform-origin: center; transform-box: fill-box;
    }

  </style>
  <g id="background">
    <path id="Path_1" data-name="Path 1" d="M478.184,498.932,79.78,519C-54.15,414.436,5,274.84,79.78,228.543c3.062-35.031,41.1-121.463,218.542-161.6,199.437-45.11,184.7,60.2,139.248,116.711C645.959,262.342,553.127,432.919,478.184,498.932Z" fill="#fff"/>
  </g>
  <path id="Path_2" data-name="Path 2" d="M560.962,130.187V242.308a6.252,6.252,0,0,1-6.3,6.187H354.278A6.248,6.248,0,0,1,348,242.308V130.187A6.248,6.248,0,0,1,354.278,124H554.666A6.252,6.252,0,0,1,560.962,130.187Z" fill="#3e3789"/>
  <path id="Path_3" data-name="Path 3" d="M560.962,131.387v7.825H348v-7.825c0-4.075,2.82-7.387,6.278-7.387H554.666C558.142,124,560.962,127.312,560.962,131.387Z" fill="#fff"/>
  <g id="dot-3">
    <path id="Path_4" data-name="Path 4" d="M382.935,135.227a3.621,3.621,0,1,0-3.621-3.621A3.621,3.621,0,0,0,382.935,135.227Z" fill="#ffb700"/>
  </g>
  <g id="dot-2">
    <path id="Path_5" data-name="Path 5" d="M371.345,135.227a3.621,3.621,0,1,0-3.621-3.621A3.621,3.621,0,0,0,371.345,135.227Z" fill="#e2209e"/>
  </g>
  <g id="dot-1">
    <path id="Path_6" data-name="Path 6" d="M359.772,135.227a3.621,3.621,0,1,0-3.621-3.621A3.621,3.621,0,0,0,359.772,135.227Z" fill="#5e1dbb"/>
  </g>
  <g id="bar-2">
    <path id="Path_7" data-name="Path 7" d="M537.126,185.7H432.41v8.661H537.126Z" fill="#9364ed"/>
  </g>
  <g id="bar-1">
    <path id="Path_8" data-name="Path 8" d="M537.126,167.4H432.41v8.662H537.126Z" fill="#9364ed"/>
  </g>
  <g id="bar-3">
    <path id="Path_9" data-name="Path 9" d="M537.126,203.424H432.41v8.661H537.126Z" fill="#9364ed"/>
  </g>
  <path id="Path_10" data-name="Path 10" d="M422.109,166H374v48.109h48.109Z" fill="#302e69"/>
  <g id="female-man">
    <path id="Path_11" data-name="Path 11" d="M174.842,447.922v31.622H134.66V438.017Z" fill="#fd8753"/>
    <path id="Path_12" data-name="Path 12" d="M279.466,436.11l8.429,30.464L249.115,477.3l-11.064-40.014Z" fill="#fd8753"/>
    <path id="Path_13" data-name="Path 13" d="M163.854,109.216s-10.317-17.344-26.782-8.9-14.671,25.9-27.174,29.921-22.745,14.783-15.475,28.688c6.074,11.625,22.539,7.943,22.539,7.943s10.242,17.437,28.333,11.475S171.647,162.985,169.741,148C167.853,132.97,163.854,109.216,163.854,109.216Z" fill="#5e1dbb"/>
    <path id="Path_14" data-name="Path 14" d="M193.271,134.409s9.774-14.279-10.018-25.549c-19.792-11.251-34.22,4.187-34.388,12.466-.168,8.3,4.56,12.13,4.56,12.13s-1.85,17.979,15.419,16.727C186.113,148.986,193.271,134.409,193.271,134.409Z" fill="#5e1dbb"/>
    <path id="Path_15" data-name="Path 15" d="M167.2,147.342l-.355,14.521s2.523,4.243,10.989,5.14c6.317.673,8.578-.71,8.578-.71l-.691-7.383-.692-7.2-15.25-3.756Z" fill="#fd8753"/>
    <path id="Path_16" data-name="Path 16" d="M167.236,146.65a4.574,4.574,0,0,0,.393,1.421c3.065,7.326,14.428,10.447,18.072,10.858l-.691-7.2Z"/>
    <path id="Path_17" data-name="Path 17" d="M189.065,118.71s7.158,18.39,3.906,28.426-12.447,8.074-17.9,5.869a18.331,18.331,0,0,1-7.887-5.682,7.8,7.8,0,0,1-8.5-3.4c-3.27-4.953-.915-10.392,2.093-11.532s6.43,1.122,6.43,1.122l-2.542-5.364C164.676,128.166,177.328,101.945,189.065,118.71Z" fill="#fd8753"/>
    <path id="Path_18" data-name="Path 18" d="M190.224,142.445h-.112a.681.681,0,0,1-.561-.785c.916-5.55-1.214-8.5-1.252-8.541a.68.68,0,0,1,1.084-.822c.094.131,2.523,3.4,1.5,9.588A.663.663,0,0,1,190.224,142.445Z"/>
    <path id="Path_19" data-name="Path 19" d="M166.806,140.988a.618.618,0,0,1-.318-.075l-7.064-3.757a.664.664,0,0,1-.281-.916.68.68,0,0,1,.916-.28l7.065,3.757a.674.674,0,0,1-.318,1.271Z"/>
    <path id="Path_20" data-name="Path 20" d="M160.228,142.258a.689.689,0,0,1-.524-.243.663.663,0,0,1,.075-.953l3.4-2.971a.686.686,0,0,1,.972.074.664.664,0,0,1-.075.954l-3.4,2.971A.7.7,0,0,1,160.228,142.258Z"/>
    <path id="Path_21" data-name="Path 21" d="M191.925,127.83a15.5,15.5,0,0,0-3.757-8.317c-3.644-4.074-6.728-3.4-6.728-3.4s5.383,11.774-3.663,15.923c-6.429,2.953-10.559,1.514-10.559,1.514L158,124.41l18.315-14.877C176.319,109.515,193.028,107.16,191.925,127.83Z" fill="#5e1dbb"/>
    <path id="Path_22" data-name="Path 22" d="M185.683,146.164a.928.928,0,0,1-.224-.037,7.616,7.616,0,0,1-3.7-3.2.682.682,0,1,1,1.177-.691,6.138,6.138,0,0,0,2.972,2.6.681.681,0,0,1-.225,1.327Z"/>
    <path id="Path_23" data-name="Path 23" d="M183.813,134.764a.68.68,0,0,1-.672-.524l-.729-3.233a.753.753,0,0,1,.093-.523l1.028-1.645a.677.677,0,0,1,1.14.729l-.878,1.4.673,2.953a.7.7,0,0,1-.505.822A.358.358,0,0,1,183.813,134.764Z"/>
    <path id="Path_24" data-name="Path 24" d="M192.859,134.689a.68.68,0,0,1-.672-.523l-.729-3.233a.755.755,0,0,1,.093-.524l1.028-1.644a.676.676,0,1,1,1.14.728l-.878,1.4.673,2.953a.7.7,0,0,1-.505.822A.458.458,0,0,1,192.859,134.689Z"/>
    <path id="Path_25" data-name="Path 25" d="M191.327,126.3a.458.458,0,0,1-.15-.019l-2-.43a.679.679,0,0,1-.523-.8.67.67,0,0,1,.8-.523l2,.43a.68.68,0,0,1,.524.8A.663.663,0,0,1,191.327,126.3Z"/>
    <path id="Path_26" data-name="Path 26" d="M262.29,155.715l32.669,20.035,36.612-49L298.9,106.693Z" fill="#9364ed"/>
    <path id="Path_27" data-name="Path 27" d="M258.048,153.378l32.687,20.035,36.613-49.022-32.669-20.035Z" fill="#fff"/>
    <path id="Path_28" data-name="Path 28" d="M318.171,128.391a.779.779,0,0,1-.355-.094l-23.978-14.708a.68.68,0,0,1,.71-1.159l23.979,14.709a.676.676,0,0,1,.224.934A.688.688,0,0,1,318.171,128.391Z" fill="#5e1dbb"/>
    <path id="Path_29" data-name="Path 29" d="M314.284,133.456a.773.773,0,0,1-.355-.094L289.95,118.654a.68.68,0,0,1,.71-1.159L314.639,132.2a.674.674,0,0,1,.224.934A.664.664,0,0,1,314.284,133.456Z" fill="#5e1dbb"/>
    <path id="Path_30" data-name="Path 30" d="M310.49,138.558a.773.773,0,0,1-.355-.094l-23.979-14.708a.68.68,0,0,1,.711-1.159l23.978,14.709a.674.674,0,0,1,.224.934A.688.688,0,0,1,310.49,138.558Z" fill="#5e1dbb"/>
    <path id="Path_31" data-name="Path 31" d="M306.677,143.679a.773.773,0,0,1-.355-.094l-23.978-14.708a.68.68,0,0,1,.71-1.159l23.978,14.708a.677.677,0,0,1,.225.935A.646.646,0,0,1,306.677,143.679Z" fill="#5e1dbb"/>
    <path id="Path_32" data-name="Path 32" d="M223.173,130.26l-35.416,47.19,34.014,19.867,22.016-58.311Z" fill="#fd8753"/>
    <path id="Path_33" data-name="Path 33" d="M180.992,127.12a.673.673,0,0,1-.225-1.308l4.206-1.458a.673.673,0,0,1,.859.411.659.659,0,0,1-.411.86l-4.205,1.458A.98.98,0,0,1,180.992,127.12Z"/>
    <path id="Path_34" data-name="Path 34" d="M274.475,177.058s.766-13.457,4.822-18.783,11.176-9.475,12.69-6.392c1.533,3.084-3.308,7.551-2.542,9.382s5.831.916,13.457-1.813c7.625-2.71,12.69-11.531,12.69-11.531a13.759,13.759,0,0,1,1.009,6.672,14.587,14.587,0,0,1-1.533,4.859s1.626-3.663,1.626,3.028c0,3.364-2.9,5.7-2.9,5.7s2.28,2.766-2.542,8.859-18.278,11.681-18.278,11.681-14.971,36.556-39.6,46.2a50.054,50.054,0,0,1-43.92-3.308l7.607-40.107C217.1,191.523,243.507,200.9,274.475,177.058Z" fill="#fd8753"/>
    <path id="Path_35" data-name="Path 35" d="M303.071,167.1a.7.7,0,0,1-.673-.542.684.684,0,0,1,.524-.8c5.625-1.178,12.185-7.943,12.241-8.018a.7.7,0,0,1,.972-.019.684.684,0,0,1,.019.972c-.281.3-6.915,7.139-12.952,8.41Z"/>
    <path id="Path_36" data-name="Path 36" d="M304.21,173.731a.7.7,0,0,1-.673-.561.681.681,0,0,1,.561-.785c6.392-1.084,9.158-4.56,9.2-4.6a.664.664,0,0,1,.953-.112.683.683,0,0,1,.131.953c-.131.168-3.1,3.943-10.036,5.1Z"/>
    <path id="Path_37" data-name="Path 37" d="M195.738,251.18s32.725,44.106,59.619,93.091,41.827,110.248,41.827,110.248l-68.852,4.261L178.264,337.749l14.727,119.424-66.59-2.336s-14.41-110.865-6.728-163.158,16.689-63.3,16.689-63.3Z" fill="#ffb700"/>
    <path id="Path_38" data-name="Path 38" d="M156.116,135.829a.718.718,0,0,1-.542-.262c-11.606-14.615,4.019-27.678,4.168-27.809a.677.677,0,1,1,.86,1.046c-.617.5-14.746,12.335-3.962,25.9a.664.664,0,0,1-.113.953A.579.579,0,0,1,156.116,135.829Z" fill="#fff"/>
    <path id="Path_39" data-name="Path 39" d="M233.471,192.028s-26.2-29.324-57.843-31.23-42.294,13.326-43.827,20.558-4.186,59.021-2.28,62.46c1.906,3.42,14.9,9.513,36,11.045,21.119,1.533,32.164-1.14,33.678-2.28s3.42-17.138,3.42-17.138l17.9,4.579Z" fill="#9364ed"/>
    <path id="Path_40" data-name="Path 40" d="M167.2,147.342s8.914,20.053-.355,28-23.063,2.8-23.063,2.8-4.654,2.971-13.55-.038-13.251-11.251-13.251-11.251Z" fill="#5e1dbb"/>
    <path id="Path_41" data-name="Path 41" d="M223.174,130.26s8.9-13.961,13.363-17.026,29.4-12.877,31.865-10.485-12.111,12.391-12.111,12.391,2.505.542,3.121,2.561a4.623,4.623,0,0,1-.486,3.663s3.1-.112,3.981,2-.56,4.43-.56,4.43-5.738,10.466-8.99,10.671c-3.252.225-2.822-5.569-2.822-5.569s-1.177,5.27-4.018,8.186c-2.841,2.9-8.672,3.214-14.69.037C225.79,137.941,223.174,130.26,223.174,130.26Z" fill="#fd8753"/>
    <path id="Path_42" data-name="Path 42" d="M230.125,139.4a.684.684,0,0,1-.056-1.364c6.859-.729,8.541-9.588,8.56-9.663a.67.67,0,0,1,.3-.448.737.737,0,0,1,.523-.094c3.252.71,7.158.972,7.794.15.131-.168.018-.486-.112-.729-1.795-3.57-10.074-7.214-10.149-7.252a.682.682,0,1,1,.542-1.252c.355.15,8.822,3.869,10.821,7.887a1.921,1.921,0,0,1-.037,2.187c-1.308,1.682-6.205.934-8.485.486-.561,2.28-2.841,9.382-9.606,10.092Z"/>
    <path id="Path_43" data-name="Path 43" d="M246.946,126.466a.7.7,0,0,1-.654-.467.684.684,0,0,1,.43-.86c3.925-1.29,8.915-10.242,8.971-10.335a.686.686,0,1,1,1.2.673c-.224.392-5.308,9.513-9.737,10.97A.691.691,0,0,1,246.946,126.466Z"/>
    <path id="Path_44" data-name="Path 44" d="M248.591,134.11h-.131a3.822,3.822,0,0,1-2.99-1.4,5.024,5.024,0,0,1-.673-3.719.678.678,0,0,1,1.327.28,3.632,3.632,0,0,0,.43,2.6,2.524,2.524,0,0,0,1.962.86c2.523.112,7.364-7.1,9.793-11.7a.677.677,0,0,1,1.2.636C258.851,122.971,252.833,134.11,248.591,134.11Z"/>
    <path id="Path_45" data-name="Path 45" d="M202.634,236.116a.723.723,0,0,1-.635-.411c-.879-2.075-5.121-12.559-1.776-14.8a1.364,1.364,0,0,1,1.533-.112c2.224,1.29,1.757,11.569,1.551,14.69a.7.7,0,0,1-.561.635Zm-1.57-14.148c-1.495,1.01-.486,5.85,1.028,10.167C202.223,226.79,201.812,222.361,201.064,221.968Z" fill="#fff"/>
    <path id="Path_46" data-name="Path 46" d="M174.227,263.571c-14.13,0-33.1-2.374-44.5-13.494a.687.687,0,0,1,.953-.991c19.008,18.521,61.283,11.868,61.694,11.793a.682.682,0,0,1,.224,1.346A117.244,117.244,0,0,1,174.227,263.571Z" fill="#fff"/>
    <path id="Path_47" data-name="Path 47" d="M178.581,338.421a.713.713,0,0,1-.6-.336c-.093-.168-9.681-16.241-34.538-25.7a.676.676,0,0,1-.392-.878.663.663,0,0,1,.878-.393c25.343,9.644,35.136,26.128,35.23,26.277a.7.7,0,0,1-.243.935A.543.543,0,0,1,178.581,338.421Z" fill="#fff"/>
    <path id="Path_48" data-name="Path 48" d="M120.512,301.379c-.635,0-1.27-.019-1.925-.056a.688.688,0,0,1-.635-.729.678.678,0,0,1,.729-.635c5.887.392,10.615-1.066,14.073-4.355,5.569-5.289,6.167-13.867,6.242-15.9l-16.353-6.5a.661.661,0,0,1-.374-.879.683.683,0,0,1,.879-.374l16.8,6.673a.663.663,0,0,1,.43.616c0,.449.112,10.934-6.653,17.363C130.343,299.772,125.914,301.379,120.512,301.379Z" fill="#fff"/>
    <path id="Path_49" data-name="Path 49" d="M190.3,307.64c-14.391,0-19.306-22.969-19.343-23.231a.673.673,0,0,1,.467-.785l25.417-7.887a.711.711,0,0,1,.841.393c.3.729,7.046,17.792,2.112,26.52a9.5,9.5,0,0,1-7.176,4.784A12.516,12.516,0,0,1,190.3,307.64Zm-17.867-22.894c.916,3.737,6.429,23.567,19.96,21.362A8.207,8.207,0,0,0,198.6,302c4.131-7.308-.822-21.68-1.962-24.763Z" fill="#fff"/>
    <path id="Path_50" data-name="Path 50" d="M248.068,506.4s-9.756-45.752-2.392-45.9c7.382-.15,19.287,4.616,19.287,4.616s15.176-11.251,23.137-7.532c7.981,3.738,13.756,13.756,13.756,13.756l44.256,19.96s6.055,7.008,5.252,11.1c-.636,3.2-62.086,10.915-89.074,14.148C255.357,517.409,249.058,512.905,248.068,506.4Z" fill="#e2209e"/>
    <path id="Path_51" data-name="Path 51" d="M306.341,485.394a.663.663,0,0,1-.523-.243.65.65,0,0,1-.093-.747l2.84-5.944-16.689,4.318a.689.689,0,0,1-.673-1.14l10.167-10.784a.687.687,0,1,1,1.009.934l-8.541,9.065,15.83-4.093a.683.683,0,0,1,.785.953l-2.8,5.85,12.26-3.906a.686.686,0,0,1,.411,1.308l-13.755,4.373A.506.506,0,0,1,306.341,485.394Z" fill="#5e1dbb"/>
    <path id="Path_52" data-name="Path 52" d="M179.1,465.808s26.259,42.892,21.736,48.181-36.519,6.036-51.134,3.7c-14.6-2.336-20.2-4.093-21.306-7.663s5.831-47.639,5.831-47.639,6.429-7.251,15.251-5.382,22.632,8.69,22.632,8.69S175.535,459.808,179.1,465.808Z" fill="#e2209e"/>
    <path id="Path_53" data-name="Path 53" d="M178.1,469.919a.838.838,0,0,1-.355-.093l-5.981-3.533a.683.683,0,1,1,.692-1.177l5.981,3.532a.7.7,0,0,1,.242.935A.644.644,0,0,1,178.1,469.919Z" fill="#5e1dbb"/>
  </g>
  <path id="Path_54" data-name="Path 54" d="M358.749,94.825h-75.11A3.642,3.642,0,0,1,280,91.186V3.639A3.643,3.643,0,0,1,283.639,0h75.11a3.643,3.643,0,0,1,3.639,3.639V91.186A3.654,3.654,0,0,1,358.749,94.825Z" fill="#5e1dbb"/>
  <g id="box-1">
    <path id="Path_55" data-name="Path 55" d="M326.072,16.883h-31.29V53.725h31.29Z" fill="#ffb700"/>
  </g>
  <g id="box-2">
    <path id="Path_56" data-name="Path 56" d="M347.606,43.3H312.959V77.943h34.647Z" fill="#9364ed"/>
  </g>
  <path id="Path_57" data-name="Path 57" d="M571.656,172.388H476.62A4.629,4.629,0,0,1,472,167.766V121.622A4.628,4.628,0,0,1,476.62,117h95.036a4.628,4.628,0,0,1,4.621,4.622v46.144A4.628,4.628,0,0,1,571.656,172.388Zm-95.036-54.06a3.277,3.277,0,0,0-3.275,3.294v46.144a3.288,3.288,0,0,0,3.275,3.293h95.036a3.277,3.277,0,0,0,3.275-3.293V121.622a3.289,3.289,0,0,0-3.275-3.294Z" fill="#e2209e"/>
  <path id="Path_58" data-name="Path 58" d="M575.6,128.554H472.671A.668.668,0,0,1,472,127.9a.656.656,0,0,1,.673-.655H575.6a.668.668,0,0,1,.673.655A.68.68,0,0,1,575.6,128.554Z" fill="#e2209e"/>
  <path id="Path_59" data-name="Path 59" d="M568.362,126.061a3.22,3.22,0,1,1,3.221-3.22A3.226,3.226,0,0,1,568.362,126.061Zm0-5.094a1.892,1.892,0,1,0,1.893,1.892A1.891,1.891,0,0,0,568.362,120.967Z" fill="#e2209e"/>
  <path id="Path_60" data-name="Path 60" d="M559.828,126.061a3.22,3.22,0,1,1,3.221-3.22A3.226,3.226,0,0,1,559.828,126.061Zm0-5.094a1.892,1.892,0,1,0,1.892,1.892A1.891,1.891,0,0,0,559.828,120.967Z" fill="#e2209e"/>
  <path id="Path_61" data-name="Path 61" d="M551.312,126.061a3.22,3.22,0,1,1,3.221-3.22A3.226,3.226,0,0,1,551.312,126.061Zm0-5.094a1.892,1.892,0,1,0,1.893,1.892A1.914,1.914,0,0,0,551.312,120.967Z" fill="#e2209e"/>
  <path id="Path_62" data-name="Path 62" d="M392.574,196l-4.734-12.708H385.9L381.144,196h1.836l1.134-3.078h5.49L390.738,196Zm-3.546-4.68H384.69l2.16-6.066Zm9.4,4.68c4.248,0,6.282-2.682,6.282-6.354,0-3.69-2.16-6.354-6.426-6.354h-4V196Zm-2.412-11.124h2.3c3.186,0,4.608,2.016,4.608,4.77,0,2.736-1.3,4.77-4.464,4.77h-2.448Zm14.25,11.322c2.214,0,3.456-.936,3.456-2.826,0-1.836-1.242-2.412-3.384-2.736-1.4-.216-2.034-.558-2.034-1.206,0-.828.684-1.188,1.782-1.188a1.916,1.916,0,0,1,1.98,1.062l1.476-.684a3.635,3.635,0,0,0-3.456-1.854c-1.818,0-3.42.828-3.42,2.754,0,1.566,1.206,2.232,3.258,2.574,1.728.288,2.16.63,2.16,1.332,0,.918-.558,1.3-1.782,1.3a2.568,2.568,0,0,1-2.592-1.512l-1.494.648A4.048,4.048,0,0,0,410.269,196.2Z" fill="#fff"/>
</svg>
