<svg width="10" height="17" viewBox="0 0 10 17" fill="none" xmlns="http://www.w3.org/2000/svg">
<path d="M9.14193 7.52816L2.192 0.590507C2.07785 0.475417 1.94204 0.384069 1.79241 0.32173C1.64278 0.25939 1.48228 0.227295 1.32019 0.227295C1.15809 0.227295 0.997594 0.25939 0.847962 0.32173C0.698331 0.384069 0.562523 0.475417 0.448374 0.590507C0.219676 0.82057 0.0913086 1.13178 0.0913086 1.45618C0.0913086 1.78057 0.219676 2.09179 0.448374 2.32185L6.5265 8.46137L0.448374 14.5395C0.219676 14.7696 0.0913086 15.0808 0.0913086 15.4052C0.0913086 15.7296 0.219676 16.0408 0.448374 16.2708C0.562096 16.3869 0.697711 16.4792 0.847363 16.5424C0.997014 16.6056 1.15772 16.6385 1.32019 16.6392C1.48265 16.6385 1.64336 16.6056 1.79301 16.5424C1.94266 16.4792 2.07828 16.3869 2.192 16.2708L9.14193 9.33318C9.26657 9.2182 9.36604 9.07865 9.43408 8.92332C9.50211 8.76799 9.53723 8.60025 9.53723 8.43067C9.53723 8.2611 9.50211 8.09336 9.43408 7.93803C9.36604 7.7827 9.26657 7.64315 9.14193 7.52816V7.52816Z" fill="#121212"/>
</svg>
